<svg width="237" height="230" viewBox="0 0 237 230" fill="none" xmlns="http://www.w3.org/2000/svg">
<path d="M144.094 124.159C144.094 124.159 160.461 74.9581 156.053 66.6503C151.645 58.3424 120.956 48.0531 120.956 48.0531C120.956 48.0531 153.83 52.9971 163.615 48.0841C173.401 43.1712 188.328 14.256 188.328 14.256C188.328 14.256 179.138 44.5532 183.54 52.8599C187.943 61.1665 218.643 71.4583 218.643 71.4583C218.643 71.4583 185.769 66.5142 175.986 71.4221C166.202 76.3299 144.094 124.159 144.094 124.159Z" fill="#FFF2EB" stroke="black" stroke-width="4" stroke-miterlimit="10"/>
<path d="M33.6747 137.932C33.6747 137.932 45.1344 103.483 42.0482 97.6656C38.962 91.8487 17.4741 84.6444 17.4741 84.6444C17.4741 84.6444 40.4917 88.106 47.3431 84.6661C54.1945 81.2262 64.6458 60.9806 64.6458 60.9806C64.6458 60.9806 58.2116 82.1938 61.294 88.0099C64.3763 93.826 85.8719 101.032 85.8719 101.032C85.8719 101.032 62.8544 97.5704 56.0043 101.007C49.1543 104.443 33.6747 137.932 33.6747 137.932Z" fill="#FFF2EB" stroke="black" stroke-width="4" stroke-miterlimit="10"/>
<path d="M152.834 221.295C152.834 221.295 161.705 194.628 159.316 190.125C156.927 185.622 140.293 180.046 140.293 180.046C140.293 180.046 158.111 182.725 163.414 180.062C168.718 177.4 176.808 161.727 176.808 161.727C176.808 161.727 171.828 178.149 174.214 182.651C176.6 187.153 193.24 192.731 193.24 192.731C193.24 192.731 175.422 190.052 170.119 192.712C164.816 195.372 152.834 221.295 152.834 221.295Z" fill="#FFF2EB" stroke="black" stroke-width="4" stroke-miterlimit="10"/>
</svg>
