<svg width="311" height="317" viewBox="0 0 311 317" fill="none" xmlns="http://www.w3.org/2000/svg">
<path d="M261.837 260.896C376.036 230.297 456.287 159.49 441.082 102.745C425.877 46.0005 320.975 24.8056 206.776 55.4052C92.5767 86.0047 12.3259 156.811 27.5306 213.556C42.7353 270.301 147.638 291.496 261.837 260.896Z" fill="#1F307C" stroke="#110002" stroke-width="4" stroke-miterlimit="10"/>
<path d="M255.943 235.693C351.716 210.03 420.027 154.414 408.521 111.47C397.014 68.526 310.046 54.5164 214.273 80.1787C118.5 105.841 50.1885 161.458 61.6953 204.402C73.2021 247.346 160.17 261.355 255.943 235.693Z" fill="#1F307C" stroke="#110002" stroke-width="4" stroke-miterlimit="10"/>
<path d="M115.461 211.084L119.156 169.217L133.403 165.4L157.536 199.81L144.564 203.286L141.516 198.34L128.156 201.919L127.989 207.727L115.461 211.084ZM128.419 192.699L136.734 190.471L133.271 184.864C133.004 184.46 132.694 183.968 132.341 183.39C131.988 182.811 131.625 182.195 131.252 181.543C130.879 180.89 130.511 180.256 130.148 179.64C129.775 178.987 129.445 178.422 129.159 177.944L128.715 178.063C128.746 178.768 128.746 179.58 128.715 180.499C128.721 181.409 128.718 182.36 128.707 183.353C128.686 184.31 128.655 185.229 128.614 186.111L128.419 192.699ZM162.155 198.573L151.935 160.434L175.828 154.032C178.673 153.269 181.192 153.209 183.384 153.849C185.612 154.48 187.455 155.59 188.911 157.181C190.367 158.771 191.382 160.638 191.956 162.781C192.61 165.221 192.621 167.555 191.991 169.783C191.35 171.975 190.204 173.906 188.552 175.577L200.016 188.428L186.269 192.111L177.017 180.866L170.975 182.485L174.406 195.29L162.155 198.573ZM168.702 174.003L177.294 171.701C178.255 171.444 178.969 170.856 179.436 169.939C179.894 168.984 179.954 167.879 179.617 166.622C179.409 165.846 179.078 165.202 178.624 164.69C178.17 164.178 177.64 163.825 177.033 163.631C176.417 163.4 175.776 163.374 175.111 163.552L166.518 165.854L168.702 174.003ZM205.3 187.012L195.081 148.873L207.332 145.59L211.699 161.888L220.914 141.951L236.103 137.881L226.614 157.238L246.599 175.946L232.131 179.823L220.22 167.745L215.413 175.747L217.552 183.729L205.3 187.012ZM245.169 176.329L248.864 134.462L263.111 130.645L287.244 165.055L274.272 168.531L271.224 163.585L257.864 167.164L257.697 172.972L245.169 176.329ZM258.127 157.944L266.442 155.716L262.979 150.108C262.712 149.705 262.402 149.213 262.049 148.635C261.696 148.056 261.333 147.44 260.96 146.787C260.587 146.135 260.219 145.501 259.856 144.885C259.483 144.232 259.153 143.667 258.867 143.189L258.423 143.308C258.454 144.013 258.454 144.825 258.423 145.744C258.429 146.654 258.426 147.605 258.415 148.598C258.394 149.554 258.363 150.474 258.322 151.356L258.127 157.944ZM299.468 161.78L275.723 127.265L288.805 123.76L298.795 139.977C299.072 140.418 299.463 141.065 299.969 141.92C300.476 142.774 301.015 143.68 301.588 144.635C302.198 145.581 302.728 146.449 303.177 147.239L303.621 147.121C303.634 146.285 303.655 145.329 303.684 144.252C303.712 143.175 303.732 142.14 303.743 141.146C303.781 140.106 303.795 139.271 303.784 138.64L304.382 119.586L316.911 116.229L313.659 157.977L299.468 161.78Z" fill="#110002"/>
<path d="M115.461 211.084L113.967 210.952L113.778 213.088L115.849 212.533L115.461 211.084ZM119.156 169.217L118.768 167.768L117.754 168.04L117.662 169.085L119.156 169.217ZM133.403 165.4L134.631 164.538L134.028 163.679L133.014 163.951L133.403 165.4ZM157.536 199.81L157.924 201.259L159.995 200.704L158.764 198.949L157.536 199.81ZM144.564 203.286L143.287 204.073L143.873 205.024L144.952 204.735L144.564 203.286ZM141.516 198.34L142.793 197.553L142.207 196.602L141.128 196.891L141.516 198.34ZM128.156 201.919L127.768 200.471L126.689 200.76L126.657 201.876L128.156 201.919ZM127.989 207.727L128.378 209.176L129.457 208.887L129.489 207.77L127.989 207.727ZM128.419 192.699L126.919 192.655L126.86 194.67L128.807 194.148L128.419 192.699ZM136.734 190.471L137.122 191.92L139.069 191.398L138.01 189.683L136.734 190.471ZM133.271 184.864L134.547 184.075L134.535 184.056L134.522 184.037L133.271 184.864ZM131.252 181.543L129.949 182.287L129.949 182.287L131.252 181.543ZM130.148 179.64L128.846 180.384L128.851 180.393L128.856 180.402L130.148 179.64ZM129.159 177.944L130.445 177.173L129.863 176.203L128.771 176.496L129.159 177.944ZM128.715 178.063L128.327 176.614L127.165 176.926L127.217 178.128L128.715 178.063ZM128.715 180.499L127.215 180.449L127.214 180.479L127.215 180.509L128.715 180.499ZM128.707 183.353L130.207 183.386L130.207 183.378L130.207 183.37L128.707 183.353ZM128.614 186.111L127.116 186.042L127.115 186.054L127.115 186.067L128.614 186.111ZM116.955 211.216L120.65 169.349L117.662 169.085L113.967 210.952L116.955 211.216ZM119.544 170.666L133.791 166.849L133.014 163.951L118.768 167.768L119.544 170.666ZM132.174 166.261L156.308 200.672L158.764 198.949L134.631 164.538L132.174 166.261ZM157.148 198.361L144.176 201.837L144.952 204.735L157.924 201.259L157.148 198.361ZM145.841 202.499L142.793 197.553L140.239 199.127L143.287 204.073L145.841 202.499ZM141.128 196.891L127.768 200.471L128.544 203.368L141.904 199.789L141.128 196.891ZM126.657 201.876L126.49 207.684L129.489 207.77L129.655 201.963L126.657 201.876ZM127.601 206.278L115.073 209.635L115.849 212.533L128.378 209.176L127.601 206.278ZM128.807 194.148L137.122 191.92L136.346 189.022L128.03 191.25L128.807 194.148ZM138.01 189.683L134.547 184.075L131.994 185.652L135.458 191.259L138.01 189.683ZM134.522 184.037C134.269 183.653 133.969 183.177 133.621 182.608L131.06 184.171C131.419 184.759 131.739 185.267 132.019 185.69L134.522 184.037ZM133.621 182.608C133.276 182.043 132.921 181.44 132.554 180.798L129.949 182.287C130.329 182.951 130.699 183.579 131.06 184.171L133.621 182.608ZM132.554 180.798C132.178 180.14 131.807 179.5 131.44 178.878L128.856 180.402C129.215 181.011 129.58 181.64 129.949 182.287L132.554 180.798ZM131.45 178.896C131.074 178.237 130.739 177.662 130.445 177.173L127.872 178.716C128.152 179.182 128.476 179.738 128.846 180.384L131.45 178.896ZM128.771 176.496L128.327 176.614L129.104 179.512L129.547 179.393L128.771 176.496ZM127.217 178.128C127.245 178.785 127.245 179.557 127.215 180.449L130.214 180.55C130.246 179.603 130.246 178.751 130.214 177.999L127.217 178.128ZM127.215 180.509C127.221 181.409 127.218 182.351 127.207 183.337L130.207 183.37C130.218 182.369 130.221 181.409 130.215 180.49L127.215 180.509ZM127.207 183.32C127.186 184.266 127.156 185.173 127.116 186.042L130.112 186.181C130.154 185.285 130.185 184.354 130.207 183.386L127.207 183.32ZM127.115 186.067L126.919 192.655L129.918 192.744L130.113 186.156L127.115 186.067ZM162.155 198.573L160.706 198.961L161.094 200.41L162.543 200.022L162.155 198.573ZM151.935 160.434L151.547 158.985L150.098 159.373L150.487 160.822L151.935 160.434ZM183.384 153.849L182.963 155.289L182.975 155.292L183.384 153.849ZM188.911 157.181L187.804 158.194L188.911 157.181ZM191.991 169.783L193.43 170.204L193.434 170.192L191.991 169.783ZM188.552 175.577L187.485 174.522L186.495 175.524L187.433 176.575L188.552 175.577ZM200.016 188.428L200.405 189.877L202.757 189.246L201.136 187.429L200.016 188.428ZM186.269 192.111L185.11 193.064L185.724 193.81L186.657 193.56L186.269 192.111ZM177.017 180.866L178.175 179.913L177.562 179.167L176.629 179.417L177.017 180.866ZM170.975 182.485L170.586 181.036L169.137 181.424L169.526 182.873L170.975 182.485ZM174.406 195.29L174.794 196.739L176.243 196.351L175.855 194.902L174.406 195.29ZM168.702 174.003L167.253 174.392L167.641 175.84L169.09 175.452L168.702 174.003ZM179.436 169.939L180.773 170.619L180.781 170.603L180.789 170.587L179.436 169.939ZM178.624 164.69L177.502 165.685L177.502 165.685L178.624 164.69ZM177.033 163.631L176.507 165.036L176.541 165.049L176.576 165.06L177.033 163.631ZM166.518 165.854L166.13 164.406L164.681 164.794L165.07 166.243L166.518 165.854ZM163.604 198.185L153.384 160.046L150.487 160.822L160.706 198.961L163.604 198.185ZM152.324 161.883L176.216 155.481L175.439 152.583L151.547 158.985L152.324 161.883ZM176.216 155.481C178.872 154.769 181.101 154.745 182.963 155.289L183.805 152.409C181.283 151.672 178.475 151.77 175.439 152.583L176.216 155.481ZM182.975 155.292C184.957 155.853 186.551 156.824 187.804 158.194L190.017 156.168C188.359 154.357 186.268 153.107 183.792 152.406L182.975 155.292ZM187.804 158.194C189.093 159.601 189.994 161.252 190.507 163.17L193.405 162.393C192.77 160.024 191.641 157.941 190.017 156.168L187.804 158.194ZM190.507 163.17C191.097 165.372 191.098 167.429 190.547 169.375L193.434 170.192C194.145 167.68 194.122 165.069 193.405 162.393L190.507 163.17ZM190.551 169.362C189.982 171.308 188.967 173.023 187.485 174.522L189.619 176.631C191.44 174.789 192.718 172.642 193.43 170.204L190.551 169.362ZM187.433 176.575L198.897 189.426L201.136 187.429L189.671 174.578L187.433 176.575ZM199.628 186.979L185.88 190.663L186.657 193.56L200.405 189.877L199.628 186.979ZM187.427 191.158L178.175 179.913L175.859 181.819L185.11 193.064L187.427 191.158ZM176.629 179.417L170.586 181.036L171.363 183.934L177.405 182.315L176.629 179.417ZM169.526 182.873L172.957 195.678L175.855 194.902L172.423 182.097L169.526 182.873ZM174.017 193.841L161.766 197.124L162.543 200.022L174.794 196.739L174.017 193.841ZM169.09 175.452L177.683 173.15L176.906 170.252L168.314 172.554L169.09 175.452ZM177.683 173.15C179.07 172.778 180.121 171.901 180.773 170.619L178.1 169.258C177.818 169.811 177.44 170.109 176.906 170.252L177.683 173.15ZM180.789 170.587C181.434 169.24 181.473 167.754 181.066 166.234L178.168 167.011C178.434 168.004 178.353 168.728 178.084 169.291L180.789 170.587ZM181.066 166.234C180.808 165.272 180.38 164.409 179.746 163.695L177.502 165.685C177.777 165.995 178.01 166.421 178.168 167.011L181.066 166.234ZM179.746 163.695C179.127 162.997 178.373 162.485 177.49 162.202L176.576 165.06C176.907 165.166 177.213 165.359 177.502 165.685L179.746 163.695ZM177.559 162.226C176.636 161.881 175.675 161.848 174.723 162.103L175.499 165.001C175.877 164.9 176.197 164.92 176.507 165.036L177.559 162.226ZM174.723 162.103L166.13 164.406L166.907 167.303L175.499 165.001L174.723 162.103ZM165.07 166.243L167.253 174.392L170.151 173.615L167.967 165.466L165.07 166.243ZM205.3 187.012L203.852 187.4L204.24 188.849L205.689 188.461L205.3 187.012ZM195.081 148.873L194.693 147.424L193.244 147.812L193.632 149.261L195.081 148.873ZM207.332 145.59L208.781 145.202L208.393 143.753L206.944 144.141L207.332 145.59ZM211.699 161.888L210.25 162.276L211.323 166.278L213.061 162.517L211.699 161.888ZM220.914 141.951L220.525 140.502L219.847 140.684L219.552 141.322L220.914 141.951ZM236.103 137.881L237.45 138.542L238.902 135.578L235.714 136.432L236.103 137.881ZM226.614 157.238L225.267 156.578L224.778 157.575L225.589 158.333L226.614 157.238ZM246.599 175.946L246.987 177.395L249.595 176.696L247.624 174.851L246.599 175.946ZM232.131 179.823L231.063 180.876L231.676 181.498L232.519 181.272L232.131 179.823ZM220.22 167.745L221.288 166.691L219.93 165.314L218.934 166.972L220.22 167.745ZM215.413 175.747L214.127 174.974L213.799 175.52L213.964 176.135L215.413 175.747ZM217.552 183.729L217.94 185.178L219.389 184.79L219 183.341L217.552 183.729ZM206.749 186.624L196.53 148.485L193.632 149.261L203.852 187.4L206.749 186.624ZM195.469 150.322L207.72 147.039L206.944 144.141L194.693 147.424L195.469 150.322ZM205.883 145.979L210.25 162.276L213.148 161.5L208.781 145.202L205.883 145.979ZM213.061 162.517L222.275 142.58L219.552 141.322L210.338 161.259L213.061 162.517ZM221.302 143.4L236.491 139.33L235.714 136.432L220.525 140.502L221.302 143.4ZM234.756 137.221L225.267 156.578L227.961 157.898L237.45 138.542L234.756 137.221ZM225.589 158.333L245.574 177.041L247.624 174.851L227.639 156.143L225.589 158.333ZM246.211 174.497L231.743 178.374L232.519 181.272L246.987 177.395L246.211 174.497ZM233.199 178.769L221.288 166.691L219.152 168.798L231.063 180.876L233.199 178.769ZM218.934 166.972L214.127 174.974L216.698 176.519L221.506 168.517L218.934 166.972ZM213.964 176.135L216.103 184.117L219 183.341L216.861 175.358L213.964 176.135ZM217.163 182.28L204.912 185.563L205.689 188.461L217.94 185.178L217.163 182.28ZM245.169 176.329L243.675 176.197L243.486 178.333L245.557 177.778L245.169 176.329ZM248.864 134.462L248.476 133.013L247.462 133.285L247.37 134.33L248.864 134.462ZM263.111 130.645L264.339 129.783L263.736 128.924L262.722 129.196L263.111 130.645ZM287.244 165.055L287.632 166.504L289.703 165.949L288.472 164.194L287.244 165.055ZM274.272 168.531L272.995 169.318L273.581 170.269L274.66 169.98L274.272 168.531ZM271.224 163.585L272.501 162.798L271.915 161.847L270.836 162.136L271.224 163.585ZM257.864 167.164L257.476 165.715L256.397 166.005L256.365 167.121L257.864 167.164ZM257.697 172.972L258.086 174.421L259.165 174.132L259.197 173.015L257.697 172.972ZM258.127 157.944L256.627 157.9L256.568 159.915L258.515 159.393L258.127 157.944ZM266.442 155.716L266.83 157.165L268.777 156.643L267.718 154.928L266.442 155.716ZM262.979 150.108L264.255 149.32L264.243 149.301L264.23 149.282L262.979 150.108ZM260.96 146.787L259.657 147.532L259.657 147.532L260.96 146.787ZM259.856 144.885L258.554 145.629L258.559 145.638L258.564 145.647L259.856 144.885ZM258.867 143.189L260.153 142.418L259.572 141.448L258.479 141.74L258.867 143.189ZM258.423 143.308L258.035 141.859L256.873 142.171L256.925 143.373L258.423 143.308ZM258.423 145.744L256.923 145.694L256.922 145.724L256.923 145.754L258.423 145.744ZM258.415 148.598L259.915 148.631L259.915 148.623L259.915 148.615L258.415 148.598ZM258.322 151.356L256.824 151.287L256.823 151.299L256.823 151.312L258.322 151.356ZM246.663 176.461L250.358 134.594L247.37 134.33L243.675 176.197L246.663 176.461ZM249.252 135.911L263.499 132.093L262.722 129.196L248.476 133.013L249.252 135.911ZM261.882 131.506L286.016 165.917L288.472 164.194L264.339 129.783L261.882 131.506ZM286.856 163.606L273.884 167.082L274.66 169.98L287.632 166.504L286.856 163.606ZM275.549 167.744L272.501 162.798L269.947 164.372L272.995 169.318L275.549 167.744ZM270.836 162.136L257.476 165.715L258.252 168.613L271.612 165.033L270.836 162.136ZM256.365 167.121L256.198 172.929L259.197 173.015L259.364 167.207L256.365 167.121ZM257.309 171.523L244.781 174.88L245.557 177.778L258.086 174.421L257.309 171.523ZM258.515 159.393L266.83 157.165L266.054 154.267L257.738 156.495L258.515 159.393ZM267.718 154.928L264.255 149.32L261.702 150.897L265.166 156.504L267.718 154.928ZM264.23 149.282C263.977 148.898 263.677 148.422 263.329 147.853L260.768 149.416C261.128 150.004 261.447 150.512 261.727 150.935L264.23 149.282ZM263.329 147.853C262.985 147.288 262.629 146.685 262.262 146.043L259.657 147.532C260.037 148.195 260.407 148.824 260.768 149.416L263.329 147.853ZM262.262 146.043C261.886 145.385 261.515 144.745 261.148 144.123L258.564 145.647C258.923 146.256 259.288 146.885 259.657 147.532L262.262 146.043ZM261.158 144.141C260.782 143.482 260.447 142.907 260.153 142.418L257.58 143.961C257.86 144.427 258.184 144.983 258.554 145.629L261.158 144.141ZM258.479 141.74L258.035 141.859L258.812 144.757L259.255 144.638L258.479 141.74ZM256.925 143.373C256.953 144.03 256.953 144.802 256.923 145.694L259.922 145.795C259.954 144.848 259.954 143.996 259.922 143.243L256.925 143.373ZM256.923 145.754C256.929 146.654 256.926 147.596 256.915 148.581L259.915 148.615C259.926 147.614 259.929 146.653 259.923 145.734L256.923 145.754ZM256.915 148.565C256.894 149.51 256.864 150.418 256.824 151.287L259.821 151.426C259.862 150.53 259.893 149.599 259.915 148.631L256.915 148.565ZM256.823 151.312L256.627 157.9L259.626 157.989L259.821 151.401L256.823 151.312ZM299.468 161.78L298.232 162.63L298.833 163.503L299.856 163.229L299.468 161.78ZM275.723 127.265L275.335 125.816L273.283 126.366L274.487 128.115L275.723 127.265ZM288.805 123.76L290.082 122.973L289.496 122.022L288.417 122.311L288.805 123.76ZM298.795 139.977L297.518 140.763L297.524 140.774L298.795 139.977ZM301.588 144.635L300.302 145.406L300.314 145.427L300.327 145.448L301.588 144.635ZM303.177 147.239L301.873 147.981L302.446 148.988L303.565 148.688L303.177 147.239ZM303.621 147.121L304.009 148.569L305.102 148.277L305.12 147.145L303.621 147.121ZM303.684 144.252L302.184 144.212L303.684 144.252ZM303.743 141.146L302.244 141.091L302.243 141.11L302.243 141.13L303.743 141.146ZM303.784 138.64L302.285 138.593L302.284 138.629L302.284 138.665L303.784 138.64ZM304.382 119.586L303.994 118.137L302.918 118.425L302.883 119.539L304.382 119.586ZM316.911 116.229L318.406 116.345L318.571 114.231L316.522 114.78L316.911 116.229ZM313.659 157.977L314.048 159.426L315.072 159.152L315.155 158.094L313.659 157.977ZM300.704 160.93L276.959 126.415L274.487 128.115L298.232 162.63L300.704 160.93ZM276.111 128.714L289.194 125.209L288.417 122.311L275.335 125.816L276.111 128.714ZM287.528 124.546L297.518 140.763L300.072 139.19L290.082 122.973L287.528 124.546ZM297.524 140.774C297.791 141.198 298.174 141.833 298.679 142.684L301.26 141.155C300.752 140.298 300.353 139.637 300.066 139.18L297.524 140.774ZM298.679 142.684C299.186 143.541 299.727 144.449 300.302 145.406L302.875 143.864C302.303 142.91 301.765 142.007 301.26 141.155L298.679 142.684ZM300.327 145.448C300.926 146.376 301.44 147.219 301.873 147.981L304.481 146.498C304.015 145.678 303.47 144.786 302.849 143.822L300.327 145.448ZM303.565 148.688L304.009 148.569L303.232 145.672L302.789 145.791L303.565 148.688ZM305.12 147.145C305.134 146.316 305.155 145.365 305.183 144.291L302.184 144.212C302.156 145.293 302.135 146.254 302.121 147.096L305.12 147.145ZM305.183 144.291C305.212 143.207 305.231 142.165 305.243 141.163L302.243 141.13C302.232 142.115 302.212 143.142 302.184 144.212L305.183 144.291ZM305.242 141.201C305.28 140.149 305.295 139.284 305.284 138.615L302.284 138.665C302.294 139.258 302.282 140.063 302.244 141.091L305.242 141.201ZM305.283 138.687L305.882 119.633L302.883 119.539L302.285 138.593L305.283 138.687ZM304.771 121.035L317.299 117.678L316.522 114.78L303.994 118.137L304.771 121.035ZM315.415 116.112L312.164 157.861L315.155 158.094L318.406 116.345L315.415 116.112ZM313.271 156.528L299.08 160.331L299.856 163.229L314.048 159.426L313.271 156.528Z" fill="#110002"/>
<path d="M104.779 209.857L108.474 167.99L122.721 164.172L146.854 198.583L133.883 202.059L130.834 197.112L117.474 200.692L117.308 206.5L104.779 209.857ZM117.737 191.472L126.052 189.244L122.589 183.636C122.322 183.232 122.012 182.741 121.659 182.162C121.306 181.583 120.943 180.968 120.57 180.315C120.197 179.662 119.829 179.028 119.466 178.413C119.093 177.76 118.764 177.195 118.477 176.717L118.034 176.836C118.064 177.541 118.064 178.353 118.033 179.272C118.039 180.181 118.036 181.133 118.025 182.126C118.004 183.082 117.973 184.001 117.932 184.884L117.737 191.472ZM151.473 197.345L141.254 159.206L165.146 152.804C167.992 152.042 170.51 151.981 172.702 152.622C174.931 153.252 176.773 154.363 178.229 155.953C179.685 157.544 180.7 159.41 181.275 161.554C181.928 163.993 181.94 166.327 181.309 168.556C180.668 170.747 179.522 172.679 177.87 174.349L189.335 187.2L175.587 190.884L166.335 179.638L160.293 181.257L163.724 194.063L151.473 197.345ZM158.02 172.776L166.613 170.473C167.574 170.216 168.288 169.629 168.755 168.711C169.212 167.757 169.272 166.651 168.936 165.395C168.728 164.619 168.397 163.975 167.942 163.463C167.488 162.951 166.958 162.598 166.352 162.404C165.735 162.173 165.094 162.146 164.429 162.325L155.837 164.627L158.02 172.776ZM194.619 185.784L184.4 147.645L196.651 144.363L201.018 160.661L210.232 140.724L225.421 136.654L215.932 156.011L235.918 174.718L221.449 178.595L209.538 166.517L204.731 174.519L206.87 182.502L194.619 185.784ZM234.488 175.102L238.182 133.234L252.429 129.417L276.562 163.828L263.591 167.303L260.542 162.357L247.182 165.937L247.016 171.745L234.488 175.102ZM247.445 156.717L255.76 154.489L252.297 148.881C252.03 148.477 251.72 147.986 251.367 147.407C251.014 146.828 250.651 146.213 250.278 145.56C249.905 144.907 249.537 144.273 249.174 143.657C248.801 143.005 248.472 142.439 248.185 141.962L247.742 142.081C247.772 142.785 247.772 143.597 247.741 144.517C247.747 145.426 247.744 146.377 247.733 147.371C247.712 148.327 247.681 149.246 247.64 150.129L247.445 156.717ZM288.786 160.552L265.041 126.038L278.124 122.532L288.113 138.749C288.39 139.19 288.781 139.838 289.288 140.692C289.794 141.547 290.333 142.452 290.906 143.408C291.516 144.353 292.046 145.221 292.495 146.012L292.939 145.893C292.953 145.058 292.974 144.101 293.002 143.024C293.03 141.947 293.05 140.912 293.061 139.919C293.099 138.879 293.113 138.043 293.103 137.412L293.701 118.358L306.229 115.001L302.978 156.75L288.786 160.552Z" fill="#FFEADF"/>
<path d="M104.779 209.857L103.285 209.725L103.097 211.861L105.168 211.306L104.779 209.857ZM108.474 167.99L108.086 166.541L107.072 166.812L106.98 167.858L108.474 167.99ZM122.721 164.172L123.949 163.311L123.346 162.452L122.333 162.723L122.721 164.172ZM146.854 198.583L147.242 200.032L149.313 199.477L148.082 197.722L146.854 198.583ZM133.883 202.059L132.606 202.846L133.192 203.797L134.271 203.507L133.883 202.059ZM130.834 197.112L132.111 196.325L131.525 195.374L130.446 195.663L130.834 197.112ZM117.474 200.692L117.086 199.243L116.007 199.532L115.975 200.649L117.474 200.692ZM117.308 206.5L117.696 207.949L118.775 207.66L118.807 206.543L117.308 206.5ZM117.737 191.472L116.238 191.427L116.178 193.442L118.125 192.921L117.737 191.472ZM126.052 189.244L126.44 190.693L128.388 190.171L127.328 188.456L126.052 189.244ZM122.589 183.636L123.865 182.848L123.853 182.829L123.841 182.81L122.589 183.636ZM120.57 180.315L119.268 181.059L119.268 181.059L120.57 180.315ZM119.466 178.413L118.164 179.157L118.169 179.166L118.174 179.174L119.466 178.413ZM118.477 176.717L119.764 175.946L119.182 174.975L118.089 175.268L118.477 176.717ZM118.034 176.836L117.645 175.387L116.483 175.698L116.535 176.9L118.034 176.836ZM118.033 179.272L116.534 179.221L116.533 179.252L116.533 179.282L118.033 179.272ZM118.025 182.126L119.525 182.159L119.525 182.151L119.525 182.143L118.025 182.126ZM117.932 184.884L116.434 184.814L116.433 184.827L116.433 184.839L117.932 184.884ZM106.274 209.989L109.968 168.121L106.98 167.858L103.285 209.725L106.274 209.989ZM108.862 169.438L123.109 165.621L122.333 162.723L108.086 166.541L108.862 169.438ZM121.493 165.033L145.626 199.444L148.082 197.722L123.949 163.311L121.493 165.033ZM146.466 197.134L133.494 200.61L134.271 203.507L147.242 200.032L146.466 197.134ZM135.16 201.272L132.111 196.325L129.557 197.899L132.606 202.846L135.16 201.272ZM130.446 195.663L117.086 199.243L117.863 202.141L131.222 198.561L130.446 195.663ZM115.975 200.649L115.808 206.457L118.807 206.543L118.974 200.735L115.975 200.649ZM116.919 205.051L104.391 208.408L105.168 211.306L117.696 207.949L116.919 205.051ZM118.125 192.921L126.44 190.693L125.664 187.795L117.349 190.023L118.125 192.921ZM127.328 188.456L123.865 182.848L121.313 184.424L124.776 190.032L127.328 188.456ZM123.841 182.81C123.587 182.425 123.287 181.95 122.94 181.381L120.379 182.943C120.738 183.532 121.058 184.039 121.337 184.463L123.841 182.81ZM122.94 181.381C122.595 180.816 122.239 180.212 121.873 179.571L119.268 181.059C119.647 181.723 120.017 182.351 120.379 182.943L122.94 181.381ZM121.873 179.571C121.496 178.913 121.125 178.273 120.758 177.651L118.174 179.174C118.534 179.784 118.898 180.412 119.268 181.059L121.873 179.571ZM120.769 177.668C120.392 177.009 120.057 176.435 119.764 175.946L117.191 177.488C117.47 177.954 117.794 178.51 118.164 179.157L120.769 177.668ZM118.089 175.268L117.645 175.387L118.422 178.285L118.865 178.166L118.089 175.268ZM116.535 176.9C116.563 177.557 116.564 178.33 116.534 179.221L119.532 179.322C119.564 178.375 119.565 177.524 119.532 176.771L116.535 176.9ZM116.533 179.282C116.539 180.182 116.536 181.124 116.525 182.109L119.525 182.143C119.536 181.141 119.539 180.181 119.533 179.262L116.533 179.282ZM116.526 182.093C116.505 183.038 116.474 183.945 116.434 184.814L119.431 184.953C119.472 184.058 119.504 183.126 119.525 182.159L116.526 182.093ZM116.433 184.839L116.238 191.427L119.236 191.516L119.432 184.928L116.433 184.839ZM151.473 197.345L150.024 197.733L150.412 199.182L151.861 198.794L151.473 197.345ZM141.254 159.206L140.866 157.757L139.417 158.146L139.805 159.595L141.254 159.206ZM172.702 152.622L172.281 154.061L172.294 154.065L172.702 152.622ZM178.229 155.953L177.123 156.966L178.229 155.953ZM181.309 168.556L182.749 168.977L182.752 168.964L181.309 168.556ZM177.87 174.349L176.804 173.294L175.813 174.296L176.751 175.348L177.87 174.349ZM189.335 187.2L189.723 188.649L192.075 188.019L190.454 186.202L189.335 187.2ZM175.587 190.884L174.429 191.837L175.042 192.583L175.975 192.333L175.587 190.884ZM166.335 179.638L167.494 178.685L166.88 177.939L165.947 178.189L166.335 179.638ZM160.293 181.257L159.905 179.808L158.456 180.197L158.844 181.645L160.293 181.257ZM163.724 194.063L164.112 195.511L165.561 195.123L165.173 193.674L163.724 194.063ZM158.02 172.776L156.571 173.164L156.96 174.613L158.409 174.225L158.02 172.776ZM168.755 168.711L170.091 169.392L170.1 169.376L170.107 169.359L168.755 168.711ZM167.942 163.463L166.82 164.458L166.82 164.458L167.942 163.463ZM166.352 162.404L165.825 163.808L165.86 163.821L165.895 163.832L166.352 162.404ZM155.837 164.627L155.449 163.178L154 163.566L154.388 165.015L155.837 164.627ZM152.922 196.957L142.703 158.818L139.805 159.595L150.024 197.733L152.922 196.957ZM141.642 160.655L165.534 154.253L164.758 151.356L140.866 157.757L141.642 160.655ZM165.534 154.253C168.19 153.542 170.42 153.517 172.281 154.061L173.123 151.182C170.601 150.445 167.793 150.542 164.758 151.356L165.534 154.253ZM172.294 154.065C174.275 154.626 175.869 155.597 177.123 156.966L179.336 154.94C177.677 153.129 175.587 151.879 173.111 151.178L172.294 154.065ZM177.123 156.966C178.411 158.373 179.312 160.024 179.826 161.942L182.724 161.166C182.089 158.797 180.959 156.714 179.336 154.94L177.123 156.966ZM179.826 161.942C180.416 164.144 180.416 166.202 179.866 168.147L182.752 168.964C183.463 166.452 183.441 163.842 182.724 161.166L179.826 161.942ZM179.869 168.135C179.3 170.081 178.286 171.796 176.804 173.294L178.937 175.404C180.759 173.561 182.036 171.414 182.749 168.976L179.869 168.135ZM176.751 175.348L188.215 188.199L190.454 186.202L178.99 173.35L176.751 175.348ZM188.947 185.751L175.199 189.435L175.975 192.333L189.723 188.649L188.947 185.751ZM176.745 189.931L167.494 178.685L165.177 180.591L174.429 191.837L176.745 189.931ZM165.947 178.189L159.905 179.808L160.681 182.706L166.723 181.087L165.947 178.189ZM158.844 181.645L162.275 194.451L165.173 193.674L161.742 180.869L158.844 181.645ZM163.336 192.614L151.085 195.896L151.861 198.794L164.112 195.511L163.336 192.614ZM158.409 174.225L167.001 171.922L166.224 169.025L157.632 171.327L158.409 174.225ZM167.001 171.922C168.388 171.551 169.439 170.673 170.091 169.392L167.418 168.03C167.136 168.584 166.759 168.881 166.224 169.025L167.001 171.922ZM170.107 169.359C170.753 168.013 170.792 166.527 170.384 165.007L167.487 165.783C167.753 166.776 167.671 167.501 167.402 168.063L170.107 169.359ZM170.384 165.007C170.127 164.045 169.698 163.182 169.065 162.467L166.82 164.458C167.095 164.768 167.329 165.193 167.487 165.783L170.384 165.007ZM169.065 162.467C168.446 161.769 167.691 161.257 166.809 160.975L165.895 163.832C166.225 163.938 166.531 164.132 166.82 164.458L169.065 162.467ZM166.878 160.999C165.955 160.653 164.993 160.62 164.041 160.876L164.817 163.773C165.195 163.672 165.516 163.692 165.825 163.808L166.878 160.999ZM164.041 160.876L155.449 163.178L156.225 166.076L164.817 163.773L164.041 160.876ZM154.388 165.015L156.571 173.164L159.469 172.388L157.286 164.239L154.388 165.015ZM194.619 185.784L193.17 186.173L193.558 187.621L195.007 187.233L194.619 185.784ZM184.4 147.645L184.011 146.197L182.562 146.585L182.951 148.034L184.4 147.645ZM196.651 144.363L198.099 143.975L197.711 142.526L196.262 142.914L196.651 144.363ZM201.018 160.661L199.569 161.049L200.641 165.051L202.379 161.29L201.018 160.661ZM210.232 140.724L209.844 139.275L209.165 139.457L208.87 140.094L210.232 140.724ZM225.421 136.654L226.768 137.314L228.221 134.351L225.033 135.205L225.421 136.654ZM215.932 156.011L214.585 155.35L214.097 156.347L214.907 157.106L215.932 156.011ZM235.918 174.718L236.306 176.167L238.914 175.468L236.943 173.623L235.918 174.718ZM221.449 178.595L220.381 179.648L220.994 180.27L221.837 180.044L221.449 178.595ZM209.538 166.517L210.606 165.464L209.248 164.087L208.253 165.745L209.538 166.517ZM204.731 174.519L203.445 173.747L203.117 174.292L203.282 174.907L204.731 174.519ZM206.87 182.502L207.258 183.951L208.707 183.562L208.319 182.113L206.87 182.502ZM196.068 185.396L185.848 147.257L182.951 148.034L193.17 186.173L196.068 185.396ZM184.788 149.094L197.039 145.812L196.262 142.914L184.011 146.197L184.788 149.094ZM195.202 144.751L199.569 161.049L202.466 160.272L198.099 143.975L195.202 144.751ZM202.379 161.29L211.594 141.353L208.87 140.094L199.656 160.031L202.379 161.29ZM210.62 142.173L225.809 138.103L225.033 135.205L209.844 139.275L210.62 142.173ZM224.074 135.994L214.585 155.35L217.279 156.671L226.768 137.314L224.074 135.994ZM214.907 157.106L234.892 175.813L236.943 173.623L216.957 154.915L214.907 157.106ZM235.529 173.27L221.061 177.146L221.837 180.044L236.306 176.167L235.529 173.27ZM222.517 177.542L210.606 165.464L208.47 167.57L220.381 179.648L222.517 177.542ZM208.253 165.745L203.445 173.747L206.017 175.292L210.824 167.29L208.253 165.745ZM203.282 174.907L205.421 182.89L208.319 182.113L206.18 174.131L203.282 174.907ZM206.482 181.053L194.231 184.335L195.007 187.233L207.258 183.951L206.482 181.053ZM234.487 175.102L232.993 174.97L232.805 177.105L234.876 176.55L234.487 175.102ZM238.182 133.234L237.794 131.786L236.78 132.057L236.688 133.103L238.182 133.234ZM252.429 129.417L253.657 128.556L253.054 127.697L252.041 127.968L252.429 129.417ZM276.562 163.828L276.951 165.277L279.021 164.722L277.79 162.966L276.562 163.828ZM263.591 167.303L262.314 168.09L262.9 169.041L263.979 168.752L263.591 167.303ZM260.542 162.357L261.819 161.57L261.233 160.619L260.154 160.908L260.542 162.357ZM247.182 165.937L246.794 164.488L245.715 164.777L245.683 165.894L247.182 165.937ZM247.016 171.745L247.404 173.194L248.483 172.904L248.515 171.788L247.016 171.745ZM247.445 156.717L245.946 156.672L245.886 158.687L247.833 158.165L247.445 156.717ZM255.76 154.489L256.148 155.937L258.096 155.416L257.036 153.7L255.76 154.489ZM252.297 148.881L253.573 148.093L253.561 148.073L253.549 148.054L252.297 148.881ZM250.278 145.56L248.976 146.304L248.976 146.304L250.278 145.56ZM249.174 143.657L247.872 144.402L247.877 144.41L247.882 144.419L249.174 143.657ZM248.185 141.962L249.472 141.19L248.89 140.22L247.797 140.513L248.185 141.962ZM247.742 142.081L247.354 140.632L246.191 140.943L246.243 142.145L247.742 142.081ZM247.741 144.517L246.242 144.466L246.241 144.496L246.241 144.527L247.741 144.517ZM247.733 147.371L249.233 147.404L249.233 147.396L249.233 147.387L247.733 147.371ZM247.64 150.129L246.142 150.059L246.141 150.072L246.141 150.084L247.64 150.129ZM235.982 175.233L239.676 133.366L236.688 133.103L232.993 174.97L235.982 175.233ZM238.57 134.683L252.817 130.866L252.041 127.968L237.794 131.786L238.57 134.683ZM251.201 130.278L275.334 164.689L277.79 162.966L253.657 128.556L251.201 130.278ZM276.174 162.379L263.202 165.855L263.979 168.752L276.951 165.277L276.174 162.379ZM264.868 166.516L261.819 161.57L259.265 163.144L262.314 168.09L264.868 166.516ZM260.154 160.908L246.794 164.488L247.571 167.386L260.93 163.806L260.154 160.908ZM245.683 165.894L245.516 171.702L248.515 171.788L248.682 165.98L245.683 165.894ZM246.627 170.296L234.099 173.653L234.876 176.55L247.404 173.194L246.627 170.296ZM247.833 158.165L256.148 155.937L255.372 153.04L247.057 155.268L247.833 158.165ZM257.036 153.7L253.573 148.093L251.021 149.669L254.484 155.277L257.036 153.7ZM253.549 148.054C253.295 147.67 252.995 147.195 252.648 146.626L250.087 148.188C250.446 148.777 250.766 149.284 251.045 149.707L253.549 148.054ZM252.648 146.626C252.303 146.06 251.947 145.457 251.581 144.816L248.976 146.304C249.355 146.968 249.725 147.596 250.087 148.188L252.648 146.626ZM251.581 144.816C251.204 144.157 250.833 143.517 250.466 142.896L247.882 144.419C248.242 145.029 248.606 145.657 248.976 146.304L251.581 144.816ZM250.477 142.913C250.1 142.254 249.765 141.68 249.472 141.19L246.899 142.733C247.178 143.199 247.503 143.755 247.872 144.402L250.477 142.913ZM247.797 140.513L247.354 140.632L248.13 143.529L248.573 143.411L247.797 140.513ZM246.243 142.145C246.271 142.802 246.272 143.575 246.242 144.466L249.24 144.567C249.272 143.62 249.273 142.768 249.24 142.016L246.243 142.145ZM246.241 144.527C246.247 145.426 246.244 146.369 246.233 147.354L249.233 147.387C249.244 146.386 249.247 145.426 249.241 144.507L246.241 144.527ZM246.234 147.338C246.213 148.283 246.182 149.19 246.142 150.059L249.139 150.198C249.18 149.303 249.212 148.371 249.233 147.404L246.234 147.338ZM246.141 150.084L245.946 156.672L248.944 156.761L249.14 150.173L246.141 150.084ZM288.786 160.552L287.551 161.402L288.151 162.275L289.175 162.001L288.786 160.552ZM265.041 126.038L264.653 124.589L262.602 125.138L263.805 126.888L265.041 126.038ZM278.124 122.532L279.401 121.745L278.815 120.794L277.735 121.083L278.124 122.532ZM288.113 138.749L286.836 139.536L286.843 139.546L288.113 138.749ZM290.906 143.408L289.62 144.179L289.632 144.2L289.646 144.221L290.906 143.408ZM292.495 146.012L291.191 146.753L291.764 147.761L292.884 147.461L292.495 146.012ZM292.939 145.893L293.327 147.342L294.42 147.049L294.439 145.918L292.939 145.893ZM293.002 143.024L291.503 142.985L293.002 143.024ZM293.061 139.919L291.562 139.864L291.561 139.883L291.561 139.902L293.061 139.919ZM293.103 137.412L291.603 137.365L291.602 137.401L291.603 137.438L293.103 137.412ZM293.701 118.358L293.313 116.909L292.236 117.198L292.201 118.311L293.701 118.358ZM306.229 115.001L307.724 115.118L307.889 113.004L305.841 113.552L306.229 115.001ZM302.978 156.75L303.366 158.199L304.391 157.924L304.473 156.866L302.978 156.75ZM290.022 159.702L266.277 125.187L263.805 126.888L287.551 161.402L290.022 159.702ZM265.429 127.486L278.512 123.981L277.735 121.083L264.653 124.589L265.429 127.486ZM276.847 123.319L286.836 139.536L289.391 137.962L279.401 121.745L276.847 123.319ZM286.843 139.546C287.109 139.971 287.493 140.605 287.997 141.457L290.578 139.928C290.07 139.07 289.671 138.409 289.384 137.952L286.843 139.546ZM287.997 141.457C288.505 142.314 289.046 143.221 289.62 144.179L292.193 142.636C291.621 141.683 291.083 140.78 290.578 139.928L287.997 141.457ZM289.646 144.221C290.244 145.148 290.759 145.992 291.191 146.753L293.799 145.271C293.333 144.451 292.789 143.558 292.167 142.595L289.646 144.221ZM292.884 147.461L293.327 147.342L292.551 144.444L292.107 144.563L292.884 147.461ZM294.439 145.918C294.452 145.088 294.473 144.137 294.501 143.064L291.503 142.985C291.474 144.065 291.453 145.027 291.439 145.868L294.439 145.918ZM294.501 143.064C294.53 141.98 294.55 140.937 294.561 139.936L291.561 139.902C291.55 140.887 291.531 141.915 291.503 142.985L294.501 143.064ZM294.56 139.974C294.599 138.922 294.614 138.056 294.602 137.387L291.603 137.438C291.613 138.03 291.6 138.836 291.562 139.864L294.56 139.974ZM294.602 137.459L295.2 118.405L292.201 118.311L291.603 137.365L294.602 137.459ZM294.089 119.807L306.617 116.45L305.841 113.552L293.313 116.909L294.089 119.807ZM304.733 114.885L301.482 156.633L304.473 156.866L307.724 115.118L304.733 114.885ZM302.589 155.301L288.398 159.103L289.175 162.001L303.366 158.199L302.589 155.301Z" fill="#110002"/>
</svg>
