<svg width="459" height="285" viewBox="0 0 459 285" fill="none" xmlns="http://www.w3.org/2000/svg">
<path d="M248.109 247.033C364.499 226.267 450.486 162.549 440.167 104.716C429.849 46.8828 327.131 16.8341 210.742 37.6004C94.3524 58.3668 8.36491 122.084 18.6836 179.917C29.0022 237.751 131.719 267.799 248.109 247.033Z" fill="#069154" stroke="#110002" stroke-width="4" stroke-miterlimit="10"/>
<path d="M244.382 221.42C341.992 204.004 414.791 154.405 406.982 110.638C399.173 66.87 313.713 45.5075 216.103 62.9231C118.493 80.3388 45.6948 129.938 53.5038 173.706C61.3129 217.473 146.772 238.836 244.382 221.42Z" fill="#069154" stroke="#110002" stroke-width="4" stroke-miterlimit="10"/>
<path d="M119.982 180.768L127.228 139.368L141.748 136.777L162.864 173.117L149.643 175.476L147.027 170.288L133.411 172.718L132.751 178.49L119.982 180.768ZM134.458 163.553L142.932 162.041L139.959 156.159C139.728 155.734 139.461 155.218 139.158 154.611C138.856 154.005 138.546 153.36 138.23 152.678C137.914 151.996 137.602 151.333 137.293 150.689C136.976 150.007 136.696 149.415 136.451 148.915L135.999 148.996C135.97 149.7 135.9 150.51 135.791 151.423C135.72 152.329 135.636 153.277 135.541 154.266C135.438 155.217 135.329 156.13 135.213 157.006L134.458 163.553ZM167.571 172.277L160.636 133.407L184.987 129.062C187.887 128.545 190.402 128.699 192.531 129.523C194.698 130.342 196.439 131.605 197.754 133.314C199.069 135.022 199.922 136.969 200.312 139.153C200.755 141.639 200.568 143.966 199.75 146.132C198.925 148.262 197.618 150.088 195.831 151.612L206.159 165.393L192.148 167.892L183.887 155.9L177.729 156.999L180.057 170.05L167.571 172.277ZM176.186 148.355L184.944 146.792C185.923 146.617 186.684 146.093 187.228 145.219C187.765 144.307 187.919 143.21 187.69 141.93C187.549 141.139 187.274 140.469 186.865 139.92C186.457 139.371 185.958 138.974 185.371 138.729C184.776 138.447 184.14 138.366 183.462 138.487L174.705 140.049L176.186 148.355ZM211.545 164.432L204.609 125.561L217.095 123.333L220.059 139.944L230.937 120.864L246.418 118.102L235.316 136.58L253.636 156.922L238.89 159.553L228.05 146.505L222.579 154.068L224.031 162.204L211.545 164.432ZM252.178 157.182L259.424 115.781L273.944 113.191L295.06 149.531L281.839 151.89L279.223 146.702L265.607 149.131L264.947 154.904L252.178 157.182ZM266.654 139.967L275.128 138.455L272.155 132.573C271.924 132.147 271.657 131.632 271.354 131.025C271.052 130.418 270.742 129.774 270.426 129.092C270.11 128.41 269.798 127.746 269.488 127.102C269.172 126.42 268.892 125.829 268.647 125.328L268.195 125.409C268.166 126.114 268.096 126.923 267.987 127.836C267.916 128.743 267.832 129.691 267.737 130.679C267.634 131.63 267.525 132.544 267.409 133.419L266.654 139.967ZM307.518 147.308L286.798 110.897L300.131 108.518L308.704 125.527C308.942 125.99 309.277 126.668 309.709 127.563C310.14 128.457 310.601 129.405 311.09 130.406C311.617 131.4 312.071 132.31 312.452 133.136L312.904 133.056C312.989 132.224 313.091 131.273 313.211 130.203C313.331 129.132 313.439 128.102 313.534 127.113C313.661 126.08 313.746 125.249 313.789 124.62L316.007 105.686L328.776 103.407L321.982 144.727L307.518 147.308Z" fill="#110002"/>
<path d="M119.982 180.768L118.505 180.51L118.135 182.622L120.246 182.245L119.982 180.768ZM127.228 139.368L126.964 137.891L125.931 138.075L125.75 139.109L127.228 139.368ZM141.748 136.777L143.045 136.023L142.517 135.116L141.484 135.3L141.748 136.777ZM162.864 173.117L163.127 174.594L165.238 174.217L164.161 172.364L162.864 173.117ZM149.643 175.476L148.304 176.152L148.807 177.149L149.907 176.953L149.643 175.476ZM147.027 170.288L148.367 169.613L147.863 168.615L146.764 168.812L147.027 170.288ZM133.411 172.718L133.148 171.241L132.048 171.437L131.921 172.547L133.411 172.718ZM132.751 178.49L133.014 179.967L134.114 179.771L134.241 178.661L132.751 178.49ZM134.458 163.553L132.968 163.381L132.737 165.384L134.721 165.03L134.458 163.553ZM142.932 162.041L143.196 163.518L145.181 163.164L144.271 161.364L142.932 162.041ZM139.959 156.159L141.298 155.482L141.288 155.462L141.277 155.442L139.959 156.159ZM138.23 152.678L136.869 153.309L136.869 153.309L138.23 152.678ZM137.293 150.689L135.931 151.319L135.936 151.328L135.94 151.338L137.293 150.689ZM136.451 148.915L137.799 148.256L137.302 147.239L136.188 147.438L136.451 148.915ZM135.999 148.996L135.736 147.519L134.551 147.73L134.501 148.932L135.999 148.996ZM135.791 151.423L134.302 151.245L134.298 151.275L134.296 151.305L135.791 151.423ZM135.541 154.266L137.032 154.426L137.033 154.418L137.034 154.41L135.541 154.266ZM135.213 157.006L133.726 156.809L133.725 156.821L133.723 156.834L135.213 157.006ZM121.46 181.027L128.705 139.626L125.75 139.109L118.505 180.51L121.46 181.027ZM127.491 140.844L142.011 138.254L141.484 135.3L126.964 137.891L127.491 140.844ZM140.451 137.531L161.567 173.871L164.161 172.364L143.045 136.023L140.451 137.531ZM162.6 171.641L149.38 173.999L149.907 176.953L163.127 174.594L162.6 171.641ZM150.983 174.801L148.367 169.613L145.688 170.964L148.304 176.152L150.983 174.801ZM146.764 168.812L133.148 171.241L133.675 174.194L147.291 171.765L146.764 168.812ZM131.921 172.547L131.26 178.32L134.241 178.661L134.901 172.888L131.921 172.547ZM132.487 177.013L119.719 179.292L120.246 182.245L133.014 179.967L132.487 177.013ZM134.721 165.03L143.196 163.518L142.669 160.564L134.194 162.077L134.721 165.03ZM144.271 161.364L141.298 155.482L138.62 156.836L141.594 162.718L144.271 161.364ZM141.277 155.442C141.057 155.038 140.798 154.538 140.501 153.942L137.816 155.281C138.124 155.898 138.399 156.43 138.642 156.876L141.277 155.442ZM140.501 153.942C140.205 153.349 139.902 152.718 139.591 152.048L136.869 153.309C137.191 154.003 137.506 154.66 137.816 155.281L140.501 153.942ZM139.591 152.048C139.273 151.36 138.957 150.69 138.645 150.04L135.94 151.338C136.246 151.976 136.556 152.633 136.869 153.309L139.591 152.048ZM138.654 150.058C138.335 149.369 138.049 148.768 137.799 148.256L135.104 149.574C135.343 150.062 135.618 150.644 135.931 151.319L138.654 150.058ZM136.188 147.438L135.736 147.519L136.263 150.472L136.715 150.392L136.188 147.438ZM134.501 148.932C134.473 149.589 134.408 150.359 134.302 151.245L137.281 151.601C137.393 150.66 137.466 149.811 137.498 149.059L134.501 148.932ZM134.296 151.305C134.225 152.202 134.142 153.141 134.048 154.121L137.034 154.41C137.13 153.413 137.214 152.457 137.287 151.541L134.296 151.305ZM134.049 154.105C133.948 155.045 133.84 155.946 133.726 156.809L136.7 157.202C136.818 156.314 136.928 155.388 137.032 154.426L134.049 154.105ZM133.723 156.834L132.968 163.381L135.948 163.725L136.703 157.178L133.723 156.834ZM167.571 172.277L166.095 172.541L166.358 174.018L167.835 173.754L167.571 172.277ZM160.636 133.407L160.373 131.93L158.896 132.194L159.159 133.67L160.636 133.407ZM192.531 129.523L191.989 130.922L192.001 130.927L192.531 129.523ZM197.754 133.314L196.566 134.229L197.754 133.314ZM199.75 146.132L201.149 146.674L201.153 146.662L199.75 146.132ZM195.831 151.612L194.858 150.47L193.785 151.384L194.63 152.512L195.831 151.612ZM206.159 165.393L206.423 166.869L208.82 166.441L207.36 164.493L206.159 165.393ZM192.148 167.892L190.913 168.743L191.46 169.539L192.411 169.369L192.148 167.892ZM183.887 155.9L185.122 155.049L184.574 154.254L183.624 154.423L183.887 155.9ZM177.729 156.999L177.465 155.522L175.989 155.785L176.252 157.262L177.729 156.999ZM180.057 170.05L180.321 171.526L181.797 171.263L181.534 169.786L180.057 170.05ZM176.186 148.355L174.71 148.618L174.973 150.095L176.45 149.831L176.186 148.355ZM187.228 145.219L188.502 146.011L188.511 145.995L188.521 145.98L187.228 145.219ZM186.865 139.92L185.663 140.816L185.663 140.816L186.865 139.92ZM185.371 138.729L184.727 140.084L184.76 140.1L184.794 140.114L185.371 138.729ZM174.705 140.049L174.441 138.573L172.964 138.836L173.228 140.313L174.705 140.049ZM169.048 172.014L162.113 133.144L159.159 133.67L166.095 172.541L169.048 172.014ZM160.899 134.884L185.25 130.539L184.723 127.586L160.373 131.93L160.899 134.884ZM185.25 130.539C187.957 130.056 190.18 130.221 191.989 130.922L193.073 128.125C190.623 127.176 187.817 127.034 184.723 127.586L185.25 130.539ZM192.001 130.927C193.927 131.654 195.433 132.757 196.566 134.229L198.943 132.398C197.445 130.453 195.468 129.029 193.061 128.12L192.001 130.927ZM196.566 134.229C197.729 135.74 198.486 137.462 198.835 139.417L201.788 138.89C201.358 136.475 200.409 134.304 198.943 132.398L196.566 134.229ZM198.835 139.417C199.235 141.661 199.061 143.711 198.346 145.603L201.153 146.662C202.075 144.22 202.275 141.617 201.788 138.89L198.835 139.417ZM198.351 145.591C197.619 147.481 196.462 149.103 194.858 150.47L196.804 152.754C198.775 151.073 200.231 149.043 201.148 146.674L198.351 145.591ZM194.63 152.512L204.959 166.292L207.36 164.493L197.031 150.712L194.63 152.512ZM205.896 163.916L191.884 166.416L192.411 169.369L206.423 166.869L205.896 163.916ZM193.383 167.042L185.122 155.049L182.652 156.751L190.913 168.743L193.383 167.042ZM183.624 154.423L177.465 155.522L177.992 158.475L184.15 157.377L183.624 154.423ZM176.252 157.262L178.581 170.313L181.534 169.786L179.205 156.735L176.252 157.262ZM179.794 168.573L167.308 170.801L167.835 173.754L180.321 171.526L179.794 168.573ZM176.45 149.831L185.207 148.269L184.68 145.315L175.923 146.878L176.45 149.831ZM185.207 148.269C186.621 148.016 187.743 147.232 188.502 146.011L185.954 144.427C185.626 144.954 185.224 145.218 184.68 145.315L185.207 148.269ZM188.521 145.98C189.278 144.693 189.444 143.215 189.167 141.666L186.214 142.193C186.394 143.205 186.251 143.921 185.935 144.458L188.521 145.98ZM189.167 141.666C188.992 140.686 188.639 139.789 188.068 139.024L185.663 140.816C185.91 141.148 186.106 141.592 186.214 142.193L189.167 141.666ZM188.068 139.024C187.511 138.276 186.803 137.701 185.947 137.345L184.794 140.114C185.114 140.247 185.402 140.467 185.663 140.816L188.068 139.024ZM186.014 137.375C185.124 136.951 184.169 136.837 183.198 137.01L183.725 139.964C184.111 139.895 184.428 139.942 184.727 140.084L186.014 137.375ZM183.198 137.01L174.441 138.573L174.968 141.526L183.725 139.964L183.198 137.01ZM173.228 140.313L174.71 148.618L177.663 148.091L176.181 139.786L173.228 140.313ZM211.545 164.432L210.068 164.695L210.331 166.172L211.808 165.908L211.545 164.432ZM204.609 125.561L204.346 124.085L202.869 124.348L203.133 125.825L204.609 125.561ZM217.095 123.333L218.572 123.07L218.309 121.593L216.832 121.857L217.095 123.333ZM220.059 139.944L218.582 140.207L219.31 144.286L221.362 140.687L220.059 139.944ZM230.937 120.864L230.674 119.387L229.982 119.51L229.634 120.121L230.937 120.864ZM246.418 118.102L247.704 118.874L249.403 116.045L246.154 116.625L246.418 118.102ZM235.316 136.58L234.03 135.808L233.458 136.759L234.201 137.584L235.316 136.58ZM253.636 156.922L253.899 158.398L256.557 157.924L254.75 155.918L253.636 156.922ZM238.89 159.553L237.736 160.511L238.294 161.183L239.153 161.029L238.89 159.553ZM228.05 146.505L229.204 145.546L227.968 144.059L226.835 145.625L228.05 146.505ZM222.579 154.068L221.364 153.189L220.991 153.705L221.102 154.332L222.579 154.068ZM224.031 162.204L224.294 163.681L225.771 163.417L225.507 161.94L224.031 162.204ZM213.021 164.168L206.086 125.298L203.133 125.825L210.068 164.695L213.021 164.168ZM204.873 127.038L217.359 124.81L216.832 121.857L204.346 124.085L204.873 127.038ZM215.619 123.597L218.582 140.207L221.536 139.68L218.572 123.07L215.619 123.597ZM221.362 140.687L232.24 121.607L229.634 120.121L218.756 139.201L221.362 140.687ZM231.201 122.34L246.681 119.578L246.154 116.625L230.674 119.387L231.201 122.34ZM245.132 117.329L234.03 135.808L236.601 137.353L247.704 118.874L245.132 117.329ZM234.201 137.584L252.521 157.926L254.75 155.918L236.43 135.577L234.201 137.584ZM253.372 155.445L238.626 158.076L239.153 161.029L253.899 158.398L253.372 155.445ZM240.043 158.594L229.204 145.546L226.896 147.463L237.736 160.511L240.043 158.594ZM226.835 145.625L221.364 153.189L223.794 154.947L229.266 147.384L226.835 145.625ZM221.102 154.332L222.554 162.467L225.507 161.94L224.056 153.805L221.102 154.332ZM223.767 160.727L211.281 162.955L211.808 165.908L224.294 163.681L223.767 160.727ZM252.178 157.182L250.701 156.923L250.331 159.035L252.442 158.659L252.178 157.182ZM259.424 115.781L259.16 114.305L258.127 114.489L257.946 115.523L259.424 115.781ZM273.944 113.191L275.241 112.437L274.713 111.53L273.68 111.714L273.944 113.191ZM295.06 149.531L295.323 151.008L297.434 150.631L296.357 148.777L295.06 149.531ZM281.839 151.89L280.5 152.565L281.003 153.563L282.103 153.366L281.839 151.89ZM279.223 146.702L280.562 146.026L280.059 145.029L278.96 145.225L279.223 146.702ZM265.607 149.131L265.344 147.654L264.244 147.851L264.117 148.961L265.607 149.131ZM264.947 154.904L265.21 156.38L266.31 156.184L266.437 155.074L264.947 154.904ZM266.654 139.967L265.164 139.795L264.932 141.797L266.917 141.443L266.654 139.967ZM275.128 138.455L275.392 139.931L277.377 139.577L276.467 137.778L275.128 138.455ZM272.155 132.573L273.494 131.896L273.484 131.876L273.473 131.856L272.155 132.573ZM270.426 129.092L269.065 129.722L269.065 129.722L270.426 129.092ZM269.488 127.102L268.127 127.733L268.132 127.742L268.136 127.751L269.488 127.102ZM268.647 125.328L269.995 124.669L269.498 123.653L268.384 123.852L268.647 125.328ZM268.195 125.409L267.932 123.932L266.747 124.144L266.697 125.346L268.195 125.409ZM267.987 127.836L266.498 127.658L266.494 127.688L266.492 127.719L267.987 127.836ZM267.737 130.679L269.228 130.84L269.229 130.832L269.23 130.824L267.737 130.679ZM267.409 133.419L265.922 133.223L265.921 133.235L265.919 133.247L267.409 133.419ZM253.656 157.44L260.901 116.04L257.946 115.523L250.701 156.923L253.656 157.44ZM259.687 117.258L274.207 114.667L273.68 111.714L259.16 114.305L259.687 117.258ZM272.647 113.944L293.763 150.284L296.357 148.777L275.241 112.437L272.647 113.944ZM294.796 148.054L281.576 150.413L282.103 153.366L295.323 151.008L294.796 148.054ZM283.179 151.214L280.562 146.026L277.884 147.377L280.5 152.565L283.179 151.214ZM278.96 145.225L265.344 147.654L265.871 150.608L279.487 148.178L278.96 145.225ZM264.117 148.961L263.456 154.733L266.437 155.074L267.097 149.302L264.117 148.961ZM264.683 153.427L251.915 155.705L252.442 158.659L265.21 156.38L264.683 153.427ZM266.917 141.443L275.392 139.931L274.865 136.978L266.39 138.49L266.917 141.443ZM276.467 137.778L273.494 131.896L270.816 133.249L273.79 139.131L276.467 137.778ZM273.473 131.856C273.253 131.451 272.994 130.952 272.697 130.355L270.012 131.694C270.32 132.311 270.595 132.844 270.838 133.289L273.473 131.856ZM272.697 130.355C272.401 129.763 272.098 129.132 271.787 128.461L269.065 129.722C269.387 130.416 269.702 131.073 270.012 131.694L272.697 130.355ZM271.787 128.461C271.469 127.773 271.153 127.104 270.841 126.453L268.136 127.751C268.442 128.389 268.752 129.046 269.065 129.722L271.787 128.461ZM270.849 126.472C270.53 125.783 270.245 125.182 269.995 124.669L267.3 125.987C267.539 126.476 267.814 127.057 268.127 127.733L270.849 126.472ZM268.384 123.852L267.932 123.932L268.459 126.886L268.911 126.805L268.384 123.852ZM266.697 125.346C266.669 126.003 266.604 126.772 266.498 127.658L269.477 128.014C269.589 127.074 269.662 126.225 269.694 125.472L266.697 125.346ZM266.492 127.719C266.421 128.616 266.338 129.554 266.244 130.535L269.23 130.824C269.326 129.827 269.41 128.87 269.483 127.954L266.492 127.719ZM266.245 130.519C266.144 131.459 266.036 132.36 265.922 133.223L268.896 133.616C269.014 132.727 269.124 131.802 269.228 130.84L266.245 130.519ZM265.919 133.247L265.164 139.795L268.144 140.139L268.899 133.591L265.919 133.247ZM307.518 147.308L306.215 148.05L306.739 148.971L307.782 148.785L307.518 147.308ZM286.798 110.897L286.534 109.42L284.444 109.793L285.494 111.639L286.798 110.897ZM300.131 108.518L301.471 107.843L300.968 106.845L299.868 107.041L300.131 108.518ZM308.704 125.527L307.365 126.202L307.37 126.213L308.704 125.527ZM311.09 130.406L309.743 131.065L309.754 131.087L309.765 131.109L311.09 130.406ZM312.452 133.136L311.09 133.764L311.574 134.816L312.715 134.613L312.452 133.136ZM312.904 133.056L313.167 134.532L314.281 134.333L314.396 133.208L312.904 133.056ZM313.211 130.203L311.72 130.036L313.211 130.203ZM313.534 127.113L312.045 126.931L312.043 126.95L312.041 126.969L313.534 127.113ZM313.789 124.62L312.299 124.445L312.295 124.481L312.292 124.517L313.789 124.62ZM316.007 105.686L315.744 104.209L314.647 104.405L314.517 105.511L316.007 105.686ZM328.776 103.407L330.256 103.651L330.6 101.558L328.512 101.931L328.776 103.407ZM321.982 144.727L322.245 146.204L323.29 146.018L323.462 144.971L321.982 144.727ZM308.822 146.566L288.101 110.155L285.494 111.639L306.215 148.05L308.822 146.566ZM287.061 112.374L300.395 109.995L299.868 107.041L286.534 109.42L287.061 112.374ZM298.792 109.193L307.365 126.202L310.044 124.852L301.471 107.843L298.792 109.193ZM307.37 126.213C307.599 126.658 307.928 127.323 308.358 128.215L311.06 126.911C310.626 126.013 310.285 125.321 310.038 124.841L307.37 126.213ZM308.358 128.215C308.791 129.112 309.252 130.062 309.743 131.065L312.438 129.747C311.949 128.748 311.49 127.803 311.06 126.911L308.358 128.215ZM309.765 131.109C310.282 132.084 310.723 132.968 311.09 133.764L313.814 132.508C313.42 131.652 312.953 130.717 312.416 129.703L309.765 131.109ZM312.715 134.613L313.167 134.532L312.64 131.579L312.188 131.659L312.715 134.613ZM314.396 133.208C314.48 132.383 314.582 131.437 314.702 130.369L311.72 130.036C311.6 131.11 311.497 132.066 311.412 132.903L314.396 133.208ZM314.702 130.369C314.822 129.292 314.931 128.255 315.027 127.258L312.041 126.969C311.946 127.95 311.839 128.972 311.72 130.036L314.702 130.369ZM315.023 127.296C315.151 126.251 315.24 125.39 315.285 124.722L312.292 124.517C312.252 125.108 312.171 125.91 312.045 126.931L315.023 127.296ZM315.279 124.794L317.497 105.86L314.517 105.511L312.299 124.445L315.279 124.794ZM316.271 107.162L329.039 104.884L328.512 101.931L315.744 104.209L316.271 107.162ZM327.295 103.164L320.502 144.484L323.462 144.971L330.256 103.651L327.295 103.164ZM321.718 143.251L307.255 145.831L307.782 148.785L322.245 146.204L321.718 143.251Z" fill="#110002"/>
<path d="M129.873 179.268L137.118 137.868L151.638 135.277L172.755 171.617L159.534 173.976L156.918 168.788L143.302 171.218L142.641 176.99L129.873 179.268ZM144.348 162.053L152.823 160.541L149.85 154.659C149.618 154.234 149.352 153.718 149.049 153.111C148.746 152.505 148.437 151.86 148.121 151.178C147.805 150.496 147.492 149.833 147.183 149.189C146.867 148.507 146.587 147.915 146.342 147.415L145.89 147.496C145.86 148.2 145.791 149.01 145.682 149.923C145.61 150.829 145.527 151.777 145.431 152.766C145.329 153.717 145.22 154.63 145.104 155.506L144.348 162.053ZM177.462 170.777L170.527 131.907L194.877 127.562C197.777 127.045 200.292 127.199 202.421 128.023C204.588 128.842 206.329 130.105 207.645 131.814C208.96 133.522 209.813 135.469 210.202 137.653C210.646 140.139 210.459 142.466 209.64 144.632C208.816 146.762 207.509 148.588 205.721 150.112L216.05 163.893L202.038 166.392L193.778 154.4L187.619 155.499L189.948 168.55L177.462 170.777ZM186.077 146.855L194.834 145.292C195.814 145.117 196.575 144.593 197.119 143.719C197.655 142.807 197.81 141.71 197.581 140.43C197.44 139.639 197.165 138.969 196.756 138.42C196.347 137.871 195.849 137.474 195.261 137.229C194.667 136.947 194.03 136.866 193.352 136.987L184.595 138.549L186.077 146.855ZM221.435 162.932L214.5 124.061L226.986 121.833L229.95 138.444L240.828 119.364L256.308 116.602L245.206 135.08L263.526 155.422L248.78 158.053L237.941 145.005L232.47 152.568L233.921 160.704L221.435 162.932ZM262.069 155.682L269.314 114.281L283.834 111.691L304.95 148.031L291.73 150.39L289.114 145.202L275.498 147.631L274.837 153.404L262.069 155.682ZM276.544 138.467L285.019 136.955L282.046 131.073C281.814 130.647 281.547 130.132 281.245 129.525C280.942 128.918 280.633 128.274 280.317 127.592C280.001 126.91 279.688 126.246 279.379 125.602C279.063 124.92 278.783 124.329 278.538 123.828L278.086 123.909C278.056 124.614 277.987 125.423 277.878 126.336C277.806 127.243 277.723 128.191 277.627 129.179C277.525 130.13 277.416 131.044 277.3 131.919L276.544 138.467ZM317.409 145.808L296.688 109.397L310.022 107.018L318.595 124.027C318.833 124.49 319.168 125.168 319.599 126.063C320.031 126.957 320.491 127.905 320.981 128.906C321.508 129.9 321.962 130.81 322.343 131.636L322.794 131.556C322.879 130.724 322.982 129.773 323.102 128.703C323.221 127.632 323.329 126.602 323.425 125.613C323.551 124.58 323.636 123.749 323.679 123.12L325.898 104.186L338.666 101.907L331.873 143.227L317.409 145.808Z" fill="#FFEADF"/>
<path d="M129.873 179.268L128.395 179.01L128.026 181.122L130.136 180.745L129.873 179.268ZM137.118 137.868L136.855 136.391L135.822 136.575L135.641 137.609L137.118 137.868ZM151.638 135.277L152.935 134.523L152.408 133.616L151.375 133.8L151.638 135.277ZM172.755 171.617L173.018 173.094L175.129 172.717L174.051 170.864L172.755 171.617ZM159.534 173.976L158.195 174.652L158.698 175.649L159.798 175.453L159.534 173.976ZM156.918 168.788L158.257 168.113L157.754 167.115L156.654 167.312L156.918 168.788ZM143.302 171.218L143.038 169.741L141.939 169.937L141.812 171.047L143.302 171.218ZM142.641 176.99L142.905 178.467L144.004 178.271L144.131 177.161L142.641 176.99ZM144.348 162.053L142.858 161.881L142.627 163.884L144.612 163.53L144.348 162.053ZM152.823 160.541L153.087 162.018L155.071 161.664L154.162 159.864L152.823 160.541ZM149.85 154.659L151.188 153.982L151.178 153.962L151.167 153.942L149.85 154.659ZM148.121 151.178L146.76 151.809L146.76 151.809L148.121 151.178ZM147.183 149.189L145.822 149.819L145.826 149.828L145.831 149.838L147.183 149.189ZM146.342 147.415L147.689 146.756L147.192 145.739L146.079 145.938L146.342 147.415ZM145.89 147.496L145.627 146.019L144.442 146.23L144.391 147.432L145.89 147.496ZM145.682 149.923L144.192 149.745L144.189 149.775L144.186 149.805L145.682 149.923ZM145.431 152.766L146.923 152.926L146.923 152.918L146.924 152.91L145.431 152.766ZM145.104 155.506L143.617 155.309L143.615 155.321L143.614 155.334L145.104 155.506ZM131.35 179.527L138.596 138.126L135.641 137.609L128.395 179.01L131.35 179.527ZM137.382 139.344L151.902 136.754L151.375 133.8L136.855 136.391L137.382 139.344ZM150.341 136.031L171.458 172.371L174.051 170.864L152.935 134.523L150.341 136.031ZM172.491 170.141L159.271 172.499L159.798 175.453L173.018 173.094L172.491 170.141ZM160.873 173.301L158.257 168.113L155.578 169.464L158.195 174.652L160.873 173.301ZM156.654 167.312L143.038 169.741L143.565 172.694L157.181 170.265L156.654 167.312ZM141.812 171.047L141.151 176.82L144.131 177.161L144.792 171.388L141.812 171.047ZM142.378 175.513L129.609 177.792L130.136 180.745L142.905 178.467L142.378 175.513ZM144.612 163.53L153.087 162.018L152.56 159.064L144.085 160.577L144.612 163.53ZM154.162 159.864L151.188 153.982L148.511 155.336L151.484 161.218L154.162 159.864ZM151.167 153.942C150.947 153.538 150.689 153.038 150.391 152.442L147.707 153.781C148.014 154.398 148.29 154.93 148.532 155.376L151.167 153.942ZM150.391 152.442C150.096 151.849 149.793 151.218 149.482 150.548L146.76 151.809C147.081 152.503 147.397 153.16 147.707 153.781L150.391 152.442ZM149.482 150.548C149.163 149.86 148.848 149.19 148.535 148.54L145.831 149.838C146.137 150.476 146.447 151.133 146.76 151.809L149.482 150.548ZM148.544 148.558C148.225 147.869 147.94 147.268 147.689 146.756L144.995 148.074C145.233 148.562 145.509 149.144 145.822 149.819L148.544 148.558ZM146.079 145.938L145.627 146.019L146.153 148.972L146.605 148.892L146.079 145.938ZM144.391 147.432C144.364 148.089 144.298 148.859 144.192 149.745L147.171 150.101C147.284 149.16 147.357 148.311 147.389 147.559L144.391 147.432ZM144.186 149.805C144.116 150.702 144.033 151.641 143.938 152.621L146.924 152.91C147.021 151.913 147.105 150.957 147.177 150.041L144.186 149.805ZM143.94 152.605C143.839 153.545 143.731 154.446 143.617 155.309L146.591 155.702C146.709 154.814 146.819 153.888 146.923 152.926L143.94 152.605ZM143.614 155.334L142.858 161.881L145.838 162.225L146.594 155.678L143.614 155.334ZM177.462 170.777L175.985 171.041L176.249 172.518L177.725 172.254L177.462 170.777ZM170.527 131.907L170.263 130.43L168.786 130.694L169.05 132.17L170.527 131.907ZM202.421 128.023L201.879 129.422L201.892 129.427L202.421 128.023ZM207.645 131.814L206.456 132.729L207.645 131.814ZM209.64 144.632L211.039 145.174L211.044 145.162L209.64 144.632ZM205.721 150.112L204.748 148.97L203.676 149.884L204.521 151.012L205.721 150.112ZM216.05 163.893L216.313 165.369L218.711 164.941L217.25 162.993L216.05 163.893ZM202.038 166.392L200.803 167.243L201.351 168.039L202.302 167.869L202.038 166.392ZM193.778 154.4L195.013 153.549L194.465 152.754L193.514 152.923L193.778 154.4ZM187.619 155.499L187.356 154.022L185.879 154.285L186.143 155.762L187.619 155.499ZM189.948 168.55L190.211 170.026L191.688 169.763L191.425 168.286L189.948 168.55ZM186.077 146.855L184.6 147.118L184.864 148.595L186.341 148.331L186.077 146.855ZM197.119 143.719L198.392 144.511L198.402 144.495L198.411 144.48L197.119 143.719ZM196.756 138.42L195.553 139.316L195.553 139.316L196.756 138.42ZM195.261 137.229L194.617 138.584L194.65 138.6L194.684 138.614L195.261 137.229ZM184.595 138.549L184.332 137.073L182.855 137.336L183.119 138.813L184.595 138.549ZM178.939 170.514L172.003 131.644L169.05 132.17L175.985 171.041L178.939 170.514ZM170.79 133.384L195.141 129.039L194.614 126.086L170.263 130.43L170.79 133.384ZM195.141 129.039C197.847 128.556 200.071 128.721 201.88 129.422L202.963 126.625C200.513 125.676 197.707 125.534 194.614 126.086L195.141 129.039ZM201.892 129.427C203.818 130.154 205.323 131.257 206.456 132.729L208.833 130.898C207.335 128.953 205.359 127.529 202.951 126.62L201.892 129.427ZM206.456 132.729C207.62 134.24 208.377 135.962 208.726 137.917L211.679 137.39C211.248 134.975 210.3 132.804 208.833 130.898L206.456 132.729ZM208.726 137.917C209.126 140.161 208.951 142.211 208.237 144.103L211.044 145.162C211.966 142.72 212.166 140.117 211.679 137.39L208.726 137.917ZM208.242 144.091C207.509 145.981 206.352 147.603 204.748 148.97L206.694 151.254C208.666 149.573 210.122 147.543 211.039 145.174L208.242 144.091ZM204.521 151.012L214.85 164.792L217.25 162.993L206.921 149.212L204.521 151.012ZM215.786 162.416L201.775 164.916L202.302 167.869L216.313 165.369L215.786 162.416ZM203.274 165.542L195.013 153.549L192.542 155.251L200.803 167.243L203.274 165.542ZM193.514 152.923L187.356 154.022L187.883 156.975L194.041 155.877L193.514 152.923ZM186.143 155.762L188.471 168.813L191.425 168.286L189.096 155.235L186.143 155.762ZM189.684 167.073L177.198 169.301L177.725 172.254L190.211 170.026L189.684 167.073ZM186.341 148.331L195.098 146.769L194.571 143.815L185.814 145.378L186.341 148.331ZM195.098 146.769C196.512 146.516 197.633 145.732 198.392 144.511L195.845 142.927C195.517 143.454 195.115 143.718 194.571 143.815L195.098 146.769ZM198.411 144.48C199.169 143.193 199.334 141.715 199.058 140.166L196.104 140.693C196.285 141.705 196.142 142.421 195.826 142.958L198.411 144.48ZM199.058 140.166C198.883 139.186 198.529 138.289 197.959 137.524L195.553 139.316C195.801 139.648 195.997 140.092 196.104 140.693L199.058 140.166ZM197.959 137.524C197.402 136.776 196.693 136.201 195.838 135.845L194.684 138.614C195.005 138.747 195.293 138.967 195.553 139.316L197.959 137.524ZM195.905 135.875C195.015 135.451 194.06 135.337 193.089 135.51L193.616 138.464C194.001 138.395 194.319 138.442 194.617 138.584L195.905 135.875ZM193.089 135.51L184.332 137.073L184.859 140.026L193.616 138.464L193.089 135.51ZM183.119 138.813L184.6 147.118L187.554 146.591L186.072 138.286L183.119 138.813ZM221.435 162.932L219.959 163.195L220.222 164.672L221.699 164.408L221.435 162.932ZM214.5 124.061L214.237 122.585L212.76 122.848L213.023 124.325L214.5 124.061ZM226.986 121.833L228.463 121.57L228.199 120.093L226.723 120.357L226.986 121.833ZM229.95 138.444L228.473 138.707L229.201 142.786L231.253 139.187L229.95 138.444ZM240.828 119.364L240.564 117.887L239.873 118.01L239.525 118.621L240.828 119.364ZM256.308 116.602L257.594 117.374L259.294 114.545L256.045 115.125L256.308 116.602ZM245.206 135.08L243.92 134.308L243.349 135.259L244.092 136.084L245.206 135.08ZM263.526 155.422L263.79 156.898L266.448 156.424L264.641 154.418L263.526 155.422ZM248.78 158.053L247.626 159.011L248.184 159.683L249.044 159.529L248.78 158.053ZM237.941 145.005L239.095 144.046L237.859 142.559L236.726 144.125L237.941 145.005ZM232.47 152.568L231.254 151.689L230.881 152.205L230.993 152.832L232.47 152.568ZM233.921 160.704L234.185 162.181L235.661 161.917L235.398 160.44L233.921 160.704ZM222.912 162.668L215.977 123.798L213.023 124.325L219.959 163.195L222.912 162.668ZM214.763 125.538L227.249 123.31L226.723 120.357L214.237 122.585L214.763 125.538ZM225.509 122.097L228.473 138.707L231.426 138.18L228.463 121.57L225.509 122.097ZM231.253 139.187L242.131 120.107L239.525 118.621L228.647 137.701L231.253 139.187ZM241.091 120.84L256.572 118.078L256.045 115.125L240.564 117.887L241.091 120.84ZM255.023 115.829L243.92 134.308L246.492 135.853L257.594 117.374L255.023 115.829ZM244.092 136.084L262.412 156.426L264.641 154.418L246.321 134.077L244.092 136.084ZM263.263 153.945L248.517 156.576L249.044 159.529L263.79 156.898L263.263 153.945ZM249.934 157.094L239.095 144.046L236.787 145.963L247.626 159.011L249.934 157.094ZM236.726 144.125L231.254 151.689L233.685 153.447L239.156 145.884L236.726 144.125ZM230.993 152.832L232.445 160.967L235.398 160.44L233.946 152.305L230.993 152.832ZM233.658 159.227L221.172 161.455L221.699 164.408L234.185 162.181L233.658 159.227ZM262.069 155.682L260.591 155.423L260.222 157.535L262.332 157.159L262.069 155.682ZM269.314 114.281L269.051 112.805L268.018 112.989L267.837 114.023L269.314 114.281ZM283.834 111.691L285.131 110.937L284.604 110.03L283.571 110.214L283.834 111.691ZM304.95 148.031L305.214 149.508L307.325 149.131L306.247 147.277L304.95 148.031ZM291.73 150.39L290.391 151.065L290.894 152.063L291.993 151.866L291.73 150.39ZM289.114 145.202L290.453 144.526L289.95 143.529L288.85 143.725L289.114 145.202ZM275.498 147.631L275.234 146.154L274.135 146.351L274.008 147.461L275.498 147.631ZM274.837 153.404L275.101 154.88L276.2 154.684L276.327 153.574L274.837 153.404ZM276.544 138.467L275.054 138.295L274.823 140.297L276.808 139.943L276.544 138.467ZM285.019 136.955L285.282 138.431L287.267 138.077L286.358 136.278L285.019 136.955ZM282.046 131.073L283.384 130.396L283.374 130.376L283.363 130.356L282.046 131.073ZM280.317 127.592L278.956 128.222L278.956 128.222L280.317 127.592ZM279.379 125.602L278.018 126.233L278.022 126.242L278.027 126.251L279.379 125.602ZM278.538 123.828L279.885 123.169L279.388 122.153L278.274 122.352L278.538 123.828ZM278.086 123.909L277.823 122.432L276.638 122.644L276.587 123.846L278.086 123.909ZM277.878 126.336L276.388 126.158L276.385 126.188L276.382 126.219L277.878 126.336ZM277.627 129.179L279.119 129.34L279.119 129.332L279.12 129.324L277.627 129.179ZM277.3 131.919L275.813 131.723L275.811 131.735L275.81 131.747L277.3 131.919ZM263.546 155.94L270.792 114.54L267.837 114.023L260.591 155.423L263.546 155.94ZM269.578 115.758L284.098 113.167L283.571 110.214L269.051 112.805L269.578 115.758ZM282.537 112.444L303.654 148.784L306.247 147.277L285.131 110.937L282.537 112.444ZM304.687 146.554L291.467 148.913L291.993 151.866L305.214 149.508L304.687 146.554ZM293.069 149.714L290.453 144.526L287.774 145.877L290.391 151.065L293.069 149.714ZM288.85 143.725L275.234 146.154L275.761 149.108L289.377 146.678L288.85 143.725ZM274.008 147.461L273.347 153.233L276.327 153.574L276.988 147.802L274.008 147.461ZM274.574 151.927L261.805 154.205L262.332 157.159L275.101 154.88L274.574 151.927ZM276.808 139.943L285.282 138.431L284.756 135.478L276.281 136.99L276.808 139.943ZM286.358 136.278L283.384 130.396L280.707 131.749L283.68 137.631L286.358 136.278ZM283.363 130.356C283.143 129.951 282.885 129.452 282.587 128.855L279.903 130.194C280.21 130.811 280.486 131.344 280.728 131.789L283.363 130.356ZM282.587 128.855C282.292 128.263 281.989 127.632 281.678 126.961L278.956 128.222C279.277 128.916 279.593 129.573 279.903 130.194L282.587 128.855ZM281.678 126.961C281.359 126.273 281.044 125.604 280.731 124.953L278.027 126.251C278.333 126.889 278.643 127.546 278.956 128.222L281.678 126.961ZM280.74 124.972C280.421 124.283 280.136 123.682 279.885 123.169L277.19 124.487C277.429 124.976 277.705 125.557 278.018 126.233L280.74 124.972ZM278.274 122.352L277.823 122.432L278.349 125.386L278.801 125.305L278.274 122.352ZM276.587 123.846C276.56 124.503 276.494 125.272 276.388 126.158L279.367 126.514C279.48 125.574 279.553 124.725 279.585 123.972L276.587 123.846ZM276.382 126.219C276.312 127.116 276.229 128.054 276.134 129.035L279.12 129.324C279.217 128.327 279.301 127.37 279.373 126.454L276.382 126.219ZM276.136 129.019C276.035 129.959 275.927 130.86 275.813 131.723L278.787 132.116C278.904 131.227 279.015 130.302 279.119 129.34L276.136 129.019ZM275.81 131.747L275.054 138.295L278.034 138.639L278.79 132.091L275.81 131.747ZM317.409 145.808L316.105 146.55L316.629 147.471L317.673 147.285L317.409 145.808ZM296.688 109.397L296.425 107.92L294.334 108.293L295.385 110.139L296.688 109.397ZM310.022 107.018L311.361 106.343L310.858 105.345L309.758 105.541L310.022 107.018ZM318.595 124.027L317.255 124.702L317.261 124.713L318.595 124.027ZM320.981 128.906L319.633 129.565L319.644 129.587L319.656 129.609L320.981 128.906ZM322.343 131.636L320.98 132.264L321.465 133.316L322.606 133.113L322.343 131.636ZM322.794 131.556L323.058 133.032L324.172 132.833L324.287 131.708L322.794 131.556ZM323.102 128.703L321.611 128.536L323.102 128.703ZM323.425 125.613L321.936 125.431L321.934 125.45L321.932 125.469L323.425 125.613ZM323.679 123.12L322.19 122.945L322.185 122.981L322.183 123.017L323.679 123.12ZM325.898 104.186L325.634 102.709L324.538 102.905L324.408 104.011L325.898 104.186ZM338.666 101.907L340.146 102.151L340.49 100.058L338.403 100.431L338.666 101.907ZM331.873 143.227L332.136 144.704L333.181 144.518L333.353 143.471L331.873 143.227ZM318.713 145.066L297.992 108.655L295.385 110.139L316.105 146.55L318.713 145.066ZM296.952 110.874L310.285 108.495L309.758 105.541L296.425 107.92L296.952 110.874ZM308.682 107.693L317.255 124.702L319.934 123.352L311.361 106.343L308.682 107.693ZM317.261 124.713C317.49 125.158 317.818 125.823 318.248 126.715L320.95 125.411C320.517 124.513 320.176 123.821 319.929 123.341L317.261 124.713ZM318.248 126.715C318.681 127.612 319.143 128.562 319.633 129.565L322.328 128.247C321.84 127.248 321.381 126.303 320.95 125.411L318.248 126.715ZM319.656 129.609C320.173 130.584 320.614 131.468 320.98 132.264L323.705 131.008C323.31 130.152 322.843 129.217 322.306 128.203L319.656 129.609ZM322.606 133.113L323.058 133.032L322.531 130.079L322.079 130.159L322.606 133.113ZM324.287 131.708C324.371 130.883 324.473 129.937 324.592 128.869L321.611 128.536C321.491 129.61 321.388 130.566 321.302 131.403L324.287 131.708ZM324.592 128.869C324.713 127.792 324.821 126.755 324.918 125.758L321.932 125.469C321.837 126.45 321.73 127.472 321.611 128.536L324.592 128.869ZM324.914 125.796C325.042 124.751 325.13 123.89 325.176 123.222L322.183 123.017C322.142 123.608 322.061 124.41 321.936 125.431L324.914 125.796ZM325.169 123.294L327.388 104.36L324.408 104.011L322.19 122.945L325.169 123.294ZM326.161 105.662L338.93 103.384L338.403 100.431L325.634 102.709L326.161 105.662ZM337.186 101.664L330.392 142.984L333.353 143.471L340.146 102.151L337.186 101.664ZM331.609 141.751L317.146 144.331L317.673 147.285L332.136 144.704L331.609 141.751Z" fill="#110002"/>
</svg>
