<svg width="252" height="84" viewBox="0 0 252 84" fill="none" xmlns="http://www.w3.org/2000/svg">
<path d="M126 83C195.036 83 251 64.6437 251 42C251 19.3563 195.036 1 126 1C56.9644 1 1 19.3563 1 42C1 64.6437 56.9644 83 126 83Z" fill="#069154" stroke="#110002" stroke-width="1.5369" stroke-miterlimit="10"/>
<path d="M126.5 73C184.214 73 231 59.1208 231 42C231 24.8792 184.214 11 126.5 11C68.7862 11 22 24.8792 22 42C22 59.1208 68.7862 73 126.5 73Z" fill="#069154" stroke="#110002" stroke-width="1.5369" stroke-miterlimit="10"/>
<path d="M58.2596 48.8164L63.7943 33.6455H69.4613L74.996 48.8164H69.8362L69.1967 46.6775H63.8825L63.243 48.8164H58.2596ZM64.8968 43.2817H68.2044L67.4767 40.8561C67.4179 40.6797 67.3518 40.4666 67.2783 40.2166C67.2048 39.9667 67.1313 39.7021 67.0578 39.4228C66.9843 39.1435 66.9108 38.8716 66.8373 38.6069C66.7638 38.3276 66.6976 38.0851 66.6388 37.8793H66.4624C66.4036 38.1439 66.3228 38.4452 66.2199 38.7834C66.1317 39.1215 66.0361 39.4743 65.9332 39.8418C65.8303 40.1946 65.7274 40.5327 65.6245 40.8561L64.8968 43.2817ZM76.8333 48.8164V33.6455H86.3371C87.4691 33.6455 88.4099 33.8734 89.1596 34.3291C89.924 34.7848 90.4974 35.3802 90.8796 36.1152C91.2618 36.8502 91.4529 37.6441 91.4529 38.4967C91.4529 39.4669 91.225 40.3343 90.7693 41.0987C90.3136 41.8484 89.6962 42.4511 88.9171 42.9068L91.8939 48.8164H86.4253L84.11 43.7227H81.7065V48.8164H76.8333ZM81.7065 40.349H85.1243C85.5066 40.349 85.83 40.2019 86.0946 39.9079C86.3592 39.5992 86.4915 39.195 86.4915 38.6952C86.4915 38.3864 86.4327 38.1145 86.3151 37.8793C86.1975 37.6441 86.0358 37.4603 85.83 37.328C85.6242 37.181 85.389 37.1075 85.1243 37.1075H81.7065V40.349ZM93.9958 48.8164V33.6455H98.869V40.1284L104.271 33.6455H110.313L104.867 39.8859L110.424 48.8164H104.668L101.449 43.1494L98.869 45.6411V48.8164H93.9958ZM109.855 48.8164L115.389 33.6455H121.056L126.591 48.8164H121.431L120.792 46.6775H115.478L114.838 48.8164H109.855ZM116.492 43.2817H119.8L119.072 40.8561C119.013 40.6797 118.947 40.4666 118.873 40.2166C118.8 39.9667 118.726 39.7021 118.653 39.4228C118.579 39.1435 118.506 38.8716 118.432 38.6069C118.359 38.3276 118.293 38.0851 118.234 37.8793H118.058C117.999 38.1439 117.918 38.4452 117.815 38.7834C117.727 39.1215 117.631 39.4743 117.528 39.8418C117.425 40.1946 117.323 40.5327 117.22 40.8561L116.492 43.2817ZM131.454 48.8164L126.073 33.6455H131.277L133.372 40.6577C133.431 40.8488 133.512 41.1281 133.615 41.4956C133.718 41.8631 133.828 42.2527 133.945 42.6643C134.078 43.0759 134.188 43.4507 134.276 43.7889H134.453C134.541 43.4801 134.644 43.1273 134.761 42.7304C134.879 42.3335 134.989 41.9513 135.092 41.5838C135.21 41.2016 135.298 40.8929 135.357 40.6577L137.473 33.6455H142.457L137.099 48.8164H131.454ZM144.493 48.8164V33.6455H149.366V48.8164H144.493ZM152.632 48.8164V33.6455H159.204C160.938 33.6455 162.394 33.9175 163.57 34.4614C164.746 35.0053 165.635 35.8359 166.238 36.9531C166.855 38.0704 167.164 39.4963 167.164 41.231C167.164 42.9509 166.855 44.3769 166.238 45.5088C165.635 46.626 164.746 47.4566 163.57 48.0005C162.394 48.5444 160.938 48.8164 159.204 48.8164H152.632ZM157.506 45.178H159.115C159.645 45.178 160.1 45.1045 160.482 44.9575C160.879 44.8105 161.203 44.5974 161.453 44.3181C161.703 44.0388 161.886 43.6933 162.004 43.2817C162.122 42.8701 162.18 42.407 162.18 41.8925V40.5695C162.18 40.0549 162.122 39.5919 162.004 39.1803C161.886 38.7687 161.703 38.4232 161.453 38.1439C161.203 37.8646 160.879 37.6514 160.482 37.5044C160.1 37.3574 159.645 37.2839 159.115 37.2839H157.506V45.178ZM169.795 48.8164V33.6455H174.668V48.8164H169.795ZM176.523 48.8164L182.058 33.6455H187.725L193.26 48.8164H188.1L187.461 46.6775H182.146L181.507 48.8164H176.523ZM183.161 43.2817H186.468L185.741 40.8561C185.682 40.6797 185.616 40.4666 185.542 40.2166C185.469 39.9667 185.395 39.7021 185.322 39.4228C185.248 39.1435 185.175 38.8716 185.101 38.6069C185.028 38.3276 184.962 38.0851 184.903 37.8793H184.726C184.668 38.1439 184.587 38.4452 184.484 38.7834C184.396 39.1215 184.3 39.4743 184.197 39.8418C184.094 40.1946 183.991 40.5327 183.888 40.8561L183.161 43.2817Z" fill="#110002"/>
<path d="M58.2596 48.8164L57.7181 48.6189L57.4358 49.3927H58.2596V48.8164ZM63.7943 33.6455V33.0692H63.3911L63.2529 33.448L63.7943 33.6455ZM69.4613 33.6455L70.0027 33.448L69.8645 33.0692H69.4613V33.6455ZM74.996 48.8164V49.3927H75.8198L75.5375 48.6189L74.996 48.8164ZM69.8362 48.8164L69.284 48.9815L69.4069 49.3927H69.8362V48.8164ZM69.1967 46.6775L69.7489 46.5124L69.6259 46.1012H69.1967V46.6775ZM63.8825 46.6775V46.1012H63.4533L63.3303 46.5124L63.8825 46.6775ZM63.243 48.8164V49.3927H63.6723L63.7952 48.9815L63.243 48.8164ZM64.8968 43.2817L64.3448 43.1161L64.1222 43.858H64.8968V43.2817ZM68.2044 43.2817V43.858H68.979L68.7565 43.1161L68.2044 43.2817ZM67.4767 40.8561L68.0288 40.6905L68.0263 40.6821L68.0235 40.6739L67.4767 40.8561ZM67.0578 39.4228L66.5004 39.5695V39.5695L67.0578 39.4228ZM66.8373 38.6069L66.2799 38.7536L66.282 38.7612L66.8373 38.6069ZM66.6388 37.8793L67.193 37.7209L67.0736 37.3029H66.6388V37.8793ZM66.4624 37.8793V37.3029H66.0001L65.8998 37.7543L66.4624 37.8793ZM66.2199 38.7834L65.6685 38.6155L65.6651 38.6266L65.6622 38.6379L66.2199 38.7834ZM65.9332 39.8418L66.4865 40.0032L66.4882 39.9972L65.9332 39.8418ZM65.6245 40.8561L65.0752 40.6813L65.0725 40.6905L65.6245 40.8561ZM58.801 49.0139L64.3357 33.8431L63.2529 33.448L57.7181 48.6189L58.801 49.0139ZM63.7943 34.2219H69.4613V33.0692H63.7943V34.2219ZM68.9199 33.8431L74.4546 49.0139L75.5375 48.6189L70.0027 33.448L68.9199 33.8431ZM74.996 48.2401H69.8362V49.3927H74.996V48.2401ZM70.3884 48.6513L69.7489 46.5124L68.6445 46.8426L69.284 48.9815L70.3884 48.6513ZM69.1967 46.1012H63.8825V47.2538H69.1967V46.1012ZM63.3303 46.5124L62.6908 48.6513L63.7952 48.9815L64.4347 46.8426L63.3303 46.5124ZM63.243 48.2401H58.2596V49.3927H63.243V48.2401ZM64.8968 43.858H68.2044V42.7054H64.8968V43.858ZM68.7565 43.1161L68.0288 40.6905L66.9247 41.0217L67.6524 43.4473L68.7565 43.1161ZM68.0235 40.6739C67.9675 40.506 67.9035 40.2997 67.8312 40.054L66.7254 40.3793C66.8001 40.6334 66.8684 40.8535 66.93 41.0384L68.0235 40.6739ZM67.8312 40.054C67.7594 39.8099 67.6874 39.5507 67.6151 39.2761L66.5004 39.5695C66.5752 39.8536 66.6502 40.1235 66.7254 40.3793L67.8312 40.054ZM67.6151 39.2761C67.541 38.9944 67.4668 38.7199 67.3926 38.4527L66.282 38.7612C66.3547 39.0232 66.4276 39.2926 66.5004 39.5695L67.6151 39.2761ZM67.3946 38.4603C67.3204 38.1783 67.2532 37.9317 67.193 37.7209L66.0847 38.0376C66.142 38.2385 66.2071 38.477 66.2799 38.7536L67.3946 38.4603ZM66.6388 37.3029H66.4624V38.4556H66.6388V37.3029ZM65.8998 37.7543C65.845 38.0009 65.7683 38.2876 65.6685 38.6155L66.7712 38.9512C66.8772 38.6029 66.9622 38.2869 67.025 38.0043L65.8998 37.7543ZM65.6622 38.6379C65.5749 38.9724 65.4803 39.3219 65.3782 39.6864L66.4882 39.9972C66.5919 39.6267 66.6884 39.2705 66.7775 38.9288L65.6622 38.6379ZM65.3799 39.6804C65.2782 40.0291 65.1767 40.3627 65.0753 40.6814L66.1737 41.0309C66.2781 40.7027 66.3824 40.3601 66.4865 40.0032L65.3799 39.6804ZM65.0725 40.6905L64.3448 43.1161L65.4489 43.4473L66.1765 41.0217L65.0725 40.6905ZM76.8333 48.8164H76.257V49.3927H76.8333V48.8164ZM76.8333 33.6455V33.0692H76.257V33.6455H76.8333ZM89.1596 34.3291L88.8602 34.8216L88.8645 34.8242L89.1596 34.3291ZM90.8796 36.1152L90.3682 36.3811L90.3682 36.3811L90.8796 36.1152ZM90.7693 41.0987L91.2618 41.398L91.2644 41.3938L90.7693 41.0987ZM88.9171 42.9068L88.6261 42.4093L88.1588 42.6827L88.4023 43.1661L88.9171 42.9068ZM91.8939 48.8164V49.3927H92.8295L92.4086 48.5571L91.8939 48.8164ZM86.4253 48.8164L85.9007 49.0549L86.0542 49.3927H86.4253V48.8164ZM84.11 43.7227L84.6347 43.4842L84.4811 43.1464H84.11V43.7227ZM81.7065 43.7227V43.1464H81.1302V43.7227H81.7065ZM81.7065 48.8164V49.3927H82.2828V48.8164H81.7065ZM81.7065 40.349H81.1302V40.9253H81.7065V40.349ZM86.0946 39.9079L86.5231 40.2936L86.5322 40.283L86.0946 39.9079ZM86.3151 37.8793L85.7996 38.137V38.137L86.3151 37.8793ZM85.83 37.328L85.495 37.797L85.5064 37.8052L85.5183 37.8128L85.83 37.328ZM81.7065 37.1075V36.5312H81.1302V37.1075H81.7065ZM77.4096 48.8164V33.6455H76.257V48.8164H77.4096ZM76.8333 34.2219H86.3371V33.0692H76.8333V34.2219ZM86.3371 34.2219C87.3936 34.2219 88.2234 34.4345 88.8603 34.8216L89.459 33.8366C88.5964 33.3123 87.5446 33.0692 86.3371 33.0692V34.2219ZM88.8645 34.8242C89.5441 35.2293 90.0391 35.7482 90.3682 36.3811L91.3909 35.8493C90.9556 35.0122 90.304 34.3404 89.4547 33.8341L88.8645 34.8242ZM90.3682 36.3811C90.7065 37.0316 90.8765 37.7338 90.8765 38.4967H92.0292C92.0292 37.5543 91.8171 36.6689 91.3909 35.8493L90.3682 36.3811ZM90.8765 38.4967C90.8765 39.3727 90.672 40.1363 90.2743 40.8036L91.2644 41.3938C91.778 40.5322 92.0292 39.5611 92.0292 38.4967H90.8765ZM90.2768 40.7993C89.8723 41.4649 89.3251 42.0005 88.6261 42.4093L89.208 43.4043C90.0673 42.9018 90.7549 42.2319 91.2618 41.398L90.2768 40.7993ZM88.4023 43.1661L91.3792 49.0757L92.4086 48.5571L89.4318 42.6475L88.4023 43.1661ZM91.8939 48.2401H86.4253V49.3927H91.8939V48.2401ZM86.95 48.5779L84.6347 43.4842L83.5853 43.9612L85.9007 49.0549L86.95 48.5779ZM84.11 43.1464H81.7065V44.299H84.11V43.1464ZM81.1302 43.7227V48.8164H82.2828V43.7227H81.1302ZM81.7065 48.2401H76.8333V49.3927H81.7065V48.2401ZM81.7065 40.9253H85.1243V39.7726H81.7065V40.9253ZM85.1243 40.9253C85.6763 40.9253 86.1534 40.7041 86.523 40.2935L85.6662 39.5224C85.5065 39.6998 85.3368 39.7726 85.1243 39.7726V40.9253ZM86.5322 40.283C86.9055 39.8474 87.0678 39.2998 87.0678 38.6952H85.9151C85.9151 39.0901 85.8128 39.351 85.657 39.5329L86.5322 40.283ZM87.0678 38.6952C87.0678 38.3125 86.9946 37.9496 86.8306 37.6215L85.7996 38.137C85.8708 38.2794 85.9151 38.4604 85.9151 38.6952H87.0678ZM86.8306 37.6215C86.6702 37.3009 86.4411 37.0357 86.1416 36.8432L85.5183 37.8128C85.6305 37.8849 85.7247 37.9873 85.7996 38.137L86.8306 37.6215ZM86.165 36.859C85.8567 36.6388 85.5032 36.5312 85.1243 36.5312V37.6838C85.2747 37.6838 85.3916 37.7232 85.495 37.797L86.165 36.859ZM85.1243 36.5312H81.7065V37.6838H85.1243V36.5312ZM81.1302 37.1075V40.349H82.2828V37.1075H81.1302ZM93.9958 48.8164H93.4194V49.3927H93.9958V48.8164ZM93.9958 33.6455V33.0692H93.4194V33.6455H93.9958ZM98.869 33.6455H99.4453V33.0692H98.869V33.6455ZM98.869 40.1284H98.2926V41.7203L99.3117 40.4974L98.869 40.1284ZM104.271 33.6455V33.0692H104.001L103.829 33.2766L104.271 33.6455ZM110.313 33.6455L110.747 34.0245L111.581 33.0692H110.313V33.6455ZM104.867 39.8859L104.433 39.5069L104.152 39.8282L104.377 40.1904L104.867 39.8859ZM110.424 48.8164V49.3927H111.461L110.913 48.5119L110.424 48.8164ZM104.668 48.8164L104.167 49.1011L104.333 49.3927H104.668V48.8164ZM101.449 43.1494L101.95 42.8647L101.583 42.2186L101.049 42.7348L101.449 43.1494ZM98.869 45.6411L98.4686 45.2266L98.2926 45.3965V45.6411H98.869ZM98.869 48.8164V49.3927H99.4453V48.8164H98.869ZM94.5721 48.8164V33.6455H93.4194V48.8164H94.5721ZM93.9958 34.2219H98.869V33.0692H93.9958V34.2219ZM98.2926 33.6455V40.1284H99.4453V33.6455H98.2926ZM99.3117 40.4974L104.714 34.0145L103.829 33.2766L98.4262 39.7595L99.3117 40.4974ZM104.271 34.2219H110.313V33.0692H104.271V34.2219ZM109.879 33.2666L104.433 39.5069L105.301 40.2649L110.747 34.0245L109.879 33.2666ZM104.377 40.1904L109.934 49.1209L110.913 48.5119L105.356 39.5814L104.377 40.1904ZM110.424 48.2401H104.668V49.3927H110.424V48.2401ZM105.169 48.5317L101.95 42.8647L100.948 43.4341L104.167 49.1011L105.169 48.5317ZM101.049 42.7348L98.4686 45.2266L99.2694 46.0557L101.849 43.5639L101.049 42.7348ZM98.2926 45.6411V48.8164H99.4453V45.6411H98.2926ZM98.869 48.2401H93.9958V49.3927H98.869V48.2401ZM109.855 48.8164L109.313 48.6189L109.031 49.3927H109.855V48.8164ZM115.389 33.6455V33.0692H114.986L114.848 33.448L115.389 33.6455ZM121.056 33.6455L121.598 33.448L121.46 33.0692H121.056V33.6455ZM126.591 48.8164V49.3927H127.415L127.133 48.6189L126.591 48.8164ZM121.431 48.8164L120.879 48.9815L121.002 49.3927H121.431V48.8164ZM120.792 46.6775L121.344 46.5124L121.221 46.1012H120.792V46.6775ZM115.478 46.6775V46.1012H115.048L114.925 46.5124L115.478 46.6775ZM114.838 48.8164V49.3927H115.267L115.39 48.9815L114.838 48.8164ZM116.492 43.2817L115.94 43.1161L115.717 43.858H116.492V43.2817ZM119.8 43.2817V43.858H120.574L120.352 43.1161L119.8 43.2817ZM119.072 40.8561L119.624 40.6905L119.621 40.6821L119.619 40.6739L119.072 40.8561ZM118.653 39.4228L118.096 39.5695V39.5695L118.653 39.4228ZM118.432 38.6069L117.875 38.7536L117.877 38.7612L118.432 38.6069ZM118.234 37.8793L118.788 37.7209L118.669 37.3029H118.234V37.8793ZM118.058 37.8793V37.3029H117.595L117.495 37.7543L118.058 37.8793ZM117.815 38.7834L117.264 38.6155L117.26 38.6266L117.257 38.6379L117.815 38.7834ZM117.528 39.8418L118.082 40.0032L118.083 39.9972L117.528 39.8418ZM117.22 40.8561L116.67 40.6813L116.668 40.6905L117.22 40.8561ZM110.396 49.0139L115.931 33.8431L114.848 33.448L109.313 48.6189L110.396 49.0139ZM115.389 34.2219H121.056V33.0692H115.389V34.2219ZM120.515 33.8431L126.05 49.0139L127.133 48.6189L121.598 33.448L120.515 33.8431ZM126.591 48.2401H121.431V49.3927H126.591V48.2401ZM121.983 48.6513L121.344 46.5124L120.24 46.8426L120.879 48.9815L121.983 48.6513ZM120.792 46.1012H115.478V47.2538H120.792V46.1012ZM114.925 46.5124L114.286 48.6513L115.39 48.9815L116.03 46.8426L114.925 46.5124ZM114.838 48.2401H109.855V49.3927H114.838V48.2401ZM116.492 43.858H119.8V42.7054H116.492V43.858ZM120.352 43.1161L119.624 40.6905L118.52 41.0217L119.248 43.4473L120.352 43.1161ZM119.619 40.6739C119.563 40.506 119.499 40.2997 119.426 40.054L118.32 40.3793C118.395 40.6334 118.463 40.8535 118.525 41.0384L119.619 40.6739ZM119.426 40.054C119.355 39.8099 119.283 39.5507 119.21 39.2761L118.096 39.5695C118.17 39.8536 118.245 40.1235 118.32 40.3793L119.426 40.054ZM119.21 39.2761C119.136 38.9944 119.062 38.7199 118.988 38.4527L117.877 38.7612C117.95 39.0232 118.023 39.2926 118.096 39.5695L119.21 39.2761ZM118.99 38.4603C118.916 38.1783 118.848 37.9317 118.788 37.7209L117.68 38.0376C117.737 38.2385 117.802 38.477 117.875 38.7536L118.99 38.4603ZM118.234 37.3029H118.058V38.4556H118.234V37.3029ZM117.495 37.7543C117.44 38.0009 117.363 38.2876 117.264 38.6155L118.366 38.9512C118.472 38.6029 118.557 38.2869 118.62 38.0043L117.495 37.7543ZM117.257 38.6379C117.17 38.9724 117.075 39.3219 116.973 39.6864L118.083 39.9972C118.187 39.6267 118.284 39.2705 118.373 38.9288L117.257 38.6379ZM116.975 39.6804C116.873 40.0291 116.772 40.3627 116.67 40.6814L117.769 41.0309C117.873 40.7027 117.977 40.3601 118.082 40.0032L116.975 39.6804ZM116.668 40.6905L115.94 43.1161L117.044 43.4473L117.772 41.0217L116.668 40.6905ZM131.454 48.8164L130.91 49.009L131.047 49.3927H131.454V48.8164ZM126.073 33.6455V33.0692H125.257L125.53 33.8382L126.073 33.6455ZM131.277 33.6455L131.829 33.4806L131.707 33.0692H131.277V33.6455ZM133.372 40.6577L132.82 40.8226L132.821 40.8272L133.372 40.6577ZM133.945 42.6643L133.391 42.8226L133.394 42.8317L133.397 42.8406L133.945 42.6643ZM134.276 43.7889L133.718 43.9343L133.831 44.3652H134.276V43.7889ZM134.453 43.7889V44.3652H134.887L135.007 43.9472L134.453 43.7889ZM134.761 42.7304L134.209 42.5667L134.761 42.7304ZM135.092 41.5838L134.541 41.4143L134.539 41.4213L134.537 41.4284L135.092 41.5838ZM135.357 40.6577L134.805 40.4911L134.801 40.5044L134.797 40.5179L135.357 40.6577ZM137.473 33.6455V33.0692H137.045L136.922 33.479L137.473 33.6455ZM142.457 33.6455L143 33.8375L143.272 33.0692H142.457V33.6455ZM137.099 48.8164V49.3927H137.506L137.642 49.0083L137.099 48.8164ZM131.997 48.6238L126.616 33.4529L125.53 33.8382L130.91 49.009L131.997 48.6238ZM126.073 34.2219H131.277V33.0692H126.073V34.2219ZM130.725 33.8105L132.82 40.8226L133.924 40.4927L131.829 33.4806L130.725 33.8105ZM132.821 40.8272C132.878 41.0111 132.957 41.2848 133.06 41.651L134.17 41.3402C134.066 40.9714 133.984 40.6864 133.923 40.4882L132.821 40.8272ZM133.06 41.651C133.163 42.0196 133.273 42.4101 133.391 42.8226L134.5 42.5059C134.382 42.0952 134.272 41.7066 134.17 41.3402L133.06 41.651ZM133.397 42.8406C133.526 43.2443 133.634 43.6087 133.718 43.9343L134.834 43.6434C134.742 43.2928 134.629 42.9074 134.494 42.4879L133.397 42.8406ZM134.276 44.3652H134.453V43.2125H134.276V44.3652ZM135.007 43.9472C135.094 43.6407 135.197 43.2898 135.314 42.8942L134.209 42.5667C134.091 42.9649 133.987 43.3196 133.898 43.6305L135.007 43.9472ZM135.314 42.8942C135.432 42.4947 135.543 42.1097 135.647 41.7392L134.537 41.4284C134.435 41.7929 134.326 42.1723 134.209 42.5667L135.314 42.8942ZM135.643 41.7533C135.762 41.3667 135.853 41.0469 135.916 40.7974L134.797 40.5179C134.742 40.7388 134.657 41.0365 134.541 41.4143L135.643 41.7533ZM135.908 40.8242L138.025 33.8121L136.922 33.479L134.805 40.4911L135.908 40.8242ZM137.473 34.2219H142.457V33.0692H137.473V34.2219ZM141.913 33.4536L136.555 48.6245L137.642 49.0083L143 33.8375L141.913 33.4536ZM137.099 48.2401H131.454V49.3927H137.099V48.2401ZM144.493 48.8164H143.916V49.3927H144.493V48.8164ZM144.493 33.6455V33.0692H143.916V33.6455H144.493ZM149.366 33.6455H149.942V33.0692H149.366V33.6455ZM149.366 48.8164V49.3927H149.942V48.8164H149.366ZM145.069 48.8164V33.6455H143.916V48.8164H145.069ZM144.493 34.2219H149.366V33.0692H144.493V34.2219ZM148.79 33.6455V48.8164H149.942V33.6455H148.79ZM149.366 48.2401H144.493V49.3927H149.366V48.2401ZM152.632 48.8164H152.056V49.3927H152.632V48.8164ZM152.632 33.6455V33.0692H152.056V33.6455H152.632ZM163.57 34.4614L163.812 33.9383L163.57 34.4614ZM166.238 36.9531L165.73 37.2268L165.733 37.2319L166.238 36.9531ZM166.238 45.5088L165.732 45.2328L165.73 45.2352L166.238 45.5088ZM163.57 48.0005L163.812 48.5236L163.57 48.0005ZM157.506 45.178H156.929V45.7544H157.506V45.178ZM160.482 44.9575L160.282 44.417L160.276 44.4196L160.482 44.9575ZM161.453 44.3181L161.882 44.7024V44.7024L161.453 44.3181ZM162.004 43.2817L161.45 43.1234L162.004 43.2817ZM162.004 39.1803L161.45 39.3386V39.3386L162.004 39.1803ZM161.453 38.1439L161.882 37.7596L161.453 38.1439ZM160.482 37.5044L160.276 38.0424L160.282 38.0449L160.482 37.5044ZM157.506 37.2839V36.7076H156.929V37.2839H157.506ZM153.209 48.8164V33.6455H152.056V48.8164H153.209ZM152.632 34.2219H159.204V33.0692H152.632V34.2219ZM159.204 34.2219C160.882 34.2219 162.249 34.4854 163.328 34.9845L163.812 33.9383C162.539 33.3496 160.995 33.0692 159.204 33.0692V34.2219ZM163.328 34.9845C164.393 35.4773 165.188 36.2216 165.73 37.2268L166.745 36.6795C166.082 35.4502 165.098 34.5334 163.812 33.9383L163.328 34.9845ZM165.733 37.2319C166.29 38.2386 166.588 39.5603 166.588 41.231H167.74C167.74 39.4323 167.421 37.9021 166.742 36.6744L165.733 37.2319ZM166.588 41.231C166.588 42.8855 166.29 44.2091 165.732 45.2328L166.744 45.7848C167.42 44.5446 167.74 43.0164 167.74 41.231H166.588ZM165.73 45.2352C165.188 46.2403 164.393 46.9846 163.328 47.4774L163.812 48.5236C165.098 47.9286 166.082 47.0117 166.745 45.7824L165.73 45.2352ZM163.328 47.4774C162.249 47.9765 160.882 48.2401 159.204 48.2401V49.3927C160.995 49.3927 162.539 49.1124 163.812 48.5236L163.328 47.4774ZM159.204 48.2401H152.632V49.3927H159.204V48.2401ZM157.506 45.7544H159.115V44.6017H157.506V45.7544ZM159.115 45.7544C159.696 45.7544 160.225 45.6741 160.689 45.4955L160.276 44.4196C159.976 44.535 159.594 44.6017 159.115 44.6017V45.7544ZM160.683 45.498C161.156 45.3227 161.562 45.0602 161.882 44.7024L161.023 43.9338C160.844 44.1345 160.603 44.2984 160.282 44.4171L160.683 45.498ZM161.882 44.7024C162.198 44.3495 162.42 43.9235 162.558 43.44L161.45 43.1234C161.353 43.4631 161.207 43.7281 161.023 43.9338L161.882 44.7024ZM162.558 43.44C162.693 42.9678 162.757 42.4501 162.757 41.8925H161.604C161.604 42.3639 161.55 42.7724 161.45 43.1234L162.558 43.44ZM162.757 41.8925V40.5695H161.604V41.8925H162.757ZM162.757 40.5695C162.757 40.0118 162.693 39.4942 162.558 39.0219L161.45 39.3386C161.55 39.6896 161.604 40.0981 161.604 40.5695H162.757ZM162.558 39.0219C162.42 38.5385 162.198 38.1125 161.882 37.7596L161.023 38.5282C161.207 38.7339 161.353 38.9988 161.45 39.3386L162.558 39.0219ZM161.882 37.7596C161.562 37.4017 161.156 37.1393 160.683 36.964L160.282 38.0449C160.603 38.1635 160.844 38.3274 161.023 38.5282L161.882 37.7596ZM160.689 36.9665C160.225 36.7879 159.696 36.7076 159.115 36.7076V37.8602C159.594 37.8602 159.976 37.9269 160.276 38.0423L160.689 36.9665ZM159.115 36.7076H157.506V37.8602H159.115V36.7076ZM156.929 37.2839V45.178H158.082V37.2839H156.929ZM169.795 48.8164H169.219V49.3927H169.795V48.8164ZM169.795 33.6455V33.0692H169.219V33.6455H169.795ZM174.668 33.6455H175.244V33.0692H174.668V33.6455ZM174.668 48.8164V49.3927H175.244V48.8164H174.668ZM170.371 48.8164V33.6455H169.219V48.8164H170.371ZM169.795 34.2219H174.668V33.0692H169.795V34.2219ZM174.092 33.6455V48.8164H175.244V33.6455H174.092ZM174.668 48.2401H169.795V49.3927H174.668V48.2401ZM176.523 48.8164L175.982 48.6189L175.7 49.3927H176.523V48.8164ZM182.058 33.6455V33.0692H181.655L181.517 33.448L182.058 33.6455ZM187.725 33.6455L188.267 33.448L188.128 33.0692H187.725V33.6455ZM193.26 48.8164V49.3927H194.084L193.801 48.6189L193.26 48.8164ZM188.1 48.8164L187.548 48.9815L187.671 49.3927H188.1V48.8164ZM187.461 46.6775L188.013 46.5124L187.89 46.1012H187.461V46.6775ZM182.146 46.6775V46.1012H181.717L181.594 46.5124L182.146 46.6775ZM181.507 48.8164V49.3927H181.936L182.059 48.9815L181.507 48.8164ZM183.161 43.2817L182.609 43.1161L182.386 43.858H183.161V43.2817ZM186.468 43.2817V43.858H187.243L187.02 43.1161L186.468 43.2817ZM185.741 40.8561L186.293 40.6905L186.29 40.6821L186.287 40.6739L185.741 40.8561ZM185.322 39.4228L184.764 39.5695V39.5695L185.322 39.4228ZM185.101 38.6069L184.544 38.7536L184.546 38.7612L185.101 38.6069ZM184.903 37.8793L185.457 37.7209L185.337 37.3029H184.903V37.8793ZM184.726 37.8793V37.3029H184.264L184.164 37.7543L184.726 37.8793ZM184.484 38.7834L183.932 38.6155L183.929 38.6266L183.926 38.6379L184.484 38.7834ZM184.197 39.8418L184.75 40.0032L184.752 39.9972L184.197 39.8418ZM183.888 40.8561L183.339 40.6813L183.336 40.6905L183.888 40.8561ZM177.065 49.0139L182.6 33.8431L181.517 33.448L175.982 48.6189L177.065 49.0139ZM182.058 34.2219H187.725V33.0692H182.058V34.2219ZM187.184 33.8431L192.719 49.0139L193.801 48.6189L188.267 33.448L187.184 33.8431ZM193.26 48.2401H188.1V49.3927H193.26V48.2401ZM188.652 48.6513L188.013 46.5124L186.908 46.8426L187.548 48.9815L188.652 48.6513ZM187.461 46.1012H182.146V47.2538H187.461V46.1012ZM181.594 46.5124L180.955 48.6513L182.059 48.9815L182.699 46.8426L181.594 46.5124ZM181.507 48.2401H176.523V49.3927H181.507V48.2401ZM183.161 43.858H186.468V42.7054H183.161V43.858ZM187.02 43.1161L186.293 40.6905L185.189 41.0217L185.916 43.4473L187.02 43.1161ZM186.287 40.6739C186.231 40.506 186.167 40.2997 186.095 40.054L184.989 40.3793C185.064 40.6334 185.132 40.8535 185.194 41.0384L186.287 40.6739ZM186.095 40.054C186.023 39.8099 185.951 39.5507 185.879 39.2761L184.764 39.5695C184.839 39.8536 184.914 40.1235 184.989 40.3793L186.095 40.054ZM185.879 39.2761C185.805 38.9944 185.731 38.7199 185.657 38.4527L184.546 38.7612C184.619 39.0232 184.691 39.2926 184.764 39.5695L185.879 39.2761ZM185.659 38.4603C185.584 38.1783 185.517 37.9317 185.457 37.7209L184.349 38.0376C184.406 38.2385 184.471 38.477 184.544 38.7536L185.659 38.4603ZM184.903 37.3029H184.726V38.4556H184.903V37.3029ZM184.164 37.7543C184.109 38.0009 184.032 38.2876 183.932 38.6155L185.035 38.9512C185.141 38.6029 185.226 38.2869 185.289 38.0043L184.164 37.7543ZM183.926 38.6379C183.839 38.9724 183.744 39.3219 183.642 39.6864L184.752 39.9972C184.856 39.6267 184.952 39.2705 185.041 38.9288L183.926 38.6379ZM183.644 39.6804C183.542 40.0291 183.441 40.3627 183.339 40.6814L184.438 41.0309C184.542 40.7027 184.646 40.3601 184.75 40.0032L183.644 39.6804ZM183.336 40.6905L182.609 43.1161L183.713 43.4473L184.44 41.0217L183.336 40.6905Z" fill="#110002"/>
<path d="M55.1014 46.916L60.6361 31.7452H66.3031L71.8378 46.916H66.678L66.0385 44.7771H60.7243L60.0848 46.916H55.1014ZM61.7386 41.3813H65.0462L64.3185 38.9557C64.2597 38.7793 64.1936 38.5662 64.1201 38.3163C64.0466 38.0663 63.9731 37.8017 63.8996 37.5224C63.8261 37.2431 63.7526 36.9712 63.6791 36.7066C63.6056 36.4272 63.5394 36.1847 63.4806 35.9789H63.3042C63.2454 36.2435 63.1646 36.5449 63.0617 36.883C62.9735 37.2211 62.8779 37.5739 62.775 37.9414C62.6721 38.2942 62.5692 38.6323 62.4663 38.9557L61.7386 41.3813ZM73.6751 46.916V31.7452H83.1789C84.3109 31.7452 85.2517 31.973 86.0014 32.4287C86.7658 32.8844 87.3392 33.4798 87.7214 34.2148C88.1036 34.9499 88.2947 35.7437 88.2947 36.5963C88.2947 37.5665 88.0668 38.4339 87.6111 39.1983C87.1554 39.948 86.538 40.5507 85.7589 41.0064L88.7357 46.916H83.2671L80.9518 41.8223H78.5483V46.916H73.6751ZM78.5483 38.4486H81.9661C82.3484 38.4486 82.6718 38.3016 82.9364 38.0075C83.201 37.6988 83.3333 37.2946 83.3333 36.7948C83.3333 36.4861 83.2745 36.2141 83.1569 35.9789C83.0393 35.7437 82.8776 35.5599 82.6718 35.4276C82.466 35.2806 82.2307 35.2071 81.9661 35.2071H78.5483V38.4486ZM90.8376 46.916V31.7452H95.7108V38.2281L101.113 31.7452H107.155L101.709 37.9855L107.265 46.916H101.51L98.2907 41.249L95.7108 43.7407V46.916H90.8376ZM106.696 46.916L112.231 31.7452H117.898L123.433 46.916H118.273L117.634 44.7771H112.319L111.68 46.916H106.696ZM113.334 41.3813H116.641L115.914 38.9557C115.855 38.7793 115.789 38.5662 115.715 38.3163C115.642 38.0663 115.568 37.8017 115.495 37.5224C115.421 37.2431 115.348 36.9712 115.274 36.7066C115.201 36.4272 115.135 36.1847 115.076 35.9789H114.899C114.841 36.2435 114.76 36.5449 114.657 36.883C114.569 37.2211 114.473 37.5739 114.37 37.9414C114.267 38.2942 114.164 38.6323 114.061 38.9557L113.334 41.3813ZM128.295 46.916L122.915 31.7452H128.119L130.214 38.7573C130.273 38.9484 130.354 39.2277 130.456 39.5952C130.559 39.9627 130.67 40.3523 130.787 40.7639C130.919 41.1755 131.03 41.5504 131.118 41.8885H131.294C131.383 41.5798 131.485 41.2269 131.603 40.83C131.721 40.4331 131.831 40.0509 131.934 39.6834C132.051 39.3012 132.14 38.9925 132.198 38.7573L134.315 31.7452H139.299L133.94 46.916H128.295ZM141.334 46.916V31.7452H146.208V46.916H141.334ZM149.474 46.916V31.7452H156.045C157.78 31.7452 159.235 32.0171 160.411 32.561C161.587 33.1049 162.477 33.9355 163.08 35.0528C163.697 36.17 164.006 37.5959 164.006 39.3306C164.006 41.0505 163.697 42.4765 163.08 43.6084C162.477 44.7256 161.587 45.5562 160.411 46.1001C159.235 46.6441 157.78 46.916 156.045 46.916H149.474ZM154.347 43.2777H155.957C156.486 43.2777 156.942 43.2042 157.324 43.0571C157.721 42.9101 158.045 42.697 158.295 42.4177C158.544 42.1384 158.728 41.7929 158.846 41.3813C158.963 40.9697 159.022 40.5066 159.022 39.9921V38.6691C159.022 38.1546 158.963 37.6915 158.846 37.2799C158.728 36.8683 158.544 36.5228 158.295 36.2435C158.045 35.9642 157.721 35.751 157.324 35.604C156.942 35.457 156.486 35.3835 155.957 35.3835H154.347V43.2777ZM166.637 46.916V31.7452H171.51V46.916H166.637ZM173.365 46.916L178.9 31.7452H184.567L190.102 46.916H184.942L184.302 44.7771H178.988L178.349 46.916H173.365ZM180.003 41.3813H183.31L182.582 38.9557C182.524 38.7793 182.458 38.5662 182.384 38.3163C182.311 38.0663 182.237 37.8017 182.164 37.5224C182.09 37.2431 182.017 36.9712 181.943 36.7066C181.869 36.4272 181.803 36.1847 181.745 35.9789H181.568C181.509 36.2435 181.428 36.5449 181.326 36.883C181.237 37.2211 181.142 37.5739 181.039 37.9414C180.936 38.2942 180.833 38.6323 180.73 38.9557L180.003 41.3813Z" fill="#FFEADF"/>
<path d="M55.1014 46.916L54.5599 46.7185L54.2776 47.4924H55.1014V46.916ZM60.6361 31.7452V31.1688H60.2329L60.0947 31.5476L60.6361 31.7452ZM66.3031 31.7452L66.8445 31.5476L66.7063 31.1688H66.3031V31.7452ZM71.8378 46.916V47.4924H72.6616L72.3793 46.7185L71.8378 46.916ZM66.678 46.916L66.1258 47.0811L66.2487 47.4924H66.678V46.916ZM66.0385 44.7771L66.5907 44.612L66.4677 44.2008H66.0385V44.7771ZM60.7243 44.7771V44.2008H60.295L60.1721 44.612L60.7243 44.7771ZM60.0848 46.916V47.4924H60.5141L60.637 47.0811L60.0848 46.916ZM61.7386 41.3813L61.1866 41.2157L60.964 41.9576H61.7386V41.3813ZM65.0462 41.3813V41.9576H65.8208L65.5982 41.2157L65.0462 41.3813ZM64.3185 38.9557L64.8706 38.7901L64.8681 38.7818L64.8653 38.7735L64.3185 38.9557ZM63.8996 37.5224L63.3422 37.6691V37.6691L63.8996 37.5224ZM63.6791 36.7066L63.1217 36.8532L63.1238 36.8608L63.6791 36.7066ZM63.4806 35.9789L64.0348 35.8206L63.9154 35.4025H63.4806V35.9789ZM63.3042 35.9789V35.4025H62.8419L62.7416 35.8539L63.3042 35.9789ZM63.0617 36.883L62.5103 36.7152L62.5069 36.7263L62.504 36.7375L63.0617 36.883ZM62.775 37.9414L63.3283 38.1028L63.33 38.0968L62.775 37.9414ZM62.4663 38.9557L61.917 38.781L61.9143 38.7901L62.4663 38.9557ZM55.6428 47.1135L61.1775 31.9427L60.0947 31.5476L54.5599 46.7185L55.6428 47.1135ZM60.6361 32.3215H66.3031V31.1688H60.6361V32.3215ZM65.7617 31.9427L71.2964 47.1135L72.3793 46.7185L66.8445 31.5476L65.7617 31.9427ZM71.8378 46.3397H66.678V47.4924H71.8378V46.3397ZM67.2302 46.7509L66.5907 44.612L65.4863 44.9422L66.1258 47.0811L67.2302 46.7509ZM66.0385 44.2008H60.7243V45.3534H66.0385V44.2008ZM60.1721 44.612L59.5326 46.7509L60.637 47.0811L61.2765 44.9422L60.1721 44.612ZM60.0848 46.3397H55.1014V47.4924H60.0848V46.3397ZM61.7386 41.9576H65.0462V40.805H61.7386V41.9576ZM65.5982 41.2157L64.8706 38.7901L63.7665 39.1213L64.4942 41.5469L65.5982 41.2157ZM64.8653 38.7735C64.8093 38.6056 64.7453 38.3993 64.673 38.1536L63.5672 38.4789C63.6419 38.733 63.7101 38.9531 63.7718 39.138L64.8653 38.7735ZM64.673 38.1536C64.6012 37.9096 64.5292 37.6503 64.4569 37.3758L63.3422 37.6691C63.417 37.9532 63.492 38.2231 63.5672 38.4789L64.673 38.1536ZM64.4569 37.3758C64.3828 37.094 64.3086 36.8196 64.2344 36.5523L63.1238 36.8608C63.1965 37.1228 63.2694 37.3922 63.3422 37.6691L64.4569 37.3758ZM64.2364 36.5599C64.1622 36.2779 64.095 36.0313 64.0348 35.8206L62.9265 36.1372C62.9838 36.3381 63.0489 36.5766 63.1217 36.8532L64.2364 36.5599ZM63.4806 35.4025H63.3042V36.5552H63.4806V35.4025ZM62.7416 35.8539C62.6868 36.1005 62.6101 36.3872 62.5103 36.7152L63.613 37.0508C63.719 36.7025 63.804 36.3865 63.8668 36.1039L62.7416 35.8539ZM62.504 36.7375C62.4167 37.072 62.3221 37.4215 62.22 37.786L63.33 38.0968C63.4337 37.7263 63.5302 37.3702 63.6193 37.0284L62.504 36.7375ZM62.2217 37.78C62.12 38.1287 62.0185 38.4624 61.9171 38.781L63.0155 39.1305C63.1199 38.8023 63.2242 38.4597 63.3283 38.1028L62.2217 37.78ZM61.9143 38.7901L61.1866 41.2157L62.2906 41.5469L63.0183 39.1213L61.9143 38.7901ZM73.6751 46.916H73.0988V47.4924H73.6751V46.916ZM73.6751 31.7452V31.1688H73.0988V31.7452H73.6751ZM86.0014 32.4287L85.702 32.9212L85.7063 32.9238L86.0014 32.4287ZM87.7214 34.2148L87.21 34.4807L87.21 34.4807L87.7214 34.2148ZM87.6111 39.1983L88.1036 39.4977L88.1062 39.4934L87.6111 39.1983ZM85.7589 41.0064L85.4679 40.509L85.0006 40.7823L85.2441 41.2657L85.7589 41.0064ZM88.7357 46.916V47.4924H89.6713L89.2504 46.6567L88.7357 46.916ZM83.2671 46.916L82.7425 47.1545L82.896 47.4924H83.2671V46.916ZM80.9518 41.8223L81.4765 41.5838L81.3229 41.246H80.9518V41.8223ZM78.5483 41.8223V41.246H77.972V41.8223H78.5483ZM78.5483 46.916V47.4924H79.1246V46.916H78.5483ZM78.5483 38.4486H77.972V39.0249H78.5483V38.4486ZM82.9364 38.0075L83.3649 38.3932L83.374 38.3826L82.9364 38.0075ZM83.1569 35.9789L82.6414 36.2366V36.2366L83.1569 35.9789ZM82.6718 35.4276L82.3368 35.8966L82.3482 35.9048L82.3601 35.9124L82.6718 35.4276ZM78.5483 35.2071V34.6308H77.972V35.2071H78.5483ZM74.2514 46.916V31.7452H73.0988V46.916H74.2514ZM73.6751 32.3215H83.1789V31.1688H73.6751V32.3215ZM83.1789 32.3215C84.2354 32.3215 85.0652 32.5341 85.7021 32.9212L86.3008 31.9362C85.4382 31.4119 84.3864 31.1688 83.1789 31.1688V32.3215ZM85.7063 32.9238C86.3859 33.3289 86.8809 33.8478 87.21 34.4807L88.2327 33.9489C87.7974 33.1119 87.1458 32.44 86.2965 31.9337L85.7063 32.9238ZM87.21 34.4807C87.5483 35.1312 87.7183 35.8334 87.7183 36.5963H88.871C88.871 35.6539 88.6589 34.7685 88.2327 33.9489L87.21 34.4807ZM87.7183 36.5963C87.7183 37.4723 87.5138 38.2359 87.1161 38.9032L88.1062 39.4934C88.6198 38.6318 88.871 37.6608 88.871 36.5963H87.7183ZM87.1186 38.8989C86.7141 39.5645 86.1669 40.1001 85.4679 40.509L86.0498 41.5039C86.9091 41.0014 87.5967 40.3315 88.1036 39.4976L87.1186 38.8989ZM85.2441 41.2657L88.221 47.1753L89.2504 46.6567L86.2736 40.7472L85.2441 41.2657ZM88.7357 46.3397H83.2671V47.4924H88.7357V46.3397ZM83.7918 46.6775L81.4765 41.5838L80.4271 42.0608L82.7425 47.1545L83.7918 46.6775ZM80.9518 41.246H78.5483V42.3986H80.9518V41.246ZM77.972 41.8223V46.916H79.1246V41.8223H77.972ZM78.5483 46.3397H73.6751V47.4924H78.5483V46.3397ZM78.5483 39.0249H81.9661V37.8722H78.5483V39.0249ZM81.9661 39.0249C82.5181 39.0249 82.9952 38.8037 83.3648 38.3931L82.508 37.622C82.3483 37.7994 82.1786 37.8722 81.9661 37.8722V39.0249ZM83.374 38.3826C83.7473 37.947 83.9096 37.3994 83.9096 36.7948H82.7569C82.7569 37.1897 82.6546 37.4507 82.4988 37.6325L83.374 38.3826ZM83.9096 36.7948C83.9096 36.4121 83.8364 36.0492 83.6724 35.7211L82.6414 36.2366C82.7126 36.379 82.7569 36.56 82.7569 36.7948H83.9096ZM83.6724 35.7211C83.512 35.4005 83.2829 35.1353 82.9834 34.9428L82.3601 35.9124C82.4723 35.9845 82.5665 36.0869 82.6414 36.2366L83.6724 35.7211ZM83.0068 34.9586C82.6985 34.7385 82.345 34.6308 81.9661 34.6308V35.7834C82.1165 35.7834 82.2334 35.8228 82.3368 35.8966L83.0068 34.9586ZM81.9661 34.6308H78.5483V35.7834H81.9661V34.6308ZM77.972 35.2071V38.4486H79.1246V35.2071H77.972ZM90.8376 46.916H90.2612V47.4924H90.8376V46.916ZM90.8376 31.7452V31.1688H90.2612V31.7452H90.8376ZM95.7108 31.7452H96.2871V31.1688H95.7108V31.7452ZM95.7108 38.2281H95.1344V39.8199L96.1535 38.597L95.7108 38.2281ZM101.113 31.7452V31.1688H100.843L100.67 31.3762L101.113 31.7452ZM107.155 31.7452L107.589 32.1241L108.423 31.1688H107.155V31.7452ZM101.709 37.9855L101.274 37.6065L100.994 37.9278L101.219 38.29L101.709 37.9855ZM107.265 46.916V47.4924H108.303L107.755 46.6115L107.265 46.916ZM101.51 46.916L101.009 47.2007L101.175 47.4924H101.51V46.916ZM98.2907 41.249L98.7918 40.9643L98.4248 40.3182L97.8903 40.8344L98.2907 41.249ZM95.7108 43.7407L95.3104 43.3262L95.1344 43.4961V43.7407H95.7108ZM95.7108 46.916V47.4924H96.2871V46.916H95.7108ZM91.4139 46.916V31.7452H90.2612V46.916H91.4139ZM90.8376 32.3215H95.7108V31.1688H90.8376V32.3215ZM95.1344 31.7452V38.2281H96.2871V31.7452H95.1344ZM96.1535 38.597L101.556 32.1141L100.67 31.3762L95.268 37.8591L96.1535 38.597ZM101.113 32.3215H107.155V31.1688H101.113V32.3215ZM106.721 31.3662L101.274 37.6065L102.143 38.3645L107.589 32.1241L106.721 31.3662ZM101.219 38.29L106.776 47.2205L107.755 46.6115L102.198 37.681L101.219 38.29ZM107.265 46.3397H101.51V47.4924H107.265V46.3397ZM102.011 46.6313L98.7918 40.9643L97.7896 41.5337L101.009 47.2007L102.011 46.6313ZM97.8903 40.8344L95.3104 43.3262L96.1112 44.1553L98.6911 41.6636L97.8903 40.8344ZM95.1344 43.7407V46.916H96.2871V43.7407H95.1344ZM95.7108 46.3397H90.8376V47.4924H95.7108V46.3397ZM106.696 46.916L106.155 46.7185L105.873 47.4924H106.696V46.916ZM112.231 31.7452V31.1688H111.828L111.69 31.5476L112.231 31.7452ZM117.898 31.7452L118.44 31.5476L118.301 31.1688H117.898V31.7452ZM123.433 46.916V47.4924H124.257L123.974 46.7185L123.433 46.916ZM118.273 46.916L117.721 47.0811L117.844 47.4924H118.273V46.916ZM117.634 44.7771L118.186 44.612L118.063 44.2008H117.634V44.7771ZM112.319 44.7771V44.2008H111.89L111.767 44.612L112.319 44.7771ZM111.68 46.916V47.4924H112.109L112.232 47.0811L111.68 46.916ZM113.334 41.3813L112.782 41.2157L112.559 41.9576H113.334V41.3813ZM116.641 41.3813V41.9576H117.416L117.193 41.2157L116.641 41.3813ZM115.914 38.9557L116.466 38.7901L116.463 38.7818L116.46 38.7735L115.914 38.9557ZM115.495 37.5224L114.937 37.6691V37.6691L115.495 37.5224ZM115.274 36.7066L114.717 36.8532L114.719 36.8608L115.274 36.7066ZM115.076 35.9789L115.63 35.8206L115.51 35.4025H115.076V35.9789ZM114.899 35.9789V35.4025H114.437L114.337 35.8539L114.899 35.9789ZM114.657 36.883L114.105 36.7152L114.102 36.7263L114.099 36.7375L114.657 36.883ZM114.37 37.9414L114.923 38.1028L114.925 38.0968L114.37 37.9414ZM114.061 38.9557L113.512 38.781L113.509 38.7901L114.061 38.9557ZM107.238 47.1135L112.773 31.9427L111.69 31.5476L106.155 46.7185L107.238 47.1135ZM112.231 32.3215H117.898V31.1688H112.231V32.3215ZM117.357 31.9427L122.892 47.1135L123.974 46.7185L118.44 31.5476L117.357 31.9427ZM123.433 46.3397H118.273V47.4924H123.433V46.3397ZM118.825 46.7509L118.186 44.612L117.081 44.9422L117.721 47.0811L118.825 46.7509ZM117.634 44.2008H112.319V45.3534H117.634V44.2008ZM111.767 44.612L111.128 46.7509L112.232 47.0811L112.872 44.9422L111.767 44.612ZM111.68 46.3397H106.696V47.4924H111.68V46.3397ZM113.334 41.9576H116.641V40.805H113.334V41.9576ZM117.193 41.2157L116.466 38.7901L115.362 39.1213L116.089 41.5469L117.193 41.2157ZM116.46 38.7735C116.404 38.6056 116.34 38.3993 116.268 38.1536L115.162 38.4789C115.237 38.733 115.305 38.9531 115.367 39.138L116.46 38.7735ZM116.268 38.1536C116.196 37.9096 116.124 37.6503 116.052 37.3758L114.937 37.6691C115.012 37.9532 115.087 38.2231 115.162 38.4789L116.268 38.1536ZM116.052 37.3758C115.978 37.094 115.904 36.8196 115.829 36.5523L114.719 36.8608C114.792 37.1228 114.864 37.3922 114.937 37.6691L116.052 37.3758ZM115.832 36.5599C115.757 36.2779 115.69 36.0313 115.63 35.8206L114.522 36.1372C114.579 36.3381 114.644 36.5766 114.717 36.8532L115.832 36.5599ZM115.076 35.4025H114.899V36.5552H115.076V35.4025ZM114.337 35.8539C114.282 36.1005 114.205 36.3872 114.105 36.7152L115.208 37.0508C115.314 36.7025 115.399 36.3865 115.462 36.1039L114.337 35.8539ZM114.099 36.7375C114.012 37.072 113.917 37.4215 113.815 37.786L114.925 38.0968C115.029 37.7263 115.125 37.3702 115.214 37.0284L114.099 36.7375ZM113.817 37.78C113.715 38.1287 113.614 38.4624 113.512 38.781L114.611 39.1305C114.715 38.8023 114.819 38.4597 114.923 38.1028L113.817 37.78ZM113.509 38.7901L112.782 41.2157L113.886 41.5469L114.613 39.1213L113.509 38.7901ZM128.295 46.916L127.752 47.1087L127.888 47.4924H128.295V46.916ZM122.915 31.7452V31.1688H122.099L122.372 31.9378L122.915 31.7452ZM128.119 31.7452L128.671 31.5802L128.548 31.1688H128.119V31.7452ZM130.214 38.7573L129.662 38.9222L129.663 38.9268L130.214 38.7573ZM130.787 40.7639L130.233 40.9222L130.236 40.9313L130.238 40.9402L130.787 40.7639ZM131.118 41.8885L130.56 42.0339L130.673 42.4648H131.118V41.8885ZM131.294 41.8885V42.4648H131.729L131.848 42.0468L131.294 41.8885ZM131.603 40.83L131.05 40.6663L131.603 40.83ZM131.934 39.6834L131.383 39.5139L131.381 39.5209L131.379 39.528L131.934 39.6834ZM132.198 38.7573L131.647 38.5907L131.643 38.604L131.639 38.6175L132.198 38.7573ZM134.315 31.7452V31.1688H133.887L133.764 31.5786L134.315 31.7452ZM139.299 31.7452L139.842 31.9371L140.114 31.1688H139.299V31.7452ZM133.94 46.916V47.4924H134.348L134.484 47.108L133.94 46.916ZM128.839 46.7234L123.458 31.5525L122.372 31.9378L127.752 47.1087L128.839 46.7234ZM122.915 32.3215H128.119V31.1688H122.915V32.3215ZM127.567 31.9101L129.662 38.9222L130.766 38.5923L128.671 31.5802L127.567 31.9101ZM129.663 38.9268C129.72 39.1107 129.799 39.3844 129.901 39.7506L131.011 39.4398C130.908 39.071 130.826 38.786 130.765 38.5878L129.663 38.9268ZM129.901 39.7506C130.005 40.1192 130.115 40.5097 130.233 40.9222L131.341 40.6055C131.224 40.1948 131.114 39.8062 131.011 39.4398L129.901 39.7506ZM130.238 40.9402C130.368 41.3439 130.475 41.7083 130.56 42.0339L131.676 41.743C131.584 41.3924 131.471 41.0071 131.336 40.5875L130.238 40.9402ZM131.118 42.4648H131.294V41.3121H131.118V42.4648ZM131.848 42.0468C131.936 41.7403 132.038 41.3894 132.156 40.9938L131.05 40.6663C130.932 41.0645 130.829 41.4192 130.74 41.7301L131.848 42.0468ZM132.156 40.9938C132.274 40.5943 132.385 40.2093 132.489 39.8388L131.379 39.528C131.277 39.8925 131.167 40.2719 131.05 40.6663L132.156 40.9938ZM132.485 39.8529C132.604 39.4663 132.695 39.1465 132.758 38.8971L131.639 38.6175C131.584 38.8384 131.499 39.1361 131.383 39.5139L132.485 39.8529ZM132.75 38.9238L134.867 31.9117L133.764 31.5786L131.647 38.5907L132.75 38.9238ZM134.315 32.3215H139.299V31.1688H134.315V32.3215ZM138.755 31.5532L133.397 46.7241L134.484 47.108L139.842 31.9371L138.755 31.5532ZM133.94 46.3397H128.295V47.4924H133.94V46.3397ZM141.334 46.916H140.758V47.4924H141.334V46.916ZM141.334 31.7452V31.1688H140.758V31.7452H141.334ZM146.208 31.7452H146.784V31.1688H146.208V31.7452ZM146.208 46.916V47.4924H146.784V46.916H146.208ZM141.911 46.916V31.7452H140.758V46.916H141.911ZM141.334 32.3215H146.208V31.1688H141.334V32.3215ZM145.631 31.7452V46.916H146.784V31.7452H145.631ZM146.208 46.3397H141.334V47.4924H146.208V46.3397ZM149.474 46.916H148.898V47.4924H149.474V46.916ZM149.474 31.7452V31.1688H148.898V31.7452H149.474ZM160.411 32.561L160.653 32.0379L160.411 32.561ZM163.08 35.0528L162.572 35.3264L162.575 35.3315L163.08 35.0528ZM163.08 43.6084L162.574 43.3324L162.572 43.3348L163.08 43.6084ZM160.411 46.1001L160.653 46.6232L160.411 46.1001ZM154.347 43.2777H153.771V43.854H154.347V43.2777ZM157.324 43.0571L157.124 42.5166L157.117 42.5192L157.324 43.0571ZM158.295 42.4177L158.724 42.802V42.802L158.295 42.4177ZM158.846 41.3813L158.292 41.223L158.846 41.3813ZM158.846 37.2799L158.292 37.4382V37.4382L158.846 37.2799ZM158.295 36.2435L158.724 35.8592L158.295 36.2435ZM157.324 35.604L157.117 36.142L157.124 36.1445L157.324 35.604ZM154.347 35.3835V34.8072H153.771V35.3835H154.347ZM150.051 46.916V31.7452H148.898V46.916H150.051ZM149.474 32.3215H156.045V31.1688H149.474V32.3215ZM156.045 32.3215C157.723 32.3215 159.09 32.585 160.169 33.0841L160.653 32.0379C159.38 31.4492 157.837 31.1688 156.045 31.1688V32.3215ZM160.169 33.0841C161.235 33.5769 162.03 34.3212 162.572 35.3264L163.587 34.7791C162.924 33.5498 161.94 32.633 160.653 32.0379L160.169 33.0841ZM162.575 35.3315C163.131 36.3382 163.429 37.66 163.429 39.3306H164.582C164.582 37.5319 164.262 36.0017 163.584 34.774L162.575 35.3315ZM163.429 39.3306C163.429 40.9851 163.132 42.3087 162.574 43.3324L163.585 43.8844C164.262 42.6442 164.582 41.116 164.582 39.3306H163.429ZM162.572 43.3348C162.03 44.34 161.235 45.0843 160.169 45.577L160.653 46.6232C161.94 46.0282 162.924 45.1113 163.587 43.8821L162.572 43.3348ZM160.169 45.577C159.09 46.0761 157.723 46.3397 156.045 46.3397V47.4924C157.837 47.4924 159.38 47.212 160.653 46.6232L160.169 45.577ZM156.045 46.3397H149.474V47.4924H156.045V46.3397ZM154.347 43.854H155.957V42.7013H154.347V43.854ZM155.957 43.854C156.537 43.854 157.067 43.7737 157.531 43.5951L157.117 42.5192C156.817 42.6346 156.435 42.7013 155.957 42.7013V43.854ZM157.524 43.5976C157.998 43.4223 158.404 43.1599 158.724 42.802L157.865 42.0334C157.685 42.2341 157.445 42.398 157.124 42.5167L157.524 43.5976ZM158.724 42.802C159.04 42.4491 159.262 42.0231 159.4 41.5396L158.292 41.223C158.195 41.5627 158.049 41.8277 157.865 42.0334L158.724 42.802ZM159.4 41.5396C159.535 41.0674 159.599 40.5498 159.599 39.9921H158.446C158.446 40.4635 158.392 40.872 158.292 41.223L159.4 41.5396ZM159.599 39.9921V38.6691H158.446V39.9921H159.599ZM159.599 38.6691C159.599 38.1114 159.535 37.5938 159.4 37.1215L158.292 37.4382C158.392 37.7892 158.446 38.1977 158.446 38.6691H159.599ZM159.4 37.1215C159.262 36.6381 159.04 36.2121 158.724 35.8592L157.865 36.6278C158.049 36.8335 158.195 37.0984 158.292 37.4382L159.4 37.1215ZM158.724 35.8592C158.404 35.5013 157.998 35.2389 157.524 35.0636L157.124 36.1445C157.445 36.2632 157.685 36.4271 157.865 36.6278L158.724 35.8592ZM157.531 35.0661C157.067 34.8875 156.537 34.8072 155.957 34.8072V35.9599C156.435 35.9599 156.817 36.0266 157.117 36.1419L157.531 35.0661ZM155.957 34.8072H154.347V35.9599H155.957V34.8072ZM153.771 35.3835V43.2777H154.924V35.3835H153.771ZM166.637 46.916H166.06V47.4924H166.637V46.916ZM166.637 31.7452V31.1688H166.06V31.7452H166.637ZM171.51 31.7452H172.086V31.1688H171.51V31.7452ZM171.51 46.916V47.4924H172.086V46.916H171.51ZM167.213 46.916V31.7452H166.06V46.916H167.213ZM166.637 32.3215H171.51V31.1688H166.637V32.3215ZM170.934 31.7452V46.916H172.086V31.7452H170.934ZM171.51 46.3397H166.637V47.4924H171.51V46.3397ZM173.365 46.916L172.824 46.7185L172.542 47.4924H173.365V46.916ZM178.9 31.7452V31.1688H178.497L178.359 31.5476L178.9 31.7452ZM184.567 31.7452L185.108 31.5476L184.97 31.1688H184.567V31.7452ZM190.102 46.916V47.4924H190.926L190.643 46.7185L190.102 46.916ZM184.942 46.916L184.39 47.0811L184.513 47.4924H184.942V46.916ZM184.302 44.7771L184.855 44.612L184.732 44.2008H184.302V44.7771ZM178.988 44.7771V44.2008H178.559L178.436 44.612L178.988 44.7771ZM178.349 46.916V47.4924H178.778L178.901 47.0811L178.349 46.916ZM180.003 41.3813L179.451 41.2157L179.228 41.9576H180.003V41.3813ZM183.31 41.3813V41.9576H184.085L183.862 41.2157L183.31 41.3813ZM182.582 38.9557L183.135 38.7901L183.132 38.7818L183.129 38.7735L182.582 38.9557ZM182.164 37.5224L181.606 37.6691V37.6691L182.164 37.5224ZM181.943 36.7066L181.386 36.8532L181.388 36.8608L181.943 36.7066ZM181.745 35.9789L182.299 35.8206L182.179 35.4025H181.745V35.9789ZM181.568 35.9789V35.4025H181.106L181.006 35.8539L181.568 35.9789ZM181.326 36.883L180.774 36.7152L180.771 36.7263L180.768 36.7375L181.326 36.883ZM181.039 37.9414L181.592 38.1028L181.594 38.0968L181.039 37.9414ZM180.73 38.9557L180.181 38.781L180.178 38.7901L180.73 38.9557ZM173.907 47.1135L179.441 31.9427L178.359 31.5476L172.824 46.7185L173.907 47.1135ZM178.9 32.3215H184.567V31.1688H178.9V32.3215ZM184.026 31.9427L189.56 47.1135L190.643 46.7185L185.108 31.5476L184.026 31.9427ZM190.102 46.3397H184.942V47.4924H190.102V46.3397ZM185.494 46.7509L184.855 44.612L183.75 44.9422L184.39 47.0811L185.494 46.7509ZM184.302 44.2008H178.988V45.3534H184.302V44.2008ZM178.436 44.612L177.797 46.7509L178.901 47.0811L179.54 44.9422L178.436 44.612ZM178.349 46.3397H173.365V47.4924H178.349V46.3397ZM180.003 41.9576H183.31V40.805H180.003V41.9576ZM183.862 41.2157L183.135 38.7901L182.03 39.1213L182.758 41.5469L183.862 41.2157ZM183.129 38.7735C183.073 38.6056 183.009 38.3993 182.937 38.1536L181.831 38.4789C181.906 38.733 181.974 38.9531 182.036 39.138L183.129 38.7735ZM182.937 38.1536C182.865 37.9096 182.793 37.6503 182.721 37.3758L181.606 37.6691C181.681 37.9532 181.756 38.2231 181.831 38.4789L182.937 38.1536ZM182.721 37.3758C182.647 37.094 182.573 36.8196 182.498 36.5523L181.388 36.8608C181.46 37.1228 181.533 37.3922 181.606 37.6691L182.721 37.3758ZM182.5 36.5599C182.426 36.2779 182.359 36.0313 182.299 35.8206L181.19 36.1372C181.248 36.3381 181.313 36.5766 181.386 36.8532L182.5 36.5599ZM181.745 35.4025H181.568V36.5552H181.745V35.4025ZM181.006 35.8539C180.951 36.1005 180.874 36.3872 180.774 36.7152L181.877 37.0508C181.983 36.7025 182.068 36.3865 182.131 36.1039L181.006 35.8539ZM180.768 36.7375C180.681 37.072 180.586 37.4215 180.484 37.786L181.594 38.0968C181.698 37.7263 181.794 37.3702 181.883 37.0284L180.768 36.7375ZM180.486 37.78C180.384 38.1287 180.282 38.4624 180.181 38.781L181.279 39.1305C181.384 38.8023 181.488 38.4597 181.592 38.1028L180.486 37.78ZM180.178 38.7901L179.451 41.2157L180.555 41.5469L181.282 39.1213L180.178 38.7901Z" fill="#110002"/>
</svg>
