<svg width="80" height="28" viewBox="0 0 80 28" fill="none" xmlns="http://www.w3.org/2000/svg">
<path d="M40.0239 26.8306C61.7707 26.8306 79.3999 21.0483 79.3999 13.9153C79.3999 6.78238 61.7707 1 40.0239 1C18.2772 1 0.647949 6.78238 0.647949 13.9153C0.647949 21.0483 18.2772 26.8306 40.0239 26.8306Z" fill="#069154" stroke="#110002" stroke-width="0.484135" stroke-miterlimit="10"/>
<path d="M40.1815 23.6809C58.3618 23.6809 73.0998 19.3088 73.0998 13.9156C73.0998 8.52244 58.3618 4.15039 40.1815 4.15039C22.0012 4.15039 7.26318 8.52244 7.26318 13.9156C7.26318 19.3088 22.0012 23.6809 40.1815 23.6809Z" fill="#069154" stroke="#110002" stroke-width="0.484135" stroke-miterlimit="10"/>
<path d="M18.6857 16.0801L20.4292 11.3011H22.2143L23.9578 16.0801H22.3324L22.131 15.4063H20.4569L20.2555 16.0801H18.6857ZM20.7765 14.3366H21.8184L21.5892 13.5725C21.5706 13.517 21.5498 13.4498 21.5266 13.3711C21.5035 13.2924 21.4803 13.209 21.4572 13.121C21.434 13.033 21.4109 12.9474 21.3877 12.864C21.3646 12.776 21.3437 12.6996 21.3252 12.6348H21.2696C21.2511 12.7182 21.2256 12.8131 21.1932 12.9196C21.1654 13.0261 21.1353 13.1372 21.1029 13.253C21.0705 13.3641 21.0381 13.4706 21.0057 13.5725L20.7765 14.3366ZM24.5365 16.0801V11.3011H27.5303C27.8869 11.3011 28.1833 11.3729 28.4194 11.5165C28.6602 11.66 28.8408 11.8476 28.9612 12.0791C29.0816 12.3106 29.1418 12.5607 29.1418 12.8293C29.1418 13.1349 29.07 13.4081 28.9265 13.6489C28.7829 13.8851 28.5884 14.075 28.343 14.2185L29.2807 16.0801H27.5581L26.8288 14.4755H26.0716V16.0801H24.5365ZM26.0716 13.4128H27.1483C27.2687 13.4128 27.3706 13.3665 27.4539 13.2738C27.5373 13.1766 27.5789 13.0493 27.5789 12.8918C27.5789 12.7946 27.5604 12.7089 27.5234 12.6348C27.4863 12.5607 27.4354 12.5028 27.3706 12.4611C27.3057 12.4148 27.2316 12.3917 27.1483 12.3917H26.0716V13.4128ZM29.9429 16.0801V11.3011H31.4779V13.3433L33.1797 11.3011H35.083L33.3673 13.2669L35.1177 16.0801H33.3048L32.2906 14.2949L31.4779 15.0798V16.0801H29.9429ZM34.9385 16.0801L36.682 11.3011H38.4672L40.2106 16.0801H38.5852L38.3838 15.4063H36.7098L36.5084 16.0801H34.9385ZM37.0293 14.3366H38.0712L37.842 13.5725C37.8235 13.517 37.8027 13.4498 37.7795 13.3711C37.7563 13.2924 37.7332 13.209 37.71 13.121C37.6869 13.033 37.6637 12.9474 37.6406 12.864C37.6174 12.776 37.5966 12.6996 37.5781 12.6348H37.5225C37.504 12.7182 37.4785 12.8131 37.4461 12.9196C37.4183 13.0261 37.3882 13.1372 37.3558 13.253C37.3234 13.3641 37.291 13.4706 37.2585 13.5725L37.0293 14.3366ZM41.7424 16.0801L40.0475 11.3011H41.6868L42.3467 13.51C42.3652 13.5702 42.3907 13.6582 42.4231 13.774C42.4555 13.8897 42.4902 14.0124 42.5273 14.1421C42.569 14.2718 42.6037 14.3899 42.6315 14.4964H42.687C42.7148 14.3991 42.7472 14.288 42.7843 14.1629C42.8213 14.0379 42.8561 13.9175 42.8885 13.8017C42.9255 13.6813 42.9533 13.5841 42.9718 13.51L43.6387 11.3011H45.2085L43.5206 16.0801H41.7424ZM45.8498 16.0801V11.3011H47.3849V16.0801H45.8498ZM48.4139 16.0801V11.3011H50.4838C51.0302 11.3011 51.4887 11.3868 51.8591 11.5581C52.2296 11.7295 52.5098 11.9911 52.6996 12.3431C52.8941 12.695 52.9914 13.1442 52.9914 13.6906C52.9914 14.2324 52.8941 14.6816 52.6996 15.0382C52.5098 15.3901 52.2296 15.6517 51.8591 15.8231C51.4887 15.9944 51.0302 16.0801 50.4838 16.0801H48.4139ZM49.949 14.934H50.456C50.6227 14.934 50.7663 14.9108 50.8867 14.8645C51.0117 14.8182 51.1136 14.7511 51.1923 14.6631C51.271 14.5751 51.3289 14.4663 51.366 14.3366C51.403 14.2069 51.4215 14.0611 51.4215 13.899V13.4822C51.4215 13.3201 51.403 13.1743 51.366 13.0446C51.3289 12.915 51.271 12.8061 51.1923 12.7182C51.1136 12.6302 51.0117 12.563 50.8867 12.5167C50.7663 12.4704 50.6227 12.4473 50.456 12.4473H49.949V14.934ZM53.8202 16.0801V11.3011H55.3553V16.0801H53.8202ZM55.9397 16.0801L57.6832 11.3011H59.4683L61.2118 16.0801H59.5864L59.385 15.4063H57.711L57.5095 16.0801H55.9397ZM58.0305 14.3366H59.0724L58.8432 13.5725C58.8247 13.517 58.8038 13.4498 58.7807 13.3711C58.7575 13.2924 58.7344 13.209 58.7112 13.121C58.6881 13.033 58.6649 12.9474 58.6418 12.864C58.6186 12.776 58.5978 12.6996 58.5792 12.6348H58.5237C58.5052 12.7182 58.4797 12.8131 58.4473 12.9196C58.4195 13.0261 58.3894 13.1372 58.357 13.253C58.3246 13.3641 58.2921 13.4706 58.2597 13.5725L58.0305 14.3366Z" fill="#110002"/>
<path d="M18.6857 16.0801L18.5151 16.0179L18.4262 16.2616H18.6857V16.0801ZM20.4292 11.3011V11.1196H20.3021L20.2586 11.2389L20.4292 11.3011ZM22.2143 11.3011L22.3849 11.2389L22.3413 11.1196H22.2143V11.3011ZM23.9578 16.0801V16.2616H24.2173L24.1283 16.0179L23.9578 16.0801ZM22.3324 16.0801L22.1584 16.1321L22.1972 16.2616H22.3324V16.0801ZM22.131 15.4063L22.3049 15.3543L22.2662 15.2248H22.131V15.4063ZM20.4569 15.4063V15.2248H20.3217L20.283 15.3543L20.4569 15.4063ZM20.2555 16.0801V16.2616H20.3907L20.4294 16.1321L20.2555 16.0801ZM20.7765 14.3366L20.6026 14.2844L20.5324 14.5182H20.7765V14.3366ZM21.8184 14.3366V14.5182H22.0624L21.9923 14.2844L21.8184 14.3366ZM21.5892 13.5725L21.7631 13.5203L21.7614 13.5151L21.5892 13.5725ZM21.4572 13.121L21.2816 13.1672V13.1672L21.4572 13.121ZM21.3877 12.864L21.2121 12.9102L21.2128 12.9126L21.3877 12.864ZM21.3252 12.6348L21.4998 12.5849L21.4621 12.4532H21.3252V12.6348ZM21.2696 12.6348V12.4532H21.124L21.0924 12.5954L21.2696 12.6348ZM21.1932 12.9196L21.0194 12.8667L21.0176 12.8738L21.1932 12.9196ZM21.1029 13.253L21.2772 13.3038L21.2778 13.302L21.1029 13.253ZM21.0057 13.5725L20.8327 13.5175L20.8318 13.5204L21.0057 13.5725ZM18.8562 16.1423L20.5997 11.3634L20.2586 11.2389L18.5151 16.0179L18.8562 16.1423ZM20.4292 11.4827H22.2143V11.1196H20.4292V11.4827ZM22.0438 11.3634L23.7872 16.1423L24.1283 16.0179L22.3849 11.2389L22.0438 11.3634ZM23.9578 15.8985H22.3324V16.2616H23.9578V15.8985ZM22.5063 16.0281L22.3049 15.3543L21.957 15.4583L22.1584 16.1321L22.5063 16.0281ZM22.131 15.2248H20.4569V15.5879H22.131V15.2248ZM20.283 15.3543L20.0816 16.0281L20.4294 16.1321L20.6309 15.4583L20.283 15.3543ZM20.2555 15.8985H18.6857V16.2616H20.2555V15.8985ZM20.7765 14.5182H21.8184V14.155H20.7765V14.5182ZM21.9923 14.2844L21.763 13.5204L21.4153 13.6247L21.6445 14.3888L21.9923 14.2844ZM21.7614 13.5151C21.7438 13.4622 21.7236 13.3973 21.7008 13.3199L21.3525 13.4223C21.376 13.5024 21.3975 13.5717 21.4169 13.6299L21.7614 13.5151ZM21.7008 13.3199C21.6782 13.243 21.6555 13.1613 21.6328 13.0748L21.2816 13.1672C21.3052 13.2567 21.3288 13.3418 21.3525 13.4223L21.7008 13.3199ZM21.6328 13.0748C21.6094 12.9861 21.586 12.8996 21.5626 12.8154L21.2128 12.9126C21.2357 12.9951 21.2587 13.08 21.2816 13.1672L21.6328 13.0748ZM21.5633 12.8178C21.5399 12.729 21.5187 12.6513 21.4998 12.5849L21.1506 12.6847C21.1687 12.7479 21.1892 12.8231 21.2121 12.9102L21.5633 12.8178ZM21.3252 12.4532H21.2696V12.8163H21.3252V12.4532ZM21.0924 12.5954C21.0751 12.6731 21.051 12.7634 21.0195 12.8667L21.3669 12.9724C21.4003 12.8627 21.4271 12.7632 21.4469 12.6742L21.0924 12.5954ZM21.0176 12.8738C20.9901 12.9791 20.9602 13.0892 20.9281 13.2041L21.2778 13.302C21.3104 13.1852 21.3408 13.0731 21.3689 12.9654L21.0176 12.8738ZM20.9286 13.2022C20.8966 13.312 20.8646 13.4171 20.8327 13.5175L21.1787 13.6276C21.2116 13.5242 21.2444 13.4163 21.2772 13.3038L20.9286 13.2022ZM20.8318 13.5204L20.6026 14.2844L20.9504 14.3888L21.1796 13.6247L20.8318 13.5204ZM24.5365 16.0801H24.355V16.2616H24.5365V16.0801ZM24.5365 11.3011V11.1196H24.355V11.3011H24.5365ZM28.4194 11.5165L28.3251 11.6716L28.3265 11.6724L28.4194 11.5165ZM28.9612 12.0791L28.8001 12.1629V12.1629L28.9612 12.0791ZM28.9265 13.6489L29.0816 13.7432L29.0824 13.7419L28.9265 13.6489ZM28.343 14.2185L28.2514 14.0618L28.1042 14.1479L28.1809 14.3002L28.343 14.2185ZM29.2807 16.0801V16.2616H29.5755L29.4429 15.9984L29.2807 16.0801ZM27.5581 16.0801L27.3928 16.1552L27.4412 16.2616H27.5581V16.0801ZM26.8288 14.4755L26.994 14.4004L26.9457 14.294H26.8288V14.4755ZM26.0716 14.4755V14.294H25.8901V14.4755H26.0716ZM26.0716 16.0801V16.2616H26.2532V16.0801H26.0716ZM26.0716 13.4128H25.8901V13.5943H26.0716V13.4128ZM27.4539 13.2738L27.5889 13.3953L27.5918 13.392L27.4539 13.2738ZM27.5234 12.6348L27.361 12.716V12.716L27.5234 12.6348ZM27.3706 12.4611L27.2649 12.6091L27.2724 12.6139L27.3706 12.4611ZM26.0716 12.3917V12.2101H25.8901V12.3917H26.0716ZM24.7181 16.0801V11.3011H24.355V16.0801H24.7181ZM24.5365 11.4827H27.5303V11.1196H24.5365V11.4827ZM27.5303 11.4827C27.8631 11.4827 28.1245 11.5497 28.3251 11.6716L28.5137 11.3613C28.242 11.1962 27.9107 11.1196 27.5303 11.1196V11.4827ZM28.3265 11.6724C28.5405 11.8 28.6965 11.9635 28.8001 12.1629L29.1223 11.9953C28.9852 11.7317 28.7799 11.52 28.5124 11.3605L28.3265 11.6724ZM28.8001 12.1629C28.9067 12.3678 28.9603 12.589 28.9603 12.8293H29.3234C29.3234 12.5324 29.2566 12.2535 29.1223 11.9953L28.8001 12.1629ZM28.9603 12.8293C28.9603 13.1052 28.8958 13.3458 28.7705 13.556L29.0824 13.7419C29.2442 13.4705 29.3234 13.1646 29.3234 12.8293H28.9603ZM28.7714 13.5546C28.6439 13.7643 28.4716 13.933 28.2514 14.0618L28.4347 14.3752C28.7053 14.2169 28.922 14.0059 29.0816 13.7432L28.7714 13.5546ZM28.1809 14.3002L29.1186 16.1618L29.4429 15.9984L28.5052 14.1368L28.1809 14.3002ZM29.2807 15.8985H27.5581V16.2616H29.2807V15.8985ZM27.7234 16.005L26.994 14.4004L26.6635 14.5506L27.3928 16.1552L27.7234 16.005ZM26.8288 14.294H26.0716V14.6571H26.8288V14.294ZM25.8901 14.4755V16.0801H26.2532V14.4755H25.8901ZM26.0716 15.8985H24.5365V16.2616H26.0716V15.8985ZM26.0716 13.5943H27.1483V13.2312H26.0716V13.5943ZM27.1483 13.5943C27.3222 13.5943 27.4724 13.5246 27.5889 13.3953L27.319 13.1524C27.2687 13.2083 27.2152 13.2312 27.1483 13.2312V13.5943ZM27.5918 13.392C27.7094 13.2548 27.7605 13.0823 27.7605 12.8918H27.3974C27.3974 13.0162 27.3652 13.0984 27.3161 13.1557L27.5918 13.392ZM27.7605 12.8918C27.7605 12.7713 27.7374 12.6569 27.6858 12.5536L27.361 12.716C27.3834 12.7608 27.3974 12.8179 27.3974 12.8918H27.7605ZM27.6858 12.5536C27.6353 12.4526 27.5631 12.3691 27.4687 12.3084L27.2724 12.6139C27.3077 12.6366 27.3374 12.6688 27.361 12.716L27.6858 12.5536ZM27.4761 12.3134C27.379 12.2441 27.2676 12.2101 27.1483 12.2101V12.5732C27.1957 12.5732 27.2325 12.5856 27.265 12.6089L27.4761 12.3134ZM27.1483 12.2101H26.0716V12.5732H27.1483V12.2101ZM25.8901 12.3917V13.4128H26.2532V12.3917H25.8901ZM29.9429 16.0801H29.7613V16.2616H29.9429V16.0801ZM29.9429 11.3011V11.1196H29.7613V11.3011H29.9429ZM31.4779 11.3011H31.6595V11.1196H31.4779V11.3011ZM31.4779 13.3433H31.2964V13.8448L31.6174 13.4595L31.4779 13.3433ZM33.1797 11.3011V11.1196H33.0947L33.0403 11.1849L33.1797 11.3011ZM35.083 11.3011L35.2198 11.4205L35.4824 11.1196H35.083V11.3011ZM33.3673 13.2669L33.2305 13.1475L33.1422 13.2487L33.2131 13.3628L33.3673 13.2669ZM35.1177 16.0801V16.2616H35.4445L35.2719 15.9842L35.1177 16.0801ZM33.3048 16.0801L33.1469 16.1698L33.1991 16.2616H33.3048V16.0801ZM32.2906 14.2949L32.4485 14.2052L32.3329 14.0017L32.1645 14.1643L32.2906 14.2949ZM31.4779 15.0798L31.3518 14.9492L31.2964 15.0028V15.0798H31.4779ZM31.4779 16.0801V16.2616H31.6595V16.0801H31.4779ZM30.1244 16.0801V11.3011H29.7613V16.0801H30.1244ZM29.9429 11.4827H31.4779V11.1196H29.9429V11.4827ZM31.2964 11.3011V13.3433H31.6595V11.3011H31.2964ZM31.6174 13.4595L33.3192 11.4174L33.0403 11.1849L31.3385 13.2271L31.6174 13.4595ZM33.1797 11.4827H35.083V11.1196H33.1797V11.4827ZM34.9462 11.1818L33.2305 13.1475L33.5041 13.3863L35.2198 11.4205L34.9462 11.1818ZM33.2131 13.3628L34.9636 16.176L35.2719 15.9842L33.5214 13.171L33.2131 13.3628ZM35.1177 15.8985H33.3048V16.2616H35.1177V15.8985ZM33.4626 15.9904L32.4485 14.2052L32.1328 14.3846L33.1469 16.1698L33.4626 15.9904ZM32.1645 14.1643L31.3518 14.9492L31.6041 15.2104L32.4168 14.4255L32.1645 14.1643ZM31.2964 15.0798V16.0801H31.6595V15.0798H31.2964ZM31.4779 15.8985H29.9429V16.2616H31.4779V15.8985ZM34.9385 16.0801L34.768 16.0179L34.679 16.2616H34.9385V16.0801ZM36.682 11.3011V11.1196H36.555L36.5115 11.2389L36.682 11.3011ZM38.4672 11.3011L38.6377 11.2389L38.5942 11.1196H38.4672V11.3011ZM40.2106 16.0801V16.2616H40.4701L40.3812 16.0179L40.2106 16.0801ZM38.5852 16.0801L38.4113 16.1321L38.45 16.2616H38.5852V16.0801ZM38.3838 15.4063L38.5578 15.3543L38.519 15.2248H38.3838V15.4063ZM36.7098 15.4063V15.2248H36.5746L36.5358 15.3543L36.7098 15.4063ZM36.5084 16.0801V16.2616H36.6436L36.6823 16.1321L36.5084 16.0801ZM37.0293 14.3366L36.8554 14.2844L36.7853 14.5182H37.0293V14.3366ZM38.0712 14.3366V14.5182H38.3152L38.2451 14.2844L38.0712 14.3366ZM37.842 13.5725L38.016 13.5203L38.0142 13.5151L37.842 13.5725ZM37.71 13.121L37.5345 13.1672V13.1672L37.71 13.121ZM37.6406 12.864L37.465 12.9102L37.4656 12.9126L37.6406 12.864ZM37.5781 12.6348L37.7526 12.5849L37.715 12.4532H37.5781V12.6348ZM37.5225 12.6348V12.4532H37.3769L37.3453 12.5954L37.5225 12.6348ZM37.4461 12.9196L37.2723 12.8667L37.2704 12.8738L37.4461 12.9196ZM37.3558 13.253L37.5301 13.3038L37.5306 13.302L37.3558 13.253ZM37.2585 13.5725L37.0855 13.5175L37.0846 13.5204L37.2585 13.5725ZM35.1091 16.1423L36.8526 11.3634L36.5115 11.2389L34.768 16.0179L35.1091 16.1423ZM36.682 11.4827H38.4672V11.1196H36.682V11.4827ZM38.2966 11.3634L40.0401 16.1423L40.3812 16.0179L38.6377 11.2389L38.2966 11.3634ZM40.2106 15.8985H38.5852V16.2616H40.2106V15.8985ZM38.7592 16.0281L38.5578 15.3543L38.2099 15.4583L38.4113 16.1321L38.7592 16.0281ZM38.3838 15.2248H36.7098V15.5879H38.3838V15.2248ZM36.5358 15.3543L36.3344 16.0281L36.6823 16.1321L36.8837 15.4583L36.5358 15.3543ZM36.5084 15.8985H34.9385V16.2616H36.5084V15.8985ZM37.0293 14.5182H38.0712V14.155H37.0293V14.5182ZM38.2451 14.2844L38.0159 13.5204L37.6681 13.6247L37.8973 14.3888L38.2451 14.2844ZM38.0142 13.5151C37.9966 13.4622 37.9764 13.3973 37.9537 13.3199L37.6053 13.4223C37.6289 13.5024 37.6504 13.5717 37.6698 13.6299L38.0142 13.5151ZM37.9537 13.3199C37.9311 13.243 37.9084 13.1613 37.8856 13.0748L37.5345 13.1672C37.558 13.2567 37.5816 13.3418 37.6053 13.4223L37.9537 13.3199ZM37.8856 13.0748C37.8623 12.9861 37.8389 12.8996 37.8155 12.8154L37.4656 12.9126C37.4886 12.9951 37.5115 13.08 37.5345 13.1672L37.8856 13.0748ZM37.8161 12.8178C37.7928 12.729 37.7716 12.6513 37.7526 12.5849L37.4035 12.6847C37.4216 12.7479 37.4421 12.8231 37.465 12.9102L37.8161 12.8178ZM37.5781 12.4532H37.5225V12.8163H37.5781V12.4532ZM37.3453 12.5954C37.328 12.6731 37.3038 12.7634 37.2724 12.8667L37.6198 12.9724C37.6532 12.8627 37.6799 12.7632 37.6997 12.6742L37.3453 12.5954ZM37.2704 12.8738C37.2429 12.9791 37.2131 13.0892 37.181 13.2041L37.5306 13.302C37.5633 13.1852 37.5937 13.0731 37.6218 12.9654L37.2704 12.8738ZM37.1815 13.2022C37.1495 13.312 37.1175 13.4171 37.0855 13.5175L37.4315 13.6276C37.4644 13.5242 37.4973 13.4163 37.5301 13.3038L37.1815 13.2022ZM37.0846 13.5204L36.8554 14.2844L37.2032 14.3888L37.4324 13.6247L37.0846 13.5204ZM41.7424 16.0801L41.5713 16.1408L41.6141 16.2616H41.7424V16.0801ZM40.0475 11.3011V11.1196H39.7905L39.8764 11.3618L40.0475 11.3011ZM41.6868 11.3011L41.8608 11.2492L41.822 11.1196H41.6868V11.3011ZM42.3467 13.51L42.1727 13.562L42.1732 13.5634L42.3467 13.51ZM42.5273 14.1421L42.3526 14.192L42.3544 14.1977L42.5273 14.1421ZM42.6315 14.4964L42.4558 14.5422L42.4912 14.6779H42.6315V14.4964ZM42.687 14.4964V14.6779H42.824L42.8616 14.5462L42.687 14.4964ZM42.7843 14.1629L42.6102 14.1114V14.1114L42.7843 14.1629ZM42.8885 13.8017L42.7149 13.7483L42.7137 13.7528L42.8885 13.8017ZM42.9718 13.51L42.7978 13.4575L42.7957 13.466L42.9718 13.51ZM43.6387 11.3011V11.1196H43.5038L43.4649 11.2487L43.6387 11.3011ZM45.2085 11.3011L45.3797 11.3616L45.4652 11.1196H45.2085V11.3011ZM43.5206 16.0801V16.2616H43.649L43.6918 16.1405L43.5206 16.0801ZM41.9135 16.0194L40.2186 11.2405L39.8764 11.3618L41.5713 16.1408L41.9135 16.0194ZM40.0475 11.4827H41.6868V11.1196H40.0475V11.4827ZM41.5128 11.3531L42.1727 13.562L42.5206 13.458L41.8608 11.2492L41.5128 11.3531ZM42.1732 13.5634C42.191 13.6213 42.216 13.7076 42.2483 13.8229L42.5979 13.725C42.5654 13.6088 42.5394 13.5191 42.5202 13.4566L42.1732 13.5634ZM42.2483 13.8229C42.2808 13.939 42.3156 14.0621 42.3527 14.192L42.7018 14.0922C42.6649 13.9628 42.6302 13.8404 42.5979 13.725L42.2483 13.8229ZM42.3544 14.1977C42.3953 14.3248 42.429 14.4396 42.4558 14.5422L42.8071 14.4505C42.7783 14.3401 42.7426 14.2187 42.7001 14.0866L42.3544 14.1977ZM42.6315 14.6779H42.687V14.3148H42.6315V14.6779ZM42.8616 14.5462C42.8892 14.4497 42.9214 14.3391 42.9584 14.2145L42.6102 14.1114C42.5731 14.2368 42.5405 14.3485 42.5125 14.4465L42.8616 14.5462ZM42.9584 14.2145C42.9956 14.0887 43.0306 13.9674 43.0633 13.8507L42.7137 13.7528C42.6815 13.8676 42.647 13.9871 42.6102 14.1114L42.9584 14.2145ZM43.062 13.8551C43.0995 13.7333 43.1283 13.6326 43.148 13.554L42.7957 13.466C42.7783 13.5356 42.7516 13.6293 42.715 13.7484L43.062 13.8551ZM43.1456 13.5625L43.8125 11.3536L43.4649 11.2487L42.798 13.4575L43.1456 13.5625ZM43.6387 11.4827H45.2085V11.1196H43.6387V11.4827ZM45.0373 11.2407L43.3494 16.0196L43.6918 16.1405L45.3797 11.3616L45.0373 11.2407ZM43.5206 15.8985H41.7424V16.2616H43.5206V15.8985ZM45.8498 16.0801H45.6682V16.2616H45.8498V16.0801ZM45.8498 11.3011V11.1196H45.6682V11.3011H45.8498ZM47.3849 11.3011H47.5664V11.1196H47.3849V11.3011ZM47.3849 16.0801V16.2616H47.5664V16.0801H47.3849ZM46.0313 16.0801V11.3011H45.6682V16.0801H46.0313ZM45.8498 11.4827H47.3849V11.1196H45.8498V11.4827ZM47.2033 11.3011V16.0801H47.5664V11.3011H47.2033ZM47.3849 15.8985H45.8498V16.2616H47.3849V15.8985ZM48.4139 16.0801H48.2323V16.2616H48.4139V16.0801ZM48.4139 11.3011V11.1196H48.2323V11.3011H48.4139ZM51.8591 11.5581L51.9353 11.3934L51.8591 11.5581ZM52.6996 12.3431L52.5398 12.4293L52.5407 12.4309L52.6996 12.3431ZM52.6996 15.0382L52.5402 14.9512L52.5398 14.952L52.6996 15.0382ZM51.8591 15.8231L51.9353 15.9879L51.8591 15.8231ZM49.949 14.934H49.7674V15.1155H49.949V14.934ZM50.8867 14.8645L50.8236 14.6942L50.8215 14.6951L50.8867 14.8645ZM51.1923 14.6631L51.3276 14.7841L51.1923 14.6631ZM51.366 14.3366L51.1914 14.2867L51.366 14.3366ZM51.366 13.0446L51.1914 13.0945V13.0945L51.366 13.0446ZM51.1923 12.7182L51.3276 12.5971V12.5971L51.1923 12.7182ZM50.8867 12.5167L50.8215 12.6862L50.8236 12.687L50.8867 12.5167ZM49.949 12.4473V12.2657H49.7674V12.4473H49.949ZM48.5954 16.0801V11.3011H48.2323V16.0801H48.5954ZM48.4139 11.4827H50.4838V11.1196H48.4139V11.4827ZM50.4838 11.4827C51.0124 11.4827 51.443 11.5657 51.7829 11.7229L51.9353 11.3934C51.5344 11.2079 51.0481 11.1196 50.4838 11.1196V11.4827ZM51.7829 11.7229C52.1186 11.8782 52.369 12.1126 52.5398 12.4293L52.8594 12.2569C52.6505 11.8696 52.3406 11.5808 51.9353 11.3934L51.7829 11.7229ZM52.5407 12.4309C52.716 12.748 52.8098 13.1643 52.8098 13.6906H53.1729C53.1729 13.124 53.0723 12.642 52.8585 12.2552L52.5407 12.4309ZM52.8098 13.6906C52.8098 14.2118 52.7161 14.6287 52.5402 14.9512L52.859 15.1251C53.0721 14.7344 53.1729 14.253 53.1729 13.6906H52.8098ZM52.5398 14.952C52.369 15.2686 52.1186 15.5031 51.7829 15.6583L51.9353 15.9879C52.3406 15.8004 52.6505 15.5116 52.8594 15.1244L52.5398 14.952ZM51.7829 15.6583C51.443 15.8155 51.0124 15.8985 50.4838 15.8985V16.2616C51.0481 16.2616 51.5344 16.1733 51.9353 15.9879L51.7829 15.6583ZM50.4838 15.8985H48.4139V16.2616H50.4838V15.8985ZM49.949 15.1155H50.456V14.7524H49.949V15.1155ZM50.456 15.1155C50.6388 15.1155 50.8056 15.0902 50.9519 15.034L50.8215 14.6951C50.727 14.7314 50.6066 14.7524 50.456 14.7524V15.1155ZM50.9497 15.0348C51.0989 14.9795 51.2267 14.8969 51.3276 14.7841L51.057 14.542C51.0004 14.6052 50.9246 14.6569 50.8236 14.6943L50.9497 15.0348ZM51.3276 14.7841C51.4271 14.673 51.497 14.5388 51.5405 14.3865L51.1914 14.2867C51.1608 14.3938 51.115 14.4772 51.057 14.542L51.3276 14.7841ZM51.5405 14.3865C51.583 14.2377 51.6031 14.0747 51.6031 13.899H51.24C51.24 14.0475 51.223 14.1762 51.1914 14.2867L51.5405 14.3865ZM51.6031 13.899V13.4822H51.24V13.899H51.6031ZM51.6031 13.4822C51.6031 13.3066 51.583 13.1435 51.5405 12.9947L51.1914 13.0945C51.223 13.2051 51.24 13.3337 51.24 13.4822H51.6031ZM51.5405 12.9947C51.497 12.8425 51.4271 12.7083 51.3276 12.5971L51.057 12.8392C51.115 12.904 51.1608 12.9875 51.1914 13.0945L51.5405 12.9947ZM51.3276 12.5971C51.2267 12.4844 51.0989 12.4017 50.9497 12.3465L50.8236 12.687C50.9246 12.7243 51.0004 12.776 51.057 12.8392L51.3276 12.5971ZM50.9519 12.3473C50.8056 12.291 50.6388 12.2657 50.456 12.2657V12.6288C50.6066 12.6288 50.727 12.6498 50.8215 12.6862L50.9519 12.3473ZM50.456 12.2657H49.949V12.6288H50.456V12.2657ZM49.7674 12.4473V14.934H50.1305V12.4473H49.7674ZM53.8202 16.0801H53.6386V16.2616H53.8202V16.0801ZM53.8202 11.3011V11.1196H53.6386V11.3011H53.8202ZM55.3553 11.3011H55.5368V11.1196H55.3553V11.3011ZM55.3553 16.0801V16.2616H55.5368V16.0801H55.3553ZM54.0017 16.0801V11.3011H53.6386V16.0801H54.0017ZM53.8202 11.4827H55.3553V11.1196H53.8202V11.4827ZM55.1737 11.3011V16.0801H55.5368V11.3011H55.1737ZM55.3553 15.8985H53.8202V16.2616H55.3553V15.8985ZM55.9397 16.0801L55.7692 16.0179L55.6802 16.2616H55.9397V16.0801ZM57.6832 11.3011V11.1196H57.5562L57.5126 11.2389L57.6832 11.3011ZM59.4683 11.3011L59.6389 11.2389L59.5954 11.1196H59.4683V11.3011ZM61.2118 16.0801V16.2616H61.4713L61.3824 16.0179L61.2118 16.0801ZM59.5864 16.0801L59.4125 16.1321L59.4512 16.2616H59.5864V16.0801ZM59.385 15.4063L59.5589 15.3543L59.5202 15.2248H59.385V15.4063ZM57.711 15.4063V15.2248H57.5758L57.537 15.3543L57.711 15.4063ZM57.5095 16.0801V16.2616H57.6448L57.6835 16.1321L57.5095 16.0801ZM58.0305 14.3366L57.8566 14.2844L57.7865 14.5182H58.0305V14.3366ZM59.0724 14.3366V14.5182H59.3164L59.2463 14.2844L59.0724 14.3366ZM58.8432 13.5725L59.0172 13.5203L59.0154 13.5151L58.8432 13.5725ZM58.7112 13.121L58.5356 13.1672V13.1672L58.7112 13.121ZM58.6418 12.864L58.4662 12.9102L58.4668 12.9126L58.6418 12.864ZM58.5792 12.6348L58.7538 12.5849L58.7162 12.4532H58.5792V12.6348ZM58.5237 12.6348V12.4532H58.378L58.3464 12.5954L58.5237 12.6348ZM58.4473 12.9196L58.2734 12.8667L58.2716 12.8738L58.4473 12.9196ZM58.357 13.253L58.5313 13.3038L58.5318 13.302L58.357 13.253ZM58.2597 13.5725L58.0867 13.5175L58.0858 13.5204L58.2597 13.5725ZM56.1103 16.1423L57.8537 11.3634L57.5126 11.2389L55.7692 16.0179L56.1103 16.1423ZM57.6832 11.4827H59.4683V11.1196H57.6832V11.4827ZM59.2978 11.3634L61.0413 16.1423L61.3824 16.0179L59.6389 11.2389L59.2978 11.3634ZM61.2118 15.8985H59.5864V16.2616H61.2118V15.8985ZM59.7604 16.0281L59.5589 15.3543L59.2111 15.4583L59.4125 16.1321L59.7604 16.0281ZM59.385 15.2248H57.711V15.5879H59.385V15.2248ZM57.537 15.3543L57.3356 16.0281L57.6835 16.1321L57.8849 15.4583L57.537 15.3543ZM57.5095 15.8985H55.9397V16.2616H57.5095V15.8985ZM58.0305 14.5182H59.0724V14.155H58.0305V14.5182ZM59.2463 14.2844L59.0171 13.5204L58.6693 13.6247L58.8985 14.3888L59.2463 14.2844ZM59.0154 13.5151C58.9978 13.4622 58.9776 13.3973 58.9549 13.3199L58.6065 13.4223C58.6301 13.5024 58.6516 13.5717 58.671 13.6299L59.0154 13.5151ZM58.9549 13.3199C58.9322 13.243 58.9096 13.1613 58.8868 13.0748L58.5356 13.1672C58.5592 13.2567 58.5828 13.3418 58.6065 13.4223L58.9549 13.3199ZM58.8868 13.0748C58.8634 12.9861 58.8401 12.8996 58.8167 12.8154L58.4668 12.9126C58.4898 12.9951 58.5127 13.08 58.5356 13.1672L58.8868 13.0748ZM58.8173 12.8178C58.794 12.729 58.7728 12.6513 58.7538 12.5849L58.4047 12.6847C58.4228 12.7479 58.4433 12.8231 58.4662 12.9102L58.8173 12.8178ZM58.5792 12.4532H58.5237V12.8163H58.5792V12.4532ZM58.3464 12.5954C58.3292 12.6731 58.305 12.7634 58.2736 12.8667L58.621 12.9724C58.6543 12.8627 58.6811 12.7632 58.7009 12.6742L58.3464 12.5954ZM58.2716 12.8738C58.2441 12.9791 58.2143 13.0892 58.1821 13.2041L58.5318 13.302C58.5645 13.1852 58.5949 13.0731 58.6229 12.9654L58.2716 12.8738ZM58.1827 13.2022C58.1506 13.312 58.1187 13.4171 58.0867 13.5175L58.4327 13.6276C58.4656 13.5242 58.4985 13.4163 58.5313 13.3038L58.1827 13.2022ZM58.0858 13.5204L57.8566 14.2844L58.2044 14.3888L58.4336 13.6247L58.0858 13.5204Z" fill="#110002"/>
<path d="M17.6906 15.4805L19.434 10.7015H21.2192L22.9627 15.4805H21.3373L21.1358 14.8067H19.4618L19.2604 15.4805H17.6906ZM19.7813 13.737H20.8233L20.594 12.9729C20.5755 12.9173 20.5547 12.8502 20.5315 12.7715C20.5084 12.6928 20.4852 12.6094 20.4621 12.5214C20.4389 12.4334 20.4158 12.3478 20.3926 12.2644C20.3694 12.1764 20.3486 12.1 20.3301 12.0352H20.2745C20.256 12.1185 20.2305 12.2135 20.1981 12.32C20.1703 12.4265 20.1402 12.5376 20.1078 12.6534C20.0754 12.7645 20.043 12.871 20.0106 12.9729L19.7813 13.737ZM23.5414 15.4805V10.7015H26.5352C26.8918 10.7015 27.1881 10.7733 27.4243 10.9169C27.6651 11.0604 27.8457 11.248 27.9661 11.4795C28.0865 11.711 28.1467 11.9611 28.1467 12.2297C28.1467 12.5353 28.0749 12.8085 27.9314 13.0493C27.7878 13.2855 27.5933 13.4754 27.3479 13.6189L28.2856 15.4805H26.563L25.8336 13.8759H25.0765V15.4805H23.5414ZM25.0765 12.8132H26.1532C26.2736 12.8132 26.3754 12.7668 26.4588 12.6742C26.5421 12.577 26.5838 12.4496 26.5838 12.2922C26.5838 12.1949 26.5653 12.1093 26.5283 12.0352C26.4912 11.9611 26.4403 11.9032 26.3754 11.8615C26.3106 11.8152 26.2365 11.7921 26.1532 11.7921H25.0765V12.8132ZM28.9477 15.4805V10.7015H30.4828V12.7437L32.1846 10.7015H34.0879L32.3722 12.6673L34.1226 15.4805H32.3097L31.2955 13.6953L30.4828 14.4802V15.4805H28.9477ZM33.9434 15.4805L35.6869 10.7015H37.472L39.2155 15.4805H37.5901L37.3887 14.8067H35.7147L35.5132 15.4805H33.9434ZM36.0342 13.737H37.0761L36.8469 12.9729C36.8284 12.9173 36.8075 12.8502 36.7844 12.7715C36.7612 12.6928 36.7381 12.6094 36.7149 12.5214C36.6918 12.4334 36.6686 12.3478 36.6455 12.2644C36.6223 12.1764 36.6015 12.1 36.5829 12.0352H36.5274C36.5088 12.1185 36.4834 12.2135 36.451 12.32C36.4232 12.4265 36.3931 12.5376 36.3607 12.6534C36.3283 12.7645 36.2958 12.871 36.2634 12.9729L36.0342 13.737ZM40.7473 15.4805L39.0524 10.7015H40.6917L41.3516 12.9104C41.3701 12.9706 41.3956 13.0586 41.428 13.1744C41.4604 13.2901 41.4951 13.4128 41.5322 13.5425C41.5738 13.6722 41.6086 13.7902 41.6364 13.8968H41.6919C41.7197 13.7995 41.7521 13.6884 41.7892 13.5633C41.8262 13.4383 41.861 13.3179 41.8934 13.2021C41.9304 13.0817 41.9582 12.9845 41.9767 12.9104L42.6435 10.7015H44.2134L42.5255 15.4805H40.7473ZM44.8546 15.4805V10.7015H46.3897V15.4805H44.8546ZM47.4187 15.4805V10.7015H49.4887C50.0351 10.7015 50.4936 10.7872 50.864 10.9585C51.2345 11.1299 51.5146 11.3915 51.7045 11.7435C51.899 12.0954 51.9962 12.5446 51.9962 13.091C51.9962 13.6328 51.899 14.082 51.7045 14.4385C51.5146 14.7905 51.2345 15.0521 50.864 15.2235C50.4936 15.3948 50.0351 15.4805 49.4887 15.4805H47.4187ZM48.9538 14.3344H49.4609C49.6276 14.3344 49.7712 14.3112 49.8916 14.2649C50.0166 14.2186 50.1185 14.1514 50.1972 14.0635C50.2759 13.9755 50.3338 13.8667 50.3708 13.737C50.4079 13.6073 50.4264 13.4615 50.4264 13.2994V12.8826C50.4264 12.7205 50.4079 12.5747 50.3708 12.445C50.3338 12.3153 50.2759 12.2065 50.1972 12.1185C50.1185 12.0306 50.0166 11.9634 49.8916 11.9171C49.7712 11.8708 49.6276 11.8476 49.4609 11.8476H48.9538V14.3344ZM52.8251 15.4805V10.7015H54.3601V15.4805H52.8251ZM54.9446 15.4805L56.6881 10.7015H58.4732L60.2167 15.4805H58.5913L58.3899 14.8067H56.7159L56.5144 15.4805H54.9446ZM57.0354 13.737H58.0773L57.8481 12.9729C57.8296 12.9173 57.8087 12.8502 57.7856 12.7715C57.7624 12.6928 57.7393 12.6094 57.7161 12.5214C57.693 12.4334 57.6698 12.3478 57.6466 12.2644C57.6235 12.1764 57.6027 12.1 57.5841 12.0352H57.5286C57.51 12.1185 57.4846 12.2135 57.4522 12.32C57.4244 12.4265 57.3943 12.5376 57.3619 12.6534C57.3294 12.7645 57.297 12.871 57.2646 12.9729L57.0354 13.737Z" fill="#FFEADF"/>
<path d="M17.6906 15.4805L17.52 15.4182L17.4311 15.662H17.6906V15.4805ZM19.434 10.7015V10.52H19.307L19.2635 10.6393L19.434 10.7015ZM21.2192 10.7015L21.3897 10.6393L21.3462 10.52H21.2192V10.7015ZM22.9627 15.4805V15.662H23.2222L23.1332 15.4182L22.9627 15.4805ZM21.3373 15.4805L21.1633 15.5325L21.2021 15.662H21.3373V15.4805ZM21.1358 14.8067L21.3098 14.7547L21.271 14.6251H21.1358V14.8067ZM19.4618 14.8067V14.6251H19.3266L19.2879 14.7547L19.4618 14.8067ZM19.2604 15.4805V15.662H19.3956L19.4343 15.5325L19.2604 15.4805ZM19.7813 13.737L19.6074 13.6848L19.5373 13.9185H19.7813V13.737ZM20.8233 13.737V13.9185H21.0673L20.9972 13.6848L20.8233 13.737ZM20.594 12.9729L20.768 12.9207L20.7663 12.9155L20.594 12.9729ZM20.4621 12.5214L20.2865 12.5676V12.5676L20.4621 12.5214ZM20.3926 12.2644L20.217 12.3106L20.2177 12.313L20.3926 12.2644ZM20.3301 12.0352L20.5046 11.9853L20.467 11.8536H20.3301V12.0352ZM20.2745 12.0352V11.8536H20.1289L20.0973 11.9958L20.2745 12.0352ZM20.1981 12.32L20.0243 12.2671L20.0224 12.2742L20.1981 12.32ZM20.1078 12.6534L20.2821 12.7042L20.2826 12.7023L20.1078 12.6534ZM20.0106 12.9729L19.8375 12.9179L19.8367 12.9207L20.0106 12.9729ZM17.8611 15.5427L19.6046 10.7638L19.2635 10.6393L17.52 15.4182L17.8611 15.5427ZM19.434 10.8831H21.2192V10.52H19.434V10.8831ZM21.0486 10.7638L22.7921 15.5427L23.1332 15.4182L21.3897 10.6393L21.0486 10.7638ZM22.9627 15.2989H21.3373V15.662H22.9627V15.2989ZM21.5112 15.4285L21.3098 14.7547L20.9619 14.8587L21.1633 15.5325L21.5112 15.4285ZM21.1358 14.6251H19.4618V14.9882H21.1358V14.6251ZM19.2879 14.7547L19.0864 15.4285L19.4343 15.5325L19.6358 14.8587L19.2879 14.7547ZM19.2604 15.2989H17.6906V15.662H19.2604V15.2989ZM19.7813 13.9185H20.8233V13.5554H19.7813V13.9185ZM20.9972 13.6848L20.7679 12.9207L20.4201 13.0251L20.6494 13.7892L20.9972 13.6848ZM20.7663 12.9155C20.7486 12.8626 20.7285 12.7977 20.7057 12.7203L20.3573 12.8227C20.3809 12.9028 20.4024 12.9721 20.4218 13.0303L20.7663 12.9155ZM20.7057 12.7203C20.6831 12.6434 20.6604 12.5617 20.6376 12.4752L20.2865 12.5676C20.31 12.6571 20.3337 12.7421 20.3573 12.8227L20.7057 12.7203ZM20.6376 12.4752C20.6143 12.3865 20.5909 12.3 20.5675 12.2158L20.2177 12.313C20.2406 12.3955 20.2635 12.4804 20.2865 12.5676L20.6376 12.4752ZM20.5682 12.2182C20.5448 12.1294 20.5236 12.0517 20.5046 11.9853L20.1555 12.0851C20.1736 12.1483 20.1941 12.2235 20.217 12.3106L20.5682 12.2182ZM20.3301 11.8536H20.2745V12.2167H20.3301V11.8536ZM20.0973 11.9958C20.08 12.0735 20.0559 12.1638 20.0244 12.2671L20.3718 12.3728C20.4052 12.2631 20.432 12.1636 20.4517 12.0746L20.0973 11.9958ZM20.0224 12.2742C19.9949 12.3795 19.9651 12.4896 19.933 12.6044L20.2826 12.7023C20.3153 12.5856 20.3457 12.4734 20.3738 12.3658L20.0224 12.2742ZM19.9335 12.6026C19.9015 12.7124 19.8695 12.8175 19.8376 12.9179L20.1836 13.028C20.2165 12.9246 20.2493 12.8167 20.2821 12.7042L19.9335 12.6026ZM19.8367 12.9207L19.6074 13.6848L19.9552 13.7892L20.1845 13.0251L19.8367 12.9207ZM23.5414 15.4805H23.3599V15.662H23.5414V15.4805ZM23.5414 10.7015V10.52H23.3599V10.7015H23.5414ZM27.4243 10.9169L27.33 11.072L27.3313 11.0728L27.4243 10.9169ZM27.9661 11.4795L27.805 11.5633V11.5633L27.9661 11.4795ZM27.9314 13.0493L28.0865 13.1436L28.0873 13.1423L27.9314 13.0493ZM27.3479 13.6189L27.2562 13.4622L27.109 13.5483L27.1858 13.7006L27.3479 13.6189ZM28.2856 15.4805V15.662H28.5804L28.4478 15.3988L28.2856 15.4805ZM26.563 15.4805L26.3977 15.5556L26.4461 15.662H26.563V15.4805ZM25.8336 13.8759L25.9989 13.8008L25.9505 13.6944H25.8336V13.8759ZM25.0765 13.8759V13.6944H24.895V13.8759H25.0765ZM25.0765 15.4805V15.662H25.2581V15.4805H25.0765ZM25.0765 12.8132H24.895V12.9947H25.0765V12.8132ZM26.4588 12.6742L26.5938 12.7957L26.5966 12.7924L26.4588 12.6742ZM26.5283 12.0352L26.3659 12.1164V12.1164L26.5283 12.0352ZM26.3754 11.8615L26.2698 12.0094L26.2773 12.0143L26.3754 11.8615ZM25.0765 11.7921V11.6105H24.895V11.7921H25.0765ZM23.723 15.4805V10.7015H23.3599V15.4805H23.723ZM23.5414 10.8831H26.5352V10.52H23.5414V10.8831ZM26.5352 10.8831C26.868 10.8831 27.1294 10.9501 27.33 11.072L27.5186 10.7617C27.2469 10.5966 26.9156 10.52 26.5352 10.52V10.8831ZM27.3313 11.0728C27.5454 11.2004 27.7013 11.3639 27.805 11.5633L28.1272 11.3957C27.9901 11.1321 27.7848 10.9204 27.5173 10.7609L27.3313 11.0728ZM27.805 11.5633C27.9116 11.7682 27.9652 11.9894 27.9652 12.2297H28.3283C28.3283 11.9328 28.2614 11.6539 28.1272 11.3957L27.805 11.5633ZM27.9652 12.2297C27.9652 12.5056 27.9007 12.7462 27.7754 12.9564L28.0873 13.1423C28.2491 12.8709 28.3283 12.565 28.3283 12.2297H27.9652ZM27.7762 12.955C27.6488 13.1647 27.4764 13.3334 27.2562 13.4622L27.4396 13.7756C27.7102 13.6173 27.9268 13.4063 28.0865 13.1436L27.7762 12.955ZM27.1858 13.7006L28.1235 15.5621L28.4478 15.3988L27.51 13.5372L27.1858 13.7006ZM28.2856 15.2989H26.563V15.662H28.2856V15.2989ZM26.7283 15.4053L25.9989 13.8008L25.6684 13.951L26.3977 15.5556L26.7283 15.4053ZM25.8336 13.6944H25.0765V14.0575H25.8336V13.6944ZM24.895 13.8759V15.4805H25.2581V13.8759H24.895ZM25.0765 15.2989H23.5414V15.662H25.0765V15.2989ZM25.0765 12.9947H26.1532V12.6316H25.0765V12.9947ZM26.1532 12.9947C26.327 12.9947 26.4773 12.925 26.5937 12.7957L26.3238 12.5528C26.2736 12.6087 26.2201 12.6316 26.1532 12.6316V12.9947ZM26.5966 12.7924C26.7143 12.6552 26.7654 12.4827 26.7654 12.2922H26.4023C26.4023 12.4166 26.37 12.4988 26.321 12.5561L26.5966 12.7924ZM26.7654 12.2922C26.7654 12.1716 26.7423 12.0573 26.6906 11.954L26.3659 12.1164C26.3883 12.1612 26.4023 12.2182 26.4023 12.2922H26.7654ZM26.6906 11.954C26.6401 11.853 26.5679 11.7695 26.4736 11.7088L26.2773 12.0143C26.3126 12.037 26.3423 12.0692 26.3659 12.1164L26.6906 11.954ZM26.481 11.7138C26.3839 11.6444 26.2725 11.6105 26.1532 11.6105V11.9736C26.2005 11.9736 26.2374 11.986 26.2699 12.0093L26.481 11.7138ZM26.1532 11.6105H25.0765V11.9736H26.1532V11.6105ZM24.895 11.7921V12.8132H25.2581V11.7921H24.895ZM28.9477 15.4805H28.7662V15.662H28.9477V15.4805ZM28.9477 10.7015V10.52H28.7662V10.7015H28.9477ZM30.4828 10.7015H30.6644V10.52H30.4828V10.7015ZM30.4828 12.7437H30.3013V13.2451L30.6223 12.8599L30.4828 12.7437ZM32.1846 10.7015V10.52H32.0996L32.0452 10.5853L32.1846 10.7015ZM34.0879 10.7015L34.2246 10.8209L34.4873 10.52H34.0879V10.7015ZM32.3722 12.6673L32.2354 12.5479L32.1471 12.6491L32.218 12.7632L32.3722 12.6673ZM34.1226 15.4805V15.662H34.4494L34.2767 15.3846L34.1226 15.4805ZM32.3097 15.4805L32.1518 15.5701L32.204 15.662H32.3097V15.4805ZM31.2955 13.6953L31.4534 13.6056L31.3378 13.4021L31.1694 13.5647L31.2955 13.6953ZM30.4828 14.4802L30.3567 14.3496L30.3013 14.4032V14.4802H30.4828ZM30.4828 15.4805V15.662H30.6644V15.4805H30.4828ZM29.1293 15.4805V10.7015H28.7662V15.4805H29.1293ZM28.9477 10.8831H30.4828V10.52H28.9477V10.8831ZM30.3013 10.7015V12.7437H30.6644V10.7015H30.3013ZM30.6223 12.8599L32.3241 10.8178L32.0452 10.5853L30.3434 12.6275L30.6223 12.8599ZM32.1846 10.8831H34.0879V10.52H32.1846V10.8831ZM33.9511 10.5822L32.2354 12.5479L32.509 12.7867L34.2246 10.8209L33.9511 10.5822ZM32.218 12.7632L33.9685 15.5764L34.2767 15.3846L32.5263 12.5714L32.218 12.7632ZM34.1226 15.2989H32.3097V15.662H34.1226V15.2989ZM32.4675 15.3908L31.4534 13.6056L31.1377 13.785L32.1518 15.5701L32.4675 15.3908ZM31.1694 13.5647L30.3567 14.3496L30.609 14.6108L31.4216 13.8259L31.1694 13.5647ZM30.3013 14.4802V15.4805H30.6644V14.4802H30.3013ZM30.4828 15.2989H28.9477V15.662H30.4828V15.2989ZM33.9434 15.4805L33.7729 15.4182L33.6839 15.662H33.9434V15.4805ZM35.6869 10.7015V10.52H35.5599L35.5163 10.6393L35.6869 10.7015ZM37.472 10.7015L37.6426 10.6393L37.5991 10.52H37.472V10.7015ZM39.2155 15.4805V15.662H39.475L39.3861 15.4182L39.2155 15.4805ZM37.5901 15.4805L37.4162 15.5325L37.4549 15.662H37.5901V15.4805ZM37.3887 14.8067L37.5626 14.7547L37.5239 14.6251H37.3887V14.8067ZM35.7147 14.8067V14.6251H35.5795L35.5407 14.7547L35.7147 14.8067ZM35.5132 15.4805V15.662H35.6485L35.6872 15.5325L35.5132 15.4805ZM36.0342 13.737L35.8603 13.6848L35.7902 13.9185H36.0342V13.737ZM37.0761 13.737V13.9185H37.3201L37.25 13.6848L37.0761 13.737ZM36.8469 12.9729L37.0209 12.9207L37.0191 12.9155L36.8469 12.9729ZM36.7149 12.5214L36.5393 12.5676V12.5676L36.7149 12.5214ZM36.6455 12.2644L36.4699 12.3106L36.4705 12.313L36.6455 12.2644ZM36.5829 12.0352L36.7575 11.9853L36.7199 11.8536H36.5829V12.0352ZM36.5274 12.0352V11.8536H36.3817L36.3501 11.9958L36.5274 12.0352ZM36.451 12.32L36.2771 12.2671L36.2753 12.2742L36.451 12.32ZM36.3607 12.6534L36.535 12.7042L36.5355 12.7023L36.3607 12.6534ZM36.2634 12.9729L36.0904 12.9179L36.0895 12.9207L36.2634 12.9729ZM34.114 15.5427L35.8574 10.7638L35.5163 10.6393L33.7729 15.4182L34.114 15.5427ZM35.6869 10.8831H37.472V10.52H35.6869V10.8831ZM37.3015 10.7638L39.045 15.5427L39.3861 15.4182L37.6426 10.6393L37.3015 10.7638ZM39.2155 15.2989H37.5901V15.662H39.2155V15.2989ZM37.7641 15.4285L37.5626 14.7547L37.2148 14.8587L37.4162 15.5325L37.7641 15.4285ZM37.3887 14.6251H35.7147V14.9882H37.3887V14.6251ZM35.5407 14.7547L35.3393 15.4285L35.6872 15.5325L35.8886 14.8587L35.5407 14.7547ZM35.5132 15.2989H33.9434V15.662H35.5132V15.2989ZM36.0342 13.9185H37.0761V13.5554H36.0342V13.9185ZM37.25 13.6848L37.0208 12.9207L36.673 13.0251L36.9022 13.7892L37.25 13.6848ZM37.0191 12.9155C37.0015 12.8626 36.9813 12.7977 36.9586 12.7203L36.6102 12.8227C36.6337 12.9028 36.6552 12.9721 36.6747 13.0303L37.0191 12.9155ZM36.9586 12.7203C36.9359 12.6434 36.9132 12.5617 36.8905 12.4752L36.5393 12.5676C36.5629 12.6571 36.5865 12.7421 36.6102 12.8227L36.9586 12.7203ZM36.8905 12.4752C36.8671 12.3865 36.8438 12.3 36.8204 12.2158L36.4705 12.313C36.4935 12.3955 36.5164 12.4804 36.5393 12.5676L36.8905 12.4752ZM36.821 12.2182C36.7977 12.1294 36.7765 12.0517 36.7575 11.9853L36.4084 12.0851C36.4265 12.1483 36.4469 12.2235 36.4699 12.3106L36.821 12.2182ZM36.5829 11.8536H36.5274V12.2167H36.5829V11.8536ZM36.3501 11.9958C36.3329 12.0735 36.3087 12.1638 36.2773 12.2671L36.6246 12.3728C36.658 12.2631 36.6848 12.1636 36.7046 12.0746L36.3501 11.9958ZM36.2753 12.2742C36.2478 12.3795 36.218 12.4896 36.1858 12.6044L36.5355 12.7023C36.5682 12.5856 36.5986 12.4734 36.6266 12.3658L36.2753 12.2742ZM36.1864 12.6026C36.1543 12.7124 36.1224 12.8175 36.0904 12.9179L36.4364 13.028C36.4693 12.9246 36.5022 12.8167 36.535 12.7042L36.1864 12.6026ZM36.0895 12.9207L35.8603 13.6848L36.2081 13.7892L36.4373 13.0251L36.0895 12.9207ZM40.7473 15.4805L40.5761 15.5412L40.619 15.662H40.7473V15.4805ZM39.0524 10.7015V10.52H38.7954L38.8813 10.7622L39.0524 10.7015ZM40.6917 10.7015L40.8656 10.6496L40.8269 10.52H40.6917V10.7015ZM41.3516 12.9104L41.1776 12.9624L41.178 12.9638L41.3516 12.9104ZM41.5322 13.5425L41.3575 13.5924L41.3593 13.5981L41.5322 13.5425ZM41.6364 13.8968L41.4607 13.9426L41.4961 14.0783H41.6364V13.8968ZM41.6919 13.8968V14.0783H41.8289L41.8665 13.9466L41.6919 13.8968ZM41.7892 13.5633L41.6151 13.5118V13.5118L41.7892 13.5633ZM41.8934 13.2021L41.7198 13.1487L41.7185 13.1532L41.8934 13.2021ZM41.9767 12.9104L41.8027 12.8579L41.8006 12.8664L41.9767 12.9104ZM42.6435 10.7015V10.52H42.5087L42.4697 10.6491L42.6435 10.7015ZM44.2134 10.7015L44.3846 10.762L44.47 10.52H44.2134V10.7015ZM42.5255 15.4805V15.662H42.6539L42.6966 15.5409L42.5255 15.4805ZM40.9184 15.4198L39.2235 10.6408L38.8813 10.7622L40.5761 15.5412L40.9184 15.4198ZM39.0524 10.8831H40.6917V10.52H39.0524V10.8831ZM40.5177 10.7535L41.1776 12.9624L41.5255 12.8584L40.8656 10.6496L40.5177 10.7535ZM41.178 12.9638C41.1959 13.0217 41.2208 13.1079 41.2531 13.2233L41.6028 13.1254C41.5703 13.0092 41.5443 12.9195 41.5251 12.857L41.178 12.9638ZM41.2531 13.2233C41.2857 13.3394 41.3205 13.4624 41.3576 13.5924L41.7067 13.4926C41.6698 13.3632 41.6351 13.2408 41.6028 13.1254L41.2531 13.2233ZM41.3593 13.5981C41.4002 13.7252 41.4339 13.84 41.4607 13.9426L41.812 13.8509C41.7832 13.7405 41.7475 13.6191 41.705 13.4869L41.3593 13.5981ZM41.6364 14.0783H41.6919V13.7152H41.6364V14.0783ZM41.8665 13.9466C41.8941 13.8501 41.9263 13.7395 41.9632 13.6149L41.6151 13.5118C41.5779 13.6372 41.5453 13.7489 41.5174 13.8469L41.8665 13.9466ZM41.9632 13.6149C42.0005 13.4891 42.0355 13.3678 42.0682 13.2511L41.7185 13.1532C41.6864 13.268 41.6519 13.3875 41.6151 13.5118L41.9632 13.6149ZM42.0669 13.2555C42.1044 13.1337 42.1332 13.033 42.1528 12.9544L41.8006 12.8664C41.7832 12.936 41.7565 13.0297 41.7198 13.1487L42.0669 13.2555ZM42.1505 12.9629L42.8174 10.754L42.4697 10.6491L41.8029 12.8579L42.1505 12.9629ZM42.6435 10.8831H44.2134V10.52H42.6435V10.8831ZM44.0422 10.6411L42.3543 15.42L42.6966 15.5409L44.3846 10.762L44.0422 10.6411ZM42.5255 15.2989H40.7473V15.662H42.5255V15.2989ZM44.8546 15.4805H44.6731V15.662H44.8546V15.4805ZM44.8546 10.7015V10.52H44.6731V10.7015H44.8546ZM46.3897 10.7015H46.5713V10.52H46.3897V10.7015ZM46.3897 15.4805V15.662H46.5713V15.4805H46.3897ZM45.0362 15.4805V10.7015H44.6731V15.4805H45.0362ZM44.8546 10.8831H46.3897V10.52H44.8546V10.8831ZM46.2082 10.7015V15.4805H46.5713V10.7015H46.2082ZM46.3897 15.2989H44.8546V15.662H46.3897V15.2989ZM47.4187 15.4805H47.2372V15.662H47.4187V15.4805ZM47.4187 10.7015V10.52H47.2372V10.7015H47.4187ZM50.864 10.9585L50.9402 10.7938L50.864 10.9585ZM51.7045 11.7435L51.5447 11.8297L51.5456 11.8313L51.7045 11.7435ZM51.7045 14.4385L51.5451 14.3516L51.5447 14.3524L51.7045 14.4385ZM50.864 15.2235L50.9402 15.3882L50.864 15.2235ZM48.9538 14.3344H48.7723V14.5159H48.9538V14.3344ZM49.8916 14.2649L49.8285 14.0946L49.8264 14.0954L49.8916 14.2649ZM50.1972 14.0635L50.3325 14.1845L50.1972 14.0635ZM50.3708 13.737L50.1963 13.6871L50.3708 13.737ZM50.3708 12.445L50.1963 12.4949V12.4949L50.3708 12.445ZM50.1972 12.1185L50.3325 11.9975V11.9975L50.1972 12.1185ZM49.8916 11.9171L49.8264 12.0866L49.8285 12.0874L49.8916 11.9171ZM48.9538 11.8476V11.6661H48.7723V11.8476H48.9538ZM47.6003 15.4805V10.7015H47.2372V15.4805H47.6003ZM47.4187 10.8831H49.4887V10.52H47.4187V10.8831ZM49.4887 10.8831C50.0173 10.8831 50.4479 10.9661 50.7878 11.1233L50.9402 10.7938C50.5392 10.6083 50.053 10.52 49.4887 10.52V10.8831ZM50.7878 11.1233C51.1234 11.2786 51.3739 11.513 51.5447 11.8296L51.8643 11.6573C51.6554 11.27 51.3455 10.9812 50.9402 10.7938L50.7878 11.1233ZM51.5456 11.8313C51.7209 12.1484 51.8147 12.5647 51.8147 13.091H52.1778C52.1778 12.5244 52.0771 12.0424 51.8634 11.6556L51.5456 11.8313ZM51.8147 13.091C51.8147 13.6122 51.721 14.0291 51.5451 14.3516L51.8639 14.5255C52.077 14.1348 52.1778 13.6534 52.1778 13.091H51.8147ZM51.5447 14.3524C51.3739 14.669 51.1234 14.9035 50.7878 15.0587L50.9402 15.3882C51.3455 15.2008 51.6554 14.912 51.8643 14.5247L51.5447 14.3524ZM50.7878 15.0587C50.4479 15.2159 50.0173 15.2989 49.4887 15.2989V15.662C50.053 15.662 50.5392 15.5737 50.9402 15.3882L50.7878 15.0587ZM49.4887 15.2989H47.4187V15.662H49.4887V15.2989ZM48.9538 14.5159H49.4609V14.1528H48.9538V14.5159ZM49.4609 14.5159C49.6437 14.5159 49.8104 14.4906 49.9567 14.4343L49.8264 14.0954C49.7319 14.1318 49.6115 14.1528 49.4609 14.1528V14.5159ZM49.9546 14.4351C50.1037 14.3799 50.2316 14.2972 50.3325 14.1845L50.0619 13.9424C50.0053 14.0056 49.9294 14.0573 49.8285 14.0946L49.9546 14.4351ZM50.3325 14.1845C50.432 14.0733 50.5019 13.9392 50.5454 13.7869L50.1963 13.6871C50.1657 13.7941 50.1199 13.8776 50.0619 13.9424L50.3325 14.1845ZM50.5454 13.7869C50.5879 13.6381 50.608 13.475 50.608 13.2994H50.2449C50.2449 13.4479 50.2279 13.5766 50.1963 13.6871L50.5454 13.7869ZM50.608 13.2994V12.8826H50.2449V13.2994H50.608ZM50.608 12.8826C50.608 12.707 50.5879 12.5439 50.5454 12.3951L50.1963 12.4949C50.2279 12.6054 50.2449 12.7341 50.2449 12.8826H50.608ZM50.5454 12.3951C50.5019 12.2428 50.432 12.1087 50.3325 11.9975L50.0619 12.2396C50.1199 12.3044 50.1657 12.3879 50.1963 12.4949L50.5454 12.3951ZM50.3325 11.9975C50.2316 11.8848 50.1037 11.8021 49.9546 11.7469L49.8285 12.0874C49.9294 12.1247 50.0053 12.1764 50.0619 12.2396L50.3325 11.9975ZM49.9567 11.7477C49.8104 11.6914 49.6437 11.6661 49.4609 11.6661V12.0292C49.6115 12.0292 49.7319 12.0502 49.8264 12.0866L49.9567 11.7477ZM49.4609 11.6661H48.9538V12.0292H49.4609V11.6661ZM48.7723 11.8476V14.3344H49.1354V11.8476H48.7723ZM52.8251 15.4805H52.6435V15.662H52.8251V15.4805ZM52.8251 10.7015V10.52H52.6435V10.7015H52.8251ZM54.3601 10.7015H54.5417V10.52H54.3601V10.7015ZM54.3601 15.4805V15.662H54.5417V15.4805H54.3601ZM53.0066 15.4805V10.7015H52.6435V15.4805H53.0066ZM52.8251 10.8831H54.3601V10.52H52.8251V10.8831ZM54.1786 10.7015V15.4805H54.5417V10.7015H54.1786ZM54.3601 15.2989H52.8251V15.662H54.3601V15.2989ZM54.9446 15.4805L54.774 15.4182L54.6851 15.662H54.9446V15.4805ZM56.6881 10.7015V10.52H56.5611L56.5175 10.6393L56.6881 10.7015ZM58.4732 10.7015L58.6438 10.6393L58.6003 10.52H58.4732V10.7015ZM60.2167 15.4805V15.662H60.4762L60.3873 15.4182L60.2167 15.4805ZM58.5913 15.4805L58.4174 15.5325L58.4561 15.662H58.5913V15.4805ZM58.3899 14.8067L58.5638 14.7547L58.5251 14.6251H58.3899V14.8067ZM56.7159 14.8067V14.6251H56.5807L56.5419 14.7547L56.7159 14.8067ZM56.5144 15.4805V15.662H56.6496L56.6884 15.5325L56.5144 15.4805ZM57.0354 13.737L56.8615 13.6848L56.7914 13.9185H57.0354V13.737ZM58.0773 13.737V13.9185H58.3213L58.2512 13.6848L58.0773 13.737ZM57.8481 12.9729L58.0221 12.9207L58.0203 12.9155L57.8481 12.9729ZM57.7161 12.5214L57.5405 12.5676V12.5676L57.7161 12.5214ZM57.6466 12.2644L57.4711 12.3106L57.4717 12.313L57.6466 12.2644ZM57.5841 12.0352L57.7587 11.9853L57.7211 11.8536H57.5841V12.0352ZM57.5286 12.0352V11.8536H57.3829L57.3513 11.9958L57.5286 12.0352ZM57.4522 12.32L57.2783 12.2671L57.2765 12.2742L57.4522 12.32ZM57.3619 12.6534L57.5362 12.7042L57.5367 12.7023L57.3619 12.6534ZM57.2646 12.9729L57.0916 12.9179L57.0907 12.9207L57.2646 12.9729ZM55.1152 15.5427L56.8586 10.7638L56.5175 10.6393L54.774 15.4182L55.1152 15.5427ZM56.6881 10.8831H58.4732V10.52H56.6881V10.8831ZM58.3027 10.7638L60.0462 15.5427L60.3873 15.4182L58.6438 10.6393L58.3027 10.7638ZM60.2167 15.2989H58.5913V15.662H60.2167V15.2989ZM58.7653 15.4285L58.5638 14.7547L58.2159 14.8587L58.4174 15.5325L58.7653 15.4285ZM58.3899 14.6251H56.7159V14.9882H58.3899V14.6251ZM56.5419 14.7547L56.3405 15.4285L56.6884 15.5325L56.8898 14.8587L56.5419 14.7547ZM56.5144 15.2989H54.9446V15.662H56.5144V15.2989ZM57.0354 13.9185H58.0773V13.5554H57.0354V13.9185ZM58.2512 13.6848L58.022 12.9207L57.6742 13.0251L57.9034 13.7892L58.2512 13.6848ZM58.0203 12.9155C58.0027 12.8626 57.9825 12.7977 57.9597 12.7203L57.6114 12.8227C57.6349 12.9028 57.6564 12.9721 57.6758 13.0303L58.0203 12.9155ZM57.9597 12.7203C57.9371 12.6434 57.9144 12.5617 57.8917 12.4752L57.5405 12.5676C57.5641 12.6571 57.5877 12.7421 57.6114 12.8227L57.9597 12.7203ZM57.8917 12.4752C57.8683 12.3865 57.845 12.3 57.8216 12.2158L57.4717 12.313C57.4946 12.3955 57.5176 12.4804 57.5405 12.5676L57.8917 12.4752ZM57.8222 12.2182C57.7988 12.1294 57.7777 12.0517 57.7587 11.9853L57.4096 12.0851C57.4276 12.1483 57.4481 12.2235 57.4711 12.3106L57.8222 12.2182ZM57.5841 11.8536H57.5286V12.2167H57.5841V11.8536ZM57.3513 11.9958C57.3341 12.0735 57.3099 12.1638 57.2785 12.2671L57.6258 12.3728C57.6592 12.2631 57.686 12.1636 57.7058 12.0746L57.3513 11.9958ZM57.2765 12.2742C57.249 12.3795 57.2192 12.4896 57.187 12.6044L57.5367 12.7023C57.5694 12.5856 57.5997 12.4734 57.6278 12.3658L57.2765 12.2742ZM57.1876 12.6026C57.1555 12.7124 57.1235 12.8175 57.0916 12.9179L57.4376 13.028C57.4705 12.9246 57.5033 12.8167 57.5361 12.7042L57.1876 12.6026ZM57.0907 12.9207L56.8615 13.6848L57.2093 13.7892L57.4385 13.0251L57.0907 12.9207Z" fill="#110002"/>
</svg>
