<svg width="171" height="288" viewBox="0 0 171 288" fill="none" xmlns="http://www.w3.org/2000/svg">
<circle cx="9.56694" cy="56.4342" r="22.8523" transform="rotate(-20.3713 9.56694 56.4342)" stroke="black" stroke-width="4.68766"/>
<circle cx="48.5481" cy="164.782" r="94.0462" transform="rotate(-20.3713 48.5481 164.782)" fill="#FEB20E" stroke="black" stroke-width="2.34383"/>
<circle cx="48.94" cy="165.417" r="75.442" transform="rotate(-20.3713 48.94 165.417)" fill="#DF9800" stroke="black" stroke-width="2.34383"/>
<circle cx="49.1446" cy="165.967" r="66.6526" transform="rotate(-20.3713 49.1446 165.967)" fill="white" stroke="black" stroke-width="2.34383"/>
<line x1="70.5432" y1="117.968" x2="76.1278" y2="105.787" stroke="black" stroke-width="2.34383" stroke-linecap="round"/>
<line x1="91.0204" y1="133.7" x2="101.948" y2="125.942" stroke="black" stroke-width="2.34383" stroke-linecap="round"/>
<line x1="101.742" y1="159.147" x2="115.084" y2="157.892" stroke="black" stroke-width="2.34383" stroke-linecap="round"/>
<line x1="97.1425" y1="187.365" x2="109.324" y2="192.95" stroke="black" stroke-width="2.34383" stroke-linecap="round"/>
<line x1="79.3918" y1="209.217" x2="87.1492" y2="220.144" stroke="black" stroke-width="2.34383" stroke-linecap="round"/>
<line x1="53.13" y1="217.741" x2="54.3844" y2="231.083" stroke="black" stroke-width="2.34383" stroke-linecap="round"/>
<line x1="26.4959" y1="213.164" x2="20.9112" y2="225.346" stroke="black" stroke-width="2.34383" stroke-linecap="round"/>
<line x1="5.15541" y1="194.301" x2="-5.77191" y2="202.059" stroke="black" stroke-width="2.34383" stroke-linecap="round"/>
<line x1="1.49222" y1="143.814" x2="-10.6895" y2="138.23" stroke="black" stroke-width="2.34383" stroke-linecap="round"/>
<line x1="17.9363" y1="122.732" x2="10.1789" y2="111.805" stroke="black" stroke-width="2.34383" stroke-linecap="round"/>
<line x1="43.3114" y1="112.662" x2="42.057" y2="99.3204" stroke="black" stroke-width="2.34383" stroke-linecap="round"/>
<line x1="49.9592" y1="165.464" x2="67.3215" y2="125.4" stroke="black" stroke-width="5.85957" stroke-linecap="round"/>
<line x1="62.9637" y1="160.679" x2="-2.40409" y2="184.952" stroke="black" stroke-width="5.85957" stroke-linecap="round"/>
<line x1="50.6099" y1="166.245" x2="15.4857" y2="150.538" stroke="black" stroke-width="5.85957" stroke-linecap="round"/>
<circle cx="48.6509" cy="165.056" r="8.2034" transform="rotate(-20.3713 48.6509 165.056)" stroke="black" stroke-width="4.68766"/>
<rect x="82.3939" y="76.9509" width="9.12132" height="7.61744" transform="rotate(-66.8385 82.3939 76.9509)" fill="#B71800" stroke="black" stroke-width="2.34383"/>
<rect x="80.0169" y="65.4999" width="14.9767" height="20.5267" transform="rotate(-66.8385 80.0169 65.4999)" fill="#F43518" stroke="black" stroke-width="2.34383"/>
<rect x="-1.48839" y="-0.729023" width="9.12132" height="7.61744" transform="matrix(-0.323984 -0.946062 -0.946062 0.323984 18.9032 73.9069)" fill="#B71800" stroke="black" stroke-width="2.34383"/>
<rect x="-1.48839" y="-0.729023" width="7.1331" height="20.5267" transform="matrix(-0.323984 -0.946062 -0.946062 0.323984 21.5682 62.0073)" fill="#F43518" stroke="black" stroke-width="2.34383"/>
</svg>
