<svg width="239" height="234" viewBox="0 0 239 234" fill="none" xmlns="http://www.w3.org/2000/svg">
<line x1="238.863" y1="24.788" x2="0.118072" y2="24.788" stroke="#0B0A0A" stroke-width="1.10726"/>
<line x1="238.863" y1="51.4482" x2="0.118072" y2="51.4481" stroke="#0B0A0A" stroke-width="1.10726"/>
<line x1="238.863" y1="78.1064" x2="0.118072" y2="78.1063" stroke="#0B0A0A" stroke-width="1.10726"/>
<line x1="238.863" y1="104.767" x2="0.118072" y2="104.767" stroke="#0B0A0A" stroke-width="1.10726"/>
<line x1="238.863" y1="131.427" x2="0.118072" y2="131.427" stroke="#0B0A0A" stroke-width="1.10726"/>
<line x1="238.863" y1="158.085" x2="0.118072" y2="158.085" stroke="#0B0A0A" stroke-width="1.10726"/>
<line x1="238.863" y1="184.745" x2="0.118072" y2="184.745" stroke="url(#paint0_linear_1_8763)" stroke-width="1.10726"/>
<line x1="0.116211" y1="209.61" x2="228.824" y2="209.61" stroke="url(#paint1_linear_1_8763)" stroke-width="1.10726"/>
<line x1="214.054" y1="223.49" x2="214.054" y2="-0.000793481" stroke="url(#paint2_linear_1_8763)" stroke-width="1.10726"/>
<line x1="187.537" y1="233.766" x2="187.537" y2="-0.000839282" stroke="url(#paint3_linear_1_8763)" stroke-opacity="0.5" stroke-width="1.10726"/>
<line x1="160.767" y1="233.766" x2="160.767" y2="-0.000839282" stroke="url(#paint4_linear_1_8763)" stroke-opacity="0.5" stroke-width="1.10726"/>
<line x1="134.108" y1="233.766" x2="134.108" y2="-0.000839282" stroke="#0B0A0A" stroke-width="1.10726"/>
<line x1="107.448" y1="233.766" x2="107.448" y2="-0.000839282" stroke="#0B0A0A" stroke-width="1.10726"/>
<line x1="80.7887" y1="233.766" x2="80.7887" y2="-0.000839282" stroke="#0B0A0A" stroke-width="1.10726"/>
<line x1="54.129" y1="233.766" x2="54.129" y2="-0.000839282" stroke="#0B0A0A" stroke-width="1.10726"/>
<line x1="27.4698" y1="234" x2="27.4698" y2="0.233536" stroke="#0B0A0A" stroke-width="1.10726"/>
<path d="M66.2483 135.04C65.9484 138.046 65.3559 141.015 64.4793 143.905C63.539 146.962 62.2821 149.913 60.7291 152.71C59.8339 154.28 58.8589 155.804 57.8078 157.275C56.7768 158.692 55.6653 160.049 54.4788 161.339C52.9019 163.138 51.0757 164.654 49.2427 166.177C47.1772 167.892 44.8624 169.23 42.5443 170.531C38.5009 172.788 34.1206 174.089 29.5955 174.938C26.1463 175.607 22.6217 175.801 19.1199 175.514C15.3576 175.201 11.6469 174.435 8.06812 173.233C7.69074 173.105 7.31673 172.973 6.93935 172.835L6.75403 172.764C6.47437 172.663 6.1947 172.556 5.91504 172.448C5.48825 172.282 5.0637 172.11 4.64139 171.932C4.21909 171.755 3.82149 171.573 3.44861 171.386C3.15884 171.241 2.86907 171.093 2.58603 170.938C0.17688 169.611 -2.25249 168.303 -4.39545 166.558C-5.06934 166.009 -5.74323 165.466 -6.41712 164.904C-7.46468 164.037 -8.45407 163.103 -9.37886 162.107C-9.92134 161.511 -10.4706 160.918 -11.0063 160.311C-11.6061 159.637 -12.1856 158.943 -12.7213 158.215C-12.8797 158 -13.0381 157.787 -13.1931 157.568C-14.2093 156.201 -15.141 154.773 -15.983 153.292C-16.7512 151.908 -17.5093 150.513 -18.1394 149.06C-21.2714 141.938 -22.5544 134.141 -21.8694 126.391C-21.331 120.319 -19.5816 114.416 -16.7242 109.031C-15.983 107.603 -15.1035 106.238 -14.2275 104.89C-13.0848 103.211 -11.8332 101.608 -10.4807 100.092C-9.13289 98.5154 -7.58295 97.1744 -6.05659 95.7896C-4.06188 93.9903 -1.80435 92.5785 0.483501 91.197C3.8799 89.1518 7.55933 87.8276 11.3567 86.7595C14.9115 85.7486 18.5336 85.4319 21.711 85.3477C25.5522 85.3477 28.8879 85.6374 32.1394 86.4764C35.9065 87.4502 39.6128 88.7171 43.0092 90.6141L43.4068 90.8432C44.2795 91.3486 45.1455 91.8541 45.9946 92.4033C47.3555 93.2552 48.6538 94.2033 49.8795 95.2403C50.3007 95.6009 50.7253 95.9648 51.1431 96.3287C52.3852 97.3833 53.5516 98.5238 54.6338 99.7419C55.8505 101.08 56.989 102.488 58.0437 103.957C58.3368 104.395 58.6333 104.83 58.9299 105.268C59.1725 105.635 59.4184 106.002 59.6543 106.373C59.8901 106.744 60.1429 107.151 60.3753 107.549C60.5236 107.812 60.6719 108.075 60.8134 108.341C60.8471 108.411 60.8841 108.482 60.9212 108.553C61.1031 108.89 61.2817 109.25 61.4603 109.601C61.9691 110.612 62.4711 111.623 62.8957 112.633C65.8723 119.701 67.0252 127.404 66.2483 135.033V135.04Z" fill="#FEFEFE" stroke="#110002" stroke-width="4" stroke-linecap="round" stroke-linejoin="round"/>
<path d="M22.2261 176.323C21.1681 176.323 20.1034 176.279 19.0622 176.188C15.2466 175.868 11.4831 175.092 7.85208 173.876C7.46796 173.745 7.08722 173.61 6.70647 173.472L6.54811 173.411L5.67205 173.075C5.21717 172.899 4.79263 172.738 4.37819 172.549C3.96374 172.36 3.55604 172.185 3.15171 171.99C2.85295 171.841 2.55644 171.686 2.26217 171.525L1.87469 171.316C-0.399685 170.066 -2.74819 168.772 -4.82376 167.084L-5.01245 166.929C-5.61558 166.44 -6.23556 165.918 -6.83869 165.423C-7.91103 164.538 -8.92405 163.583 -9.87119 162.565L-10.3732 162.013C-10.7506 161.598 -11.1314 161.184 -11.5054 160.759C-12.213 159.961 -12.7723 159.28 -13.2575 158.616L-13.7326 157.969C-14.7717 156.579 -15.7248 155.126 -16.5865 153.619C-17.3345 152.272 -18.1196 150.826 -18.7699 149.327C-21.9458 142.102 -23.2428 134.191 -22.5403 126.33C-22.2879 123.473 -21.7702 120.645 -20.9937 117.883C-20.0988 114.708 -18.8711 111.636 -17.3311 108.718C-16.573 107.279 -15.7037 105.915 -14.8041 104.523C-13.6723 102.861 -12.4342 101.274 -11.0977 99.7723L-10.9966 99.6544C-9.78616 98.2942 -8.48602 97.0165 -7.10488 95.8301L-6.50849 95.2909C-4.45986 93.4344 -2.19897 92.026 0.136055 90.6209C3.95026 88.3196 8.0374 87.0021 11.171 86.1126C14.2035 85.2534 17.6336 84.7817 21.6938 84.6738C26.0134 84.6738 29.2817 85.0445 32.3075 85.8262C36.7686 86.9785 40.2863 88.3128 43.3357 90.0279L43.7468 90.2604C44.8081 90.877 45.6134 91.3622 46.3581 91.8339C47.7443 92.7043 49.0673 93.6715 50.3172 94.7282C50.7417 95.0921 51.1651 95.4572 51.5875 95.8233C52.8531 96.898 54.0421 98.0599 55.1456 99.3006L55.6207 99.8532C56.6856 101.036 57.6802 102.28 58.5993 103.58C58.8958 104.018 59.1923 104.452 59.4888 104.894C59.7348 105.261 59.9807 105.635 60.2233 106.009C60.4659 106.383 60.7288 106.825 60.9545 107.212C61.1129 107.482 61.2611 107.751 61.406 108.024C61.406 108.024 61.8845 108.944 62.0597 109.294C62.5516 110.255 63.0705 111.292 63.5187 112.384C64.7949 115.42 65.7448 118.582 66.3523 121.819C68.3787 132.496 66.5975 143.546 61.3184 153.047C60.4131 154.636 59.4268 156.178 58.3634 157.666C57.4503 158.941 56.4613 160.159 55.4017 161.315L54.9838 161.79C53.3733 163.633 51.4931 165.197 49.6736 166.706C47.534 168.482 45.1417 169.863 42.8741 171.13C39.1677 173.199 34.9795 174.624 29.7332 175.612C27.2584 176.082 24.7452 176.32 22.2261 176.323Z" fill="#110002"/>
<path d="M21.7111 85.3478C25.5523 85.3478 28.888 85.6375 32.1395 86.4765C35.9066 87.4503 39.613 88.7172 43.0094 90.6142L43.407 90.8433C44.2796 91.3488 45.1456 91.8542 45.9947 92.4034C47.3556 93.2553 48.6539 94.2034 49.8797 95.2405C50.3008 95.601 50.7254 95.9649 51.1432 96.3288C52.3853 97.3834 53.5517 98.5239 54.6339 99.742C55.8506 101.08 56.9891 102.488 58.0438 103.957C58.337 104.395 58.6335 104.83 58.93 105.268C59.1726 105.635 59.4185 106.002 59.6544 106.373C59.8903 106.744 60.143 107.151 60.3755 107.549C60.5237 107.812 60.672 108.075 60.8135 108.341C60.8472 108.412 60.8843 108.482 60.9213 108.553C61.1033 108.89 61.2819 109.251 61.4604 109.601C61.9692 110.612 62.4713 111.623 62.8958 112.634C65.5979 119.039 66.8071 125.976 66.4317 132.918C66.0564 139.86 64.1063 146.626 60.7293 152.703C59.8343 154.276 58.8592 155.802 57.808 157.275C56.777 158.692 55.6655 160.049 54.4789 161.339C52.902 163.138 51.0758 164.654 49.2428 166.177C47.1774 167.892 44.8626 169.23 42.5444 170.531C38.501 172.788 34.1208 174.089 29.5956 174.938C27.1668 175.404 24.6998 175.642 22.2266 175.649C21.1922 175.649 20.1578 175.608 19.12 175.517C15.3577 175.204 11.647 174.439 8.06824 173.236C7.69086 173.108 7.31685 172.977 6.93948 172.839L6.75416 172.768C6.47449 172.667 6.19483 172.559 5.91516 172.451C5.48837 172.285 5.06382 172.113 4.64152 171.936C4.21921 171.758 3.82162 171.576 3.44873 171.39C3.15896 171.245 2.86919 171.097 2.58616 170.942C0.177004 169.614 -2.25236 168.307 -4.39533 166.561C-5.06922 166.012 -5.7431 165.47 -6.41699 164.907C-7.46455 164.041 -8.45394 163.107 -9.37873 162.11C-9.92122 161.514 -10.4704 160.921 -11.0062 160.315C-11.6059 159.641 -12.1855 158.947 -12.7212 158.219C-12.8796 158.003 -13.0379 157.791 -13.1929 157.572C-14.2093 156.204 -15.141 154.775 -15.9828 153.293C-16.7511 151.908 -17.5092 150.513 -18.1393 149.061C-21.2713 141.939 -22.5542 134.141 -21.8693 126.391C-21.3309 120.319 -19.5814 114.416 -16.7241 109.032C-15.9828 107.603 -15.1034 106.238 -14.2274 104.891C-13.0847 103.211 -11.8331 101.608 -10.4805 100.092C-9.13276 98.5156 -7.58282 97.1745 -6.05646 95.7897C-4.06175 93.9904 -1.80423 92.5786 0.483625 91.1971C3.88002 89.1519 7.55945 87.8277 11.3568 86.7596C14.9116 85.7487 18.5337 85.432 21.7111 85.3478ZM21.7111 84H21.674C17.5566 84.1112 14.0625 84.5897 10.9727 85.4623C7.81216 86.3586 3.67112 87.7064 -0.21385 90.0448C-2.48149 91.4128 -4.86368 92.9021 -6.95947 94.7822L-7.55923 95.3281C-8.95955 96.536 -10.2787 97.8349 -11.5082 99.2164L-11.6093 99.3377C-12.9629 100.862 -14.2156 102.472 -15.3595 104.159C-16.2659 105.561 -17.1453 106.943 -17.9169 108.402C-20.8582 113.94 -22.6593 120.013 -23.2137 126.26C-23.9174 134.233 -22.5986 142.255 -19.3792 149.583C-18.7054 151.109 -17.9236 152.568 -17.1655 153.933C-16.2908 155.464 -15.323 156.94 -14.2678 158.354L-13.7961 158.997C-13.294 159.671 -12.7246 160.375 -11.9968 161.194C-11.6228 161.618 -11.2353 162.043 -10.8613 162.454L-10.3592 163.003C-9.39476 164.044 -8.36259 165.02 -7.26946 165.925C-6.66633 166.437 -6.04635 166.935 -5.44659 167.431L-5.24443 167.593C-3.12168 169.318 -0.746223 170.625 1.55174 171.892L1.93585 172.104C2.2391 172.273 2.54909 172.441 2.85571 172.583C3.27015 172.785 3.69133 172.98 4.11588 173.159C4.54043 173.337 4.96498 173.513 5.42997 173.691C5.713 173.802 6.00277 173.91 6.28917 174.028L6.35319 174.052L6.46775 174.092C6.8485 174.234 7.23936 174.372 7.63695 174.507C11.3185 175.745 15.1353 176.536 19.0055 176.865C20.0668 176.956 21.1484 177 22.2266 177C24.7822 176.99 27.3313 176.744 29.8416 176.265C35.172 175.255 39.4175 173.816 43.1981 171.707C45.4926 170.43 47.9153 169.011 50.102 167.215C51.9418 165.685 53.8421 164.109 55.4931 162.225L55.9076 161.753C56.9849 160.579 57.9908 159.341 58.9199 158.047C59.9952 156.539 60.9928 154.977 61.9086 153.367C67.2403 143.724 69.0465 132.524 67.0166 121.694C66.3999 118.415 65.4353 115.212 64.1391 112.138C63.6809 111.026 63.1586 109.972 62.6633 108.998L62.1208 107.923L62.013 107.718V107.697C61.8648 107.418 61.7098 107.138 61.5514 106.865C61.3189 106.464 61.073 106.063 60.8 105.639C60.5844 105.302 60.3485 104.941 60.0587 104.506L59.1557 103.206C58.2215 101.884 57.2089 100.619 56.1232 99.4186L55.6448 98.866C54.5214 97.5993 53.3099 96.4137 52.0193 95.318C51.5992 94.9518 51.1746 94.5857 50.7456 94.2195C49.4705 93.1408 48.1192 92.1554 46.7023 91.2713C45.7453 90.6614 44.7918 90.0987 44.0674 89.6809L43.6563 89.4349C40.553 87.7064 36.9983 86.3384 32.4765 85.1726C29.3934 84.3774 26.0745 84.0168 21.7145 84H21.7111Z" fill="#110002"/>
<path d="M58.93 105.269L40.6946 126.998L21.7111 149.621L3.44874 171.387C3.15896 171.243 2.86919 171.094 2.58616 170.939C0.177008 169.612 -2.25236 168.304 -4.39533 166.559C-5.06922 166.01 -5.7431 165.467 -6.41699 164.905L10.127 145.187L19.4704 134.067L25.1985 127.221L34.5723 116.051L51.1129 96.3398C52.355 97.3944 53.5214 98.535 54.6036 99.7531C55.8304 101.087 56.979 102.491 58.0438 103.958C58.337 104.396 58.6335 104.831 58.93 105.269Z" fill="#363636" stroke="#110002" stroke-miterlimit="10"/>
<path d="M45.995 92.4034L29.0433 112.62L5.96265 140.128L-10.989 160.345C-11.5888 159.671 -12.1683 158.977 -12.7041 158.249C-12.8624 158.033 -13.0208 157.821 -13.1758 157.602L4.41608 136.641L25.4077 111.619L43.0097 90.6445L43.4073 90.8737C44.28 91.3487 45.1459 91.8609 45.995 92.4034Z" fill="#363636" stroke="#110002" stroke-miterlimit="10"/>
<path d="M61.4603 109.608L42.0018 132.8L40.5933 134.485L28.9654 148.33L27.6412 149.91L8.06811 173.233C7.69074 173.105 7.31673 172.974 6.93935 172.836L6.75403 172.765C6.47437 172.664 6.1947 172.556 5.91504 172.448L24.4503 150.378L25.259 149.415L41.0078 130.643L41.9849 129.478L60.3787 107.576C60.527 107.839 60.6752 108.102 60.8167 108.368C60.8504 108.439 60.8875 108.51 60.9246 108.58C61.1031 108.9 61.2817 109.251 61.4603 109.608Z" fill="#363636" stroke="#110002" stroke-miterlimit="10"/>
<path d="M22.2063 111.35C24.9176 111.29 27.6041 111.877 30.0437 113.061C32.2843 114.177 34.3599 115.562 36.0244 117.462C38.2981 119.991 39.8688 123.072 40.5799 126.398C41.1893 129.292 41.1398 132.286 40.435 135.158C40.0956 136.48 39.6261 137.764 39.0333 138.993C38.1356 140.828 36.9542 142.509 35.5325 143.976C33.6153 146.045 31.2567 147.396 28.6824 148.468C26.1654 149.512 23.5474 149.738 20.8754 149.61C19.3809 149.562 17.9031 149.281 16.4951 148.778C13.9074 147.817 11.4747 146.554 9.47995 144.606C8.07558 143.266 6.87562 141.726 5.91845 140.037C4.02129 136.649 3.1767 132.772 3.49245 128.901C3.67405 126.663 4.24414 124.474 5.17717 122.432C5.93532 120.818 6.90035 119.309 8.04793 117.944C9.62483 115.966 11.6465 114.561 13.867 113.355C15.8716 112.294 18.0673 111.642 20.3262 111.437C20.9664 111.367 21.6032 111.373 22.2063 111.35Z" fill="#FADCCC" stroke="#110002" stroke-width="4" stroke-linecap="round" stroke-linejoin="round"/>
<path d="M22.2335 134.983C19.703 135.061 17.6712 132.84 17.7487 130.303C17.8195 128.083 19.9321 125.788 22.3986 125.903C24.6022 126 26.7788 128.197 26.671 130.596C26.5632 133.059 24.6392 135.024 22.2335 134.983Z" fill="#110002" stroke="#110002" stroke-width="4" stroke-linecap="round" stroke-linejoin="round"/>
<defs>
<linearGradient id="paint0_linear_1_8763" x1="119.491" y1="184.19" x2="279.223" y2="185.024" gradientUnits="userSpaceOnUse">
<stop stop-color="#0B0A0A"/>
<stop offset="1" stop-color="#0B0A0A" stop-opacity="0"/>
</linearGradient>
<linearGradient id="paint1_linear_1_8763" x1="114.47" y1="210.161" x2="286.475" y2="211.092" gradientUnits="userSpaceOnUse">
<stop stop-color="#0B0A0A"/>
<stop offset="1" stop-color="#0B0A0A" stop-opacity="0"/>
</linearGradient>
<linearGradient id="paint2_linear_1_8763" x1="214.624" y1="111.745" x2="215.435" y2="252.062" gradientUnits="userSpaceOnUse">
<stop stop-color="#0B0A0A"/>
<stop offset="1" stop-color="#0B0A0A" stop-opacity="0"/>
</linearGradient>
<linearGradient id="paint3_linear_1_8763" x1="188.075" y1="116.883" x2="189.162" y2="255.515" gradientUnits="userSpaceOnUse">
<stop stop-color="#0B0A0A"/>
<stop offset="1" stop-color="#0B0A0A" stop-opacity="0"/>
</linearGradient>
<linearGradient id="paint4_linear_1_8763" x1="161.305" y1="116.883" x2="165.285" y2="328.933" gradientUnits="userSpaceOnUse">
<stop stop-color="#0B0A0A"/>
<stop offset="1" stop-color="#0B0A0A" stop-opacity="0"/>
</linearGradient>
</defs>
</svg>
