<svg width="713" height="113" viewBox="0 0 713 113" fill="none" xmlns="http://www.w3.org/2000/svg">
<path d="M128.392 43.6369L126.401 43.9878L126.045 41.9538C126.4 41.8484 126.761 41.7629 127.126 41.6978C127.429 41.6456 127.728 41.6077 128.027 41.584L128.392 43.6369Z" fill="black" stroke="#110002" stroke-width="4" stroke-linecap="round" stroke-linejoin="round"/>
<path d="M137.286 45.9511L135.641 47.3308L134.347 45.7851L135.982 44.4102C136.467 44.8792 136.904 45.3954 137.286 45.9511Z" fill="black" stroke="#110002" stroke-width="4" stroke-linecap="round" stroke-linejoin="round"/>
<path d="M138.761 54.3108C138.593 54.9654 138.358 55.6009 138.06 56.2073L136.102 55.4961L136.794 53.5996L138.761 54.3108Z" fill="black" stroke="#110002" stroke-width="4" stroke-linecap="round" stroke-linejoin="round"/>
<path d="M131.555 61.5834C131.265 61.6593 130.971 61.7257 130.668 61.7778C130.302 61.8431 129.934 61.8874 129.563 61.9106L129.227 59.9809L131.208 59.6348L131.555 61.5834Z" fill="black" stroke="#110002" stroke-width="4" stroke-linecap="round" stroke-linejoin="round"/>
<path d="M123.2 57.7722L121.74 59.0002C121.258 58.526 120.824 58.0051 120.445 57.4451L121.901 56.2266L123.2 57.7722Z" fill="black" stroke="#110002" stroke-width="4" stroke-linecap="round" stroke-linejoin="round"/>
<path d="M121.531 48.0368L120.839 49.9333L119.004 49.2695C119.167 48.6154 119.397 47.9798 119.691 47.373L121.531 48.0368Z" fill="black" stroke="#110002" stroke-width="4" stroke-linecap="round" stroke-linejoin="round"/>
<path d="M45.619 48.0561L45.5384 48.2836L44.9268 49.9526L43.0967 49.284C43.0967 49.1987 43.1393 49.1181 43.1583 49.0375L43.2294 48.7957C43.2294 48.7151 43.2816 48.6345 43.31 48.5539C43.3574 48.3974 43.4143 48.241 43.4712 48.0798C43.5281 47.9186 43.604 47.7621 43.6751 47.6056C43.6896 47.575 43.7055 47.5449 43.7225 47.5156C43.8442 47.2461 43.9803 46.9834 44.1303 46.7285C44.0023 46.9514 43.8837 47.1789 43.7747 47.4065L45.619 48.0561Z" fill="black" stroke="#110002" stroke-width="4" stroke-linecap="round" stroke-linejoin="round"/>
<path d="M47.2697 57.7898L45.8094 59.013L45.6814 58.8803L45.4965 58.6906L45.3211 58.4962C45.2595 58.4299 45.2026 58.3587 45.1457 58.2924C45.0888 58.226 45.1457 58.2924 45.1457 58.2924L44.9039 57.9842L44.7569 57.7898L44.6715 57.6618C44.6194 57.5954 44.5767 57.529 44.5293 57.4626L45.9801 56.2441L46.203 56.5096L47.2697 57.7898Z" fill="black" stroke="#110002" stroke-width="4" stroke-linecap="round" stroke-linejoin="round"/>
<path d="M55.7613 61.5605L55.6286 61.5985L55.4105 61.6554L55.1924 61.7075L54.9648 61.7549L54.7372 61.7976C54.6472 61.7976 54.5571 61.8308 54.4622 61.8403L54.1872 61.8782H54.0498H53.8791H53.8174H53.6325L53.2959 59.9485L53.6847 59.8821L55.2825 59.5977L55.6286 61.5463L55.7613 61.5605Z" fill="black" stroke="#110002" stroke-width="4" stroke-linecap="round" stroke-linejoin="round"/>
<path d="M62.8349 54.3295C62.8112 54.4053 62.7923 54.4812 62.7686 54.5571C62.7259 54.7183 62.6737 54.8842 62.6216 55.0312C62.5694 55.1782 62.5125 55.3346 62.4509 55.5053C62.3893 55.6665 62.3229 55.823 62.2518 55.9794C62.2429 55.9947 62.235 56.0106 62.2281 56.0268C62.222 56.042 62.214 56.0563 62.2043 56.0695V56.1074V56.1359L62.1759 56.1975L60.2178 55.4863L60.3363 55.1497L60.9053 53.5898L62.8349 54.3295Z" fill="black" stroke="#110002" stroke-width="4" stroke-linecap="round" stroke-linejoin="round"/>
<path d="M61.3557 45.9656L59.7105 47.35L59.5493 47.1557L58.4209 45.8044L60.0566 44.4294L60.1562 44.5243L60.3648 44.7376L60.5497 44.9368L60.6777 45.0837L60.7678 45.188L60.8105 45.2355C60.8231 45.2501 60.8342 45.266 60.8437 45.2829C60.8826 45.325 60.919 45.3693 60.9527 45.4156C60.9906 45.4583 61.0238 45.5057 61.057 45.5484C61.0902 45.591 61.1661 45.6906 61.2182 45.7617C61.2656 45.8329 61.3131 45.8992 61.3557 45.9656Z" fill="black" stroke="#110002" stroke-width="4" stroke-linecap="round" stroke-linejoin="round"/>
<path d="M52.4611 43.6571L52.2667 43.6902L50.4745 44.0032L50.1142 41.9739L49.9814 42.0118L50.1142 41.9692L50.3797 41.8981L50.6405 41.8317L51.1857 41.7226L51.3754 41.6894H51.565C51.6529 41.6737 51.7415 41.6626 51.8305 41.6562H51.8637H52.0486H52.0866L52.4611 43.6571Z" fill="black" stroke="#110002" stroke-width="4" stroke-linecap="round" stroke-linejoin="round"/>
<path d="M171.03 2H8.58084C7.71646 1.99938 6.86043 2.16917 6.06172 2.49967C5.26302 2.83017 4.53731 3.31488 3.92609 3.92609C3.31488 4.53731 2.83017 5.26302 2.49967 6.06172C2.16917 6.86043 1.99938 7.71646 2 8.58084V103.614C2 105.36 2.69334 107.033 3.92748 108.268C5.16163 109.502 6.83549 110.195 8.58084 110.195H171.03C172.775 110.195 174.449 109.502 175.683 108.268C176.917 107.033 177.611 105.36 177.611 103.614V8.58084C177.611 7.71646 177.442 6.86043 177.111 6.06172C176.781 5.26302 176.296 4.53731 175.685 3.92609C175.073 3.31488 174.348 2.83017 173.549 2.49967C172.75 2.16917 171.894 1.99938 171.03 2ZM31.4715 28.8449H150.363V72.2462H31.4715V28.8449Z" fill="#4D4D4D" stroke="#110002" stroke-width="4" stroke-linecap="round" stroke-linejoin="round"/>
<path d="M31.1538 9.67188H148.262C153.209 9.67188 157.953 11.637 161.451 15.1349C164.949 18.6329 166.914 23.3771 166.914 28.3239V77.9078C166.915 78.4617 166.807 79.0103 166.595 79.5222C166.383 80.0342 166.073 80.4994 165.682 80.8913C165.29 81.2832 164.825 81.5941 164.314 81.8062C163.802 82.0183 163.253 82.1275 162.699 82.1275H16.6978C15.5832 82.1237 14.5155 81.6786 13.7282 80.8896C12.941 80.1006 12.4983 79.0318 12.4971 77.9173V28.3239C12.4971 25.8741 12.9797 23.4483 13.9173 21.185C14.855 18.9217 16.2293 16.8653 17.9618 15.1333C19.6943 13.4012 21.751 12.0274 24.0146 11.0903C26.2781 10.1532 28.704 9.67125 31.1538 9.67188Z" fill="#FEB20E"/>
<path d="M62.2137 56.1739C62.2137 56.1739 62.2137 56.2071 62.19 56.2213V56.2545C62.1891 56.2656 62.1891 56.2767 62.19 56.2877C62.1844 56.3084 62.1747 56.3277 62.1615 56.3446L62.1236 56.4205C62.1236 56.4205 62.1236 56.4679 62.0857 56.4963L62.0051 56.6481M148.262 9.67188H31.1538C28.704 9.67125 26.2781 10.1532 24.0146 11.0903C21.751 12.0274 19.6943 13.4012 17.9618 15.1333C16.2293 16.8653 14.855 18.9217 13.9173 21.185C12.9797 23.4483 12.4971 25.8741 12.4971 28.3239V77.9173C12.4983 79.0318 12.941 80.1006 13.7282 80.8896C14.5155 81.6786 15.5832 82.1237 16.6978 82.1275H162.699C163.253 82.1275 163.802 82.0183 164.314 81.8062C164.825 81.5941 165.29 81.2832 165.682 80.8913C166.073 80.4994 166.383 80.0342 166.595 79.5222C166.807 79.0103 166.915 78.4617 166.914 77.9078V28.3239C166.914 23.3771 164.949 18.6329 161.451 15.1349C157.953 11.637 153.209 9.67188 148.262 9.67188V9.67188ZM138.78 54.3106C138.612 54.9652 138.377 55.6007 138.078 56.2071C137.442 57.5174 136.532 58.6759 135.41 59.6043C134.288 60.5327 132.98 61.2093 131.573 61.5884C131.284 61.6643 130.99 61.7307 130.687 61.7828C130.321 61.8481 129.952 61.8924 129.582 61.9156C127.98 62.0198 126.377 61.7446 124.902 61.1123C123.427 60.48 122.122 59.5085 121.093 58.2768C120.064 57.0451 119.34 55.5879 118.981 54.0238C118.621 52.4597 118.636 50.8328 119.023 49.2754C119.186 48.6213 119.417 47.9857 119.711 47.3789C120.326 46.0782 121.211 44.9229 122.306 43.9895C123.401 43.0561 124.682 42.3658 126.064 41.9644C126.419 41.8591 126.78 41.7736 127.145 41.7084C127.448 41.6563 127.747 41.6183 128.046 41.5946C129.671 41.4544 131.307 41.7065 132.814 42.3298C134.322 42.9531 135.658 43.9293 136.71 45.1764C137.762 46.4234 138.499 47.9048 138.859 49.496C139.219 51.0872 139.192 52.7416 138.78 54.3201V54.3106ZM110.195 40.1486V53.68H71.222V40.1486H110.195Z" stroke="#110002" stroke-width="4" stroke-linecap="round" stroke-linejoin="round"/>
<path d="M19.3766 29.8555H159.025C159.938 29.8555 160.813 30.2173 161.459 30.8617C162.105 31.506 162.469 32.3803 162.472 33.2929V74.8356C162.472 75.2886 162.384 75.7374 162.211 76.1561C162.038 76.5749 161.784 76.9554 161.464 77.276C161.144 77.5965 160.764 77.8509 160.345 78.0244C159.927 78.1979 159.478 78.2872 159.025 78.2872H19.3766C18.9235 78.2872 18.4749 78.1979 18.0564 78.0244C17.6379 77.8509 17.2577 77.5965 16.9376 77.276C16.6174 76.9554 16.3637 76.5749 16.1907 76.1561C16.0178 75.7374 15.9291 75.2886 15.9297 74.8356V33.2929C15.9322 32.3803 16.2965 31.506 16.9426 30.8617C17.5887 30.2173 18.464 29.8555 19.3766 29.8555Z" fill="#FFEADF"/>
<path d="M128.662 36.9199H52.9684C49.0791 36.9894 45.3726 38.5833 42.6467 41.3583C39.9209 44.1334 38.3936 47.8677 38.3936 51.7576C38.3936 55.6475 39.9209 59.3819 42.6467 62.1569C45.3726 64.932 49.0791 66.5258 52.9684 66.5953H128.662C132.552 66.5258 136.258 64.932 138.984 62.1569C141.71 59.3819 143.237 55.6475 143.237 51.7576C143.237 47.8677 141.71 44.1334 138.984 41.3583C136.258 38.5833 132.552 36.9894 128.662 36.9199ZM63.162 51.8501C63.162 52.035 63.162 52.2246 63.162 52.4143C63.162 52.4996 63.162 52.585 63.162 52.6703C63.1644 52.6876 63.1644 52.7052 63.162 52.7225C63.162 52.7936 63.162 52.8647 63.162 52.9358C63.1643 52.969 63.1643 53.0022 63.162 53.0354C63.162 53.1065 63.162 53.1729 63.162 53.2393C63.1647 53.2502 63.1647 53.2615 63.162 53.2724C63.1431 53.421 63.1194 53.568 63.0909 53.7134C63.0625 53.8746 63.0293 54.0405 62.9866 54.1875C62.9866 54.2586 62.9534 54.3345 62.9345 54.4103C62.9155 54.4862 62.9345 54.4103 62.9345 54.4103C62.9345 54.4909 62.8965 54.5668 62.8728 54.6427C62.8302 54.8086 62.778 54.9698 62.7211 55.1168C62.6642 55.2638 62.6121 55.4202 62.5504 55.5909C62.4841 55.7521 62.4177 55.9133 62.3465 56.065C62.3465 56.1077 62.3086 56.1504 62.2849 56.1931C62.284 56.2041 62.284 56.2152 62.2849 56.2262C62.2793 56.2469 62.2696 56.2662 62.2565 56.2831C62.2218 56.366 62.1822 56.4467 62.1379 56.5249C62.0953 56.6055 62.0526 56.6909 62.0052 56.7667C61.9198 56.9185 61.8345 57.0702 61.7444 57.2409C61.6543 57.4116 61.6448 57.4021 61.588 57.4827C61.5311 57.5633 61.422 57.7245 61.3367 57.8477C61.3367 57.8477 61.3367 57.8477 61.3367 57.8762L61.2371 58.0042C61.0578 58.2476 60.8663 58.4818 60.6634 58.7059L60.5733 58.8007L60.2841 59.0994L60.1134 59.2654L59.9522 59.4171L59.8858 59.4787L59.7104 59.6304C59.6458 59.6913 59.5778 59.7482 59.5065 59.8011L59.2979 59.9671L59.0751 60.133L58.8523 60.2895L58.6294 60.4412L58.3971 60.5834C58.3212 60.6308 58.2454 60.6783 58.1648 60.7209C57.9419 60.8537 57.6907 60.9722 57.4773 61.086L57.3161 61.1619L57.079 61.2662L56.804 61.38C56.7282 61.4084 56.6523 61.4416 56.5765 61.4653H56.5148L56.273 61.5459C56.1829 61.5791 56.0976 61.6028 56.0028 61.6312C55.9126 61.6615 55.8208 61.6869 55.7278 61.7071C55.5831 61.7464 55.4377 61.7828 55.2916 61.8162L55.064 61.8636C54.9881 61.8636 54.9123 61.892 54.8364 61.9062L54.5567 61.9537L54.277 61.9916C54.2312 61.9942 54.1853 61.9942 54.1395 61.9916H53.9688H53.9071H53.727H53.4615H53.324C53.1296 61.9916 52.9352 61.9916 52.7455 61.9916C52.5559 61.9916 52.39 61.9916 52.2145 61.9631L51.9348 61.9394L51.3801 61.8636L51.1383 61.8209H51.0861L50.8348 61.764L50.5978 61.7119L50.5077 61.6881C50.356 61.6502 50.1979 61.6075 50.0336 61.5601L49.8724 61.508L49.7586 61.47C49.6211 61.4274 49.4883 61.3752 49.3603 61.3278L49.0995 61.2235L48.872 61.1239L48.6491 61.0196L48.4358 60.9153L48.194 60.7921C48.1276 60.7541 48.0565 60.7209 47.9901 60.6783C47.772 60.555 47.5539 60.4222 47.3453 60.28C47.2125 60.1947 47.0892 60.1046 46.9612 60.0145L46.7621 59.858L46.5677 59.7063L46.3781 59.5451C46.25 59.4408 46.1315 59.3318 46.0082 59.218L45.8328 59.0473C45.7854 59.0046 45.7427 58.9572 45.7001 58.9145L45.5152 58.7201L45.3397 58.521C45.2781 58.4546 45.2212 58.3882 45.1643 58.3171C45.079 58.2176 44.9984 58.1133 44.9178 58.0089L44.7708 57.8098L44.6949 57.7008C44.6433 57.6359 44.5958 57.5678 44.5527 57.4969C44.4531 57.3547 44.363 57.2124 44.273 57.0654C44.1829 56.9185 44.0169 56.6245 43.9031 56.3969C43.8273 56.2452 43.7514 56.0887 43.685 55.9228C43.6187 55.7569 43.557 55.6383 43.5001 55.4913C43.5001 55.4439 43.4669 55.4013 43.448 55.3539L43.3626 55.1168L43.2773 54.8608C43.2488 54.7754 43.2251 54.6853 43.2014 54.6C43.1445 54.4246 43.1019 54.2444 43.0592 54.069L43.0023 53.794C42.9505 53.5543 42.911 53.3122 42.8838 53.0686C42.8458 52.7983 42.8221 52.5281 42.8079 52.2626C42.8079 52.0887 42.8079 51.9133 42.8079 51.7363C42.8079 51.5466 42.8079 51.3665 42.8079 51.1816C42.8079 51.0867 42.8079 50.9967 42.8079 50.9066C42.8079 50.6363 42.8648 50.3756 42.9027 50.11C42.9359 49.9204 42.9691 49.726 43.0118 49.5411C43.0305 49.442 43.0542 49.3438 43.0829 49.2471C43.0829 49.1618 43.1208 49.0812 43.1445 48.9959L43.2157 48.7541C43.2157 48.6734 43.2678 48.5881 43.2963 48.5075C43.3437 48.351 43.4006 48.1946 43.4622 48.0334C43.5238 47.8722 43.5902 47.711 43.6613 47.5593L43.7135 47.4502C43.8323 47.1763 43.9685 46.9102 44.1212 46.6537C44.1829 46.5446 44.2445 46.4308 44.3156 46.3265V46.2791L44.5242 45.9615C44.5764 45.8903 44.6191 45.824 44.6712 45.7576C45.0885 45.1784 45.5652 44.6445 46.0936 44.1645L46.2927 43.9891L46.4871 43.8232L46.5677 43.7236L46.7811 43.5624L46.9992 43.4059L47.222 43.259L47.4448 43.112L47.6772 42.9697L47.9095 42.837L48.1465 42.7137C48.1999 42.6816 48.2553 42.653 48.3125 42.6284L48.4642 42.5525C48.725 42.4292 48.9857 42.3154 49.256 42.2159L49.5168 42.1211L49.787 42.031L49.9198 41.993L50.0573 41.9504H50.1189L50.3228 41.8935L50.5883 41.8318C50.7684 41.7892 50.9486 41.756 51.1335 41.7228L51.3279 41.6896L51.5223 41.6612L51.7878 41.628H51.821C51.8826 41.628 51.9443 41.628 52.0107 41.628H52.077H52.3568H52.7076H53.1201H53.5942H53.8218L54.1063 41.6564L54.386 41.6896C54.7532 41.7442 55.1173 41.8186 55.4765 41.9124L55.6709 41.9646L56.0217 42.0736L56.2019 42.1305C56.4579 42.2206 56.714 42.3202 56.9652 42.4292C57.1075 42.4909 57.2545 42.5573 57.392 42.6284C57.7092 42.7822 58.0178 42.9531 58.3165 43.1404L58.4919 43.2542C58.9465 43.5507 59.3762 43.8837 59.7768 44.2499L59.9427 44.4016L60.0139 44.4727L60.1419 44.596L60.36 44.8236C60.4121 44.8757 60.4595 44.9279 60.507 44.9848C60.5544 45.0417 60.597 45.0843 60.6397 45.1317L60.725 45.2361L60.7677 45.2882L60.8056 45.3309C60.8436 45.3783 60.8815 45.421 60.9147 45.4684C60.9521 45.5105 60.9869 45.5548 61.019 45.6011C61.0759 45.6675 61.1281 45.7434 61.1802 45.8145C61.2324 45.8856 61.1802 45.8145 61.1802 45.8145C61.1802 45.8145 61.275 45.9472 61.3224 46.0136C61.6641 46.5035 61.9623 47.0223 62.2138 47.564C62.2422 47.6304 62.2754 47.6968 62.3039 47.7679C62.3323 47.839 62.4177 48.0381 62.4698 48.1756C62.522 48.3131 62.5931 48.517 62.65 48.6877C62.6784 48.7778 62.7069 48.8678 62.7306 48.9579C62.7543 49.048 62.7827 49.1381 62.8065 49.2282C62.8302 49.3183 62.8539 49.4083 62.8728 49.4984C62.8918 49.5885 62.9155 49.6833 62.9345 49.7782C62.9534 49.873 62.9724 49.9631 62.9866 50.0579C63.0008 50.1527 62.9866 50.148 63.0103 50.1954C63.0244 50.2642 63.034 50.3339 63.0388 50.404C63.0672 50.5984 63.0909 50.7975 63.1099 50.9919C63.1099 51.0867 63.1099 51.1816 63.1099 51.2764C63.1099 51.4613 63.1099 51.6509 63.1099 51.8453L63.162 51.8501ZM110.195 53.6802H71.2221V40.1487H110.195V53.6802ZM138.761 54.3155C138.593 54.9701 138.358 55.6056 138.059 56.212C137.423 57.5223 136.514 58.6808 135.391 59.6092C134.269 60.5376 132.961 61.2142 131.554 61.5933C131.265 61.6692 130.971 61.7356 130.668 61.7877C130.302 61.853 129.934 61.8973 129.563 61.9205C127.962 62.0247 126.358 61.7495 124.883 61.1172C123.408 60.4849 122.103 59.5134 121.074 58.2817C120.045 57.05 119.321 55.5928 118.962 54.0287C118.602 52.4646 118.617 50.8377 119.004 49.2803C119.167 48.6261 119.398 47.9906 119.692 47.3838C120.307 46.0831 121.192 44.9278 122.287 43.9944C123.382 43.061 124.663 42.3707 126.045 41.9693C126.4 41.8639 126.761 41.7785 127.126 41.7133C127.43 41.6612 127.728 41.6232 128.027 41.5995C129.652 41.4593 131.288 41.7114 132.795 42.3347C134.303 42.958 135.639 43.9342 136.691 45.1813C137.743 46.4283 138.48 47.9097 138.84 49.5009C139.2 51.0921 139.173 52.7465 138.761 54.325V54.3155Z" fill="#4D4D4D" stroke="#110002" stroke-width="4" stroke-linecap="round" stroke-linejoin="round"/>
<path d="M110.195 40.1484V53.6799H105.022C104.97 53.0446 104.946 52.4093 104.946 51.7834C104.939 47.7218 105.972 43.726 107.948 40.1769L110.195 40.1484Z" fill="black" stroke="#110002" stroke-width="4" stroke-linecap="round" stroke-linejoin="round"/>
<path d="M85.9717 51.755C85.9717 52.3872 85.9527 53.0193 85.9148 53.6515H71.2217V40.1484H83.8571C85.2541 43.8587 85.9705 47.7905 85.9717 51.755Z" fill="black" stroke="#110002" stroke-width="4" stroke-linecap="round" stroke-linejoin="round"/>
<path d="M155.005 110.194H29.248L35.8858 89.5274C36.2379 88.435 36.9275 87.4825 37.8553 86.8069C38.7831 86.1313 39.9013 85.7674 41.049 85.7676H142.497C143.617 85.7676 144.71 86.1144 145.625 86.7605C146.541 87.4065 147.233 88.3201 147.608 89.3757L155.005 110.194Z" fill="#BCBCBC" stroke="#110002" stroke-width="4" stroke-linecap="round" stroke-linejoin="round"/>
<path d="M67.4911 93.0371H66.301C65.3479 93.0371 64.5752 93.8098 64.5752 94.7629V95.953C64.5752 96.9061 65.3479 97.6788 66.301 97.6788H67.4911C68.4442 97.6788 69.2169 96.9061 69.2169 95.953V94.7629C69.2169 93.8098 68.4442 93.0371 67.4911 93.0371Z" fill="#333333"/>
<path d="M115.733 93.0371H114.543C113.59 93.0371 112.817 93.8098 112.817 94.7629V95.953C112.817 96.9061 113.59 97.6788 114.543 97.6788H115.733C116.686 97.6788 117.459 96.9061 117.459 95.953V94.7629C117.459 93.8098 116.686 93.0371 115.733 93.0371Z" fill="#333333"/>
<path d="M42.8744 106.155C45.1604 106.155 47.0136 104.302 47.0136 102.016C47.0136 99.7301 45.1604 97.877 42.8744 97.877C40.5885 97.877 38.7354 99.7301 38.7354 102.016C38.7354 104.302 40.5885 106.155 42.8744 106.155Z" fill="#333333"/>
<path d="M139.363 106.155C141.649 106.155 143.502 104.302 143.502 102.016C143.502 99.7301 141.649 97.877 139.363 97.877C137.077 97.877 135.224 99.7301 135.224 102.016C135.224 104.302 137.077 106.155 139.363 106.155Z" fill="#333333"/>
<path d="M90.9174 97.8817C93.2034 97.8817 95.0565 96.0286 95.0565 93.7426C95.0565 91.4567 93.2034 89.6035 90.9174 89.6035C88.6315 89.6035 86.7783 91.4567 86.7783 93.7426C86.7783 96.0286 88.6315 97.8817 90.9174 97.8817Z" fill="#333333"/>
<path d="M9.67148 106.155C11.2321 106.155 12.4973 104.89 12.4973 103.33C12.4973 101.769 11.2321 100.504 9.67148 100.504C8.11085 100.504 6.8457 101.769 6.8457 103.33C6.8457 104.89 8.11085 106.155 9.67148 106.155Z" fill="#BCBCBC"/>
<path d="M9.67148 12.4973C11.2321 12.4973 12.4973 11.2321 12.4973 9.67148C12.4973 8.11085 11.2321 6.8457 9.67148 6.8457C8.11085 6.8457 6.8457 8.11085 6.8457 9.67148C6.8457 11.2321 8.11085 12.4973 9.67148 12.4973Z" fill="#BCBCBC"/>
<path d="M169.74 105.753C171.3 105.753 172.566 104.488 172.566 102.927C172.566 101.367 171.3 100.102 169.74 100.102C168.179 100.102 166.914 101.367 166.914 102.927C166.914 104.488 168.179 105.753 169.74 105.753Z" fill="#BCBCBC"/>
<path d="M169.74 12.0949C171.3 12.0949 172.566 10.8298 172.566 9.26914C172.566 7.7085 171.3 6.44336 169.74 6.44336C168.179 6.44336 166.914 7.7085 166.914 9.26914C166.914 10.8298 168.179 12.0949 169.74 12.0949Z" fill="#BCBCBC"/>
<path d="M306.189 43.6369L304.197 43.9878L303.842 41.9538C304.197 41.8484 304.558 41.7629 304.923 41.6978C305.226 41.6456 305.525 41.6077 305.824 41.584L306.189 43.6369Z" fill="black" stroke="#110002" stroke-width="4" stroke-linecap="round" stroke-linejoin="round"/>
<path d="M315.084 45.9511L313.438 47.3308L312.144 45.7851L313.78 44.4102C314.265 44.8792 314.701 45.3954 315.084 45.9511Z" fill="black" stroke="#110002" stroke-width="4" stroke-linecap="round" stroke-linejoin="round"/>
<path d="M316.558 54.3108C316.39 54.9654 316.154 55.6009 315.856 56.2073L313.898 55.4961L314.59 53.5996L316.558 54.3108Z" fill="black" stroke="#110002" stroke-width="4" stroke-linecap="round" stroke-linejoin="round"/>
<path d="M309.351 61.5834C309.062 61.6593 308.768 61.7257 308.465 61.7778C308.099 61.8431 307.731 61.8874 307.36 61.9106L307.023 59.9809L309.005 59.6348L309.351 61.5834Z" fill="black" stroke="#110002" stroke-width="4" stroke-linecap="round" stroke-linejoin="round"/>
<path d="M300.997 57.7722L299.537 59.0002C299.055 58.526 298.622 58.0051 298.243 57.4451L299.698 56.2266L300.997 57.7722Z" fill="black" stroke="#110002" stroke-width="4" stroke-linecap="round" stroke-linejoin="round"/>
<path d="M299.328 48.0368L298.636 49.9333L296.801 49.2695C296.964 48.6154 297.195 47.9798 297.489 47.373L299.328 48.0368Z" fill="black" stroke="#110002" stroke-width="4" stroke-linecap="round" stroke-linejoin="round"/>
<path d="M223.416 48.0561L223.335 48.2836L222.724 49.9526L220.894 49.284C220.894 49.1987 220.936 49.1181 220.955 49.0375L221.026 48.7957C221.026 48.7151 221.078 48.6345 221.107 48.5539C221.154 48.3974 221.211 48.241 221.268 48.0798C221.325 47.9186 221.401 47.7621 221.472 47.6056C221.487 47.575 221.502 47.5449 221.519 47.5156C221.641 47.2461 221.777 46.9834 221.927 46.7285C221.799 46.9514 221.681 47.1789 221.572 47.4065L223.416 48.0561Z" fill="black" stroke="#110002" stroke-width="4" stroke-linecap="round" stroke-linejoin="round"/>
<path d="M225.067 57.7898L223.606 59.013L223.478 58.8803L223.293 58.6906L223.118 58.4962C223.056 58.4299 222.999 58.3587 222.943 58.2924C222.886 58.226 222.943 58.2924 222.943 58.2924L222.701 57.9842L222.554 57.7898L222.468 57.6618C222.416 57.5954 222.374 57.529 222.326 57.4626L223.777 56.2441L224 56.5096L225.067 57.7898Z" fill="black" stroke="#110002" stroke-width="4" stroke-linecap="round" stroke-linejoin="round"/>
<path d="M233.558 61.5605L233.425 61.5985L233.207 61.6554L232.989 61.7075L232.762 61.7549L232.534 61.7976C232.444 61.7976 232.354 61.8308 232.259 61.8403L231.984 61.8782H231.847H231.676H231.614H231.429L231.093 59.9485L231.482 59.8821L233.079 59.5977L233.425 61.5463L233.558 61.5605Z" fill="black" stroke="#110002" stroke-width="4" stroke-linecap="round" stroke-linejoin="round"/>
<path d="M240.632 54.3295C240.608 54.4053 240.589 54.4812 240.565 54.5571C240.523 54.7183 240.471 54.8842 240.418 55.0312C240.366 55.1782 240.309 55.3346 240.248 55.5053C240.186 55.6665 240.12 55.823 240.049 55.9794C240.04 55.9947 240.032 56.0106 240.025 56.0268C240.019 56.042 240.011 56.0563 240.001 56.0695V56.1074V56.1359L239.973 56.1975L238.015 55.4863L238.133 55.1497L238.702 53.5898L240.632 54.3295Z" fill="black" stroke="#110002" stroke-width="4" stroke-linecap="round" stroke-linejoin="round"/>
<path d="M239.153 45.9656L237.507 47.35L237.346 47.1557L236.218 45.8044L237.853 44.4294L237.953 44.5243L238.162 44.7376L238.347 44.9368L238.475 45.0837L238.565 45.188L238.607 45.2355C238.62 45.2501 238.631 45.266 238.641 45.2829C238.679 45.325 238.716 45.3693 238.75 45.4156C238.788 45.4583 238.821 45.5057 238.854 45.5484C238.887 45.591 238.963 45.6906 239.015 45.7617C239.063 45.8329 239.11 45.8992 239.153 45.9656Z" fill="black" stroke="#110002" stroke-width="4" stroke-linecap="round" stroke-linejoin="round"/>
<path d="M230.258 43.6571L230.064 43.6902L228.271 44.0032L227.911 41.9739L227.778 42.0118L227.911 41.9692L228.177 41.8981L228.437 41.8317L228.983 41.7226L229.172 41.6894H229.362C229.45 41.6737 229.538 41.6626 229.627 41.6562H229.661H229.846H229.883L230.258 43.6571Z" fill="black" stroke="#110002" stroke-width="4" stroke-linecap="round" stroke-linejoin="round"/>
<path d="M348.827 2H186.378C185.513 1.99938 184.657 2.16917 183.859 2.49967C183.06 2.83017 182.334 3.31488 181.723 3.92609C181.112 4.53731 180.627 5.26302 180.297 6.06172C179.966 6.86043 179.796 7.71646 179.797 8.58084V103.614C179.797 105.36 180.49 107.033 181.724 108.268C182.959 109.502 184.632 110.195 186.378 110.195H348.827C350.572 110.195 352.246 109.502 353.48 108.268C354.714 107.033 355.408 105.36 355.408 103.614V8.58084C355.408 7.71646 355.238 6.86043 354.908 6.06172C354.577 5.26302 354.093 4.53731 353.481 3.92609C352.87 3.31488 352.145 2.83017 351.346 2.49967C350.547 2.16917 349.691 1.99938 348.827 2ZM209.268 28.8449H328.16V72.2462H209.268V28.8449Z" fill="#4D4D4D" stroke="#110002" stroke-width="4" stroke-linecap="round" stroke-linejoin="round"/>
<path d="M208.951 9.67188H326.059C331.006 9.67188 335.75 11.637 339.248 15.1349C342.746 18.6329 344.711 23.3771 344.711 28.3239V77.9078C344.712 78.4617 344.603 79.0103 344.392 79.5222C344.18 80.0342 343.87 80.4994 343.478 80.8913C343.087 81.2832 342.622 81.5941 342.11 81.8062C341.599 82.0183 341.05 82.1275 340.496 82.1275H194.495C193.38 82.1237 192.312 81.6786 191.525 80.8896C190.738 80.1006 190.295 79.0318 190.294 77.9173V28.3239C190.294 25.8741 190.777 23.4483 191.714 21.185C192.652 18.9217 194.026 16.8653 195.759 15.1333C197.491 13.4012 199.548 12.0274 201.811 11.0903C204.075 10.1532 206.501 9.67125 208.951 9.67188Z" fill="#F43518"/>
<path d="M240.011 56.1739C240.011 56.1739 240.011 56.2071 239.987 56.2213V56.2545C239.986 56.2656 239.986 56.2767 239.987 56.2877C239.981 56.3084 239.972 56.3277 239.958 56.3446L239.92 56.4205C239.92 56.4205 239.92 56.4679 239.883 56.4963L239.802 56.6481M326.059 9.67188H208.951C206.501 9.67125 204.075 10.1532 201.811 11.0903C199.548 12.0274 197.491 13.4012 195.759 15.1333C194.026 16.8653 192.652 18.9217 191.714 21.185C190.777 23.4483 190.294 25.8741 190.294 28.3239V77.9173C190.295 79.0318 190.738 80.1006 191.525 80.8896C192.312 81.6786 193.38 82.1237 194.495 82.1275H340.496C341.05 82.1275 341.599 82.0183 342.11 81.8062C342.622 81.5941 343.087 81.2832 343.478 80.8913C343.87 80.4994 344.18 80.0342 344.392 79.5222C344.603 79.0103 344.712 78.4617 344.711 77.9078V28.3239C344.711 23.3771 342.746 18.6329 339.248 15.1349C335.75 11.637 331.006 9.67188 326.059 9.67188V9.67188ZM316.577 54.3106C316.409 54.9652 316.173 55.6007 315.875 56.2071C315.239 57.5174 314.329 58.6759 313.207 59.6043C312.085 60.5327 310.776 61.2093 309.37 61.5884C309.081 61.6643 308.787 61.7307 308.484 61.7828C308.118 61.8481 307.749 61.8924 307.379 61.9156C305.777 62.0198 304.174 61.7446 302.699 61.1123C301.224 60.48 299.918 59.5085 298.89 58.2768C297.861 57.0451 297.137 55.5879 296.777 54.0238C296.418 52.4597 296.432 50.8328 296.82 49.2754C296.983 48.6213 297.214 47.9857 297.508 47.3789C298.123 46.0782 299.008 44.9229 300.103 43.9895C301.198 43.0561 302.479 42.3658 303.861 41.9644C304.216 41.8591 304.577 41.7736 304.942 41.7084C305.245 41.6563 305.544 41.6183 305.843 41.5946C307.468 41.4544 309.103 41.7065 310.611 42.3298C312.119 42.9531 313.455 43.9293 314.507 45.1764C315.559 46.4234 316.296 47.9048 316.656 49.496C317.016 51.0872 316.989 52.7416 316.577 54.3201V54.3106ZM287.992 40.1486V53.68H249.019V40.1486H287.992Z" stroke="#110002" stroke-width="4" stroke-linecap="round" stroke-linejoin="round"/>
<path d="M197.173 29.8555H336.822C337.734 29.8555 338.61 30.2173 339.256 30.8617C339.902 31.506 340.266 32.3803 340.269 33.2929V74.8356C340.269 75.2886 340.181 75.7374 340.008 76.1561C339.835 76.5749 339.581 76.9554 339.261 77.276C338.941 77.5965 338.561 77.8509 338.142 78.0244C337.724 78.1979 337.275 78.2872 336.822 78.2872H197.173C196.72 78.2872 196.272 78.1979 195.853 78.0244C195.435 77.8509 195.055 77.5965 194.734 77.276C194.414 76.9554 194.161 76.5749 193.988 76.1561C193.815 75.7374 193.726 75.2886 193.727 74.8356V33.2929C193.729 32.3803 194.093 31.506 194.739 30.8617C195.386 30.2173 196.261 29.8555 197.173 29.8555Z" fill="#FFEADF"/>
<path d="M306.459 36.9199H230.765C226.876 36.9894 223.169 38.5833 220.444 41.3583C217.718 44.1334 216.19 47.8677 216.19 51.7576C216.19 55.6475 217.718 59.3819 220.444 62.1569C223.169 64.932 226.876 66.5258 230.765 66.5953H306.459C310.348 66.5258 314.055 64.932 316.781 62.1569C319.507 59.3819 321.034 55.6475 321.034 51.7576C321.034 47.8677 319.507 44.1334 316.781 41.3583C314.055 38.5833 310.348 36.9894 306.459 36.9199ZM240.959 51.8501C240.959 52.035 240.959 52.2246 240.959 52.4143C240.959 52.4996 240.959 52.585 240.959 52.6703C240.961 52.6876 240.961 52.7052 240.959 52.7225C240.959 52.7936 240.959 52.8647 240.959 52.9358C240.961 52.969 240.961 53.0022 240.959 53.0354C240.959 53.1065 240.959 53.1729 240.959 53.2393C240.962 53.2502 240.962 53.2615 240.959 53.2724C240.94 53.421 240.916 53.568 240.888 53.7134C240.859 53.8746 240.826 54.0405 240.783 54.1875C240.783 54.2586 240.75 54.3345 240.731 54.4103C240.712 54.4862 240.731 54.4103 240.731 54.4103C240.731 54.4909 240.693 54.5668 240.67 54.6427C240.627 54.8086 240.575 54.9698 240.518 55.1168C240.461 55.2638 240.409 55.4202 240.347 55.5909C240.281 55.7521 240.215 55.9133 240.143 56.065C240.143 56.1077 240.105 56.1504 240.082 56.1931C240.081 56.2041 240.081 56.2152 240.082 56.2262C240.076 56.2469 240.067 56.2662 240.053 56.2831C240.019 56.366 239.979 56.4467 239.935 56.5249C239.892 56.6055 239.849 56.6909 239.802 56.7667C239.717 56.9185 239.631 57.0702 239.541 57.2409C239.451 57.4116 239.442 57.4021 239.385 57.4827C239.328 57.5633 239.219 57.7245 239.134 57.8477C239.134 57.8477 239.134 57.8477 239.134 57.8762L239.034 58.0042C238.855 58.2476 238.663 58.4818 238.46 58.7059L238.37 58.8007L238.081 59.0994L237.91 59.2654L237.749 59.4171L237.683 59.4787L237.507 59.6304C237.443 59.6913 237.375 59.7482 237.303 59.8011L237.095 59.9671L236.872 60.133L236.649 60.2895L236.426 60.4412L236.194 60.5834C236.118 60.6308 236.042 60.6783 235.962 60.7209C235.739 60.8537 235.488 60.9722 235.274 61.086L235.113 61.1619L234.876 61.2662L234.601 61.38C234.525 61.4084 234.449 61.4416 234.373 61.4653H234.312L234.07 61.5459C233.98 61.5791 233.894 61.6028 233.8 61.6312C233.709 61.6615 233.618 61.6869 233.525 61.7071C233.38 61.7464 233.235 61.7828 233.088 61.8162L232.861 61.8636C232.785 61.8636 232.709 61.892 232.633 61.9062L232.354 61.9537L232.074 61.9916C232.028 61.9942 231.982 61.9942 231.936 61.9916H231.766H231.704H231.524H231.258H231.121C230.926 61.9916 230.732 61.9916 230.542 61.9916C230.353 61.9916 230.187 61.9916 230.011 61.9631L229.732 61.9394L229.177 61.8636L228.935 61.8209H228.883L228.632 61.764L228.395 61.7119L228.305 61.6881C228.153 61.6502 227.995 61.6075 227.83 61.5601L227.669 61.508L227.555 61.47C227.418 61.4274 227.285 61.3752 227.157 61.3278L226.896 61.2235L226.669 61.1239L226.446 61.0196L226.233 60.9153L225.991 60.7921C225.924 60.7541 225.853 60.7209 225.787 60.6783C225.569 60.555 225.351 60.4222 225.142 60.28C225.009 60.1947 224.886 60.1046 224.758 60.0145L224.559 59.858L224.365 59.7063L224.175 59.5451C224.047 59.4408 223.928 59.3318 223.805 59.218L223.63 59.0473C223.582 59.0046 223.54 58.9572 223.497 58.9145L223.312 58.7201L223.137 58.521C223.075 58.4546 223.018 58.3882 222.961 58.3171C222.876 58.2176 222.795 58.1133 222.715 58.0089L222.568 57.8098L222.492 57.7008C222.44 57.6359 222.393 57.5678 222.35 57.4969C222.25 57.3547 222.16 57.2124 222.07 57.0654C221.98 56.9185 221.814 56.6245 221.7 56.3969C221.624 56.2452 221.548 56.0887 221.482 55.9228C221.416 55.7569 221.354 55.6383 221.297 55.4913C221.297 55.4439 221.264 55.4013 221.245 55.3539L221.16 55.1168L221.074 54.8608C221.046 54.7754 221.022 54.6853 220.998 54.6C220.941 54.4246 220.899 54.2444 220.856 54.069L220.799 53.794C220.747 53.5543 220.708 53.3122 220.681 53.0686C220.643 52.7983 220.619 52.5281 220.605 52.2626C220.605 52.0887 220.605 51.9133 220.605 51.7363C220.605 51.5466 220.605 51.3665 220.605 51.1816C220.605 51.0867 220.605 50.9967 220.605 50.9066C220.605 50.6363 220.662 50.3756 220.7 50.11C220.733 49.9204 220.766 49.726 220.809 49.5411C220.827 49.442 220.851 49.3438 220.88 49.2471C220.88 49.1618 220.918 49.0812 220.941 48.9959L221.013 48.7541C221.013 48.6734 221.065 48.5881 221.093 48.5075C221.141 48.351 221.197 48.1946 221.259 48.0334C221.321 47.8722 221.387 47.711 221.458 47.5593L221.51 47.4502C221.629 47.1763 221.765 46.9102 221.918 46.6537C221.98 46.5446 222.041 46.4308 222.112 46.3265V46.2791L222.321 45.9615C222.373 45.8903 222.416 45.824 222.468 45.7576C222.885 45.1784 223.362 44.6445 223.89 44.1645L224.09 43.9891L224.284 43.8232L224.365 43.7236L224.578 43.5624L224.796 43.4059L225.019 43.259L225.242 43.112L225.474 42.9697L225.706 42.837L225.943 42.7137C225.997 42.6816 226.052 42.653 226.109 42.6284L226.261 42.5525C226.522 42.4292 226.783 42.3154 227.053 42.2159L227.314 42.1211L227.584 42.031L227.717 41.993L227.854 41.9504H227.916L228.12 41.8935L228.385 41.8318C228.565 41.7892 228.745 41.756 228.93 41.7228L229.125 41.6896L229.319 41.6612L229.585 41.628H229.618C229.68 41.628 229.741 41.628 229.808 41.628H229.874H230.154H230.504H230.917H231.391H231.619L231.903 41.6564L232.183 41.6896C232.55 41.7442 232.914 41.8186 233.273 41.9124L233.468 41.9646L233.819 42.0736L233.999 42.1305C234.255 42.2206 234.511 42.3202 234.762 42.4292C234.904 42.4909 235.051 42.5573 235.189 42.6284C235.506 42.7822 235.815 42.9531 236.113 43.1404L236.289 43.2542C236.743 43.5507 237.173 43.8837 237.574 44.2499L237.74 44.4016L237.811 44.4727L237.939 44.596L238.157 44.8236C238.209 44.8757 238.256 44.9279 238.304 44.9848C238.351 45.0417 238.394 45.0843 238.437 45.1317L238.522 45.2361L238.565 45.2882L238.603 45.3309C238.64 45.3783 238.678 45.421 238.712 45.4684C238.749 45.5105 238.784 45.5548 238.816 45.6011C238.873 45.6675 238.925 45.7434 238.977 45.8145C239.029 45.8856 238.977 45.8145 238.977 45.8145C238.977 45.8145 239.072 45.9472 239.119 46.0136C239.461 46.5035 239.759 47.0223 240.011 47.564C240.039 47.6304 240.072 47.6968 240.101 47.7679C240.129 47.839 240.215 48.0381 240.267 48.1756C240.319 48.3131 240.39 48.517 240.447 48.6877C240.475 48.7778 240.504 48.8678 240.527 48.9579C240.551 49.048 240.58 49.1381 240.603 49.2282C240.627 49.3183 240.651 49.4083 240.67 49.4984C240.689 49.5885 240.712 49.6833 240.731 49.7782C240.75 49.873 240.769 49.9631 240.783 50.0579C240.798 50.1527 240.783 50.148 240.807 50.1954C240.821 50.2642 240.831 50.3339 240.836 50.404C240.864 50.5984 240.888 50.7975 240.907 50.9919C240.907 51.0867 240.907 51.1816 240.907 51.2764C240.907 51.4613 240.907 51.6509 240.907 51.8453L240.959 51.8501ZM287.992 53.6802H249.019V40.1487H287.992V53.6802ZM316.558 54.3155C316.39 54.9701 316.155 55.6056 315.856 56.212C315.22 57.5223 314.31 58.6808 313.188 59.6092C312.066 60.5376 310.758 61.2142 309.351 61.5933C309.062 61.6692 308.768 61.7356 308.465 61.7877C308.099 61.853 307.73 61.8973 307.36 61.9205C305.758 62.0247 304.155 61.7495 302.68 61.1172C301.205 60.4849 299.9 59.5134 298.871 58.2817C297.842 57.05 297.118 55.5928 296.759 54.0287C296.399 52.4646 296.414 50.8377 296.801 49.2803C296.964 48.6261 297.195 47.9906 297.489 47.3838C298.104 46.0831 298.989 44.9278 300.084 43.9944C301.179 43.061 302.46 42.3707 303.842 41.9693C304.197 41.8639 304.558 41.7785 304.923 41.7133C305.226 41.6612 305.525 41.6232 305.824 41.5995C307.449 41.4593 309.085 41.7114 310.592 42.3347C312.1 42.958 313.436 43.9342 314.488 45.1813C315.54 46.4283 316.277 47.9097 316.637 49.5009C316.997 51.0921 316.97 52.7465 316.558 54.325V54.3155Z" fill="#4D4D4D" stroke="#110002" stroke-width="4" stroke-linecap="round" stroke-linejoin="round"/>
<path d="M287.992 40.1484V53.6799H282.819C282.767 53.0446 282.743 52.4093 282.743 51.7834C282.736 47.7218 283.769 43.726 285.744 40.1769L287.992 40.1484Z" fill="black" stroke="#110002" stroke-width="4" stroke-linecap="round" stroke-linejoin="round"/>
<path d="M263.769 51.755C263.769 52.3872 263.75 53.0193 263.712 53.6515H249.019V40.1484H261.654C263.051 43.8587 263.767 47.7905 263.769 51.755Z" fill="black" stroke="#110002" stroke-width="4" stroke-linecap="round" stroke-linejoin="round"/>
<path d="M332.802 110.194H207.045L213.683 89.5274C214.035 88.435 214.724 87.4825 215.652 86.8069C216.58 86.1313 217.698 85.7674 218.846 85.7676H320.294C321.414 85.7676 322.507 86.1144 323.422 86.7605C324.337 87.4065 325.03 88.3201 325.405 89.3757L332.802 110.194Z" fill="#BCBCBC" stroke="#110002" stroke-width="4" stroke-linecap="round" stroke-linejoin="round"/>
<path d="M245.288 93.0371H244.098C243.145 93.0371 242.372 93.8098 242.372 94.7629V95.953C242.372 96.9061 243.145 97.6788 244.098 97.6788H245.288C246.241 97.6788 247.014 96.9061 247.014 95.953V94.7629C247.014 93.8098 246.241 93.0371 245.288 93.0371Z" fill="#333333"/>
<path d="M293.53 93.0371H292.34C291.386 93.0371 290.614 93.8098 290.614 94.7629V95.953C290.614 96.9061 291.386 97.6788 292.34 97.6788H293.53C294.483 97.6788 295.255 96.9061 295.255 95.953V94.7629C295.255 93.8098 294.483 93.0371 293.53 93.0371Z" fill="#333333"/>
<path d="M220.671 106.155C222.957 106.155 224.81 104.302 224.81 102.016C224.81 99.7303 222.957 97.8772 220.671 97.8772C218.385 97.8772 216.532 99.7303 216.532 102.016C216.532 104.302 218.385 106.155 220.671 106.155Z" fill="#333333"/>
<path d="M317.16 106.155C319.446 106.155 321.299 104.302 321.299 102.016C321.299 99.7303 319.446 97.8772 317.16 97.8772C314.874 97.8772 313.021 99.7303 313.021 102.016C313.021 104.302 314.874 106.155 317.16 106.155Z" fill="#333333"/>
<path d="M268.714 97.8817C271 97.8817 272.853 96.0286 272.853 93.7426C272.853 91.4567 271 89.6035 268.714 89.6035C266.428 89.6035 264.575 91.4567 264.575 93.7426C264.575 96.0286 266.428 97.8817 268.714 97.8817Z" fill="#333333"/>
<path d="M187.468 106.155C189.029 106.155 190.294 104.89 190.294 103.33C190.294 101.769 189.029 100.504 187.468 100.504C185.908 100.504 184.643 101.769 184.643 103.33C184.643 104.89 185.908 106.155 187.468 106.155Z" fill="#BCBCBC"/>
<path d="M187.468 12.4973C189.029 12.4973 190.294 11.2321 190.294 9.67148C190.294 8.11085 189.029 6.8457 187.468 6.8457C185.908 6.8457 184.643 8.11085 184.643 9.67148C184.643 11.2321 185.908 12.4973 187.468 12.4973Z" fill="#BCBCBC"/>
<path d="M347.537 105.753C349.098 105.753 350.363 104.488 350.363 102.927C350.363 101.367 349.098 100.102 347.537 100.102C345.977 100.102 344.711 101.367 344.711 102.927C344.711 104.488 345.977 105.753 347.537 105.753Z" fill="#BCBCBC"/>
<path d="M347.537 12.0949C349.098 12.0949 350.363 10.8298 350.363 9.26914C350.363 7.7085 349.098 6.44336 347.537 6.44336C345.977 6.44336 344.711 7.7085 344.711 9.26914C344.711 10.8298 345.977 12.0949 347.537 12.0949Z" fill="#BCBCBC"/>
<path d="M483.985 43.6369L481.993 43.9878L481.638 41.9538C481.993 41.8484 482.354 41.7629 482.719 41.6978C483.022 41.6456 483.321 41.6077 483.62 41.584L483.985 43.6369Z" fill="black" stroke="#110002" stroke-width="4" stroke-linecap="round" stroke-linejoin="round"/>
<path d="M492.88 45.9511L491.234 47.3308L489.94 45.7851L491.576 44.4102C492.06 44.8792 492.497 45.3954 492.88 45.9511Z" fill="black" stroke="#110002" stroke-width="4" stroke-linecap="round" stroke-linejoin="round"/>
<path d="M494.354 54.3108C494.185 54.9654 493.95 55.6009 493.652 56.2073L491.694 55.4961L492.386 53.5996L494.354 54.3108Z" fill="black" stroke="#110002" stroke-width="4" stroke-linecap="round" stroke-linejoin="round"/>
<path d="M487.147 61.5834C486.858 61.6593 486.564 61.7257 486.261 61.7778C485.895 61.8431 485.526 61.8874 485.156 61.9106L484.819 59.9809L486.801 59.6348L487.147 61.5834Z" fill="black" stroke="#110002" stroke-width="4" stroke-linecap="round" stroke-linejoin="round"/>
<path d="M478.793 57.7722L477.333 59.0002C476.851 58.526 476.417 58.0051 476.039 57.4451L477.494 56.2266L478.793 57.7722Z" fill="black" stroke="#110002" stroke-width="4" stroke-linecap="round" stroke-linejoin="round"/>
<path d="M477.124 48.0368L476.432 49.9333L474.597 49.2695C474.76 48.6154 474.991 47.9798 475.285 47.373L477.124 48.0368Z" fill="black" stroke="#110002" stroke-width="4" stroke-linecap="round" stroke-linejoin="round"/>
<path d="M401.212 48.0561L401.132 48.2836L400.52 49.9526L398.69 49.284C398.69 49.1987 398.733 49.1181 398.752 49.0375L398.823 48.7957C398.823 48.7151 398.875 48.6345 398.903 48.5539C398.951 48.3974 399.008 48.241 399.064 48.0798C399.121 47.9186 399.197 47.7621 399.268 47.6056C399.283 47.575 399.299 47.5449 399.316 47.5156C399.437 47.2461 399.574 46.9834 399.724 46.7285C399.596 46.9514 399.477 47.1789 399.368 47.4065L401.212 48.0561Z" fill="black" stroke="#110002" stroke-width="4" stroke-linecap="round" stroke-linejoin="round"/>
<path d="M402.862 57.7898L401.402 59.013L401.274 58.8803L401.089 58.6906L400.913 58.4962C400.852 58.4299 400.795 58.3587 400.738 58.2924C400.681 58.226 400.738 58.2924 400.738 58.2924L400.496 57.9842L400.349 57.7898L400.264 57.6618C400.212 57.5954 400.169 57.529 400.122 57.4626L401.572 56.2441L401.795 56.5096L402.862 57.7898Z" fill="black" stroke="#110002" stroke-width="4" stroke-linecap="round" stroke-linejoin="round"/>
<path d="M411.354 61.5605L411.221 61.5985L411.003 61.6554L410.785 61.7075L410.557 61.7549L410.33 61.7976C410.239 61.7976 410.149 61.8308 410.055 61.8403L409.78 61.8782H409.642H409.471H409.41H409.225L408.888 59.9485L409.277 59.8821L410.875 59.5977L411.221 61.5463L411.354 61.5605Z" fill="black" stroke="#110002" stroke-width="4" stroke-linecap="round" stroke-linejoin="round"/>
<path d="M418.428 54.3295C418.404 54.4053 418.385 54.4812 418.361 54.5571C418.319 54.7183 418.267 54.8842 418.214 55.0312C418.162 55.1782 418.105 55.3346 418.044 55.5053C417.982 55.6665 417.916 55.823 417.845 55.9794C417.836 55.9947 417.828 56.0106 417.821 56.0268C417.815 56.042 417.807 56.0563 417.797 56.0695V56.1074V56.1359L417.769 56.1975L415.811 55.4863L415.929 55.1497L416.498 53.5898L418.428 54.3295Z" fill="black" stroke="#110002" stroke-width="4" stroke-linecap="round" stroke-linejoin="round"/>
<path d="M416.948 45.9656L415.303 47.35L415.142 47.1557L414.014 45.8044L415.649 44.4294L415.749 44.5243L415.958 44.7376L416.142 44.9368L416.271 45.0837L416.361 45.188L416.403 45.2355C416.416 45.2501 416.427 45.266 416.436 45.2829C416.475 45.325 416.512 45.3693 416.545 45.4156C416.583 45.4583 416.617 45.5057 416.65 45.5484C416.683 45.591 416.759 45.6906 416.811 45.7617C416.858 45.8329 416.906 45.8992 416.948 45.9656Z" fill="black" stroke="#110002" stroke-width="4" stroke-linecap="round" stroke-linejoin="round"/>
<path d="M408.054 43.6571L407.859 43.6902L406.067 44.0032L405.707 41.9739L405.574 42.0118L405.707 41.9692L405.972 41.8981L406.233 41.8317L406.778 41.7226L406.968 41.6894H407.158C407.246 41.6737 407.334 41.6626 407.423 41.6562H407.456H407.641H407.679L408.054 43.6571Z" fill="black" stroke="#110002" stroke-width="4" stroke-linecap="round" stroke-linejoin="round"/>
<path d="M526.623 2H364.174C363.309 1.99938 362.453 2.16917 361.654 2.49967C360.856 2.83017 360.13 3.31488 359.519 3.92609C358.908 4.53731 358.423 5.26302 358.092 6.06172C357.762 6.86043 357.592 7.71646 357.593 8.58084V103.614C357.593 105.36 358.286 107.033 359.52 108.268C360.754 109.502 362.428 110.195 364.174 110.195H526.623C528.368 110.195 530.042 109.502 531.276 108.268C532.51 107.033 533.203 105.36 533.203 103.614V8.58084C533.204 7.71646 533.034 6.86043 532.704 6.06172C532.373 5.26302 531.889 4.53731 531.277 3.92609C530.666 3.31488 529.94 2.83017 529.142 2.49967C528.343 2.16917 527.487 1.99938 526.623 2ZM387.064 28.8449H505.956V72.2462H387.064V28.8449Z" fill="#4D4D4D" stroke="#110002" stroke-width="4" stroke-linecap="round" stroke-linejoin="round"/>
<path d="M386.747 9.67188H503.855C508.802 9.67188 513.546 11.637 517.044 15.1349C520.542 18.6329 522.507 23.3771 522.507 28.3239V77.9078C522.508 78.4617 522.399 79.0103 522.188 79.5222C521.976 80.0342 521.666 80.4994 521.274 80.8913C520.883 81.2832 520.418 81.5941 519.906 81.8062C519.395 82.0183 518.846 82.1275 518.292 82.1275H372.291C371.176 82.1237 370.108 81.6786 369.321 80.8896C368.534 80.1006 368.091 79.0318 368.09 77.9173V28.3239C368.09 25.8741 368.572 23.4483 369.51 21.185C370.448 18.9217 371.822 16.8653 373.555 15.1333C375.287 13.4012 377.344 12.0274 379.607 11.0903C381.871 10.1532 384.297 9.67125 386.747 9.67188Z" fill="#069154"/>
<path d="M417.806 56.1739C417.806 56.1739 417.806 56.2071 417.783 56.2213V56.2545C417.782 56.2656 417.782 56.2767 417.783 56.2877C417.777 56.3084 417.767 56.3277 417.754 56.3446L417.716 56.4205C417.716 56.4205 417.716 56.4679 417.678 56.4963L417.598 56.6481M503.855 9.67188H386.747C384.297 9.67125 381.871 10.1532 379.607 11.0903C377.344 12.0274 375.287 13.4012 373.555 15.1333C371.822 16.8653 370.448 18.9217 369.51 21.185C368.572 23.4483 368.09 25.8741 368.09 28.3239V77.9173C368.091 79.0318 368.534 80.1006 369.321 80.8896C370.108 81.6786 371.176 82.1237 372.291 82.1275H518.292C518.846 82.1275 519.395 82.0183 519.906 81.8062C520.418 81.5941 520.883 81.2832 521.274 80.8913C521.666 80.4994 521.976 80.0342 522.188 79.5222C522.399 79.0103 522.508 78.4617 522.507 77.9078V28.3239C522.507 23.3771 520.542 18.6329 517.044 15.1349C513.546 11.637 508.802 9.67188 503.855 9.67188V9.67188ZM494.373 54.3106C494.204 54.9652 493.969 55.6007 493.671 56.2071C493.035 57.5174 492.125 58.6759 491.003 59.6043C489.881 60.5327 488.572 61.2093 487.166 61.5884C486.877 61.6643 486.583 61.7307 486.279 61.7828C485.914 61.8481 485.545 61.8924 485.175 61.9156C483.573 62.0198 481.97 61.7446 480.495 61.1123C479.019 60.48 477.714 59.5085 476.686 58.2768C475.657 57.0451 474.933 55.5879 474.573 54.0238C474.214 52.4597 474.228 50.8328 474.616 49.2754C474.779 48.6213 475.01 47.9857 475.303 47.3789C475.919 46.0782 476.803 44.9229 477.899 43.9895C478.994 43.0561 480.275 42.3658 481.657 41.9644C482.012 41.8591 482.373 41.7736 482.738 41.7084C483.041 41.6563 483.34 41.6183 483.639 41.5946C485.264 41.4544 486.899 41.7065 488.407 42.3298C489.915 42.9531 491.251 43.9293 492.303 45.1764C493.354 46.4234 494.092 47.9048 494.452 49.496C494.812 51.0872 494.785 52.7416 494.373 54.3201V54.3106ZM465.788 40.1486V53.68H426.815V40.1486H465.788Z" stroke="#110002" stroke-width="4" stroke-linecap="round" stroke-linejoin="round"/>
<path d="M374.969 29.8555H514.618C515.53 29.8555 516.406 30.2173 517.052 30.8617C517.698 31.506 518.062 32.3803 518.065 33.2929V74.8356C518.065 75.2886 517.977 75.7374 517.804 76.1561C517.631 76.5749 517.377 76.9554 517.057 77.276C516.737 77.5965 516.356 77.8509 515.938 78.0244C515.519 78.1979 515.071 78.2872 514.618 78.2872H374.969C374.516 78.2872 374.068 78.1979 373.649 78.0244C373.231 77.8509 372.85 77.5965 372.53 77.276C372.21 76.9554 371.956 76.5749 371.783 76.1561C371.611 75.7374 371.522 75.2886 371.522 74.8356V33.2929C371.525 32.3803 371.889 31.506 372.535 30.8617C373.182 30.2173 374.057 29.8555 374.969 29.8555Z" fill="#FFEADF"/>
<path d="M484.255 36.9199H408.561C404.672 36.9894 400.965 38.5833 398.24 41.3583C395.514 44.1334 393.986 47.8677 393.986 51.7576C393.986 55.6475 395.514 59.3819 398.24 62.1569C400.965 64.932 404.672 66.5258 408.561 66.5953H484.255C488.144 66.5258 491.851 64.932 494.577 62.1569C497.303 59.3819 498.83 55.6475 498.83 51.7576C498.83 47.8677 497.303 44.1334 494.577 41.3583C491.851 38.5833 488.144 36.9894 484.255 36.9199ZM418.755 51.8501C418.755 52.035 418.755 52.2246 418.755 52.4143C418.755 52.4996 418.755 52.585 418.755 52.6703C418.757 52.6876 418.757 52.7052 418.755 52.7225C418.755 52.7936 418.755 52.8647 418.755 52.9358C418.757 52.969 418.757 53.0022 418.755 53.0354C418.755 53.1065 418.755 53.1729 418.755 53.2393C418.757 53.2502 418.757 53.2615 418.755 53.2724C418.736 53.421 418.712 53.568 418.684 53.7134C418.655 53.8746 418.622 54.0405 418.579 54.1875C418.579 54.2586 418.546 54.3345 418.527 54.4103C418.508 54.4862 418.527 54.4103 418.527 54.4103C418.527 54.4909 418.489 54.5668 418.466 54.6427C418.423 54.8086 418.371 54.9698 418.314 55.1168C418.257 55.2638 418.205 55.4202 418.143 55.5909C418.077 55.7521 418.01 55.9133 417.939 56.065C417.939 56.1077 417.901 56.1504 417.878 56.1931C417.877 56.2041 417.877 56.2152 417.878 56.2262C417.872 56.2469 417.862 56.2662 417.849 56.2831C417.815 56.366 417.775 56.4467 417.731 56.5249C417.688 56.6055 417.645 56.6909 417.598 56.7667C417.513 56.9185 417.427 57.0702 417.337 57.2409C417.247 57.4116 417.238 57.4021 417.181 57.4827C417.124 57.5633 417.015 57.7245 416.929 57.8477C416.929 57.8477 416.929 57.8477 416.929 57.8762L416.83 58.0042C416.651 58.2476 416.459 58.4818 416.256 58.7059L416.166 58.8007L415.877 59.0994L415.706 59.2654L415.545 59.4171L415.479 59.4787L415.303 59.6304C415.239 59.6913 415.171 59.7482 415.099 59.8011L414.891 59.9671L414.668 60.133L414.445 60.2895L414.222 60.4412L413.99 60.5834C413.914 60.6308 413.838 60.6783 413.758 60.7209C413.535 60.8537 413.283 60.9722 413.07 61.086L412.909 61.1619L412.672 61.2662L412.397 61.38C412.321 61.4084 412.245 61.4416 412.169 61.4653H412.108L411.866 61.5459C411.776 61.5791 411.69 61.6028 411.596 61.6312C411.505 61.6615 411.414 61.6869 411.321 61.7071C411.176 61.7464 411.03 61.7828 410.884 61.8162L410.657 61.8636C410.581 61.8636 410.505 61.892 410.429 61.9062L410.149 61.9537L409.87 61.9916C409.824 61.9942 409.778 61.9942 409.732 61.9916H409.562H409.5H409.32H409.054H408.917C408.722 61.9916 408.528 61.9916 408.338 61.9916C408.149 61.9916 407.983 61.9916 407.807 61.9631L407.528 61.9394L406.973 61.8636L406.731 61.8209H406.679L406.428 61.764L406.191 61.7119L406.1 61.6881C405.949 61.6502 405.791 61.6075 405.626 61.5601L405.465 61.508L405.351 61.47C405.214 61.4274 405.081 61.3752 404.953 61.3278L404.692 61.2235L404.465 61.1239L404.242 61.0196L404.029 60.9153L403.787 60.7921C403.72 60.7541 403.649 60.7209 403.583 60.6783C403.365 60.555 403.147 60.4222 402.938 60.28C402.805 60.1947 402.682 60.1046 402.554 60.0145L402.355 59.858L402.16 59.7063L401.971 59.5451C401.843 59.4408 401.724 59.3318 401.601 59.218L401.426 59.0473C401.378 59.0046 401.336 58.9572 401.293 58.9145L401.108 58.7201L400.933 58.521C400.871 58.4546 400.814 58.3882 400.757 58.3171C400.672 58.2176 400.591 58.1133 400.511 58.0089L400.364 57.8098L400.288 57.7008C400.236 57.6359 400.189 57.5678 400.145 57.4969C400.046 57.3547 399.956 57.2124 399.866 57.0654C399.776 56.9185 399.61 56.6245 399.496 56.3969C399.42 56.2452 399.344 56.0887 399.278 55.9228C399.211 55.7569 399.15 55.6383 399.093 55.4913C399.093 55.4439 399.06 55.4013 399.041 55.3539L398.955 55.1168L398.87 54.8608C398.842 54.7754 398.818 54.6853 398.794 54.6C398.737 54.4246 398.695 54.2444 398.652 54.069L398.595 53.794C398.543 53.5543 398.504 53.3122 398.477 53.0686C398.439 52.7983 398.415 52.5281 398.401 52.2626C398.401 52.0887 398.401 51.9133 398.401 51.7363C398.401 51.5466 398.401 51.3665 398.401 51.1816C398.401 51.0867 398.401 50.9967 398.401 50.9066C398.401 50.6363 398.458 50.3756 398.496 50.11C398.529 49.9204 398.562 49.726 398.605 49.5411C398.623 49.442 398.647 49.3438 398.676 49.2471C398.676 49.1618 398.714 49.0812 398.737 48.9959L398.808 48.7541C398.808 48.6734 398.861 48.5881 398.889 48.5075C398.936 48.351 398.993 48.1946 399.055 48.0334C399.117 47.8722 399.183 47.711 399.254 47.5593L399.306 47.4502C399.425 47.1763 399.561 46.9102 399.714 46.6537C399.776 46.5446 399.837 46.4308 399.908 46.3265V46.2791L400.117 45.9615C400.169 45.8903 400.212 45.824 400.264 45.7576C400.681 45.1784 401.158 44.6445 401.686 44.1645L401.885 43.9891L402.08 43.8232L402.16 43.7236L402.374 43.5624L402.592 43.4059L402.815 43.259L403.038 43.112L403.27 42.9697L403.502 42.837L403.739 42.7137C403.793 42.6816 403.848 42.653 403.905 42.6284L404.057 42.5525C404.318 42.4292 404.579 42.3154 404.849 42.2159L405.11 42.1211L405.38 42.031L405.513 41.993L405.65 41.9504H405.712L405.916 41.8935L406.181 41.8318C406.361 41.7892 406.541 41.756 406.726 41.7228L406.921 41.6896L407.115 41.6612L407.381 41.628H407.414C407.475 41.628 407.537 41.628 407.603 41.628H407.67H407.95H408.3H408.713H409.187H409.415L409.699 41.6564L409.979 41.6896C410.346 41.7442 410.71 41.8186 411.069 41.9124L411.264 41.9646L411.615 42.0736L411.795 42.1305C412.051 42.2206 412.307 42.3202 412.558 42.4292C412.7 42.4909 412.847 42.5573 412.985 42.6284C413.302 42.7822 413.611 42.9531 413.909 43.1404L414.085 43.2542C414.539 43.5507 414.969 43.8837 415.37 44.2499L415.536 44.4016L415.607 44.4727L415.735 44.596L415.953 44.8236C416.005 44.8757 416.052 44.9279 416.1 44.9848C416.147 45.0417 416.19 45.0843 416.232 45.1317L416.318 45.2361L416.36 45.2882L416.398 45.3309C416.436 45.3783 416.474 45.421 416.507 45.4684C416.545 45.5105 416.58 45.5548 416.612 45.6011C416.669 45.6675 416.721 45.7434 416.773 45.8145C416.825 45.8856 416.773 45.8145 416.773 45.8145C416.773 45.8145 416.868 45.9472 416.915 46.0136C417.257 46.5035 417.555 47.0223 417.807 47.564C417.835 47.6304 417.868 47.6968 417.897 47.7679C417.925 47.839 418.01 48.0381 418.063 48.1756C418.115 48.3131 418.186 48.517 418.243 48.6877C418.271 48.7778 418.3 48.8678 418.323 48.9579C418.347 49.048 418.376 49.1381 418.399 49.2282C418.423 49.3183 418.447 49.4083 418.466 49.4984C418.485 49.5885 418.508 49.6833 418.527 49.7782C418.546 49.873 418.565 49.9631 418.579 50.0579C418.594 50.1527 418.579 50.148 418.603 50.1954C418.617 50.2642 418.627 50.3339 418.632 50.404C418.66 50.5984 418.684 50.7975 418.703 50.9919C418.703 51.0867 418.703 51.1816 418.703 51.2764C418.703 51.4613 418.703 51.6509 418.703 51.8453L418.755 51.8501ZM465.788 53.6802H426.815V40.1487H465.788V53.6802ZM494.354 54.3155C494.186 54.9701 493.951 55.6056 493.652 56.212C493.016 57.5223 492.106 58.6808 490.984 59.6092C489.862 60.5376 488.553 61.2142 487.147 61.5933C486.858 61.6692 486.564 61.7356 486.261 61.7877C485.895 61.853 485.526 61.8973 485.156 61.9205C483.554 62.0247 481.951 61.7495 480.476 61.1172C479.001 60.4849 477.696 59.5134 476.667 58.2817C475.638 57.05 474.914 55.5928 474.554 54.0287C474.195 52.4646 474.209 50.8377 474.597 49.2803C474.76 48.6261 474.991 47.9906 475.285 47.3838C475.9 46.0831 476.785 44.9278 477.88 43.9944C478.975 43.061 480.256 42.3707 481.638 41.9693C481.993 41.8639 482.354 41.7785 482.719 41.7133C483.022 41.6612 483.321 41.6232 483.62 41.5995C485.245 41.4593 486.88 41.7114 488.388 42.3347C489.896 42.958 491.232 43.9342 492.284 45.1813C493.336 46.4283 494.073 47.9097 494.433 49.5009C494.793 51.0921 494.766 52.7465 494.354 54.325V54.3155Z" fill="#4D4D4D" stroke="#110002" stroke-width="4" stroke-linecap="round" stroke-linejoin="round"/>
<path d="M465.788 40.1484V53.6799H460.615C460.563 53.0446 460.539 52.4093 460.539 51.7834C460.532 47.7218 461.565 43.726 463.54 40.1769L465.788 40.1484Z" fill="black" stroke="#110002" stroke-width="4" stroke-linecap="round" stroke-linejoin="round"/>
<path d="M441.565 51.755C441.565 52.3872 441.546 53.0193 441.508 53.6515H426.815V40.1484H439.45C440.847 43.8587 441.564 47.7905 441.565 51.755Z" fill="black" stroke="#110002" stroke-width="4" stroke-linecap="round" stroke-linejoin="round"/>
<path d="M510.597 110.194H384.841L391.479 89.5274C391.831 88.435 392.52 87.4825 393.448 86.8069C394.376 86.1313 395.494 85.7674 396.642 85.7676H498.09C499.21 85.7676 500.303 86.1144 501.218 86.7605C502.133 87.4065 502.826 88.3201 503.201 89.3757L510.597 110.194Z" fill="#BCBCBC" stroke="#110002" stroke-width="4" stroke-linecap="round" stroke-linejoin="round"/>
<path d="M423.083 93.0371H421.893C420.94 93.0371 420.167 93.8098 420.167 94.7629V95.953C420.167 96.9061 420.94 97.6788 421.893 97.6788H423.083C424.036 97.6788 424.809 96.9061 424.809 95.953V94.7629C424.809 93.8098 424.036 93.0371 423.083 93.0371Z" fill="#333333"/>
<path d="M471.326 93.0371H470.135C469.182 93.0371 468.41 93.8098 468.41 94.7629V95.953C468.41 96.9061 469.182 97.6788 470.135 97.6788H471.326C472.279 97.6788 473.051 96.9061 473.051 95.953V94.7629C473.051 93.8098 472.279 93.0371 471.326 93.0371Z" fill="#333333"/>
<path d="M398.467 106.155C400.753 106.155 402.606 104.302 402.606 102.016C402.606 99.7303 400.753 97.8772 398.467 97.8772C396.181 97.8772 394.328 99.7303 394.328 102.016C394.328 104.302 396.181 106.155 398.467 106.155Z" fill="#333333"/>
<path d="M494.956 106.155C497.242 106.155 499.095 104.302 499.095 102.016C499.095 99.7303 497.242 97.8772 494.956 97.8772C492.67 97.8772 490.817 99.7303 490.817 102.016C490.817 104.302 492.67 106.155 494.956 106.155Z" fill="#333333"/>
<path d="M446.51 97.8817C448.796 97.8817 450.649 96.0286 450.649 93.7426C450.649 91.4567 448.796 89.6035 446.51 89.6035C444.224 89.6035 442.371 91.4567 442.371 93.7426C442.371 96.0286 444.224 97.8817 446.51 97.8817Z" fill="#333333"/>
<path d="M365.264 106.155C366.825 106.155 368.09 104.89 368.09 103.33C368.09 101.769 366.825 100.504 365.264 100.504C363.704 100.504 362.438 101.769 362.438 103.33C362.438 104.89 363.704 106.155 365.264 106.155Z" fill="#BCBCBC"/>
<path d="M365.264 12.4973C366.825 12.4973 368.09 11.2321 368.09 9.67148C368.09 8.11085 366.825 6.8457 365.264 6.8457C363.704 6.8457 362.438 8.11085 362.438 9.67148C362.438 11.2321 363.704 12.4973 365.264 12.4973Z" fill="#BCBCBC"/>
<path d="M525.333 105.753C526.894 105.753 528.159 104.488 528.159 102.927C528.159 101.367 526.894 100.102 525.333 100.102C523.772 100.102 522.507 101.367 522.507 102.927C522.507 104.488 523.772 105.753 525.333 105.753Z" fill="#BCBCBC"/>
<path d="M525.333 12.0949C526.894 12.0949 528.159 10.8298 528.159 9.26914C528.159 7.7085 526.894 6.44336 525.333 6.44336C523.772 6.44336 522.507 7.7085 522.507 9.26914C522.507 10.8298 523.772 12.0949 525.333 12.0949Z" fill="#BCBCBC"/>
<path d="M661.781 43.6369L659.79 43.9878L659.434 41.9538C659.789 41.8484 660.15 41.7629 660.515 41.6978C660.819 41.6456 661.117 41.6077 661.416 41.584L661.781 43.6369Z" fill="black" stroke="#110002" stroke-width="4" stroke-linecap="round" stroke-linejoin="round"/>
<path d="M670.676 45.9511L669.031 47.3308L667.736 45.7851L669.372 44.4102C669.857 44.8792 670.294 45.3954 670.676 45.9511Z" fill="black" stroke="#110002" stroke-width="4" stroke-linecap="round" stroke-linejoin="round"/>
<path d="M672.15 54.3108C671.982 54.9654 671.747 55.6009 671.448 56.2073L669.49 55.4961L670.182 53.5996L672.15 54.3108Z" fill="black" stroke="#110002" stroke-width="4" stroke-linecap="round" stroke-linejoin="round"/>
<path d="M664.944 61.5834C664.654 61.6593 664.361 61.7257 664.057 61.7778C663.692 61.8431 663.323 61.8874 662.952 61.9106L662.616 59.9809L664.598 59.6348L664.944 61.5834Z" fill="black" stroke="#110002" stroke-width="4" stroke-linecap="round" stroke-linejoin="round"/>
<path d="M656.59 57.7722L655.129 59.0002C654.647 58.526 654.214 58.0051 653.835 57.4451L655.291 56.2266L656.59 57.7722Z" fill="black" stroke="#110002" stroke-width="4" stroke-linecap="round" stroke-linejoin="round"/>
<path d="M654.921 48.0368L654.228 49.9333L652.394 49.2695C652.557 48.6154 652.787 47.9798 653.081 47.373L654.921 48.0368Z" fill="black" stroke="#110002" stroke-width="4" stroke-linecap="round" stroke-linejoin="round"/>
<path d="M579.009 48.0561L578.928 48.2836L578.316 49.9526L576.486 49.284C576.486 49.1987 576.529 49.1181 576.548 49.0375L576.619 48.7957C576.619 48.7151 576.671 48.6345 576.7 48.5539C576.747 48.3974 576.804 48.241 576.861 48.0798C576.918 47.9186 576.994 47.7621 577.065 47.6056C577.079 47.575 577.095 47.5449 577.112 47.5156C577.234 47.2461 577.37 46.9834 577.52 46.7285C577.392 46.9514 577.273 47.1789 577.164 47.4065L579.009 48.0561Z" fill="black" stroke="#110002" stroke-width="4" stroke-linecap="round" stroke-linejoin="round"/>
<path d="M580.658 57.7898L579.198 59.013L579.07 58.8803L578.885 58.6906L578.71 58.4962C578.648 58.4299 578.591 58.3587 578.534 58.2924C578.477 58.226 578.534 58.2924 578.534 58.2924L578.293 57.9842L578.146 57.7898L578.06 57.6618C578.008 57.5954 577.965 57.529 577.918 57.4626L579.369 56.2441L579.592 56.5096L580.658 57.7898Z" fill="black" stroke="#110002" stroke-width="4" stroke-linecap="round" stroke-linejoin="round"/>
<path d="M589.15 61.5605L589.017 61.5985L588.799 61.6554L588.581 61.7075L588.353 61.7549L588.126 61.7976C588.036 61.7976 587.946 61.8308 587.851 61.8403L587.576 61.8782H587.438H587.268H587.206H587.021L586.685 59.9485L587.073 59.8821L588.671 59.5977L589.017 61.5463L589.15 61.5605Z" fill="black" stroke="#110002" stroke-width="4" stroke-linecap="round" stroke-linejoin="round"/>
<path d="M596.224 54.3295C596.2 54.4053 596.181 54.4812 596.158 54.5571C596.115 54.7183 596.063 54.8842 596.011 55.0312C595.959 55.1782 595.902 55.3346 595.84 55.5053C595.778 55.6665 595.712 55.823 595.641 55.9794C595.632 55.9947 595.624 56.0106 595.617 56.0268C595.611 56.042 595.603 56.0563 595.594 56.0695V56.1074V56.1359L595.565 56.1975L593.607 55.4863L593.725 55.1497L594.294 53.5898L596.224 54.3295Z" fill="black" stroke="#110002" stroke-width="4" stroke-linecap="round" stroke-linejoin="round"/>
<path d="M594.745 45.9656L593.1 47.35L592.938 47.1557L591.81 45.8044L593.446 44.4294L593.545 44.5243L593.754 44.7376L593.939 44.9368L594.067 45.0837L594.157 45.188L594.2 45.2355C594.212 45.2501 594.223 45.266 594.233 45.2829C594.272 45.325 594.308 45.3693 594.342 45.4156C594.38 45.4583 594.413 45.5057 594.446 45.5484C594.479 45.591 594.555 45.6906 594.607 45.7617C594.655 45.8329 594.702 45.8992 594.745 45.9656Z" fill="black" stroke="#110002" stroke-width="4" stroke-linecap="round" stroke-linejoin="round"/>
<path d="M585.85 43.6571L585.656 43.6902L583.864 44.0032L583.503 41.9739L583.371 42.0118L583.503 41.9692L583.769 41.8981L584.03 41.8317L584.575 41.7226L584.765 41.6894H584.954C585.042 41.6737 585.131 41.6626 585.22 41.6562H585.253H585.438H585.476L585.85 43.6571Z" fill="black" stroke="#110002" stroke-width="4" stroke-linecap="round" stroke-linejoin="round"/>
<path d="M704.419 2H541.97C541.106 1.99938 540.25 2.16917 539.451 2.49967C538.652 2.83017 537.926 3.31488 537.315 3.92609C536.704 4.53731 536.219 5.26302 535.889 6.06172C535.558 6.86043 535.389 7.71646 535.389 8.58084V103.614C535.389 105.36 536.082 107.033 537.317 108.268C538.551 109.502 540.225 110.195 541.97 110.195H704.419C706.164 110.195 707.838 109.502 709.072 108.268C710.307 107.033 711 105.36 711 103.614V8.58084C711 7.71646 710.831 6.86043 710.5 6.06172C710.17 5.26302 709.685 4.53731 709.074 3.92609C708.463 3.31488 707.737 2.83017 706.938 2.49967C706.139 2.16917 705.283 1.99938 704.419 2ZM564.861 28.8449H683.752V72.2462H564.861V28.8449Z" fill="#4D4D4D" stroke="#110002" stroke-width="4" stroke-linecap="round" stroke-linejoin="round"/>
<path d="M564.543 9.67188H681.652C686.598 9.67188 691.343 11.637 694.841 15.1349C698.339 18.6329 700.304 23.3771 700.304 28.3239V77.9078C700.304 78.4617 700.196 79.0103 699.984 79.5222C699.773 80.0342 699.462 80.4994 699.071 80.8913C698.679 81.2832 698.214 81.5941 697.703 81.8062C697.191 82.0183 696.643 82.1275 696.089 82.1275H550.087C548.972 82.1237 547.905 81.6786 547.117 80.8896C546.33 80.1006 545.887 79.0318 545.886 77.9173V28.3239C545.886 25.8741 546.369 23.4483 547.306 21.185C548.244 18.9217 549.618 16.8653 551.351 15.1333C553.083 13.4012 555.14 12.0274 557.404 11.0903C559.667 10.1532 562.093 9.67125 564.543 9.67188Z" fill="#1F307C"/>
<path d="M595.603 56.1739C595.603 56.1739 595.603 56.2071 595.579 56.2213V56.2545C595.578 56.2656 595.578 56.2767 595.579 56.2877C595.574 56.3084 595.564 56.3277 595.551 56.3446L595.513 56.4205C595.513 56.4205 595.513 56.4679 595.475 56.4963L595.394 56.6481M681.652 9.67188H564.543C562.093 9.67125 559.667 10.1532 557.404 11.0903C555.14 12.0274 553.083 13.4012 551.351 15.1333C549.618 16.8653 548.244 18.9217 547.306 21.185C546.369 23.4483 545.886 25.8741 545.886 28.3239V77.9173C545.887 79.0318 546.33 80.1006 547.117 80.8896C547.905 81.6786 548.972 82.1237 550.087 82.1275H696.089C696.643 82.1275 697.191 82.0183 697.703 81.8062C698.214 81.5941 698.679 81.2832 699.071 80.8913C699.462 80.4994 699.773 80.0342 699.984 79.5222C700.196 79.0103 700.304 78.4617 700.304 77.9078V28.3239C700.304 23.3771 698.338 18.6329 694.841 15.1349C691.343 11.637 686.598 9.67188 681.652 9.67188V9.67188ZM672.169 54.3106C672.001 54.9652 671.766 55.6007 671.467 56.2071C670.831 57.5174 669.922 58.6759 668.799 59.6043C667.677 60.5327 666.369 61.2093 664.962 61.5884C664.673 61.6643 664.379 61.7307 664.076 61.7828C663.71 61.8481 663.342 61.8924 662.971 61.9156C661.37 62.0198 659.766 61.7446 658.291 61.1123C656.816 60.48 655.511 59.5085 654.482 58.2768C653.453 57.0451 652.729 55.5879 652.37 54.0238C652.01 52.4597 652.025 50.8328 652.412 49.2754C652.576 48.6213 652.806 47.9857 653.1 47.3789C653.715 46.0782 654.6 44.9229 655.695 43.9895C656.79 43.0561 658.071 42.3658 659.453 41.9644C659.808 41.8591 660.169 41.7736 660.534 41.7084C660.838 41.6563 661.136 41.6183 661.435 41.5946C663.06 41.4544 664.696 41.7065 666.203 42.3298C667.711 42.9531 669.047 43.9293 670.099 45.1764C671.151 46.4234 671.888 47.9048 672.248 49.496C672.608 51.0872 672.581 52.7416 672.169 54.3201V54.3106ZM643.584 40.1486V53.68H604.611V40.1486H643.584Z" stroke="#110002" stroke-width="4" stroke-linecap="round" stroke-linejoin="round"/>
<path d="M552.766 29.8555H692.414C693.327 29.8555 694.202 30.2173 694.848 30.8617C695.494 31.506 695.859 32.3803 695.861 33.2929V74.8356C695.862 75.2886 695.773 75.7374 695.6 76.1561C695.427 76.5749 695.173 76.9554 694.853 77.276C694.533 77.5965 694.153 77.8509 693.734 78.0244C693.316 78.1979 692.867 78.2872 692.414 78.2872H552.766C552.313 78.2872 551.864 78.1979 551.446 78.0244C551.027 77.8509 550.647 77.5965 550.327 77.276C550.007 76.9554 549.753 76.5749 549.58 76.1561C549.407 75.7374 549.318 75.2886 549.319 74.8356V33.2929C549.321 32.3803 549.686 31.506 550.332 30.8617C550.978 30.2173 551.853 29.8555 552.766 29.8555Z" fill="#FFEADF"/>
<path d="M662.051 36.9199H586.358C582.468 36.9894 578.762 38.5833 576.036 41.3583C573.31 44.1334 571.783 47.8677 571.783 51.7576C571.783 55.6475 573.31 59.3819 576.036 62.1569C578.762 64.932 582.468 66.5258 586.358 66.5953H662.051C665.941 66.5258 669.647 64.932 672.373 62.1569C675.099 59.3819 676.626 55.6475 676.626 51.7576C676.626 47.8677 675.099 44.1334 672.373 41.3583C669.647 38.5833 665.941 36.9894 662.051 36.9199ZM596.551 51.8501C596.551 52.035 596.551 52.2246 596.551 52.4143C596.551 52.4996 596.551 52.585 596.551 52.6703C596.554 52.6876 596.554 52.7052 596.551 52.7225C596.551 52.7936 596.551 52.8647 596.551 52.9358C596.553 52.969 596.553 53.0022 596.551 53.0354C596.551 53.1065 596.551 53.1729 596.551 53.2393C596.554 53.2502 596.554 53.2615 596.551 53.2724C596.532 53.421 596.509 53.568 596.48 53.7134C596.452 53.8746 596.418 54.0405 596.376 54.1875C596.376 54.2586 596.343 54.3345 596.324 54.4103C596.305 54.4862 596.324 54.4103 596.324 54.4103C596.324 54.4909 596.286 54.5668 596.262 54.6427C596.219 54.8086 596.167 54.9698 596.11 55.1168C596.053 55.2638 596.001 55.4202 595.94 55.5909C595.873 55.7521 595.807 55.9133 595.736 56.065C595.736 56.1077 595.698 56.1504 595.674 56.1931C595.673 56.2041 595.673 56.2152 595.674 56.2262C595.668 56.2469 595.659 56.2662 595.646 56.2831C595.611 56.366 595.571 56.4467 595.527 56.5249C595.484 56.6055 595.442 56.6909 595.394 56.7667C595.309 56.9185 595.224 57.0702 595.134 57.2409C595.043 57.4116 595.034 57.4021 594.977 57.4827C594.92 57.5633 594.811 57.7245 594.726 57.8477C594.726 57.8477 594.726 57.8477 594.726 57.8762L594.626 58.0042C594.447 58.2476 594.255 58.4818 594.053 58.7059L593.962 58.8007L593.673 59.0994L593.503 59.2654L593.341 59.4171L593.275 59.4787L593.1 59.6304C593.035 59.6913 592.967 59.7482 592.896 59.8011L592.687 59.9671L592.464 60.133L592.241 60.2895L592.019 60.4412L591.786 60.5834C591.71 60.6308 591.635 60.6783 591.554 60.7209C591.331 60.8537 591.08 60.9722 590.866 61.086L590.705 61.1619L590.468 61.2662L590.193 61.38C590.117 61.4084 590.041 61.4416 589.966 61.4653H589.904L589.662 61.5459C589.572 61.5791 589.487 61.6028 589.392 61.6312C589.302 61.6615 589.21 61.6869 589.117 61.7071C588.972 61.7464 588.827 61.7828 588.681 61.8162L588.453 61.8636C588.377 61.8636 588.301 61.892 588.226 61.9062L587.946 61.9537L587.666 61.9916C587.62 61.9942 587.574 61.9942 587.529 61.9916H587.358H587.296H587.116H586.851H586.713C586.519 61.9916 586.324 61.9916 586.135 61.9916C585.945 61.9916 585.779 61.9916 585.604 61.9631L585.324 61.9394L584.769 61.8636L584.527 61.8209H584.475L584.224 61.764L583.987 61.7119L583.897 61.6881C583.745 61.6502 583.587 61.6075 583.423 61.5601L583.262 61.508L583.148 61.47C583.01 61.4274 582.877 61.3752 582.749 61.3278L582.489 61.2235L582.261 61.1239L582.038 61.0196L581.825 60.9153L581.583 60.7921C581.517 60.7541 581.446 60.7209 581.379 60.6783C581.161 60.555 580.943 60.4222 580.734 60.28C580.602 60.1947 580.478 60.1046 580.35 60.0145L580.151 59.858L579.957 59.7063L579.767 59.5451C579.639 59.4408 579.521 59.3318 579.397 59.218L579.222 59.0473C579.175 59.0046 579.132 58.9572 579.089 58.9145L578.904 58.7201L578.729 58.521C578.667 58.4546 578.61 58.3882 578.553 58.3171C578.468 58.2176 578.388 58.1133 578.307 58.0089L578.16 57.8098L578.084 57.7008C578.032 57.6359 577.985 57.5678 577.942 57.4969C577.842 57.3547 577.752 57.2124 577.662 57.0654C577.572 56.9185 577.406 56.6245 577.292 56.3969C577.216 56.2452 577.141 56.0887 577.074 55.9228C577.008 55.7569 576.946 55.6383 576.889 55.4913C576.889 55.4439 576.856 55.4013 576.837 55.3539L576.752 55.1168L576.666 54.8608C576.638 54.7754 576.614 54.6853 576.591 54.6C576.534 54.4246 576.491 54.2444 576.448 54.069L576.391 53.794C576.34 53.5543 576.3 53.3122 576.273 53.0686C576.235 52.7983 576.211 52.5281 576.197 52.2626C576.197 52.0887 576.197 51.9133 576.197 51.7363C576.197 51.5466 576.197 51.3665 576.197 51.1816C576.197 51.0867 576.197 50.9967 576.197 50.9066C576.197 50.6363 576.254 50.3756 576.292 50.11C576.325 49.9204 576.358 49.726 576.401 49.5411C576.42 49.442 576.443 49.3438 576.472 49.2471C576.472 49.1618 576.51 49.0812 576.534 48.9959L576.605 48.7541C576.605 48.6734 576.657 48.5881 576.685 48.5075C576.733 48.351 576.79 48.1946 576.851 48.0334C576.913 47.8722 576.979 47.711 577.05 47.5593L577.103 47.4502C577.221 47.1763 577.358 46.9102 577.51 46.6537C577.572 46.5446 577.634 46.4308 577.705 46.3265V46.2791L577.913 45.9615C577.966 45.8903 578.008 45.824 578.06 45.7576C578.478 45.1784 578.954 44.6445 579.483 44.1645L579.682 43.9891L579.876 43.8232L579.957 43.7236L580.17 43.5624L580.388 43.4059L580.611 43.259L580.834 43.112L581.066 42.9697L581.299 42.837L581.536 42.7137C581.589 42.6816 581.644 42.653 581.702 42.6284L581.853 42.5525C582.114 42.4292 582.375 42.3154 582.645 42.2159L582.906 42.1211L583.176 42.031L583.309 41.993L583.446 41.9504H583.508L583.712 41.8935L583.977 41.8318C584.158 41.7892 584.338 41.756 584.523 41.7228L584.717 41.6896L584.911 41.6612L585.177 41.628H585.21C585.272 41.628 585.333 41.628 585.4 41.628H585.466H585.746H586.097H586.509H586.983H587.211L587.495 41.6564L587.775 41.6896C588.142 41.7442 588.506 41.8186 588.866 41.9124L589.06 41.9646L589.411 42.0736L589.591 42.1305C589.847 42.2206 590.103 42.3202 590.354 42.4292C590.497 42.4909 590.644 42.5573 590.781 42.6284C591.098 42.7822 591.407 42.9531 591.706 43.1404L591.881 43.2542C592.336 43.5507 592.765 43.8837 593.166 44.2499L593.332 44.4016L593.403 44.4727L593.531 44.596L593.749 44.8236C593.801 44.8757 593.849 44.9279 593.896 44.9848C593.944 45.0417 593.986 45.0843 594.029 45.1317L594.114 45.2361L594.157 45.2882L594.195 45.3309C594.233 45.3783 594.271 45.421 594.304 45.4684C594.341 45.5105 594.376 45.5548 594.408 45.6011C594.465 45.6675 594.517 45.7434 594.569 45.8145C594.622 45.8856 594.569 45.8145 594.569 45.8145C594.569 45.8145 594.664 45.9472 594.712 46.0136C595.053 46.5035 595.351 47.0223 595.603 47.564C595.631 47.6304 595.665 47.6968 595.693 47.7679C595.721 47.839 595.807 48.0381 595.859 48.1756C595.911 48.3131 595.982 48.517 596.039 48.6877C596.068 48.7778 596.096 48.8678 596.12 48.9579C596.143 49.048 596.172 49.1381 596.196 49.2282C596.219 49.3183 596.243 49.4083 596.262 49.4984C596.281 49.5885 596.305 49.6833 596.324 49.7782C596.343 49.873 596.362 49.9631 596.376 50.0579C596.39 50.1527 596.376 50.148 596.399 50.1954C596.414 50.2642 596.423 50.3339 596.428 50.404C596.456 50.5984 596.48 50.7975 596.499 50.9919C596.499 51.0867 596.499 51.1816 596.499 51.2764C596.499 51.4613 596.499 51.6509 596.499 51.8453L596.551 51.8501ZM643.584 53.6802H604.611V40.1487H643.584V53.6802ZM672.15 54.3155C671.982 54.9701 671.747 55.6056 671.449 56.212C670.813 57.5223 669.903 58.6808 668.781 59.6092C667.658 60.5376 666.35 61.2142 664.944 61.5933C664.654 61.6692 664.36 61.7356 664.057 61.7877C663.692 61.853 663.323 61.8973 662.952 61.9205C661.351 62.0247 659.747 61.7495 658.272 61.1172C656.797 60.4849 655.492 59.5134 654.463 58.2817C653.434 57.05 652.71 55.5928 652.351 54.0287C651.991 52.4646 652.006 50.8377 652.394 49.2803C652.557 48.6261 652.787 47.9906 653.081 47.3838C653.696 46.0831 654.581 44.9278 655.676 43.9944C656.771 43.061 658.052 42.3707 659.434 41.9693C659.79 41.8639 660.15 41.7785 660.515 41.7133C660.819 41.6612 661.117 41.6232 661.416 41.5995C663.041 41.4593 664.677 41.7114 666.185 42.3347C667.692 42.958 669.028 43.9342 670.08 45.1813C671.132 46.4283 671.869 47.9097 672.229 49.5009C672.59 51.0921 672.562 52.7465 672.15 54.325V54.3155Z" fill="#4D4D4D" stroke="#110002" stroke-width="4" stroke-linecap="round" stroke-linejoin="round"/>
<path d="M643.584 40.1484V53.6799H638.411C638.359 53.0446 638.335 52.4093 638.335 51.7834C638.328 47.7218 639.362 43.726 641.337 40.1769L643.584 40.1484Z" fill="black" stroke="#110002" stroke-width="4" stroke-linecap="round" stroke-linejoin="round"/>
<path d="M619.361 51.755C619.361 52.3872 619.342 53.0193 619.304 53.6515H604.611V40.1484H617.247C618.644 43.8587 619.36 47.7905 619.361 51.755Z" fill="black" stroke="#110002" stroke-width="4" stroke-linecap="round" stroke-linejoin="round"/>
<path d="M688.394 110.194H562.637L569.275 89.5274C569.627 88.435 570.317 87.4825 571.244 86.8069C572.172 86.1313 573.29 85.7674 574.438 85.7676H675.886C677.007 85.7676 678.099 86.1144 679.015 86.7605C679.93 87.4065 680.622 88.3201 680.997 89.3757L688.394 110.194Z" fill="#BCBCBC" stroke="#110002" stroke-width="4" stroke-linecap="round" stroke-linejoin="round"/>
<path d="M600.88 93.0371H599.69C598.737 93.0371 597.964 93.8098 597.964 94.7629V95.953C597.964 96.9061 598.737 97.6788 599.69 97.6788H600.88C601.833 97.6788 602.606 96.9061 602.606 95.953V94.7629C602.606 93.8098 601.833 93.0371 600.88 93.0371Z" fill="#333333"/>
<path d="M649.122 93.0371H647.932C646.979 93.0371 646.206 93.8098 646.206 94.7629V95.953C646.206 96.9061 646.979 97.6788 647.932 97.6788H649.122C650.075 97.6788 650.848 96.9061 650.848 95.953V94.7629C650.848 93.8098 650.075 93.0371 649.122 93.0371Z" fill="#333333"/>
<path d="M576.264 106.155C578.55 106.155 580.403 104.302 580.403 102.016C580.403 99.7303 578.55 97.8772 576.264 97.8772C573.978 97.8772 572.125 99.7303 572.125 102.016C572.125 104.302 573.978 106.155 576.264 106.155Z" fill="#333333"/>
<path d="M672.752 106.155C675.038 106.155 676.891 104.302 676.891 102.016C676.891 99.7303 675.038 97.8772 672.752 97.8772C670.466 97.8772 668.613 99.7303 668.613 102.016C668.613 104.302 670.466 106.155 672.752 106.155Z" fill="#333333"/>
<path d="M624.307 97.8817C626.593 97.8817 628.446 96.0286 628.446 93.7426C628.446 91.4567 626.593 89.6035 624.307 89.6035C622.021 89.6035 620.167 91.4567 620.167 93.7426C620.167 96.0286 622.021 97.8817 624.307 97.8817Z" fill="#333333"/>
<path d="M543.061 106.155C544.621 106.155 545.886 104.89 545.886 103.33C545.886 101.769 544.621 100.504 543.061 100.504C541.5 100.504 540.235 101.769 540.235 103.33C540.235 104.89 541.5 106.155 543.061 106.155Z" fill="#BCBCBC"/>
<path d="M543.061 12.4973C544.621 12.4973 545.886 11.2321 545.886 9.67148C545.886 8.11085 544.621 6.8457 543.061 6.8457C541.5 6.8457 540.235 8.11085 540.235 9.67148C540.235 11.2321 541.5 12.4973 543.061 12.4973Z" fill="#BCBCBC"/>
<path d="M703.129 105.753C704.69 105.753 705.955 104.488 705.955 102.927C705.955 101.367 704.69 100.102 703.129 100.102C701.569 100.102 700.304 101.367 700.304 102.927C700.304 104.488 701.569 105.753 703.129 105.753Z" fill="#BCBCBC"/>
<path d="M703.129 12.0949C704.69 12.0949 705.955 10.8298 705.955 9.26914C705.955 7.7085 704.69 6.44336 703.129 6.44336C701.569 6.44336 700.304 7.7085 700.304 9.26914C700.304 10.8298 701.569 12.0949 703.129 12.0949Z" fill="#BCBCBC"/>
</svg>
