<svg width="544" height="514" viewBox="0 0 544 514" fill="none" xmlns="http://www.w3.org/2000/svg">
<g clip-path="url(#clip0_3421_8602)">
<line x1="544.178" y1="43.3965" x2="-102.679" y2="43.3964" stroke="#0B0A0A" stroke-width="3"/>
<line x1="544.178" y1="115.628" x2="-102.679" y2="115.628" stroke="#0B0A0A" stroke-width="3"/>
<line x1="544.178" y1="187.859" x2="-102.679" y2="187.859" stroke="#0B0A0A" stroke-width="3"/>
<line x1="544.178" y1="260.091" x2="-102.679" y2="260.091" stroke="#0B0A0A" stroke-width="3"/>
<line x1="544.178" y1="332.321" x2="-102.679" y2="332.321" stroke="#0B0A0A" stroke-width="3"/>
<line x1="544.178" y1="404.553" x2="-102.679" y2="404.553" stroke="url(#paint0_linear_3421_8602)" stroke-width="3"/>
<line x1="-102.685" y1="471.924" x2="516.976" y2="471.924" stroke="url(#paint1_linear_3421_8602)" stroke-width="3"/>
<line x1="476.96" y1="509.527" x2="476.96" y2="-95.9996" stroke="url(#paint2_linear_3421_8602)" stroke-width="3"/>
<line x1="405.114" y1="537.367" x2="405.114" y2="-96.0001" stroke="url(#paint3_linear_3421_8602)" stroke-opacity="0.5" stroke-width="3"/>
<line x1="332.584" y1="537.367" x2="332.584" y2="-96.0001" stroke="url(#paint4_linear_3421_8602)" stroke-opacity="0.5" stroke-width="3"/>
<line x1="260.353" y1="537.367" x2="260.353" y2="-96.0001" stroke="#0B0A0A" stroke-width="3"/>
<line x1="188.121" y1="537.367" x2="188.121" y2="-96.0001" stroke="#0B0A0A" stroke-width="3"/>
<line x1="115.89" y1="537.367" x2="115.89" y2="-96.0001" stroke="#0B0A0A" stroke-width="3"/>
<line x1="43.6592" y1="537.367" x2="43.6592" y2="-96.0001" stroke="#0B0A0A" stroke-width="3"/>
<path d="M154.47 370.255C153.529 379.692 151.669 389.014 148.916 398.089C145.964 407.688 142.017 416.953 137.141 425.733C134.331 430.665 131.269 435.449 127.969 440.068C124.732 444.517 121.242 448.777 117.517 452.827C112.566 458.476 106.832 463.237 101.076 468.019C94.5913 473.404 87.3233 477.603 80.0447 481.687C67.3495 488.775 53.5964 492.859 39.3884 495.525C28.5587 497.627 17.4921 498.235 6.49725 497.334C-5.31549 496.351 -16.9665 493.946 -28.2029 490.172C-29.3878 489.77 -30.5621 489.357 -31.747 488.923L-32.3289 488.701C-33.207 488.384 -34.0851 488.045 -34.9631 487.707C-36.3032 487.185 -37.6362 486.645 -38.9621 486.088C-40.2881 485.531 -41.5364 484.96 -42.7072 484.374C-43.617 483.919 -44.5268 483.454 -45.4155 482.967C-52.9797 478.799 -60.6074 474.694 -67.3359 469.214C-69.4517 467.49 -71.5676 465.786 -73.6835 464.02C-76.9726 461.3 -80.079 458.367 -82.9827 455.239C-84.686 453.366 -86.4104 451.504 -88.0925 449.6C-89.9756 447.484 -91.7953 445.305 -93.4774 443.02C-93.9746 442.343 -94.4718 441.676 -94.9585 440.988C-98.1493 436.696 -101.075 432.213 -103.718 427.563C-106.13 423.215 -108.511 418.835 -110.489 414.276C-120.323 391.914 -124.351 367.431 -122.2 343.098C-120.51 324.033 -115.017 305.5 -106.046 288.593C-103.718 284.108 -100.957 279.823 -98.2063 275.591C-94.6186 270.318 -90.6888 265.285 -86.4421 260.526C-82.2104 255.575 -77.3439 251.365 -72.5515 247.017C-66.2885 241.367 -59.2004 236.934 -52.017 232.597C-41.353 226.175 -29.8004 222.018 -17.8775 218.664C-6.71633 215.49 4.65644 214.496 14.6327 214.231C26.6932 214.231 37.1667 215.141 47.3758 217.775C59.2035 220.833 70.8407 224.811 81.5047 230.767L82.753 231.486C85.4931 233.073 88.212 234.66 90.878 236.384C95.151 239.059 99.2274 242.036 103.076 245.292C104.398 246.424 105.731 247.567 107.043 248.709C110.943 252.02 114.605 255.601 118.003 259.426C121.823 263.628 125.398 268.047 128.71 272.661C129.63 274.036 130.561 275.401 131.492 276.776C132.254 277.929 133.026 279.082 133.767 280.246C134.507 281.41 135.301 282.69 136.031 283.938C136.496 284.764 136.961 285.589 137.406 286.425C137.512 286.647 137.628 286.869 137.744 287.091C138.316 288.149 138.876 289.281 139.437 290.381C141.035 293.555 142.611 296.729 143.944 299.903C153.29 322.094 156.91 346.278 154.47 370.234V370.255Z" fill="#FEFEFE" stroke="#110002" stroke-width="4" stroke-linecap="round" stroke-linejoin="round"/>
<path d="M16.2506 499.873C12.9287 499.873 9.58562 499.735 6.31661 499.45C-5.66359 498.445 -17.4803 496.008 -28.8808 492.192C-30.0869 491.78 -31.2823 491.357 -32.4778 490.923L-32.975 490.732L-35.7256 489.674C-37.1539 489.124 -38.4868 488.616 -39.7881 488.024C-41.0894 487.432 -42.3695 486.882 -43.639 486.268C-44.577 485.802 -45.508 485.316 -46.4319 484.808L-47.6485 484.152C-54.7896 480.227 -62.1634 476.165 -68.6802 470.864L-69.2727 470.378C-71.1664 468.844 -73.113 467.204 -75.0067 465.649C-78.3736 462.87 -81.5543 459.873 -84.5281 456.678L-86.1044 454.943C-87.2893 453.641 -88.4847 452.34 -89.659 451.007C-91.8807 448.5 -93.6369 446.363 -95.1603 444.279L-96.652 442.247C-99.9146 437.882 -102.907 433.321 -105.613 428.589C-107.961 424.358 -110.426 419.819 -112.468 415.111C-122.44 392.427 -126.512 367.589 -124.306 342.907C-123.514 333.935 -121.888 325.056 -119.45 316.385C-116.64 306.415 -112.786 296.77 -107.951 287.609C-105.57 283.092 -102.841 278.807 -100.016 274.438C-96.4627 269.22 -92.5755 264.237 -88.3789 259.521L-88.0616 259.151C-84.2611 254.88 -80.1789 250.869 -75.8424 247.143L-73.9699 245.451C-67.5377 239.621 -60.439 235.199 -53.1075 230.788C-41.1317 223.562 -28.299 219.426 -18.4602 216.633C-8.93879 213.935 1.83099 212.454 14.5791 212.115C28.1418 212.115 38.4037 213.279 47.904 215.733C61.911 219.351 72.9558 223.541 82.5301 228.926L83.8208 229.656C87.1533 231.592 89.6817 233.115 92.0198 234.596C96.3721 237.329 100.526 240.366 104.45 243.684C105.783 244.827 107.113 245.973 108.439 247.122C112.413 250.497 116.146 254.145 119.611 258.04L121.102 259.775C124.446 263.489 127.569 267.396 130.454 271.476C131.385 272.851 132.316 274.216 133.247 275.602C134.02 276.755 134.792 277.929 135.554 279.104C136.315 280.278 137.141 281.664 137.849 282.88C138.347 283.727 138.812 284.573 139.267 285.43C139.267 285.43 140.769 288.318 141.319 289.418C142.864 292.433 144.493 295.692 145.9 299.12C149.907 308.65 152.89 318.58 154.797 328.742C161.16 362.267 155.567 396.963 138.992 426.791C136.149 431.781 133.053 436.622 129.714 441.295C126.847 445.298 123.742 449.124 120.415 452.753L119.103 454.244C114.046 460.031 108.143 464.94 102.43 469.68C95.7119 475.255 88.2006 479.592 81.0807 483.57C69.4435 490.066 56.2934 494.541 39.8213 497.641C32.051 499.117 24.1599 499.864 16.2506 499.873V499.873Z" fill="#110002"/>
<path d="M14.6328 214.232C26.6932 214.232 37.1667 215.142 47.3758 217.776C59.2035 220.833 70.8407 224.811 81.5047 230.767L82.753 231.487C85.4931 233.074 88.212 234.66 90.878 236.385C95.151 239.06 99.2274 242.037 103.076 245.293C104.398 246.425 105.731 247.567 107.043 248.71C110.943 252.021 114.605 255.602 118.003 259.427C121.824 263.629 125.398 268.048 128.71 272.661C129.63 274.037 130.561 275.401 131.492 276.777C132.254 277.93 133.026 279.083 133.767 280.247C134.507 281.41 135.301 282.691 136.031 283.939C136.496 284.764 136.962 285.589 137.406 286.425C137.512 286.647 137.628 286.869 137.744 287.092C138.316 288.149 138.876 289.281 139.437 290.382C141.035 293.556 142.611 296.729 143.944 299.903C152.428 320.016 156.224 341.795 155.046 363.592C153.867 385.389 147.745 406.632 137.141 425.712C134.331 430.651 131.27 435.443 127.969 440.069C124.732 444.518 121.242 448.778 117.517 452.827C112.566 458.477 106.832 463.237 101.076 468.019C94.5913 473.404 87.3233 477.604 80.0447 481.688C67.3495 488.776 53.5964 492.859 39.3884 495.525C31.7626 496.99 24.0165 497.737 16.2514 497.758C13.0035 497.758 9.75569 497.631 6.49726 497.345C-5.31548 496.362 -16.9664 493.958 -28.2029 490.183C-29.3878 489.781 -30.5621 489.368 -31.747 488.935L-32.3289 488.712C-33.2069 488.395 -34.085 488.056 -34.9631 487.718C-36.3032 487.196 -37.6362 486.656 -38.9621 486.099C-40.288 485.542 -41.5364 484.971 -42.7072 484.385C-43.617 483.93 -44.5268 483.465 -45.4155 482.978C-52.9797 478.81 -60.6074 474.705 -67.3359 469.225C-69.4517 467.501 -71.5676 465.798 -73.6835 464.031C-76.9726 461.311 -80.079 458.378 -82.9827 455.25C-84.686 453.377 -86.4104 451.515 -88.0925 449.611C-89.9756 447.495 -91.7953 445.316 -93.4774 443.031C-93.9746 442.354 -94.4718 441.687 -94.9585 441C-98.1497 436.704 -101.075 432.217 -103.718 427.564C-106.13 423.216 -108.511 418.836 -110.489 414.276C-120.323 391.915 -124.351 367.432 -122.2 343.098C-120.51 324.034 -115.017 305.501 -106.046 288.594C-103.718 284.108 -100.957 279.824 -98.2063 275.592C-94.6186 270.318 -90.6888 265.286 -86.4421 260.527C-82.2104 255.576 -77.3439 251.365 -72.5515 247.017C-66.2885 241.368 -59.2004 236.935 -52.017 232.597C-41.353 226.176 -29.8004 222.018 -17.8775 218.664C-6.71632 215.491 4.65646 214.496 14.6328 214.232M14.6328 210H14.5164C1.58845 210.349 -9.38231 211.851 -19.0836 214.591C-29.007 217.406 -42.0089 221.637 -54.2069 228.979C-61.3268 233.275 -68.8064 237.951 -75.3867 243.854L-77.2698 245.568C-81.6665 249.36 -85.8085 253.439 -89.6688 257.776L-89.9862 258.157C-94.2362 262.942 -98.1695 267.999 -101.761 273.296C-104.607 277.697 -107.368 282.035 -109.791 286.615C-119.026 304.006 -124.681 323.072 -126.421 342.686C-128.631 367.72 -124.49 392.907 -114.382 415.916C-112.266 420.708 -109.812 425.289 -107.432 429.574C-104.685 434.382 -101.646 439.017 -98.3333 443.454L-96.8522 445.475C-95.2759 447.591 -93.4879 449.802 -91.2028 452.372C-90.0285 453.705 -88.8119 455.038 -87.6376 456.329L-86.0613 458.053C-83.033 461.321 -79.7922 464.385 -76.36 467.226C-74.4663 468.834 -72.5197 470.4 -70.6366 471.955L-70.0018 472.462C-63.3369 477.879 -55.8784 481.984 -48.6633 485.962L-47.4573 486.628C-46.5052 487.157 -45.5319 487.686 -44.5691 488.13C-43.2679 488.765 -41.9455 489.379 -40.6125 489.94C-39.2795 490.5 -37.9465 491.05 -36.4865 491.611C-35.5979 491.96 -34.6881 492.299 -33.7888 492.669L-33.5878 492.743L-33.2281 492.87C-32.0327 493.314 -30.8054 493.748 -29.5571 494.171C-17.9978 498.058 -6.01396 500.544 6.13756 501.577C9.47005 501.862 12.866 502 16.2514 502C24.2752 501.969 32.2789 501.197 40.1607 499.694C56.8972 496.52 70.2271 492.003 82.0971 485.38C89.3017 481.37 96.9082 476.916 103.774 471.278C109.55 466.475 115.517 461.523 120.701 455.61L122.002 454.129C125.385 450.442 128.543 446.556 131.46 442.491C134.837 437.756 137.969 432.852 140.844 427.797C157.585 397.519 163.256 362.356 156.882 328.351C154.946 318.057 151.917 307.999 147.848 298.348C146.409 294.857 144.769 291.545 143.214 288.488L141.511 285.113L141.172 284.468V284.404C140.707 283.526 140.22 282.648 139.723 281.791C138.993 280.532 138.22 279.273 137.364 277.94C136.686 276.883 135.946 275.751 135.036 274.386L132.201 270.302C129.268 266.152 126.088 262.181 122.679 258.411L121.177 256.676C117.65 252.699 113.846 248.976 109.794 245.536C108.475 244.386 107.142 243.237 105.795 242.087C101.791 238.7 97.5486 235.606 93.0996 232.83C90.0951 230.915 87.1012 229.149 84.8266 227.837L83.5359 227.064C73.7924 221.637 62.6312 217.342 48.4337 213.682C38.7536 211.185 28.333 210.053 14.6434 210H14.6328Z" fill="#110002"/>
<path d="M131.492 276.776L74.2366 345.003L14.6326 416.032L-42.7073 484.375C-43.6172 483.92 -44.527 483.454 -45.4156 482.967C-52.9799 478.799 -60.6075 474.694 -67.336 469.214C-69.4519 467.49 -71.5677 465.787 -73.6836 464.02L-21.7391 402.11L7.59737 367.198L25.5822 345.701L55.0139 310.63L106.948 248.741C110.848 252.052 114.51 255.633 117.908 259.458C121.76 263.647 125.366 268.056 128.709 272.661C129.63 274.036 130.561 275.401 131.492 276.776Z" fill="#363636" stroke="#110002" stroke-miterlimit="10"/>
<path d="M90.8783 236.385L37.6537 299.861L-34.8147 386.23L-88.0393 449.706C-89.9224 447.59 -91.7421 445.411 -93.4242 443.126C-93.9214 442.449 -94.4186 441.782 -94.9053 441.095L-39.6706 375.281L26.2386 296.719L81.505 230.862L82.7533 231.582C85.4934 233.073 88.2123 234.681 90.8783 236.385Z" fill="#363636" stroke="#110002" stroke-miterlimit="10"/>
<path d="M139.436 290.403L78.3407 363.22L73.9186 368.51L37.4093 411.98L33.2516 416.942L-28.2037 490.172C-29.3886 489.77 -30.5629 489.357 -31.7478 488.924L-32.3296 488.701C-33.2077 488.384 -34.0858 488.045 -34.9639 487.707L23.233 418.412L25.772 415.387L75.2198 356.449L78.2878 352.789L136.04 284.023C136.506 284.848 136.971 285.674 137.416 286.509C137.521 286.731 137.638 286.954 137.754 287.176C138.315 288.181 138.876 289.281 139.436 290.403Z" fill="#363636" stroke="#110002" stroke-miterlimit="10"/>
<path d="M16.1883 295.873C24.7011 295.686 33.136 297.529 40.7958 301.248C47.8311 304.749 54.3479 309.097 59.5741 315.064C66.7129 323.005 71.6446 332.679 73.8774 343.121C75.7909 352.207 75.6354 361.608 73.4225 370.627C72.3568 374.775 70.8826 378.808 69.0215 382.666C66.2028 388.427 62.4933 393.708 58.0295 398.313C52.0099 404.809 44.6044 409.051 36.5218 412.415C28.619 415.695 20.3989 416.404 12.0095 416.002C7.31718 415.85 2.67712 414.969 -1.74366 413.388C-9.86858 410.373 -17.5069 406.406 -23.7698 400.291C-28.1792 396.082 -31.9468 391.249 -34.9522 385.946C-40.9088 375.306 -43.5606 363.134 -42.5693 350.981C-41.9991 343.954 -40.2091 337.081 -37.2796 330.669C-34.8992 325.6 -31.8692 320.863 -28.266 316.577C-23.3149 310.367 -16.9673 305.955 -9.99554 302.168C-3.70147 298.836 3.19252 296.79 10.285 296.148C12.2951 295.926 14.2946 295.947 16.1883 295.873Z" fill="#FADCCC" stroke="#110002" stroke-width="4" stroke-linecap="round" stroke-linejoin="round"/>
<path d="M16.2724 370.075C8.32731 370.318 1.94798 363.347 2.19131 355.38C2.41347 348.409 9.04671 341.204 16.7908 341.564C23.7097 341.871 30.5439 348.768 30.2054 356.301C29.8668 364.034 23.826 370.202 16.2724 370.075Z" fill="#110002" stroke="#110002" stroke-width="4" stroke-linecap="round" stroke-linejoin="round"/>
</g>
<defs>
<linearGradient id="paint0_linear_3421_8602" x1="220.749" y1="403.051" x2="653.454" y2="409.169" gradientUnits="userSpaceOnUse">
<stop stop-color="#0B0A0A"/>
<stop offset="1" stop-color="#0B0A0A" stop-opacity="0"/>
</linearGradient>
<linearGradient id="paint1_linear_3421_8602" x1="207.146" y1="473.42" x2="673.089" y2="480.252" gradientUnits="userSpaceOnUse">
<stop stop-color="#0B0A0A"/>
<stop offset="1" stop-color="#0B0A0A" stop-opacity="0"/>
</linearGradient>
<linearGradient id="paint2_linear_3421_8602" x1="478.476" y1="206.764" x2="484.428" y2="586.86" gradientUnits="userSpaceOnUse">
<stop stop-color="#0B0A0A"/>
<stop offset="1" stop-color="#0B0A0A" stop-opacity="0"/>
</linearGradient>
<linearGradient id="paint3_linear_3421_8602" x1="406.598" y1="220.684" x2="414.575" y2="596.149" gradientUnits="userSpaceOnUse">
<stop stop-color="#0B0A0A"/>
<stop offset="1" stop-color="#0B0A0A" stop-opacity="0"/>
</linearGradient>
<linearGradient id="paint4_linear_3421_8602" x1="334.068" y1="220.684" x2="363.222" y2="793.934" gradientUnits="userSpaceOnUse">
<stop stop-color="#0B0A0A"/>
<stop offset="1" stop-color="#0B0A0A" stop-opacity="0"/>
</linearGradient>
<clipPath id="clip0_3421_8602">
<rect width="544" height="514" fill="white"/>
</clipPath>
</defs>
</svg>
