<svg width="315" height="400" viewBox="0 0 315 400" fill="none" xmlns="http://www.w3.org/2000/svg">
<path d="M312.455 290.252C310.57 293.347 307.977 295.95 304.889 297.848C301.657 299.867 298.181 301.468 294.546 302.613C294.628 299.919 294.418 297.223 293.918 294.575C293.814 294.267 293.829 293.932 293.962 293.636C294.203 293.325 294.541 293.104 294.922 293.008C296.511 292.395 298.114 291.811 299.718 291.243C302.444 290.275 305.281 289.358 308.236 289.403C309.12 289.366 309.997 289.565 310.778 289.979" fill="#110002"/>
<path d="M311.502 289.697C307.808 295.948 300.862 299.302 294.235 301.519L295.639 302.583C295.696 300.493 295.582 298.403 295.299 296.332C295.232 295.815 295.151 295.29 295.063 294.766C295.063 294.603 294.863 294.219 294.944 294.027C294.893 294.123 295.203 294.027 295.203 294.027C296.259 293.569 297.368 293.207 298.454 292.815C300.386 292.073 302.359 291.444 304.365 290.931C306.093 290.525 308.591 289.978 310.238 290.887C311.487 291.581 312.603 289.668 311.354 288.973C309.344 287.865 306.758 288.19 304.601 288.611C302.082 289.192 299.612 289.968 297.213 290.931C296.048 291.265 294.918 291.708 293.836 292.254C293.429 292.502 293.113 292.875 292.935 293.316C292.757 293.758 292.725 294.246 292.846 294.707C293.301 297.302 293.506 299.934 293.459 302.568C293.46 302.739 293.5 302.907 293.576 303.059C293.652 303.212 293.762 303.345 293.898 303.448C294.034 303.552 294.191 303.623 294.358 303.656C294.526 303.689 294.698 303.683 294.863 303.639C302.045 301.238 309.485 297.544 313.452 290.769C313.588 290.516 313.62 290.22 313.542 289.944C313.464 289.668 313.281 289.433 313.033 289.288C312.786 289.144 312.491 289.101 312.212 289.169C311.934 289.237 311.692 289.411 311.539 289.653L311.502 289.697Z" fill="#110002"/>
<path d="M294.05 288.566H268.095V398.062H294.05V288.566Z" fill="#E28281" stroke="#110002" stroke-width="3.41052" stroke-miterlimit="10"/>
<path d="M97.9621 228.824C97.5631 231.041 95.7456 236.323 96.9351 238.525C98.1247 240.727 101.745 236.811 103.326 235.828C102.987 234.967 102.543 234.15 102.004 233.398C101.365 232.543 100.669 231.733 99.92 230.974L98.0138 228.942" fill="#110002"/>
<path d="M96.891 228.492C96.396 231.24 95.3395 233.952 95.4134 236.782C95.4651 238.06 95.8345 239.737 97.2383 240.129C98.4426 240.491 99.6986 239.796 100.667 239.146C101.317 238.703 101.93 238.215 102.543 237.728L102.957 237.395L103.193 237.21C103.408 237.048 103.622 236.893 103.851 236.745C104.061 236.621 104.224 236.432 104.316 236.206C104.408 235.981 104.424 235.731 104.361 235.496C103.771 234.051 102.95 232.711 101.93 231.529C100.918 230.354 99.8242 229.253 98.7603 228.123C97.6964 226.992 96.2113 228.655 97.194 229.696C99.0337 231.647 101.191 233.546 102.218 236.087L102.728 234.831C101.871 235.378 100.947 236.206 100.275 236.708C99.8269 237.052 99.3581 237.368 98.8711 237.654L98.5165 237.838L98.3465 237.92C98.3465 237.92 98.5165 237.853 98.3983 237.92L98.0732 238.023H97.955C98.3022 237.92 97.955 238.067 97.955 238.023H97.8441C97.7259 238.075 98.0584 238.075 97.9328 238.023C97.6816 237.942 98.0806 238.119 97.9328 238.023C97.785 237.927 97.9328 238.067 97.9919 238.075C97.9521 238.046 97.9172 238.011 97.8885 237.971C97.9919 238.274 97.7998 237.772 97.8885 237.897C97.9771 238.023 97.8367 237.742 97.822 237.698C97.7854 237.574 97.7558 237.448 97.7333 237.321C97.7174 237.255 97.7051 237.189 97.6964 237.122C97.6964 237.173 97.6964 237.329 97.6964 237.122C97.6964 236.915 97.6964 236.834 97.6964 236.686C97.7011 235.419 97.8649 234.158 98.184 232.932C98.4648 231.647 98.8342 230.383 99.0632 229.098C99.1363 228.819 99.1006 228.522 98.9634 228.269C98.8263 228.015 98.5979 227.823 98.3244 227.731C98.0404 227.656 97.7382 227.695 97.4826 227.84C97.2271 227.985 97.0386 228.224 96.9575 228.507L96.891 228.492Z" fill="#110002"/>
<path d="M126.119 262.071C123.164 266.128 116.115 270.997 112.118 274.211L94.9698 287.983C91.645 290.657 88.2685 293.354 84.301 295.12C80.3334 296.886 75.6344 297.639 71.4673 296.243C66.1698 294.47 64.4853 290.923 62.3278 286.106C57.0082 269.172 40.3621 214.232 37.2073 197.15C36.2172 196.869 32.2497 195.295 31.3631 194.852C30.4231 194.383 29.5235 193.837 28.6737 193.219C26.9882 191.965 25.4948 190.471 24.2406 188.786C21.8764 185.653 19.8076 181.309 19.9554 177.519V177.851C19.6155 174.748 21.0341 170.182 23.3245 167.138C25.6149 164.094 28.7919 161.589 32.0945 159.373C33.0663 158.702 34.0834 158.1 35.1385 157.57C36.3393 157.021 37.5731 156.547 38.8327 156.151C40.5875 155.486 42.4078 155.008 44.2632 154.725C46.2164 154.569 48.1807 154.624 50.1222 154.888L55.4862 155.427C56.6656 155.471 57.8262 155.736 58.907 156.21C59.9201 156.815 60.7999 157.62 61.493 158.575V158.486C63.5765 162.18 64.4483 167.441 64.1158 171.601C63.7834 175.76 62.6382 181.139 62.9189 185.306V185.424C64.6626 200.282 78.8705 237.298 85.4314 250.981V250.671C89.4581 245.684 94.5265 241.495 99.7279 237.579C104.316 234.121 108.365 229.503 114.749 232.939C117.83 234.594 119.92 237.372 121.908 240.157C125.868 245.78 129.629 252.186 128.698 258.821C128.498 260.247 127.782 261.902 126.245 262.108" fill="#E28281"/>
<path d="M124.679 261.221C122.832 263.697 120.246 265.714 117.874 267.635C115.502 269.556 112.842 271.499 110.367 273.479L100.223 281.606C97.0018 284.199 93.8247 286.874 90.5073 289.356C84.8774 293.568 77.0457 297.55 70.1228 293.841C66 291.625 64.3007 286.837 63.0225 282.759C60.3183 274.06 57.6708 265.342 55.08 256.604C51.8882 245.89 48.7629 235.177 45.778 224.39C43.4137 215.894 41.0198 207.397 39.2245 198.738C39.0841 198.043 38.9437 197.356 38.8181 196.662C38.7422 196.384 38.5954 196.131 38.3919 195.928C38.1885 195.724 37.9356 195.577 37.6581 195.502C34.1191 194.452 30.7647 193.019 28.0089 190.477C24.5511 187.278 21.4849 182.35 21.6031 177.489C21.6548 175.346 18.3522 175.353 18.2783 177.489V177.821H21.5957C20.9973 171.615 25.4229 166.332 30.0481 162.83C32.7303 160.712 35.7399 159.045 38.9585 157.895C40.6744 157.231 42.4512 156.736 44.2634 156.417C46.0994 156.248 47.9487 156.29 49.7751 156.543C51.8365 156.749 53.9052 156.927 55.9666 157.163C56.8398 157.216 57.6893 157.468 58.4491 157.902C59.1502 158.432 59.7701 159.062 60.2888 159.771C61.2493 160.924 63.1112 159.934 63.1259 158.597V158.508L60.0154 159.328C61.8403 162.855 62.6873 166.807 62.4684 170.773C62.3206 174.866 61.3675 178.9 61.205 182.986C61.1308 183.927 61.1606 184.873 61.2936 185.808C61.168 185.136 61.3823 186.421 61.3823 186.436C61.3823 186.702 61.4562 186.975 61.5005 187.241C61.6704 188.357 61.8773 189.458 62.1063 190.559C62.6457 193.137 63.3033 195.731 64.0126 198.235C67.6671 210.874 72.0056 223.305 77.0087 235.473C79.2253 240.977 81.4418 246.474 84.0351 251.823C84.774 253.375 87.1087 252.562 87.1309 250.981V250.671L86.6432 251.846C89.7315 248.145 93.1982 244.777 96.987 241.797C98.7676 240.364 100.615 239.012 102.395 237.586C103.817 236.368 105.345 235.28 106.961 234.335C108.408 233.498 110.11 233.217 111.749 233.544C113.834 234.119 115.712 235.275 117.165 236.877C118.671 238.476 120.031 240.207 121.228 242.048C122.599 243.992 123.834 246.029 124.923 248.144C126.1 250.385 126.852 252.825 127.139 255.34C127.25 256.611 127.605 260.143 125.824 260.512C125.402 260.633 125.045 260.914 124.828 261.295C124.611 261.676 124.552 262.127 124.664 262.551C124.79 262.971 125.073 263.327 125.454 263.543C125.835 263.759 126.286 263.819 126.711 263.711C129.186 263.246 130.161 260.756 130.405 258.502C130.679 255.789 130.358 253.049 129.466 250.471C127.737 245.299 124.546 240.534 121.154 236.33C118.037 232.466 113.323 229.089 108.121 230.353C106.033 230.963 104.093 231.999 102.425 233.397C100.43 234.911 98.4647 236.47 96.5141 238.007C94.0759 239.906 91.6969 241.871 89.4508 243.992C88.3056 245.085 87.19 246.208 86.126 247.39C85.2099 248.403 83.8578 249.54 83.8282 250.981L86.924 250.139C81.9072 239.655 77.7771 228.712 73.8613 217.726C71.6448 211.549 69.5686 205.336 67.7585 199.033C67.0196 196.381 66.2808 193.706 65.6602 191.002C65.4016 189.849 65.1651 188.682 64.9213 187.515C64.84 187.057 64.7662 186.599 64.6923 186.133C64.6923 185.985 64.6923 185.838 64.6332 185.69C64.6775 186.03 64.6332 185.778 64.6332 185.69C64.6332 185.453 64.5593 185.21 64.5445 184.951V184.892C64.5888 185.084 64.5962 185.025 64.5445 184.707C64.5878 182.39 64.7531 180.077 65.0395 177.777C65.3277 175.56 65.6897 173.277 65.7784 171.016C66.0519 166.369 65.0531 161.736 62.8895 157.614C62.7016 157.305 62.4186 157.066 62.083 156.932C61.7474 156.797 61.3774 156.776 61.0284 156.87C60.6795 156.964 60.3705 157.169 60.1479 157.453C59.9252 157.738 59.801 158.087 59.7938 158.449V158.537L62.6383 157.355C61.5162 155.857 59.949 154.753 58.1609 154.2C56.1591 153.795 54.1284 153.548 52.0877 153.462C50.0609 153.196 48.0211 153.04 45.9775 152.996C43.8486 153.06 41.7415 153.443 39.7269 154.134C37.7669 154.726 35.8552 155.467 34.0083 156.35C32.3517 157.237 30.7659 158.25 29.2649 159.38C26.2283 161.596 23.2729 164.086 21.2263 167.27C19.2832 170.292 17.9163 174.282 18.271 177.91C18.4778 180.008 21.5219 180.126 21.5957 177.91V177.577H18.271C18.1306 183.178 21.4627 188.933 25.4229 192.701C28.563 195.657 32.6414 197.57 36.7641 198.797L35.6337 197.57C37.1705 205.904 39.5126 214.113 41.7513 222.27C44.7805 233.301 47.9797 244.287 51.2306 255.252C53.9495 264.413 56.7202 273.555 59.5426 282.677C60.9242 287.11 62.4979 292.053 66.1921 295.156C72.3097 300.328 81.0354 299.006 87.5446 295.348C91.0615 293.368 94.1942 290.745 97.3195 288.226L107.752 279.848C110.707 277.505 113.581 275.149 116.551 272.866C119.33 270.822 121.996 268.629 124.538 266.297C125.647 265.252 126.665 264.115 127.582 262.899C127.803 262.517 127.864 262.064 127.752 261.637C127.64 261.211 127.364 260.846 126.984 260.623C126.601 260.41 126.15 260.353 125.726 260.465C125.302 260.576 124.937 260.847 124.708 261.221H124.679Z" fill="#110002"/>
<path d="M76.3429 136.843L82.7058 151.631C83.0488 152.429 83.0611 153.33 82.7399 154.136C82.4186 154.942 81.7902 155.588 80.9928 155.931L17.0062 183.462C14.8696 184.381 12.4553 184.414 10.2945 183.553C8.13366 182.692 6.40328 181.009 5.484 178.872L3.46622 174.182C2.54695 172.046 2.51409 169.631 3.37486 167.471C4.23563 165.31 5.91953 163.579 8.05612 162.66L72.0427 135.13C72.8401 134.786 73.7412 134.774 74.5476 135.095C75.354 135.417 75.9998 136.045 76.3429 136.843Z" fill="#110002" stroke="#110002" stroke-width="2.55789" stroke-miterlimit="10"/>
<path d="M88.8373 160.128C99.8179 160.128 108.719 151.226 108.719 140.245C108.719 129.265 99.8179 120.363 88.8373 120.363C77.8566 120.363 68.9551 129.265 68.9551 140.245C68.9551 151.226 77.8566 160.128 88.8373 160.128Z" fill="#7D7D7D" stroke="#110002" stroke-width="3.41052" stroke-miterlimit="10"/>
<path d="M97.8332 155.888L83.808 123.291C83.3871 122.313 82.2528 121.861 81.2745 122.282L79.2317 123.161C78.2534 123.582 77.8015 124.716 78.2224 125.694L92.2476 158.292C92.6685 159.27 93.8028 159.722 94.7811 159.301L96.8239 158.422C97.8023 158.001 98.2541 156.867 97.8332 155.888Z" fill="#FFEADF" stroke="#110002" stroke-width="3.41052" stroke-linejoin="round"/>
<path d="M66.1656 153.444L63.6543 147.607L54.078 151.728L56.5893 157.564L66.1656 153.444Z" fill="#F43518" stroke="#110002" stroke-width="2.55789" stroke-linejoin="round"/>
<path d="M50.5435 171.296C54.3189 170.846 57.6806 171.414 61.2862 171.836C61.6909 171.91 62.107 171.895 62.5053 171.791C63.414 171.488 63.813 170.432 63.983 169.494C64.2438 168.33 64.402 167.146 64.4558 165.954C64.4947 165.549 64.4545 165.14 64.3376 164.75C64.1087 164.222 63.7248 163.777 63.2367 163.472C61.4349 162.24 59.3019 161.583 57.1191 161.588C54.9374 161.615 52.7697 161.94 50.6764 162.556C49.2608 162.8 47.985 163.558 47.0931 164.684C46.1474 165.718 45.1721 166.981 45.3863 168.378C45.4874 168.848 45.6907 169.291 45.9818 169.674C46.2729 170.057 46.6448 170.371 47.0709 170.594C47.8984 171.075 49.6125 171.075 50.5435 171.289" fill="#E28281"/>
<path d="M50.5436 172.962C52.634 172.748 54.7408 172.748 56.8312 172.962C57.8582 173.065 58.8778 173.191 59.9047 173.317C60.9084 173.566 61.9536 173.598 62.9709 173.413C64.8033 172.844 65.4682 170.96 65.7933 169.253C66.1553 167.295 66.6873 164.768 65.3057 163.098C62.8601 160.143 58.102 159.685 54.5703 160.143C52.5474 160.347 50.5601 160.817 48.6596 161.539C46.8877 162.382 45.425 163.759 44.4778 165.477C43.9103 166.376 43.6736 167.445 43.8084 168.499C43.9433 169.554 44.4412 170.528 45.2166 171.255C46.6943 172.629 48.3271 172.548 50.1594 172.925C52.2504 173.361 53.1148 170.154 51.0461 169.718C50.0929 169.526 48.8295 169.615 47.9577 169.194C47.0859 168.773 46.9307 167.871 47.4479 167.029C48.0688 165.918 49.0295 165.035 50.189 164.51C51.6018 164.023 53.0596 163.679 54.5408 163.483C57.1267 163.084 60.1855 163.209 62.3651 164.842C62.5625 164.951 62.7198 165.12 62.8142 165.325C62.9086 165.529 62.935 165.759 62.8897 165.98C62.8603 166.786 62.7714 167.588 62.6237 168.381C62.553 168.923 62.414 169.455 62.2099 169.962C62.1582 170.058 61.8996 170.332 62.0548 170.25C62.2099 170.169 61.8701 170.25 61.811 170.25L61.1756 170.199C57.6439 169.792 54.1566 169.282 50.6028 169.674C50.166 169.687 49.7506 169.866 49.4417 170.175C49.1327 170.484 48.9534 170.9 48.9404 171.336C48.9423 171.777 49.1181 172.198 49.4294 172.51C49.7407 172.821 50.1625 172.997 50.6028 172.999L50.5436 172.962Z" fill="#110002"/>
<path d="M24.7281 141.242C24.2769 143.156 24.1891 145.139 24.4695 147.086C24.9726 149.915 25.9572 152.636 27.3805 155.132C28.2479 156.927 29.3923 158.576 30.7718 160.016C32.1691 161.459 34.0566 162.326 36.0619 162.446C36.8162 162.491 37.5648 162.291 38.1971 161.877C38.6888 161.503 39.0547 160.987 39.2463 160.4C40.1477 157.762 38.2784 155.087 36.8377 152.701C35.5963 150.65 34.6183 148.451 33.9266 146.155C33.5554 144.574 33.0333 143.033 32.3677 141.552C32.0282 140.811 31.5255 140.156 30.8973 139.637C30.2691 139.117 29.5316 138.747 28.74 138.552C27.1441 138.271 24.9054 139.646 24.7281 141.264" fill="#E28281"/>
<path d="M23.1247 140.798C21.9721 145.97 23.2873 150.78 25.6442 155.383C27.7277 159.461 30.7643 163.769 35.7663 164.094C36.9133 164.22 38.0671 163.928 39.0169 163.273C39.9666 162.618 40.6486 161.642 40.9382 160.525C41.581 158.146 40.5909 155.782 39.4605 153.75C38.207 151.773 37.1149 149.697 36.1948 147.544C35.3451 145.29 34.9683 142.838 33.8379 140.688C32.7075 138.537 30.5944 136.713 28.1267 136.838C25.9693 136.942 23.5311 138.552 23.1617 140.798C23.0593 141.223 23.1222 141.671 23.3376 142.051C23.5529 142.431 23.9047 142.715 24.3217 142.845C24.7477 142.958 25.2014 142.9 25.5845 142.681C25.9675 142.463 26.2491 142.102 26.3682 141.678C26.4964 141.205 26.7916 140.794 27.1992 140.523C27.6068 140.251 28.0991 140.136 28.5848 140.2C29.959 140.444 30.8678 142.01 31.3259 143.155C31.9982 144.869 32.3381 146.702 32.9882 148.431C33.6696 150.245 34.5154 151.994 35.5151 153.654C36.4091 155.132 37.606 156.713 37.835 158.471C37.9381 159.087 37.8231 159.719 37.5099 160.259C37.2966 160.489 37.026 160.657 36.7259 160.746C36.4259 160.836 36.1073 160.844 35.8032 160.769C32.2494 160.459 30.1659 156.816 28.703 153.994C26.7007 150.137 25.393 146.037 26.3682 141.678C26.8337 139.594 23.6345 138.722 23.1617 140.798H23.1247Z" fill="#110002"/>
<path d="M8.58451 153.086C8.12344 154.999 8.0257 156.981 8.29637 158.93C8.81326 161.762 9.81293 164.483 11.2517 166.976C12.1196 168.77 13.2612 170.417 14.6356 171.86C16.0364 173.302 17.9259 174.169 19.9331 174.291C20.6866 174.336 21.4349 174.14 22.0683 173.729C22.5576 173.352 22.923 172.838 23.1175 172.251C24.0189 169.614 22.1496 166.939 20.7089 164.56C19.4658 162.507 18.4877 160.305 17.7979 158.006C17.4263 156.425 16.9017 154.883 16.2315 153.404C15.8932 152.663 15.3918 152.009 14.7649 151.489C14.138 150.97 13.4017 150.599 12.6112 150.404C11.0079 150.123 8.76922 151.497 8.59929 153.115" fill="#E28281"/>
<path d="M6.98129 152.643C5.8287 157.815 7.14384 162.624 9.49335 167.227C11.5843 171.306 14.6135 175.613 19.6228 175.938C20.7698 176.064 21.9237 175.773 22.8734 175.117C23.8231 174.462 24.5051 173.487 24.7947 172.37C25.4375 169.991 24.4475 167.634 23.317 165.595C22.047 163.615 20.9423 161.535 20.0144 159.374C19.1648 157.113 18.788 154.66 17.6575 152.51C16.5271 150.36 14.414 148.535 11.9463 148.66C9.78889 148.771 7.34333 150.375 6.98129 152.621C6.87892 153.045 6.94179 153.493 7.15718 153.873C7.37256 154.253 7.72435 154.537 8.14127 154.667C8.56638 154.781 9.01918 154.723 9.40204 154.506C9.7849 154.289 10.0671 153.93 10.1879 153.507C10.3146 153.034 10.6095 152.622 11.0175 152.35C11.4254 152.078 11.9184 151.964 12.4044 152.03C13.7786 152.266 14.6874 153.832 15.1455 154.985C15.8178 156.699 16.1577 158.531 16.8079 160.26C17.4878 162.075 18.3336 163.824 19.3347 165.484C20.2287 166.961 21.4182 168.55 21.6547 170.301C21.7583 170.917 21.6433 171.549 21.3296 172.089C21.1162 172.318 20.8456 172.486 20.5455 172.576C20.2455 172.666 19.927 172.674 19.6228 172.599C16.069 172.296 13.9855 168.646 12.5226 165.831C10.5129 161.989 9.21259 157.896 10.1879 153.529C10.6533 151.438 7.44676 150.574 6.98129 152.643Z" fill="#110002"/>
<path d="M33.927 140.305C33.4762 142.22 33.3885 144.202 33.6685 146.149C34.1707 148.98 35.1554 151.704 36.5795 154.202C37.4425 155.999 38.5846 157.647 39.9634 159.086C41.359 160.522 43.2399 161.386 45.2387 161.51C45.9899 161.556 46.7362 161.359 47.3665 160.948C47.8573 160.571 48.225 160.057 48.4231 159.47C49.3245 156.833 47.4478 154.158 46.0071 151.779C44.7694 149.727 43.7939 147.528 43.1034 145.233C42.7339 143.64 42.2118 142.086 41.5445 140.593C41.2053 139.853 40.7036 139.199 40.0768 138.68C39.45 138.16 38.7143 137.789 37.9242 137.593C36.3209 137.313 34.0822 138.687 33.9123 140.305" fill="#E28281"/>
<path d="M32.3236 139.861C31.171 145.032 32.4861 149.842 34.8356 154.445C36.9192 158.531 39.9558 162.831 44.9651 163.156C46.1119 163.28 47.265 162.988 48.2143 162.333C49.1637 161.678 49.8461 160.704 50.137 159.588C50.7724 157.216 49.7898 154.852 48.615 152.812C47.3639 150.837 46.2743 148.764 45.3567 146.614C44.4997 144.353 44.1302 141.907 42.9924 139.75C41.8546 137.592 39.7489 135.775 37.2812 135.9C35.1312 136.011 32.6856 137.622 32.3236 139.861C32.2194 140.285 32.2814 140.734 32.4971 141.114C32.7127 141.495 33.0656 141.778 33.4836 141.907C33.9086 142.019 34.3605 141.96 34.7429 141.744C35.1252 141.527 35.4078 141.169 35.5301 140.747C35.6569 140.274 35.9518 139.862 36.3598 139.59C36.7677 139.318 37.2607 139.204 37.7467 139.27C39.1283 139.513 40.0297 141.072 40.4878 142.225C41.1601 143.946 41.5074 145.779 42.1575 147.508C42.8368 149.319 43.6801 151.065 44.677 152.724C45.571 154.202 46.7605 155.79 46.9969 157.548C47.1011 158.163 46.9832 158.794 46.6645 159.329C46.4528 159.558 46.1834 159.727 45.8845 159.816C45.5856 159.906 45.2681 159.914 44.9651 159.839C41.4039 159.536 39.3204 155.893 37.8575 153.071C35.8552 149.214 34.5549 145.106 35.5301 140.755C35.9956 138.671 32.789 137.799 32.3236 139.868V139.861Z" fill="#110002"/>
<path d="M15.7294 145.004C15.2796 146.921 15.1895 148.905 15.4634 150.855C15.9696 153.682 16.9567 156.401 18.3819 158.894C19.2422 160.701 20.3844 162.359 21.7657 163.807C23.1657 165.251 25.0557 166.118 27.0632 166.238C27.8144 166.284 28.5604 166.087 29.1911 165.676C29.6817 165.301 30.0474 164.786 30.2402 164.199C31.149 161.568 29.2724 158.894 27.8316 156.507C26.5939 154.455 25.6184 152.256 24.928 149.961C24.5509 148.379 24.0265 146.835 23.3616 145.351C23.0224 144.611 22.5208 143.957 21.894 143.438C21.2672 142.918 20.5314 142.547 19.7413 142.351C18.138 142.07 15.8994 143.445 15.7294 145.063" fill="#E28281"/>
<path d="M14.1258 144.595C12.9732 149.767 14.2884 154.577 16.6379 159.18C18.7214 163.266 21.758 167.566 26.76 167.891C27.907 168.017 29.0609 167.725 30.0106 167.07C30.9603 166.414 31.6423 165.439 31.9319 164.322C32.5747 161.951 31.5846 159.586 30.4172 157.547C29.1662 155.572 28.0765 153.499 27.159 151.348C26.3019 149.087 25.9325 146.642 24.7947 144.492C23.6569 142.342 21.5512 140.509 19.0834 140.635C16.926 140.746 14.4879 142.357 14.1258 144.595C14.0216 145.02 14.0837 145.468 14.2993 145.849C14.515 146.229 14.8679 146.513 15.2858 146.642C15.7109 146.756 16.1637 146.698 16.5466 146.481C16.9294 146.264 17.2117 145.905 17.3324 145.482C17.4591 145.008 17.7541 144.597 18.162 144.325C18.5699 144.053 19.063 143.939 19.5489 144.004C20.9232 144.248 21.8319 145.814 22.29 146.959C22.9624 148.681 23.3022 150.513 23.9598 152.242C24.6427 154.056 25.4884 155.804 26.4866 157.466C27.3806 158.943 28.5701 160.525 28.7992 162.283C28.9087 162.899 28.7933 163.533 28.4741 164.071C28.2573 164.294 27.9849 164.456 27.6849 164.539C27.3849 164.622 27.0682 164.624 26.7674 164.544C23.2136 164.241 21.13 160.598 19.6671 157.776C17.6649 153.919 16.3645 149.819 17.3398 145.46C17.8052 143.376 14.5987 142.504 14.1332 144.573L14.1258 144.595Z" fill="#110002"/>
<path d="M113.751 273.22C115.735 278.8 118.996 283.837 123.275 287.931C123.614 288.248 125.38 288.773 125.735 288.47C125.92 288.307 124.708 287.842 124.73 287.598C124.981 284.717 125.233 281.806 124.73 278.961C124.582 278.156 124.376 277.365 124.169 276.575L121.952 268.314C119.876 270.383 116.706 270.878 114.276 272.518" fill="#110002"/>
<path d="M112.68 273.516C113.718 276.437 115.094 279.227 116.781 281.828C118.35 284.405 120.289 286.737 122.536 288.751C123.343 289.352 124.323 289.676 125.329 289.674C126.474 289.674 127.42 288.507 126.452 287.539C126.291 287.395 126.116 287.268 125.927 287.162C125.514 286.896 125.772 286.992 125.735 287.118L125.868 287.258L125.913 286.741L125.957 286.217C125.994 285.758 126.023 285.293 126.053 284.835C126.177 283.111 126.135 281.379 125.927 279.663C125.599 277.71 125.148 275.781 124.575 273.885L123.031 268.034C122.976 267.849 122.874 267.682 122.736 267.548C122.598 267.414 122.427 267.318 122.241 267.269C122.055 267.22 121.859 267.22 121.673 267.269C121.486 267.317 121.315 267.413 121.177 267.546C119.108 269.526 116.093 270.029 113.729 271.573C112.54 272.312 113.648 274.27 114.852 273.486C117.394 271.824 120.504 271.27 122.75 269.112L120.896 268.625L122.374 274.306C122.97 276.227 123.431 278.188 123.755 280.173C123.936 282.072 123.936 283.985 123.755 285.884C123.696 286.623 123.408 287.583 123.755 288.241C123.927 288.489 124.148 288.698 124.405 288.854C124.494 288.913 124.598 288.987 124.694 289.039C124.79 289.091 124.967 289.327 124.76 288.995L124.649 288.138V288.189L125.159 287.532C125.366 287.406 125.425 287.532 125.233 287.465C125.149 287.441 125.062 287.429 124.974 287.428C124.722 287.375 124.475 287.301 124.235 287.207C123.718 286.861 123.257 286.437 122.869 285.951C121.673 284.723 120.569 283.409 119.566 282.02C117.575 279.231 115.979 276.18 114.823 272.954C114.342 271.624 112.2 272.216 112.68 273.545V273.516Z" fill="#110002"/>
<path d="M268.095 262.974V398.071H144.243V268.323L149.415 259.612C146.023 265.464 138.162 274.788 134.771 280.64C133.596 282.664 132.392 284.726 130.619 286.248C129.364 287.321 127.873 288.081 126.267 288.464V288.08C123.555 265.863 115.096 243.195 97.9619 228.825C101.132 223.757 132.067 187.694 138.849 185.233C141.821 184.103 144.943 183.414 148.114 183.187C155.377 182.5 157.269 181.953 164.856 181.362C168.107 181.111 171.425 181.281 174.543 180.623C177.661 179.966 182.847 175.998 184.148 173.818L224.983 174.742C226.291 176.958 231.492 180.874 234.588 181.539C237.684 182.204 241.016 182.042 244.267 182.278C251.862 182.869 254.057 181.909 261.017 184.103C264.075 185.071 270.695 189.371 273.791 191.152C277.437 193.303 280.304 196.558 281.977 200.446C285.45 209.312 288.383 218.466 291.294 227.562C297.722 247.651 303.581 267.629 311.117 287.289C311.354 287.917 311.598 288.545 311.856 289.166C296.911 292.196 282.254 296.51 268.05 302.059" fill="#069154"/>
<path d="M268.095 262.974V398.071H144.243V268.323L149.415 259.612C146.023 265.464 138.162 274.788 134.771 280.64C133.596 282.664 132.392 284.726 130.619 286.248C129.364 287.321 127.873 288.081 126.267 288.464V288.08C123.555 265.863 115.096 243.195 97.9619 228.825C101.132 223.757 132.067 187.694 138.849 185.233C141.821 184.103 144.943 183.414 148.114 183.187C155.377 182.5 157.269 181.953 164.856 181.362C168.107 181.111 171.425 181.281 174.543 180.623C177.661 179.966 182.847 175.998 184.148 173.818L224.983 174.742C226.291 176.958 231.492 180.874 234.588 181.539C237.684 182.204 241.016 182.042 244.267 182.278C251.862 182.869 254.057 181.909 261.017 184.103C264.075 185.071 270.695 189.371 273.791 191.152C277.437 193.303 280.304 196.558 281.977 200.446C285.45 209.312 288.383 218.466 291.294 227.562C297.722 247.651 303.581 267.629 311.117 287.289C311.354 287.917 311.598 288.545 311.856 289.166C296.911 292.196 282.254 296.51 268.05 302.059" stroke="#110002" stroke-width="3.41052" stroke-miterlimit="10"/>
<path d="M206.505 303.159C225.39 303.159 240.699 287.85 240.699 268.965C240.699 250.08 225.39 234.771 206.505 234.771C187.62 234.771 172.312 250.08 172.312 268.965C172.312 287.85 187.62 303.159 206.505 303.159Z" fill="white" stroke="#110002" stroke-width="3.41052" stroke-miterlimit="10"/>
<path d="M191.979 289.098L203.858 256.535H216.022L227.902 289.098H216.827L215.454 284.507H204.048L202.675 289.098H191.979ZM206.225 277.218H213.324L211.762 272.012C211.636 271.633 211.494 271.176 211.336 270.639C211.179 270.103 211.021 269.535 210.863 268.935C210.705 268.336 210.548 267.752 210.39 267.184C210.232 266.585 210.09 266.064 209.964 265.622H209.585C209.459 266.19 209.286 266.837 209.065 267.563C208.875 268.288 208.67 269.046 208.449 269.835C208.228 270.592 208.008 271.318 207.787 272.012L206.225 277.218Z" fill="#110002"/>
<path d="M203.853 207.583C219.036 207.583 231.345 197.289 231.345 184.59C231.345 171.892 219.036 161.598 203.853 161.598C188.669 161.598 176.36 171.892 176.36 184.59C176.36 197.289 188.669 207.583 203.853 207.583Z" fill="#FEB20E" stroke="#110002" stroke-width="3.41052" stroke-miterlimit="10"/>
<path d="M185.426 156.808H222.671C223.006 156.808 223.328 156.941 223.565 157.178C223.801 157.415 223.935 157.737 223.935 158.072V179.121C223.935 183.754 222.094 188.196 218.819 191.472C215.543 194.747 211.101 196.587 206.468 196.587H201.614C199.32 196.588 197.048 196.137 194.928 195.26C192.808 194.383 190.882 193.096 189.259 191.474C187.636 189.852 186.349 187.927 185.471 185.807C184.593 183.687 184.141 181.416 184.141 179.121V158.072C184.141 157.737 184.274 157.415 184.511 157.178C184.748 156.941 185.069 156.808 185.404 156.808H185.426Z" fill="#E28281" stroke="#110002" stroke-width="3.41052" stroke-miterlimit="10"/>
<path d="M185.537 23.1387H221.23C230.761 23.1387 239.902 26.9249 246.642 33.6644C253.381 40.404 257.167 49.5447 257.167 59.0759V113.373C257.167 125.548 252.331 137.224 243.722 145.832C235.114 154.441 223.438 159.277 211.263 159.277H196.568C184.393 159.277 172.717 154.441 164.109 145.832C155.5 137.224 150.664 125.548 150.664 113.373V58.0045C150.666 48.7569 154.341 39.8886 160.88 33.3502C167.42 26.8118 176.289 23.1387 185.537 23.1387Z" fill="#E28281" stroke="#110002" stroke-width="3.41052" stroke-miterlimit="10"/>
<path d="M177.313 109.834C180.084 109.834 182.33 107.588 182.33 104.818C182.33 102.047 180.084 99.8008 177.313 99.8008C174.542 99.8008 172.296 102.047 172.296 104.818C172.296 107.588 174.542 109.834 177.313 109.834Z" fill="#110002"/>
<path d="M183.224 93.7939L169.297 92.2793" stroke="#110002" stroke-width="4.26316" stroke-miterlimit="10" stroke-linecap="round"/>
<path d="M226.89 109.826C229.66 109.826 231.906 107.58 231.906 104.81C231.906 102.039 229.66 99.793 226.89 99.793C224.119 99.793 221.873 102.039 221.873 104.81C221.873 107.58 224.119 109.826 226.89 109.826Z" fill="#110002"/>
<path d="M220.321 93.7857L234.248 92.2637" stroke="#110002" stroke-width="4.26316" stroke-miterlimit="10" stroke-linecap="round"/>
<path d="M191.61 128.342C190.526 127.583 189.717 126.495 189.305 125.238C189.018 124.339 188.947 123.385 189.098 122.453C190.472 120.887 197.809 112.279 195.223 103.664C194.921 102.654 194.496 101.683 193.959 100.775" stroke="#110002" stroke-width="3.41052" stroke-miterlimit="10" stroke-linecap="round"/>
<path d="M257.167 92.375V114.23C260.066 114.23 262.845 113.079 264.894 111.029C266.944 108.98 268.095 106.201 268.095 103.302C268.095 100.404 266.944 97.6249 264.894 95.5756C262.845 93.5263 260.066 92.375 257.167 92.375Z" fill="#E28281" stroke="#110002" stroke-width="3.41052" stroke-miterlimit="10"/>
<path d="M150.664 92.375V114.23C146.378 114.23 142.906 109.339 142.906 103.302C142.906 97.2661 146.378 92.375 150.664 92.375Z" fill="#E28281" stroke="#110002" stroke-width="3.41052" stroke-miterlimit="10"/>
<path d="M187.938 62.127C186.342 66.5009 183.505 71.1186 176.759 77.8716C169.644 85.0007 160.554 89.8316 150.664 91.7397V62.127H187.938Z" fill="#110002" stroke="#110002" stroke-width="3.41052" stroke-miterlimit="10" stroke-linecap="round"/>
<path d="M219.9 62.8945C221.496 67.2685 224.333 71.8936 231.079 78.6392C238.192 85.7677 247.28 90.5986 257.167 92.5072V62.8945H219.9Z" fill="#110002" stroke="#110002" stroke-width="3.41052" stroke-miterlimit="10" stroke-linecap="round"/>
<path d="M227.082 70.1133C232.707 77.7976 240.504 83.6211 249.469 86.8332" stroke="#1F307C" stroke-width="1.70526" stroke-miterlimit="10" stroke-linecap="round"/>
<path d="M241.032 77.8418C244.994 80.6439 249.542 82.5084 254.331 83.2945V74.4062C240.492 72.9729 237.219 73.5344 237.079 74.4062C236.938 75.0268 238.298 75.9652 241.032 77.8418Z" fill="#1F307C" stroke="#1F307C" stroke-width="1.70526" stroke-miterlimit="10" stroke-linecap="round"/>
<path d="M179.818 70.3809C174.194 78.0652 166.396 83.8887 157.432 87.1008" stroke="#1F307C" stroke-width="1.70526" stroke-miterlimit="10" stroke-linecap="round"/>
<path d="M165.625 78.1007C164.359 78.904 163.038 79.6175 161.672 80.2359C158.896 81.4738 155.966 82.3336 152.961 82.7923V75.1453C166.172 73.9115 170.184 73.6676 170.317 74.4065C170.405 74.9237 168.226 76.49 165.625 78.1007Z" fill="#1F307C" stroke="#1F307C" stroke-width="1.70526" stroke-miterlimit="10" stroke-linecap="round"/>
<path d="M259.739 73.6676H148.588C147.433 73.6589 146.328 73.2004 145.507 72.3895C145.103 71.9836 144.783 71.5017 144.566 70.9716C144.349 70.4416 144.24 69.8738 144.243 69.3011V58.7357C144.242 58.1626 144.354 57.595 144.573 57.0652C144.792 56.5355 145.113 56.0541 145.517 55.6485C145.922 55.243 146.403 54.9212 146.933 54.7017C147.462 54.4821 148.029 54.3691 148.602 54.3691H259.739C260.897 54.3691 262.007 54.8292 262.826 55.6481C263.645 56.467 264.105 57.5776 264.105 58.7357V69.3011C264.105 70.4592 263.645 71.5698 262.826 72.3887C262.007 73.2076 260.897 73.6676 259.739 73.6676Z" fill="#FEB20E" stroke="#110002" stroke-width="3.41052" stroke-miterlimit="10"/>
<path d="M186.032 2H221.821C232.212 2.0137 242.172 6.15082 249.514 13.5027C256.856 20.8545 260.98 30.82 260.98 41.2102V54.369H146.822V41.2102C146.822 30.811 150.953 20.8378 158.306 13.4844C165.66 6.13107 175.633 2 186.032 2Z" fill="#FEB20E" stroke="#110002" stroke-width="3.41052" stroke-miterlimit="10"/>
<path d="M153.641 54.3691V73.6603" stroke="#110002" stroke-width="3.41052" stroke-miterlimit="10"/>
<path d="M165.802 54.3691V73.6603" stroke="#110002" stroke-width="3.41052" stroke-miterlimit="10"/>
<path d="M177.099 54.0215V73.3126" stroke="#110002" stroke-width="3.41052" stroke-miterlimit="10"/>
<path d="M187.724 54.0215V73.3126" stroke="#110002" stroke-width="3.41052" stroke-miterlimit="10"/>
<path d="M198.991 53.9043V73.1954" stroke="#110002" stroke-width="3.41052" stroke-miterlimit="10"/>
<path d="M210.384 53.9043V73.1954" stroke="#110002" stroke-width="3.41052" stroke-miterlimit="10"/>
<path d="M220.913 53.5566V72.8478" stroke="#110002" stroke-width="3.41052" stroke-miterlimit="10"/>
<path d="M232.305 53.5566V72.8478" stroke="#110002" stroke-width="3.41052" stroke-miterlimit="10"/>
<path d="M243.816 54.0742V73.3653" stroke="#110002" stroke-width="3.41052" stroke-miterlimit="10"/>
<path d="M255.209 54.0742V73.3653" stroke="#110002" stroke-width="3.41052" stroke-miterlimit="10"/>
<path d="M202.264 46.7289C211.474 46.7289 218.94 43.6228 218.94 39.7912C218.94 35.9596 211.474 32.8535 202.264 32.8535C193.054 32.8535 185.588 35.9596 185.588 39.7912C185.588 43.6228 193.054 46.7289 202.264 46.7289Z" fill="#F43518" stroke="#110002" stroke-width="3.41052" stroke-miterlimit="10"/>
<path d="M193.435 133.986L220.72 130.684L218.393 135.058C217.529 136.874 216.222 138.445 214.593 139.625C212.964 140.804 211.064 141.556 209.069 141.811H208.965C206.428 142.138 203.849 141.81 201.473 140.86C199.098 139.909 197.005 138.367 195.393 136.38L193.435 133.986Z" fill="#F43518" stroke="#110002" stroke-width="3.41052" stroke-linejoin="round"/>
<path d="M199.73 140.525C199.641 139.332 199.688 138.132 199.871 136.949C200.26 135.575 201.028 134.339 202.087 133.381L193.354 135.375L199.73 140.525Z" fill="#110002" stroke="#110002" stroke-width="0.852631" stroke-linejoin="round"/>
</svg>
