<svg width="1633" height="283" viewBox="0 0 1633 283" fill="none" xmlns="http://www.w3.org/2000/svg">
<path d="M1628.19 155.558C1627.28 164.671 1625.48 173.674 1622.82 182.439C1619.97 191.709 1616.16 200.657 1611.45 209.136C1608.74 213.899 1605.78 218.519 1602.59 222.98C1599.47 227.277 1596.09 231.391 1592.5 235.302C1587.72 240.757 1582.18 245.355 1576.62 249.973C1570.36 255.174 1563.34 259.23 1556.31 263.174C1544.05 270.019 1530.77 273.963 1517.04 276.538C1506.59 278.567 1495.9 279.155 1485.28 278.285C1473.87 277.336 1462.62 275.013 1451.77 271.368C1450.62 270.979 1449.49 270.581 1448.35 270.162L1447.78 269.948C1446.94 269.641 1446.09 269.314 1445.24 268.987C1443.94 268.483 1442.66 267.962 1441.38 267.424C1440.1 266.886 1438.89 266.334 1437.76 265.769C1436.88 265.329 1436 264.88 1435.14 264.41C1427.84 260.384 1420.47 256.42 1413.97 251.128C1411.93 249.462 1409.89 247.817 1407.84 246.111C1404.67 243.485 1401.67 240.652 1398.86 237.631C1397.22 235.823 1395.55 234.024 1393.93 232.185C1392.11 230.142 1390.35 228.037 1388.73 225.83C1388.25 225.176 1387.77 224.533 1387.3 223.869C1384.22 219.723 1381.39 215.394 1378.84 210.903C1376.51 206.704 1374.21 202.474 1372.3 198.071C1362.8 176.475 1358.91 152.831 1360.99 129.331C1362.62 110.919 1367.93 93.0203 1376.59 76.6924C1378.84 72.3604 1381.51 68.2225 1384.16 64.1357C1387.63 59.0428 1391.42 54.1827 1395.52 49.5867C1399.61 44.8051 1404.31 40.7387 1408.94 36.5395C1414.99 31.0836 1421.83 26.8027 1428.77 22.6137C1439.07 16.412 1450.22 12.3967 1461.74 9.15789C1472.52 6.09278 1483.5 5.13238 1493.14 4.87695C1504.78 4.87695 1514.9 5.75562 1524.76 8.29966C1536.18 11.2524 1547.42 15.094 1557.72 20.8462L1558.92 21.5409C1561.57 23.0735 1564.2 24.606 1566.77 26.2714C1570.9 28.8547 1574.83 31.7296 1578.55 34.8741C1579.83 35.9674 1581.12 37.0708 1582.38 38.1742C1586.15 41.372 1589.69 44.8305 1592.97 48.5241C1596.66 52.5823 1600.11 56.8499 1603.31 61.3056C1604.2 62.6338 1605.09 63.9518 1605.99 65.28C1606.73 66.3937 1607.48 67.5073 1608.19 68.6312C1608.91 69.7551 1609.67 70.9913 1610.38 72.1969C1610.83 72.9939 1611.28 73.7908 1611.71 74.5979C1611.81 74.8125 1611.92 75.0271 1612.03 75.2416C1612.58 76.2633 1613.13 77.3566 1613.67 78.4191C1615.21 81.4842 1616.73 84.5493 1618.02 87.6144C1627.05 109.046 1630.54 132.402 1628.19 155.537V155.558Z" fill="#FEFEFE" stroke="#110002" stroke-width="4" stroke-linecap="round" stroke-linejoin="round"/>
<path d="M1494.7 280.737C1491.49 280.737 1488.26 280.604 1485.11 280.328C1473.54 279.358 1462.12 277.005 1451.11 273.32C1449.95 272.921 1448.79 272.512 1447.64 272.094L1447.16 271.91L1444.5 270.888C1443.12 270.357 1441.84 269.866 1440.58 269.294C1439.32 268.722 1438.09 268.191 1436.86 267.598C1435.96 267.148 1435.06 266.679 1434.16 266.188L1432.99 265.555C1426.09 261.764 1418.97 257.841 1412.68 252.722L1412.11 252.252C1410.28 250.771 1408.4 249.187 1406.57 247.685C1403.32 245.002 1400.24 242.107 1397.37 239.021L1395.85 237.345C1394.71 236.089 1393.55 234.832 1392.42 233.545C1390.27 231.123 1388.58 229.059 1387.1 227.047L1385.66 225.085C1382.51 220.869 1379.62 216.464 1377.01 211.895C1374.74 207.808 1372.36 203.425 1370.39 198.878C1360.76 176.971 1356.83 152.983 1358.96 129.147C1359.72 120.482 1361.29 111.907 1363.65 103.533C1366.36 93.9046 1370.08 84.5895 1374.75 75.7427C1377.05 71.38 1379.69 67.2421 1382.41 63.0225C1385.85 57.9833 1389.6 53.1713 1393.65 48.6165L1393.96 48.2589C1397.63 44.1344 1401.57 40.2603 1405.76 36.6626L1407.57 35.0278C1413.78 29.3983 1420.64 25.1275 1427.72 20.867C1439.28 13.8888 1451.68 9.89395 1461.18 7.19666C1470.37 4.59131 1480.77 3.16093 1493.09 2.83398C1506.18 2.83398 1516.09 3.95786 1525.27 6.32821C1538.8 9.82243 1549.46 13.8684 1558.71 19.0688L1559.96 19.7738C1563.17 21.6435 1565.62 23.1148 1567.87 24.5452C1572.08 27.1844 1576.09 30.1171 1579.88 33.3216C1581.17 34.425 1582.45 35.5319 1583.73 36.6421C1587.57 39.9009 1591.17 43.4242 1594.52 47.1861L1595.96 48.8617C1599.19 52.4483 1602.21 56.2215 1604.99 60.1617C1605.89 61.4899 1606.79 62.8079 1607.69 64.1464C1608.44 65.26 1609.18 66.3941 1609.92 67.5282C1610.65 68.6623 1611.45 70.0007 1612.13 71.1757C1612.61 71.993 1613.06 72.8104 1613.5 73.638C1613.5 73.638 1614.95 76.4272 1615.49 77.4898C1616.98 80.4017 1618.55 83.5485 1619.91 86.8588C1623.78 96.0633 1626.66 105.653 1628.5 115.466C1634.65 147.844 1629.25 181.351 1613.24 210.158C1610.49 214.977 1607.5 219.653 1604.28 224.165C1601.51 228.031 1598.51 231.726 1595.3 235.23L1594.03 236.671C1589.15 242.26 1583.44 247.001 1577.93 251.578C1571.44 256.962 1564.19 261.151 1557.31 264.993C1546.07 271.266 1533.37 275.588 1517.46 278.581C1509.96 280.007 1502.34 280.728 1494.7 280.737Z" fill="#110002"/>
<path d="M1493.14 4.87783C1504.78 4.87783 1514.9 5.75649 1524.76 8.30053C1536.18 11.2533 1547.42 15.0949 1557.72 20.847L1558.92 21.5418C1561.57 23.0744 1564.2 24.6069 1566.77 26.2723C1570.9 28.8555 1574.83 31.7304 1578.55 34.875C1579.83 35.9682 1581.12 37.0717 1582.38 38.1751C1586.15 41.3729 1589.69 44.8314 1592.97 48.525C1596.66 52.5832 1600.11 56.8508 1603.31 61.3065C1604.2 62.6347 1605.09 63.9527 1605.99 65.2809C1606.73 66.3946 1607.48 67.5082 1608.19 68.6321C1608.91 69.756 1609.67 70.9922 1610.38 72.1978C1610.83 72.9948 1611.28 73.7917 1611.71 74.5988C1611.81 74.8134 1611.92 75.0279 1612.03 75.2425C1612.58 76.2642 1613.13 77.3574 1613.67 78.42C1615.21 81.4851 1616.73 84.5502 1618.02 87.6153C1626.21 107.039 1629.88 128.073 1628.74 149.123C1627.6 170.174 1621.69 190.689 1611.45 209.116C1608.74 213.886 1605.78 218.514 1602.59 222.981C1599.47 227.278 1596.09 231.392 1592.5 235.302C1587.72 240.758 1582.18 245.356 1576.62 249.974C1570.36 255.175 1563.34 259.231 1556.31 263.175C1544.05 270.02 1530.77 273.964 1517.04 276.538C1509.68 277.952 1502.2 278.674 1494.7 278.694C1491.56 278.694 1488.43 278.572 1485.28 278.296C1473.87 277.347 1462.62 275.024 1451.77 271.379C1450.62 270.991 1449.49 270.592 1448.34 270.173L1447.78 269.959C1446.94 269.652 1446.09 269.325 1445.24 268.998C1443.94 268.494 1442.66 267.973 1441.38 267.435C1440.1 266.897 1438.89 266.345 1437.76 265.78C1436.88 265.341 1436 264.891 1435.14 264.421C1427.84 260.396 1420.47 256.431 1413.97 251.139C1411.93 249.473 1409.89 247.829 1407.84 246.122C1404.67 243.496 1401.67 240.663 1398.86 237.642C1397.22 235.834 1395.55 234.036 1393.93 232.197C1392.11 230.153 1390.35 228.048 1388.73 225.842C1388.25 225.188 1387.77 224.544 1387.3 223.88C1384.22 219.731 1381.39 215.398 1378.84 210.904C1376.51 206.705 1374.21 202.475 1372.3 198.072C1362.8 176.476 1358.91 152.832 1360.99 129.331C1362.62 110.919 1367.93 93.0212 1376.59 76.6933C1378.84 72.3613 1381.51 68.2234 1384.16 64.1366C1387.63 59.0437 1391.42 54.1835 1395.52 49.5875C1399.61 44.806 1404.31 40.7396 1408.94 36.5404C1414.99 31.0845 1421.83 26.8036 1428.77 22.6146C1439.07 16.4129 1450.22 12.3976 1461.74 9.15876C1472.52 6.09365 1483.5 5.13325 1493.14 4.87783ZM1493.14 0.791016H1493.02C1480.54 1.12818 1469.94 2.579 1460.57 5.22521C1450.99 7.94294 1438.43 12.0297 1426.65 19.1204C1419.78 23.2685 1412.55 27.7844 1406.2 33.4855L1404.38 35.1407C1400.13 38.8035 1396.13 42.7422 1392.41 46.9311L1392.1 47.2989C1388 51.9199 1384.2 56.8038 1380.73 61.9195C1377.98 66.1698 1375.31 70.3588 1372.97 74.7827C1364.06 91.578 1358.59 109.991 1356.91 128.933C1354.78 153.11 1358.78 177.434 1368.54 199.655C1370.58 204.284 1372.95 208.708 1375.25 212.845C1377.9 217.489 1380.84 221.965 1384.04 226.25L1385.47 228.202C1386.99 230.245 1388.72 232.38 1390.93 234.863C1392.06 236.15 1393.23 237.438 1394.37 238.684L1395.89 240.35C1398.82 243.505 1401.95 246.465 1405.26 249.208C1407.09 250.761 1408.97 252.273 1410.79 253.775L1411.4 254.265C1417.84 259.496 1425.04 263.461 1432.01 267.302L1433.17 267.946C1434.09 268.457 1435.03 268.968 1435.96 269.397C1437.22 270.01 1438.5 270.602 1439.78 271.144C1441.07 271.685 1442.36 272.217 1443.77 272.758C1444.63 273.095 1445.5 273.422 1446.37 273.78L1446.57 273.851L1446.91 273.974C1448.07 274.403 1449.25 274.822 1450.46 275.231C1461.62 278.984 1473.2 281.385 1484.93 282.383C1488.15 282.658 1491.43 282.791 1494.7 282.791C1502.45 282.761 1510.18 282.016 1517.79 280.564C1533.95 277.499 1546.83 273.136 1558.29 266.74C1565.25 262.868 1572.59 258.567 1579.23 253.121C1584.8 248.482 1590.57 243.701 1595.57 237.99L1596.83 236.559C1600.1 232.999 1603.15 229.246 1605.96 225.32C1609.22 220.747 1612.25 216.011 1615.03 211.129C1631.19 181.888 1636.67 147.93 1630.51 115.089C1628.64 105.148 1625.72 95.4343 1621.79 86.1134C1620.4 82.7418 1618.82 79.5439 1617.31 76.5912L1615.67 73.3319L1615.34 72.7087V72.6474C1614.89 71.7994 1614.42 70.9514 1613.94 70.1238C1613.24 68.908 1612.49 67.6921 1611.66 66.4048C1611.01 65.3831 1610.3 64.2899 1609.42 62.9719L1606.68 59.0281C1603.85 55.0197 1600.77 51.1849 1597.48 47.5441L1596.03 45.8685C1592.63 42.0277 1588.95 38.4325 1585.04 35.11C1583.76 33.9998 1582.48 32.8895 1581.18 31.7793C1577.31 28.5082 1573.21 25.5204 1568.92 22.8394C1566.01 20.9901 1563.12 19.2838 1560.93 18.0169L1559.68 17.2711C1550.27 12.0297 1539.49 7.88163 1525.78 4.34654C1516.43 1.93532 1506.37 0.842101 1493.15 0.791016L1493.14 0.791016Z" fill="#110002"/>
<path d="M1605.99 65.2802L1550.7 131.17L1493.14 199.767L1437.76 265.769C1436.88 265.33 1436 264.88 1435.14 264.41C1427.84 260.385 1420.47 256.42 1413.97 251.128C1411.93 249.463 1409.89 247.818 1407.84 246.111L1458.01 186.321L1486.34 152.605L1503.71 131.844L1532.13 97.9747L1582.29 38.2051C1586.06 41.4028 1589.59 44.8613 1592.88 48.5549C1596.59 52.6008 1600.08 56.8581 1603.31 61.3058C1604.2 62.634 1605.09 63.952 1605.99 65.2802Z" fill="#363636" stroke="#110002" stroke-miterlimit="10"/>
<path d="M1566.77 26.2727L1515.37 87.5749L1445.38 170.987L1393.98 232.289C1392.16 230.246 1390.4 228.141 1388.78 225.934C1388.3 225.28 1387.82 224.636 1387.35 223.972L1440.69 160.412L1504.34 84.5405L1557.72 20.9395L1558.92 21.6342C1561.57 23.0748 1564.2 24.6278 1566.77 26.2727Z" fill="#363636" stroke="#110002" stroke-miterlimit="10"/>
<path d="M1613.67 78.4402L1554.66 148.764L1550.39 153.872L1515.13 195.854L1511.12 200.646L1451.77 271.368C1450.62 270.98 1449.49 270.582 1448.34 270.163L1447.78 269.948C1446.93 269.642 1446.09 269.315 1445.24 268.988L1501.44 202.066L1503.89 199.144L1551.65 142.225L1554.61 138.69L1610.39 72.2793C1610.84 73.0762 1611.29 73.8732 1611.72 74.6803C1611.82 74.8949 1611.93 75.1094 1612.04 75.324C1612.58 76.2946 1613.12 77.3572 1613.67 78.4402Z" fill="#363636" stroke="#110002" stroke-miterlimit="10"/>
<path d="M1494.64 83.7215C1502.86 83.5411 1511.01 85.3202 1518.4 88.9117C1525.2 92.2935 1531.49 96.4927 1536.54 102.255C1543.43 109.924 1548.2 119.266 1550.35 129.351C1552.2 138.126 1552.05 147.205 1549.91 155.915C1548.88 159.922 1547.46 163.816 1545.66 167.542C1542.94 173.106 1539.36 178.205 1535.05 182.653C1529.23 188.926 1522.08 193.023 1514.28 196.272C1506.64 199.44 1498.7 200.124 1490.6 199.736C1486.07 199.59 1481.59 198.738 1477.32 197.212C1469.47 194.3 1462.1 190.469 1456.05 184.564C1451.79 180.499 1448.15 175.831 1445.25 170.709C1439.5 160.434 1436.94 148.679 1437.89 136.942C1438.44 130.156 1440.17 123.518 1443 117.325C1445.3 112.43 1448.23 107.856 1451.71 103.716C1456.49 97.7188 1462.62 93.4583 1469.35 89.8006C1475.43 86.583 1482.09 84.6068 1488.94 83.9871C1490.88 83.7725 1492.81 83.793 1494.64 83.7215Z" fill="#FADCCC" stroke="#110002" stroke-width="4" stroke-linecap="round" stroke-linejoin="round"/>
<path d="M1494.72 155.385C1487.05 155.62 1480.89 148.887 1481.12 141.194C1481.34 134.461 1487.74 127.503 1495.22 127.85C1501.9 128.147 1508.5 134.808 1508.18 142.083C1507.85 149.551 1502.02 155.508 1494.72 155.385Z" fill="#110002" stroke="#110002" stroke-width="4" stroke-linecap="round" stroke-linejoin="round"/>
<path d="M1368.74 176.125C1368.13 182.151 1366.95 188.103 1365.19 193.898C1363.3 200.028 1360.78 205.944 1357.67 211.551C1355.88 214.7 1353.92 217.755 1351.81 220.704C1349.75 223.546 1347.52 226.266 1345.14 228.852C1341.98 232.459 1338.32 235.499 1334.64 238.553C1330.5 241.991 1325.86 244.673 1321.21 247.281C1313.1 251.807 1304.32 254.415 1295.25 256.117C1288.33 257.459 1281.27 257.848 1274.25 257.272C1266.7 256.645 1259.26 255.109 1252.09 252.699C1251.33 252.442 1250.58 252.178 1249.82 251.901L1249.45 251.76C1248.89 251.557 1248.33 251.341 1247.77 251.125C1246.92 250.791 1246.06 250.447 1245.22 250.091C1244.37 249.735 1243.57 249.37 1242.83 248.997C1242.24 248.706 1241.66 248.409 1241.1 248.098C1236.27 245.436 1231.4 242.815 1227.1 239.316C1225.75 238.215 1224.4 237.127 1223.05 235.999C1220.95 234.262 1218.96 232.389 1217.11 230.392C1216.02 229.196 1214.92 228.007 1213.84 226.791C1212.64 225.44 1211.48 224.048 1210.41 222.589C1210.09 222.157 1209.77 221.731 1209.46 221.292C1207.42 218.551 1205.55 215.688 1203.87 212.719C1202.33 209.943 1200.81 207.146 1199.54 204.234C1193.26 189.955 1190.69 174.322 1192.06 158.783C1193.14 146.609 1196.65 134.775 1202.38 123.979C1203.87 121.114 1205.63 118.378 1207.39 115.676C1209.68 112.309 1212.19 109.095 1214.9 106.056C1217.6 102.895 1220.71 100.206 1223.77 97.4295C1227.77 93.8221 1232.29 90.9915 1236.88 88.2217C1243.69 84.1211 1251.07 81.4662 1258.68 79.3247C1265.81 77.298 1273.07 76.663 1279.44 76.4941C1287.14 76.4941 1293.83 77.0751 1300.35 78.7572C1307.9 80.7096 1315.33 83.2497 1322.14 87.053L1322.94 87.5124C1324.69 88.5257 1326.43 89.5391 1328.13 90.6402C1330.86 92.3483 1333.46 94.2492 1335.92 96.3284C1336.76 97.0512 1337.61 97.7808 1338.45 98.5104C1340.94 100.625 1343.28 102.912 1345.45 105.354C1347.89 108.037 1350.17 110.859 1352.29 113.805C1352.87 114.683 1353.47 115.555 1354.06 116.433C1354.55 117.169 1355.04 117.906 1355.51 118.649C1355.99 119.392 1356.49 120.209 1356.96 121.006C1357.26 121.533 1357.56 122.06 1357.84 122.594C1357.91 122.736 1357.98 122.878 1358.06 123.019C1358.42 123.695 1358.78 124.418 1359.14 125.12C1360.16 127.147 1361.16 129.174 1362.01 131.2C1367.98 145.371 1370.29 160.814 1368.74 176.111V176.125Z" fill="#FEFEFE" stroke="#110002" stroke-width="4" stroke-linecap="round" stroke-linejoin="round"/>
<path d="M1280.47 258.893C1278.35 258.893 1276.22 258.805 1274.13 258.623C1266.48 257.981 1258.94 256.425 1251.66 253.988C1250.89 253.725 1250.12 253.455 1249.36 253.178L1249.04 253.056L1247.28 252.381C1246.37 252.029 1245.52 251.705 1244.69 251.327C1243.86 250.949 1243.04 250.597 1242.23 250.205C1241.63 249.908 1241.04 249.597 1240.45 249.273L1239.67 248.854C1235.11 246.348 1230.4 243.754 1226.24 240.369L1225.86 240.059C1224.65 239.079 1223.41 238.032 1222.2 237.039C1220.05 235.265 1218.02 233.351 1216.12 231.31L1215.11 230.202C1214.36 229.371 1213.59 228.54 1212.84 227.689C1211.43 226.088 1210.3 224.724 1209.33 223.393L1208.38 222.096C1206.3 219.308 1204.39 216.395 1202.66 213.374C1201.16 210.672 1199.58 207.774 1198.28 204.768C1191.91 190.282 1189.31 174.422 1190.72 158.661C1191.23 152.932 1192.26 147.262 1193.82 141.725C1195.62 135.359 1198.08 129.2 1201.16 123.35C1202.68 120.465 1204.43 117.729 1206.23 114.939C1208.5 111.607 1210.98 108.426 1213.66 105.414L1213.87 105.178C1216.29 102.451 1218.9 99.889 1221.67 97.5101L1222.86 96.4293C1226.97 92.707 1231.5 89.8831 1236.19 87.0661C1243.83 82.4521 1252.03 79.8106 1258.31 78.0272C1264.39 76.3045 1271.27 75.3588 1279.41 75.1426C1288.07 75.1426 1294.62 75.8857 1300.69 77.453C1309.63 79.7634 1316.68 82.4386 1322.8 85.8771L1323.62 86.3432C1325.75 87.5795 1327.36 88.5523 1328.86 89.4981C1331.64 91.2431 1334.29 93.1823 1336.8 95.3011C1337.65 96.0307 1338.5 96.7625 1339.34 97.4966C1341.88 99.6514 1344.26 101.981 1346.48 104.468L1347.43 105.576C1349.56 107.948 1351.56 110.443 1353.4 113.048C1354 113.926 1354.59 114.798 1355.18 115.683C1355.68 116.419 1356.17 117.169 1356.66 117.919C1357.14 118.668 1357.67 119.553 1358.12 120.33C1358.44 120.871 1358.74 121.411 1359.03 121.958C1359.03 121.958 1359.99 123.803 1360.34 124.505C1361.32 126.431 1362.37 128.511 1363.26 130.7C1365.82 136.786 1367.73 143.127 1368.95 149.616C1373.01 171.024 1369.44 193.179 1358.85 212.226C1357.04 215.412 1355.06 218.504 1352.93 221.488C1351.1 224.043 1349.11 226.487 1346.99 228.804L1346.15 229.756C1342.92 233.452 1339.15 236.586 1335.51 239.613C1331.22 243.173 1326.42 245.943 1321.87 248.483C1314.44 252.631 1306.04 255.488 1295.53 257.468C1290.56 258.41 1285.53 258.887 1280.47 258.893Z" fill="#110002"/>
<path d="M1279.44 76.4932C1287.14 76.4932 1293.83 77.0742 1300.35 78.7563C1307.9 80.7087 1315.33 83.2488 1322.14 87.0521L1322.94 87.5115C1324.69 88.5248 1326.43 89.5382 1328.13 90.6393C1330.86 92.3474 1333.46 94.2483 1335.92 96.3275C1336.76 97.0503 1337.61 97.7799 1338.45 98.5095C1340.94 100.624 1343.28 102.911 1345.45 105.353C1347.89 108.036 1350.17 110.858 1352.29 113.804C1352.87 114.682 1353.47 115.554 1354.06 116.432C1354.55 117.168 1355.04 117.905 1355.51 118.648C1355.99 119.391 1356.49 120.208 1356.96 121.005C1357.26 121.532 1357.56 122.059 1357.84 122.593C1357.91 122.735 1357.98 122.877 1358.06 123.019C1358.42 123.694 1358.78 124.417 1359.14 125.12C1360.16 127.146 1361.16 129.173 1362.01 131.2C1367.43 144.043 1369.86 157.95 1369.1 171.869C1368.35 185.787 1364.44 199.352 1357.67 211.536C1355.88 214.69 1353.92 217.75 1351.81 220.704C1349.75 223.545 1347.52 226.265 1345.14 228.851C1341.98 232.458 1338.32 235.498 1334.64 238.552C1330.5 241.99 1325.86 244.672 1321.21 247.28C1313.1 251.806 1304.32 254.414 1295.25 256.116C1290.38 257.051 1285.43 257.528 1280.47 257.541C1278.4 257.541 1276.33 257.46 1274.25 257.278C1266.7 256.65 1259.26 255.115 1252.09 252.704C1251.33 252.448 1250.58 252.184 1249.82 251.907L1249.45 251.765C1248.89 251.563 1248.33 251.347 1247.77 251.13C1246.92 250.797 1246.06 250.453 1245.22 250.097C1244.37 249.741 1243.57 249.376 1242.83 249.002C1242.25 248.712 1241.66 248.415 1241.1 248.104C1236.27 245.442 1231.4 242.821 1227.1 239.322C1225.75 238.221 1224.4 237.133 1223.05 236.005C1220.95 234.268 1218.96 232.395 1217.11 230.398C1216.02 229.202 1214.92 228.013 1213.84 226.797C1212.64 225.446 1211.48 224.054 1210.41 222.595C1210.09 222.163 1209.77 221.737 1209.46 221.298C1207.42 218.555 1205.55 215.69 1203.87 212.719C1202.33 209.942 1200.81 207.145 1199.54 204.234C1193.26 189.954 1190.69 174.321 1192.06 158.782C1193.14 146.608 1196.65 134.774 1202.38 123.978C1203.87 121.114 1205.63 118.378 1207.39 115.675C1209.68 112.308 1212.19 109.094 1214.9 106.055C1217.6 102.894 1220.71 100.205 1223.77 97.4286C1227.77 93.8212 1232.29 90.9906 1236.88 88.2208C1243.69 84.1202 1251.07 81.4653 1258.68 79.3238C1265.81 77.2971 1273.07 76.6621 1279.44 76.4932ZM1279.44 73.791H1279.37C1271.11 74.0139 1264.11 74.9732 1257.91 76.7229C1251.57 78.5199 1243.27 81.2221 1235.48 85.9104C1230.94 88.6532 1226.16 91.6391 1221.96 95.4087L1220.76 96.5031C1217.95 98.925 1215.3 101.529 1212.84 104.299L1212.64 104.542C1209.92 107.598 1207.41 110.827 1205.12 114.209C1203.3 117.02 1201.54 119.789 1199.99 122.715C1194.09 133.82 1190.48 145.994 1189.37 158.519C1187.96 174.505 1190.6 190.588 1197.06 205.281C1198.41 208.341 1199.98 211.266 1201.5 214.002C1203.25 217.072 1205.19 220.032 1207.31 222.865L1208.25 224.156C1209.26 225.507 1210.4 226.919 1211.86 228.56C1212.61 229.411 1213.39 230.263 1214.14 231.087L1215.14 232.188C1217.08 234.275 1219.14 236.231 1221.34 238.045C1222.55 239.072 1223.79 240.072 1224.99 241.065L1225.4 241.389C1229.65 244.848 1234.42 247.469 1239.02 250.009L1239.79 250.435C1240.4 250.772 1241.02 251.11 1241.64 251.394C1242.47 251.799 1243.31 252.191 1244.16 252.549C1245.01 252.907 1245.87 253.258 1246.8 253.616C1247.37 253.839 1247.95 254.056 1248.52 254.292L1248.65 254.339L1248.88 254.42C1249.64 254.704 1250.43 254.981 1251.22 255.251C1258.6 257.733 1266.26 259.321 1274.02 259.98C1276.14 260.163 1278.31 260.25 1280.47 260.25C1285.6 260.231 1290.71 259.738 1295.74 258.778C1306.43 256.751 1314.94 253.866 1322.52 249.637C1327.12 247.077 1331.98 244.233 1336.36 240.632C1340.05 237.565 1343.86 234.404 1347.17 230.627L1348 229.682C1350.16 227.328 1352.18 224.846 1354.04 222.251C1356.2 219.227 1358.2 216.095 1360.03 212.867C1370.72 193.533 1374.35 171.079 1370.28 149.365C1369.04 142.792 1367.11 136.369 1364.51 130.206C1363.59 127.977 1362.54 125.863 1361.55 123.91L1360.46 121.755L1360.24 121.343V121.303C1359.95 120.742 1359.64 120.181 1359.32 119.634C1358.85 118.83 1358.36 118.026 1357.81 117.175C1357.38 116.499 1356.91 115.777 1356.33 114.905L1354.52 112.298C1352.64 109.647 1350.61 107.112 1348.44 104.704L1347.48 103.596C1345.22 101.057 1342.79 98.6797 1340.21 96.4828C1339.36 95.7487 1338.51 95.0146 1337.65 94.2805C1335.1 92.1177 1332.39 90.1422 1329.55 88.3695C1327.63 87.1467 1325.72 86.0185 1324.26 85.1808L1323.44 84.6877C1317.22 81.2221 1310.09 78.4794 1301.02 76.1419C1294.84 74.5476 1288.19 73.8248 1279.45 73.791H1279.44Z" fill="#110002"/>
<path d="M1354.06 116.431L1317.5 159.998L1279.44 205.354L1242.83 248.995C1242.25 248.705 1241.66 248.407 1241.1 248.097C1236.27 245.435 1231.4 242.814 1227.1 239.315C1225.75 238.213 1224.4 237.126 1223.05 235.998L1256.22 196.464L1274.95 174.171L1286.43 160.444L1305.23 138.049L1338.39 98.5293C1340.88 100.644 1343.22 102.93 1345.39 105.373C1347.85 108.048 1350.15 110.863 1352.29 113.804C1352.87 114.682 1353.47 115.553 1354.06 116.431Z" fill="#363636" stroke="#110002" stroke-miterlimit="10"/>
<path d="M1328.13 90.6397L1294.14 131.173L1247.87 186.325L1213.88 226.858C1212.68 225.507 1211.51 224.115 1210.44 222.656C1210.12 222.224 1209.8 221.798 1209.49 221.359L1244.76 179.333L1286.85 129.166L1322.14 87.1133L1322.94 87.5727C1324.69 88.5252 1326.43 89.552 1328.13 90.6397Z" fill="#363636" stroke="#110002" stroke-miterlimit="10"/>
<path d="M1359.14 125.134L1320.12 171.632L1317.3 175.01L1293.99 202.769L1291.33 205.937L1252.09 252.699C1251.33 252.442 1250.58 252.179 1249.82 251.902L1249.45 251.76C1248.89 251.557 1248.33 251.341 1247.77 251.125L1284.93 206.876L1286.55 204.944L1318.13 167.309L1320.09 164.971L1356.97 121.061C1357.26 121.587 1357.56 122.114 1357.85 122.648C1357.91 122.79 1357.99 122.932 1358.06 123.074C1358.42 123.715 1358.78 124.418 1359.14 125.134Z" fill="#363636" stroke="#110002" stroke-miterlimit="10"/>
<path d="M1280.43 128.625C1285.87 128.506 1291.26 129.683 1296.15 132.057C1300.64 134.293 1304.8 137.07 1308.14 140.88C1312.7 145.951 1315.85 152.128 1317.27 158.796C1318.49 164.598 1318.39 170.601 1316.98 176.36C1316.3 179.009 1315.36 181.584 1314.17 184.048C1312.37 187.727 1310 191.098 1307.15 194.039C1303.31 198.187 1298.58 200.896 1293.42 203.044C1288.37 205.139 1283.12 205.591 1277.77 205.334C1274.77 205.238 1271.81 204.675 1268.98 203.666C1263.8 201.741 1258.92 199.207 1254.92 195.303C1252.1 192.615 1249.7 189.529 1247.78 186.142C1243.97 179.348 1242.28 171.575 1242.91 163.815C1243.28 159.328 1244.42 154.939 1246.29 150.844C1247.81 147.608 1249.75 144.583 1252.05 141.846C1255.21 137.881 1259.26 135.063 1263.71 132.645C1267.73 130.517 1272.14 129.211 1276.66 128.801C1277.95 128.659 1279.22 128.673 1280.43 128.625Z" fill="#FADCCC" stroke="#110002" stroke-width="4" stroke-linecap="round" stroke-linejoin="round"/>
<path d="M1280.49 176.009C1275.41 176.165 1271.34 171.713 1271.5 166.626C1271.64 162.174 1275.87 157.573 1280.82 157.803C1285.24 157.999 1289.6 162.404 1289.39 167.214C1289.17 172.152 1285.31 176.09 1280.49 176.009Z" fill="#110002" stroke="#110002" stroke-width="4" stroke-linecap="round" stroke-linejoin="round"/>
<path d="M4.78949 155.558C5.69879 164.671 7.4953 173.674 10.1534 182.439C13.0048 191.709 16.8159 200.657 21.525 209.136C24.2394 213.899 27.196 218.519 30.3831 222.98C33.5094 227.277 36.8797 231.391 40.4776 235.302C45.2591 240.757 50.7967 245.355 56.3548 249.973C62.6178 255.174 69.6369 259.23 76.6663 263.174C88.9267 270.019 102.209 273.963 115.93 276.538C126.389 278.567 137.077 279.155 147.695 278.285C159.103 277.336 170.355 275.013 181.207 271.368C182.351 270.979 183.485 270.581 184.63 270.162L185.192 269.948C186.04 269.641 186.888 269.314 187.736 268.987C189.03 268.483 190.317 267.962 191.598 267.424C192.878 266.886 194.084 266.334 195.214 265.769C196.093 265.329 196.972 264.88 197.83 264.41C205.135 260.384 212.502 256.42 219 251.128C221.043 249.462 223.086 247.817 225.13 246.111C228.306 243.485 231.306 240.652 234.111 237.631C235.756 235.823 237.421 234.024 239.045 232.185C240.864 230.142 242.621 228.037 244.246 225.83C244.726 225.176 245.206 224.533 245.676 223.869C248.758 219.723 251.583 215.394 254.136 210.903C256.466 206.704 258.764 202.474 260.675 198.071C270.172 176.475 274.062 152.831 271.985 129.331C270.353 110.919 265.048 93.0203 256.384 76.6924C254.136 72.3604 251.469 68.2225 248.813 64.1357C245.348 59.0428 241.553 54.1827 237.452 49.5867C233.365 44.8051 228.665 40.7387 224.037 36.5395C217.988 31.0836 211.143 26.8027 204.205 22.6137C193.907 16.412 182.75 12.3967 171.235 9.15789C160.456 6.09278 149.473 5.13238 139.838 4.87695C128.191 4.87695 118.076 5.75562 108.216 8.29966C96.7938 11.2524 85.5551 15.094 75.2563 20.8462L74.0507 21.5409C71.4045 23.0735 68.7787 24.606 66.204 26.2714C62.0773 28.8547 58.1405 31.7296 54.4238 34.8741C53.1467 35.9674 51.8593 37.0708 50.5924 38.1742C46.8261 41.372 43.2891 44.8305 40.0076 48.5241C36.3182 52.5823 32.866 56.8499 29.6679 61.3056C28.7791 62.6338 27.8799 63.9518 26.9809 65.28C26.2452 66.3937 25.4994 67.5073 24.7842 68.6312C24.069 69.7551 23.3027 70.9913 22.5977 72.1969C22.1482 72.9939 21.6987 73.7908 21.2695 74.5979C21.1674 74.8125 21.055 75.0271 20.9426 75.2416C20.3909 76.2633 19.8494 77.3566 19.3079 78.4191C17.7651 81.4842 16.2427 84.5493 14.9554 87.6144C5.92944 109.046 2.43378 132.402 4.78949 155.537V155.558Z" fill="#FEFEFE" stroke="#110002" stroke-width="4" stroke-linecap="round" stroke-linejoin="round"/>
<path d="M138.275 280.737C141.483 280.737 144.712 280.604 147.869 280.328C159.439 279.358 170.851 277.005 181.861 273.32C183.026 272.921 184.18 272.512 185.335 272.094L185.815 271.91L188.472 270.888C189.851 270.357 191.138 269.866 192.395 269.294C193.652 268.722 194.888 268.191 196.114 267.598C197.02 267.148 197.919 266.679 198.811 266.188L199.986 265.555C206.883 261.764 214.004 257.841 220.298 252.722L220.87 252.252C222.699 250.771 224.579 249.187 226.407 247.685C229.659 245.002 232.731 242.107 235.603 239.021L237.125 237.345C238.269 236.089 239.424 234.832 240.558 233.545C242.704 231.123 244.4 229.059 245.871 227.047L247.311 225.085C250.462 220.869 253.352 216.464 255.965 211.895C258.233 207.808 260.614 203.425 262.586 198.878C272.216 176.971 276.149 152.983 274.019 129.147C273.254 120.482 271.684 111.907 269.329 103.533C266.615 93.9046 262.893 84.5895 258.223 75.7427C255.924 71.38 253.288 67.2421 250.56 63.0225C247.129 57.9833 243.374 53.1713 239.322 48.6165L239.015 48.2589C235.345 44.1344 231.402 40.2603 227.215 36.6626L225.406 35.0278C219.194 29.3983 212.339 25.1275 205.258 20.867C193.692 13.8888 181.299 9.89395 171.797 7.19666C162.602 4.59131 152.201 3.16093 139.89 2.83398C126.791 2.83398 116.881 3.95786 107.706 6.32821C94.1786 9.82243 83.512 13.8684 74.2656 19.0688L73.0191 19.7738C69.8008 21.6435 67.3589 23.1148 65.1009 24.5452C60.8976 27.1844 56.886 30.1171 53.0959 33.3216C51.8086 34.425 50.5246 35.5319 49.2441 36.6421C45.4062 39.9009 41.801 43.4242 38.4549 47.1861L37.0143 48.8617C33.7851 52.4483 30.7692 56.2215 27.9825 60.1617C27.0833 61.4899 26.1842 62.8079 25.2852 64.1464C24.5393 65.26 23.7935 66.3941 23.0578 67.5282C22.3222 68.6623 21.5253 70.0007 20.8408 71.1757C20.3605 71.993 19.911 72.8104 19.4717 73.638C19.4717 73.638 18.0208 76.4272 17.4896 77.4898C15.9979 80.4017 14.4244 83.5485 13.0656 86.8588C9.19574 96.0633 6.31543 105.653 4.47311 115.466C-1.67145 147.844 3.72989 181.351 19.7373 210.158C22.4825 214.977 25.4732 219.653 28.6976 224.165C31.4663 228.031 34.4653 231.726 37.6784 235.23L38.9453 236.671C43.8291 242.26 49.5302 247.001 55.0474 251.578C61.5352 256.962 68.7893 261.151 75.6653 264.993C86.9041 271.266 99.6038 275.588 115.512 278.581C123.016 280.007 130.637 280.728 138.275 280.737Z" fill="#110002"/>
<path d="M139.839 4.87783C128.191 4.87783 118.076 5.75649 108.217 8.30053C96.7943 11.2533 85.5556 15.0949 75.2568 20.847L74.0512 21.5418C71.405 23.0744 68.7792 24.6069 66.2045 26.2723C62.0778 28.8555 58.1411 31.7304 54.4243 34.875C53.1472 35.9682 51.8598 37.0717 50.5929 38.1751C46.8266 41.3729 43.2896 44.8314 40.0081 48.525C36.3187 52.5832 32.8665 56.8508 29.6684 61.3065C28.7796 62.6347 27.8804 63.9527 26.9814 65.2809C26.2457 66.3946 25.4999 67.5082 24.7847 68.6321C24.0695 69.756 23.3032 70.9922 22.5983 72.1978C22.1487 72.9948 21.6991 73.7917 21.27 74.5988C21.1679 74.8134 21.0555 75.0279 20.9431 75.2425C20.3914 76.2642 19.8499 77.3574 19.3084 78.42C17.7656 81.4851 16.2433 84.5502 14.9559 87.6153C6.76236 107.039 3.09586 128.073 4.23407 149.123C5.37225 170.174 11.2853 190.689 21.5255 209.116C24.2393 213.886 27.1959 218.514 30.3836 222.981C33.5099 227.278 36.8802 231.392 40.478 235.302C45.2596 240.758 50.7972 245.356 56.3553 249.974C62.6183 255.175 69.6375 259.231 76.6668 263.175C88.9272 270.02 102.209 273.964 115.931 276.538C123.295 277.952 130.776 278.674 138.275 278.694C141.412 278.694 144.549 278.572 147.696 278.296C159.104 277.347 170.356 275.024 181.207 271.379C182.352 270.991 183.486 270.592 184.63 270.173L185.192 269.959C186.04 269.652 186.888 269.325 187.736 268.998C189.03 268.494 190.318 267.973 191.598 267.435C192.879 266.897 194.084 266.345 195.215 265.78C196.094 265.341 196.972 264.891 197.831 264.421C205.136 260.396 212.502 256.431 219 251.139C221.044 249.473 223.087 247.829 225.13 246.122C228.307 243.496 231.307 240.663 234.111 237.642C235.756 235.834 237.421 234.036 239.046 232.197C240.865 230.153 242.622 228.048 244.246 225.842C244.727 225.188 245.207 224.544 245.677 223.88C248.759 219.731 251.584 215.398 254.137 210.904C256.466 206.705 258.765 202.475 260.675 198.072C270.172 176.476 274.063 152.832 271.986 129.331C270.353 110.919 265.048 93.0212 256.384 76.6933C254.137 72.3613 251.47 68.2234 248.813 64.1366C245.349 59.0437 241.553 54.1835 237.452 49.5875C233.365 44.806 228.666 40.7396 224.037 36.5404C217.989 31.0845 211.143 26.8036 204.206 22.6146C193.907 16.4129 182.75 12.3976 171.236 9.15876C160.457 6.09365 149.473 5.13325 139.839 4.87783ZM139.839 0.791016H139.951C152.436 1.12818 163.031 2.579 172.4 5.22521C181.984 7.94294 194.541 12.0297 206.321 19.1204C213.197 23.2685 220.42 27.7844 226.775 33.4855L228.594 35.1407C232.84 38.8035 236.84 42.7422 240.568 46.9311L240.875 47.2989C244.979 51.9199 248.778 56.8038 252.246 61.9195C254.995 66.1698 257.661 70.3588 260.001 74.7827C268.92 91.578 274.381 109.991 276.062 128.933C278.196 153.11 274.197 177.434 264.435 199.655C262.392 204.284 260.022 208.708 257.723 212.845C255.07 217.489 252.136 221.965 248.936 226.25L247.506 228.202C245.983 230.245 244.257 232.38 242.05 234.863C240.916 236.15 239.741 237.438 238.607 238.684L237.084 240.35C234.16 243.505 231.03 246.465 227.715 249.208C225.886 250.761 224.007 252.273 222.188 253.775L221.575 254.265C215.138 259.496 207.935 263.461 200.967 267.302L199.802 267.946C198.883 268.457 197.943 268.968 197.013 269.397C195.756 270.01 194.479 270.602 193.192 271.144C191.905 271.685 190.617 272.217 189.207 272.758C188.349 273.095 187.47 273.422 186.602 273.78L186.408 273.851L186.061 273.974C184.906 274.403 183.721 274.822 182.515 275.231C171.352 278.984 159.778 281.385 148.043 282.383C144.825 282.658 141.545 282.791 138.275 282.791C130.526 282.761 122.797 282.016 115.185 280.564C99.0216 277.499 86.1482 273.136 74.6847 266.74C67.7269 262.868 60.3808 258.567 53.75 253.121C48.1715 248.482 42.4091 243.701 37.4027 237.99L36.146 236.559C32.8792 232.999 29.8291 229.246 27.012 225.32C23.7513 220.747 20.7265 216.011 17.9495 211.129C1.78217 181.888 -3.69461 147.93 2.46048 115.089C4.3306 105.148 7.25555 95.4343 11.1858 86.1134C12.5753 82.7418 14.159 79.5439 15.6609 76.5912L17.3058 73.3319L17.6328 72.7087V72.6474C18.0823 71.7994 18.5523 70.9514 19.0325 70.1238C19.7375 68.908 20.4833 67.6921 21.3109 66.4048C21.9648 65.3831 22.68 64.2899 23.5587 62.9719L26.2968 59.0281C29.1296 55.0197 32.2002 51.1849 35.4921 47.5441L36.9429 45.8685C40.3492 42.0277 44.0229 38.4325 47.9365 35.11C49.2102 33.9998 50.4976 32.8895 51.7985 31.7793C55.6649 28.5082 59.7623 25.5204 64.059 22.8394C66.9606 20.9901 69.852 19.2838 72.0487 18.0169L73.2951 17.2711C82.705 12.0297 93.484 7.88163 107.195 4.34654C116.544 1.93532 126.608 0.842101 139.828 0.791016L139.839 0.791016Z" fill="#110002"/>
<path d="M26.9809 65.2802L82.2754 131.17L139.838 199.767L195.214 265.769C196.093 265.33 196.972 264.88 197.83 264.41C205.135 260.385 212.502 256.42 219 251.128C221.043 249.463 223.086 247.818 225.13 246.111L174.964 186.321L146.632 152.605L129.264 131.844L100.84 97.9747L50.6843 38.2051C46.918 41.4028 43.381 44.8613 40.0995 48.5549C36.3797 52.6008 32.8967 56.8581 29.6679 61.3058C28.7791 62.634 27.8799 63.952 26.9809 65.2802Z" fill="#363636" stroke="#110002" stroke-miterlimit="10"/>
<path d="M66.2047 26.2727L117.607 87.5749L187.593 170.987L238.995 232.289C240.814 230.246 242.571 228.141 244.196 225.934C244.676 225.28 245.156 224.636 245.626 223.972L192.283 160.412L128.631 84.5405L75.257 20.9395L74.0514 21.6342C71.4052 23.0748 68.7794 24.6278 66.2047 26.2727Z" fill="#363636" stroke="#110002" stroke-miterlimit="10"/>
<path d="M19.3083 78.4402L78.3117 148.764L82.5824 153.872L117.841 195.854L121.857 200.646L181.207 271.368C182.352 270.98 183.486 270.582 184.63 270.163L185.192 269.948C186.04 269.642 186.888 269.315 187.736 268.988L131.532 202.066L129.08 199.144L81.3257 142.225L78.3628 138.69L22.588 72.2793C22.1385 73.0762 21.6889 73.8732 21.2598 74.6803C21.1576 74.8949 21.0452 75.1094 20.9329 75.324C20.3914 76.2946 19.8499 77.3572 19.3083 78.4402Z" fill="#363636" stroke="#110002" stroke-miterlimit="10"/>
<path d="M138.337 83.7215C130.115 83.5411 121.969 85.3202 114.572 88.9117C107.778 92.2935 101.484 96.4927 96.4367 102.255C89.5424 109.924 84.7795 119.266 82.6233 129.351C80.7753 138.126 80.9254 147.205 83.0626 155.915C84.0918 159.922 85.5155 163.816 87.3129 167.542C90.035 173.106 93.6175 178.205 97.9284 182.653C103.742 188.926 110.894 193.023 118.7 196.272C126.332 199.44 134.27 200.124 142.372 199.736C146.904 199.59 151.385 198.738 155.655 197.212C163.501 194.3 170.878 190.469 176.926 184.564C181.185 180.499 184.823 175.831 187.726 170.709C193.478 160.434 196.04 148.679 195.082 136.942C194.531 130.156 192.803 123.518 189.974 117.325C187.675 112.43 184.748 107.856 181.269 103.716C176.487 97.7188 170.357 93.4583 163.624 89.8006C157.545 86.583 150.887 84.6068 144.038 83.9871C142.097 83.7725 140.166 83.793 138.337 83.7215Z" fill="#FADCCC" stroke="#110002" stroke-width="4" stroke-linecap="round" stroke-linejoin="round"/>
<path d="M138.255 155.385C145.928 155.62 152.089 148.887 151.854 141.194C151.639 134.461 145.233 127.503 137.754 127.85C131.072 128.147 124.472 134.808 124.799 142.083C125.126 149.551 130.96 155.508 138.255 155.385Z" fill="#110002" stroke="#110002" stroke-width="4" stroke-linecap="round" stroke-linejoin="round"/>
<path d="M264.24 176.125C264.841 182.151 266.029 188.103 267.787 193.898C269.672 200.028 272.192 205.944 275.306 211.551C277.1 214.7 279.055 217.755 281.163 220.704C283.23 223.546 285.458 226.266 287.837 228.852C290.999 232.459 294.66 235.499 298.335 238.553C302.476 241.991 307.117 244.673 311.765 247.281C319.872 251.807 328.654 254.415 337.727 256.117C344.642 257.459 351.709 257.848 358.73 257.272C366.273 256.645 373.713 255.109 380.888 252.699C381.644 252.442 382.394 252.178 383.151 251.901L383.522 251.76C384.083 251.557 384.644 251.341 385.205 251.125C386.06 250.791 386.912 250.447 387.758 250.091C388.605 249.735 389.402 249.37 390.15 248.997C390.731 248.706 391.312 248.409 391.879 248.098C396.709 245.436 401.58 242.815 405.877 239.316C407.228 238.215 408.579 237.127 409.93 235.999C412.03 234.262 414.014 232.389 415.868 230.392C416.956 229.196 418.057 228.007 419.131 226.791C420.333 225.44 421.495 224.048 422.569 222.589C422.887 222.157 423.204 221.731 423.515 221.292C425.553 218.551 427.421 215.688 429.109 212.719C430.649 209.943 432.169 207.146 433.432 204.234C439.712 189.955 442.284 174.322 440.911 158.783C439.831 146.609 436.324 134.775 430.595 123.979C429.109 121.114 427.346 118.378 425.589 115.676C423.298 112.309 420.789 109.095 418.077 106.056C415.375 102.895 412.267 100.206 409.207 97.4295C405.208 93.8221 400.682 90.9915 396.095 88.2217C389.285 84.1211 381.908 81.4662 374.294 79.3247C367.167 77.298 359.905 76.663 353.535 76.4941C345.833 76.4941 339.145 77.0751 332.626 78.7572C325.074 80.7096 317.643 83.2497 310.833 87.053L310.036 87.5124C308.286 88.5257 306.55 89.5391 304.848 90.6402C302.119 92.3483 299.516 94.2492 297.058 96.3284C296.214 97.0512 295.363 97.7808 294.525 98.5104C292.035 100.625 289.696 102.912 287.526 105.354C285.087 108.037 282.804 110.859 280.69 113.805C280.102 114.683 279.508 115.555 278.913 116.433C278.427 117.169 277.934 117.906 277.461 118.649C276.988 119.392 276.481 120.209 276.015 121.006C275.718 121.533 275.421 122.06 275.137 122.594C275.069 122.736 274.995 122.878 274.921 123.019C274.556 123.695 274.198 124.418 273.84 125.12C272.82 127.147 271.813 129.174 270.962 131.2C264.994 145.371 262.682 160.814 264.24 176.111V176.125Z" fill="#FEFEFE" stroke="#110002" stroke-width="4" stroke-linecap="round" stroke-linejoin="round"/>
<path d="M352.501 258.893C354.623 258.893 356.757 258.805 358.845 258.623C366.495 257.981 374.041 256.425 381.321 253.988C382.091 253.725 382.854 253.455 383.617 253.178L383.935 253.056L385.691 252.381C386.603 252.029 387.455 251.705 388.286 251.327C389.116 250.949 389.934 250.597 390.745 250.205C391.344 249.908 391.938 249.597 392.528 249.273L393.305 248.854C397.865 246.348 402.573 243.754 406.735 240.369L407.113 240.059C408.322 239.079 409.565 238.032 410.775 237.039C412.925 235.265 414.956 233.351 416.855 231.31L417.861 230.202C418.618 229.371 419.381 228.54 420.131 227.689C421.55 226.088 422.671 224.724 423.644 223.393L424.596 222.096C426.68 219.308 428.591 216.395 430.318 213.374C431.818 210.672 433.392 207.774 434.696 204.768C441.064 190.282 443.664 174.422 442.255 158.661C441.75 152.932 440.711 147.262 439.155 141.725C437.36 135.359 434.899 129.2 431.811 123.35C430.291 120.465 428.548 117.729 426.745 114.939C424.476 111.607 421.993 108.426 419.314 105.414L419.111 105.178C416.684 102.451 414.077 99.889 411.308 97.5101L410.113 96.4293C406.005 92.707 401.472 89.8831 396.791 87.0661C389.143 82.4521 380.949 79.8106 374.666 78.0272C368.586 76.3045 361.709 75.3588 353.569 75.1426C344.908 75.1426 338.355 75.8857 332.289 77.453C323.345 79.7634 316.292 82.4386 310.178 85.8771L309.354 86.3432C307.226 87.5795 305.611 88.5523 304.118 89.4981C301.339 91.2431 298.687 93.1823 296.181 95.3011C295.329 96.0307 294.48 96.7625 293.634 97.4966C291.096 99.6514 288.712 101.981 286.5 104.468L285.547 105.576C283.412 107.948 281.418 110.443 279.576 113.048C278.981 113.926 278.387 114.798 277.792 115.683C277.299 116.419 276.806 117.169 276.319 117.919C275.833 118.668 275.306 119.553 274.853 120.33C274.536 120.871 274.239 121.411 273.948 121.958C273.948 121.958 272.989 123.803 272.638 124.505C271.651 126.431 270.611 128.511 269.712 130.7C267.154 136.786 265.249 143.127 264.031 149.616C259.968 171.024 263.54 193.179 274.124 212.226C275.939 215.412 277.916 218.504 280.048 221.488C281.879 224.043 283.862 226.487 285.987 228.804L286.824 229.756C290.053 233.452 293.823 236.586 297.471 239.613C301.761 243.173 306.557 245.943 311.104 248.483C318.535 252.631 326.932 255.488 337.45 257.468C342.412 258.41 347.451 258.887 352.501 258.893Z" fill="#110002"/>
<path d="M353.535 76.4932C345.833 76.4932 339.145 77.0742 332.626 78.7563C325.074 80.7087 317.642 83.2488 310.833 87.0521L310.036 87.5115C308.286 88.5248 306.55 89.5382 304.848 90.6393C302.119 92.3474 299.516 94.2483 297.058 96.3275C296.214 97.0503 295.363 97.7799 294.525 98.5095C292.035 100.624 289.696 102.911 287.526 105.353C285.087 108.036 282.804 110.858 280.69 113.804C280.102 114.682 279.508 115.554 278.913 116.432C278.427 117.168 277.933 117.905 277.461 118.648C276.988 119.391 276.481 120.208 276.015 121.005C275.718 121.532 275.42 122.059 275.137 122.593C275.069 122.735 274.995 122.877 274.921 123.019C274.556 123.694 274.198 124.417 273.84 125.12C272.82 127.146 271.813 129.173 270.962 131.2C265.544 144.043 263.12 157.95 263.872 171.869C264.625 185.787 268.535 199.352 275.306 211.536C277.1 214.69 279.055 217.75 281.163 220.704C283.23 223.545 285.458 226.265 287.837 228.851C290.999 232.458 294.66 235.498 298.335 238.552C302.476 241.99 307.117 244.672 311.765 247.28C319.872 251.806 328.654 254.414 337.727 256.116C342.596 257.051 347.543 257.528 352.501 257.541C354.575 257.541 356.649 257.46 358.73 257.278C366.273 256.65 373.713 255.115 380.888 252.704C381.644 252.448 382.394 252.184 383.151 251.907L383.522 251.765C384.083 251.563 384.644 251.347 385.205 251.13C386.06 250.797 386.911 250.453 387.758 250.097C388.605 249.741 389.402 249.376 390.15 249.002C390.731 248.712 391.312 248.415 391.879 248.104C396.709 245.442 401.58 242.821 405.876 239.322C407.228 238.221 408.579 237.133 409.93 236.005C412.03 234.268 414.014 232.395 415.868 230.398C416.956 229.202 418.057 228.013 419.131 226.797C420.333 225.446 421.495 224.054 422.569 222.595C422.887 222.163 423.204 221.737 423.515 221.298C425.553 218.555 427.421 215.69 429.109 212.719C430.649 209.942 432.169 207.145 433.432 204.234C439.712 189.954 442.284 174.321 440.911 158.782C439.831 146.608 436.324 134.774 430.595 123.978C429.109 121.114 427.346 118.378 425.589 115.675C423.298 112.308 420.789 109.094 418.077 106.055C415.375 102.894 412.267 100.205 409.207 97.4286C405.208 93.8212 400.681 90.9906 396.094 88.2208C389.285 84.1202 381.908 81.4653 374.294 79.3238C367.167 77.2971 359.905 76.6621 353.535 76.4932ZM353.535 73.791H353.609C361.864 74.0139 368.87 74.9732 375.064 76.7229C381.401 78.5199 389.704 81.2221 397.493 85.9104C402.039 88.6532 406.815 91.6391 411.017 95.4087L412.22 96.5031C415.027 98.925 417.672 101.529 420.137 104.299L420.34 104.542C423.054 107.598 425.566 110.827 427.859 114.209C429.676 117.02 431.439 119.789 432.986 122.715C438.884 133.82 442.495 145.994 443.606 158.519C445.017 174.505 442.373 190.588 435.918 205.281C434.567 208.341 433 211.266 431.48 214.002C429.726 217.072 427.786 220.032 425.67 222.865L424.724 224.156C423.718 225.507 422.576 226.919 421.117 228.56C420.367 229.411 419.59 230.263 418.84 231.087L417.834 232.188C415.9 234.275 413.831 236.231 411.639 238.045C410.43 239.072 409.187 240.072 407.984 241.065L407.579 241.389C403.323 244.848 398.56 247.469 393.953 250.009L393.183 250.435C392.575 250.772 391.953 251.11 391.339 251.394C390.508 251.799 389.663 252.191 388.812 252.549C387.961 252.907 387.11 253.258 386.177 253.616C385.61 253.839 385.029 254.056 384.455 254.292L384.326 254.339L384.097 254.42C383.333 254.704 382.55 254.981 381.752 255.251C374.371 257.733 366.719 259.321 358.959 259.98C356.831 260.163 354.663 260.25 352.501 260.25C347.377 260.231 342.266 259.738 337.234 258.778C326.546 256.751 318.034 253.866 310.455 249.637C305.854 247.077 300.997 244.233 296.613 240.632C292.924 237.565 289.114 234.404 285.804 230.627L284.973 229.682C282.813 227.328 280.796 224.846 278.933 222.251C276.777 219.227 274.777 216.095 272.941 212.867C262.251 193.533 258.63 171.079 262.7 149.365C263.936 142.792 265.87 136.369 268.469 130.206C269.388 127.977 270.435 125.863 271.428 123.91L272.516 121.755L272.732 121.343V121.303C273.029 120.742 273.34 120.181 273.657 119.634C274.123 118.83 274.617 118.026 275.164 117.175C275.596 116.499 276.069 115.777 276.65 114.905L278.46 112.298C280.333 109.647 282.364 107.112 284.54 104.704L285.5 103.596C287.752 101.057 290.181 98.6797 292.769 96.4828C293.611 95.7487 294.462 95.0146 295.322 94.2805C297.879 92.1177 300.588 90.1422 303.429 88.3695C305.347 87.1467 307.259 86.0185 308.712 85.1808L309.536 84.6877C315.758 81.2221 322.885 78.4794 331.951 76.1419C338.132 74.5476 344.786 73.8248 353.528 73.791H353.535Z" fill="#110002"/>
<path d="M278.913 116.431L315.474 159.998L353.535 205.354L390.149 248.995C390.73 248.705 391.311 248.407 391.879 248.097C396.709 245.435 401.58 242.814 405.876 239.315C407.227 238.213 408.579 237.126 409.93 235.998L376.76 196.464L358.027 174.171L346.543 160.444L327.749 138.049L294.586 98.5293C292.095 100.644 289.757 102.93 287.587 105.373C285.127 108.048 282.824 110.863 280.69 113.804C280.102 114.682 279.507 115.553 278.913 116.431Z" fill="#363636" stroke="#110002" stroke-miterlimit="10"/>
<path d="M304.848 90.6397L338.835 131.173L385.11 186.325L419.097 226.858C420.3 225.507 421.462 224.115 422.536 222.656C422.853 222.224 423.171 221.798 423.481 221.359L388.211 179.333L346.124 129.166L310.833 87.1133L310.036 87.5727C308.286 88.5252 306.55 89.552 304.848 90.6397Z" fill="#363636" stroke="#110002" stroke-miterlimit="10"/>
<path d="M273.84 125.134L312.853 171.632L315.677 175.01L338.99 202.769L341.645 205.937L380.888 252.699C381.645 252.442 382.395 252.179 383.151 251.902L383.523 251.76C384.084 251.557 384.644 251.341 385.205 251.125L348.043 206.876L346.422 204.944L314.846 167.309L312.887 164.971L276.009 121.061C275.711 121.587 275.414 122.114 275.13 122.648C275.063 122.79 274.989 122.932 274.914 123.074C274.556 123.715 274.198 124.418 273.84 125.134Z" fill="#363636" stroke="#110002" stroke-miterlimit="10"/>
<path d="M352.541 128.625C347.106 128.506 341.719 129.683 336.828 132.057C332.336 134.293 328.174 137.07 324.837 140.88C320.278 145.951 317.129 152.128 315.704 158.796C314.482 164.598 314.581 170.601 315.994 176.36C316.675 179.009 317.616 181.584 318.804 184.048C320.604 187.727 322.973 191.098 325.823 194.039C329.667 198.187 334.396 200.896 339.557 203.044C344.604 205.139 349.853 205.591 355.21 205.334C358.206 205.238 361.169 204.675 363.992 203.666C369.18 201.741 374.058 199.207 378.057 195.303C380.873 192.615 383.279 189.529 385.198 186.142C389.001 179.348 390.695 171.575 390.062 163.815C389.698 159.328 388.555 154.939 386.684 150.844C385.164 147.608 383.229 144.583 380.928 141.846C377.767 137.881 373.713 135.063 369.261 132.645C365.242 130.517 360.84 129.211 356.311 128.801C355.027 128.659 353.751 128.673 352.541 128.625Z" fill="#FADCCC" stroke="#110002" stroke-width="4" stroke-linecap="round" stroke-linejoin="round"/>
<path d="M352.487 176.009C357.561 176.165 361.634 171.713 361.479 166.626C361.337 162.174 357.102 157.573 352.156 157.803C347.738 157.999 343.374 162.404 343.59 167.214C343.807 172.152 347.664 176.09 352.487 176.009Z" fill="#110002" stroke="#110002" stroke-width="4" stroke-linecap="round" stroke-linejoin="round"/>
</svg>
