<svg width="74" height="74" viewBox="0 0 74 74" fill="none" xmlns="http://www.w3.org/2000/svg">
<path d="M71.7528 40.5146C71.5161 42.8415 71.0485 45.1401 70.3567 47.3778C69.6145 49.7448 68.6225 52.0292 67.3968 54.1941C66.6903 55.4102 65.9208 56.5899 65.0912 57.7288C64.2775 58.8259 63.4002 59.8763 62.4638 60.8748C61.2192 62.2677 59.7779 63.4416 58.3312 64.6207C56.701 65.9485 54.8741 66.9841 53.0445 67.991C49.8533 69.7388 46.3961 70.7457 42.8247 71.4031C40.1024 71.9213 37.3206 72.0714 34.5568 71.8491C31.5874 71.6068 28.6587 71.0138 25.8342 70.0831C25.5364 69.984 25.2412 69.8822 24.9433 69.7753L24.7971 69.7205C24.5763 69.6423 24.3556 69.5588 24.1349 69.4753C23.798 69.3466 23.463 69.2136 23.1297 69.0762C22.7964 68.9388 22.4826 68.7979 22.1883 68.6536C21.9596 68.5414 21.7309 68.4267 21.5075 68.3067C19.6061 67.2789 17.6887 66.2667 15.9974 64.9155C15.4655 64.4903 14.9336 64.0703 14.4018 63.6347C13.575 62.964 12.7941 62.2408 12.0642 61.4695C11.6361 61.0078 11.2026 60.5487 10.7798 60.0791C10.3064 59.5574 9.84899 59.02 9.42615 58.4566C9.30117 58.2896 9.17618 58.1253 9.05385 57.9557C8.25177 56.8974 7.51642 55.7918 6.85192 54.6454C6.2456 53.5733 5.64725 52.4933 5.14996 51.369C2.67805 45.8552 1.66546 39.8184 2.20608 33.8183C2.63097 29.1174 4.01174 24.5476 6.26687 20.3788C6.85192 19.2728 7.54601 18.2163 8.23743 17.1729C9.13928 15.8725 10.1271 14.6317 11.1946 13.4582C12.2583 12.2374 13.4816 11.1992 14.6863 10.127C16.2606 8.73403 18.0424 7.64103 19.8481 6.5715C22.5287 4.98808 25.4326 3.9629 28.4297 3.13597C31.2353 2.35339 34.0941 2.10818 36.6018 2.04297C39.6335 2.04297 42.2662 2.26731 44.8325 2.91685C47.8056 3.67074 50.7308 4.65157 53.4114 6.12021L53.7252 6.2976C54.414 6.68889 55.0975 7.08018 55.7676 7.50538C56.8417 8.16493 57.8664 8.89895 58.8338 9.70182C59.1662 9.98094 59.5013 10.2627 59.8311 10.5444C60.8114 11.3609 61.732 12.2439 62.5861 13.1869C63.5464 14.2231 64.445 15.3127 65.2774 16.4503C65.5087 16.7894 65.7427 17.1259 65.9768 17.465C66.1682 17.7494 66.3624 18.0337 66.5485 18.3206C66.7347 18.6076 66.9341 18.9232 67.1176 19.231C67.2346 19.4345 67.3516 19.638 67.4633 19.8441C67.4899 19.8988 67.5192 19.9536 67.5484 20.0084C67.692 20.2693 67.833 20.5484 67.9739 20.8197C68.3755 21.6023 68.7717 22.3848 69.1068 23.1674C71.4561 28.6393 72.366 34.6026 71.7528 40.5094V40.5146Z" fill="#FEFEFE" stroke="#110002" stroke-width="4" stroke-linecap="round" stroke-linejoin="round"/>
<path d="M37.0097 72.4754C36.1747 72.4754 35.3343 72.4415 34.5126 72.3711C31.5011 72.1233 28.5308 71.5225 25.665 70.5816C25.3618 70.4799 25.0613 70.3755 24.7608 70.2686L24.6359 70.2216L23.9444 69.9607C23.5854 69.8251 23.2503 69.6999 22.9232 69.5538C22.5961 69.4077 22.2744 69.2721 21.9552 69.1208C21.7195 69.006 21.4854 68.886 21.2532 68.7608L20.9474 68.5991C19.1523 67.6313 17.2988 66.6296 15.6606 65.3227L15.5117 65.2027C15.0357 64.8244 14.5464 64.4201 14.0703 64.0366C13.224 63.3515 12.4245 62.6125 11.6769 61.8245L11.2807 61.3967C10.9829 61.0758 10.6824 60.755 10.3872 60.4263C9.82872 59.8081 9.38727 59.2811 9.00432 58.7672L8.62936 58.2664C7.80923 57.1899 7.057 56.0653 6.37691 54.8987C5.78654 53.8552 5.16691 52.7362 4.65366 51.5753C2.14708 45.9819 1.12341 39.8574 1.67788 33.7716C1.87704 31.5593 2.28568 29.3699 2.89851 27.2319C3.60485 24.7735 4.57378 22.3952 5.7892 20.1365C6.38754 19.0226 7.07365 17.9661 7.78369 16.8888C8.67695 15.6021 9.65407 14.3735 10.709 13.2106L10.7887 13.1193C11.7441 12.0663 12.7702 11.0771 13.8603 10.1586L14.331 9.74119C15.9478 8.30385 17.7322 7.21345 19.5751 6.12567C22.5855 4.34399 25.8113 3.32403 28.2844 2.63536C30.6778 1.97016 33.385 1.60496 36.5895 1.52148C39.9988 1.52148 42.5783 1.80843 44.9664 2.41363C48.4874 3.30577 51.2637 4.33877 53.6704 5.66655L53.9948 5.84655C54.8325 6.32392 55.4681 6.69956 56.0558 7.06476C57.1499 7.7386 58.194 8.48739 59.1805 9.30555C59.5156 9.58728 59.8498 9.86988 60.1831 10.1533C61.182 10.9854 62.1204 11.8849 62.9913 12.8454L63.3663 13.2732C64.2068 14.189 64.9918 15.1523 65.7171 16.1583C65.9512 16.4975 66.1852 16.834 66.4192 17.1757C66.6133 17.46 66.8075 17.7496 66.9989 18.0391C67.1904 18.3287 67.3978 18.6704 67.576 18.9704C67.701 19.1791 67.818 19.3878 67.9324 19.5991C67.9324 19.5991 68.31 20.3112 68.4483 20.5825C68.8365 21.326 69.2461 22.1294 69.5998 22.9746C70.607 25.3247 71.3567 27.7731 71.8363 30.2787C73.4356 38.5453 72.0297 47.1003 67.8632 54.4552C67.1487 55.6857 66.3703 56.8794 65.531 58.0316C64.8104 59.0185 64.0298 59.9619 63.1934 60.8567L62.8637 61.2245C61.5925 62.6514 60.1086 63.8618 58.6726 65.0305C56.9839 66.4052 55.0958 67.4747 53.3061 68.4556C50.3808 70.0573 47.0753 71.1607 42.9347 71.925C40.9815 72.2889 38.9979 72.4732 37.0097 72.4754Z" fill="#110002"/>
<path d="M36.6023 2.04344C39.6339 2.04344 42.2666 2.26778 44.8329 2.91732C47.806 3.67121 50.7313 4.65204 53.4119 6.12068L53.7257 6.29807C54.4144 6.68936 55.0979 7.08065 55.768 7.50585C56.8421 8.1654 57.8668 8.89942 58.8342 9.70229C59.1667 9.98141 59.5017 10.2631 59.8315 10.5449C60.8118 11.3613 61.7324 12.2443 62.5866 13.1874C63.5468 14.2235 64.4454 15.3131 65.2778 16.4507C65.5092 16.7899 65.7432 17.1264 65.9772 17.4655C66.1687 17.7498 66.3628 18.0342 66.549 18.3211C66.7351 18.6081 66.9346 18.9237 67.118 19.2315C67.2351 19.435 67.3521 19.6385 67.4638 19.8445C67.4903 19.8993 67.5196 19.9541 67.5489 20.0089C67.6925 20.2697 67.8334 20.5489 67.9743 20.8202C68.3759 21.6027 68.7721 22.3853 69.1072 23.1679C71.2399 28.1272 72.1942 33.4974 71.8979 38.872C71.6017 44.2466 70.0626 49.4846 67.3973 54.1894C66.6909 55.4072 65.9213 56.5887 65.0916 57.7292C64.2779 58.8264 63.4007 59.8767 62.4642 60.8752C61.2197 62.2682 59.7783 63.4421 58.3316 64.6212C56.7015 65.949 54.8745 66.9846 53.0449 67.9915C49.8537 69.7393 46.3966 70.7462 42.8251 71.4035C40.9082 71.7645 38.961 71.9488 37.0091 71.9539C36.1927 71.9539 35.3763 71.9226 34.5572 71.8522C31.5879 71.6099 28.6592 71.0169 25.8346 70.0862C25.5368 69.9871 25.2416 69.8853 24.9438 69.7784L24.7975 69.7236C24.5768 69.6453 24.3561 69.5619 24.1353 69.4784C23.7985 69.3497 23.4634 69.2167 23.1301 69.0793C22.7968 68.9419 22.483 68.801 22.1887 68.6567C21.96 68.5445 21.7313 68.4297 21.5079 68.3097C19.6065 67.2819 17.6891 66.2698 15.9978 64.9186C15.4659 64.4934 14.9341 64.0734 14.4022 63.6377C13.5754 62.9671 12.7945 62.2439 12.0646 61.4726C11.6365 61.0109 11.203 60.5518 10.7802 60.0822C10.3068 59.5605 9.84942 59.0231 9.42659 58.4597C9.3016 58.2927 9.17661 58.1284 9.05429 57.9588C8.25211 56.8996 7.51676 55.7932 6.85236 54.6459C6.24604 53.5737 5.64769 52.4938 5.15039 51.3695C2.67849 45.8557 1.6659 39.8188 2.20652 33.8188C2.6314 29.1179 4.01218 24.5481 6.26731 20.3793C6.85236 19.2733 7.54645 18.2168 8.23787 17.1733C9.13972 15.873 10.1276 14.6321 11.195 13.4587C12.2588 12.2379 13.4821 11.1996 14.6867 10.1275C16.2611 8.7345 18.0428 7.6415 19.8485 6.57197C22.5291 4.98855 25.4331 3.96337 28.4301 3.13644C31.2357 2.35386 34.0945 2.10866 36.6023 2.04344ZM36.6023 1H36.573C33.3233 1.08608 30.5656 1.45651 28.127 2.13213C25.6325 2.82602 22.3642 3.86946 19.298 5.67983C17.5083 6.73892 15.6281 7.89192 13.974 9.34752L13.5007 9.77012C12.3955 10.7053 11.3543 11.7109 10.3839 12.7804L10.3042 12.8744C9.23584 14.0542 8.24713 15.3011 7.34434 16.6073C6.62898 17.6924 5.93489 18.762 5.32591 19.8915C3.00447 24.1796 1.58298 28.8808 1.14544 33.7171C0.590041 39.8899 1.63092 46.1003 4.17176 51.7738C4.70363 52.9555 5.32059 54.085 5.91894 55.1415C6.60935 56.3271 7.37312 57.47 8.20596 58.564L8.57827 59.0622C8.97451 59.584 9.42393 60.1292 9.99835 60.7631C10.2935 61.0917 10.5994 61.4204 10.8945 61.7387L11.2908 62.1639C12.052 62.9696 12.8666 63.7251 13.7294 64.4255C14.2054 64.822 14.6947 65.2081 15.1681 65.5916L15.3276 65.7168C17.003 67.0524 18.8778 68.0645 20.6915 69.0454L20.9947 69.2097C21.234 69.3401 21.4787 69.4706 21.7207 69.5801C22.0478 69.7366 22.3802 69.8879 22.7153 70.0262C23.0503 70.1644 23.3854 70.3001 23.7524 70.4384C23.9758 70.5244 24.2045 70.6079 24.4305 70.6992L24.481 70.7175L24.5715 70.7488C24.872 70.8583 25.1804 70.9653 25.4942 71.0696C28.3999 72.028 31.4123 72.6411 34.4668 72.8957C35.3045 72.9661 36.1582 73 37.0091 73C39.0261 72.9923 41.038 72.802 43.0192 72.4313C47.2263 71.6487 50.577 70.5349 53.5608 68.9019C55.3718 67.9132 57.2839 66.815 59.0098 65.4246C60.4618 64.2403 61.9616 63.0195 63.2647 61.5613L63.5918 61.1961C64.4421 60.2871 65.236 59.3289 65.9692 58.3266C66.8179 57.1591 67.6052 55.9497 68.328 54.7033C72.5361 47.2376 73.9617 38.5672 72.3596 30.1824C71.8728 27.6442 71.1115 25.1642 70.0885 22.7844C69.7269 21.9236 69.3147 21.1071 68.9237 20.3532L68.4956 19.5211L68.4105 19.3619V19.3463C68.2935 19.1298 68.1711 18.9133 68.0462 18.702C67.8627 18.3915 67.6685 18.0811 67.4531 17.7524C67.2829 17.4916 67.0968 17.2125 66.8681 16.8759L66.1554 15.869C65.418 14.8456 64.6188 13.8665 63.762 12.937L63.3843 12.5091C62.4978 11.5285 61.5416 10.6106 60.5229 9.76229C60.1914 9.47882 59.8563 9.19536 59.5177 8.91189C58.5113 8.07671 57.4448 7.31389 56.3265 6.62936C55.5712 6.1572 54.8187 5.72157 54.2469 5.3981L53.9225 5.20767C51.4732 3.86946 48.6676 2.81037 45.0988 1.90779C42.6655 1.29216 40.0461 1.01304 36.6049 1L36.6023 1Z" fill="#110002"/>
<path d="M65.9773 17.4655L51.5851 34.2884L36.6024 51.8025L22.1889 68.6541C21.9602 68.5419 21.7315 68.4272 21.5081 68.3072C19.6066 67.2794 17.6893 66.2672 15.9979 64.916C15.4661 64.4908 14.9342 64.0708 14.4023 63.6352L27.4596 48.3696L34.834 39.7612L39.3548 34.4606L46.7531 25.8131L59.8077 10.5527C60.788 11.3692 61.7086 12.2522 62.5628 13.1952C63.531 14.2282 64.4376 15.3152 65.2779 16.4508C65.5093 16.7899 65.7433 17.1264 65.9773 17.4655Z" fill="#363636" stroke="#110002" stroke-miterlimit="10"/>
<path d="M55.7688 7.50622L42.3897 23.1578L24.1733 44.4544L10.7943 60.1061C10.3209 59.5843 9.8635 59.047 9.44067 58.4835C9.31568 58.3166 9.19069 58.1522 9.06836 57.9827L22.9527 41.7545L39.5203 22.3831L53.4126 6.14453L53.7264 6.32192C54.4152 6.68973 55.0987 7.08624 55.7688 7.50622Z" fill="#363636" stroke="#110002" stroke-miterlimit="10"/>
<path d="M67.9738 20.8249L52.6162 38.7799L51.5046 40.0842L42.3272 50.803L41.2821 52.0264L25.8341 70.0832C25.5362 69.984 25.241 69.8823 24.9432 69.7753L24.7969 69.7206C24.5762 69.6423 24.3555 69.5588 24.1348 69.4753L38.7637 52.389L39.402 51.643L51.8317 37.1104L52.6029 36.2079L67.1201 19.252C67.2372 19.4554 67.3542 19.6589 67.4659 19.865C67.4924 19.9198 67.5217 19.9745 67.551 20.0293C67.6919 20.2771 67.8328 20.5484 67.9738 20.8249Z" fill="#363636" stroke="#110002" stroke-miterlimit="10"/>
<path d="M36.9929 22.1731C39.1327 22.1271 41.253 22.5813 43.1785 23.4983C44.9469 24.3617 46.5851 25.4339 47.8988 26.9051C49.6932 28.8631 50.9329 31.2484 51.4942 33.8231C51.9752 36.0637 51.9361 38.3817 51.3798 40.6055C51.1119 41.6284 50.7414 42.6228 50.2735 43.5741C49.565 44.9946 48.6325 46.2966 47.5105 47.4322C45.9973 49.0339 44.1358 50.0799 42.1041 50.9095C40.1176 51.7181 38.0513 51.8929 35.9424 51.7938C34.7629 51.7565 33.5965 51.5391 32.4853 51.1494C30.4429 50.406 28.5229 49.4278 26.9486 47.92C25.8402 46.8822 24.8931 45.6904 24.1377 44.3827C22.6403 41.7594 21.9737 38.7579 22.2229 35.7613C22.3663 34.0287 22.8162 32.3339 23.5526 30.7528C24.151 29.5031 24.9126 28.335 25.8184 27.2781C27.0629 25.7469 28.6585 24.6591 30.411 23.7252C31.9932 22.9037 33.7261 22.3992 35.5089 22.2409C36.0142 22.1861 36.5168 22.1914 36.9929 22.1731Z" fill="#F43518" stroke="#110002" stroke-width="4" stroke-linecap="round" stroke-linejoin="round"/>
<path d="M37.0139 40.4709C35.0168 40.5309 33.4132 38.8118 33.4743 36.8475C33.5302 35.1285 35.1976 33.352 37.1442 33.4407C38.8834 33.5163 40.6013 35.2171 40.5162 37.0745C40.4312 38.9814 38.9127 40.5022 37.0139 40.4709Z" fill="#110002" stroke="#110002" stroke-width="4" stroke-linecap="round" stroke-linejoin="round"/>
</svg>
