<svg width="100" height="100" viewBox="0 0 100 100" fill="none" xmlns="http://www.w3.org/2000/svg">
<path d="M50.0002 8.33325C27.0002 8.33325 8.3335 26.9999 8.3335 49.9999C8.3335 72.9999 27.0002 91.6666 50.0002 91.6666H70.8335V83.3332H50.0002C31.9168 83.3332 16.6668 68.0833 16.6668 49.9999C16.6668 31.9166 31.9168 16.6666 50.0002 16.6666C68.0835 16.6666 83.3335 31.9166 83.3335 49.9999V55.9583C83.3335 59.2499 80.3752 62.4999 77.0835 62.4999C73.7918 62.4999 70.8335 59.2499 70.8335 55.9583V49.9999C70.8335 38.4999 61.5002 29.1666 50.0002 29.1666C38.5002 29.1666 29.1668 38.4999 29.1668 49.9999C29.1668 61.4999 38.5002 70.8333 50.0002 70.8333C55.7502 70.8333 61.0002 68.4999 64.7502 64.7082C67.4585 68.4166 72.1252 70.8333 77.0835 70.8333C85.2918 70.8333 91.6668 64.1666 91.6668 55.9583V49.9999C91.6668 26.9999 73.0002 8.33325 50.0002 8.33325ZM50.0002 62.4999C43.0835 62.4999 37.5002 56.9166 37.5002 49.9999C37.5002 43.0833 43.0835 37.4999 50.0002 37.4999C56.9168 37.4999 62.5002 43.0833 62.5002 49.9999C62.5002 56.9166 56.9168 62.4999 50.0002 62.4999Z" fill="white"/>
</svg>
