<svg width="225" height="246" viewBox="0 0 225 246" fill="none" xmlns="http://www.w3.org/2000/svg">
<path d="M223.35 2H2.31709V243.655H223.35V2Z" fill="white" stroke="#110002" stroke-width="2.75778" stroke-miterlimit="10"/>
<path d="M212.733 12.6934H12.2817V232.821H212.733V12.6934Z" fill="#6979BE" stroke="#110002" stroke-width="2.75778" stroke-miterlimit="10"/>
<path d="M111.592 53.9805C122.767 53.9805 133.484 58.4147 141.386 66.3076C149.288 74.2006 153.728 84.9057 153.728 96.068V186.103H69.4559V96.068C69.4559 84.9057 73.8952 74.2006 81.7972 66.3076C89.6992 58.4147 100.417 53.9805 111.592 53.9805Z" fill="#110002" stroke="#110002" stroke-width="3.5989" stroke-miterlimit="10" stroke-linecap="round"/>
<path d="M74.8321 121.55C74.5921 133.885 74.9938 147.033 75.5573 159.315C75.6877 162.202 75.9407 165.457 77.0337 167.067C77.7663 161.276 78.1417 155.446 78.158 149.61C78.8936 151.202 79.1153 153.578 79.3057 155.808L80.5265 170.188L81.5334 154.922L82.2482 167.062C82.4543 170.605 82.6916 174.31 83.6385 177.205C84.1602 176.408 84.1602 174.748 84.1055 173.359C83.6881 162.633 83.1534 151.934 82.5012 141.261C82.3734 139.177 81.8178 136.431 80.9022 137.022C80.2761 137.429 80.0101 139.31 79.371 139.609C78.4919 140.021 78.0667 137.361 77.9676 135.394C77.7771 131.451 77.4145 127.554 76.885 123.765C76.7337 122.679 76.5433 121.524 76.1181 120.878C75.6929 120.232 74.9729 120.466 74.8321 121.561" fill="#1F307C"/>
<path d="M73.9634 121.551C73.8434 127.804 73.8852 134.071 74.0234 140.327C74.1591 146.538 74.3912 152.745 74.673 158.951C74.746 160.538 74.8373 162.122 75.0669 163.693C75.2599 164.996 75.5468 166.393 76.285 167.505C76.3848 167.667 76.5337 167.793 76.7101 167.865C76.8865 167.937 77.0812 167.95 77.2659 167.904C77.4455 167.847 77.6033 167.737 77.7173 167.587C77.8313 167.437 77.8959 167.256 77.9023 167.068C78.4241 163 78.7527 158.902 78.9171 154.801C78.9849 153.072 79.0214 151.343 79.0266 149.613L77.4119 150.051C77.4454 150.123 77.475 150.197 77.5006 150.272C77.5476 150.392 77.5893 150.514 77.6284 150.637C77.7197 150.913 77.7954 151.192 77.8606 151.473C77.991 152.026 78.0902 152.594 78.1684 153.149C78.3406 154.412 78.4293 155.702 78.5388 156.976L79.2536 165.39L79.6605 170.189C79.6658 170.417 79.7588 170.634 79.92 170.795C80.0813 170.956 80.2985 171.049 80.5265 171.054C80.7552 171.051 80.9735 170.958 81.1352 170.797C81.2969 170.635 81.3892 170.417 81.3926 170.189L82.4021 154.923H80.6674L81.2256 164.212C81.3978 167.125 81.5047 170.054 81.8856 172.948C82.0584 174.467 82.3701 175.966 82.8168 177.427C82.866 177.588 82.9605 177.732 83.0891 177.84C83.2178 177.949 83.375 178.018 83.5421 178.04C83.7092 178.062 83.879 178.035 84.0312 177.963C84.1833 177.891 84.3115 177.776 84.4002 177.633C84.9428 176.755 84.995 175.611 85.008 174.611C85.0237 173.368 84.9376 172.125 84.888 170.885C84.7785 168.227 84.6628 165.569 84.5411 162.912C84.2959 157.582 84.0211 152.256 83.7168 146.932C83.6403 145.619 83.5638 144.306 83.4872 142.995C83.4142 141.799 83.362 140.606 83.1794 139.423C83.049 138.573 82.8794 137.62 82.4151 136.88C81.9117 136.072 80.9204 135.767 80.1848 136.499C79.9013 136.815 79.6816 137.182 79.5379 137.58C79.4544 137.781 79.371 137.984 79.277 138.188L79.217 138.333L79.2301 138.302C79.1858 138.401 79.1414 138.5 79.0918 138.599C79.0423 138.698 79.0136 138.732 78.9771 138.8C78.8753 138.977 79.0475 138.753 78.9536 138.836C78.8597 138.92 79.0005 138.808 79.0136 138.805C78.8805 138.855 79.0945 138.782 79.0997 138.782C79.0188 138.805 79.0214 138.782 79.2144 138.782C79.0762 138.782 79.371 138.829 79.3996 138.831C79.4805 138.831 79.4883 138.873 79.4336 138.831C79.324 138.769 79.5066 138.888 79.5092 138.891C79.5118 138.894 79.4701 138.836 79.4466 138.823C79.4805 138.844 79.5405 138.993 79.4909 138.873C79.4649 138.813 79.4231 138.75 79.3918 138.693C79.3605 138.636 79.3631 138.636 79.3501 138.607C79.444 138.802 79.3501 138.589 79.337 138.558C79.0666 137.725 78.9104 136.86 78.8727 135.986C78.7762 134.738 78.7371 133.487 78.6458 132.239C78.4597 129.649 78.1988 127.067 77.8632 124.493C77.7067 123.333 77.6154 122.101 77.1615 121.009C76.9685 120.543 76.7128 120.056 76.2407 119.813C75.9869 119.678 75.6973 119.624 75.4118 119.66C75.1264 119.696 74.8591 119.82 74.6469 120.014C74.2874 120.36 74.0596 120.821 74.0026 121.317C73.9498 121.538 73.983 121.771 74.0952 121.968C74.2075 122.166 74.3907 122.314 74.6077 122.382C75.0173 122.494 75.6042 122.242 75.6746 121.778C75.6903 121.663 75.7139 121.55 75.7451 121.439C75.7451 121.418 75.8181 121.249 75.7738 121.345C75.7294 121.442 75.7999 121.311 75.7972 121.309C75.7633 121.22 75.8912 121.262 75.7816 121.309L75.7425 121.33C75.7738 121.311 75.8468 121.291 75.7425 121.33C75.6981 121.345 75.4816 121.356 75.6094 121.369C75.547 121.363 75.4857 121.349 75.4268 121.327L75.3747 121.304C75.4373 121.34 75.4399 121.34 75.3747 121.304C75.3747 121.288 75.3121 121.246 75.3747 121.317C75.4816 121.423 75.3877 121.33 75.3747 121.304C75.4791 121.448 75.5577 121.609 75.6068 121.78C75.9564 122.807 76.0529 123.922 76.1911 124.993C76.5146 127.486 76.7633 129.987 76.9372 132.497C77.018 133.675 77.052 134.858 77.1485 136.035C77.1999 136.985 77.3548 137.926 77.6102 138.842C77.8371 139.569 78.2806 140.509 79.1753 140.504C80.1327 140.504 80.5605 139.582 80.8735 138.826C80.9439 138.657 81.0117 138.487 81.0796 138.318C81.0796 138.297 81.1526 138.146 81.1109 138.245L81.1265 138.208C81.1735 138.112 81.2178 138.013 81.27 137.919C81.3222 137.825 81.3482 137.792 81.3874 137.724C81.4578 137.599 81.2726 137.82 81.4161 137.703C81.3628 137.749 81.2984 137.78 81.2292 137.793C81.1601 137.807 81.0887 137.801 81.0222 137.779C80.8344 137.726 80.8526 137.7 80.9204 137.739C80.9883 137.779 80.9439 137.786 80.9022 137.721C80.8604 137.656 80.863 137.698 80.9022 137.734C80.9413 137.771 80.8448 137.653 80.8474 137.659C80.8813 137.726 80.9309 137.789 80.97 137.857C81.0091 137.924 81.09 138.117 81.0222 137.956C81.1678 138.334 81.2804 138.725 81.3587 139.123C81.542 140.08 81.651 141.049 81.6847 142.023C81.763 143.315 81.8395 144.607 81.9143 145.897C82.2082 150.983 82.476 156.071 82.7177 161.161C82.836 163.706 82.9473 166.255 83.0516 168.808C83.1073 170.106 83.1603 171.403 83.2107 172.701C83.2316 173.248 83.2577 173.795 83.2577 174.345C83.2577 174.59 83.2577 174.837 83.2446 175.085C83.2446 175.205 83.2368 175.325 83.2212 175.444C83.2212 175.567 83.1951 175.736 83.1925 175.752C83.1627 175.961 83.1182 176.167 83.0594 176.369C83.0342 176.458 83.0037 176.545 82.9681 176.63C83.036 176.471 82.9108 176.713 82.8873 176.752L84.4733 176.958C83.6516 174.42 83.4299 171.732 83.2394 169.087C83.0334 166.083 82.8795 163.076 82.7021 160.072L82.3995 154.905C82.3873 154.683 82.2906 154.475 82.1293 154.322C81.968 154.17 81.7543 154.085 81.5321 154.085C81.31 154.085 81.0963 154.17 80.935 154.322C80.7736 154.475 80.677 154.683 80.6648 154.905L79.6605 170.189H81.3926L80.657 161.518C80.4222 158.771 80.2683 156.004 79.9161 153.271C79.7362 151.869 79.4936 150.483 78.9066 149.186C78.8097 149.021 78.6615 148.894 78.4847 148.822C78.3079 148.751 78.1124 148.739 77.9284 148.79C77.7467 148.842 77.5866 148.951 77.4719 149.101C77.3573 149.251 77.2941 149.434 77.2919 149.623C77.2796 154.704 76.9939 159.78 76.4363 164.829C76.3529 165.58 76.2659 166.329 76.1755 167.078L77.7902 166.643C77.6623 166.45 77.5498 166.248 77.4537 166.038C77.3519 165.819 77.2648 165.594 77.1928 165.364C77.0193 164.787 76.8859 164.2 76.7937 163.605C76.6004 162.295 76.4811 160.975 76.4363 159.652C76.2877 156.635 76.1755 153.618 76.0581 150.6C75.8312 144.381 75.672 138.159 75.6329 131.937C75.612 128.48 75.6329 125.022 75.6955 121.562C75.7164 120.446 73.9843 120.446 73.9608 121.562L73.9634 121.551Z" fill="#1F307C"/>
<path d="M146.064 117.942C145.378 126.848 143.379 135.349 140.372 142.142C139.991 142.917 139.695 143.73 139.487 144.568C139.306 145.6 139.224 146.647 139.242 147.695L138.937 166.345C138.893 169.185 139.198 172.197 139.936 174.657C142.618 170.227 139.876 159.688 142.73 155.696C142.872 160.73 143.372 165.747 144.225 170.709C145.581 165.18 143.893 157.71 145.808 152.864L146.7 160.548C147.271 147.158 146.596 131.332 146.056 117.937" fill="#1F307C"/>
<path d="M145.195 117.942C144.632 125.206 143.218 132.478 140.612 139.307C140.33 140.04 140.046 140.746 139.749 141.428C139.347 142.257 139.008 143.115 138.736 143.995C138.515 144.926 138.399 145.88 138.392 146.837C138.361 147.856 138.356 148.878 138.34 149.896L138.142 162.07C138.105 164.29 137.996 166.52 138.118 168.737C138.211 170.817 138.54 172.88 139.099 174.886C139.148 175.047 139.243 175.191 139.371 175.299C139.5 175.408 139.657 175.477 139.824 175.499C139.991 175.521 140.161 175.494 140.313 175.422C140.466 175.35 140.594 175.235 140.682 175.092C141.263 174.056 141.641 172.919 141.796 171.741C142 170.353 142.107 168.952 142.117 167.549C142.146 166.121 142.117 164.683 142.146 163.268C142.146 162.591 142.172 161.913 142.208 161.238C142.227 160.915 142.25 160.59 142.279 160.269C142.292 160.11 142.308 159.954 142.326 159.798C142.326 159.722 142.344 159.644 142.352 159.568C142.36 159.493 142.352 159.467 142.373 159.415C142.357 159.519 142.357 159.521 142.373 159.415C142.461 158.78 142.6 158.154 142.788 157.541C142.834 157.395 142.887 157.252 142.939 157.109C142.954 157.07 143.043 156.869 142.939 157.08C142.973 157.004 143.007 156.929 143.043 156.853C143.165 156.601 143.307 156.358 143.468 156.129L141.854 155.691C142.002 160.802 142.512 165.895 143.38 170.934C143.528 171.791 144.859 171.715 145.052 170.934C146.194 166.194 145.313 161.272 145.834 156.473C145.89 155.916 145.978 155.363 146.095 154.816C146.225 154.227 146.399 153.65 146.617 153.088L144.914 152.859L145.842 160.548C145.849 160.775 145.943 160.991 146.104 161.152C146.265 161.312 146.481 161.406 146.708 161.413C146.937 161.41 147.155 161.317 147.317 161.156C147.479 160.994 147.571 160.776 147.574 160.548C147.809 155.048 147.835 149.542 147.757 144.039C147.681 138.372 147.496 132.708 147.29 127.043C147.175 124.007 147.055 120.971 146.93 117.937C146.918 117.715 146.821 117.507 146.66 117.354C146.498 117.202 146.285 117.117 146.063 117.117C145.84 117.117 145.627 117.202 145.465 117.354C145.304 117.507 145.207 117.715 145.195 117.937C145.417 123.44 145.644 128.943 145.808 134.448C145.978 140.11 146.087 145.777 146.051 151.444C146.033 154.48 145.97 157.515 145.842 160.548H147.574L146.674 152.851C146.668 152.645 146.588 152.448 146.45 152.295C146.312 152.142 146.124 152.043 145.92 152.016C145.715 151.988 145.508 152.034 145.334 152.145C145.16 152.256 145.032 152.425 144.971 152.622C144.144 154.745 143.998 157.096 143.951 159.352C143.901 161.809 144.016 164.271 143.886 166.726C143.842 167.985 143.676 169.237 143.39 170.465H145.062C144.225 165.578 143.735 160.639 143.596 155.683C143.59 155.496 143.524 155.316 143.408 155.169C143.292 155.022 143.131 154.917 142.95 154.868C142.769 154.819 142.577 154.83 142.403 154.898C142.229 154.967 142.081 155.089 141.981 155.248C141.365 156.201 140.958 157.274 140.789 158.396C140.567 159.748 140.45 161.116 140.44 162.486C140.369 165.272 140.531 168.081 140.197 170.853C140.197 170.876 140.158 171.134 140.197 170.931L140.166 171.16C140.137 171.332 140.109 171.507 140.077 171.681C140.015 172.012 139.942 172.341 139.85 172.666C139.759 172.992 139.66 173.268 139.545 173.565C139.626 173.357 139.545 173.565 139.532 173.597L139.396 173.836C139.329 173.967 139.258 174.094 139.185 174.219L140.769 174.425C140.286 172.725 139.988 170.978 139.879 169.214C139.743 167.265 139.819 165.306 139.85 163.365L140.049 151.189L140.098 148.211C140.085 147.265 140.126 146.319 140.221 145.378C140.44 143.672 141.34 142.134 141.971 140.553C143.245 137.325 144.266 134.003 145.026 130.618C145.97 126.447 146.606 122.212 146.927 117.947C146.925 117.718 146.833 117.499 146.671 117.338C146.509 117.176 146.29 117.084 146.061 117.082C145.833 117.086 145.614 117.178 145.452 117.34C145.29 117.501 145.197 117.719 145.193 117.947L145.195 117.942Z" fill="#1F307C"/>
<path d="M86.4425 135.678C86.526 144.264 86.7547 152.847 87.1286 161.426C87.2329 163.827 87.3494 166.224 87.4781 168.618C87.4828 168.846 87.5754 169.063 87.7367 169.225C87.8981 169.387 88.1157 169.48 88.3441 169.485C88.5739 169.483 88.7937 169.391 88.9561 169.229C89.1186 169.067 89.2107 168.847 89.2128 168.618C88.7572 160.066 88.4424 151.509 88.2685 142.945C88.2215 140.513 88.1868 138.091 88.1642 135.678C88.1642 134.563 86.419 134.56 86.4295 135.678H86.4425Z" fill="#1F307C"/>
<path d="M149.875 123.114C149.958 128.445 150.024 133.777 150.071 139.109C150.118 144.442 150.15 149.776 150.167 155.11C150.178 158.105 150.178 161.097 150.167 164.086C150.167 165.201 151.902 165.204 151.902 164.086C151.902 158.752 151.888 153.418 151.86 148.085C151.832 142.753 151.786 137.419 151.722 132.085C151.685 129.097 151.644 126.107 151.599 123.114C151.584 122.001 149.849 121.996 149.865 123.114H149.875Z" fill="#1F307C"/>
<path d="M134.865 148.018C134.725 154.947 134.708 161.877 134.816 168.807C134.844 170.753 134.884 172.7 134.936 174.649C134.936 174.879 135.027 175.099 135.19 175.261C135.352 175.423 135.572 175.514 135.802 175.514C136.032 175.514 136.252 175.423 136.414 175.261C136.577 175.099 136.668 174.879 136.668 174.649C136.494 167.72 136.442 160.791 136.511 153.862C136.529 151.913 136.558 149.965 136.6 148.018C136.607 147.9 136.589 147.782 136.548 147.671C136.508 147.561 136.445 147.459 136.364 147.374C136.282 147.288 136.185 147.22 136.076 147.173C135.968 147.127 135.851 147.103 135.733 147.103C135.615 147.103 135.498 147.127 135.389 147.173C135.281 147.22 135.183 147.288 135.102 147.374C135.021 147.459 134.958 147.561 134.917 147.671C134.877 147.782 134.859 147.9 134.865 148.018Z" fill="#1F307C"/>
<path d="M78.406 96.9199V111.449C75.5549 111.449 73.2411 108.197 73.2411 104.184C73.2411 100.172 75.5549 96.9199 78.406 96.9199Z" fill="#E28281" stroke="#110002" stroke-width="2.75778" stroke-miterlimit="10"/>
<path d="M143.129 96.1908V110.717C144.096 110.735 145.056 110.561 145.954 110.204C146.852 109.847 147.67 109.315 148.36 108.639C149.05 107.963 149.598 107.156 149.973 106.265C150.347 105.375 150.539 104.419 150.539 103.454C150.539 102.488 150.347 101.532 149.973 100.642C149.598 99.7518 149.05 98.9449 148.36 98.2687C147.67 97.5925 146.852 97.0604 145.954 96.7036C145.056 96.3468 144.096 96.1725 143.129 96.1908Z" fill="#E28281" stroke="#110002" stroke-width="2.75778" stroke-miterlimit="10"/>
<path d="M142.928 154.311H79.444V229.658H142.928V154.311Z" fill="#FEB20E" stroke="#110002" stroke-width="2.75778" stroke-miterlimit="10"/>
<path d="M128.046 152.88C128.046 145.778 120.19 140.021 110.499 140.021C100.807 140.021 92.9509 145.778 92.9509 152.88C92.9509 159.981 100.807 165.738 110.499 165.738C120.19 165.738 128.046 159.981 128.046 152.88Z" fill="#F43518" stroke="#110002" stroke-width="2.75778" stroke-miterlimit="10"/>
<path d="M97.5501 138.567H123.896V147.52C123.896 149.131 123.579 150.727 122.961 152.215C122.344 153.704 121.439 155.057 120.299 156.196C119.158 157.335 117.804 158.239 116.314 158.856C114.823 159.472 113.226 159.79 111.613 159.79H109.823C106.567 159.787 103.446 158.493 101.144 156.192C98.8428 153.892 97.5501 150.772 97.5501 147.52V138.567Z" fill="#E28281" stroke="#110002" stroke-width="2.75778" stroke-miterlimit="10"/>
<path d="M110.856 141.856C129.556 141.856 144.715 123.748 144.715 101.41C144.715 79.0722 129.556 60.9639 110.856 60.9639C92.1565 60.9639 76.9974 79.0722 76.9974 101.41C76.9974 123.748 92.1565 141.856 110.856 141.856Z" fill="#E28281" stroke="#110002" stroke-width="2.75778" stroke-miterlimit="10"/>
<path d="M87.4737 100.99C88.2448 99.2037 89.6253 97.7482 91.3692 96.8831C92.9047 96.0743 94.6594 95.7805 96.3739 96.0451" stroke="#110002" stroke-width="2.75778" stroke-miterlimit="10" stroke-linecap="round"/>
<path d="M121.796 96.1747C123.698 95.7642 125.685 96.0413 127.403 96.9566C128.954 97.7359 130.213 98.9927 130.994 100.542" stroke="#110002" stroke-width="2.75778" stroke-miterlimit="10" stroke-linecap="round"/>
<path d="M106.818 119.665C106.17 119.378 105.632 118.89 105.284 118.273C105.04 117.828 104.905 117.332 104.888 116.825L107.092 105.571" stroke="#110002" stroke-width="2.75778" stroke-miterlimit="10" stroke-linecap="round"/>
<path d="M120.782 124.784C118.045 123.806 115.125 123.444 112.232 123.724C109.339 124.004 106.543 124.918 104.045 126.402" stroke="#110002" stroke-width="2.75778" stroke-miterlimit="10" stroke-linecap="round"/>
<path d="M95.3688 108.844C97.2115 108.844 98.7052 107.352 98.7052 105.511C98.7052 103.671 97.2115 102.179 95.3688 102.179C93.5262 102.179 92.0325 103.671 92.0325 105.511C92.0325 107.352 93.5262 108.844 95.3688 108.844Z" fill="#110002"/>
<path d="M93.4206 104.529C92.8314 104.65 92.2182 104.558 91.6911 104.268C91.3924 104.114 91.1196 103.915 90.8825 103.677" stroke="#110002" stroke-width="1.72361" stroke-miterlimit="10" stroke-linecap="round"/>
<path d="M143.33 91.6471C138.697 90.4668 134.753 89.6512 131.795 89.0963C126.385 88.0801 121.139 87.1082 114.242 86.8737C111.983 86.7982 109.808 86.8034 107.734 86.8737L105.59 79.8153L102.952 86.8737C101.865 86.8737 100.344 86.9154 98.5049 87.0379C94.9511 87.2142 91.4205 87.7104 87.956 88.5204C84.4071 89.3865 80.9634 90.6367 77.6861 92.249L84.2988 65.3362L106.964 58.1631L122.764 60.2345L143.33 71.8709V91.6471Z" fill="#110002" stroke="#110002" stroke-width="3.05424" stroke-miterlimit="10" stroke-linecap="round"/>
<path d="M110.682 65.719C128.665 65.719 143.38 79.4607 144.621 96.8632C144.676 96.0816 144.715 95.2843 144.715 94.4844C144.715 75.9719 129.479 60.9639 110.682 60.9639C91.8844 60.9639 76.6479 75.9719 76.6479 94.4844C76.6479 95.2843 76.687 96.0763 76.7444 96.8632C77.9835 79.4607 92.7035 65.719 110.682 65.719Z" fill="#FEB20E" stroke="#110002" stroke-width="1.37889" stroke-miterlimit="10"/>
<path d="M109.888 74.9684L112.095 82.0321C112.244 82.5089 112.57 83.0743 112.932 82.8763C113.193 82.7277 113.23 82.3004 113.237 81.9435L113.297 79.3119C114.636 80.3455 115.73 81.6602 116.503 83.1629C117.372 82.9805 116.837 80.7918 117.641 80.3332C118.228 79.9971 118.728 80.9534 118.995 81.7064C119.261 82.4594 119.981 83.2697 120.434 82.6939C120.818 82.1962 120.674 80.9586 121.217 81.0185C121.387 81.0367 121.517 81.2113 121.629 81.3755L123.484 84.0774C123.499 83.8661 123.569 83.6624 123.686 83.4855C123.802 83.3087 123.963 83.1646 124.151 83.0672C124.339 82.9697 124.549 82.9221 124.761 82.9288C124.973 82.9355 125.18 82.9964 125.362 83.1055C126.082 83.525 126.567 84.4083 127.188 85.0389C125.607 81.8323 123.921 78.7187 122.13 75.6979C121.324 74.3378 120.267 72.8605 118.945 73.0038L120.067 76.3493C120.129 76.4944 120.152 76.6537 120.132 76.8105C120.054 77.1779 119.639 77.1362 119.365 76.9903C118.322 76.4182 117.429 75.6096 116.756 74.6297C116.43 74.1685 116.125 73.65 115.689 73.3764C115.585 73.3019 115.466 73.2518 115.34 73.2299C115.214 73.208 115.084 73.2149 114.961 73.2499C114.838 73.285 114.724 73.3474 114.629 73.4325C114.533 73.5175 114.458 73.623 114.409 73.7412C114.19 74.2779 114.437 74.958 114.278 75.5312C114.225 75.7692 114.087 75.9797 113.889 76.1235C113.692 76.2673 113.449 76.3346 113.206 76.3129C112.737 76.2007 112.329 75.9147 112.064 75.513C111.719 75.0752 111.417 74.5359 110.963 74.3248C110.841 74.2765 110.709 74.2601 110.579 74.2774C110.45 74.2947 110.326 74.345 110.222 74.4234C110.117 74.5019 110.034 74.6059 109.981 74.7255C109.928 74.8451 109.907 74.9763 109.919 75.1065" fill="#1F307C"/>
<path d="M109.051 75.1982L110.175 78.7939C110.548 79.9899 110.869 81.2223 111.307 82.3974C111.511 82.9498 111.829 83.5491 112.439 83.7367C113.128 83.9451 113.744 83.4761 113.973 82.8404C114.151 82.3192 114.109 81.733 114.122 81.191L114.166 79.3124L112.862 80.0602C114.067 81.0274 115.055 82.2375 115.76 83.6116C115.858 83.7745 116.007 83.9012 116.183 83.9726C116.36 84.044 116.554 84.0563 116.738 84.0076C117.719 83.7471 117.865 82.7049 117.967 81.8633C117.967 81.7825 117.985 81.7017 117.996 81.6209C118.014 81.4568 117.996 81.6209 117.996 81.647C117.996 81.6027 118.009 81.5584 118.017 81.5141C118.028 81.4263 118.046 81.3392 118.069 81.2536C118.069 81.2067 118.168 80.9591 118.118 81.0712C118.069 81.1832 118.118 81.0712 118.134 81.0503C118.176 80.9748 118.212 81.0034 118.134 81.0295L118.1 81.0764C118.149 81.0277 118.143 81.0277 118.084 81.0764C117.946 81.178 118.16 81.0634 118.043 81.1024C117.936 81.1298 117.824 81.1298 117.717 81.1024C117.654 81.1024 117.636 81.0373 117.717 81.1024C117.855 81.2197 117.688 81.0269 117.795 81.1936C118.087 81.6548 118.16 82.0743 118.447 82.5798C118.734 83.0853 119.167 83.5777 119.73 83.7184C120.034 83.7902 120.354 83.7557 120.635 83.6205C120.917 83.4854 121.143 83.2578 121.277 82.9758C121.443 82.5696 121.566 82.1469 121.642 81.7147C121.653 81.6848 121.661 81.6544 121.669 81.6236C121.695 81.462 121.588 81.7408 121.669 81.6236C121.623 81.699 121.558 81.7611 121.481 81.8033L121.168 81.8841C120.849 81.7069 120.748 81.6757 120.865 81.7929C120.932 81.9107 121.008 82.0223 121.095 82.1264L121.418 82.5928L122.738 84.5079C122.837 84.6669 122.985 84.7897 123.16 84.8581C123.335 84.9266 123.527 84.937 123.708 84.8879C123.889 84.8388 124.05 84.7328 124.166 84.5855C124.282 84.4382 124.347 84.2575 124.353 84.0702C124.332 84.2838 124.418 83.8852 124.368 84.0102C124.319 84.1353 124.527 83.7888 124.368 83.9712C124.389 83.9451 124.556 83.7992 124.4 83.9164C124.457 83.876 124.517 83.8394 124.58 83.807C124.402 83.9034 124.65 83.807 124.705 83.7862C124.559 83.82 124.658 83.8018 124.752 83.7862C124.927 83.7731 124.634 83.7341 124.799 83.7862L124.934 83.8279C124.848 83.7914 124.833 83.7862 124.887 83.8148C125.197 84.0249 125.469 84.2846 125.694 84.5835C125.983 84.9326 126.254 85.3 126.567 85.6257C126.716 85.773 126.914 85.8611 127.123 85.8735C127.333 85.886 127.539 85.822 127.705 85.6934C127.869 85.5647 127.982 85.3816 128.023 85.1772C128.064 84.9728 128.031 84.7604 127.929 84.5783C126.955 82.6085 125.939 80.6621 124.88 78.7392C124.347 77.7786 123.804 76.8232 123.249 75.8731C122.78 75.0097 122.23 74.1931 121.606 73.4343C120.938 72.6709 119.996 72.0221 118.937 72.1107C118.416 72.155 117.894 72.6318 118.1 73.2076L118.901 75.5969L119.063 76.0737C119.112 76.2757 119.177 76.4735 119.258 76.6652C119.357 76.5374 119.448 76.4043 119.532 76.2665L119.78 76.2014C119.694 76.2014 119.686 76.2014 119.751 76.2014C119.874 76.2014 119.608 76.1206 119.796 76.2144C119.704 76.1675 119.613 76.1154 119.535 76.0633C118.988 75.7361 118.493 75.3295 118.066 74.8569C117.57 74.3202 117.221 73.6792 116.741 73.1294C116.517 72.8411 116.219 72.6183 115.879 72.4844C115.539 72.3506 115.169 72.3106 114.808 72.3686C113.979 72.5328 113.527 73.2649 113.454 74.057C113.423 74.3983 113.48 74.7397 113.454 75.081C113.454 75.1772 113.437 75.2726 113.402 75.3624C113.449 75.2321 113.292 75.4875 113.386 75.3624L113.326 75.4223C113.389 75.3702 113.379 75.3728 113.295 75.4223C113.436 75.4223 113.232 75.3832 113.274 75.4223H113.35C113.261 75.4223 113.246 75.4223 113.3 75.4223C113.397 75.4744 113.159 75.3624 113.266 75.4223C113.207 75.3929 113.15 75.3598 113.094 75.3233C112.888 75.1528 112.707 74.9526 112.559 74.7293C112.085 74.0779 111.516 73.3249 110.603 73.3744C110.17 73.398 109.764 73.5902 109.471 73.9098C109.178 74.2293 109.023 74.6508 109.038 75.0836C109.043 75.3123 109.136 75.5303 109.298 75.692C109.459 75.8537 109.678 75.9466 109.907 75.9513C110.136 75.9485 110.355 75.8562 110.517 75.694C110.679 75.5318 110.771 75.3126 110.773 75.0836C110.773 74.896 110.694 75.1435 110.773 74.9898C110.747 75.0367 110.733 75.0628 110.702 75.1123C110.812 74.9403 110.723 75.1305 110.702 75.1123L110.767 75.0758C110.671 75.1149 110.671 75.1201 110.767 75.0914C110.708 75.0993 110.647 75.0993 110.587 75.0914C110.72 75.0914 110.637 75.1123 110.587 75.0914C110.765 75.1904 110.556 75.0263 110.7 75.1774C110.767 75.2478 110.833 75.3155 110.895 75.3885C111.284 75.8575 111.678 76.5271 112.301 76.8788C112.649 77.0908 113.055 77.1847 113.461 77.1467C113.866 77.1086 114.248 76.9406 114.55 76.6678C115.173 76.0867 115.194 75.2973 115.168 74.5052C115.168 74.4166 115.168 74.328 115.168 74.2446C115.168 74.057 115.168 74.1248 115.168 74.1665L115.191 74.0674C115.168 74.1117 115.171 74.1091 115.191 74.0674L115.212 74.031C115.192 74.0716 115.158 74.1032 115.116 74.1196C115.272 73.9945 115.129 74.1326 115.116 74.1196L115.186 74.0987C115.087 74.0987 115.072 74.1117 115.137 74.0987H115.173C115.065 74.0779 115.065 74.0779 115.173 74.0987C115.281 74.1195 115.294 74.1195 115.212 74.0987C115.155 74.0753 115.165 74.0831 115.244 74.1248C115.419 74.2934 115.581 74.4765 115.726 74.6719C115.958 75.0028 116.188 75.3337 116.441 75.649C116.909 76.2285 117.45 76.7452 118.05 77.1863C118.619 77.6084 119.336 78.1035 120.083 77.9237C120.334 77.86 120.558 77.7176 120.722 77.5174C120.887 77.3172 120.982 77.0696 120.996 76.8111C121.027 76.3421 120.826 75.8991 120.68 75.464L119.777 72.7751L118.943 73.872C119.054 73.8603 119.167 73.8603 119.279 73.872C119.104 73.8512 119.423 73.9189 119.456 73.932H119.485C119.537 73.958 119.587 73.9841 119.639 74.0153C119.691 74.0466 119.9 74.1977 119.832 74.1378C120.215 74.4526 120.548 74.8243 120.818 75.2399C121.52 76.2587 122.109 77.3609 122.717 78.4344C124.023 80.7429 125.263 83.0879 126.437 85.4694L127.799 84.4271C127.016 83.609 126.38 82.3427 125.161 82.1186C124.598 82.0027 124.012 82.1142 123.531 82.4287C123.263 82.616 123.042 82.8619 122.883 83.1478C122.725 83.4336 122.634 83.7518 122.618 84.078L124.233 83.6429L123.017 81.8815C122.623 81.3083 122.208 80.4015 121.486 80.2061C120.763 80.0107 120.247 80.4667 120.023 81.0868C119.965 81.2678 119.918 81.4523 119.884 81.6392C119.863 81.733 119.845 81.8294 119.822 81.9258C119.798 82.0222 119.696 82.3114 119.777 82.1108C119.715 82.2671 119.704 82.1733 119.827 82.1108C119.942 82.065 120.066 82.0472 120.189 82.0587C120.296 82.0587 120.239 82.1733 120.205 82.0587C120.205 82.0587 120.349 82.2098 120.192 82.0587C120.153 82.0144 120.111 81.9753 120.072 81.931C120.143 82.0118 120.049 81.8971 120.041 81.8867C119.989 81.8059 119.942 81.7226 119.895 81.6392C119.819 81.5089 119.704 81.1676 119.603 80.9357C119.493 80.6735 119.353 80.4252 119.185 80.1957C118.778 79.6537 118.173 79.2681 117.477 79.4844C117.224 79.579 116.997 79.7327 116.815 79.9326C116.634 80.1324 116.503 80.3727 116.433 80.6334C116.31 81.0946 116.232 81.5667 116.201 82.0431C116.23 81.8112 116.183 82.1421 116.172 82.1994C116.151 82.2958 116.118 82.3896 116.097 82.486C116.097 82.5407 116.018 82.6293 116.123 82.4261C116.078 82.5121 115.998 82.5407 116.154 82.413C116.081 82.4704 116.36 82.3245 116.266 82.3505L117.244 82.7465C116.389 81.1186 115.189 79.6961 113.728 78.5777C113.178 78.1582 112.437 78.7366 112.424 79.3255L112.398 80.8184C112.41 81.287 112.396 81.7558 112.356 82.2228C112.377 82.0743 112.317 82.3453 112.317 82.3427C112.184 82.0431 113.251 82.0821 113.045 82.1264C113.094 82.1134 113.199 82.3349 113.079 82.1264C113.063 82.1004 112.977 81.9414 112.99 81.9701C112.823 81.5304 112.681 81.0815 112.565 80.6256L110.723 74.7397C110.662 74.5182 110.516 74.3299 110.316 74.2163C110.116 74.1027 109.879 74.0731 109.657 74.1339C109.436 74.1947 109.247 74.341 109.134 74.5406C109.02 74.7402 108.99 74.9768 109.051 75.1982Z" fill="#1F307C"/>
<path d="M126.218 74.1969L128.946 79.6686C130.251 82.2742 131.578 84.9162 133.663 86.9642C134.231 86.0157 133.767 84.8302 133.402 83.7932C133.292 83.4779 133.329 82.9698 133.663 82.9959C133.845 83.0089 133.957 83.1913 134.041 83.3529C134.511 84.272 135.049 85.1551 135.65 85.9949C135.927 85.69 135.742 85.2132 135.546 84.8537L133.736 81.5368C132.546 79.3612 131.359 77.1855 130.039 75.0828C129.712 74.4865 129.268 73.9612 128.735 73.5377C128.177 73.1469 127.397 72.9827 126.794 73.3084C126.192 73.6341 125.709 73.7253 126.202 74.1943" fill="#1F307C"/>
<path d="M125.469 74.6327C126.646 76.9907 127.796 79.3618 129.009 81.7016C130.105 83.8173 131.357 85.8861 133.05 87.5797C133.145 87.6716 133.259 87.7409 133.384 87.7824C133.509 87.8239 133.643 87.8367 133.773 87.8196C133.904 87.8026 134.03 87.7562 134.14 87.684C134.251 87.6118 134.343 87.5156 134.411 87.4025C135.095 86.1831 134.717 84.724 134.221 83.4942C134.171 83.3743 134.247 83.4707 134.221 83.5098V83.4343L134.203 83.5255L134.218 83.4603C134.169 83.6557 134.01 83.7209 133.736 83.6401C133.553 83.7938 133.399 83.8173 133.277 83.7157C133.253 83.6922 133.256 83.7157 133.277 83.7443C133.341 83.9066 133.424 84.0612 133.522 84.2055C133.598 84.3436 133.673 84.4843 133.751 84.6224C134.106 85.2425 134.495 85.8444 134.91 86.4281C135.324 87.0117 135.995 86.9492 136.407 86.4281C136.89 85.7975 136.608 84.9768 136.271 84.3592C135.935 83.7417 135.588 83.106 135.246 82.478C134.552 81.2065 133.861 79.9324 133.159 78.6661C132.458 77.3998 131.73 76.1413 130.966 74.9089C130.277 73.7963 129.463 72.5639 128.075 72.3242C127.269 72.1757 126.625 72.4128 125.918 72.7854C125.747 72.8625 125.593 72.9739 125.466 73.1129C125.34 73.2518 125.243 73.4153 125.182 73.5931C125.14 73.8139 125.157 74.042 125.231 74.2543C125.305 74.4666 125.434 74.6556 125.605 74.8021C126.388 75.602 127.608 74.3747 126.831 73.5774C126.701 73.4446 126.831 73.4889 126.86 73.6947C126.824 73.913 126.765 74.127 126.685 74.3331C126.685 74.3331 126.622 74.3591 126.719 74.32C126.773 74.2962 126.825 74.2692 126.875 74.2393C127.038 74.1383 127.214 74.0595 127.397 74.0048C127.381 74.0048 127.295 74.0048 127.397 74.0048C127.461 73.9995 127.526 73.9995 127.59 74.0048C127.643 74.0039 127.696 74.0118 127.747 74.0282C127.949 74.0689 128.139 74.1583 128.3 74.2888C128.626 74.5606 128.902 74.8868 129.116 75.2528C129.416 75.7114 129.698 76.1804 129.982 76.652C131.193 78.6687 132.309 80.7427 133.436 82.8063L134.372 84.5208C134.521 84.7944 134.675 85.0627 134.818 85.3363C134.873 85.4458 134.847 85.4874 134.915 85.5969C134.983 85.7063 134.936 85.6255 134.915 85.5969C134.894 85.5682 135.032 85.391 134.894 85.5708H136.391C135.895 84.8756 135.441 84.1517 135.03 83.403C134.821 83.0174 134.646 82.564 134.247 82.3243C134.027 82.1877 133.767 82.1283 133.509 82.1557C133.251 82.1831 133.01 82.2956 132.823 82.4754C132.205 83.0929 132.523 83.9528 132.755 84.6537C132.872 84.9928 132.96 85.3415 133.016 85.6959C133.04 85.8688 133.04 86.0441 133.016 86.217C133.029 86.1284 132.961 86.389 132.964 86.3812C132.946 86.4429 132.918 86.5011 132.88 86.5531L134.242 86.3785C132.617 84.7605 131.464 82.7751 130.42 80.7505C129.228 78.442 128.091 76.1074 126.933 73.7833C126.875 73.6851 126.799 73.5991 126.709 73.5303C126.618 73.4615 126.515 73.4113 126.405 73.3823C126.294 73.3534 126.18 73.3465 126.067 73.3618C125.954 73.3772 125.845 73.4146 125.747 73.4719C125.649 73.5292 125.563 73.6053 125.494 73.6959C125.425 73.7864 125.375 73.8896 125.346 73.9996C125.317 74.1095 125.31 74.2241 125.325 74.3368C125.341 74.4494 125.378 74.5579 125.435 74.6562L125.469 74.6327Z" fill="#1F307C"/>
<path d="M89.6538 76.5811C88.2331 78.2771 87.0081 80.1274 86.0019 82.0971C85.3236 83.366 84.7158 84.7417 84.768 86.18C85.1071 86.2373 85.3471 85.8751 85.5062 85.5703C86.2693 84.1018 87.2938 82.7845 88.5295 81.6828C88.6887 81.5421 88.9104 81.3962 89.1008 81.4952C89.1724 81.55 89.2274 81.6236 89.2596 81.7078C89.2919 81.792 89.3001 81.8835 89.2834 81.972C89.2417 82.6599 88.8321 83.2618 88.5008 83.8689C88.1696 84.476 87.927 85.2133 88.2087 85.8413C88.2556 85.9455 88.3443 86.0549 88.4565 86.0419C88.5687 86.0289 88.6026 85.9481 88.6495 85.8725L90.7807 82.4853C92.085 80.4191 93.3893 78.3164 94.1014 75.9897C94.2005 75.6614 94.2527 75.2262 93.9579 75.0543C93.8446 74.9984 93.7191 74.9715 93.5927 74.9761C92.085 74.9084 90.3007 75.2367 89.6486 76.5942" fill="#1F307C"/>
<path d="M89.0513 75.9692C87.8352 77.408 86.7591 78.9593 85.8375 80.6019C84.8672 82.3137 83.8524 84.1532 83.8994 86.1804C83.9053 86.4086 83.9987 86.6259 84.1604 86.7873C84.322 86.9488 84.5395 87.0421 84.768 87.048C85.3993 87.0897 85.8949 86.6363 86.1923 86.123C86.4532 85.6697 86.6931 85.2111 86.9749 84.7734C87.5367 83.9336 88.197 83.1638 88.9417 82.4805L89.0513 82.3815C89.0956 82.3398 89.1086 82.2903 89.106 82.3268C89.106 82.2903 88.2922 82.0349 88.4069 81.9073C88.3939 81.9229 88.3913 82.0766 88.3783 82.1261C88.3498 82.2472 88.3114 82.3657 88.2635 82.4805C88.0705 82.9391 87.76 83.3768 87.5566 83.8432C87.2712 84.4273 87.1694 85.084 87.2644 85.727C87.3922 86.4253 87.9452 87.0923 88.7226 86.8735C89.3538 86.6963 89.6904 85.8495 90.0269 85.3362L91.0233 83.7442C91.6337 82.7697 92.2546 81.7978 92.8337 80.8025C93.4235 79.8083 93.9463 78.7759 94.3988 77.7123C94.7718 76.8264 95.5257 75.3413 94.6596 74.5127C94.1979 74.0671 93.5301 74.0828 92.9302 74.1062C92.4019 74.1225 91.8771 74.1968 91.365 74.3277C90.3477 74.5883 89.3878 75.1927 88.9026 76.1516C88.7914 76.3511 88.7616 76.5857 88.8195 76.8066C88.8773 77.0275 89.0183 77.2175 89.213 77.3371C89.4121 77.4508 89.6479 77.4821 89.8698 77.4241C90.0917 77.3661 90.282 77.2236 90.3999 77.0271C90.4429 76.9371 90.4917 76.8501 90.546 76.7665C90.546 76.7483 90.6607 76.6102 90.6007 76.6857C90.5407 76.7613 90.6373 76.6492 90.6399 76.6466C90.7103 76.5789 90.7755 76.5085 90.8459 76.446C90.9164 76.3835 90.7546 76.5085 90.8668 76.4278C90.9242 76.3861 90.9816 76.3496 91.0416 76.3131C91.1016 76.2767 91.2137 76.2167 91.3024 76.1724L91.4198 76.1177C91.3807 76.1333 91.292 76.162 91.4537 76.1177C91.6619 76.0444 91.8745 75.9843 92.0902 75.9379C92.1919 75.9171 92.2937 75.8962 92.398 75.8806C92.2598 75.9041 92.5337 75.8676 92.5728 75.865C92.7945 75.8441 93.0215 75.8363 93.2458 75.8363H93.5536C93.6684 75.8363 93.718 75.9093 93.6084 75.8207C93.4988 75.7321 93.4258 75.7451 93.3658 75.6461C93.342 75.6005 93.3261 75.5511 93.3188 75.5002C93.3188 75.5236 93.3188 75.6774 93.3188 75.5184C93.2975 75.6373 93.2661 75.7541 93.2249 75.8676C92.5441 78.0328 91.3181 79.9818 90.1208 81.8942L89.0069 83.6843L88.4565 84.5597L88.1487 85.0548L88.0444 85.2189C88.0444 85.2346 87.8487 85.4795 87.927 85.4013L88.3104 85.1772L88.2322 85.2085H88.6913C88.973 85.5759 89.0695 85.6436 88.9782 85.4117C88.9521 85.3023 88.9443 85.2736 88.96 85.331C88.9478 85.2445 88.9478 85.1568 88.96 85.0704C88.9995 84.8528 89.0707 84.6421 89.1713 84.4451C89.4321 83.924 89.7347 83.4602 89.9382 82.9234C90.1416 82.3867 90.2616 81.7379 89.9825 81.2168C89.8998 81.0698 89.7874 80.9416 89.6524 80.8403C89.5174 80.7391 89.3627 80.6671 89.1983 80.6288C89.0339 80.5906 88.8633 80.587 88.6974 80.6182C88.5315 80.6495 88.374 80.7149 88.2348 80.8103C87.7906 81.1226 87.389 81.4914 87.0401 81.9073C86.6644 82.3107 86.31 82.7333 85.9784 83.1736C85.6668 83.5835 85.3785 84.0106 85.115 84.4529C84.9845 84.6718 84.8541 84.8984 84.7393 85.1251C84.7237 85.1564 84.588 85.4195 84.6324 85.3257C84.5567 85.3987 84.5515 85.4091 84.6324 85.3596C84.8724 85.3284 84.9167 85.3101 84.7628 85.3075L85.6288 86.1726C85.5871 84.4294 86.5471 82.84 87.3844 81.3705C88.2138 79.8885 89.1805 78.4875 90.2721 77.186C90.4293 77.0208 90.517 76.8016 90.517 76.5737C90.517 76.3458 90.4293 76.1265 90.2721 75.9614C90.1083 75.8013 89.8882 75.7116 89.659 75.7116C89.4299 75.7116 89.2098 75.8013 89.046 75.9614L89.0513 75.9692Z" fill="#1F307C"/>
<path d="M98.7365 76.3492C97.7696 79.0486 96.9001 81.7792 96.128 84.5411C96.0784 84.7156 96.0862 84.9814 96.2688 84.9944C96.3966 84.9944 96.4775 84.8616 96.5297 84.7339C97.6566 82.058 99.3521 79.6661 101.032 77.2976C101.222 77.0371 101.418 76.6853 101.256 76.4013C101.095 76.1173 100.651 76.1121 100.309 76.1668C99.8086 76.2424 99.24 76.2632 98.7443 76.3388" fill="#1F307C"/>
<path d="M97.9023 76.1281C97.318 77.7574 96.7693 79.3963 96.2563 81.0447C95.9937 81.8889 95.7407 82.7375 95.4972 83.5904C95.3551 83.9678 95.2672 84.3634 95.2363 84.7655C95.2298 85.0274 95.3197 85.2827 95.4889 85.4829C95.6581 85.6832 95.8949 85.8145 96.1546 85.852C97.198 85.9719 97.4588 84.7186 97.824 83.9968C98.1892 83.2751 98.5857 82.5586 99.0083 81.8629C99.8587 80.4663 100.808 79.1375 101.747 77.8008C101.911 77.6026 102.031 77.3725 102.1 77.1253C102.169 76.8781 102.186 76.6192 102.149 76.3652C102.092 76.1216 101.969 75.8983 101.794 75.7196C101.619 75.5409 101.398 75.4136 101.155 75.3516C100.767 75.2773 100.367 75.2773 99.9787 75.3516C99.4883 75.4063 98.9979 75.4428 98.5101 75.5132C98.0223 75.5835 97.7927 76.1671 97.9049 76.5788C98.0405 77.0765 98.5049 77.2511 98.9718 77.1833C99.4387 77.1156 99.9552 77.0869 100.43 77.0244C100.691 76.9905 100.354 77.0087 100.558 77.0244C100.613 77.0204 100.669 77.0204 100.725 77.0244C100.643 77.0087 100.633 77.0087 100.693 77.0244C100.754 77.04 100.744 77.0348 100.662 77.0087C100.583 76.9653 100.521 76.8969 100.486 76.8143C100.451 76.7317 100.444 76.6397 100.466 76.5528C100.487 76.5528 100.391 76.7195 100.396 76.7143C99.8743 77.5689 99.2352 78.3584 98.677 79.1844C98.1188 80.0103 97.5606 80.8806 97.0571 81.7613C96.7963 82.2094 96.5563 82.6628 96.3267 83.1266C96.2224 83.3402 96.118 83.5539 96.0189 83.7702C95.9693 83.8796 95.9224 83.989 95.8754 84.0985C95.8285 84.2079 95.8102 84.2444 95.7815 84.3173C95.6841 84.491 95.7711 84.4415 96.0424 84.1688H96.5015L96.4415 84.1532L96.8249 84.3746L96.9736 84.7681V84.6951C96.9606 84.802 96.9736 84.8124 96.9736 84.7212C96.9736 84.6821 96.9971 84.6404 97.0075 84.5987L97.1641 84.0516C97.2606 83.7076 97.3623 83.3637 97.464 83.0093C97.6814 82.2815 97.904 81.5563 98.1318 80.8337C98.584 79.4076 99.0631 77.9902 99.5691 76.5814C99.5995 76.4718 99.6078 76.3572 99.5938 76.2443C99.5798 76.1314 99.5437 76.0224 99.4875 75.9234C99.4313 75.8244 99.3561 75.7375 99.2663 75.6676C99.1765 75.5976 99.0737 75.546 98.964 75.5158C98.8542 75.4855 98.7395 75.4771 98.6264 75.4911C98.5134 75.5051 98.4042 75.5412 98.3052 75.5973C98.2061 75.6534 98.1191 75.7285 98.049 75.8182C97.979 75.9079 97.9274 76.0106 97.8971 76.1202L97.9023 76.1281Z" fill="#1F307C"/>
<path d="M125.19 108.844C127.033 108.844 128.526 107.352 128.526 105.511C128.526 103.671 127.033 102.179 125.19 102.179C123.347 102.179 121.854 103.671 121.854 105.511C121.854 107.352 123.347 108.844 125.19 108.844Z" fill="#110002"/>
<path d="M123.241 104.529C122.652 104.65 122.039 104.558 121.512 104.268C121.214 104.114 120.942 103.915 120.706 103.677" stroke="#110002" stroke-width="1.72361" stroke-miterlimit="10" stroke-linecap="round"/>
<path d="M75.9563 154.519H79.2301V229.658H60.8424V169.615C60.8424 165.611 62.4348 161.771 65.2692 158.94C68.1036 156.109 71.9479 154.519 75.9563 154.519Z" fill="#E28281" stroke="#110002" stroke-width="2.75778" stroke-miterlimit="10"/>
<path d="M160.322 229.658H142.566V154.415H145.461C149.405 154.415 153.187 155.98 155.975 158.765C158.763 161.55 160.33 165.328 160.33 169.267V229.658H160.322Z" fill="#E28281" stroke="#110002" stroke-width="2.75778" stroke-miterlimit="10"/>
<path d="M111.081 221.844C121.922 221.844 130.71 213.065 130.71 202.237C130.71 191.408 121.922 182.63 111.081 182.63C100.24 182.63 91.4515 191.408 91.4515 202.237C91.4515 213.065 100.24 221.844 111.081 221.844Z" fill="#FFEADF" stroke="#110002" stroke-width="6.10849" stroke-miterlimit="10"/>
<path d="M42.7887 169.323H178.42C180.496 169.323 182.486 170.147 183.954 171.613C185.421 173.079 186.246 175.067 186.246 177.14V232.542H34.9709V177.132C34.973 175.062 35.7973 173.077 37.263 171.613C38.7287 170.149 40.7159 169.325 42.7887 169.323Z" fill="#CCCCCC" stroke="#110002" stroke-width="2.75778" stroke-miterlimit="10"/>
<path d="M110.251 207.815C110.799 208.511 111.401 209.183 112.035 209.845C112.998 210.858 114.039 211.846 115.022 212.815C115.306 213.102 115.588 213.381 115.87 213.657C115.87 213.657 115.883 213.657 115.883 213.678C116.768 214.553 117.592 215.488 118.348 216.476C119.162 217.594 119.723 218.717 119.856 219.842C119.963 218.891 119.992 217.932 119.944 216.976C119.924 216.31 119.867 215.646 119.775 214.986C119.736 214.725 119.694 214.465 119.652 214.204C119.543 213.589 119.401 212.98 119.224 212.38C118.865 211.141 118.326 209.96 117.625 208.876C117.264 208.321 116.855 207.798 116.404 207.312C111.858 202.502 108.597 201.405 108.511 198.558C108.511 198.558 107.079 202.789 109.539 206.817C109.754 207.165 109.992 207.498 110.251 207.815Z" fill="white"/>
<path d="M122.126 212.978C122.071 213.514 122.006 214.02 121.931 214.468C121.37 217.886 120.131 219.377 118.889 220.484C118.594 218.423 117.671 215.958 115.597 213.142C114.955 212.279 114.266 211.452 113.534 210.664C113.448 210.565 113.348 210.466 113.26 210.367C112.738 209.82 112.175 209.262 111.559 208.691C110.803 207.978 110.012 207.266 109.266 206.521C108.329 205.617 107.494 204.613 106.775 203.527C105.293 201.224 104.581 198.418 105.7 194.562C105.7 194.562 101.772 199.843 105.382 207.506C105.395 207.529 105.41 207.55 105.426 207.571L105.369 207.516C104.185 206.003 102.22 204.259 100.739 203.647C102.429 207.373 100.762 210.794 99.5884 212.712C98.3275 214.767 97.662 217.131 97.6659 219.541C97.6684 220.194 97.7164 220.846 97.8094 221.493C97.885 221.951 97.9737 222.402 98.0937 222.85C98.2986 223.646 98.5781 224.42 98.9284 225.164C99.1568 225.633 99.4093 226.091 99.6849 226.534L99.8493 226.795C101.427 229.171 103.733 230.972 106.423 231.928C107.444 232.289 108.506 232.521 109.584 232.618C109.993 232.659 110.403 232.677 110.813 232.673C111.504 232.672 112.193 232.621 112.876 232.519C111.069 231.726 109.483 230.503 108.257 228.957C110.077 230.234 112.271 230.871 114.493 230.768C116.715 230.665 118.84 229.829 120.535 228.389L120.59 228.335C119.002 229.245 117.185 229.679 115.357 229.583C112.942 229.46 110.662 228.436 108.968 226.712C107.275 224.989 106.292 222.692 106.214 220.278C106.181 219.24 106.318 218.203 106.621 217.209L106.491 217.131L105.94 216.816C105.898 216.792 105.863 216.758 105.837 216.717C105.812 216.676 105.798 216.629 105.796 216.58C105.794 216.532 105.804 216.484 105.825 216.441C105.847 216.398 105.879 216.361 105.919 216.334L107.323 215.424L110.012 213.689C110.057 213.661 110.108 213.646 110.161 213.646C110.214 213.645 110.265 213.659 110.311 213.686C110.356 213.713 110.393 213.752 110.418 213.798C110.442 213.845 110.454 213.897 110.45 213.949L110.21 218.798C110.208 218.847 110.193 218.894 110.166 218.935C110.14 218.976 110.104 219.01 110.061 219.033C110.018 219.056 109.97 219.068 109.921 219.067C109.872 219.066 109.825 219.052 109.783 219.028L109.078 218.632C108.583 220.521 108.842 222.528 109.8 224.23C110.759 225.932 112.342 227.195 114.215 227.753C116.089 228.311 118.106 228.12 119.841 227.22C121.576 226.32 122.893 224.782 123.514 222.931C124.067 221.277 124.229 219.518 123.987 217.791C123.745 216.064 123.107 214.417 122.121 212.978H122.126Z" fill="white"/>
<path d="M212.668 12.584H12.2165V232.712H212.668V12.584Z" stroke="#110002" stroke-width="2.75778" stroke-miterlimit="10"/>
</svg>
