<svg width="276" height="454" viewBox="0 0 276 454" fill="none" xmlns="http://www.w3.org/2000/svg">
<path d="M83.1744 331.315C136.8 315.048 177.608 280.97 174.32 255.201C171.033 229.431 124.895 221.729 71.2693 237.996C17.6433 254.264 -23.164 288.341 -19.8765 314.111C-16.589 339.88 29.5485 347.583 83.1744 331.315Z" fill="#ED6E30" stroke="#110002" stroke-width="4" stroke-linejoin="round"/>
<path d="M7.24341 390.93L-25.9512 356.078L-11.9893 340.797L8.95355 362.785C12.2029 366.197 13.8482 371.078 13.5275 376.357C13.2068 381.635 10.9463 386.877 7.24341 390.93V390.93Z" fill="#110002" stroke="#110002" stroke-width="4" stroke-linejoin="round"/>
<path d="M67.5509 172.848C80.8905 186.853 87.6449 206.895 86.3283 228.563C85.0117 250.231 75.7318 271.752 60.5302 288.39L-13.1451 369.029L-113.739 263.414L-40.0638 182.776C-24.8622 166.137 -4.98407 155.744 15.1976 153.882C35.3793 152.02 54.2113 158.842 67.5509 172.848V172.848Z" fill="#ED6E30" stroke="#110002" stroke-width="4" stroke-linejoin="round"/>
<path d="M104.313 29.0463L56.2665 79.9025L116.606 98.8452L114.822 32.3438C114.787 31.0716 114.414 29.8903 113.746 28.9358C113.077 27.9812 112.141 27.2921 111.043 26.9477C109.945 26.6033 108.731 26.6175 107.541 26.9887C106.35 27.3599 105.231 28.0731 104.313 29.0463V29.0463Z" fill="#110002" stroke="#110002" stroke-width="4" stroke-linejoin="round"/>
<path d="M98.1939 49.8392L50.3155 99.0403L108.898 117.438L106.069 52.3088C106.028 51.3654 105.74 50.4928 105.236 49.7884C104.732 49.0839 104.033 48.5753 103.216 48.3192C102.399 48.0631 101.497 48.0696 100.611 48.338C99.7238 48.6064 98.8871 49.1261 98.1939 49.8392V49.8392Z" fill="#FFE3D4" stroke="#110002" stroke-width="4" stroke-miterlimit="10"/>
<path d="M33.227 206.923L35.5228 209.333C43.7161 217.936 47.8656 230.245 47.0589 243.553C46.2521 256.862 40.5552 270.081 31.2208 280.303L-31.7898 349.269L-95.8791 281.981L-32.8684 213.015C-23.5296 202.794 -11.3178 196.409 1.08049 195.265C13.4788 194.121 25.0479 198.312 33.2429 206.916L33.227 206.923Z" fill="#FFE3D4" stroke="#110002" stroke-width="4" stroke-miterlimit="10"/>
<path d="M48.7367 192.82C78.2795 223.838 121.39 228.01 145.026 202.139C168.663 176.269 163.875 130.152 134.332 99.1351C104.789 68.1178 61.6789 63.9455 38.0424 89.816C14.4059 115.686 19.1939 161.803 48.7367 192.82Z" fill="#FFE3D4" stroke="#110002" stroke-width="4" stroke-miterlimit="10"/>
<path d="M199.463 127.457L154.908 181.789L133.245 118.888L195.692 116.505C196.886 116.46 198.017 116.78 198.954 117.428C199.892 118.076 200.598 119.027 200.992 120.171C201.386 121.314 201.451 122.605 201.181 123.894C200.911 125.183 200.315 126.418 199.463 127.457V127.457Z" fill="#110002" stroke="#110002" stroke-width="4" stroke-linejoin="round"/>
<path d="M180.891 136.472L142.163 186.114L122.4 128.753L178.081 128.302C178.958 128.297 179.782 128.554 180.464 129.044C181.146 129.534 181.661 130.239 181.95 131.082C182.24 131.924 182.295 132.873 182.108 133.823C181.921 134.774 181.5 135.69 180.891 136.472Z" fill="#FFE3D4" stroke="#110002" stroke-width="4" stroke-miterlimit="10"/>
<path d="M145.697 201.365C168.563 175.354 163.583 129.837 134.336 99.1308C105.089 68.4242 62.534 64.0333 38.7512 89.0692C38.6852 89.1415 38.6246 89.2078 38.5585 89.2801L38.9499 89.691L65.1216 174.897L145.129 201.169L145.52 201.58C145.576 201.509 145.631 201.437 145.697 201.365Z" fill="#ED6E30" stroke="#110002" stroke-width="4" stroke-linejoin="round"/>
<path d="M63.9609 176.157C68.1691 180.575 73.6685 181.871 76.2442 179.052C78.8199 176.233 77.4965 170.366 73.2883 165.948C69.0801 161.529 63.5807 160.233 61.005 163.052C58.4293 165.871 59.7527 171.738 63.9609 176.157Z" fill="#110002" stroke="#110002" stroke-width="4" stroke-linejoin="round"/>
<path d="M65.7244 124.852C68.3241 127.581 72.8331 127.166 75.7957 123.923C78.7582 120.68 79.0524 115.839 76.4527 113.11C73.8531 110.38 69.344 110.796 66.3814 114.039C63.4189 117.281 63.1247 122.123 65.7244 124.852Z" fill="#110002" stroke="#110002" stroke-width="4" stroke-linejoin="round"/>
<path d="M111.248 172.647C113.848 175.376 118.357 174.96 121.319 171.718C124.282 168.475 124.576 163.634 121.976 160.905C119.377 158.175 114.868 158.591 111.905 161.834C108.943 165.076 108.648 169.918 111.248 172.647Z" fill="#110002" stroke="#110002" stroke-width="4" stroke-linejoin="round"/>
<path d="M-7.90213 195.298C-6.52691 196.742 -5.47383 198.509 -4.80303 200.499C-4.13222 202.49 -3.85683 204.664 -3.99256 206.898C-4.1283 209.132 -4.67251 211.381 -5.59412 213.519C-6.51573 215.656 -7.7967 217.639 -9.36388 219.354L-93.5622 311.51L-114.482 289.546L-30.284 197.39C-27.1237 193.931 -22.9924 191.768 -18.7965 191.376C-14.6006 190.984 -10.6826 192.394 -7.90213 195.298V195.298Z" fill="#110002" stroke="#110002" stroke-width="4" stroke-linejoin="round"/>
<path d="M49.1772 255.225C50.5524 256.669 51.6055 258.436 52.2763 260.427C52.9471 262.417 53.2225 264.591 53.0868 266.825C52.951 269.059 52.4068 271.309 51.4852 273.446C50.5636 275.583 49.2826 277.566 47.7155 279.281L-36.4829 371.437L-57.4272 349.448L26.7712 257.292C29.9363 253.828 34.075 251.664 38.2769 251.276C42.4789 250.889 46.3998 252.309 49.1772 255.225V255.225Z" fill="#110002" stroke="#110002" stroke-width="4" stroke-linejoin="round"/>
<path d="M174.841 255.229C172.844 239.61 155.072 230.635 129.418 229.623C125.974 233.065 123.685 237.599 123.012 242.314C122.673 244.901 122.856 247.451 123.55 249.788C119.106 253.554 116.004 258.648 115.258 264.242C114.303 271.506 117.526 277.854 123.216 281.513C122.131 283.647 121.414 285.927 121.106 288.227C119.838 297.761 125.806 305.727 135.061 308.086C160.924 291.613 176.925 271.707 174.841 255.229Z" fill="#FFE3D4" stroke="#110002" stroke-width="4" stroke-miterlimit="10"/>
</svg>
