<svg width="243" height="420" viewBox="0 0 243 420" fill="none" xmlns="http://www.w3.org/2000/svg">
<path d="M44.8271 253.736L172.406 289.895L141.979 397.25L35.6734 367.121C30.0315 365.521 25.2558 361.747 22.397 356.626C19.5382 351.506 18.8305 345.46 20.4296 339.818L44.8271 253.736Z" fill="#F43518" stroke="#110002" stroke-width="4" stroke-linecap="round" stroke-linejoin="round"/>
<path d="M135.416 23.6557L139.413 24.139C137.302 22.5246 132.945 22.9553 135.416 23.6557Z" fill="#F43518" stroke="#110002" stroke-width="4" stroke-linecap="round" stroke-linejoin="round"/>
<path d="M179.032 70.494L185.181 48.7999C185.218 48.6675 185.211 48.5267 185.161 48.3986C185.111 48.2705 185.021 48.162 184.904 48.0894L147.52 25.1731C147.442 25.1273 147.353 25.1022 147.263 25.1003L140.893 24.3169C140.785 24.3038 140.675 24.319 140.574 24.3612C140.473 24.4034 140.385 24.4711 140.319 24.5575C140.252 24.644 140.209 24.7463 140.193 24.8545C140.178 24.9626 140.191 25.0729 140.231 25.1746C140.338 25.4252 140.4 25.6927 140.415 25.9649C140.41 26.1232 140.347 26.2741 140.237 26.3882C140.127 26.5024 139.979 26.5715 139.821 26.582C139.663 26.5926 139.507 26.5439 139.383 26.4454C139.259 26.347 139.176 26.2058 139.15 26.0495C139.139 25.9497 139.104 25.8541 139.048 25.7707C138.992 25.6872 138.917 25.6183 138.829 25.5697C138.741 25.5211 138.643 25.4942 138.542 25.4912C138.442 25.4883 138.342 25.5093 138.251 25.5526L117.676 35.7983C112.359 34.5099 118.467 37.1743 112.85 45.2807L116.374 53.0188C119.379 53.8722 121.934 55.8627 123.496 58.5681C125.058 61.2735 125.505 64.481 124.741 67.5103C124.735 67.5438 124.725 67.5767 124.713 67.6087L74.8914 191.297C74.8582 191.379 74.8427 191.467 74.8457 191.555C74.8488 191.644 74.8704 191.73 74.9091 191.81C74.9478 191.889 75.0029 191.96 75.0706 192.017C75.1383 192.074 75.2172 192.116 75.3022 192.14L201.629 227.944C201.78 227.986 201.941 227.971 202.081 227.902C202.222 227.833 202.332 227.714 202.391 227.569L256.315 93.762C256.348 93.6801 256.364 93.592 256.361 93.5037C256.358 93.4153 256.336 93.3286 256.297 93.2491C256.259 93.1696 256.204 93.0991 256.136 93.0423C256.068 92.9854 255.989 92.9435 255.904 92.9191L179.472 71.2565C179.314 71.2117 179.179 71.107 179.097 70.9646C179.015 70.8222 178.992 70.6533 179.032 70.494Z" fill="#F43518" stroke="#110002" stroke-width="4" stroke-linecap="round" stroke-linejoin="round"/>
<path d="M264.984 46.4618L233.744 37.6077L220.883 82.986L242.807 89.1996C244.555 89.6943 246.18 90.5515 247.575 91.7154C248.97 92.8793 250.105 94.3239 250.905 95.9551C251.705 97.5864 252.153 99.3679 252.219 101.184C252.285 102.999 251.968 104.809 251.289 106.494L202.304 228.104L202.184 228.07L165.782 258.413L158.018 285.809L168.898 288.893C169.828 289.157 170.616 289.78 171.088 290.624C171.56 291.469 171.677 292.467 171.413 293.398L141.979 397.248L211.785 417.033C213.456 417.506 215.246 417.297 216.762 416.45C218.278 415.604 219.395 414.19 219.869 412.52L308.389 100.191C309.693 95.5913 309.661 90.7154 308.299 86.1325C306.936 81.5496 304.298 77.4485 300.693 74.3078L274.918 51.8407C272.045 49.3355 268.652 47.4985 264.984 46.4618Z" fill="#1F307C" stroke="#110002" stroke-width="4" stroke-linecap="round" stroke-linejoin="round"/>
<path d="M165.781 258.419L38.2021 222.26L30.4374 249.657L158.016 285.816L165.781 258.419Z" fill="#1F307C" stroke="#110002" stroke-width="4" stroke-linecap="round" stroke-linejoin="round"/>
<path d="M202.182 228.076L74.6035 191.917L38.2021 222.26L165.781 258.419L202.182 228.076Z" fill="#F43518" stroke="#110002" stroke-width="4" stroke-linecap="round" stroke-linejoin="round"/>
<path d="M92.2198 217.5C91.1351 221.327 85.8114 221.229 79.6936 219.496C73.5757 217.762 68.9911 215.056 70.0774 211.224C71.1636 207.391 77.51 203.88 83.6278 205.614C89.7457 207.348 93.3076 213.662 92.2198 217.5Z" fill="#1F307C" stroke="#110002" stroke-width="4" stroke-linecap="round" stroke-linejoin="round"/>
<path d="M123.92 226.916C122.835 230.743 117.506 230.645 111.388 228.911C105.27 227.177 100.684 224.477 101.772 220.639C102.859 216.801 109.21 213.297 115.322 215.029C121.435 216.762 125.006 223.084 123.92 226.916Z" fill="#069154" stroke="#110002" stroke-width="4" stroke-linecap="round" stroke-linejoin="round"/>
<path d="M229.154 103.216L140.174 77.9967C138.147 77.4094 135.974 77.5952 134.076 78.5182C132.177 79.4412 130.689 81.0357 129.899 82.993L92.4387 175.089C91.9806 176.204 91.7642 177.404 91.8039 178.609C91.8436 179.813 92.1384 180.996 92.6689 182.079C93.1994 183.161 93.9535 184.119 94.8814 184.889C95.8093 185.658 96.8899 186.222 98.0518 186.544L187.004 211.755C189.024 212.333 191.187 212.145 193.077 211.227C194.967 210.308 196.452 208.724 197.245 206.778L234.734 114.684C235.195 113.571 235.414 112.372 235.378 111.167C235.342 109.962 235.05 108.779 234.523 107.695C233.996 106.611 233.244 105.652 232.319 104.88C231.394 104.107 230.315 103.54 229.154 103.216Z" fill="#A32316" stroke="#110002" stroke-width="4" stroke-linecap="round" stroke-linejoin="round"/>
<path d="M106.839 293.306L147.707 304.889L139.506 333.827C138.807 336.293 137.629 338.598 136.039 340.609C134.449 342.62 132.479 344.298 130.241 345.548C128.003 346.797 125.541 347.594 122.995 347.892C120.449 348.19 117.869 347.983 115.403 347.284L112.09 346.345C109.623 345.646 107.319 344.469 105.308 342.879C103.297 341.289 101.619 339.319 100.369 337.081C99.1195 334.843 98.3229 332.381 98.0249 329.835C97.7269 327.289 97.9333 324.709 98.6323 322.243L106.834 293.304L106.839 293.306Z" fill="#FEB20E" stroke="#110002" stroke-width="4" stroke-linecap="round" stroke-linejoin="round"/>
<path d="M147.8 297.521L110.836 287.045C107.366 286.062 103.757 288.077 102.773 291.546L102.511 292.47C101.528 295.94 103.543 299.549 107.013 300.533L143.977 311.009C147.446 311.992 151.056 309.977 152.039 306.508L152.301 305.584C153.285 302.114 151.269 298.505 147.8 297.521Z" fill="#1F307C" stroke="#110002" stroke-width="4" stroke-linecap="round" stroke-linejoin="round"/>
<path d="M116.573 326.737L121.816 328.223C123.169 328.607 124.432 329.253 125.535 330.124C126.638 330.996 127.559 332.077 128.244 333.304C128.93 334.532 129.367 335.882 129.53 337.279C129.693 338.675 129.58 340.09 129.197 341.443C129.083 341.843 128.816 342.182 128.452 342.385C128.089 342.587 127.66 342.638 127.26 342.524L104.434 336.055C104.034 335.941 103.695 335.674 103.493 335.31C103.29 334.947 103.24 334.518 103.353 334.118C103.736 332.766 104.383 331.502 105.254 330.399C106.126 329.296 107.207 328.375 108.434 327.69C109.662 327.004 111.012 326.568 112.409 326.404C113.805 326.241 115.22 326.354 116.573 326.737Z" fill="#A32316" stroke="#110002" stroke-width="4" stroke-linecap="round" stroke-linejoin="round"/>
<path d="M137.601 312.686L137.327 312.608C136.292 312.315 135.214 312.916 134.921 313.952L131.646 325.504C131.353 326.54 131.955 327.618 132.99 327.911L133.264 327.989C134.299 328.282 135.377 327.681 135.67 326.645L138.945 315.093C139.238 314.057 138.636 312.979 137.601 312.686Z" fill="#110002" stroke="#110002" stroke-width="4" stroke-linecap="round" stroke-linejoin="round"/>
<path d="M129.946 310.517L129.673 310.439C128.637 310.146 127.56 310.748 127.266 311.783L123.992 323.336C123.699 324.371 124.3 325.449 125.336 325.742L125.609 325.82C126.645 326.113 127.723 325.512 128.016 324.476L131.29 312.924C131.584 311.888 130.982 310.81 129.946 310.517Z" fill="#110002" stroke="#110002" stroke-width="4" stroke-linecap="round" stroke-linejoin="round"/>
<path d="M229.248 103.278L145.659 79.5866C122.699 114.123 108.142 156.67 113.097 190.849L187.102 211.824C189.126 212.397 191.291 212.201 193.179 211.274C195.068 210.347 196.547 208.754 197.331 206.803L234.813 114.713C235.269 113.602 235.485 112.407 235.446 111.207C235.408 110.007 235.116 108.829 234.591 107.749C234.066 106.67 233.318 105.713 232.397 104.943C231.476 104.172 230.403 103.605 229.248 103.278Z" fill="#110002" stroke="#110002" stroke-width="4" stroke-linecap="round" stroke-linejoin="round"/>
<path d="M179.884 89.2873L112.109 170.559C111.7 177.31 111.966 184.085 112.903 190.783L194.168 93.3238L179.884 89.2873Z" fill="#363636" stroke="#110002" stroke-width="3" stroke-miterlimit="10"/>
<path d="M122.66 193.578L164.315 205.384L229.75 126.91L234.708 114.731C235.166 113.615 235.383 112.416 235.343 111.211C235.303 110.006 235.008 108.823 234.478 107.741C233.947 106.658 233.193 105.7 232.265 104.931C231.338 104.161 230.257 103.597 229.095 103.276L203.891 96.1325L122.66 193.578Z" fill="#363636" stroke="#110002" stroke-width="3" stroke-miterlimit="10"/>
<path d="M229.224 103.324L145.635 79.6328C122.673 114.175 108.119 156.711 113.074 190.89L187.074 211.863C189.098 212.44 191.264 212.249 193.155 211.325C195.046 210.4 196.528 208.809 197.316 206.857L234.804 114.769C235.261 113.657 235.477 112.46 235.439 111.258C235.4 110.056 235.108 108.876 234.581 107.795C234.054 106.714 233.304 105.756 232.381 104.986C231.457 104.215 230.381 103.649 229.224 103.324Z" stroke="#110002" stroke-width="4" stroke-linecap="round" stroke-linejoin="round"/>
<path d="M154.331 233.485L161.354 208.707C161.637 207.707 160.773 206.588 159.466 206.218C158.143 205.843 156.837 206.346 156.553 207.347L149.517 232.174C149.264 233.065 148.194 233.571 146.976 233.385C143.028 232.727 140.08 232.919 139.768 234.018C139.342 235.521 143.952 238.157 150.07 239.891C156.188 241.625 161.485 241.815 161.916 240.295C162.234 239.174 159.731 237.419 155.889 235.888C154.705 235.416 154.074 234.393 154.331 233.485Z" fill="#A32316" stroke="#110002" stroke-width="4" stroke-linecap="round" stroke-linejoin="round"/>
<path d="M156.329 217.892C162.809 219.729 169.551 215.965 171.387 209.485C173.224 203.005 169.46 196.263 162.98 194.427C156.5 192.59 149.758 196.354 147.922 202.834C146.085 209.314 149.849 216.056 156.329 217.892Z" fill="#FEB20E" stroke="#110002" stroke-width="4" stroke-linecap="round" stroke-linejoin="round"/>
<path d="M233.221 365.45L238.186 347.933L217.58 342.093L229.169 330.588L165.962 312.674L160.997 330.191L198.557 340.836L187.909 352.608L233.221 365.45Z" fill="#FEB20E" stroke="#110002" stroke-width="4" stroke-linecap="round" stroke-linejoin="round"/>
<path d="M221.545 406.854L226.509 389.337L205.898 383.495L217.492 371.991L154.285 354.077L149.32 371.594L186.881 382.239L176.232 394.011L221.545 406.854Z" fill="#FEB20E" stroke="#110002" stroke-width="4" stroke-linecap="round" stroke-linejoin="round"/>
<path d="M264.9 46.4447L226.308 35.4597L211.997 55.0292L212.677 80.6788L242.714 89.192C244.462 89.6874 246.086 90.5451 247.481 91.7091C248.875 92.8732 250.01 94.3177 250.81 95.9487C251.61 97.5798 252.057 99.3609 252.124 101.176C252.191 102.992 251.875 104.801 251.197 106.486L202.213 228.091L202.093 228.057L165.691 258.4L157.927 285.796L168.806 288.88C169.737 289.144 170.525 289.767 170.997 290.611C171.469 291.456 171.585 292.454 171.322 293.385L141.88 397.263L211.686 417.047C213.357 417.521 215.147 417.311 216.663 416.465C218.179 415.618 219.296 414.204 219.77 412.534L308.298 100.178C309.602 95.5775 309.571 90.7008 308.209 86.1169C306.846 81.5331 304.209 77.431 300.604 74.2892L274.823 51.8205C271.952 49.3189 268.564 47.4831 264.9 46.4447V46.4447Z" stroke="#110002" stroke-width="4" stroke-linecap="round" stroke-linejoin="round"/>
<path d="M228.949 36.2491L120.921 5.63167C115.522 4.10152 109.905 7.23771 108.375 12.6365L101.053 38.4694C99.5232 43.8682 102.659 49.4853 108.058 51.0154L216.086 81.6328C221.485 83.163 227.102 80.0268 228.632 74.6279L235.953 48.7951C237.484 43.3963 234.347 37.7792 228.949 36.2491Z" fill="#1F307C" stroke="#110002" stroke-width="4" stroke-linecap="round" stroke-linejoin="round"/>
<path d="M227.56 45.4238L117.23 14.1541L109.413 41.7364L219.742 73.0062L227.56 45.4238Z" fill="#FEB20E" stroke="#110002" stroke-width="4" stroke-linecap="round" stroke-linejoin="round"/>
</svg>
