<svg width="104" height="156" viewBox="0 0 104 156" fill="none" xmlns="http://www.w3.org/2000/svg">
<path d="M37.1626 91.7891L75.5406 102.666L66.3877 134.961L34.409 125.897C32.7118 125.416 31.2752 124.281 30.4152 122.74C29.5552 121.2 29.3423 119.381 29.8234 117.684L37.1626 91.7891Z" fill="#F43518" stroke="#110002" stroke-width="1.20327" stroke-linecap="round" stroke-linejoin="round"/>
<path d="M64.4137 22.5778L65.6162 22.7232C64.981 22.2375 63.6703 22.3671 64.4137 22.5778Z" fill="#F43518" stroke="#110002" stroke-width="1.20327" stroke-linecap="round" stroke-linejoin="round"/>
<path d="M77.5341 36.6657L79.3837 30.1397C79.3947 30.0998 79.3926 30.0575 79.3776 30.019C79.3625 29.9804 79.3354 29.9478 79.3003 29.926L68.0545 23.0323C68.0311 23.0185 68.0045 23.011 67.9773 23.0104L66.0612 22.7747C66.0285 22.7708 65.9955 22.7754 65.9651 22.7881C65.9348 22.8008 65.9083 22.8211 65.8882 22.8471C65.8681 22.8731 65.8552 22.9039 65.8505 22.9365C65.8459 22.969 65.8498 23.0022 65.8619 23.0327C65.8941 23.1081 65.9128 23.1886 65.9171 23.2705C65.9158 23.3181 65.8967 23.3635 65.8637 23.3978C65.8307 23.4322 65.786 23.453 65.7385 23.4561C65.691 23.4593 65.644 23.4447 65.6067 23.415C65.5694 23.3854 65.5445 23.343 65.5368 23.296C65.5333 23.2659 65.5227 23.2372 65.5059 23.2121C65.4891 23.187 65.4665 23.1662 65.4401 23.1516C65.4136 23.137 65.3841 23.1289 65.3539 23.128C65.3237 23.1271 65.2937 23.1334 65.2664 23.1465L59.0768 26.2286C57.4774 25.841 59.3148 26.6425 57.6252 29.0811L58.6853 31.4088C59.5893 31.6655 60.3578 32.2643 60.8277 33.0782C61.2976 33.892 61.432 34.8569 61.2023 35.7681C61.2004 35.7782 61.1976 35.7881 61.194 35.7977L46.2065 73.0055C46.1966 73.0301 46.1919 73.0566 46.1928 73.0832C46.1937 73.1098 46.2002 73.1359 46.2119 73.1598C46.2235 73.1837 46.2401 73.2049 46.2604 73.222C46.2808 73.2391 46.3045 73.2517 46.3301 73.259L84.3315 84.0295C84.3769 84.0422 84.4253 84.0377 84.4676 84.0169C84.5099 83.9961 84.543 83.9604 84.5607 83.9168L100.782 43.6651C100.792 43.6405 100.797 43.614 100.796 43.5874C100.795 43.5608 100.788 43.5347 100.777 43.5108C100.765 43.4869 100.749 43.4657 100.728 43.4486C100.708 43.4315 100.684 43.4189 100.659 43.4116L77.6663 36.895C77.6187 36.8816 77.5783 36.8501 77.5536 36.8072C77.5289 36.7644 77.5219 36.7136 77.5341 36.6657Z" fill="#F43518" stroke="#110002" stroke-width="1.20327" stroke-linecap="round" stroke-linejoin="round"/>
<path d="M103.39 29.4377L93.9924 26.7743L90.1235 40.4249L96.7186 42.2941C97.2445 42.4429 97.7332 42.7007 98.1529 43.0509C98.5726 43.401 98.9139 43.8355 99.1546 44.3263C99.3953 44.817 99.53 45.3529 99.5499 45.8991C99.5698 46.4453 99.4745 46.9895 99.2703 47.4965L84.5347 84.0791L84.4985 84.0689L73.5482 93.1966L71.2124 101.438L74.4853 102.366C74.7653 102.445 75.0024 102.632 75.1443 102.886C75.2862 103.141 75.3213 103.441 75.2419 103.721L66.3878 134.961L87.3867 140.912C87.8892 141.055 88.4277 140.992 88.8837 140.737C89.3397 140.483 89.6759 140.057 89.8183 139.555L116.447 45.6006C116.839 44.2168 116.83 42.7501 116.42 41.3714C116.01 39.9928 115.216 38.7591 114.132 37.8143L106.378 31.0558C105.514 30.3022 104.493 29.7496 103.39 29.4377Z" fill="#1F307C" stroke="#110002" stroke-width="1.20327" stroke-linecap="round" stroke-linejoin="round"/>
<path d="M73.5479 93.1994L35.1699 82.3223L32.8341 90.5636L71.2121 101.441L73.5479 93.1994Z" fill="#1F307C" stroke="#110002" stroke-width="1.20327" stroke-linecap="round" stroke-linejoin="round"/>
<path d="M84.4983 84.0713L46.1203 73.1941L35.1701 82.3218L73.5481 93.199L84.4983 84.0713Z" fill="#F43518" stroke="#110002" stroke-width="1.20327" stroke-linecap="round" stroke-linejoin="round"/>
<path d="M51.4194 80.8884C51.0931 82.0397 49.4917 82.0104 47.6513 81.4888C45.8109 80.9672 44.4318 80.1535 44.7586 79.0006C45.0853 77.8477 46.9945 76.7915 48.8348 77.3131C50.6752 77.8347 51.7467 79.7339 51.4194 80.8884Z" fill="#1F307C" stroke="#110002" stroke-width="1.20327" stroke-linecap="round" stroke-linejoin="round"/>
<path d="M60.9553 83.7209C60.629 84.8722 59.0259 84.8425 57.1855 84.3209C55.3451 83.7993 53.9655 82.9872 54.2928 81.8326C54.62 80.6781 56.5303 79.624 58.369 80.1451C60.2077 80.6662 61.282 82.568 60.9553 83.7209Z" fill="#069154" stroke="#110002" stroke-width="1.20327" stroke-linecap="round" stroke-linejoin="round"/>
<path d="M92.612 46.5106L65.8452 38.9243C65.2354 38.7477 64.5816 38.8036 64.0106 39.0812C63.4395 39.3589 62.9918 39.8385 62.7541 40.4273L51.4854 68.1315C51.3476 68.467 51.2825 68.8278 51.2945 69.1903C51.3064 69.5527 51.3951 69.9085 51.5547 70.2342C51.7143 70.5598 51.9411 70.8479 52.2202 71.0794C52.4994 71.311 52.8244 71.4806 53.174 71.5773L79.9325 79.1612C80.5402 79.3353 81.1908 79.2788 81.7594 79.0025C82.328 78.7261 82.7744 78.2495 83.0131 77.6641L94.2905 49.9606C94.4291 49.6256 94.4952 49.265 94.4842 48.9026C94.4733 48.5402 94.3856 48.1842 94.227 47.8582C94.0684 47.5322 93.8424 47.2435 93.564 47.0112C93.2857 46.7789 92.9612 46.6083 92.612 46.5106Z" fill="#A32316" stroke="#110002" stroke-width="1.20327" stroke-linecap="round" stroke-linejoin="round"/>
<path d="M55.8171 103.692L68.1109 107.176L65.6436 115.881C65.4334 116.623 65.079 117.316 64.6009 117.921C64.1227 118.526 63.53 119.031 62.8568 119.407C62.1835 119.783 61.4428 120.023 60.6769 120.112C59.911 120.202 59.135 120.14 58.3931 119.93L57.3964 119.647C56.6545 119.437 55.9613 119.083 55.3564 118.604C54.7514 118.126 54.2466 117.534 53.8707 116.86C53.4948 116.187 53.2551 115.446 53.1655 114.68C53.0758 113.914 53.1379 113.138 53.3482 112.397L55.8154 103.691L55.8171 103.692Z" fill="#FEB20E" stroke="#110002" stroke-width="1.20327" stroke-linecap="round" stroke-linejoin="round"/>
<path d="M68.1386 104.961L57.0191 101.809C55.9754 101.513 54.8896 102.119 54.5938 103.163L54.515 103.441C54.2192 104.485 54.8255 105.571 55.8692 105.866L66.9887 109.018C68.0323 109.314 69.1182 108.707 69.414 107.664L69.4927 107.386C69.7885 106.342 69.1823 105.256 68.1386 104.961Z" fill="#1F307C" stroke="#110002" stroke-width="1.20327" stroke-linecap="round" stroke-linejoin="round"/>
<path d="M58.745 113.751L60.3222 114.198C60.7291 114.314 61.1093 114.508 61.4411 114.77C61.7729 115.032 62.0498 115.358 62.256 115.727C62.4622 116.096 62.5936 116.502 62.6428 116.922C62.692 117.342 62.6579 117.768 62.5426 118.175C62.5085 118.295 62.4279 118.397 62.3187 118.458C62.2094 118.519 62.0804 118.534 61.96 118.5L55.0936 116.554C54.9732 116.52 54.8713 116.439 54.8103 116.33C54.7493 116.221 54.7342 116.092 54.7683 115.972C54.8836 115.565 55.078 115.184 55.3402 114.853C55.6025 114.521 55.9275 114.244 56.2968 114.038C56.6661 113.832 57.0723 113.7 57.4924 113.651C57.9125 113.602 58.3381 113.636 58.745 113.751Z" fill="#A32316" stroke="#110002" stroke-width="1.20327" stroke-linecap="round" stroke-linejoin="round"/>
<path d="M65.0707 109.523L64.9884 109.5C64.6769 109.411 64.3527 109.592 64.2644 109.904L63.2795 113.379C63.1912 113.691 63.3722 114.015 63.6837 114.103L63.766 114.126C64.0775 114.215 64.4017 114.034 64.49 113.722L65.4749 110.247C65.5632 109.935 65.3822 109.611 65.0707 109.523Z" fill="#110002" stroke="#110002" stroke-width="1.20327" stroke-linecap="round" stroke-linejoin="round"/>
<path d="M62.7684 108.871L62.6862 108.847C62.3746 108.759 62.0505 108.94 61.9622 109.252L60.9773 112.727C60.889 113.038 61.0699 113.362 61.3815 113.451L61.4637 113.474C61.7753 113.562 62.0994 113.381 62.1877 113.07L63.1727 109.595C63.261 109.283 63.08 108.959 62.7684 108.871Z" fill="#110002" stroke="#110002" stroke-width="1.20327" stroke-linecap="round" stroke-linejoin="round"/>
<path d="M92.6401 46.5288L67.495 39.4021C60.5883 49.7914 56.2092 62.5902 57.6997 72.872L79.9618 79.1815C80.5707 79.3539 81.2218 79.2949 81.7899 79.0161C82.358 78.7373 82.8029 78.2582 83.039 77.671L94.3143 49.9687C94.4513 49.6346 94.5162 49.2752 94.5047 48.9142C94.4931 48.5532 94.4055 48.1987 94.2474 47.8739C94.0893 47.5492 93.8644 47.2615 93.5875 47.0297C93.3105 46.7978 92.9876 46.6272 92.6401 46.5288Z" fill="#110002" stroke="#110002" stroke-width="1.20327" stroke-linecap="round" stroke-linejoin="round"/>
<path d="M77.7903 42.3213L57.4022 66.7693C57.2793 68.8001 57.3593 70.8382 57.6413 72.8531L82.0871 43.5356L77.7903 42.3213Z" fill="#363636" stroke="#110002" stroke-width="0.902456" stroke-miterlimit="10"/>
<path d="M60.5763 73.6929L73.1069 77.2443L92.7909 53.638L94.2824 49.9742C94.4202 49.6388 94.4853 49.2779 94.4733 48.9154C94.4614 48.553 94.3727 48.1972 94.2131 47.8715C94.0536 47.5459 93.8267 47.2578 93.5476 47.0263C93.2685 46.7947 92.9434 46.6251 92.5939 46.5284L85.012 44.3796L60.5763 73.6929Z" fill="#363636" stroke="#110002" stroke-width="0.902456" stroke-miterlimit="10"/>
<path d="M92.6328 46.5425L67.4877 39.4158C60.5805 49.8067 56.2023 62.6023 57.6929 72.884L79.9533 79.1931C80.5622 79.3668 81.2138 79.3091 81.7827 79.0311C82.3516 78.7531 82.7975 78.2744 83.0345 77.6873L94.3115 49.9855C94.4489 49.6508 94.514 49.2909 94.5025 48.9293C94.4909 48.5677 94.403 48.2126 94.2444 47.8874C94.0859 47.5623 93.8603 47.2743 93.5825 47.0425C93.3048 46.8107 92.9811 46.6403 92.6328 46.5425Z" stroke="#110002" stroke-width="1.20327" stroke-linecap="round" stroke-linejoin="round"/>
<path d="M70.1036 85.6978L72.2161 78.2442C72.3014 77.9433 72.0414 77.6066 71.6484 77.4952C71.2504 77.3824 70.8574 77.534 70.7721 77.835L68.6554 85.3034C68.5794 85.5714 68.2573 85.7236 67.8911 85.6678C66.7035 85.4697 65.8165 85.5275 65.7228 85.8581C65.5947 86.3104 66.9815 87.1032 68.8218 87.6248C70.6622 88.1464 72.2558 88.2036 72.3853 87.7464C72.4809 87.4092 71.7279 86.8813 70.5721 86.4205C70.2161 86.2787 70.0262 85.9708 70.1036 85.6978Z" fill="#A32316" stroke="#110002" stroke-width="1.20327" stroke-linecap="round" stroke-linejoin="round"/>
<path d="M70.7051 81.0084C72.6543 81.5609 74.6823 80.4285 75.2348 78.4793C75.7873 76.53 74.6549 74.502 72.7057 73.9495C70.7564 73.3971 68.7284 74.5294 68.176 76.4786C67.6235 78.4279 68.7558 80.4559 70.7051 81.0084Z" fill="#FEB20E" stroke="#110002" stroke-width="1.20327" stroke-linecap="round" stroke-linejoin="round"/>
<path d="M93.8355 125.396L95.3289 120.126L89.1302 118.369L92.6164 114.908L73.6025 109.52L72.1091 114.789L83.4078 117.991L80.2046 121.532L93.8355 125.396Z" fill="#FEB20E" stroke="#110002" stroke-width="1.20327" stroke-linecap="round" stroke-linejoin="round"/>
<path d="M90.3228 137.851L91.8162 132.581L85.6159 130.824L89.1037 127.364L70.0898 121.975L68.5964 127.244L79.8951 130.446L76.6919 133.988L90.3228 137.851Z" fill="#FEB20E" stroke="#110002" stroke-width="1.20327" stroke-linecap="round" stroke-linejoin="round"/>
<path d="M103.365 29.4318L91.7561 26.1273L87.4509 32.0142L87.6556 39.73L96.6913 42.291C97.2171 42.44 97.7056 42.698 98.1252 43.0482C98.5447 43.3983 98.8859 43.8329 99.1265 44.3235C99.3672 44.8142 99.5019 45.35 99.522 45.8961C99.542 46.4422 99.447 46.9864 99.243 47.4934L84.5078 84.0744L84.4717 84.0641L73.5214 93.1918L71.1856 101.433L74.4585 102.361C74.7385 102.44 74.9756 102.628 75.1175 102.882C75.2593 103.136 75.2945 103.436 75.2151 103.716L66.3586 134.964L87.3576 140.916C87.86 141.058 88.3985 140.995 88.8545 140.741C89.3106 140.486 89.6468 140.061 89.7892 139.558L116.42 45.5959C116.812 44.2119 116.803 42.7448 116.393 41.3659C115.983 39.987 115.19 38.753 114.106 37.8079L106.35 31.0489C105.487 30.2964 104.467 29.7442 103.365 29.4318V29.4318Z" stroke="#110002" stroke-width="1.20327" stroke-linecap="round" stroke-linejoin="round"/>
<path d="M92.5502 26.366L60.0534 17.1557C58.4294 16.6954 56.7396 17.6388 56.2793 19.2629L54.0769 27.0339C53.6166 28.658 54.56 30.3477 56.1841 30.808L88.6808 40.0183C90.3049 40.4786 91.9946 39.5351 92.4549 37.9111L94.6574 30.1401C95.1177 28.516 94.1742 26.8263 92.5502 26.366Z" fill="#1F307C" stroke="#110002" stroke-width="1.20327" stroke-linecap="round" stroke-linejoin="round"/>
<path d="M92.132 29.1253L58.9429 19.7188L56.5912 28.016L89.7804 37.4226L92.132 29.1253Z" fill="#FEB20E" stroke="#110002" stroke-width="1.20327" stroke-linecap="round" stroke-linejoin="round"/>
</svg>
