<svg width="419" height="425" viewBox="0 0 419 425" fill="none" xmlns="http://www.w3.org/2000/svg">
<path d="M346.109 358.64L191.412 412.501C187.737 413.78 183.448 413.603 179.491 412.009C175.533 410.414 172.23 407.532 170.307 403.998L7.24713 104.126C5.32507 100.592 4.94168 96.6935 6.18129 93.2893C7.4209 89.8851 10.182 87.2538 13.8571 85.9742L227.144 11.7145C230.819 10.435 235.107 10.612 239.065 12.2066C243.023 13.8012 246.326 16.6828 248.248 20.2175L380.662 263.73C385.64 272.88 388.694 282.594 389.651 292.316C390.608 302.038 389.449 311.578 386.241 320.392C383.032 329.205 377.837 337.119 370.951 343.682C364.065 350.245 355.624 355.327 346.109 358.64Z" fill="#FEB20E" stroke="#110002" stroke-width="4" stroke-linecap="round" stroke-linejoin="round"/>
<path d="M346.109 358.64L191.412 412.501C187.737 413.78 183.448 413.603 179.491 412.009C175.533 410.414 172.23 407.532 170.307 403.998L7.24713 104.126C5.32507 100.592 4.94168 96.6935 6.18129 93.2893C7.4209 89.8851 10.182 87.2538 13.8571 85.9742L227.144 11.7145C230.819 10.435 235.107 10.612 239.065 12.2066C243.023 13.8012 246.326 16.6828 248.248 20.2175L380.662 263.73C385.64 272.88 388.694 282.594 389.651 292.316C390.608 302.038 389.449 311.578 386.241 320.392C383.032 329.205 377.837 337.119 370.951 343.682C364.065 350.245 355.624 355.327 346.109 358.64V358.64Z" stroke="#110002" stroke-width="4" stroke-linecap="round" stroke-linejoin="round"/>
<path d="M269.893 179.102L119.45 231.419C115.824 232.68 111.594 232.505 107.691 230.932C103.787 229.359 100.529 226.518 98.6339 223.033L43.8514 122.297C41.9562 118.812 41.579 114.969 42.8026 111.613C44.0262 108.258 46.7505 105.664 50.3761 104.403L223.861 44.0736C227.486 42.8128 231.716 42.988 235.62 44.5606C239.524 46.1333 242.781 48.9745 244.676 52.4593L287.415 131.05C292.505 140.408 293.518 150.728 290.232 159.74C286.946 168.751 279.63 175.716 269.893 179.102Z" fill="#01703F" stroke="#110002" stroke-width="4" stroke-linecap="round" stroke-linejoin="round"/>
<path d="M269.893 179.102L119.45 231.419C115.824 232.68 111.594 232.505 107.691 230.932C103.787 229.359 100.529 226.518 98.6339 223.033L43.8514 122.297C41.9562 118.812 41.579 114.969 42.8026 111.613C44.0262 108.258 46.7505 105.664 50.3761 104.403L223.861 44.0736C227.486 42.8128 231.716 42.988 235.62 44.5606C239.524 46.1333 242.781 48.9745 244.676 52.4593L287.415 131.05C292.505 140.408 293.518 150.728 290.232 159.74C286.946 168.751 279.63 175.716 269.893 179.102V179.102Z" stroke="#110002" stroke-width="4" stroke-linecap="round" stroke-linejoin="round"/>
<path d="M209.852 63.4739L265.488 165.654C265.939 166.482 266.028 167.394 265.737 168.191C265.446 168.987 264.799 169.603 263.937 169.902L135.796 214.405C134.933 214.699 133.93 214.655 133.003 214.283C132.077 213.91 131.302 213.238 130.848 212.414L75.2122 110.234C74.7617 109.406 74.672 108.494 74.9629 107.697C75.2538 106.901 75.9014 106.285 76.7632 105.986L204.939 61.4708C205.8 61.1825 206.799 61.2312 207.718 61.6062C208.638 61.9813 209.405 62.6524 209.852 63.4739Z" fill="#110002" stroke="#110002" stroke-width="4" stroke-linecap="round" stroke-linejoin="round"/>
<path d="M199.801 271.368C201.006 273.581 201.245 276.021 200.467 278.152C199.689 280.283 197.957 281.929 195.652 282.73L178.908 288.545L187.66 304.617C188.769 306.81 188.941 309.195 188.139 311.268C187.338 313.341 185.627 314.939 183.367 315.724C181.107 316.508 178.477 316.418 176.032 315.473C173.587 314.527 171.52 312.8 170.267 310.657L161.516 294.584L144.772 300.399C142.466 301.2 139.777 301.088 137.295 300.09C134.813 299.091 132.742 297.287 131.537 295.074C130.332 292.862 130.092 290.421 130.87 288.291C131.648 286.16 133.38 284.513 135.685 283.713L152.429 277.898L143.673 261.817C142.564 259.624 142.392 257.239 143.193 255.166C143.995 253.093 145.706 251.495 147.966 250.71C150.226 249.926 152.856 250.016 155.301 250.961C157.746 251.907 159.813 253.634 161.065 255.777L169.822 271.858L186.566 266.043C188.871 265.243 191.561 265.354 194.043 266.353C196.525 267.351 198.596 269.155 199.801 271.368Z" fill="#110002" stroke="#110002" stroke-width="4" stroke-linecap="round" stroke-linejoin="round"/>
<path d="M301.303 222.263L301.294 222.266C295.794 224.176 293.665 230.005 296.54 235.285L296.545 235.294C299.42 240.574 306.21 243.306 311.711 241.395L311.719 241.392C317.22 239.482 319.349 233.653 316.473 228.373L316.469 228.365C313.594 223.084 306.804 220.353 301.303 222.263Z" fill="#110002" stroke="#110002" stroke-width="4" stroke-linecap="round" stroke-linejoin="round"/>
<path d="M301.303 222.263L301.294 222.266C295.794 224.176 293.665 230.005 296.54 235.285L296.545 235.294C299.42 240.574 306.21 243.306 311.711 241.395L311.719 241.392C317.22 239.482 319.349 233.653 316.473 228.373L316.469 228.365C313.594 223.084 306.804 220.353 301.303 222.263Z" fill="#110002" stroke="#110002" stroke-width="4" stroke-linecap="round" stroke-linejoin="round"/>
<path d="M313.303 197.413L313.295 197.416C307.794 199.326 305.665 205.155 308.541 210.436L308.545 210.444C311.42 215.724 318.21 218.456 323.711 216.546L323.72 216.543C329.22 214.632 331.349 208.803 328.474 203.523L328.469 203.515C325.594 198.235 318.804 195.503 313.303 197.413Z" fill="#110002" stroke="#110002" stroke-width="4" stroke-linecap="round" stroke-linejoin="round"/>
<path d="M313.303 197.413L313.295 197.416C307.794 199.326 305.665 205.155 308.541 210.436L308.545 210.444C311.42 215.724 318.21 218.456 323.711 216.546L323.72 216.543C329.22 214.632 331.349 208.803 328.474 203.523L328.469 203.515C325.594 198.235 318.804 195.503 313.303 197.413Z" fill="#110002" stroke="#110002" stroke-width="4" stroke-linecap="round" stroke-linejoin="round"/>
<path d="M243.888 302.642L235.43 312.861C234.225 314.316 234.784 316.492 236.678 317.72C238.572 318.948 241.083 318.763 242.288 317.308L250.746 307.089C251.951 305.633 251.392 303.458 249.498 302.23C247.604 301.002 245.093 301.186 243.888 302.642Z" fill="#110002" stroke="#110002" stroke-width="4" stroke-linecap="round" stroke-linejoin="round"/>
<path d="M243.888 302.642L235.43 312.861C234.225 314.316 234.784 316.492 236.678 317.72C238.572 318.948 241.083 318.763 242.288 317.308L250.746 307.089C251.951 305.633 251.392 303.458 249.498 302.23C247.604 301.002 245.093 301.186 243.888 302.642Z" fill="#110002" stroke="#110002" stroke-width="4" stroke-linecap="round" stroke-linejoin="round"/>
<path d="M273.024 291.834L264.566 302.054C263.362 303.509 263.92 305.684 265.814 306.912C267.708 308.14 270.22 307.956 271.424 306.501L279.882 296.281C281.087 294.826 280.528 292.651 278.634 291.423C276.74 290.195 274.229 290.379 273.024 291.834Z" fill="#110002" stroke="#110002" stroke-width="4" stroke-linecap="round" stroke-linejoin="round"/>
<path d="M273.024 291.834L264.566 302.054C263.362 303.509 263.92 305.684 265.814 306.912C267.708 308.14 270.22 307.956 271.424 306.501L279.882 296.281C281.087 294.826 280.528 292.651 278.634 291.423C276.74 290.195 274.229 290.379 273.024 291.834Z" fill="#110002" stroke="#110002" stroke-width="4" stroke-linecap="round" stroke-linejoin="round"/>
<path d="M319.474 305.134C318.716 304.864 317.909 305.11 317.67 305.684C317.431 306.258 317.851 306.942 318.609 307.212L361.646 322.555C362.404 322.825 363.211 322.579 363.45 322.005C363.689 321.431 363.269 320.747 362.511 320.477L319.474 305.134Z" fill="#110002" stroke="#110002" stroke-width="4" stroke-linecap="round" stroke-linejoin="round"/>
<path d="M323.246 296.521C322.488 296.251 321.68 296.497 321.442 297.071C321.203 297.644 321.623 298.328 322.381 298.598L365.418 313.941C366.176 314.211 366.983 313.965 367.222 313.392C367.461 312.818 367.04 312.134 366.283 311.864L323.246 296.521Z" fill="#110002" stroke="#110002" stroke-width="4" stroke-linecap="round" stroke-linejoin="round"/>
<path d="M327.026 287.911C326.269 287.641 325.461 287.887 325.222 288.46C324.983 289.034 325.404 289.718 326.161 289.988L369.199 305.331C369.956 305.601 370.764 305.355 371.003 304.781C371.242 304.208 370.821 303.524 370.064 303.254L327.026 287.911Z" fill="#110002" stroke="#110002" stroke-width="4" stroke-linecap="round" stroke-linejoin="round"/>
<path d="M330.798 279.296C330.04 279.026 329.232 279.273 328.994 279.846C328.755 280.42 329.175 281.104 329.933 281.374L372.97 296.717C373.728 296.987 374.535 296.741 374.774 296.167C375.013 295.593 374.593 294.909 373.835 294.639L330.798 279.296Z" fill="#110002" stroke="#110002" stroke-width="4" stroke-linecap="round" stroke-linejoin="round"/>
<path d="M334.566 270.691C333.808 270.421 333 270.667 332.762 271.241C332.523 271.814 332.943 272.498 333.701 272.768L376.738 288.111C377.496 288.381 378.303 288.135 378.542 287.562C378.781 286.988 378.361 286.304 377.603 286.034L334.566 270.691Z" fill="#110002" stroke="#110002" stroke-width="4" stroke-linecap="round" stroke-linejoin="round"/>
<path d="M168.635 74.9596L168.172 76.8323L144.342 171.098L133.449 214.148C132.874 214.011 132.326 213.755 131.848 213.401C131.371 213.048 130.98 212.607 130.706 212.115L125.29 202.163L135.096 163.362L156.356 79.2264L168.635 74.9596Z" fill="#363636" stroke="#110002" stroke-width="3" stroke-miterlimit="10"/>
<path d="M210.561 63.1086L221.501 83.1989L219.867 89.7713L200.157 167.733L193.604 193.668L151.515 208.283L161.93 167.076L171.625 128.682L177.55 105.097L187.049 67.5504L205.638 61.0952C206.065 60.9496 206.531 60.8862 207.01 60.9086C207.489 60.931 207.97 61.0388 208.428 61.2259C208.885 61.4129 209.309 61.6755 209.675 61.9986C210.041 62.3217 210.342 62.6989 210.561 63.1086Z" fill="#363636" stroke="#110002" stroke-width="3" stroke-miterlimit="10"/>
<path d="M210.203 63.393L265.839 165.574C266.289 166.402 266.379 167.314 266.088 168.111C265.797 168.907 265.149 169.523 264.288 169.822L136.11 214.338C135.684 214.487 135.217 214.554 134.737 214.535C134.257 214.515 133.774 214.41 133.314 214.225C132.854 214.04 132.427 213.779 132.058 213.457C131.689 213.134 131.384 212.757 131.162 212.347L75.5261 110.165C75.0757 109.338 74.986 108.426 75.2769 107.629C75.5678 106.832 76.2154 106.217 77.0772 105.917L205.254 61.4021C205.681 61.2539 206.148 61.1878 206.627 61.2076C207.107 61.2275 207.59 61.3328 208.05 61.5177C208.509 61.7026 208.936 61.9633 209.305 62.2851C209.675 62.6069 209.979 62.9833 210.203 63.393V63.393Z" stroke="#110002" stroke-width="4" stroke-linecap="round" stroke-linejoin="round"/>
</svg>
