<svg width="324" height="354" viewBox="0 0 324 354" fill="none" xmlns="http://www.w3.org/2000/svg">
<g clip-path="url(#clip0_1594_5883)">
<path d="M322.297 1.70068H1.70215V352.207H322.297V1.70068Z" fill="white" stroke="#110002" stroke-width="4" stroke-miterlimit="10"/>
<path d="M306.898 17.2104H16.1553V336.493H306.898V17.2104Z" fill="#069154" stroke="#110002" stroke-width="4" stroke-miterlimit="10"/>
<path d="M306.807 146.112H157.966V336.338H306.807V146.112Z" fill="#FEB20E" stroke="#110002" stroke-width="4" stroke-miterlimit="10"/>
<path d="M306.909 17.271H155.893V158.243H306.909V17.271Z" fill="#FE9DCB" stroke="#110002" stroke-width="4" stroke-miterlimit="10"/>
<path d="M157.724 17.0518H16.3975V208.053H157.724V17.0518Z" fill="#ED6E30" stroke="#110002" stroke-width="4" stroke-miterlimit="10"/>
<path d="M123.347 32.626H48.2021C42.1151 32.626 37.1807 37.5548 37.1807 43.6348V182.169C37.1807 188.249 42.1151 193.178 48.2021 193.178H123.347C129.434 193.178 134.369 188.249 134.369 182.169V43.6348C134.369 37.5548 129.434 32.626 123.347 32.626Z" fill="#110002" stroke="#110002" stroke-width="8.86" stroke-miterlimit="10"/>
<path d="M122.329 43.2378H50.139C47.6001 43.2378 45.542 45.2936 45.542 47.8295V164.199C45.542 166.735 47.6001 168.791 50.139 168.791H122.329C124.868 168.791 126.926 166.735 126.926 164.199V47.8295C126.926 45.2936 124.868 43.2378 122.329 43.2378Z" fill="white" stroke="#110002" stroke-width="9.09" stroke-miterlimit="10"/>
<path d="M86.6087 188.254C90.3449 188.254 93.3737 185.228 93.3737 181.496C93.3737 177.765 90.3449 174.739 86.6087 174.739C82.8725 174.739 79.8438 177.765 79.8438 181.496C79.8438 185.228 82.8725 188.254 86.6087 188.254Z" fill="#110002" stroke="white" stroke-width="2" stroke-miterlimit="10"/>
<path d="M295.26 63.6758H183.607V135.258H295.26V63.6758Z" fill="white" stroke="#110002" stroke-width="4" stroke-miterlimit="10"/>
<path d="M293.825 64.8057H184.859V77.0012H293.825V64.8057Z" fill="#110002" stroke="#110002" stroke-width="4" stroke-miterlimit="10"/>
<path d="M284.961 74.0727L286.822 70.8717L284.976 67.7236H286.338L287.602 70.0176H287.765L289.028 67.7236H290.39L288.544 70.8717L290.405 74.0727H289.062L287.78 71.7258H287.617L286.319 74.0727H284.961Z" fill="white"/>
<path d="M257.379 111.044H219.812C218.387 111.044 217.231 112.198 217.231 113.622V122.805C217.231 124.229 218.387 125.383 219.812 125.383H257.379C258.804 125.383 259.959 124.229 259.959 122.805V113.622C259.959 112.198 258.804 111.044 257.379 111.044Z" fill="#110002"/>
<path d="M232.998 120.935C232.585 120.698 232.248 120.35 232.026 119.929C231.792 119.472 231.67 118.966 231.67 118.452C231.67 117.938 231.792 117.432 232.026 116.974C232.248 116.554 232.585 116.205 232.998 115.969C233.447 115.728 233.948 115.603 234.457 115.603C234.966 115.603 235.467 115.728 235.915 115.969C236.329 116.206 236.665 116.558 236.884 116.982C237.122 117.436 237.247 117.941 237.247 118.454C237.247 118.967 237.122 119.472 236.884 119.926C236.664 120.348 236.328 120.698 235.915 120.935C235.467 121.175 234.966 121.301 234.457 121.301C233.948 121.301 233.447 121.175 232.998 120.935ZM235.563 120.341C235.87 120.154 236.118 119.884 236.278 119.563C236.44 119.215 236.523 118.836 236.523 118.452C236.523 118.068 236.44 117.689 236.278 117.341C236.118 117.02 235.87 116.75 235.563 116.562C235.224 116.376 234.843 116.279 234.457 116.279C234.07 116.279 233.689 116.376 233.35 116.562C233.044 116.749 232.797 117.019 232.639 117.341C232.477 117.689 232.394 118.068 232.394 118.452C232.394 118.836 232.477 119.215 232.639 119.563C232.797 119.885 233.044 120.155 233.35 120.341C233.689 120.527 234.07 120.625 234.457 120.625C234.843 120.625 235.224 120.527 235.563 120.341Z" fill="white" stroke="white" stroke-miterlimit="10"/>
<path d="M238.555 121.154C238.522 121.121 238.495 121.081 238.478 121.038C238.46 120.994 238.452 120.948 238.453 120.901V116.022C238.454 115.926 238.49 115.834 238.555 115.765C238.589 115.73 238.629 115.703 238.673 115.685C238.717 115.666 238.765 115.658 238.813 115.659C238.913 115.659 239.009 115.699 239.08 115.769C239.151 115.84 239.191 115.936 239.191 116.037V118.561L241.911 115.799C241.944 115.759 241.985 115.728 242.032 115.706C242.078 115.684 242.129 115.673 242.18 115.674C242.267 115.673 242.351 115.705 242.415 115.765C242.446 115.793 242.471 115.828 242.488 115.867C242.505 115.906 242.514 115.949 242.513 115.991C242.515 116.036 242.509 116.081 242.494 116.123C242.479 116.165 242.456 116.204 242.426 116.237L240.591 118.062L242.695 120.708C242.75 120.772 242.782 120.854 242.785 120.938C242.788 120.984 242.781 121.03 242.764 121.072C242.747 121.115 242.721 121.153 242.687 121.184C242.649 121.218 242.605 121.243 242.557 121.26C242.51 121.276 242.459 121.283 242.409 121.279C242.358 121.276 242.309 121.262 242.264 121.239C242.219 121.216 242.179 121.185 242.146 121.146L240.099 118.535L239.191 119.446V120.931C239.192 120.978 239.184 121.025 239.165 121.069C239.147 121.112 239.12 121.152 239.085 121.184C239.015 121.249 238.923 121.286 238.828 121.286C238.775 121.285 238.724 121.273 238.677 121.25C238.63 121.227 238.588 121.194 238.555 121.154Z" fill="white" stroke="white" stroke-miterlimit="10"/>
<path d="M245.866 121.112C245.82 121.068 245.784 121.015 245.76 120.957C245.736 120.898 245.724 120.835 245.726 120.772C245.728 120.648 245.778 120.53 245.865 120.443C245.953 120.355 246.071 120.305 246.195 120.303C246.32 120.303 246.44 120.353 246.529 120.44C246.618 120.528 246.67 120.647 246.672 120.772C246.672 120.835 246.66 120.898 246.636 120.956C246.612 121.015 246.576 121.068 246.532 121.112C246.487 121.156 246.435 121.191 246.377 121.214C246.319 121.238 246.257 121.249 246.195 121.248C246.134 121.249 246.073 121.238 246.016 121.214C245.96 121.191 245.908 121.156 245.866 121.112ZM246.002 119.623C245.956 119.579 245.927 119.52 245.922 119.457L245.779 116.838V116.052C245.778 115.997 245.789 115.943 245.809 115.893C245.83 115.842 245.861 115.796 245.9 115.758C245.938 115.72 245.985 115.689 246.035 115.669C246.086 115.649 246.14 115.639 246.195 115.64C246.248 115.638 246.302 115.647 246.351 115.668C246.401 115.688 246.445 115.718 246.482 115.757C246.521 115.796 246.551 115.842 246.571 115.892C246.592 115.943 246.601 115.997 246.6 116.052V116.838L246.456 119.457C246.455 119.488 246.448 119.519 246.435 119.548C246.422 119.576 246.403 119.602 246.38 119.623C246.329 119.668 246.263 119.691 246.195 119.687C246.125 119.69 246.056 119.667 246.002 119.623Z" fill="white" stroke="white" stroke-miterlimit="10"/>
<path d="M202.405 81.4693C200.901 81.4693 199.599 81.24 198.501 80.7813C197.402 80.3227 196.554 79.672 195.957 78.8293C195.359 77.976 195.061 76.9573 195.061 75.7733C195.061 74.5893 195.359 73.5707 195.957 72.7173C196.554 71.864 197.402 71.2133 198.501 70.7653C199.599 70.3067 200.901 70.0773 202.405 70.0773C203.919 70.0773 205.221 70.3067 206.309 70.7653C207.407 71.2133 208.255 71.864 208.853 72.7173C209.45 73.5707 209.749 74.5893 209.749 75.7733C209.749 76.9573 209.45 77.976 208.853 78.8293C208.255 79.672 207.407 80.3227 206.309 80.7813C205.221 81.24 203.919 81.4693 202.405 81.4693ZM202.405 78.7333C202.906 78.7333 203.359 78.6693 203.765 78.5413C204.17 78.4027 204.517 78.2107 204.805 77.9653C205.093 77.7093 205.311 77.4107 205.461 77.0693C205.61 76.728 205.685 76.3547 205.685 75.9493V75.5653C205.685 75.16 205.61 74.792 205.461 74.4613C205.311 74.12 205.093 73.8267 204.805 73.5813C204.517 73.336 204.17 73.1493 203.765 73.0213C203.359 72.8827 202.906 72.8133 202.405 72.8133C201.903 72.8133 201.45 72.8827 201.045 73.0213C200.639 73.1493 200.293 73.336 200.005 73.5813C199.717 73.8267 199.498 74.12 199.349 74.4613C199.199 74.792 199.125 75.16 199.125 75.5653V75.9493C199.125 76.3547 199.199 76.728 199.349 77.0693C199.498 77.4107 199.717 77.7093 200.005 77.9653C200.293 78.2107 200.639 78.4027 201.045 78.5413C201.45 78.6693 201.903 78.7333 202.405 78.7333ZM215.021 81.2773V73.2933H210.349V70.2693H223.645V73.2933H218.973V81.2773H215.021ZM225.197 81.2773V70.2693H229.149V81.2773H225.197ZM202.133 98.4693C200.543 98.4693 199.226 98.256 198.181 97.8293C197.135 97.392 196.351 96.752 195.829 95.9093C195.317 95.0667 195.061 94.0213 195.061 92.7733C195.061 90.9493 195.663 89.5467 196.869 88.5653C198.074 87.5733 199.839 87.0773 202.165 87.0773C203.445 87.0773 204.57 87.28 205.541 87.6853C206.511 88.08 207.269 88.6347 207.813 89.3493C208.367 90.0533 208.645 90.8693 208.645 91.7973H204.805C204.805 91.4133 204.693 91.072 204.469 90.7733C204.245 90.4747 203.93 90.24 203.525 90.0693C203.119 89.8987 202.645 89.8133 202.101 89.8133C201.418 89.8133 200.853 89.936 200.405 90.1813C199.967 90.4267 199.642 90.7573 199.429 91.1733C199.226 91.5893 199.125 92.0533 199.125 92.5653V92.9653C199.125 93.456 199.226 93.9147 199.429 94.3413C199.642 94.7573 199.962 95.0933 200.389 95.3493C200.815 95.6053 201.359 95.7333 202.021 95.7333C202.629 95.7333 203.146 95.6533 203.573 95.4933C204.01 95.3333 204.341 95.1093 204.565 94.8213C204.799 94.5333 204.917 94.1973 204.917 93.8133H208.645C208.645 94.7093 208.383 95.5093 207.861 96.2133C207.349 96.9173 206.607 97.472 205.637 97.8773C204.666 98.272 203.498 98.4693 202.133 98.4693ZM210.556 98.2773V87.2693H222.316V90.0053H214.524V91.4293H221.244V94.0213H214.524V95.5413H222.444V98.2773H210.556Z" fill="#FFEADF"/>
<path d="M280.78 34.7803H169.128V106.362H280.78V34.7803Z" fill="white" stroke="#110002" stroke-width="4" stroke-miterlimit="10"/>
<path d="M279.346 35.9102H170.38V48.1057H279.346V35.9102Z" fill="#110002" stroke="#110002" stroke-width="4" stroke-miterlimit="10"/>
<path d="M270.481 45.184L272.343 41.983L270.497 38.835H271.859L273.122 41.1289H273.285L274.549 38.835H275.911L274.068 41.983L275.93 45.184H274.568L273.285 42.8334H273.122L271.844 45.184H270.481Z" fill="#FFEADF"/>
<path d="M242.899 82.145H205.332C203.907 82.145 202.752 83.299 202.752 84.7224V93.9059C202.752 95.3294 203.907 96.4833 205.332 96.4833H242.899C244.324 96.4833 245.48 95.3294 245.48 93.9059V84.7224C245.48 83.299 244.324 82.145 242.899 82.145Z" fill="#110002"/>
<path d="M218.519 92.0353C218.106 91.7988 217.769 91.4503 217.546 91.0301C217.312 90.5725 217.19 90.0661 217.19 89.5524C217.19 89.0387 217.312 88.5323 217.546 88.0747C217.769 87.6545 218.106 87.306 218.519 87.0695C218.967 86.829 219.468 86.7031 219.977 86.7031C220.486 86.7031 220.987 86.829 221.436 87.0695C221.849 87.3073 222.186 87.6572 222.408 88.0785C222.644 88.534 222.767 89.0395 222.767 89.5524C222.767 90.0654 222.644 90.5708 222.408 91.0263C222.186 91.4476 221.849 91.7975 221.436 92.0353C220.987 92.2758 220.486 92.4017 219.977 92.4017C219.468 92.4017 218.967 92.2758 218.519 92.0353ZM221.084 91.442C221.392 91.2567 221.641 90.9864 221.799 90.6635C221.96 90.3153 222.044 89.9361 222.044 89.5524C222.044 89.1687 221.96 88.7896 221.799 88.4413C221.641 88.1185 221.392 87.8481 221.084 87.6628C220.745 87.4769 220.364 87.3794 219.977 87.3794C219.59 87.3794 219.21 87.4769 218.87 87.6628C218.566 87.8484 218.32 88.1155 218.159 88.4338C217.998 88.782 217.914 89.1611 217.914 89.5448C217.914 89.9286 217.998 90.3077 218.159 90.6559C218.318 90.977 218.565 91.2468 218.87 91.4345C219.21 91.6204 219.59 91.7178 219.977 91.7178C220.364 91.7178 220.745 91.6204 221.084 91.4345V91.442Z" fill="white" stroke="white" stroke-miterlimit="10"/>
<path d="M224.08 92.2581C224.045 92.2259 224.018 92.1866 223.999 92.1429C223.981 92.0993 223.972 92.0522 223.974 92.0049V87.0919C223.973 87.0442 223.982 86.9967 224 86.9526C224.018 86.9084 224.046 86.8684 224.08 86.835C224.112 86.8003 224.151 86.773 224.195 86.7547C224.239 86.7365 224.286 86.7278 224.333 86.7291C224.434 86.7291 224.53 86.769 224.601 86.8398C224.672 86.9107 224.712 87.0068 224.712 87.1071V89.6316L227.432 86.869C227.465 86.8295 227.506 86.7979 227.552 86.7763C227.599 86.7547 227.649 86.7438 227.701 86.7443C227.788 86.7431 227.872 86.7756 227.935 86.835C227.967 86.8631 227.993 86.898 228.01 86.9372C228.027 86.9765 228.035 87.019 228.034 87.0617C228.037 87.1064 228.031 87.1514 228.016 87.1936C228.001 87.2359 227.977 87.2746 227.946 87.3074L226.111 89.1327L228.219 91.7782C228.273 91.8431 228.304 91.9243 228.306 92.0087C228.309 92.054 228.302 92.0994 228.285 92.1418C228.269 92.1842 228.244 92.2225 228.211 92.2543C228.177 92.2877 228.137 92.3139 228.093 92.3314C228.049 92.3489 228.002 92.3574 227.954 92.3564C227.899 92.3588 227.844 92.3472 227.794 92.3228C227.745 92.2983 227.702 92.2618 227.67 92.2166L225.62 89.6051L224.712 90.5159V92.0011C224.713 92.0484 224.704 92.0955 224.686 92.1392C224.668 92.1828 224.64 92.2221 224.606 92.2543C224.536 92.3196 224.444 92.3561 224.348 92.3564C224.299 92.3605 224.25 92.3538 224.203 92.3368C224.157 92.3198 224.115 92.293 224.08 92.2581Z" fill="white" stroke="white" stroke-miterlimit="10"/>
<path d="M231.386 92.2128C231.341 92.1687 231.305 92.1158 231.281 92.0572C231.257 91.9987 231.245 91.9359 231.246 91.8726C231.248 91.749 231.298 91.6309 231.386 91.5434C231.473 91.456 231.592 91.406 231.715 91.404C231.778 91.4033 231.84 91.4153 231.898 91.4393C231.956 91.4633 232.008 91.4989 232.052 91.5438C232.097 91.5862 232.132 91.6372 232.156 91.6938C232.18 91.7503 232.192 91.8112 232.192 91.8726C232.193 91.9353 232.181 91.9975 232.157 92.0555C232.133 92.1135 232.098 92.1662 232.054 92.2105C232.009 92.2548 231.956 92.2898 231.898 92.3136C231.84 92.3373 231.778 92.3493 231.715 92.3488C231.654 92.3497 231.593 92.3381 231.537 92.3147C231.48 92.2913 231.429 92.2566 231.386 92.2128ZM231.522 90.7238C231.476 90.68 231.448 90.6208 231.443 90.5575L231.303 87.9385V87.1524C231.301 87.0979 231.311 87.0436 231.331 86.9929C231.351 86.9422 231.382 86.8962 231.42 86.8576C231.459 86.8191 231.505 86.7888 231.556 86.7686C231.606 86.7485 231.661 86.7389 231.715 86.7405C231.769 86.7386 231.822 86.748 231.872 86.7682C231.921 86.7884 231.966 86.8189 232.003 86.8576C232.042 86.8962 232.072 86.9422 232.092 86.9929C232.112 87.0436 232.122 87.0979 232.12 87.1524V87.9385L231.976 90.5575C231.975 90.5888 231.968 90.6196 231.955 90.6481C231.942 90.6767 231.924 90.7024 231.901 90.7238C231.85 90.7684 231.783 90.7915 231.715 90.788C231.646 90.7915 231.577 90.7701 231.522 90.7275V90.7238Z" fill="white" stroke="white" stroke-miterlimit="10"/>
<path d="M175.352 44.4286V40.2715H176.653L178.711 42.0061L178.814 42.0968L178.954 42.2253L179.086 42.3463H179.146V40.2715H180.55V44.4286H179.26L177.308 42.7884C177.219 42.7204 177.129 42.6448 177.035 42.5617L176.808 42.3538H176.755V44.4286H175.352Z" fill="white"/>
<path d="M184.05 44.5004C183.545 44.5126 183.043 44.4239 182.574 44.2396C182.185 44.0872 181.85 43.8244 181.609 43.4838C181.381 43.1504 181.263 42.7538 181.272 42.35C181.26 41.9387 181.378 41.5339 181.609 41.1936C181.85 40.8529 182.185 40.5901 182.574 40.4377C183.529 40.095 184.574 40.095 185.529 40.4377C185.916 40.5904 186.25 40.8532 186.49 41.1936C186.722 41.5339 186.839 41.9387 186.827 42.35C186.836 42.7538 186.718 43.1504 186.49 43.4838C186.25 43.8241 185.916 44.0869 185.529 44.2396C185.058 44.4244 184.555 44.5131 184.05 44.5004ZM184.05 43.4686C184.224 43.4702 184.398 43.4447 184.564 43.393C184.703 43.3437 184.831 43.2694 184.942 43.1739C185.05 43.0818 185.135 42.9669 185.192 42.8375C185.249 42.7038 185.278 42.5596 185.275 42.4142V42.2706C185.278 42.1264 185.25 41.9833 185.192 41.8511C185.135 41.7229 185.05 41.6092 184.942 41.5186C184.83 41.4255 184.702 41.3538 184.564 41.3069C184.228 41.2061 183.871 41.2061 183.535 41.3069C183.397 41.353 183.268 41.4248 183.157 41.5186C183.049 41.6092 182.964 41.7229 182.907 41.8511C182.849 41.9833 182.821 42.1264 182.824 42.2706V42.4142C182.821 42.5596 182.85 42.7038 182.907 42.8375C182.964 42.9669 183.049 43.0818 183.157 43.1739C183.268 43.2701 183.396 43.3445 183.535 43.393C183.702 43.4421 183.876 43.465 184.05 43.4611V43.4686Z" fill="white"/>
<path d="M188.825 44.4286V41.4052H187.058V40.2715H192.09V41.4052H190.311V44.4286H188.825Z" fill="white"/>
<path d="M192.677 44.4286V40.2715H194.19V44.4286H192.677Z" fill="white"/>
<path d="M197.569 44.5002C197.053 44.5191 196.539 44.4356 196.056 44.2545C195.691 44.1149 195.38 43.8618 195.17 43.5327C194.963 43.1737 194.861 42.7639 194.875 42.3498C194.858 42.0492 194.911 41.7488 195.03 41.4721C195.149 41.1954 195.33 40.9499 195.56 40.755C196.144 40.3431 196.852 40.1455 197.565 40.1956C198.002 40.1872 198.437 40.2643 198.844 40.4224C199.182 40.5516 199.48 40.7681 199.707 41.0497C199.911 41.3166 200.02 41.6437 200.017 41.9794H198.564C198.565 41.8426 198.52 41.7094 198.435 41.6015C198.343 41.4817 198.22 41.389 198.08 41.3332C197.907 41.2662 197.724 41.2341 197.539 41.2387C197.319 41.2303 197.1 41.277 196.903 41.3748C196.74 41.4579 196.608 41.5901 196.525 41.7527C196.444 41.9158 196.404 42.096 196.407 42.278V42.4291C196.406 42.6085 196.446 42.7857 196.525 42.9469C196.605 43.1049 196.73 43.2362 196.884 43.3248C197.072 43.4296 197.286 43.4806 197.501 43.4722C197.703 43.4767 197.904 43.446 198.095 43.3815C198.242 43.3325 198.373 43.2435 198.473 43.1245C198.56 43.0178 198.605 42.8838 198.602 42.7466H200.013C200.015 43.0728 199.912 43.391 199.718 43.6536C199.5 43.9358 199.208 44.1517 198.874 44.2772C198.458 44.4344 198.014 44.5101 197.569 44.5002Z" fill="white"/>
<path d="M200.751 44.4286V40.2715H205.2V41.307H202.253V41.8436H204.796V42.8224H202.253V43.3969H205.25V44.4324L200.751 44.4286Z" fill="white"/>
<path d="M160.199 77.0957C176.407 77.0957 191.952 83.5273 203.414 94.9755C214.875 106.424 221.314 121.951 221.314 138.141V268.732H99.083V138.141C99.083 121.951 105.522 106.424 116.983 94.9755C128.445 83.5273 143.99 77.0957 160.199 77.0957Z" fill="#110002" stroke="#110002" stroke-width="5.22" stroke-miterlimit="10" stroke-linecap="round"/>
<path d="M106.881 175.102C106.533 192.993 107.116 212.063 107.933 229.878C108.122 234.065 108.489 238.786 110.074 241.121C111.137 232.722 111.682 224.266 111.705 215.8C112.772 218.11 113.094 221.556 113.37 224.791L115.141 245.649L116.601 223.506L117.638 241.114C117.937 246.253 118.281 251.627 119.654 255.826C120.411 254.67 120.411 252.262 120.332 250.248C119.726 234.69 118.951 219.171 118.005 203.692C117.819 200.668 117.013 196.685 115.685 197.543C114.777 198.133 114.391 200.861 113.464 201.296C112.189 201.893 111.573 198.034 111.429 195.181C111.153 189.463 110.627 183.809 109.859 178.314C109.639 176.739 109.363 175.064 108.746 174.127C108.13 173.19 107.085 173.53 106.881 175.117" fill="#1F307C"/>
<path d="M105.621 175.102C105.447 184.172 105.507 193.261 105.708 202.335C105.905 211.345 106.241 220.347 106.65 229.349C106.756 231.65 106.888 233.948 107.221 236.227C107.501 238.117 107.917 240.142 108.988 241.756C109.133 241.991 109.349 242.174 109.605 242.278C109.861 242.382 110.143 242.402 110.411 242.334C110.671 242.252 110.9 242.091 111.066 241.874C111.231 241.657 111.325 241.394 111.334 241.121C112.091 235.222 112.567 229.277 112.806 223.328C112.904 220.822 112.957 218.313 112.965 215.804L110.623 216.439C110.671 216.544 110.714 216.651 110.751 216.76C110.819 216.934 110.88 217.112 110.937 217.289C111.069 217.69 111.179 218.094 111.273 218.502C111.463 219.304 111.606 220.127 111.72 220.932C111.97 222.765 112.098 224.636 112.257 226.484L113.294 238.687L113.884 245.648C113.892 245.979 114.027 246.294 114.261 246.527C114.494 246.761 114.81 246.896 115.14 246.903C115.472 246.898 115.789 246.765 116.023 246.53C116.258 246.296 116.392 245.98 116.396 245.648L117.861 223.506H115.345L116.154 236.979C116.404 241.204 116.559 245.452 117.111 249.651C117.362 251.853 117.814 254.027 118.462 256.147C118.533 256.381 118.671 256.589 118.857 256.746C119.044 256.904 119.272 257.005 119.514 257.036C119.756 257.068 120.003 257.029 120.224 256.924C120.444 256.819 120.63 256.653 120.759 256.446C121.546 255.172 121.621 253.513 121.64 252.062C121.663 250.259 121.538 248.456 121.466 246.658C121.307 242.803 121.14 238.948 120.963 235.093C120.607 227.363 120.209 219.637 119.768 211.915C119.657 210.011 119.546 208.107 119.435 206.205C119.329 204.47 119.253 202.739 118.988 201.024C118.799 199.792 118.553 198.408 117.88 197.335C117.149 196.164 115.712 195.721 114.645 196.783C114.233 197.241 113.915 197.773 113.706 198.352C113.585 198.643 113.464 198.937 113.328 199.232L113.241 199.444L113.26 199.399C113.196 199.542 113.131 199.686 113.059 199.829C112.987 199.973 112.946 200.022 112.893 200.12C112.745 200.377 112.995 200.052 112.859 200.173C112.723 200.294 112.927 200.132 112.946 200.128C112.753 200.2 113.063 200.094 113.071 200.094C112.953 200.128 112.957 200.094 113.237 200.094C113.037 200.094 113.464 200.162 113.506 200.166C113.623 200.166 113.634 200.226 113.555 200.166C113.396 200.075 113.661 200.249 113.665 200.253C113.668 200.256 113.608 200.173 113.574 200.154C113.623 200.185 113.71 200.4 113.638 200.226C113.6 200.139 113.54 200.049 113.494 199.965C113.449 199.882 113.453 199.882 113.434 199.841C113.57 200.124 113.434 199.814 113.415 199.769C113.023 198.562 112.796 197.307 112.742 196.039C112.602 194.229 112.545 192.415 112.412 190.604C112.142 186.848 111.764 183.103 111.277 179.369C111.05 177.687 110.918 175.899 110.259 174.316C109.98 173.639 109.609 172.933 108.924 172.581C108.556 172.385 108.136 172.307 107.722 172.36C107.308 172.412 106.92 172.591 106.612 172.872C106.091 173.375 105.76 174.043 105.678 174.762C105.601 175.083 105.649 175.42 105.812 175.707C105.975 175.994 106.241 176.209 106.555 176.308C107.149 176.47 108.001 176.104 108.103 175.431C108.126 175.265 108.16 175.101 108.205 174.94C108.205 174.909 108.311 174.664 108.247 174.803C108.182 174.943 108.284 174.754 108.281 174.751C108.232 174.622 108.417 174.683 108.258 174.751L108.201 174.781C108.247 174.754 108.353 174.724 108.201 174.781C108.137 174.803 107.823 174.819 108.008 174.837C107.918 174.829 107.829 174.808 107.743 174.777L107.668 174.743C107.759 174.796 107.762 174.796 107.668 174.743C107.668 174.72 107.577 174.66 107.668 174.762C107.823 174.917 107.687 174.781 107.668 174.743C107.819 174.952 107.933 175.186 108.004 175.435C108.511 176.924 108.651 178.541 108.852 180.094C109.321 183.71 109.682 187.338 109.934 190.978C110.051 192.687 110.101 194.402 110.241 196.111C110.315 197.488 110.54 198.852 110.91 200.181C111.239 201.235 111.883 202.6 113.18 202.592C114.569 202.592 115.189 201.254 115.643 200.158C115.746 199.913 115.844 199.667 115.942 199.421C115.942 199.391 116.048 199.172 115.988 199.315L116.01 199.263C116.079 199.123 116.143 198.979 116.219 198.843C116.294 198.707 116.332 198.658 116.389 198.56C116.491 198.378 116.222 198.699 116.43 198.529C116.353 198.596 116.26 198.641 116.159 198.66C116.059 198.68 115.956 198.672 115.859 198.639C115.587 198.563 115.613 198.526 115.712 198.582C115.81 198.639 115.746 198.65 115.685 198.556C115.625 198.461 115.628 198.522 115.685 198.575C115.742 198.628 115.602 198.458 115.606 198.465C115.655 198.563 115.727 198.654 115.783 198.752C115.84 198.851 115.958 199.13 115.859 198.896C116.07 199.445 116.234 200.012 116.347 200.589C116.613 201.977 116.771 203.383 116.82 204.795C116.934 206.67 117.045 208.543 117.153 210.415C117.579 217.792 117.968 225.171 118.318 232.554C118.49 236.245 118.651 239.942 118.803 243.646C118.883 245.528 118.96 247.41 119.034 249.292C119.064 250.085 119.102 250.879 119.102 251.676C119.102 252.032 119.102 252.391 119.083 252.75C119.083 252.923 119.071 253.097 119.049 253.271C119.049 253.449 119.011 253.694 119.007 253.717C118.964 254.02 118.899 254.319 118.814 254.613C118.777 254.741 118.733 254.867 118.682 254.991C118.78 254.76 118.598 255.112 118.564 255.168L120.865 255.467C119.673 251.786 119.351 247.886 119.075 244.05C118.776 239.692 118.553 235.331 118.296 230.974L117.857 223.48C117.839 223.158 117.699 222.856 117.465 222.635C117.231 222.413 116.921 222.29 116.599 222.29C116.277 222.29 115.967 222.413 115.733 222.635C115.499 222.856 115.358 223.158 115.341 223.48L113.884 245.648H116.396L115.329 233.071C114.989 229.088 114.766 225.074 114.255 221.11C113.994 219.077 113.642 217.066 112.791 215.184C112.65 214.946 112.435 214.761 112.179 214.657C111.922 214.553 111.639 214.537 111.372 214.61C111.108 214.685 110.876 214.844 110.71 215.062C110.543 215.28 110.452 215.545 110.449 215.819C110.431 223.188 110.016 230.55 109.208 237.875C109.087 238.963 108.96 240.05 108.829 241.136L111.171 240.505C110.986 240.226 110.823 239.933 110.683 239.628C110.536 239.311 110.409 238.984 110.305 238.649C110.053 237.813 109.86 236.961 109.726 236.098C109.446 234.199 109.273 232.285 109.208 230.365C108.992 225.989 108.829 221.613 108.659 217.236C108.33 208.215 108.099 199.191 108.042 190.166C108.012 185.152 108.042 180.136 108.133 175.117C108.163 173.5 105.651 173.5 105.617 175.117L105.621 175.102Z" fill="#1F307C"/>
<path d="M210.198 169.868C209.203 182.785 206.305 195.117 201.943 204.969C201.39 206.093 200.96 207.272 200.66 208.488C200.397 209.985 200.278 211.503 200.304 213.023L199.862 240.074C199.797 244.194 200.24 248.562 201.311 252.13C205.2 245.705 201.224 230.418 205.363 224.629C205.569 231.929 206.294 239.206 207.531 246.404C209.498 238.385 207.05 227.55 209.827 220.521L211.121 231.666C211.95 212.244 210.97 189.289 210.187 169.86" fill="#1F307C"/>
<path d="M208.939 169.868C208.121 180.404 206.071 190.952 202.291 200.857C201.882 201.919 201.47 202.943 201.039 203.934C200.456 205.136 199.965 206.38 199.57 207.656C199.249 209.007 199.081 210.39 199.071 211.779C199.026 213.257 199.018 214.738 198.995 216.216L198.708 233.872C198.655 237.092 198.496 240.327 198.674 243.543C198.808 246.561 199.285 249.553 200.096 252.462C200.168 252.696 200.305 252.904 200.491 253.061C200.678 253.219 200.906 253.32 201.148 253.351C201.391 253.383 201.637 253.344 201.858 253.239C202.078 253.134 202.264 252.968 202.393 252.761C203.236 251.258 203.784 249.609 204.009 247.901C204.303 245.887 204.459 243.855 204.474 241.82C204.516 239.749 204.474 237.663 204.516 235.611C204.516 234.628 204.553 233.646 204.606 232.667C204.633 232.198 204.667 231.726 204.709 231.261C204.727 231.03 204.75 230.804 204.777 230.577C204.777 230.467 204.803 230.354 204.815 230.244C204.826 230.135 204.814 230.097 204.845 230.021C204.822 230.173 204.822 230.176 204.845 230.021C204.973 229.101 205.174 228.193 205.446 227.304C205.514 227.093 205.59 226.885 205.666 226.677C205.689 226.62 205.817 226.329 205.666 226.635C205.715 226.526 205.764 226.416 205.817 226.306C205.994 225.94 206.2 225.589 206.434 225.256L204.092 224.621C204.307 232.033 205.046 239.421 206.305 246.729C206.521 247.973 208.45 247.863 208.73 246.729C210.388 239.855 209.109 232.716 209.866 225.755C209.947 224.947 210.073 224.145 210.244 223.351C210.432 222.498 210.685 221.66 211.001 220.845L208.53 220.513L209.877 231.665C209.887 231.995 210.023 232.308 210.256 232.541C210.49 232.774 210.803 232.91 211.133 232.92C211.465 232.915 211.781 232.781 212.016 232.547C212.25 232.313 212.384 231.997 212.389 231.665C212.73 223.687 212.768 215.702 212.654 207.72C212.544 199.501 212.276 191.285 211.977 183.069C211.81 178.664 211.636 174.262 211.455 169.86C211.437 169.539 211.297 169.236 211.063 169.015C210.829 168.794 210.519 168.671 210.197 168.671C209.874 168.671 209.564 168.794 209.33 169.015C209.096 169.236 208.956 169.539 208.939 169.86C209.26 177.842 209.589 185.824 209.828 193.809C210.074 202.021 210.233 210.241 210.18 218.461C210.153 222.864 210.062 227.266 209.877 231.665H212.389L211.084 220.502C211.074 220.203 210.959 219.917 210.759 219.695C210.559 219.474 210.286 219.33 209.99 219.29C209.693 219.25 209.392 219.317 209.14 219.478C208.888 219.638 208.701 219.883 208.613 220.169C207.414 223.249 207.202 226.658 207.134 229.931C207.062 233.494 207.228 237.066 207.039 240.626C206.976 242.453 206.735 244.269 206.32 246.049H208.746C207.531 238.962 206.82 231.797 206.619 224.61C206.611 224.338 206.515 224.077 206.346 223.864C206.178 223.651 205.945 223.497 205.683 223.427C205.42 223.356 205.142 223.371 204.889 223.471C204.636 223.57 204.421 223.748 204.277 223.978C203.382 225.36 202.793 226.916 202.548 228.544C202.226 230.505 202.056 232.489 202.041 234.477C201.939 238.517 202.174 242.591 201.689 246.612C201.689 246.646 201.633 247.02 201.689 246.725L201.644 247.058C201.602 247.307 201.561 247.561 201.515 247.814C201.424 248.294 201.318 248.77 201.186 249.242C201.054 249.715 200.91 250.115 200.743 250.546C200.861 250.244 200.743 250.546 200.724 250.592L200.528 250.939C200.429 251.128 200.327 251.313 200.221 251.495L202.518 251.793C201.818 249.327 201.386 246.793 201.228 244.235C201.031 241.408 201.141 238.566 201.186 235.751L201.474 218.09L201.546 213.771C201.527 212.399 201.586 211.028 201.723 209.663C202.041 207.187 203.346 204.958 204.262 202.664C206.11 197.982 207.591 193.164 208.693 188.254C210.063 182.204 210.985 176.061 211.451 169.875C211.448 169.543 211.315 169.226 211.08 168.991C210.845 168.757 210.527 168.624 210.195 168.621C209.863 168.626 209.546 168.76 209.312 168.994C209.077 169.228 208.942 169.544 208.935 169.875L208.939 169.868Z" fill="#1F307C"/>
<path d="M123.721 195.593C123.842 208.047 124.174 220.495 124.716 232.939C124.868 236.421 125.037 239.898 125.223 243.37C125.23 243.701 125.364 244.016 125.598 244.251C125.832 244.485 126.148 244.62 126.479 244.628C126.813 244.625 127.131 244.492 127.367 244.256C127.603 244.021 127.736 243.703 127.739 243.37C127.078 230.966 126.622 218.554 126.37 206.133C126.302 202.606 126.251 199.093 126.218 195.593C126.218 193.975 123.687 193.972 123.702 195.593H123.721Z" fill="#1F307C"/>
<path d="M215.726 177.369C215.847 185.102 215.942 192.835 216.01 200.57C216.078 208.305 216.125 216.041 216.15 223.778C216.165 228.122 216.165 232.461 216.15 236.797C216.15 238.415 218.666 238.419 218.666 236.797C218.666 229.06 218.646 221.324 218.606 213.589C218.565 205.855 218.498 198.118 218.405 190.381C218.352 186.048 218.293 181.71 218.227 177.369C218.204 175.756 215.688 175.748 215.711 177.369H215.726Z" fill="#1F307C"/>
<path d="M193.956 213.491C193.752 223.542 193.728 233.593 193.884 243.646C193.924 246.468 193.982 249.292 194.058 252.119C194.058 252.452 194.19 252.771 194.426 253.006C194.661 253.241 194.981 253.373 195.314 253.373C195.647 253.373 195.967 253.241 196.202 253.006C196.438 252.771 196.57 252.452 196.57 252.119C196.318 242.069 196.242 232.018 196.343 221.968C196.368 219.141 196.411 216.316 196.472 213.491C196.481 213.321 196.456 213.15 196.397 212.989C196.338 212.829 196.247 212.682 196.129 212.557C196.011 212.433 195.869 212.334 195.712 212.267C195.555 212.199 195.385 212.164 195.214 212.164C195.043 212.164 194.873 212.199 194.716 212.267C194.558 212.334 194.417 212.433 194.299 212.557C194.181 212.682 194.09 212.829 194.031 212.989C193.972 213.15 193.946 213.321 193.956 213.491Z" fill="#1F307C"/>
<path d="M112.065 139.377V160.45C107.929 160.45 104.573 155.733 104.573 149.913C104.573 144.093 107.929 139.377 112.065 139.377Z" fill="#E28281" stroke="#110002" stroke-width="4" stroke-miterlimit="10"/>
<path d="M205.941 138.319V159.388C207.343 159.415 208.736 159.162 210.039 158.644C211.342 158.127 212.528 157.355 213.529 156.374C214.53 155.394 215.325 154.223 215.868 152.932C216.41 151.641 216.69 150.254 216.69 148.854C216.69 147.453 216.41 146.067 215.868 144.776C215.325 143.484 214.53 142.314 213.529 141.333C212.528 140.352 211.342 139.581 210.039 139.063C208.736 138.546 207.343 138.293 205.941 138.319Z" fill="#E28281" stroke="#110002" stroke-width="4" stroke-miterlimit="10"/>
<path d="M205.65 222.618H113.57V331.905H205.65V222.618Z" fill="#FEB20E" stroke="#110002" stroke-width="4" stroke-miterlimit="10"/>
<path d="M184.065 220.543C184.065 210.243 172.67 201.893 158.613 201.893C144.556 201.893 133.161 210.243 133.161 220.543C133.161 230.843 144.556 239.193 158.613 239.193C172.67 239.193 184.065 230.843 184.065 220.543Z" fill="#F43518" stroke="#110002" stroke-width="4" stroke-miterlimit="10"/>
<path d="M139.832 199.784H178.046V212.77C178.046 215.107 177.585 217.421 176.69 219.58C175.794 221.739 174.482 223.701 172.827 225.353C171.173 227.006 169.209 228.317 167.047 229.211C164.886 230.106 162.569 230.566 160.229 230.566H157.634C152.911 230.562 148.383 228.685 145.045 225.348C141.707 222.011 139.832 217.487 139.832 212.77V199.784Z" fill="#E28281" stroke="#110002" stroke-width="4" stroke-miterlimit="10"/>
<path d="M159.132 204.553C186.255 204.553 208.242 178.288 208.242 145.889C208.242 113.489 186.255 87.2241 159.132 87.2241C132.009 87.2241 110.021 113.489 110.021 145.889C110.021 178.288 132.009 204.553 159.132 204.553Z" fill="#E28281" stroke="#110002" stroke-width="4" stroke-miterlimit="10"/>
<path d="M128.542 141.69C130.76 139.944 133.526 139.042 136.347 139.143C138.864 139.172 141.305 140.01 143.309 141.531" stroke="#110002" stroke-width="4" stroke-miterlimit="10" stroke-linecap="round"/>
<path d="M171.708 141.69C173.926 139.945 176.692 139.042 179.513 139.143C182.031 139.172 184.471 140.01 186.475 141.531" stroke="#110002" stroke-width="4" stroke-miterlimit="10" stroke-linecap="round"/>
<path d="M153.274 172.366C152.335 171.95 151.555 171.242 151.05 170.348C150.696 169.702 150.499 168.982 150.475 168.247L153.672 151.924" stroke="#110002" stroke-width="4" stroke-miterlimit="10" stroke-linecap="round"/>
<path d="M149.253 180.468C153.223 181.887 157.457 182.412 161.653 182.006C165.85 181.601 169.905 180.274 173.528 178.122" stroke="#110002" stroke-width="4" stroke-miterlimit="10" stroke-linecap="round"/>
<path d="M136.668 156.671C139.341 156.671 141.507 154.507 141.507 151.838C141.507 149.168 139.341 147.004 136.668 147.004C133.996 147.004 131.829 149.168 131.829 151.838C131.829 154.507 133.996 156.671 136.668 156.671Z" fill="#110002"/>
<path d="M133.843 150.413C132.988 150.589 132.099 150.455 131.334 150.035C130.901 149.811 130.505 149.522 130.161 149.177" stroke="#110002" stroke-width="2.5" stroke-miterlimit="10" stroke-linecap="round"/>
<path d="M206.233 131.728C199.514 130.016 193.793 128.833 189.503 128.028C181.655 126.554 174.047 125.145 164.043 124.805C160.767 124.695 157.611 124.703 154.603 124.805L151.493 114.567L147.668 124.805C146.09 124.805 143.884 124.865 141.217 125.043C136.062 125.299 130.941 126.018 125.916 127.193C120.769 128.449 115.774 130.263 111.021 132.601L120.612 93.5658L153.487 83.1616L176.404 86.1661L206.233 103.044V131.728Z" fill="#110002" stroke="#110002" stroke-width="4.43" stroke-miterlimit="10" stroke-linecap="round"/>
<path d="M158.879 94.1212C184.962 94.1212 206.305 114.053 208.106 139.294C208.186 138.16 208.242 137.004 208.242 135.844C208.242 108.992 186.143 87.2241 158.879 87.2241C131.614 87.2241 109.515 108.992 109.515 135.844C109.515 137.004 109.571 138.153 109.655 139.294C111.452 114.053 132.802 94.1212 158.879 94.1212Z" fill="#FEB20E" stroke="#110002" stroke-width="2" stroke-miterlimit="10"/>
<path d="M157.728 107.537L160.928 117.783C161.144 118.474 161.617 119.294 162.143 119.007C162.521 118.792 162.574 118.172 162.586 117.654L162.673 113.837C164.613 115.337 166.201 117.243 167.323 119.423C168.583 119.158 167.807 115.984 168.972 115.319C169.824 114.831 170.55 116.218 170.936 117.31C171.322 118.403 172.366 119.578 173.024 118.743C173.581 118.021 173.372 116.226 174.159 116.313C174.405 116.339 174.595 116.592 174.757 116.83L177.447 120.749C177.47 120.443 177.571 120.147 177.74 119.891C177.91 119.634 178.142 119.426 178.415 119.284C178.688 119.143 178.993 119.074 179.301 119.083C179.608 119.093 179.908 119.181 180.172 119.34C181.216 119.948 181.92 121.229 182.82 122.144C180.527 117.493 178.082 112.977 175.484 108.596C174.315 106.623 172.782 104.48 170.864 104.688L172.491 109.54C172.582 109.751 172.615 109.982 172.586 110.209C172.472 110.742 171.87 110.682 171.473 110.47C169.961 109.64 168.665 108.467 167.69 107.046C167.217 106.377 166.774 105.625 166.142 105.228C165.991 105.12 165.818 105.048 165.635 105.016C165.452 104.984 165.264 104.994 165.085 105.045C164.907 105.096 164.742 105.186 164.603 105.31C164.465 105.433 164.356 105.586 164.284 105.757C163.967 106.536 164.326 107.522 164.095 108.354C164.018 108.699 163.817 109.004 163.531 109.213C163.245 109.421 162.893 109.519 162.54 109.487C161.86 109.325 161.268 108.91 160.883 108.327C160.384 107.692 159.945 106.91 159.286 106.604C159.11 106.534 158.918 106.51 158.73 106.535C158.542 106.56 158.363 106.633 158.211 106.747C158.059 106.861 157.939 107.012 157.863 107.185C157.786 107.359 157.755 107.549 157.773 107.738" fill="#1F307C"/>
<path d="M156.514 107.87L158.144 113.085C158.685 114.82 159.151 116.608 159.786 118.312C160.082 119.113 160.543 119.982 161.428 120.254C162.427 120.557 163.32 119.877 163.653 118.954C163.91 118.199 163.85 117.348 163.869 116.562L163.933 113.837L162.041 114.922C163.789 116.325 165.222 118.08 166.245 120.073C166.387 120.309 166.603 120.493 166.858 120.597C167.114 120.7 167.397 120.718 167.664 120.648C169.086 120.27 169.298 118.758 169.446 117.537C169.446 117.42 169.472 117.303 169.487 117.186C169.514 116.948 169.487 117.186 169.487 117.224C169.487 117.159 169.506 117.095 169.518 117.031C169.535 116.903 169.56 116.777 169.593 116.653C169.593 116.585 169.737 116.226 169.665 116.388C169.593 116.551 169.665 116.388 169.688 116.358C169.748 116.249 169.801 116.29 169.688 116.328L169.639 116.396C169.709 116.325 169.702 116.325 169.616 116.396C169.416 116.543 169.726 116.377 169.556 116.434C169.4 116.473 169.238 116.473 169.083 116.434C168.992 116.434 168.965 116.339 169.083 116.434C169.283 116.604 169.041 116.324 169.196 116.566C169.62 117.235 169.726 117.843 170.142 118.577C170.558 119.31 171.186 120.024 172.003 120.228C172.444 120.332 172.908 120.282 173.316 120.086C173.724 119.89 174.053 119.56 174.247 119.151C174.488 118.562 174.666 117.949 174.777 117.322C174.792 117.278 174.804 117.234 174.815 117.19C174.852 116.955 174.697 117.36 174.815 117.19C174.749 117.299 174.655 117.389 174.542 117.45L174.088 117.567C173.627 117.31 173.479 117.265 173.649 117.435C173.746 117.606 173.857 117.768 173.982 117.919L174.451 118.595L176.366 121.373C176.51 121.604 176.725 121.782 176.978 121.881C177.232 121.98 177.51 121.996 177.773 121.924C178.036 121.853 178.268 121.699 178.437 121.486C178.605 121.272 178.7 121.01 178.708 120.738C178.678 121.048 178.802 120.47 178.731 120.651C178.659 120.833 178.961 120.33 178.731 120.595C178.761 120.557 179.003 120.345 178.776 120.515C178.859 120.457 178.947 120.404 179.037 120.357C178.78 120.496 179.139 120.357 179.219 120.326C179.007 120.375 179.151 120.349 179.287 120.326C179.54 120.307 179.117 120.251 179.355 120.326L179.552 120.387C179.427 120.334 179.404 120.326 179.484 120.368C179.932 120.673 180.327 121.049 180.653 121.483C181.073 121.989 181.466 122.522 181.92 122.994C182.136 123.208 182.423 123.336 182.726 123.354C183.03 123.372 183.33 123.279 183.57 123.093C183.808 122.906 183.972 122.64 184.031 122.344C184.091 122.047 184.043 121.739 183.895 121.475C182.483 118.618 181.008 115.795 179.472 113.006C178.7 111.613 177.912 110.227 177.107 108.849C176.427 107.597 175.629 106.412 174.724 105.312C173.755 104.204 172.389 103.263 170.853 103.392C170.097 103.456 169.34 104.148 169.639 104.983L170.8 108.448L171.035 109.14C171.107 109.433 171.201 109.72 171.319 109.998C171.461 109.812 171.594 109.619 171.716 109.42L172.075 109.325C171.95 109.325 171.939 109.325 172.034 109.325C172.212 109.325 171.826 109.208 172.098 109.344C171.966 109.276 171.833 109.2 171.72 109.125C170.927 108.65 170.209 108.06 169.59 107.375C168.871 106.596 168.364 105.667 167.668 104.869C167.342 104.451 166.91 104.128 166.417 103.934C165.924 103.74 165.387 103.682 164.864 103.766C163.661 104.004 163.006 105.066 162.9 106.215C162.855 106.71 162.938 107.205 162.9 107.7C162.9 107.84 162.875 107.978 162.825 108.108C162.893 107.919 162.666 108.29 162.802 108.108L162.715 108.195C162.806 108.119 162.791 108.123 162.669 108.195C162.874 108.195 162.579 108.138 162.639 108.195H162.749C162.62 108.195 162.598 108.195 162.677 108.195C162.817 108.271 162.473 108.108 162.628 108.195C162.542 108.152 162.458 108.104 162.378 108.051C162.078 107.804 161.817 107.514 161.602 107.19C160.914 106.245 160.089 105.153 158.765 105.225C158.137 105.259 157.547 105.538 157.123 106.001C156.699 106.465 156.473 107.076 156.495 107.704C156.501 108.035 156.636 108.352 156.871 108.586C157.106 108.821 157.423 108.955 157.755 108.962C158.087 108.958 158.405 108.824 158.64 108.589C158.875 108.354 159.008 108.036 159.011 107.704C159.011 107.432 158.897 107.791 159.011 107.568C158.973 107.636 158.954 107.674 158.909 107.745C159.068 107.496 158.939 107.772 158.909 107.745L159.003 107.692C158.863 107.749 158.863 107.757 159.003 107.715C158.917 107.726 158.829 107.726 158.742 107.715C158.935 107.715 158.814 107.745 158.742 107.715C158.999 107.859 158.697 107.621 158.905 107.84C159.003 107.942 159.098 108.04 159.189 108.146C159.752 108.826 160.324 109.797 161.228 110.308C161.732 110.615 162.322 110.751 162.91 110.696C163.497 110.641 164.052 110.397 164.489 110.002C165.394 109.159 165.424 108.014 165.386 106.865C165.386 106.736 165.386 106.608 165.386 106.487C165.386 106.215 165.386 106.313 165.386 106.373L165.42 106.23C165.386 106.294 165.39 106.29 165.42 106.23L165.45 106.177C165.422 106.236 165.372 106.282 165.31 106.305C165.537 106.124 165.329 106.324 165.31 106.305L165.413 106.275C165.269 106.275 165.246 106.294 165.341 106.275H165.394C165.237 106.245 165.237 106.245 165.394 106.275C165.55 106.305 165.569 106.305 165.45 106.275C165.367 106.241 165.382 106.253 165.496 106.313C165.751 106.558 165.985 106.823 166.196 107.107C166.532 107.587 166.865 108.067 167.232 108.524C167.911 109.364 168.696 110.114 169.567 110.754C170.392 111.366 171.432 112.084 172.514 111.823C172.879 111.731 173.204 111.524 173.442 111.234C173.68 110.943 173.819 110.584 173.838 110.209C173.884 109.529 173.593 108.887 173.381 108.256L172.072 104.355L170.861 105.946C171.023 105.929 171.187 105.929 171.349 105.946C171.095 105.916 171.557 106.014 171.606 106.033H171.648C171.723 106.071 171.795 106.109 171.871 106.154C171.947 106.2 172.249 106.419 172.151 106.332C172.707 106.789 173.189 107.328 173.581 107.93C174.599 109.408 175.454 111.007 176.336 112.564C178.23 115.912 180.028 119.313 181.731 122.768L183.706 121.256C182.571 120.069 181.648 118.233 179.881 117.908C179.064 117.74 178.214 117.901 177.516 118.357C177.128 118.629 176.806 118.986 176.577 119.4C176.347 119.815 176.216 120.276 176.192 120.75L178.534 120.118L176.771 117.564C176.199 116.732 175.598 115.417 174.55 115.134C173.502 114.85 172.753 115.512 172.427 116.411C172.343 116.673 172.276 116.941 172.227 117.212C172.196 117.348 172.17 117.488 172.136 117.628C172.102 117.768 171.954 118.187 172.072 117.896C171.981 118.123 171.966 117.987 172.143 117.896C172.31 117.83 172.491 117.804 172.669 117.821C172.824 117.821 172.741 117.987 172.692 117.821C172.692 117.821 172.9 118.04 172.673 117.821C172.616 117.756 172.556 117.7 172.499 117.635C172.601 117.753 172.465 117.586 172.454 117.571C172.378 117.454 172.31 117.333 172.242 117.212C172.132 117.023 171.966 116.528 171.818 116.192C171.659 115.812 171.456 115.451 171.213 115.119C170.622 114.332 169.745 113.773 168.734 114.087C168.368 114.224 168.039 114.447 167.775 114.737C167.512 115.027 167.322 115.375 167.221 115.753C167.042 116.422 166.929 117.107 166.884 117.798C166.926 117.462 166.858 117.942 166.843 118.025C166.812 118.165 166.763 118.301 166.733 118.44C166.733 118.52 166.619 118.648 166.771 118.354C166.706 118.478 166.589 118.52 166.816 118.335C166.71 118.418 167.115 118.206 166.979 118.244L168.398 118.818C167.157 116.457 165.417 114.394 163.298 112.772C162.499 112.163 161.425 113.002 161.406 113.856L161.368 116.022C161.386 116.701 161.365 117.381 161.307 118.059C161.338 117.843 161.251 118.236 161.251 118.233C161.058 117.798 162.605 117.855 162.306 117.919C162.378 117.9 162.529 118.221 162.355 117.919C162.333 117.881 162.208 117.651 162.227 117.692C161.984 117.054 161.778 116.403 161.61 115.742L158.939 107.205C158.851 106.884 158.638 106.611 158.348 106.446C158.058 106.281 157.715 106.238 157.393 106.326C157.072 106.414 156.798 106.627 156.633 106.916C156.468 107.206 156.425 107.549 156.514 107.87Z" fill="#1F307C"/>
<path d="M181.413 106.419L185.37 114.355C187.262 118.134 189.188 121.966 192.211 124.937C193.036 123.561 192.362 121.841 191.833 120.337C191.674 119.88 191.727 119.143 192.211 119.181C192.476 119.2 192.639 119.464 192.76 119.699C193.442 121.032 194.222 122.313 195.094 123.531C195.495 123.089 195.227 122.397 194.943 121.875L192.317 117.065C190.592 113.909 188.87 110.753 186.956 107.703C186.48 106.838 185.837 106.077 185.064 105.462C184.254 104.896 183.123 104.657 182.249 105.13C181.375 105.602 180.675 105.735 181.39 106.415" fill="#1F307C"/>
<path d="M180.327 107.05C182.034 110.47 183.702 113.909 185.462 117.303C187.051 120.372 188.867 123.373 191.322 125.829C191.46 125.962 191.625 126.063 191.807 126.123C191.989 126.183 192.182 126.202 192.372 126.177C192.562 126.152 192.744 126.085 192.904 125.98C193.064 125.876 193.199 125.736 193.297 125.572C194.289 123.803 193.74 121.687 193.021 119.903C192.949 119.729 193.059 119.869 193.021 119.926V119.816L192.995 119.949L193.017 119.854C192.945 120.138 192.715 120.232 192.317 120.115C192.052 120.338 191.829 120.372 191.651 120.225C191.617 120.19 191.621 120.225 191.651 120.266C191.745 120.501 191.864 120.726 192.007 120.935C192.117 121.135 192.227 121.339 192.34 121.54C192.855 122.439 193.418 123.312 194.02 124.159C194.622 125.005 195.594 124.915 196.192 124.159C196.892 123.244 196.483 122.054 195.995 121.158C195.507 120.262 195.004 119.34 194.508 118.429C193.502 116.585 192.499 114.737 191.481 112.9C190.463 111.064 189.408 109.238 188.299 107.451C187.3 105.837 186.12 104.049 184.107 103.702C182.938 103.486 182.003 103.83 180.978 104.371C180.729 104.483 180.506 104.644 180.323 104.846C180.139 105.047 179.999 105.284 179.911 105.542C179.85 105.863 179.874 106.193 179.982 106.501C180.089 106.809 180.276 107.083 180.524 107.296C181.659 108.456 183.43 106.676 182.302 105.52C182.113 105.327 182.302 105.391 182.344 105.69C182.292 106.006 182.207 106.317 182.09 106.616C182.09 106.616 182 106.653 182.14 106.597C182.218 106.562 182.293 106.523 182.367 106.48C182.603 106.333 182.857 106.219 183.123 106.139C183.101 106.139 182.976 106.139 183.123 106.139C183.216 106.132 183.31 106.132 183.403 106.139C183.48 106.138 183.557 106.15 183.63 106.173C183.924 106.232 184.2 106.362 184.432 106.551C184.905 106.946 185.306 107.419 185.617 107.95C186.052 108.615 186.46 109.295 186.873 109.979C188.628 112.904 190.248 115.912 191.882 118.906L193.241 121.392C193.456 121.789 193.679 122.178 193.888 122.575C193.967 122.734 193.929 122.794 194.027 122.953C194.126 123.112 194.058 122.995 194.027 122.953C193.997 122.912 194.198 122.655 193.997 122.915H196.169C195.449 121.907 194.79 120.857 194.194 119.771C193.891 119.212 193.638 118.554 193.059 118.206C192.739 118.008 192.362 117.922 191.988 117.962C191.614 118.002 191.264 118.165 190.993 118.426C190.096 119.321 190.558 120.568 190.895 121.585C191.065 122.077 191.191 122.583 191.273 123.097C191.308 123.347 191.308 123.602 191.273 123.853C191.292 123.724 191.194 124.102 191.197 124.091C191.172 124.18 191.131 124.265 191.076 124.34L193.051 124.087C190.694 121.74 189.022 118.86 187.508 115.924C185.779 112.575 184.13 109.189 182.45 105.818C182.367 105.676 182.256 105.551 182.125 105.451C181.993 105.352 181.843 105.279 181.684 105.237C181.524 105.195 181.358 105.185 181.194 105.207C181.03 105.229 180.873 105.283 180.73 105.367C180.588 105.45 180.463 105.56 180.363 105.691C180.263 105.823 180.19 105.972 180.148 106.132C180.106 106.291 180.096 106.458 180.118 106.621C180.141 106.784 180.195 106.942 180.278 107.084L180.327 107.05Z" fill="#1F307C"/>
<path d="M128.379 109.877C126.319 112.337 124.542 115.02 123.082 117.877C122.099 119.718 121.217 121.713 121.293 123.799C121.784 123.882 122.133 123.357 122.363 122.915C123.47 120.785 124.956 118.874 126.749 117.276C126.979 117.072 127.301 116.861 127.577 117.004C127.681 117.084 127.761 117.191 127.807 117.313C127.854 117.435 127.866 117.567 127.842 117.696C127.781 118.694 127.187 119.567 126.707 120.447C126.226 121.328 125.874 122.397 126.283 123.308C126.351 123.459 126.48 123.618 126.643 123.599C126.805 123.58 126.854 123.463 126.923 123.353L130.014 118.44C131.905 115.443 133.797 112.394 134.83 109.019C134.974 108.543 135.05 107.912 134.622 107.662C134.458 107.581 134.276 107.542 134.092 107.549C131.905 107.45 129.318 107.927 128.372 109.896" fill="#1F307C"/>
<path d="M127.505 108.988C125.741 111.075 124.18 113.325 122.844 115.708C121.436 118.191 119.964 120.859 120.033 123.799C120.041 124.13 120.177 124.445 120.411 124.68C120.646 124.914 120.961 125.049 121.292 125.058C122.208 125.118 122.927 124.461 123.358 123.716C123.737 123.058 124.085 122.393 124.493 121.758C125.308 120.54 126.266 119.424 127.346 118.433L127.505 118.289C127.569 118.229 127.588 118.157 127.585 118.21C127.585 118.157 126.404 117.786 126.571 117.601C126.552 117.624 126.548 117.847 126.529 117.919C126.488 118.094 126.432 118.266 126.362 118.433C126.082 119.098 125.632 119.733 125.337 120.409C124.923 121.256 124.776 122.209 124.913 123.142C125.099 124.154 125.901 125.122 127.028 124.804C127.944 124.547 128.432 123.319 128.92 122.575L130.365 120.266C131.251 118.852 132.151 117.443 132.991 115.999C133.847 114.557 134.605 113.059 135.261 111.517C135.802 110.232 136.896 108.078 135.64 106.876C134.97 106.23 134.001 106.252 133.131 106.286C132.365 106.31 131.604 106.418 130.861 106.608C129.385 106.985 127.993 107.862 127.289 109.253C127.128 109.542 127.085 109.883 127.169 110.203C127.253 110.523 127.457 110.799 127.74 110.973C128.028 111.137 128.37 111.183 128.692 111.099C129.014 111.015 129.29 110.808 129.461 110.523C129.524 110.392 129.594 110.266 129.673 110.145C129.673 110.118 129.839 109.918 129.752 110.028C129.665 110.137 129.805 109.975 129.809 109.971C129.911 109.873 130.006 109.771 130.108 109.68C130.21 109.589 129.976 109.771 130.138 109.654C130.222 109.593 130.305 109.54 130.392 109.487C130.479 109.434 130.642 109.347 130.77 109.283L130.941 109.204C130.884 109.227 130.755 109.268 130.99 109.204C131.292 109.098 131.6 109.01 131.913 108.943C132.06 108.913 132.208 108.883 132.359 108.86C132.159 108.894 132.556 108.841 132.613 108.837C132.934 108.807 133.264 108.796 133.589 108.796H134.035C134.202 108.796 134.274 108.902 134.115 108.773C133.956 108.645 133.85 108.663 133.763 108.52C133.728 108.454 133.705 108.382 133.695 108.308C133.695 108.342 133.695 108.565 133.695 108.335C133.664 108.507 133.618 108.676 133.559 108.841C132.571 111.982 130.793 114.808 129.056 117.582L127.441 120.179L126.642 121.448L126.196 122.167L126.045 122.405C126.045 122.427 125.761 122.783 125.874 122.669L126.431 122.344L126.317 122.39H126.983C127.392 122.922 127.532 123.021 127.399 122.684C127.361 122.526 127.35 122.484 127.373 122.567C127.355 122.442 127.355 122.315 127.373 122.189C127.43 121.874 127.533 121.568 127.679 121.282C128.057 120.526 128.496 119.854 128.791 119.075C129.087 118.297 129.261 117.356 128.856 116.6C128.736 116.387 128.573 116.201 128.377 116.054C128.181 115.907 127.957 115.802 127.718 115.747C127.48 115.692 127.232 115.686 126.992 115.732C126.751 115.777 126.523 115.872 126.321 116.01C125.677 116.463 125.094 116.998 124.588 117.601C124.043 118.186 123.529 118.799 123.048 119.438C122.596 120.033 122.178 120.652 121.796 121.294C121.607 121.611 121.417 121.94 121.251 122.269C121.228 122.314 121.031 122.696 121.096 122.56C120.986 122.665 120.978 122.681 121.096 122.609C121.444 122.563 121.508 122.537 121.285 122.533L122.541 123.788C122.481 121.26 123.873 118.954 125.087 116.823C126.29 114.673 127.693 112.641 129.276 110.753C129.504 110.514 129.631 110.196 129.631 109.865C129.631 109.535 129.504 109.217 129.276 108.977C129.038 108.745 128.719 108.615 128.387 108.615C128.054 108.615 127.735 108.745 127.497 108.977L127.505 108.988Z" fill="#1F307C"/>
<path d="M141.553 109.54C140.15 113.456 138.889 117.416 137.769 121.422C137.697 121.675 137.709 122.061 137.974 122.08C138.159 122.08 138.276 121.887 138.352 121.702C139.986 117.821 142.446 114.351 144.882 110.916C145.159 110.538 145.442 110.028 145.208 109.616C144.973 109.204 144.33 109.196 143.834 109.276C143.108 109.385 142.283 109.416 141.564 109.525" fill="#1F307C"/>
<path d="M140.343 109.219C139.495 111.582 138.7 113.96 137.955 116.351C137.575 117.575 137.208 118.806 136.854 120.043C136.648 120.59 136.521 121.164 136.476 121.747C136.467 122.127 136.597 122.497 136.842 122.788C137.088 123.078 137.431 123.269 137.808 123.323C139.321 123.497 139.7 121.679 140.229 120.632C140.759 119.586 141.334 118.546 141.947 117.537C143.181 115.512 144.558 113.584 145.92 111.645C146.157 111.358 146.331 111.024 146.431 110.666C146.531 110.307 146.556 109.932 146.502 109.563C146.42 109.21 146.242 108.886 145.987 108.627C145.733 108.368 145.413 108.183 145.061 108.093C144.497 107.985 143.918 107.985 143.355 108.093C142.643 108.172 141.932 108.225 141.224 108.327C140.517 108.429 140.184 109.276 140.347 109.873C140.543 110.595 141.217 110.848 141.894 110.75C142.571 110.652 143.321 110.61 144.009 110.519C144.387 110.47 143.899 110.497 144.194 110.519C144.275 110.514 144.356 110.514 144.437 110.519C144.318 110.497 144.303 110.497 144.391 110.519C144.48 110.542 144.464 110.534 144.346 110.497C144.232 110.434 144.142 110.334 144.09 110.215C144.039 110.095 144.029 109.961 144.062 109.835C144.092 109.835 143.952 110.077 143.96 110.07C143.203 111.309 142.276 112.454 141.467 113.652C140.657 114.85 139.847 116.112 139.117 117.39C138.739 118.04 138.391 118.697 138.058 119.37C137.906 119.68 137.755 119.99 137.611 120.304C137.539 120.462 137.471 120.621 137.403 120.78C137.335 120.939 137.308 120.991 137.267 121.097C137.126 121.349 137.252 121.277 137.645 120.882H138.311L138.224 120.859L138.78 121.18L138.996 121.751V121.645C138.977 121.8 138.996 121.815 138.996 121.683C138.996 121.626 139.03 121.566 139.045 121.505L139.272 120.712C139.412 120.213 139.56 119.714 139.707 119.2C140.023 118.144 140.345 117.093 140.676 116.044C141.332 113.976 142.027 111.92 142.761 109.877C142.805 109.718 142.817 109.552 142.796 109.388C142.776 109.224 142.724 109.066 142.642 108.922C142.561 108.779 142.452 108.653 142.321 108.551C142.191 108.45 142.042 108.375 141.883 108.331C141.724 108.287 141.557 108.275 141.393 108.295C141.229 108.316 141.071 108.368 140.927 108.449C140.784 108.531 140.657 108.64 140.556 108.77C140.454 108.9 140.379 109.049 140.335 109.208L140.343 109.219Z" fill="#1F307C"/>
<path d="M179.922 156.671C182.595 156.671 184.761 154.507 184.761 151.838C184.761 149.168 182.595 147.004 179.922 147.004C177.25 147.004 175.083 149.168 175.083 151.838C175.083 154.507 177.25 156.671 179.922 156.671Z" fill="#110002"/>
<path d="M177.096 150.413C176.241 150.589 175.352 150.455 174.587 150.035C174.155 149.811 173.76 149.522 173.418 149.177" stroke="#110002" stroke-width="2.5" stroke-miterlimit="10" stroke-linecap="round"/>
<path d="M108.512 222.92H113.26V331.905H86.5898V244.817C86.5898 239.01 88.8995 233.44 93.0106 229.334C97.1217 225.227 102.698 222.92 108.512 222.92Z" fill="#E28281" stroke="#110002" stroke-width="4" stroke-miterlimit="10"/>
<path d="M230.879 331.905H205.125V222.769H209.324C215.044 222.769 220.53 225.039 224.574 229.079C228.618 233.118 230.891 238.598 230.891 244.311V331.905H230.879Z" fill="#E28281" stroke="#110002" stroke-width="4" stroke-miterlimit="10"/>
<path d="M159.457 320.571C175.182 320.571 187.929 307.839 187.929 292.133C187.929 276.427 175.182 263.694 159.457 263.694C143.733 263.694 130.986 276.427 130.986 292.133C130.986 307.839 143.733 320.571 159.457 320.571Z" fill="#FFEADF" stroke="#110002" stroke-width="8.86" stroke-miterlimit="10"/>
<path d="M60.4037 244.394H257.129C260.139 244.394 263.027 245.589 265.155 247.715C267.284 249.841 268.48 252.725 268.48 255.732V336.089H49.0645V255.72C49.0675 252.717 50.2631 249.838 52.389 247.715C54.5148 245.591 57.3973 244.397 60.4037 244.394Z" fill="#CCCCCC" stroke="#110002" stroke-width="4" stroke-miterlimit="10"/>
<path d="M158.254 300.224C159.048 301.233 159.922 302.208 160.842 303.168C162.238 304.638 163.747 306.07 165.174 307.476C165.586 307.892 165.995 308.296 166.403 308.697C166.403 308.697 166.422 308.697 166.422 308.727C167.706 309.996 168.901 311.352 169.998 312.786C171.178 314.407 171.992 316.036 172.185 317.669C172.34 316.289 172.383 314.899 172.313 313.512C172.284 312.545 172.202 311.582 172.067 310.624C172.011 310.246 171.95 309.868 171.89 309.491C171.732 308.598 171.525 307.715 171.269 306.845C170.747 305.047 169.966 303.335 168.95 301.762C168.425 300.957 167.833 300.199 167.179 299.495C160.584 292.518 155.855 290.927 155.73 286.796C155.73 286.796 153.653 292.934 157.221 298.776C157.533 299.281 157.878 299.764 158.254 300.224Z" fill="white"/>
<path d="M175.478 307.711C175.399 308.49 175.304 309.223 175.195 309.873C174.381 314.831 172.584 316.993 170.783 318.599C170.355 315.61 169.016 312.035 166.008 307.95C165.077 306.698 164.078 305.498 163.015 304.355C162.89 304.212 162.747 304.068 162.618 303.925C161.861 303.131 161.044 302.322 160.151 301.495C159.054 300.459 157.908 299.427 156.825 298.347C155.466 297.035 154.254 295.579 153.212 294.004C151.063 290.663 150.03 286.593 151.653 281C151.653 281 145.955 288.66 151.192 299.775C151.211 299.808 151.233 299.839 151.256 299.87L151.173 299.79C149.455 297.594 146.606 295.066 144.457 294.178C146.909 299.582 144.491 304.544 142.788 307.326C140.96 310.307 139.994 313.735 140 317.231C140.004 318.178 140.073 319.124 140.208 320.062C140.318 320.727 140.446 321.381 140.621 322.031C140.918 323.185 141.323 324.309 141.831 325.387C142.162 326.068 142.529 326.731 142.928 327.375L143.167 327.753C145.455 331.199 148.8 333.812 152.701 335.198C154.182 335.722 155.723 336.058 157.287 336.199C157.879 336.258 158.474 336.284 159.069 336.278C160.071 336.277 161.071 336.203 162.062 336.055C159.44 334.904 157.14 333.131 155.361 330.889C158.002 332.741 161.184 333.665 164.407 333.516C167.63 333.366 170.712 332.153 173.17 330.065L173.25 329.986C170.947 331.307 168.312 331.935 165.66 331.796C162.158 331.619 158.85 330.133 156.393 327.633C153.937 325.133 152.511 321.802 152.399 318.301C152.35 316.795 152.55 315.291 152.989 313.849L152.8 313.735L152.001 313.278C151.94 313.244 151.889 313.194 151.852 313.135C151.816 313.075 151.795 313.007 151.792 312.937C151.789 312.867 151.804 312.797 151.835 312.735C151.866 312.672 151.913 312.619 151.971 312.579L154.007 311.26L157.908 308.743C157.972 308.703 158.047 308.681 158.123 308.68C158.2 308.679 158.275 308.7 158.341 308.739C158.406 308.778 158.46 308.834 158.496 308.901C158.531 308.969 158.548 309.045 158.543 309.121L158.195 316.154C158.191 316.225 158.169 316.293 158.131 316.353C158.093 316.412 158.041 316.461 157.978 316.494C157.916 316.528 157.846 316.545 157.775 316.543C157.705 316.542 157.636 316.522 157.575 316.487L156.553 315.912C155.835 318.652 156.21 321.564 157.6 324.032C158.99 326.5 161.287 328.333 164.004 329.142C166.721 329.951 169.647 329.674 172.163 328.369C174.68 327.064 176.59 324.833 177.491 322.148C178.293 319.749 178.528 317.197 178.177 314.693C177.827 312.188 176.9 309.799 175.471 307.711H175.478Z" fill="white"/>
<path d="M306.803 17.0518H16.0605V336.334H306.803V17.0518Z" stroke="#110002" stroke-width="4" stroke-miterlimit="10"/>
</g>
<defs>
<clipPath id="clip0_1594_5883">
<rect width="324" height="353.908" fill="white"/>
</clipPath>
</defs>
</svg>
