<svg width="100" height="100" viewBox="0 0 100 100" fill="none" xmlns="http://www.w3.org/2000/svg">
<path fill-rule="evenodd" clip-rule="evenodd" d="M49.9989 8.33247C72.9743 8.33247 91.6654 23.5012 91.6654 42.1459C91.6654 49.6072 88.7722 56.3277 82.734 62.9502H82.7359C73.994 73.011 54.4456 85.2667 49.9989 87.141C45.6744 88.9627 46.1752 86.1125 46.3731 84.9861C46.3787 84.9541 46.3841 84.9236 46.3891 84.8945C46.4953 84.2677 46.9843 81.3273 46.9843 81.3273C47.1241 80.2635 47.2694 78.613 46.8491 77.5601C46.3824 76.4002 44.5352 75.7984 43.1788 75.5051C23.1552 72.8591 8.33203 58.8604 8.33203 42.1459C8.33203 23.5012 27.0251 8.33247 49.9989 8.33247ZM41.5496 33.1367H38.5952C38.1558 33.1367 37.7992 33.4933 37.7992 33.9323V52.1168C37.7992 52.5562 38.1558 52.9124 38.5952 52.9124H41.5496C41.9894 52.9124 42.3452 52.5562 42.3452 52.1168V33.9323C42.3452 33.4933 41.9894 33.1367 41.5496 33.1367ZM35.2983 52.1167C35.2983 52.5565 34.9421 52.9123 34.5027 52.9123H22.7965C22.3572 52.9123 22.001 52.5565 22.001 52.1167V33.9325C22.001 33.4932 22.3572 33.137 22.7965 33.137H25.7518C26.1892 33.137 26.5469 33.4947 26.5469 33.9325V48.3663H34.5027C34.9401 48.3663 35.2983 48.724 35.2983 49.1615V52.1167ZM66.0978 52.9123H77.804C78.2433 52.9123 78.5995 52.5565 78.5995 52.1167V49.1615C78.5995 48.724 78.2414 48.3663 77.804 48.3663H69.8486V45.2978H77.804C78.2433 45.2978 78.5995 44.9416 78.5995 44.5023V41.547C78.5995 41.1096 78.2414 40.7515 77.804 40.7515H69.8486V37.6829H77.804C78.2433 37.6829 78.5995 37.3268 78.5995 36.8874V33.9325C78.5995 33.4947 78.2414 33.137 77.804 33.137H66.0978C65.6584 33.137 65.3022 33.4932 65.3022 33.9325V52.1167C65.3022 52.5565 65.6584 52.9123 66.0978 52.9123ZM58.7113 33.1367H61.6662C62.1055 33.1367 62.4617 33.4933 62.4617 33.9323V52.1168C62.4617 52.5562 62.1055 52.9124 61.6662 52.9124H58.7277C58.6554 52.9124 58.5859 52.9018 58.5195 52.8842C58.5177 52.884 58.5158 52.8836 58.5139 52.8831L58.5082 52.8815C58.4895 52.8764 58.4711 52.8702 58.4531 52.8639C58.4449 52.8612 58.4364 52.8581 58.4282 52.8546C58.4149 52.8495 58.4024 52.844 58.3891 52.8378C58.3758 52.8323 58.3633 52.826 58.3508 52.819C58.3449 52.8165 58.3393 52.8133 58.3338 52.8101L58.3274 52.8065L58.315 52.7995L58.301 52.7912C58.293 52.7863 58.2851 52.7813 58.2774 52.7761C58.2743 52.7741 58.2715 52.7718 58.2684 52.7698C58.1907 52.7171 58.1204 52.6507 58.063 52.5695L49.7327 41.3198V52.1168C49.7327 52.5562 49.3765 52.9124 48.9371 52.9124H45.9823C45.5429 52.9124 45.1867 52.5562 45.1867 52.1168V33.9323C45.1867 33.4933 45.5429 33.1367 45.9823 33.1367H48.9207C48.9267 33.1367 48.9325 33.1372 48.9384 33.1376L48.9484 33.1383C48.9625 33.1387 48.9766 33.1391 48.9906 33.1406C48.9974 33.1412 49.0041 33.1419 49.0108 33.1427L49.0336 33.1453L49.0493 33.1479L49.0672 33.1508L49.0894 33.1554L49.1144 33.1609C49.1242 33.1633 49.1336 33.1656 49.1429 33.1684C49.1593 33.173 49.1754 33.1781 49.1914 33.184L49.2171 33.1933C49.2328 33.1996 49.2484 33.2062 49.2636 33.2133C49.2722 33.2172 49.2804 33.2215 49.289 33.2258L49.303 33.233C49.313 33.2384 49.3229 33.2441 49.3327 33.25C49.3409 33.2547 49.3491 33.2593 49.357 33.2644C49.3718 33.2742 49.3859 33.2836 49.3991 33.2933L49.421 33.3093C49.4358 33.3214 49.4499 33.3336 49.464 33.3461L49.4788 33.3597C49.4956 33.3753 49.5116 33.3921 49.5268 33.4093C49.5288 33.4113 49.5304 33.4132 49.5319 33.4152C49.5546 33.441 49.5764 33.4683 49.596 33.4972L57.9158 44.7328V33.9323C57.9158 33.4933 58.2719 33.1367 58.7113 33.1367Z" fill="#1F307C"/>
</svg>
