<svg width="100" height="101" viewBox="0 0 100 101" fill="none" xmlns="http://www.w3.org/2000/svg">
<path fill-rule="evenodd" clip-rule="evenodd" d="M49.9999 8.54146C72.9752 8.54146 91.6663 23.7102 91.6663 42.3548C91.6663 49.8162 88.7732 56.5367 82.735 63.1592H82.7369C73.995 73.22 54.4466 85.4757 49.9999 87.3499C45.6754 89.1717 46.1762 86.3215 46.3741 85.1951C46.3797 85.1631 46.3851 85.1326 46.3901 85.1035C46.4963 84.4767 46.9853 81.5363 46.9853 81.5363C47.1251 80.4724 47.2703 78.822 46.8501 77.7691C46.3834 76.6092 44.5361 76.0073 43.1798 75.714C23.1561 73.0681 8.33301 59.0694 8.33301 42.3548C8.33301 23.7102 27.0261 8.54146 49.9999 8.54146ZM41.5506 33.3457H38.5962C38.1568 33.3457 37.8002 33.7023 37.8002 34.1412V52.3258C37.8002 52.7652 38.1568 53.1213 38.5962 53.1213H41.5506C41.9904 53.1213 42.3462 52.7652 42.3462 52.3258V34.1412C42.3462 33.7023 41.9904 33.3457 41.5506 33.3457ZM35.2992 52.3257C35.2992 52.7654 34.9431 53.1212 34.5037 53.1212H22.7975C22.3581 53.1212 22.002 52.7654 22.002 52.3257V34.1415C22.002 33.7022 22.3581 33.346 22.7975 33.346H25.7527C26.1902 33.346 26.5479 33.7037 26.5479 34.1415V48.5753H34.5037C34.9411 48.5753 35.2992 48.933 35.2992 49.3704V52.3257ZM66.0988 53.1212H77.805C78.2443 53.1212 78.6005 52.7654 78.6005 52.3257V49.3704C78.6005 48.933 78.2424 48.5753 77.805 48.5753H69.8496V45.5068H77.805C78.2443 45.5068 78.6005 45.1506 78.6005 44.7112V41.756C78.6005 41.3186 78.2424 40.9604 77.805 40.9604H69.8496V37.8919H77.805C78.2443 37.8919 78.6005 37.5358 78.6005 37.0964V34.1415C78.6005 33.7037 78.2424 33.346 77.805 33.346H66.0988C65.6594 33.346 65.3032 33.7022 65.3032 34.1415V52.3257C65.3032 52.7654 65.6594 53.1212 66.0988 53.1212ZM58.7123 33.3457H61.6671C62.1065 33.3457 62.4627 33.7023 62.4627 34.1412V52.3258C62.4627 52.7652 62.1065 53.1213 61.6671 53.1213H58.7287C58.6564 53.1213 58.5869 53.1108 58.5205 53.0932C58.5187 53.093 58.5168 53.0926 58.5149 53.0921L58.5092 53.0905C58.4904 53.0854 58.4721 53.0792 58.4541 53.0729C58.4459 53.0702 58.4373 53.0671 58.4291 53.0635C58.4158 53.0585 58.4034 53.053 58.3901 53.0467C58.3768 53.0413 58.3643 53.035 58.3518 53.028C58.3459 53.0255 58.3403 53.0223 58.3347 53.0191L58.3284 53.0155L58.3159 53.0085L58.302 53.0002C58.294 52.9953 58.286 52.9903 58.2784 52.985C58.2752 52.9831 58.2725 52.9807 58.2694 52.9788C58.1917 52.9261 58.1214 52.8597 58.064 52.7784L49.7336 41.5288V52.3258C49.7336 52.7652 49.3775 53.1213 48.9381 53.1213H45.9832C45.5439 53.1213 45.1877 52.7652 45.1877 52.3258V34.1412C45.1877 33.7023 45.5439 33.3457 45.9832 33.3457H48.9217C48.9277 33.3457 48.9335 33.3462 48.9394 33.3466L48.9494 33.3473C48.9635 33.3477 48.9775 33.348 48.9916 33.3496C48.9984 33.3502 49.0051 33.3509 49.0118 33.3517L49.0346 33.3543L49.0503 33.3568L49.0682 33.3598L49.0904 33.3644L49.1154 33.3699C49.1252 33.3723 49.1345 33.3746 49.1439 33.3773C49.1603 33.382 49.1763 33.3871 49.1923 33.393L49.2181 33.4023C49.2337 33.4086 49.2494 33.4152 49.2646 33.4222C49.2732 33.4262 49.2814 33.4305 49.29 33.4347L49.304 33.442C49.314 33.4474 49.3238 33.4531 49.3337 33.459C49.3419 33.4636 49.3501 33.4683 49.3579 33.4734C49.3728 33.4832 49.3868 33.4925 49.4001 33.5023L49.422 33.5183C49.4368 33.5304 49.4509 33.5425 49.4649 33.555L49.4798 33.5687C49.4966 33.5843 49.5126 33.6011 49.5278 33.6183C49.5298 33.6203 49.5313 33.6222 49.5329 33.6242C49.5555 33.6499 49.5774 33.6773 49.5969 33.7062L57.9167 44.9418V34.1412C57.9167 33.7023 58.2729 33.3457 58.7123 33.3457Z" fill="white"/>
</svg>
