<svg width="1365" height="233" viewBox="0 0 1365 233" fill="none" xmlns="http://www.w3.org/2000/svg">
<path d="M1005.32 104.047C1005.32 104.047 1016.47 68.9687 1013.11 62.976C1009.75 56.9833 987.152 49.3166 987.152 49.3166C987.152 49.3166 1011.26 53.1763 1018.33 49.7527C1025.4 46.329 1035.83 25.7653 1035.83 25.7653C1035.83 25.7653 1029.62 47.3744 1032.97 53.3662C1036.33 59.358 1058.93 67.0265 1058.93 67.0265C1058.93 67.0265 1034.83 63.1668 1027.76 66.5868C1020.69 70.0068 1005.32 104.047 1005.32 104.047Z" fill="#E6FEED"/>
<path d="M1079.63 102.332C1079.63 102.332 1086.13 81.849 1084.17 78.3497C1082.21 74.8504 1069.02 70.3736 1069.02 70.3736C1069.02 70.3736 1083.09 72.6274 1087.22 70.6282C1091.35 68.6291 1097.44 56.6214 1097.44 56.6214C1097.44 56.6214 1093.81 69.2395 1095.77 72.7383C1097.73 76.237 1110.93 80.7149 1110.93 80.7149C1110.93 80.7149 1096.85 78.4611 1092.73 80.4582C1088.6 82.4552 1079.63 102.332 1079.63 102.332Z" fill="#E6FEED"/>
<path d="M1271.16 191.138C1271.16 191.138 1286.99 141.321 1282.22 132.81C1277.45 124.3 1245.36 113.412 1245.36 113.412C1245.36 113.412 1279.6 118.893 1289.64 114.031C1299.68 109.169 1314.49 79.9646 1314.49 79.9646C1314.49 79.9646 1305.67 110.653 1310.43 119.163C1315.19 127.672 1347.3 138.563 1347.3 138.563C1347.3 138.563 1313.06 133.081 1303.02 137.938C1292.99 142.795 1271.16 191.138 1271.16 191.138Z" fill="#E6FEED"/>
<path d="M50.1629 218.138C50.1629 218.138 65.9949 168.321 61.2247 159.81C56.4545 151.3 24.3589 140.412 24.3589 140.412C24.3589 140.412 58.5964 145.893 68.6376 141.031C78.6788 136.169 93.4926 106.965 93.4926 106.965C93.4926 106.965 84.6663 137.653 89.4307 146.163C94.1952 154.672 126.302 165.563 126.302 165.563C126.302 165.563 92.0647 160.081 82.0255 164.938C71.9862 169.795 50.1629 218.138 50.1629 218.138Z" fill="#E6FEED"/>
<path d="M254.28 163.446C254.28 163.446 265.731 127.416 262.281 121.261C258.831 115.106 235.618 107.231 235.618 107.231C235.618 107.231 260.38 111.195 267.642 107.679C274.904 104.162 285.618 83.0407 285.618 83.0407C285.618 83.0407 279.234 105.236 282.68 111.39C286.126 117.545 309.347 125.421 309.347 125.421C309.347 125.421 284.585 121.457 277.324 124.97C270.064 128.482 254.28 163.446 254.28 163.446Z" fill="#E6FEED"/>
<path d="M363.184 66.2133C363.184 66.2133 371.447 40.2102 368.957 35.7679C366.468 31.3256 349.715 25.6423 349.715 25.6423C349.715 25.6423 367.586 28.5035 372.827 25.9656C378.068 23.4277 385.8 8.18399 385.8 8.18399C385.8 8.18399 381.193 24.2026 383.68 28.6443C386.167 33.0859 402.926 38.7705 402.926 38.7705C402.926 38.7705 385.055 35.9094 379.815 38.4446C374.575 40.9798 363.184 66.2133 363.184 66.2133Z" fill="#E6FEED"/>
</svg>
