<svg width="222" height="374" viewBox="0 0 222 374" fill="none" xmlns="http://www.w3.org/2000/svg">
<path d="M-16.2124 92.444L-14.7289 89.4311C4.91412 49.5351 32.109 26.4397 67.003 21.1356C88.9718 17.6771 112.261 21.5012 136.786 32.3676C168.916 46.6035 192.422 66.2231 207.016 91.3367C221.939 116.837 222.444 145.055 208.97 175.596C200.7 194.341 188.958 208.268 173.662 217.128C164.56 222.606 149.677 227.847 129.315 232.943L129.309 232.945L109.287 237.915L-16.2124 92.444ZM-16.2124 92.444L-13.1419 93.8045M-16.2124 92.444L-13.1419 93.8045M-13.1419 93.8045L47.5722 120.705L50.5256 122.014L51.8295 119.059C56.7017 108.015 64.5942 98.7331 75.6276 91.2129C86.0862 84.2352 98.7921 83.7493 114.333 90.6352C130.431 97.7676 138.688 106.573 140.656 116.648L140.662 116.677L140.668 116.705C142.99 127.542 141.936 137.93 137.507 147.97C133.703 156.591 127.631 163.33 119.194 168.236L119.157 168.257L119.121 168.279C114.4 171.195 108.848 173.416 102.422 174.904L102.392 174.912L102.361 174.919L81.7369 180.123C81.7365 180.123 81.7361 180.123 81.7357 180.124C61.2956 185.24 46.5878 191.703 38.2784 199.839C30.2205 207.651 20.5579 223.49 9.26194 246.819L7.80798 249.822L10.8583 251.173L67.5808 276.306L70.4976 277.598M-13.1419 93.8045L70.4976 277.598M70.4976 277.598L71.8217 274.696M70.4976 277.598L71.8217 274.696M71.8217 274.696C76.8878 263.59 81.2925 256.073 84.9993 251.855M71.8217 274.696L84.9993 251.855M84.9993 251.855C90.8742 245.183 98.9041 240.501 109.285 237.915L84.9993 251.855ZM-0.724276 273.468L-3.67771 272.159L-4.98161 275.115L-31.8248 335.959L-33.1246 338.905L-30.1805 340.21L32.4243 367.949L35.3778 369.257L36.6817 366.302L63.5249 305.457L64.8247 302.511L61.8806 301.206L-0.724276 273.468Z" fill="#0B0A0A" stroke="black" stroke-width="6.45045"/>
<path d="M-32.3383 76.3181L-30.8549 73.3051C-11.2119 33.4091 15.983 10.3137 50.877 5.00966C72.8458 1.55111 96.1349 5.37519 120.66 16.2416C152.789 30.4773 176.296 50.0965 190.889 75.2096C205.813 100.71 206.318 128.929 192.844 159.47C184.574 178.215 172.832 192.142 157.536 201.002C148.434 206.48 133.551 211.721 113.189 216.817L113.183 216.819L93.1612 221.789L-32.3383 76.3181ZM-32.3383 76.3181L-29.2679 77.6785M-32.3383 76.3181L-29.2679 77.6785M-29.2679 77.6785L31.4462 104.579L34.3997 105.888L35.7036 102.933C40.5757 91.889 48.4683 82.607 59.5018 75.0868C69.9603 68.1093 82.6662 67.6234 98.2073 74.5093C114.305 81.6417 122.562 90.4472 124.53 100.522L124.536 100.551L124.542 100.58C126.864 111.416 125.81 121.804 121.381 131.844C117.577 140.465 111.505 147.204 103.068 152.11L103.031 152.131L102.995 152.154C98.2735 155.069 92.7217 157.29 86.2965 158.779L86.2659 158.786L86.2354 158.793L65.6109 163.997C65.6105 163.997 65.6101 163.997 65.6098 163.998C45.1709 169.114 30.4637 175.576 22.154 183.711C14.0958 191.523 4.4327 207.363 -6.86403 230.693L-8.318 233.696L-5.26771 235.047L51.4548 260.18L54.3716 261.472M-29.2679 77.6785L54.3716 261.472M54.3716 261.472L55.6957 258.57M54.3716 261.472L55.6957 258.57M55.6957 258.57C60.7618 247.464 65.1665 239.947 68.8734 235.729L55.6957 258.57ZM-16.8503 257.342L-19.8037 256.033L-21.1076 258.989L-47.9508 319.833L-49.2506 322.779L-46.3065 324.084L16.2984 351.823L19.2518 353.131L20.5557 350.176L47.3989 289.331L48.6987 286.385L45.7546 285.08L-16.8503 257.342ZM68.875 235.727C74.7497 229.056 82.7791 224.375 93.1588 221.789L68.875 235.727Z" fill="#F9F9F9" stroke="black" stroke-width="6.45045"/>
</svg>
