<svg width="250" height="409" viewBox="0 0 250 409" fill="none" xmlns="http://www.w3.org/2000/svg">
<path d="M235.283 311.01L238.511 310.429L239.087 313.659L250.939 380.146L251.513 383.365L248.295 383.944L179.856 396.256L176.627 396.837L176.052 393.608L164.2 327.121L163.626 323.902L166.844 323.323L235.283 311.01ZM293.358 132.802L294.097 136.132L290.741 136.735L224.369 148.676L221.14 149.257L220.565 146.027C218.414 133.96 212.859 122.904 203.782 112.831C195.141 103.431 182.722 99.8962 165.732 102.953C148.135 106.118 137.87 112.821 133.505 122.287L133.493 122.314L133.48 122.341C128.583 132.474 127.124 142.977 129.08 153.948C130.759 163.369 135.13 171.477 142.274 178.346L142.306 178.377L142.336 178.407C146.293 182.419 151.237 185.946 157.218 188.96L157.247 188.974L157.275 188.989L176.372 199.083C176.374 199.084 176.375 199.085 176.377 199.086C195.31 209.048 208.266 218.96 214.507 228.985C220.579 238.63 226.304 256.582 231.839 282.317L232.551 285.629L229.217 286.229L167.208 297.384L164.02 297.958L163.411 294.776C161.083 282.598 158.545 274.122 155.902 269.069C151.71 261.073 144.912 254.524 135.292 249.477L116.733 239.758L116.727 239.755C97.8635 229.83 84.4398 221.08 76.7764 213.486C63.8157 201.066 55.5803 184.502 51.9288 164.019C45.9794 130.644 53.2648 102.923 74.1235 81.352C94.5611 60.0859 122.471 46.3829 157.592 40.0645C184.403 35.2413 208.3 37.069 229.143 45.7645C262.295 59.3892 283.572 88.7158 293.358 132.802Z" fill="#0B0A0A" stroke="black" stroke-width="6.55054"/>
<path d="M255.072 298.979L258.3 298.398L258.876 301.627L270.728 368.114L271.302 371.333L268.084 371.912L199.645 384.225L196.416 384.805L195.841 381.576L183.989 315.089L183.415 311.87L186.633 311.291L255.072 298.979ZM313.147 120.77L313.886 124.1L310.53 124.704L244.158 136.644L240.93 137.225L240.354 133.995C238.203 121.928 232.648 110.872 223.571 100.799C214.93 91.3996 202.511 87.8644 185.521 90.9209C167.924 94.0867 157.66 100.789 153.294 110.256L153.282 110.283L153.269 110.309C148.372 120.442 146.913 130.945 148.869 141.917C150.548 151.337 154.919 159.446 162.063 166.315L162.095 166.345L162.125 166.376C166.082 170.388 171.026 173.914 177.007 176.928L177.036 176.942L177.064 176.957L196.161 187.051C196.163 187.052 196.164 187.053 196.166 187.054C215.099 197.016 228.055 206.929 234.296 216.953C240.368 226.598 246.093 244.55 251.628 270.285L252.34 273.597L249.006 274.197L186.997 285.352L183.809 285.926L183.201 282.744C180.873 270.566 178.334 262.09 175.691 257.037C171.499 249.042 164.702 242.492 155.081 237.445L136.522 227.726L136.516 227.723C117.653 217.798 104.229 209.048 96.5655 201.455C83.6047 189.035 75.3693 172.47 71.7179 151.987C65.7685 118.612 73.0539 90.8909 93.9126 69.3202C114.35 48.0541 142.26 34.3512 177.381 28.0328C204.192 23.2095 228.089 25.0373 248.932 33.7328C282.084 47.3574 303.361 76.6841 313.147 120.77Z" fill="#F9F9F9" stroke="black" stroke-width="6.55054"/>
</svg>
