<svg width="380" height="517" viewBox="0 0 380 517" fill="none" xmlns="http://www.w3.org/2000/svg">
<path d="M70.4395 381.084L67.4861 379.775L66.1822 382.731L28.6166 467.879L27.3168 470.825L30.2609 472.13L117.873 510.949L120.826 512.257L122.13 509.302L159.696 424.153L160.996 421.207L158.052 419.902L70.4395 381.084ZM52.5185 122.926L51.035 125.939L54.1055 127.299L139.071 164.946L142.025 166.254L143.329 163.299C150.254 147.602 161.468 134.43 177.091 123.782C192.195 113.702 210.469 113.103 232.5 122.864C255.199 132.922 267.208 145.501 270.08 160.199L270.086 160.227L270.092 160.256C273.398 175.684 271.896 190.498 265.587 204.799C260.151 217.121 251.464 226.755 239.428 233.753L239.391 233.775L239.355 233.797C232.611 237.961 224.707 241.117 215.6 243.227L215.57 243.234L215.539 243.242L186.674 250.525C186.674 250.525 186.673 250.525 186.673 250.526C158.114 257.674 137.816 266.652 126.444 277.787C115.348 288.543 101.909 310.517 86.0961 343.174L84.6421 346.177L87.6924 347.528L167.072 382.7L169.989 383.992L171.313 381.09C178.415 365.522 184.643 354.858 189.962 348.807C198.384 339.242 209.866 332.572 224.605 328.901L252.626 321.946L252.632 321.944C281.113 314.816 301.787 307.515 314.351 299.952C335.484 287.714 351.753 268.453 363.238 242.42C381.956 199.993 381.213 160.944 360.569 125.671C340.311 90.8097 307.65 63.5153 262.877 43.6776C228.73 28.5477 196.389 23.2599 165.939 28.0545C117.64 35.395 79.8821 67.3492 52.5185 122.926Z" fill="#0B0A0A" stroke="black" stroke-width="6.45045"/>
<path d="M47.8721 358.517L44.9187 357.208L43.6148 360.164L6.04918 445.313L4.74942 448.259L7.69348 449.563L95.3055 488.382L98.2589 489.691L99.5628 486.735L137.128 401.586L138.428 398.64L135.484 397.336L47.8721 358.517ZM29.9511 100.359L28.4676 103.372L31.5381 104.733L116.504 142.379L119.458 143.688L120.761 140.732C127.686 125.035 138.9 111.863 154.524 101.216C169.628 91.1358 187.902 90.5362 209.933 100.298C232.631 110.355 244.641 122.934 247.513 137.632L247.518 137.661L247.524 137.689C250.831 153.117 249.329 167.932 243.019 182.233C237.584 194.554 228.896 204.189 216.861 211.186L216.824 211.208L216.787 211.23C210.044 215.395 202.14 218.55 193.033 220.661L193.002 220.668L192.972 220.675L164.107 227.959C164.106 227.959 164.106 227.959 164.105 227.959C135.547 235.107 115.249 244.086 103.877 255.221C92.7808 265.976 79.3411 287.951 63.5287 320.607L62.0747 323.61L65.125 324.962L144.505 360.133L147.422 361.425L148.746 358.523C155.848 342.955 162.076 332.291 167.394 326.241C175.816 316.675 187.299 310.005 202.038 306.335L230.058 299.379L230.064 299.378C258.545 292.249 279.219 284.949 291.783 277.386C312.917 265.147 329.185 245.887 340.671 219.853C359.388 177.426 358.645 138.378 338.001 103.104C317.743 68.2431 285.082 40.9486 240.31 21.111C206.162 5.98106 173.821 0.693231 143.371 5.48782C95.0723 12.8283 57.3147 44.7825 29.9511 100.359Z" fill="#F9F9F9" stroke="black" stroke-width="6.45045"/>
</svg>
