<svg width="224" height="270" viewBox="0 0 224 270" fill="none" xmlns="http://www.w3.org/2000/svg">
<path d="M62.9257 4.427H218.042V206.006L182.61 235.728H62.9257V4.427Z" fill="#0B0A0A" stroke="black" stroke-width="1.5708"/>
<path d="M59.3914 1.2854H214.508V202.864L179.076 232.586H59.3914V1.2854Z" fill="#FFEADF" stroke="black" stroke-width="1.5708"/>
<rect x="58.606" y="0.5" width="156.688" height="11.3883" fill="#0B1A5C"/>
<path d="M182.632 200.026L215.814 204.739L179.201 233.365L182.632 200.026Z" fill="#0B1A5C"/>
<rect x="71.5651" y="24.8477" width="127.235" height="24.7401" fill="#1F307C"/>
<rect x="159.137" y="61.3687" width="39.6628" height="66.3664" fill="#1F307C"/>
<rect x="71.5651" y="61.3687" width="81.2891" height="7.46131" fill="#1F307C"/>
<rect x="71.5651" y="73.1494" width="81.2891" height="7.46131" fill="#1F307C"/>
<rect x="71.5651" y="84.9307" width="81.2891" height="7.46131" fill="#1F307C"/>
<rect x="71.5651" y="96.7119" width="81.2891" height="7.46131" fill="#1F307C"/>
<rect x="71.5651" y="108.493" width="81.2891" height="7.46131" fill="#1F307C"/>
<rect x="71.5651" y="120.274" width="81.2891" height="7.46131" fill="#1F307C"/>
<rect x="71.5651" y="135.982" width="129.591" height="7.46131" fill="#1F307C"/>
<rect x="71.5651" y="147.763" width="129.591" height="7.46131" fill="#1F307C"/>
<rect x="71.5651" y="159.544" width="129.591" height="7.46131" fill="#1F307C"/>
<rect x="71.5651" y="171.325" width="129.591" height="7.46131" fill="#1F307C"/>
<path d="M3.85903 84.0703H124.971V241.459L97.306 264.665H3.85903V84.0703Z" fill="#0B0A0A" stroke="black" stroke-width="1.22645"/>
<path d="M1.09945 81.6171H122.211V239.006L94.5464 262.212H1.09945V81.6171Z" fill="#FFEADF" stroke="black" stroke-width="1.22645"/>
<rect x="0.486221" y="81.0039" width="122.338" height="8.89177" fill="#01703F"/>
<path d="M97.3233 236.789L123.231 240.47L94.6444 262.82L97.3233 236.789Z" fill="#01703F"/>
<rect x="10.6045" y="100.014" width="99.3425" height="19.3166" fill="#069154"/>
<rect x="78.9791" y="128.529" width="30.9679" height="51.8175" fill="#069154"/>
<rect x="10.6045" y="128.529" width="63.4688" height="5.82564" fill="#069154"/>
<rect x="10.6045" y="137.727" width="63.4688" height="5.82564" fill="#069154"/>
<rect x="10.6045" y="146.926" width="63.4688" height="5.82564" fill="#069154"/>
<rect x="10.6045" y="156.124" width="63.4688" height="5.82564" fill="#069154"/>
<rect x="10.6045" y="165.322" width="63.4688" height="5.82564" fill="#069154"/>
<rect x="10.6045" y="174.521" width="63.4688" height="5.82564" fill="#069154"/>
<rect x="10.6045" y="186.785" width="101.182" height="5.82564" fill="#069154"/>
<rect x="10.6045" y="195.984" width="101.182" height="5.82564" fill="#069154"/>
<rect x="10.6045" y="205.182" width="101.182" height="5.82564" fill="#069154"/>
<rect x="10.6045" y="214.38" width="101.182" height="5.82564" fill="#069154"/>
</svg>
