<svg width="1440" height="341" viewBox="0 0 1440 341" fill="none" xmlns="http://www.w3.org/2000/svg">
<path d="M522.399 126.965L518.854 126.678L519.152 123.059C519.804 123.037 520.456 123.052 521.105 123.103C521.645 123.149 522.17 123.217 522.689 123.31L522.399 126.965Z" fill="black" stroke="#110002" stroke-width="3.91948" stroke-linecap="round" stroke-linejoin="round"/>
<path d="M536.508 134.853L533.095 136.47L531.579 133.266L534.973 131.652C535.59 132.665 536.104 133.738 536.508 134.853Z" fill="black" stroke="#110002" stroke-width="3.91948" stroke-linecap="round" stroke-linejoin="round"/>
<path d="M535.305 149.731C534.728 150.77 534.046 151.747 533.269 152.647L530.253 150.567L532.273 147.647L535.305 149.731Z" fill="black" stroke="#110002" stroke-width="3.91948" stroke-linecap="round" stroke-linejoin="round"/>
<path d="M519.813 158.908C519.287 158.909 518.758 158.891 518.218 158.845C517.567 158.794 516.92 158.706 516.279 158.581L516.563 155.148L520.089 155.438L519.813 158.908Z" fill="black" stroke="#110002" stroke-width="3.91948" stroke-linecap="round" stroke-linejoin="round"/>
<path d="M507.289 148.713L504.259 150.154C503.65 149.133 503.143 148.054 502.747 146.933L505.765 145.506L507.289 148.713Z" fill="black" stroke="#110002" stroke-width="3.91948" stroke-linecap="round" stroke-linejoin="round"/>
<path d="M508.771 131.41L506.751 134.33L503.924 132.385C504.492 131.345 505.166 130.365 505.935 129.463L508.771 131.41Z" fill="black" stroke="#110002" stroke-width="3.91948" stroke-linecap="round" stroke-linejoin="round"/>
<path d="M379.584 97.7402L379.346 98.0917L377.564 100.66L374.746 98.71C374.784 98.5648 374.893 98.4466 374.961 98.3178L375.189 97.9379C375.225 97.8008 375.349 97.6868 375.434 97.5623C375.584 97.3171 375.75 97.0761 375.918 96.827C376.087 96.578 376.285 96.3454 376.476 96.1107C376.514 96.065 376.554 96.0209 376.596 95.9785C376.923 95.574 377.271 95.1873 377.64 94.8202C377.323 95.1426 377.02 95.4772 376.734 95.8161L379.584 97.7402Z" fill="black" stroke="#110002" stroke-width="3.91948" stroke-linecap="round" stroke-linejoin="round"/>
<path d="M378.071 115.036L375.043 116.47L374.884 116.187L374.654 115.782L374.441 115.373C374.366 115.233 374.301 115.087 374.233 114.949C374.166 114.81 374.233 114.949 374.233 114.949L373.959 114.317L373.795 113.921L373.706 113.665C373.647 113.529 373.604 113.397 373.553 113.263L376.563 111.834L376.824 112.384L378.071 115.036Z" fill="black" stroke="#110002" stroke-width="3.91948" stroke-linecap="round" stroke-linejoin="round"/>
<path d="M390.846 125.22L390.604 125.225L390.207 125.225L389.813 125.217L389.405 125.197L388.998 125.169C388.845 125.129 388.677 125.145 388.512 125.119L388.027 125.062L387.793 125.001L387.502 124.925L387.397 124.897L387.083 124.815L387.367 121.382L388.058 121.442L390.903 121.667L390.627 125.137L390.846 125.22Z" fill="black" stroke="#110002" stroke-width="3.91948" stroke-linecap="round" stroke-linejoin="round"/>
<path d="M406.095 116.055C406.021 116.174 405.955 116.295 405.881 116.413C405.737 116.668 405.574 116.928 405.42 117.155C405.266 117.382 405.1 117.623 404.919 117.886C404.743 118.133 404.561 118.369 404.37 118.604C404.348 118.626 404.328 118.65 404.309 118.674C404.292 118.697 404.272 118.718 404.249 118.736L404.233 118.801L404.22 118.849L404.144 118.942L401.128 116.862L401.479 116.342L403.14 113.94L406.095 116.055Z" fill="black" stroke="#110002" stroke-width="3.91948" stroke-linecap="round" stroke-linejoin="round"/>
<path d="M407.291 101.167L403.876 102.792L403.688 102.39L402.368 99.5897L405.762 97.9762L405.889 98.1818L406.15 98.6374L406.376 99.0584L406.528 99.3653L406.635 99.5828L406.687 99.6825C406.702 99.713 406.714 99.745 406.722 99.7779C406.77 99.8668 406.812 99.9584 406.849 100.052C406.895 100.142 406.93 100.237 406.968 100.324C407.005 100.412 407.09 100.615 407.147 100.759C407.196 100.901 407.248 101.035 407.291 101.167Z" fill="black" stroke="#110002" stroke-width="3.91948" stroke-linecap="round" stroke-linejoin="round"/>
<path d="M393.181 93.2888L392.835 93.259L389.647 92.9958L389.934 89.3827L389.692 89.3883L389.937 89.3746L390.42 89.3715L390.893 89.3743L391.869 89.4308L392.207 89.4585L392.53 89.5427C392.686 89.555 392.842 89.5755 392.996 89.6041L393.053 89.6189L393.367 89.7009L393.432 89.7178L393.181 93.2888Z" fill="black" stroke="#110002" stroke-width="3.91948" stroke-linecap="round" stroke-linejoin="round"/>
<path d="M613.441 75.0423L337.004 2.92162C335.534 2.53681 334.001 2.44571 332.496 2.65351C330.99 2.86132 329.54 3.36397 328.228 4.13271C326.917 4.90144 325.77 5.92118 324.853 7.1336C323.936 8.34601 323.267 9.72731 322.884 11.1985L280.693 172.915C279.918 175.885 280.355 179.041 281.907 181.689C283.459 184.337 286 186.26 288.97 187.035L565.407 259.156C568.377 259.931 571.533 259.494 574.181 257.942C576.829 256.39 578.752 253.849 579.527 250.879L621.718 89.1624C622.102 87.6918 622.194 86.1597 621.986 84.6538C621.778 83.148 621.275 81.6978 620.507 80.3864C619.738 79.0749 618.718 77.9279 617.506 77.0109C616.293 76.0939 614.912 75.425 613.441 75.0423ZM364.039 58.7656L566.354 111.548L547.086 185.404L344.77 132.621L364.039 58.7656Z" fill="#4D4D4D" stroke="#110002" stroke-width="3.91948" stroke-linecap="round" stroke-linejoin="round"/>
<path d="M372.011 25.9977L571.292 77.989C579.71 80.1852 586.911 85.6355 591.31 93.1408C595.71 100.646 596.947 109.592 594.751 118.01L572.738 202.386C572.493 203.328 572.065 204.214 571.478 204.991C570.89 205.768 570.156 206.422 569.316 206.915C568.475 207.408 567.546 207.731 566.581 207.865C565.617 207.998 564.635 207.941 563.692 207.695L315.244 142.876C313.349 142.375 311.729 141.144 310.74 139.451C309.751 137.759 309.472 135.744 309.965 133.847L331.982 49.4547C333.07 45.2859 334.968 41.3721 337.568 37.937C340.169 34.5019 343.42 31.6127 347.137 29.4345C350.854 27.2562 354.964 25.8316 359.232 25.2419C363.5 24.6522 367.842 24.909 372.011 25.9977Z" fill="#FEB20E"/>
<path d="M404.22 118.919C404.22 118.919 404.205 118.975 404.158 118.989L404.143 119.045C404.137 119.064 404.132 119.083 404.129 119.102C404.11 119.134 404.085 119.163 404.055 119.186L403.957 119.298C403.957 119.298 403.936 119.379 403.859 119.41L403.654 119.633M571.292 77.989L372.011 25.9977C367.842 24.909 363.5 24.6522 359.232 25.2419C354.964 25.8316 350.854 27.2562 347.137 29.4345C343.42 31.6127 340.169 34.5019 337.568 37.937C334.968 41.3721 333.07 45.2859 331.982 49.4547L309.965 133.847C309.472 135.744 309.751 137.759 310.74 139.451C311.729 141.144 313.349 142.375 315.244 142.876L563.692 207.695C564.635 207.941 565.617 207.999 566.581 207.865C567.546 207.731 568.475 207.408 569.316 206.915C570.156 206.422 570.89 205.768 571.478 204.991C572.065 204.214 572.493 203.328 572.738 202.386L594.751 118.01C596.947 109.592 595.71 100.646 591.31 93.1408C586.911 85.6355 579.71 80.1852 571.292 77.989V77.989ZM535.338 149.74C534.761 150.779 534.079 151.756 533.302 152.656C531.638 154.603 529.576 156.171 527.254 157.252C524.932 158.334 522.405 158.904 519.844 158.925C519.318 158.926 518.788 158.908 518.249 158.862C517.598 158.811 516.951 158.723 516.31 158.598C513.538 158.064 510.932 156.884 508.702 155.153C506.473 153.422 504.683 151.19 503.479 148.637C502.275 146.084 501.691 143.283 501.773 140.462C501.856 137.641 502.603 134.879 503.954 132.401C504.522 131.36 505.196 130.381 505.966 129.479C507.591 127.538 509.609 125.965 511.887 124.863C514.165 123.761 516.651 123.155 519.181 123.086C519.832 123.064 520.484 123.079 521.134 123.13C521.674 123.176 522.199 123.244 522.717 123.336C525.546 123.819 528.217 124.974 530.505 126.704C532.794 128.434 534.634 130.688 535.871 133.277C537.107 135.867 537.704 138.715 537.61 141.582C537.517 144.45 536.736 147.253 535.334 149.756L535.338 149.74ZM492.983 112.95L486.976 135.977L420.656 118.674L426.664 95.6479L492.983 112.95Z" stroke="#110002" stroke-width="3.91948" stroke-linecap="round" stroke-linejoin="round"/>
<path d="M343.008 55.1143L580.645 117.112C582.198 117.517 583.527 118.522 584.34 119.905C585.154 121.289 585.386 122.938 584.985 124.492L566.541 195.184C566.341 195.956 565.991 196.68 565.511 197.316C565.031 197.952 564.43 198.486 563.743 198.89C563.056 199.293 562.296 199.557 561.507 199.667C560.718 199.776 559.915 199.729 559.144 199.528L321.506 137.53C320.735 137.329 320.012 136.977 319.377 136.496C318.741 136.015 318.207 135.414 317.805 134.726C317.403 134.038 317.14 133.278 317.031 132.489C316.923 131.699 316.971 130.897 317.173 130.126L335.617 59.4333C336.026 57.8816 337.034 56.5556 338.42 55.7459C339.805 54.9363 341.455 54.7091 343.008 55.1143Z" fill="#FFEADF"/>
<path d="M525.841 115.654L397.034 82.049C390.385 80.4406 383.37 81.5073 377.5 85.0193C371.629 88.5314 367.372 94.2081 365.645 100.827C363.918 107.447 364.859 114.48 368.266 120.412C371.672 126.344 377.272 130.702 383.859 132.547L512.666 166.152C519.316 167.76 526.33 166.694 532.201 163.182C538.072 159.67 542.328 153.993 544.055 147.374C545.782 140.754 544.841 133.721 541.435 127.789C538.028 121.857 532.428 117.499 525.841 115.654ZM407.752 111.981C407.67 112.296 407.586 112.618 407.502 112.941C407.464 113.086 407.426 113.231 407.388 113.377C407.384 113.407 407.377 113.437 407.365 113.465C407.333 113.586 407.302 113.708 407.27 113.829C407.259 113.886 407.245 113.943 407.226 113.998C407.194 114.119 407.165 114.232 407.135 114.345C407.135 114.365 407.13 114.384 407.121 114.401C407.022 114.646 406.917 114.885 406.804 115.12C406.684 115.382 406.554 115.649 406.416 115.881C406.384 116.002 406.294 116.116 406.228 116.237C406.162 116.357 406.228 116.237 406.228 116.237C406.192 116.374 406.094 116.486 406.02 116.605C405.874 116.868 405.714 117.119 405.552 117.344C405.389 117.569 405.231 117.812 405.051 118.075C404.866 118.32 404.682 118.565 404.493 118.791C404.474 118.864 404.391 118.92 404.331 118.982C404.325 119 404.32 119.019 404.317 119.038C404.298 119.071 404.273 119.1 404.243 119.123C404.147 119.248 404.044 119.368 403.934 119.481C403.826 119.6 403.715 119.726 403.601 119.834C403.388 120.054 403.176 120.275 402.946 120.525C402.717 120.775 402.706 120.755 402.573 120.867C402.44 120.979 402.183 121.205 401.983 121.377C401.983 121.377 401.983 121.377 401.971 121.425L401.744 121.599C401.331 121.933 400.901 122.247 400.457 122.538L400.261 122.659L399.636 123.039L399.272 123.246L398.931 123.433L398.79 123.508L398.424 123.688C398.288 123.763 398.146 123.83 398.002 123.888L397.573 124.078L397.12 124.261L396.672 124.429L396.225 124.588L395.766 124.727C395.616 124.774 395.466 124.821 395.31 124.858C394.872 124.985 394.392 125.075 393.978 125.174L393.67 125.231L393.22 125.304L392.702 125.375C392.56 125.39 392.416 125.413 392.277 125.419L392.172 125.392L391.725 125.422C391.557 125.438 391.401 125.441 391.227 125.447C391.06 125.458 390.892 125.461 390.725 125.454C390.462 125.457 390.198 125.454 389.935 125.446L389.526 125.426C389.397 125.392 389.255 125.407 389.12 125.397L388.623 125.354L388.13 125.294C388.051 125.278 387.973 125.258 387.896 125.233L387.606 125.157L387.501 125.13L387.194 125.05L386.742 124.932L386.508 124.871C386.178 124.785 385.847 124.698 385.524 124.614C385.201 124.53 384.919 124.456 384.633 124.33L384.168 124.165L383.257 123.79L382.865 123.61L382.776 123.587L382.374 123.379L381.994 123.185L381.851 123.104C381.609 122.972 381.359 122.83 381.101 122.676L380.85 122.516L380.673 122.4C380.458 122.267 380.255 122.119 380.058 121.982L379.661 121.688L379.318 121.418L378.985 121.141L378.668 120.869L378.311 120.552C378.215 120.458 378.109 120.37 378.015 120.268C377.699 119.961 377.386 119.639 377.094 119.304C376.906 119.1 376.737 118.892 376.559 118.682L376.289 118.327L376.026 117.983L375.775 117.624C375.603 117.39 375.45 117.152 375.291 116.903L375.068 116.535C375.006 116.441 374.955 116.342 374.901 116.25L374.673 115.837L374.463 115.42C374.387 115.28 374.32 115.142 374.255 114.996C374.154 114.788 374.063 114.575 373.972 114.362L373.81 113.958L373.73 113.738C373.67 113.605 373.62 113.468 373.578 113.328C373.472 113.042 373.382 112.76 373.294 112.47C373.205 112.18 373.054 111.606 372.961 111.168C372.899 110.876 372.84 110.576 372.8 110.264C372.761 109.953 372.709 109.724 372.677 109.448C372.698 109.367 372.661 109.28 372.65 109.191L372.61 108.75L372.578 108.276C372.567 108.118 372.567 107.954 372.565 107.799C372.546 107.475 372.553 107.149 372.558 106.832L372.584 106.339C372.602 105.908 372.642 105.478 372.704 105.052C372.759 104.575 372.839 104.105 372.933 103.646C373.01 103.351 373.088 103.052 373.166 102.751C373.251 102.428 373.331 102.122 373.413 101.807C373.455 101.646 373.495 101.492 373.535 101.339C373.655 100.879 373.867 100.461 374.05 100.026C374.19 99.7177 374.333 99.4016 374.488 99.1059C374.564 98.9455 374.648 98.7891 374.739 98.6373C374.777 98.492 374.878 98.3717 374.956 98.237L375.184 97.8571C375.22 97.72 375.347 97.5979 375.431 97.4733C375.581 97.2281 375.747 96.9872 375.924 96.7402C376.1 96.4933 376.285 96.2484 376.473 96.0218L376.61 95.8594C376.934 95.446 377.284 95.0537 377.658 94.685C377.811 94.5268 377.966 94.3605 378.134 94.2146L378.155 94.1339L378.651 93.686C378.771 93.5881 378.873 93.4941 378.991 93.4043C379.959 92.604 381.007 91.9071 382.119 91.3249L382.536 91.1148L382.94 90.9187L383.122 90.785L383.556 90.6055L383.997 90.436L384.441 90.2849L384.886 90.1337L385.344 89.9948L385.799 89.872L386.257 89.7675C386.362 89.7364 386.469 89.7125 386.577 89.6959L386.869 89.6342C387.367 89.5402 387.862 89.4623 388.366 89.4129L388.851 89.3673L389.351 89.334L389.594 89.3284L389.847 89.3168L389.952 89.3442L390.324 89.3379L390.803 89.3509C391.129 89.3582 391.45 89.3817 391.78 89.4073L392.125 89.4372L392.468 89.4751L392.935 89.5365L392.991 89.5512C393.096 89.5786 393.201 89.6059 393.314 89.6354L393.427 89.6649L393.903 89.7891L394.5 89.9448L395.202 90.1279L396.009 90.3384L396.396 90.4395L396.868 90.6142L397.329 90.7948C397.93 91.0508 398.516 91.339 399.086 91.6582L399.393 91.8332L399.942 92.1746L400.223 92.3514C400.619 92.6183 401.01 92.9014 401.39 93.1985C401.604 93.3666 401.825 93.5448 402.027 93.7268C402.499 94.1295 402.948 94.5574 403.373 95.0086L403.621 95.2802C404.263 95.9865 404.847 96.7439 405.366 97.5449L405.581 97.8767L405.67 98.0293L405.833 98.2959L406.103 98.78C406.169 98.8919 406.227 99.0017 406.282 99.1196C406.337 99.2375 406.391 99.329 406.443 99.4287L406.542 99.644L406.591 99.7517L406.637 99.8412C406.68 99.9387 406.726 100.028 406.761 100.124C406.806 100.212 406.846 100.303 406.88 100.396C406.947 100.534 407.002 100.686 407.059 100.83C407.116 100.975 407.059 100.83 407.059 100.83C407.059 100.83 407.162 101.098 407.213 101.232C407.577 102.218 407.854 103.233 408.041 104.266C408.06 104.392 408.087 104.52 408.104 104.653C408.121 104.787 408.178 105.164 408.206 105.421C408.233 105.678 408.264 106.056 408.285 106.372C408.293 106.538 408.302 106.704 408.302 106.868C408.302 107.032 408.311 107.198 408.311 107.361C408.311 107.525 408.312 107.689 408.304 107.851C408.296 108.012 408.295 108.184 408.285 108.354C408.275 108.524 408.267 108.686 408.249 108.853C408.231 109.021 408.209 109.007 408.229 109.098C408.222 109.221 408.207 109.344 408.184 109.465C408.146 109.809 408.098 110.158 408.044 110.497C408.002 110.659 407.96 110.82 407.918 110.982C407.836 111.296 407.752 111.619 407.665 111.95L407.752 111.981ZM486.975 135.976L420.655 118.674L426.663 95.6473L492.982 112.95L486.975 135.976ZM535.303 149.739C534.726 150.778 534.044 151.755 533.267 152.655C531.603 154.602 529.541 156.17 527.219 157.251C524.897 158.333 522.37 158.903 519.809 158.924C519.283 158.925 518.753 158.907 518.214 158.861C517.563 158.81 516.915 158.722 516.275 158.597C513.503 158.063 510.897 156.883 508.667 155.152C506.438 153.421 504.648 151.189 503.444 148.636C502.24 146.083 501.656 143.282 501.738 140.461C501.821 137.64 502.568 134.878 503.919 132.4C504.487 131.359 505.161 130.38 505.931 129.478C507.555 127.537 509.574 125.964 511.852 124.862C514.13 123.76 516.616 123.154 519.146 123.085C519.797 123.063 520.449 123.078 521.099 123.129C521.638 123.175 522.164 123.243 522.682 123.335C525.511 123.818 528.181 124.973 530.47 126.703C532.759 128.433 534.599 130.687 535.836 133.276C537.072 135.866 537.669 138.714 537.575 141.581C537.482 144.449 536.701 147.252 535.299 149.755L535.303 149.739Z" fill="#4D4D4D" stroke="#110002" stroke-width="3.91948" stroke-linecap="round" stroke-linejoin="round"/>
<path d="M492.983 112.951L486.976 135.978L478.173 133.681C478.367 132.577 478.609 131.485 478.886 130.42C480.677 123.505 484.21 117.164 489.146 112.002L492.983 112.951Z" fill="black" stroke="#110002" stroke-width="3.91948" stroke-linecap="round" stroke-linejoin="round"/>
<path d="M446.61 121.946C446.329 123.021 446.016 124.089 445.671 125.148L420.668 118.624L426.663 95.6465L448.165 101.256C448.895 108.19 448.368 115.199 446.61 121.946Z" fill="black" stroke="#110002" stroke-width="3.91948" stroke-linecap="round" stroke-linejoin="round"/>
<path d="M538.137 252.04L324.139 196.209L344.61 163.987C345.694 162.285 347.29 160.97 349.169 160.232C351.048 159.495 353.112 159.372 355.065 159.882L527.698 204.921C529.604 205.418 531.309 206.493 532.58 207.999C533.85 209.505 534.623 211.367 534.793 213.329L538.137 252.04Z" fill="#BCBCBC" stroke="#110002" stroke-width="3.91948" stroke-linecap="round" stroke-linejoin="round"/>
<path d="M396.833 183.99L394.808 183.462C393.186 183.038 391.528 184.01 391.105 185.632L390.577 187.657C390.153 189.279 391.125 190.937 392.747 191.36L394.772 191.888C396.394 192.312 398.052 191.34 398.475 189.718L399.004 187.693C399.427 186.071 398.455 184.413 396.833 183.99Z" fill="#333333"/>
<path d="M478.926 205.408L476.901 204.879C475.279 204.456 473.621 205.428 473.198 207.05L472.669 209.075C472.246 210.697 473.218 212.355 474.84 212.778L476.865 213.306C478.487 213.73 480.145 212.758 480.568 211.136L481.096 209.111C481.519 207.489 480.548 205.831 478.926 205.408Z" fill="#333333"/>
<path d="M349.119 195.385C353.009 196.4 356.985 194.07 358 190.18C359.015 186.29 356.684 182.313 352.794 181.299C348.904 180.284 344.928 182.614 343.913 186.504C342.899 190.394 345.229 194.371 349.119 195.385Z" fill="#333333"/>
<path d="M513.313 238.223C517.203 239.238 521.179 236.907 522.194 233.017C523.209 229.127 520.878 225.151 516.988 224.136C513.098 223.122 509.122 225.452 508.107 229.342C507.092 233.232 509.423 237.208 513.313 238.223Z" fill="#333333"/>
<path d="M434.546 202.635C438.436 203.65 442.412 201.32 443.427 197.43C444.442 193.54 442.111 189.563 438.221 188.549C434.331 187.534 430.355 189.864 429.34 193.754C428.325 197.644 430.656 201.621 434.546 202.635Z" fill="#333333"/>
<path d="M292.619 180.645C295.275 181.338 297.989 179.747 298.682 177.091C299.375 174.435 297.784 171.721 295.128 171.028C292.472 170.335 289.758 171.926 289.065 174.582C288.372 177.238 289.963 179.952 292.619 180.645Z" fill="#BCBCBC"/>
<path d="M334.2 21.2682C336.856 21.961 339.57 20.3698 340.263 17.7141C340.956 15.0584 339.365 12.3439 336.709 11.651C334.053 10.9582 331.339 12.5494 330.646 15.2051C329.953 17.8608 331.544 20.5753 334.2 21.2682Z" fill="#BCBCBC"/>
<path d="M565.184 251.024C567.84 251.717 570.555 250.126 571.247 247.47C571.94 244.814 570.349 242.1 567.693 241.407C565.038 240.714 562.323 242.305 561.63 244.961C560.937 247.617 562.529 250.331 565.184 251.024Z" fill="#BCBCBC"/>
<path d="M606.764 91.6451C609.42 92.338 612.135 90.7468 612.827 88.0911C613.52 85.4354 611.929 82.7208 609.273 82.028C606.618 81.3351 603.903 82.9263 603.21 85.582C602.517 88.2377 604.109 90.9523 606.764 91.6451Z" fill="#BCBCBC"/>
<path d="M802.942 181.442L799.558 182.535L798.447 179.078C799.04 178.808 799.648 178.572 800.268 178.37C800.784 178.206 801.295 178.068 801.81 177.954L802.942 181.442Z" fill="black" stroke="#110002" stroke-width="3.91948" stroke-linecap="round" stroke-linejoin="round"/>
<path d="M818.996 183.323L816.464 186.124L813.836 183.745L816.352 180.954C817.31 181.654 818.196 182.447 818.996 183.323Z" fill="black" stroke="#110002" stroke-width="3.91948" stroke-linecap="round" stroke-linejoin="round"/>
<path d="M823.588 197.525C823.453 198.706 823.197 199.87 822.824 200.998L819.241 200.233L819.988 196.762L823.588 197.525Z" fill="black" stroke="#110002" stroke-width="3.91948" stroke-linecap="round" stroke-linejoin="round"/>
<path d="M812.793 211.939C812.308 212.141 811.812 212.327 811.296 212.492C810.675 212.694 810.043 212.86 809.404 212.99L808.35 209.71L811.719 208.628L812.793 211.939Z" fill="black" stroke="#110002" stroke-width="3.91948" stroke-linecap="round" stroke-linejoin="round"/>
<path d="M797.319 207.319L795.072 209.811C794.118 209.102 793.237 208.299 792.441 207.415L794.682 204.941L797.319 207.319Z" fill="black" stroke="#110002" stroke-width="3.91948" stroke-linecap="round" stroke-linejoin="round"/>
<path d="M792.057 190.766L791.31 194.237L787.953 193.524C788.079 192.345 788.326 191.182 788.692 190.054L792.057 190.766Z" fill="black" stroke="#110002" stroke-width="3.91948" stroke-linecap="round" stroke-linejoin="round"/>
<path d="M659.828 209.167L659.743 209.583L659.081 212.638L655.732 211.916C655.711 211.768 655.766 211.617 655.779 211.472L655.845 211.034C655.825 210.893 655.897 210.74 655.927 210.593C655.971 210.309 656.033 210.023 656.093 209.728C656.153 209.433 656.247 209.143 656.333 208.853C656.351 208.796 656.371 208.74 656.394 208.684C656.541 208.186 656.714 207.695 656.914 207.215C656.745 207.634 656.593 208.059 656.458 208.482L659.828 209.167Z" fill="black" stroke="#110002" stroke-width="3.91948" stroke-linecap="round" stroke-linejoin="round"/>
<path d="M665.058 225.723L662.81 228.207L662.555 228.007L662.187 227.721L661.834 227.425C661.711 227.324 661.595 227.214 661.479 227.112C661.364 227.01 661.479 227.112 661.479 227.112L660.984 226.634L660.681 226.331L660.501 226.128C660.394 226.025 660.304 225.92 660.205 225.816L662.437 223.342L662.89 223.751L665.058 225.723Z" fill="black" stroke="#110002" stroke-width="3.91948" stroke-linecap="round" stroke-linejoin="round"/>
<path d="M680.761 230.235L680.539 230.333L680.173 230.485L679.805 230.628L679.42 230.766L679.034 230.895C678.877 230.917 678.728 230.997 678.565 231.036L678.096 231.169L677.856 231.202L677.559 231.244L677.451 231.258L677.129 231.303L676.076 228.023L676.737 227.814L679.452 226.931L680.526 230.242L680.761 230.235Z" fill="black" stroke="#110002" stroke-width="3.91948" stroke-linecap="round" stroke-linejoin="round"/>
<path d="M691.335 215.929C691.312 216.066 691.297 216.203 691.274 216.341C691.239 216.632 691.188 216.934 691.133 217.203C691.077 217.471 691.016 217.757 690.95 218.07C690.882 218.365 690.804 218.654 690.718 218.944C690.706 218.973 690.696 219.002 690.688 219.032C690.681 219.06 690.671 219.087 690.657 219.112L690.666 219.178L690.673 219.228L690.639 219.342L687.056 218.577L687.181 217.962L687.794 215.107L691.335 215.929Z" fill="black" stroke="#110002" stroke-width="3.91948" stroke-linecap="round" stroke-linejoin="round"/>
<path d="M686.734 201.718L684.203 204.527L683.875 204.228L681.583 202.147L684.099 199.356L684.296 199.497L684.711 199.818L685.081 200.121L685.34 200.346L685.522 200.506L685.607 200.578C685.633 200.6 685.656 200.625 685.677 200.652C685.755 200.716 685.829 200.785 685.899 200.857C685.975 200.922 686.045 200.997 686.113 201.063C686.181 201.13 686.337 201.285 686.445 201.396C686.545 201.508 686.644 201.612 686.734 201.718Z" fill="black" stroke="#110002" stroke-width="3.91948" stroke-linecap="round" stroke-linejoin="round"/>
<path d="M670.681 199.848L670.351 199.953L667.305 200.932L666.186 197.484L665.964 197.582L666.185 197.476L666.63 197.288L667.068 197.109L667.992 196.787L668.314 196.683L668.644 196.638C668.794 196.589 668.945 196.548 669.099 196.516L669.157 196.507L669.479 196.463L669.545 196.454L670.681 199.848Z" fill="black" stroke="#110002" stroke-width="3.91948" stroke-linecap="round" stroke-linejoin="round"/>
<path d="M867.14 98.5978L584.167 137.902C582.662 138.11 581.212 138.613 579.9 139.382C578.589 140.151 577.442 141.171 576.525 142.383C575.608 143.596 574.94 144.977 574.557 146.448C574.175 147.92 574.086 149.452 574.296 150.957L597.289 316.498C597.712 319.538 599.324 322.286 601.773 324.137C604.221 325.988 607.305 326.791 610.345 326.369L893.318 287.065C896.358 286.642 899.106 285.03 900.957 282.581C902.809 280.133 903.611 277.05 903.189 274.009L880.196 108.469C879.988 106.963 879.485 105.513 878.716 104.202C877.947 102.89 876.927 101.743 875.715 100.827C874.502 99.9099 873.121 99.2411 871.649 98.8586C870.178 98.4762 868.646 98.3875 867.14 98.5978ZM630.536 179.125L837.635 150.36L848.136 225.961L641.037 254.727L630.536 179.125Z" fill="#4D4D4D" stroke="#110002" stroke-width="3.91948" stroke-linecap="round" stroke-linejoin="round"/>
<path d="M625.343 145.802L829.337 117.468C837.954 116.271 846.693 118.547 853.633 123.793C860.572 129.04 865.143 136.829 866.34 145.446L878.337 231.817C878.472 232.782 878.416 233.764 878.171 234.706C877.926 235.649 877.498 236.535 876.911 237.312C876.324 238.09 875.59 238.744 874.75 239.237C873.909 239.73 872.981 240.053 872.016 240.187L617.693 275.512C615.75 275.775 613.783 275.258 612.22 274.074C610.658 272.89 609.628 271.136 609.357 269.194L597.358 182.807C596.765 178.539 597.019 174.197 598.104 170.028C599.19 165.858 601.086 161.944 603.685 158.508C606.284 155.071 609.534 152.181 613.25 150.001C616.967 147.821 621.076 146.394 625.343 145.802Z" fill="#F43518"/>
<path d="M690.698 219.29C690.698 219.29 690.706 219.348 690.668 219.379L690.676 219.437C690.677 219.456 690.68 219.475 690.684 219.494C690.68 219.532 690.667 219.568 690.649 219.6L690.601 219.742C690.601 219.742 690.612 219.824 690.553 219.883L690.449 220.167M829.337 117.468L625.343 145.802C621.076 146.394 616.967 147.821 613.25 150.001C609.534 152.181 606.284 155.071 603.685 158.508C601.086 161.944 599.19 165.858 598.104 170.028C597.019 174.197 596.765 178.539 597.358 182.807L609.357 269.194C609.628 271.136 610.658 272.89 612.22 274.074C613.783 275.258 615.75 275.775 617.693 275.512L872.016 240.187C872.981 240.053 873.91 239.73 874.75 239.237C875.59 238.744 876.324 238.09 876.911 237.312C877.498 236.535 877.926 235.649 878.171 234.706C878.416 233.764 878.472 232.782 878.337 231.817L866.34 145.446C865.143 136.829 860.572 129.04 853.633 123.793C846.693 118.547 837.954 116.271 829.337 117.468V117.468ZM823.619 197.52C823.485 198.701 823.229 199.864 822.856 200.993C822.065 203.429 820.761 205.667 819.031 207.556C817.3 209.445 815.185 210.94 812.827 211.941C812.341 212.143 811.845 212.329 811.33 212.494C810.709 212.696 810.077 212.862 809.437 212.992C806.673 213.561 803.813 213.47 801.091 212.725C798.368 211.981 795.86 210.604 793.769 208.708C791.679 206.811 790.066 204.448 789.061 201.81C788.056 199.173 787.688 196.335 787.987 193.529C788.113 192.35 788.36 191.187 788.725 190.059C789.483 187.644 790.744 185.418 792.426 183.527C794.108 181.636 796.172 180.124 798.482 179.09C799.076 178.821 799.684 178.584 800.303 178.383C800.819 178.218 801.33 178.08 801.845 177.967C804.642 177.329 807.552 177.373 810.329 178.093C813.106 178.814 815.669 180.192 817.803 182.109C819.937 184.027 821.58 186.429 822.592 189.114C823.605 191.798 823.958 194.687 823.622 197.536L823.619 197.52ZM770.4 179.767L773.674 203.337L705.787 212.767L702.513 189.196L770.4 179.767Z" stroke="#110002" stroke-width="3.91948" stroke-linecap="round" stroke-linejoin="round"/>
<path d="M609.712 183.811L852.968 150.023C854.558 149.802 856.17 150.221 857.452 151.187C858.733 152.153 859.579 153.588 859.804 155.177L869.855 227.541C869.966 228.33 869.92 229.133 869.72 229.904C869.52 230.676 869.17 231.4 868.69 232.036C868.21 232.672 867.609 233.207 866.922 233.61C866.235 234.014 865.476 234.278 864.686 234.387L621.43 268.175C620.641 268.285 619.838 268.238 619.067 268.037C618.296 267.836 617.572 267.485 616.937 267.004C616.302 266.523 615.768 265.921 615.365 265.234C614.962 264.546 614.699 263.786 614.591 262.996L604.54 190.632C604.323 189.042 604.746 187.431 605.716 186.152C606.686 184.874 608.123 184.032 609.712 183.811Z" fill="#FFEADF"/>
<path d="M801.789 169.675L669.936 187.989C663.178 189.051 657.107 192.724 653.03 198.218C648.954 203.711 647.197 210.586 648.138 217.362C649.079 224.138 652.643 230.273 658.063 234.447C663.482 238.622 670.324 240.501 677.116 239.681L808.968 221.367C815.726 220.305 821.797 216.632 825.874 211.139C829.951 205.645 831.708 198.771 830.767 191.995C829.826 185.219 826.262 179.084 820.842 174.909C815.422 170.735 808.58 168.855 801.789 169.675ZM691.305 211.53C691.35 211.852 691.395 212.183 691.441 212.513C691.462 212.662 691.483 212.81 691.503 212.959C691.512 212.988 691.516 213.019 691.516 213.05C691.533 213.174 691.55 213.297 691.568 213.421C691.58 213.479 691.588 213.536 691.592 213.595C691.609 213.719 691.625 213.834 691.641 213.95C691.648 213.968 691.651 213.988 691.649 214.008C691.652 214.271 691.646 214.533 691.632 214.793C691.621 215.081 691.604 215.378 691.565 215.644C691.582 215.768 691.543 215.908 691.528 216.045C691.513 216.182 691.528 216.045 691.528 216.045C691.547 216.185 691.5 216.327 691.477 216.465C691.443 216.764 691.391 217.057 691.327 217.327C691.264 217.597 691.211 217.882 691.145 218.194C691.068 218.491 690.991 218.788 690.904 219.069C690.914 219.144 690.859 219.227 690.828 219.307C690.829 219.327 690.832 219.346 690.836 219.365C690.831 219.403 690.819 219.439 690.8 219.471C690.76 219.624 690.71 219.774 690.652 219.921C690.597 220.072 690.544 220.231 690.479 220.374C690.367 220.659 690.255 220.944 690.14 221.263C690.024 221.582 690.005 221.568 689.926 221.722C689.846 221.877 689.695 222.184 689.576 222.419C689.576 222.419 689.576 222.419 689.583 222.469L689.441 222.716C689.187 223.183 688.91 223.637 688.611 224.077L688.477 224.264L688.046 224.854L687.789 225.185L687.544 225.488L687.444 225.611L687.175 225.918C687.077 226.04 686.972 226.155 686.861 226.265L686.538 226.604L686.19 226.947L685.839 227.274L685.488 227.592L685.118 227.896C684.997 227.997 684.876 228.098 684.746 228.191C684.39 228.477 683.981 228.744 683.637 228.994L683.375 229.165L682.987 229.404L682.535 229.669C682.41 229.737 682.286 229.813 682.16 229.872L682.052 229.887L681.651 230.086C681.502 230.166 681.359 230.228 681.201 230.3C681.051 230.375 680.897 230.441 680.74 230.499C680.497 230.602 680.253 230.701 680.006 230.794L679.621 230.932C679.489 230.95 679.364 231.018 679.235 231.061L678.76 231.212L678.281 231.345C678.202 231.361 678.122 231.372 678.042 231.379L677.745 231.42L677.637 231.435L677.323 231.479L676.861 231.543L676.621 231.576C676.283 231.623 675.944 231.67 675.614 231.716C675.284 231.762 674.994 231.802 674.682 231.795L674.189 231.821L673.204 231.823L672.773 231.808L672.682 231.82L672.231 231.782L671.805 231.748L671.642 231.729C671.369 231.7 671.083 231.663 670.785 231.621L670.492 231.569L670.285 231.53C670.035 231.489 669.791 231.43 669.556 231.379L669.077 231.26L668.656 231.142L668.243 231.014L667.846 230.884L667.395 230.728C667.27 230.678 667.138 230.637 667.013 230.579C666.603 230.417 666.191 230.238 665.793 230.041C665.541 229.925 665.305 229.798 665.06 229.672L664.675 229.447L664.3 229.23L663.93 228.995C663.682 228.844 663.449 228.683 663.207 228.515L662.86 228.26C662.767 228.197 662.681 228.125 662.597 228.061L662.228 227.767L661.874 227.462C661.75 227.362 661.635 227.26 661.519 227.15C661.346 226.997 661.181 226.835 661.015 226.672L660.711 226.361L660.552 226.19C660.447 226.089 660.347 225.982 660.255 225.869C660.047 225.645 659.856 225.419 659.663 225.185C659.471 224.951 659.111 224.479 658.858 224.11C658.689 223.864 658.519 223.61 658.363 223.337C658.207 223.064 658.071 222.872 657.936 222.63C657.925 222.547 657.857 222.481 657.812 222.403L657.606 222.011L657.396 221.586C657.325 221.444 657.262 221.293 657.2 221.15C657.059 220.858 656.941 220.554 656.824 220.259L656.659 219.794C656.51 219.389 656.383 218.977 656.277 218.559C656.145 218.097 656.038 217.632 655.949 217.173C655.907 216.87 655.865 216.565 655.822 216.256C655.776 215.926 655.733 215.612 655.688 215.29C655.665 215.125 655.643 214.968 655.621 214.811C655.556 214.34 655.592 213.872 655.594 213.401C655.606 213.062 655.617 212.716 655.646 212.383C655.655 212.206 655.672 212.029 655.699 211.854C655.678 211.705 655.725 211.556 655.745 211.401L655.811 210.963C655.791 210.823 655.861 210.661 655.892 210.514C655.936 210.23 655.998 209.944 656.066 209.648C656.134 209.352 656.211 209.055 656.298 208.774L656.363 208.571C656.503 208.065 656.676 207.569 656.88 207.085C656.961 206.88 657.041 206.667 657.14 206.468L657.128 206.386L657.415 205.782C657.488 205.645 657.546 205.52 657.621 205.391C658.208 204.281 658.909 203.236 659.714 202.272L660.018 201.918L660.316 201.582L660.433 201.389L660.765 201.057L661.107 200.732L661.46 200.422L661.813 200.112L662.183 199.808L662.555 199.52L662.939 199.248C663.024 199.179 663.113 199.116 663.207 199.059L663.453 198.891C663.877 198.613 664.304 198.351 664.751 198.113L665.182 197.884L665.631 197.662L665.853 197.564L666.082 197.456L666.19 197.441L666.531 197.293L666.979 197.121C667.282 197.003 667.588 196.902 667.902 196.799L668.232 196.695L668.564 196.598L669.019 196.476L669.076 196.468C669.184 196.453 669.291 196.438 669.407 196.422L669.522 196.406L670.01 196.338L670.621 196.253L671.339 196.154L672.165 196.039L672.562 195.984L673.064 195.965L673.559 195.955C674.212 195.961 674.864 196.002 675.513 196.079L675.864 196.123L676.502 196.228L676.829 196.283C677.297 196.378 677.767 196.49 678.231 196.619C678.494 196.692 678.766 196.772 679.023 196.863C679.612 197.054 680.191 197.277 680.757 197.531L681.09 197.687C681.954 198.093 682.783 198.569 683.569 199.11L683.895 199.334L684.036 199.441L684.289 199.625L684.724 199.968C684.827 200.047 684.923 200.126 685.019 200.214C685.115 200.301 685.2 200.365 685.286 200.438L685.46 200.599L685.547 200.679L685.623 200.744C685.7 200.818 685.777 200.883 685.846 200.957C685.921 201.022 685.993 201.091 686.06 201.163C686.175 201.265 686.284 201.385 686.392 201.496C686.5 201.607 686.392 201.496 686.392 201.496C686.392 201.496 686.59 201.704 686.688 201.809C687.402 202.579 688.047 203.411 688.616 204.293C688.682 204.402 688.756 204.51 688.822 204.627C688.889 204.744 689.086 205.07 689.21 205.297C689.334 205.524 689.507 205.862 689.648 206.145C689.719 206.295 689.79 206.445 689.854 206.597C689.917 206.748 689.988 206.898 690.051 207.049C690.114 207.2 690.177 207.351 690.232 207.504C690.287 207.656 690.351 207.815 690.407 207.976C690.463 208.137 690.518 208.289 690.566 208.451C690.613 208.612 690.587 208.608 690.64 208.684C690.681 208.801 690.715 208.92 690.74 209.041C690.837 209.373 690.926 209.714 691.006 210.048C691.029 210.213 691.052 210.378 691.075 210.543C691.12 210.865 691.166 211.196 691.213 211.534L691.305 211.53ZM773.675 203.338L705.788 212.768L702.514 189.197L770.402 179.768L773.675 203.338ZM823.589 197.534C823.454 198.715 823.198 199.878 822.825 201.007C822.035 203.443 820.73 205.681 819 207.57C817.27 209.459 815.154 210.954 812.796 211.955C812.311 212.157 811.815 212.344 811.299 212.508C810.678 212.71 810.046 212.876 809.407 213.006C806.642 213.575 803.782 213.484 801.06 212.739C798.337 211.995 795.829 210.618 793.739 208.722C791.648 206.825 790.035 204.462 789.03 201.824C788.026 199.187 787.657 196.35 787.956 193.543C788.082 192.364 788.329 191.201 788.695 190.073C789.452 187.658 790.713 185.432 792.395 183.541C794.077 181.65 796.141 180.138 798.451 179.104C799.045 178.835 799.653 178.598 800.272 178.397C800.788 178.232 801.3 178.094 801.814 177.981C804.612 177.343 807.521 177.387 810.298 178.107C813.075 178.828 815.639 180.206 817.773 182.123C819.907 184.041 821.549 186.443 822.562 189.128C823.574 191.812 823.927 194.701 823.591 197.55L823.589 197.534Z" fill="#4D4D4D" stroke="#110002" stroke-width="3.91948" stroke-linecap="round" stroke-linejoin="round"/>
<path d="M770.401 179.767L773.675 203.338L764.665 204.59C764.42 203.495 764.225 202.394 764.074 201.304C763.079 194.231 763.912 187.021 766.494 180.361L770.401 179.767Z" fill="black" stroke="#110002" stroke-width="3.91948" stroke-linecap="round" stroke-linejoin="round"/>
<path d="M731.014 205.844C731.167 206.945 731.287 208.051 731.374 209.162L705.78 212.717L702.513 189.195L724.523 186.138C727.854 192.263 730.053 198.939 731.014 205.844Z" fill="black" stroke="#110002" stroke-width="3.91948" stroke-linecap="round" stroke-linejoin="round"/>
<path d="M865.402 290.943L646.345 321.37L652.907 283.764C653.256 281.776 654.226 279.95 655.679 278.548C657.132 277.147 658.992 276.242 660.991 275.965L837.706 251.42C839.657 251.149 841.644 251.489 843.395 252.393C845.145 253.297 846.573 254.72 847.482 256.468L865.402 290.943Z" fill="#BCBCBC" stroke="#110002" stroke-width="3.91948" stroke-linecap="round" stroke-linejoin="round"/>
<path d="M708.81 282.226L706.737 282.514C705.076 282.745 703.917 284.278 704.148 285.938L704.436 288.011C704.667 289.671 706.199 290.83 707.86 290.6L709.933 290.312C711.593 290.081 712.752 288.548 712.521 286.888L712.233 284.815C712.003 283.155 710.47 281.996 708.81 282.226Z" fill="#333333"/>
<path d="M792.843 270.554L790.77 270.842C789.11 271.073 787.951 272.606 788.181 274.266L788.469 276.339C788.7 277.999 790.233 279.158 791.893 278.928L793.966 278.64C795.626 278.409 796.785 276.876 796.555 275.216L796.267 273.143C796.036 271.483 794.503 270.324 792.843 270.554Z" fill="#333333"/>
<path d="M669.103 311.035C673.085 310.482 675.865 306.806 675.312 302.824C674.759 298.842 671.083 296.062 667.101 296.615C663.119 297.169 660.339 300.845 660.892 304.827C661.445 308.809 665.122 311.589 669.103 311.035Z" fill="#333333"/>
<path d="M837.18 287.69C841.162 287.137 843.941 283.461 843.388 279.479C842.835 275.497 839.159 272.717 835.177 273.27C831.195 273.823 828.415 277.499 828.968 281.481C829.521 285.463 833.198 288.243 837.18 287.69Z" fill="#333333"/>
<path d="M750.789 285.001C754.771 284.447 757.551 280.771 756.998 276.789C756.444 272.807 752.768 270.028 748.786 270.581C744.804 271.134 742.025 274.81 742.578 278.792C743.131 282.774 746.807 285.554 750.789 285.001Z" fill="#333333"/>
<path d="M611.267 319.069C613.986 318.691 615.883 316.182 615.506 313.463C615.128 310.745 612.618 308.847 609.9 309.225C607.181 309.602 605.284 312.112 605.661 314.83C606.039 317.549 608.549 319.447 611.267 319.069Z" fill="#BCBCBC"/>
<path d="M588.607 155.925C591.326 155.547 593.223 153.037 592.846 150.319C592.468 147.6 589.958 145.702 587.24 146.08C584.521 146.458 582.623 148.967 583.001 151.686C583.379 154.404 585.889 156.302 588.607 155.925Z" fill="#BCBCBC"/>
<path d="M889.997 279.637C892.715 279.26 894.613 276.75 894.235 274.031C893.858 271.313 891.348 269.415 888.629 269.793C885.911 270.17 884.013 272.68 884.391 275.399C884.768 278.117 887.278 280.015 889.997 279.637Z" fill="#BCBCBC"/>
<path d="M867.337 116.493C870.055 116.115 871.953 113.605 871.575 110.887C871.198 108.168 868.688 106.271 865.969 106.648C863.251 107.026 861.353 109.536 861.731 112.254C862.108 114.973 864.618 116.87 867.337 116.493Z" fill="#BCBCBC"/>
<path d="M1410.47 179.485L1407.09 180.578L1405.98 177.121C1406.57 176.851 1407.18 176.615 1407.8 176.413C1408.31 176.249 1408.82 176.111 1409.34 175.997L1410.47 179.485Z" fill="black" stroke="#110002" stroke-width="3.91948" stroke-linecap="round" stroke-linejoin="round"/>
<path d="M1426.53 181.365L1423.99 184.167L1421.36 181.788L1423.88 178.997C1424.84 179.697 1425.73 180.49 1426.53 181.365Z" fill="black" stroke="#110002" stroke-width="3.91948" stroke-linecap="round" stroke-linejoin="round"/>
<path d="M1431.12 195.568C1430.98 196.749 1430.73 197.913 1430.35 199.041L1426.77 198.276L1427.52 194.805L1431.12 195.568Z" fill="black" stroke="#110002" stroke-width="3.91948" stroke-linecap="round" stroke-linejoin="round"/>
<path d="M1420.32 209.982C1419.84 210.184 1419.34 210.37 1418.83 210.535C1418.2 210.737 1417.57 210.903 1416.93 211.033L1415.88 207.753L1419.25 206.671L1420.32 209.982Z" fill="black" stroke="#110002" stroke-width="3.91948" stroke-linecap="round" stroke-linejoin="round"/>
<path d="M1404.85 205.362L1402.6 207.854C1401.65 207.145 1400.77 206.342 1399.97 205.458L1402.21 202.984L1404.85 205.362Z" fill="black" stroke="#110002" stroke-width="3.91948" stroke-linecap="round" stroke-linejoin="round"/>
<path d="M1399.59 188.808L1398.84 192.28L1395.48 191.567C1395.61 190.388 1395.86 189.225 1396.22 188.097L1399.59 188.808Z" fill="black" stroke="#110002" stroke-width="3.91948" stroke-linecap="round" stroke-linejoin="round"/>
<path d="M1267.36 207.21L1267.27 207.626L1266.61 210.681L1263.26 209.959C1263.24 209.811 1263.3 209.66 1263.31 209.515L1263.37 209.077C1263.35 208.936 1263.43 208.783 1263.46 208.636C1263.5 208.352 1263.56 208.066 1263.62 207.771C1263.68 207.476 1263.78 207.186 1263.86 206.896C1263.88 206.839 1263.9 206.783 1263.92 206.727C1264.07 206.229 1264.24 205.738 1264.44 205.258C1264.27 205.677 1264.12 206.102 1263.99 206.525L1267.36 207.21Z" fill="black" stroke="#110002" stroke-width="3.91948" stroke-linecap="round" stroke-linejoin="round"/>
<path d="M1272.59 223.766L1270.34 226.25L1270.08 226.049L1269.72 225.764L1269.36 225.468C1269.24 225.367 1269.12 225.257 1269.01 225.155C1268.89 225.053 1269.01 225.155 1269.01 225.155L1268.51 224.677L1268.21 224.374L1268.03 224.171C1267.92 224.068 1267.83 223.963 1267.73 223.859L1269.97 221.385L1270.42 221.794L1272.59 223.766Z" fill="black" stroke="#110002" stroke-width="3.91948" stroke-linecap="round" stroke-linejoin="round"/>
<path d="M1288.29 228.278L1288.07 228.376L1287.7 228.528L1287.33 228.671L1286.95 228.809L1286.56 228.938C1286.41 228.96 1286.26 229.04 1286.09 229.079L1285.62 229.212L1285.39 229.245L1285.09 229.286L1284.98 229.301L1284.66 229.346L1283.61 226.066L1284.27 225.857L1286.98 224.974L1288.06 228.285L1288.29 228.278Z" fill="black" stroke="#110002" stroke-width="3.91948" stroke-linecap="round" stroke-linejoin="round"/>
<path d="M1298.86 213.972C1298.84 214.109 1298.83 214.246 1298.8 214.384C1298.77 214.675 1298.72 214.977 1298.66 215.246C1298.61 215.514 1298.55 215.8 1298.48 216.113C1298.41 216.408 1298.33 216.697 1298.25 216.987C1298.24 217.016 1298.23 217.045 1298.22 217.075C1298.21 217.103 1298.2 217.13 1298.19 217.155L1298.2 217.221L1298.2 217.271L1298.17 217.385L1294.58 216.62L1294.71 216.005L1295.32 213.15L1298.86 213.972Z" fill="black" stroke="#110002" stroke-width="3.91948" stroke-linecap="round" stroke-linejoin="round"/>
<path d="M1294.26 199.761L1291.73 202.57L1291.4 202.271L1289.11 200.19L1291.63 197.399L1291.82 197.54L1292.24 197.861L1292.61 198.164L1292.87 198.389L1293.05 198.549L1293.14 198.621C1293.16 198.643 1293.19 198.668 1293.21 198.695C1293.28 198.759 1293.36 198.828 1293.43 198.9C1293.5 198.965 1293.57 199.04 1293.64 199.106C1293.71 199.173 1293.87 199.328 1293.97 199.439C1294.07 199.551 1294.17 199.655 1294.26 199.761Z" fill="black" stroke="#110002" stroke-width="3.91948" stroke-linecap="round" stroke-linejoin="round"/>
<path d="M1278.21 197.891L1277.88 197.996L1274.83 198.975L1273.72 195.527L1273.49 195.625L1273.71 195.519L1274.16 195.331L1274.6 195.152L1275.52 194.83L1275.84 194.726L1276.17 194.681C1276.32 194.632 1276.47 194.591 1276.63 194.558L1276.69 194.55L1277.01 194.506L1277.07 194.497L1278.21 197.891Z" fill="black" stroke="#110002" stroke-width="3.91948" stroke-linecap="round" stroke-linejoin="round"/>
<path d="M1474.67 96.6407L1191.7 135.945C1190.19 136.153 1188.74 136.656 1187.43 137.425C1186.12 138.194 1184.97 139.214 1184.05 140.426C1183.14 141.639 1182.47 143.02 1182.09 144.491C1181.7 145.963 1181.62 147.495 1181.83 149L1204.82 314.541C1205.24 317.581 1206.85 320.329 1209.3 322.18C1211.75 324.031 1214.83 324.834 1217.87 324.412L1500.85 285.108C1503.89 284.685 1506.64 283.073 1508.49 280.624C1510.34 278.176 1511.14 275.092 1510.72 272.052L1487.73 106.512C1487.52 105.006 1487.01 103.556 1486.25 102.245C1485.48 100.933 1484.46 99.7864 1483.24 98.8696C1482.03 97.9528 1480.65 97.2841 1479.18 96.9016C1477.71 96.5192 1476.18 96.4305 1474.67 96.6407ZM1238.07 177.168L1445.16 148.403L1455.67 224.004L1248.57 252.77L1238.07 177.168Z" fill="#4D4D4D" stroke="#110002" stroke-width="3.91948" stroke-linecap="round" stroke-linejoin="round"/>
<path d="M1232.87 143.845L1436.87 115.511C1445.48 114.314 1454.22 116.59 1461.16 121.836C1468.1 127.083 1472.67 134.872 1473.87 143.489L1485.87 229.86C1486 230.825 1485.94 231.806 1485.7 232.749C1485.46 233.692 1485.03 234.578 1484.44 235.355C1483.85 236.133 1483.12 236.787 1482.28 237.28C1481.44 237.773 1480.51 238.096 1479.54 238.23L1225.22 273.555C1223.28 273.818 1221.31 273.301 1219.75 272.117C1218.19 270.933 1217.16 269.179 1216.89 267.237L1204.89 180.85C1204.29 176.582 1204.55 172.24 1205.63 168.071C1206.72 163.901 1208.62 159.987 1211.21 156.55C1213.81 153.114 1217.06 150.224 1220.78 148.044C1224.5 145.864 1228.61 144.437 1232.87 143.845Z" fill="#E28281"/>
<path d="M1298.23 217.333C1298.23 217.333 1298.24 217.391 1298.2 217.422L1298.21 217.48C1298.21 217.499 1298.21 217.518 1298.21 217.537C1298.21 217.575 1298.2 217.611 1298.18 217.643L1298.13 217.785C1298.13 217.785 1298.14 217.867 1298.08 217.926L1297.98 218.21M1436.87 115.511L1232.87 143.845C1228.61 144.437 1224.5 145.864 1220.78 148.044C1217.06 150.224 1213.81 153.114 1211.21 156.55C1208.62 159.987 1206.72 163.901 1205.63 168.071C1204.55 172.24 1204.29 176.582 1204.89 180.85L1216.89 267.237C1217.16 269.179 1218.19 270.933 1219.75 272.117C1221.31 273.301 1223.28 273.818 1225.22 273.555L1479.54 238.23C1480.51 238.096 1481.44 237.773 1482.28 237.28C1483.12 236.787 1483.85 236.133 1484.44 235.355C1485.03 234.578 1485.46 233.692 1485.7 232.749C1485.94 231.806 1486 230.825 1485.87 229.86L1473.87 143.489C1472.67 134.872 1468.1 127.083 1461.16 121.836C1454.22 116.59 1445.48 114.314 1436.87 115.511V115.511ZM1431.15 195.563C1431.01 196.744 1430.76 197.907 1430.39 199.036C1429.59 201.472 1428.29 203.71 1426.56 205.599C1424.83 207.488 1422.71 208.983 1420.36 209.984C1419.87 210.186 1419.37 210.372 1418.86 210.537C1418.24 210.739 1417.61 210.905 1416.97 211.035C1414.2 211.604 1411.34 211.513 1408.62 210.768C1405.9 210.024 1403.39 208.647 1401.3 206.751C1399.21 204.854 1397.6 202.491 1396.59 199.853C1395.59 197.216 1395.22 194.378 1395.52 191.572C1395.64 190.393 1395.89 189.23 1396.25 188.102C1397.01 185.687 1398.27 183.461 1399.96 181.57C1401.64 179.679 1403.7 178.167 1406.01 177.133C1406.6 176.864 1407.21 176.627 1407.83 176.426C1408.35 176.261 1408.86 176.123 1409.37 176.009C1412.17 175.372 1415.08 175.415 1417.86 176.136C1420.64 176.857 1423.2 178.235 1425.33 180.152C1427.47 182.07 1429.11 184.472 1430.12 187.157C1431.13 189.841 1431.49 192.73 1431.15 195.579L1431.15 195.563ZM1377.93 177.809L1381.2 201.38L1313.32 210.81L1310.04 187.239L1377.93 177.809Z" stroke="#110002" stroke-width="3.91948" stroke-linecap="round" stroke-linejoin="round"/>
<path d="M1217.24 181.854L1460.5 148.066C1462.09 147.845 1463.7 148.264 1464.98 149.23C1466.26 150.196 1467.11 151.631 1467.33 153.22L1477.38 225.584C1477.5 226.373 1477.45 227.176 1477.25 227.947C1477.05 228.719 1476.7 229.443 1476.22 230.079C1475.74 230.715 1475.14 231.25 1474.45 231.653C1473.76 232.057 1473 232.321 1472.22 232.43L1228.96 266.218C1228.17 266.328 1227.37 266.281 1226.6 266.08C1225.83 265.879 1225.1 265.528 1224.47 265.047C1223.83 264.566 1223.3 263.964 1222.89 263.277C1222.49 262.589 1222.23 261.829 1222.12 261.039L1212.07 188.675C1211.85 187.085 1212.28 185.474 1213.25 184.195C1214.21 182.917 1215.65 182.075 1217.24 181.854Z" fill="#FFEADF"/>
<path d="M1409.32 167.718L1277.47 186.032C1270.71 187.094 1264.64 190.767 1260.56 196.261C1256.48 201.754 1254.73 208.629 1255.67 215.405C1256.61 222.181 1260.17 228.316 1265.59 232.49C1271.01 236.665 1277.85 238.544 1284.65 237.724L1416.5 219.41C1423.26 218.348 1429.33 214.675 1433.4 209.182C1437.48 203.688 1439.24 196.814 1438.3 190.038C1437.35 183.262 1433.79 177.127 1428.37 172.952C1422.95 168.778 1416.11 166.898 1409.32 167.718ZM1298.83 209.573C1298.88 209.895 1298.92 210.225 1298.97 210.556C1298.99 210.705 1299.01 210.853 1299.03 211.002C1299.04 211.031 1299.05 211.062 1299.05 211.093C1299.06 211.217 1299.08 211.34 1299.1 211.464C1299.11 211.522 1299.12 211.579 1299.12 211.638C1299.14 211.762 1299.15 211.877 1299.17 211.993C1299.18 212.011 1299.18 212.031 1299.18 212.051C1299.18 212.314 1299.18 212.576 1299.16 212.836C1299.15 213.124 1299.13 213.421 1299.09 213.687C1299.11 213.811 1299.07 213.951 1299.06 214.088C1299.04 214.225 1299.06 214.088 1299.06 214.088C1299.08 214.228 1299.03 214.37 1299.01 214.507C1298.97 214.807 1298.92 215.1 1298.86 215.37C1298.79 215.64 1298.74 215.925 1298.67 216.237C1298.6 216.534 1298.52 216.831 1298.43 217.112C1298.44 217.187 1298.39 217.27 1298.36 217.35C1298.36 217.37 1298.36 217.389 1298.37 217.408C1298.36 217.446 1298.35 217.482 1298.33 217.514C1298.29 217.667 1298.24 217.817 1298.18 217.964C1298.13 218.115 1298.07 218.274 1298.01 218.417C1297.9 218.702 1297.78 218.987 1297.67 219.306C1297.55 219.625 1297.53 219.611 1297.46 219.765C1297.38 219.92 1297.22 220.227 1297.11 220.462C1297.11 220.462 1297.11 220.462 1297.11 220.512L1296.97 220.759C1296.72 221.226 1296.44 221.68 1296.14 222.12L1296.01 222.307L1295.58 222.897L1295.32 223.227L1295.07 223.531L1294.97 223.654L1294.7 223.961C1294.61 224.082 1294.5 224.198 1294.39 224.308L1294.07 224.647L1293.72 224.99L1293.37 225.317L1293.02 225.635L1292.65 225.939C1292.53 226.04 1292.41 226.141 1292.28 226.234C1291.92 226.52 1291.51 226.787 1291.17 227.037L1290.9 227.208L1290.52 227.447L1290.06 227.712C1289.94 227.78 1289.82 227.856 1289.69 227.915L1289.58 227.93L1289.18 228.129C1289.03 228.209 1288.89 228.271 1288.73 228.343C1288.58 228.418 1288.43 228.484 1288.27 228.542C1288.03 228.645 1287.78 228.744 1287.54 228.837L1287.15 228.975C1287.02 228.993 1286.89 229.061 1286.76 229.104L1286.29 229.255L1285.81 229.388C1285.73 229.404 1285.65 229.415 1285.57 229.422L1285.27 229.463L1285.17 229.478L1284.85 229.522L1284.39 229.586L1284.15 229.619C1283.81 229.666 1283.47 229.713 1283.14 229.759C1282.81 229.805 1282.52 229.845 1282.21 229.838L1281.72 229.864L1280.73 229.866L1280.3 229.851L1280.21 229.863L1279.76 229.825L1279.33 229.791L1279.17 229.772C1278.9 229.742 1278.61 229.706 1278.31 229.664L1278.02 229.612L1277.81 229.573C1277.56 229.532 1277.32 229.473 1277.09 229.422L1276.61 229.303L1276.19 229.185L1275.77 229.057L1275.38 228.927L1274.92 228.771C1274.8 228.721 1274.67 228.68 1274.54 228.622C1274.13 228.46 1273.72 228.281 1273.32 228.084C1273.07 227.968 1272.83 227.84 1272.59 227.715L1272.2 227.49L1271.83 227.273L1271.46 227.038C1271.21 226.887 1270.98 226.726 1270.74 226.558L1270.39 226.303C1270.3 226.24 1270.21 226.168 1270.13 226.104L1269.76 225.81L1269.4 225.505C1269.28 225.405 1269.16 225.303 1269.05 225.193C1268.88 225.04 1268.71 224.878 1268.54 224.715L1268.24 224.404L1268.08 224.233C1267.98 224.132 1267.88 224.025 1267.78 223.912C1267.58 223.688 1267.39 223.462 1267.19 223.228C1267 222.994 1266.64 222.522 1266.39 222.153C1266.22 221.907 1266.05 221.653 1265.89 221.38C1265.74 221.107 1265.6 220.915 1265.47 220.673C1265.45 220.59 1265.39 220.524 1265.34 220.446L1265.14 220.054L1264.92 219.628C1264.85 219.487 1264.79 219.336 1264.73 219.193C1264.59 218.901 1264.47 218.597 1264.35 218.302L1264.19 217.837C1264.04 217.432 1263.91 217.02 1263.81 216.602C1263.67 216.14 1263.57 215.675 1263.48 215.216C1263.44 214.913 1263.39 214.608 1263.35 214.299C1263.31 213.969 1263.26 213.655 1263.22 213.333C1263.19 213.168 1263.17 213.011 1263.15 212.854C1263.09 212.383 1263.12 211.915 1263.12 211.444C1263.14 211.105 1263.15 210.759 1263.18 210.426C1263.18 210.249 1263.2 210.072 1263.23 209.897C1263.21 209.748 1263.25 209.599 1263.27 209.444L1263.34 209.006C1263.32 208.866 1263.39 208.704 1263.42 208.557C1263.47 208.273 1263.53 207.987 1263.6 207.691C1263.66 207.395 1263.74 207.098 1263.83 206.817L1263.89 206.614C1264.03 206.108 1264.21 205.612 1264.41 205.128C1264.49 204.923 1264.57 204.71 1264.67 204.511L1264.66 204.429L1264.94 203.825C1265.02 203.688 1265.08 203.562 1265.15 203.434C1265.74 202.324 1266.44 201.279 1267.24 200.315L1267.55 199.961L1267.85 199.625L1267.96 199.432L1268.29 199.1L1268.64 198.775L1268.99 198.465L1269.34 198.155L1269.71 197.851L1270.08 197.563L1270.47 197.291C1270.55 197.222 1270.64 197.159 1270.74 197.102L1270.98 196.934C1271.41 196.656 1271.83 196.394 1272.28 196.156L1272.71 195.927L1273.16 195.705L1273.38 195.607L1273.61 195.499L1273.72 195.484L1274.06 195.336L1274.51 195.164C1274.81 195.046 1275.12 194.945 1275.43 194.842L1275.76 194.738L1276.09 194.641L1276.55 194.519L1276.61 194.511C1276.71 194.496 1276.82 194.481 1276.94 194.465L1277.05 194.449L1277.54 194.381L1278.15 194.296L1278.87 194.197L1279.69 194.082L1280.09 194.027L1280.59 194.008L1281.09 193.998C1281.74 194.004 1282.39 194.045 1283.04 194.122L1283.39 194.166L1284.03 194.271L1284.36 194.326C1284.83 194.421 1285.3 194.533 1285.76 194.662C1286.02 194.735 1286.3 194.815 1286.55 194.906C1287.14 195.097 1287.72 195.32 1288.29 195.574L1288.62 195.73C1289.48 196.136 1290.31 196.612 1291.1 197.153L1291.42 197.377L1291.57 197.484L1291.82 197.668L1292.25 198.011C1292.36 198.09 1292.45 198.169 1292.55 198.257C1292.64 198.344 1292.73 198.408 1292.81 198.481L1292.99 198.642L1293.08 198.722L1293.15 198.787C1293.23 198.861 1293.31 198.926 1293.38 199C1293.45 199.065 1293.52 199.134 1293.59 199.206C1293.7 199.308 1293.81 199.428 1293.92 199.539C1294.03 199.65 1293.92 199.539 1293.92 199.539C1293.92 199.539 1294.12 199.747 1294.22 199.851C1294.93 200.622 1295.58 201.454 1296.15 202.336C1296.21 202.445 1296.28 202.553 1296.35 202.67C1296.42 202.787 1296.62 203.113 1296.74 203.34C1296.86 203.567 1297.04 203.905 1297.18 204.188C1297.25 204.338 1297.32 204.488 1297.38 204.64C1297.45 204.791 1297.52 204.941 1297.58 205.092C1297.64 205.243 1297.71 205.394 1297.76 205.547C1297.82 205.699 1297.88 205.858 1297.94 206.019C1297.99 206.18 1298.05 206.332 1298.09 206.494C1298.14 206.655 1298.12 206.651 1298.17 206.727C1298.21 206.844 1298.24 206.963 1298.27 207.084C1298.37 207.416 1298.46 207.757 1298.54 208.091C1298.56 208.256 1298.58 208.421 1298.6 208.586C1298.65 208.908 1298.7 209.239 1298.74 209.577L1298.83 209.573ZM1381.2 201.381L1313.32 210.811L1310.04 187.24L1377.93 177.811L1381.2 201.381ZM1431.12 195.577C1430.98 196.758 1430.73 197.921 1430.35 199.05C1429.56 201.486 1428.26 203.724 1426.53 205.613C1424.8 207.502 1422.68 208.997 1420.33 209.998C1419.84 210.2 1419.34 210.386 1418.83 210.551C1418.21 210.753 1417.58 210.919 1416.94 211.049C1414.17 211.618 1411.31 211.527 1408.59 210.782C1405.87 210.038 1403.36 208.661 1401.27 206.765C1399.18 204.868 1397.56 202.505 1396.56 199.867C1395.55 197.23 1395.19 194.392 1395.49 191.586C1395.61 190.407 1395.86 189.244 1396.22 188.116C1396.98 185.701 1398.24 183.475 1399.92 181.584C1401.61 179.693 1403.67 178.181 1405.98 177.147C1406.57 176.878 1407.18 176.641 1407.8 176.44C1408.32 176.275 1408.83 176.137 1409.34 176.023C1412.14 175.386 1415.05 175.429 1417.83 176.15C1420.6 176.871 1423.17 178.249 1425.3 180.166C1427.44 182.084 1429.08 184.486 1430.09 187.171C1431.1 189.855 1431.46 192.744 1431.12 195.593L1431.12 195.577Z" fill="#4D4D4D" stroke="#110002" stroke-width="3.91948" stroke-linecap="round" stroke-linejoin="round"/>
<path d="M1377.93 177.81L1381.2 201.381L1372.19 202.632C1371.95 201.538 1371.75 200.437 1371.6 199.347C1370.61 192.274 1371.44 185.064 1374.02 178.403L1377.93 177.81Z" fill="black" stroke="#110002" stroke-width="3.91948" stroke-linecap="round" stroke-linejoin="round"/>
<path d="M1338.54 203.887C1338.7 204.988 1338.82 206.094 1338.9 207.205L1313.31 210.759L1310.04 187.238L1332.05 184.181C1335.38 190.306 1337.58 196.982 1338.54 203.887Z" fill="black" stroke="#110002" stroke-width="3.91948" stroke-linecap="round" stroke-linejoin="round"/>
<path d="M1472.93 288.986L1253.87 319.413L1260.44 281.807C1260.79 279.819 1261.76 277.993 1263.21 276.591C1264.66 275.19 1266.52 274.285 1268.52 274.008L1445.23 249.463C1447.19 249.192 1449.17 249.532 1450.92 250.436C1452.67 251.34 1454.1 252.763 1455.01 254.511L1472.93 288.986Z" fill="#BCBCBC" stroke="#110002" stroke-width="3.91948" stroke-linecap="round" stroke-linejoin="round"/>
<path d="M1316.34 280.269L1314.27 280.557C1312.61 280.788 1311.45 282.321 1311.68 283.981L1311.97 286.054C1312.2 287.714 1313.73 288.873 1315.39 288.642L1317.46 288.355C1319.12 288.124 1320.28 286.591 1320.05 284.931L1319.76 282.858C1319.53 281.197 1318 280.039 1316.34 280.269Z" fill="#333333"/>
<path d="M1400.37 268.597L1398.3 268.885C1396.64 269.116 1395.48 270.649 1395.71 272.309L1396 274.382C1396.23 276.042 1397.76 277.201 1399.42 276.971L1401.5 276.683C1403.16 276.452 1404.31 274.919 1404.08 273.259L1403.8 271.186C1403.57 269.526 1402.03 268.367 1400.37 268.597Z" fill="#333333"/>
<path d="M1276.63 309.078C1280.61 308.525 1283.39 304.849 1282.84 300.867C1282.29 296.885 1278.61 294.105 1274.63 294.658C1270.65 295.212 1267.87 298.888 1268.42 302.87C1268.97 306.852 1272.65 309.631 1276.63 309.078Z" fill="#333333"/>
<path d="M1444.71 285.733C1448.69 285.18 1451.47 281.503 1450.92 277.522C1450.36 273.54 1446.69 270.76 1442.71 271.313C1438.72 271.866 1435.94 275.542 1436.5 279.524C1437.05 283.506 1440.73 286.286 1444.71 285.733Z" fill="#333333"/>
<path d="M1358.32 283.044C1362.3 282.49 1365.08 278.814 1364.53 274.832C1363.97 270.85 1360.3 268.07 1356.32 268.624C1352.33 269.177 1349.55 272.853 1350.11 276.835C1350.66 280.817 1354.34 283.597 1358.32 283.044Z" fill="#333333"/>
<path d="M1218.8 317.112C1221.51 316.734 1223.41 314.225 1223.04 311.506C1222.66 308.788 1220.15 306.89 1217.43 307.267C1214.71 307.645 1212.81 310.155 1213.19 312.873C1213.57 315.592 1216.08 317.49 1218.8 317.112Z" fill="#BCBCBC"/>
<path d="M1196.14 153.968C1198.85 153.59 1200.75 151.08 1200.37 148.362C1200 145.643 1197.49 143.745 1194.77 144.123C1192.05 144.501 1190.15 147.01 1190.53 149.729C1190.91 152.447 1193.42 154.345 1196.14 153.968Z" fill="#BCBCBC"/>
<path d="M1124.71 140.257L1121.15 140.151L1121.26 136.522C1121.91 136.467 1122.57 136.448 1123.22 136.466C1123.76 136.484 1124.29 136.525 1124.81 136.591L1124.71 140.257Z" fill="black" stroke="#110002" stroke-width="3.91948" stroke-linecap="round" stroke-linejoin="round"/>
<path d="M1139.2 147.412L1135.87 149.202L1134.2 146.079L1137.5 144.294C1138.17 145.274 1138.74 146.319 1139.2 147.412Z" fill="black" stroke="#110002" stroke-width="3.91948" stroke-linecap="round" stroke-linejoin="round"/>
<path d="M1138.76 162.333C1138.24 163.4 1137.61 164.411 1136.88 165.349L1133.76 163.426L1135.63 160.407L1138.76 162.333Z" fill="black" stroke="#110002" stroke-width="3.91948" stroke-linecap="round" stroke-linejoin="round"/>
<path d="M1123.76 172.289C1123.23 172.316 1122.7 172.326 1122.16 172.308C1121.51 172.29 1120.86 172.235 1120.21 172.143L1120.32 168.7L1123.86 168.81L1123.76 172.289Z" fill="black" stroke="#110002" stroke-width="3.91948" stroke-linecap="round" stroke-linejoin="round"/>
<path d="M1110.73 162.749L1107.78 164.343C1107.12 163.355 1106.56 162.303 1106.1 161.204L1109.04 159.624L1110.73 162.749Z" fill="black" stroke="#110002" stroke-width="3.91948" stroke-linecap="round" stroke-linejoin="round"/>
<path d="M1111.32 145.391L1109.46 148.411L1106.53 146.614C1107.05 145.545 1107.67 144.533 1108.39 143.593L1111.32 145.391Z" fill="black" stroke="#110002" stroke-width="3.91948" stroke-linecap="round" stroke-linejoin="round"/>
<path d="M980.583 118.374L980.363 118.738L978.715 121.394L975.801 119.591C975.832 119.444 975.934 119.32 975.995 119.188L976.204 118.797C976.233 118.658 976.351 118.538 976.429 118.409C976.566 118.157 976.72 117.907 976.876 117.65C977.031 117.393 977.217 117.15 977.396 116.906C977.432 116.858 977.469 116.812 977.509 116.768C977.815 116.347 978.143 115.943 978.492 115.558C978.192 115.896 977.907 116.246 977.638 116.599L980.583 118.374Z" fill="black" stroke="#110002" stroke-width="3.91948" stroke-linecap="round" stroke-linejoin="round"/>
<path d="M979.957 135.726L977.006 137.312L976.833 137.038L976.582 136.646L976.349 136.248C976.267 136.112 976.194 135.969 976.12 135.835C976.045 135.7 976.12 135.835 976.12 135.835L975.813 135.218L975.629 134.831L975.528 134.58C975.462 134.447 975.412 134.318 975.354 134.186L978.287 132.605L978.576 133.141L979.957 135.726Z" fill="black" stroke="#110002" stroke-width="3.91948" stroke-linecap="round" stroke-linejoin="round"/>
<path d="M993.237 145.241L992.995 145.259L992.599 145.28L992.205 145.292L991.796 145.292L991.389 145.285C991.234 145.253 991.067 145.278 990.9 145.26L990.413 145.227L990.176 145.178L989.882 145.118L989.776 145.096L989.458 145.03L989.565 141.587L990.259 141.611L993.112 141.69L993.013 145.169L993.237 145.241Z" fill="black" stroke="#110002" stroke-width="3.91948" stroke-linecap="round" stroke-linejoin="round"/>
<path d="M1008 135.31C1007.93 135.432 1007.87 135.556 1007.8 135.678C1007.67 135.94 1007.52 136.208 1007.38 136.442C1007.24 136.677 1007.08 136.926 1006.92 137.198C1006.75 137.454 1006.58 137.699 1006.4 137.944C1006.38 137.967 1006.36 137.991 1006.35 138.017C1006.33 138.041 1006.31 138.063 1006.29 138.082L1006.28 138.147L1006.27 138.196L1006.2 138.292L1003.08 136.37L1003.4 135.832L1004.94 133.348L1008 135.31Z" fill="black" stroke="#110002" stroke-width="3.91948" stroke-linecap="round" stroke-linejoin="round"/>
<path d="M1008.43 120.381L1005.1 122.179L1004.89 121.787L1003.43 119.057L1006.74 117.272L1006.88 117.471L1007.16 117.913L1007.41 118.322L1007.58 118.62L1007.69 118.832L1007.75 118.929C1007.77 118.959 1007.78 118.99 1007.79 119.022C1007.84 119.109 1007.89 119.198 1007.93 119.29C1007.98 119.377 1008.02 119.47 1008.06 119.556C1008.1 119.641 1008.2 119.84 1008.26 119.981C1008.32 120.12 1008.38 120.251 1008.43 120.381Z" fill="black" stroke="#110002" stroke-width="3.91948" stroke-linecap="round" stroke-linejoin="round"/>
<path d="M993.933 113.235L993.587 113.223L990.389 113.123L990.491 109.5L990.249 109.518L990.493 109.492L990.976 109.464L991.448 109.443L992.426 109.449L992.765 109.46L993.091 109.527C993.248 109.532 993.405 109.544 993.56 109.565L993.618 109.577L993.936 109.643L994.001 109.656L993.933 113.235Z" fill="black" stroke="#110002" stroke-width="3.91948" stroke-linecap="round" stroke-linejoin="round"/>
<path d="M1212.97 83.7425L933.207 25.8604C931.719 25.5514 930.184 25.5388 928.691 25.8234C927.198 26.108 925.775 26.6841 924.505 27.519C923.234 28.3538 922.141 29.4309 921.287 30.6886C920.434 31.9464 919.836 33.3601 919.529 34.8489L885.668 198.512C885.046 201.518 885.644 204.648 887.329 207.213C889.015 209.778 891.651 211.569 894.656 212.191L1174.42 270.073C1177.43 270.694 1180.56 270.097 1183.12 268.411C1185.69 266.726 1187.48 264.09 1188.1 261.084L1221.96 97.4206C1222.27 95.9322 1222.28 94.3975 1222 92.9042C1221.71 91.411 1221.14 89.9885 1220.3 88.7181C1219.47 87.4477 1218.39 86.3544 1217.13 85.5006C1215.87 84.6468 1214.46 84.0494 1212.97 83.7425ZM963.064 80.248L1167.81 122.61L1152.35 197.354L947.6 154.992L963.064 80.248Z" fill="#4D4D4D" stroke="#110002" stroke-width="3.91948" stroke-linecap="round" stroke-linejoin="round"/>
<path d="M969.348 47.1144L1171.03 88.8412C1179.55 90.6038 1187.02 95.6785 1191.8 102.949C1196.57 110.219 1198.27 119.09 1196.5 127.609L1178.84 213.001C1178.64 213.955 1178.26 214.861 1177.71 215.667C1177.17 216.474 1176.47 217.164 1175.65 217.7C1174.84 218.235 1173.93 218.605 1172.97 218.788C1172.01 218.971 1171.03 218.963 1170.08 218.766L918.636 166.744C916.717 166.341 915.037 165.194 913.963 163.554C912.888 161.915 912.506 159.917 912.901 157.997L930.572 72.5887C931.445 68.3697 933.14 64.364 935.561 60.8004C937.983 57.2367 941.082 54.1849 944.683 51.8193C948.284 49.4537 952.315 47.8207 956.547 47.0134C960.779 46.2061 965.129 46.2404 969.348 47.1144Z" fill="#069154"/>
<path d="M1006.27 138.266C1006.27 138.266 1006.26 138.323 1006.21 138.339L1006.2 138.396C1006.19 138.415 1006.19 138.434 1006.19 138.453C1006.17 138.487 1006.15 138.517 1006.12 138.541L1006.03 138.658C1006.03 138.658 1006.01 138.74 1005.93 138.775L1005.74 139.008M1171.03 88.8412L969.348 47.1144C965.129 46.2404 960.779 46.2061 956.547 47.0134C952.315 47.8207 948.284 49.4537 944.683 51.8193C941.082 54.1849 937.983 57.2367 935.561 60.8004C933.14 64.364 931.445 68.3697 930.572 72.5887L912.901 157.997C912.506 159.917 912.888 161.915 913.963 163.554C915.037 165.194 916.717 166.341 918.636 166.744L1170.08 218.766C1171.03 218.963 1172.01 218.971 1172.97 218.788C1173.93 218.605 1174.84 218.235 1175.65 217.7C1176.47 217.164 1177.17 216.474 1177.71 215.667C1178.26 214.861 1178.64 213.955 1178.84 213.001L1196.5 127.609C1198.27 119.09 1196.57 110.219 1191.8 102.949C1187.02 95.6785 1179.55 90.6038 1171.03 88.8412V88.8412ZM1138.79 162.338C1138.27 163.405 1137.64 164.416 1136.91 165.354C1135.35 167.384 1133.37 169.055 1131.1 170.254C1128.84 171.453 1126.35 172.152 1123.79 172.304C1123.26 172.331 1122.73 172.341 1122.19 172.323C1121.54 172.305 1120.89 172.25 1120.24 172.158C1117.45 171.766 1114.78 170.721 1112.47 169.107C1110.15 167.492 1108.25 165.354 1106.92 162.866C1105.59 160.378 1104.86 157.611 1104.8 154.789C1104.74 151.968 1105.34 149.171 1106.56 146.627C1107.08 145.559 1107.7 144.546 1108.42 143.606C1109.95 141.585 1111.88 139.911 1114.1 138.693C1116.32 137.476 1118.77 136.744 1121.29 136.545C1121.94 136.49 1122.59 136.471 1123.25 136.489C1123.79 136.508 1124.31 136.549 1124.84 136.614C1127.69 136.952 1130.41 137.969 1132.79 139.579C1135.16 141.19 1137.12 143.347 1138.48 145.87C1139.85 148.392 1140.59 151.206 1140.64 154.075C1140.7 156.943 1140.06 159.783 1138.79 162.354L1138.79 162.338ZM1094.61 127.763L1089.79 151.067L1022.67 137.181L1027.49 113.877L1094.61 127.763Z" stroke="#110002" stroke-width="3.91948" stroke-linecap="round" stroke-linejoin="round"/>
<path d="M941.875 77.6774L1182.37 127.435C1183.94 127.761 1185.32 128.696 1186.21 130.035C1187.09 131.375 1187.4 133.011 1187.08 134.583L1172.28 206.127C1172.12 206.907 1171.81 207.649 1171.36 208.308C1170.91 208.968 1170.34 209.532 1169.68 209.97C1169.01 210.409 1168.27 210.711 1167.48 210.861C1166.7 211.01 1165.9 211.004 1165.12 210.843L924.618 161.085C923.838 160.924 923.097 160.61 922.438 160.162C921.779 159.714 921.215 159.141 920.778 158.474C920.341 157.808 920.039 157.062 919.891 156.28C919.742 155.497 919.749 154.693 919.912 153.913L934.714 82.369C935.043 80.7984 935.982 79.4225 937.324 78.543C938.667 77.6635 940.303 77.3522 941.875 77.6774Z" fill="#FFEADF"/>
<path d="M1127.57 128.783L997.208 101.812C990.485 100.546 983.534 101.97 977.851 105.778C972.168 109.586 968.207 115.473 966.821 122.172C965.435 128.871 966.734 135.847 970.44 141.597C974.146 147.347 979.961 151.413 986.634 152.918L1116.99 179.889C1123.71 181.155 1130.67 179.731 1136.35 175.923C1142.03 172.115 1145.99 166.228 1147.38 159.529C1148.76 152.83 1147.47 145.854 1143.76 140.104C1140.05 134.354 1134.24 130.288 1127.57 128.783ZM1009.44 131.157C1009.38 131.475 1009.31 131.802 1009.24 132.128C1009.21 132.275 1009.18 132.422 1009.15 132.569C1009.15 132.6 1009.14 132.63 1009.13 132.659C1009.11 132.782 1009.08 132.904 1009.06 133.026C1009.05 133.084 1009.04 133.142 1009.02 133.198C1009 133.32 1008.97 133.435 1008.95 133.549C1008.95 133.569 1008.94 133.588 1008.94 133.606C1008.85 133.855 1008.76 134.1 1008.66 134.34C1008.55 134.608 1008.43 134.882 1008.31 135.12C1008.28 135.242 1008.2 135.361 1008.14 135.485C1008.08 135.609 1008.14 135.485 1008.14 135.485C1008.11 135.624 1008.02 135.741 1007.95 135.863C1007.82 136.133 1007.67 136.392 1007.52 136.625C1007.37 136.858 1007.22 137.109 1007.06 137.381C1006.89 137.635 1006.71 137.889 1006.54 138.125C1006.52 138.198 1006.44 138.258 1006.39 138.323C1006.38 138.342 1006.38 138.361 1006.37 138.381C1006.36 138.414 1006.33 138.444 1006.3 138.468C1006.21 138.599 1006.12 138.724 1006.01 138.843C1005.91 138.966 1005.81 139.098 1005.7 139.212C1005.5 139.443 1005.3 139.674 1005.08 139.935C1004.87 140.197 1004.85 140.177 1004.73 140.296C1004.6 140.415 1004.35 140.653 1004.16 140.835C1004.16 140.835 1004.16 140.835 1004.15 140.884L1003.94 141.069C1003.54 141.424 1003.13 141.76 1002.7 142.073L1002.51 142.204L1001.9 142.616L1001.55 142.841L1001.22 143.045L1001.08 143.127L1000.73 143.326C1000.59 143.408 1000.46 143.481 1000.31 143.547L999.896 143.759L999.453 143.965L999.014 144.155L998.576 144.337L998.125 144.499C997.978 144.554 997.83 144.608 997.676 144.653C997.245 144.802 996.77 144.917 996.362 145.037L996.058 145.11L995.612 145.205L995.098 145.303C994.957 145.325 994.815 145.355 994.676 145.369L994.57 145.347L994.124 145.4C993.957 145.425 993.802 145.435 993.629 145.451C993.462 145.471 993.295 145.481 993.128 145.483C992.865 145.499 992.601 145.51 992.338 145.516L991.929 145.516C991.798 145.489 991.658 145.511 991.522 145.509L991.023 145.491L990.528 145.456C990.448 145.444 990.369 145.428 990.291 145.407L989.997 145.346L989.891 145.324L989.581 145.26L989.124 145.166L988.887 145.117C988.552 145.047 988.217 144.978 987.891 144.911C987.564 144.843 987.278 144.784 986.986 144.672L986.513 144.532L985.585 144.204L985.184 144.044L985.094 144.025L984.681 143.838L984.292 143.663L984.145 143.591C983.897 143.471 983.64 143.341 983.374 143.201L983.115 143.054L982.932 142.948C982.711 142.826 982.501 142.688 982.297 142.561L981.885 142.289L981.529 142.036L981.182 141.777L980.852 141.521L980.48 141.223C980.379 141.134 980.268 141.051 980.169 140.954C979.837 140.664 979.509 140.358 979.2 140.039C979.002 139.844 978.822 139.645 978.634 139.445L978.346 139.104L978.066 138.774L977.797 138.428C977.613 138.203 977.448 137.973 977.276 137.733L977.035 137.377C976.968 137.286 976.912 137.19 976.854 137.101L976.604 136.7L976.373 136.295C976.291 136.159 976.216 136.024 976.144 135.881C976.032 135.679 975.931 135.471 975.829 135.263L975.647 134.867L975.555 134.652C975.489 134.522 975.432 134.388 975.383 134.251C975.262 133.97 975.157 133.693 975.055 133.408C974.952 133.123 974.771 132.557 974.656 132.125C974.579 131.837 974.505 131.54 974.449 131.231C974.394 130.921 974.33 130.695 974.285 130.422C974.302 130.34 974.26 130.255 974.244 130.166L974.181 129.728L974.126 129.256C974.107 129.099 974.098 128.936 974.088 128.78C974.052 128.458 974.043 128.132 974.032 127.815L974.032 127.321C974.028 126.89 974.046 126.459 974.086 126.03C974.117 125.551 974.173 125.077 974.243 124.615C974.305 124.315 974.367 124.013 974.43 123.708C974.498 123.382 974.562 123.071 974.628 122.753C974.662 122.59 974.694 122.435 974.726 122.279C974.822 121.814 975.013 121.385 975.173 120.941C975.298 120.627 975.424 120.304 975.564 120C975.631 119.836 975.707 119.676 975.791 119.52C975.821 119.373 975.915 119.247 975.987 119.109L976.195 118.718C976.224 118.579 976.344 118.45 976.422 118.322C976.559 118.069 976.713 117.82 976.877 117.564C977.04 117.309 977.212 117.055 977.389 116.819L977.517 116.65C977.819 116.22 978.149 115.811 978.503 115.423C978.648 115.257 978.795 115.083 978.955 114.929L978.971 114.847L979.444 114.375C979.559 114.271 979.656 114.172 979.77 114.076C980.695 113.227 981.706 112.478 982.787 111.839L983.192 111.608L983.586 111.391L983.76 111.249L984.185 111.047L984.617 110.855L985.053 110.682L985.489 110.508L985.94 110.346L986.387 110.2L986.839 110.072C986.943 110.036 987.048 110.006 987.156 109.984L987.444 109.908C987.937 109.788 988.426 109.685 988.927 109.61L989.41 109.54L989.908 109.481L990.15 109.463L990.402 109.438L990.508 109.46L990.879 109.435L991.359 109.423C991.684 109.414 992.006 109.421 992.336 109.43L992.683 109.442L993.028 109.462L993.497 109.5L993.554 109.512C993.66 109.533 993.767 109.555 993.881 109.579L993.995 109.603L994.477 109.702L995.081 109.827L995.791 109.974L996.608 110.143L997 110.224L997.48 110.375L997.95 110.532C998.563 110.757 999.163 111.014 999.748 111.304L1000.06 111.463L1000.63 111.776L1000.92 111.938C1001.33 112.184 1001.73 112.447 1002.13 112.724C1002.35 112.881 1002.58 113.048 1002.79 113.219C1003.28 113.597 1003.75 114.002 1004.2 114.431L1004.46 114.689C1005.14 115.362 1005.76 116.088 1006.32 116.862L1006.55 117.182L1006.65 117.33L1006.83 117.588L1007.12 118.057C1007.19 118.166 1007.26 118.272 1007.32 118.387C1007.38 118.502 1007.44 118.591 1007.49 118.688L1007.6 118.898L1007.66 119.003L1007.71 119.09C1007.76 119.185 1007.81 119.272 1007.85 119.366C1007.9 119.451 1007.94 119.54 1007.98 119.631C1008.05 119.766 1008.12 119.915 1008.18 120.056C1008.25 120.197 1008.18 120.056 1008.18 120.056C1008.18 120.056 1008.3 120.319 1008.35 120.45C1008.77 121.415 1009.1 122.415 1009.34 123.437C1009.36 123.562 1009.4 123.688 1009.42 123.821C1009.44 123.953 1009.52 124.327 1009.56 124.582C1009.6 124.837 1009.65 125.214 1009.69 125.528C1009.71 125.693 1009.72 125.859 1009.73 126.022C1009.74 126.186 1009.76 126.351 1009.77 126.515C1009.77 126.678 1009.78 126.842 1009.78 127.004C1009.78 127.166 1009.79 127.337 1009.79 127.507C1009.79 127.677 1009.79 127.839 1009.78 128.008C1009.77 128.176 1009.75 128.163 1009.77 128.253C1009.77 128.376 1009.76 128.5 1009.75 128.622C1009.73 128.967 1009.7 129.319 1009.66 129.66C1009.63 129.823 1009.59 129.987 1009.56 130.15C1009.49 130.468 1009.42 130.795 1009.36 131.13L1009.44 131.157ZM1089.79 151.067L1022.67 137.18L1027.49 113.877L1094.61 127.763L1089.79 151.067ZM1138.76 162.339C1138.24 163.406 1137.6 164.417 1136.87 165.355C1135.31 167.385 1133.33 169.056 1131.07 170.255C1128.81 171.454 1126.31 172.153 1123.75 172.305C1123.23 172.333 1122.7 172.342 1122.16 172.324C1121.51 172.306 1120.86 172.251 1120.21 172.159C1117.41 171.768 1114.75 170.722 1112.44 169.108C1110.12 167.493 1108.22 165.355 1106.89 162.867C1105.55 160.38 1104.83 157.612 1104.76 154.791C1104.7 151.969 1105.31 149.172 1106.53 146.628C1107.04 145.56 1107.67 144.547 1108.39 143.607C1109.91 141.586 1111.85 139.912 1114.07 138.695C1116.28 137.477 1118.74 136.745 1121.26 136.546C1121.91 136.491 1122.56 136.473 1123.21 136.49C1123.75 136.509 1124.28 136.55 1124.8 136.615C1127.65 136.953 1130.38 137.97 1132.75 139.581C1135.13 141.191 1137.08 143.348 1138.45 145.871C1139.82 148.393 1140.56 151.207 1140.61 154.076C1140.66 156.944 1140.03 159.784 1138.76 162.355L1138.76 162.339Z" fill="#4D4D4D" stroke="#110002" stroke-width="3.91948" stroke-linecap="round" stroke-linejoin="round"/>
<path d="M1094.61 127.763L1089.79 151.066L1080.88 149.223C1081.02 148.11 1081.2 147.008 1081.43 145.93C1082.86 138.933 1086.07 132.419 1090.73 127.011L1094.61 127.763Z" fill="black" stroke="#110002" stroke-width="3.91948" stroke-linecap="round" stroke-linejoin="round"/>
<path d="M1048.76 139.123C1048.53 140.212 1048.28 141.294 1047.99 142.369L1022.68 137.133L1027.49 113.879L1049.25 118.381C1050.34 125.268 1050.17 132.295 1048.76 139.123Z" fill="black" stroke="#110002" stroke-width="3.91948" stroke-linecap="round" stroke-linejoin="round"/>
<path d="M1146.82 264.364L930.249 219.555L949.044 186.328C950.039 184.573 951.566 183.178 953.405 182.345C955.243 181.512 957.299 181.284 959.275 181.693L1133.99 217.84C1135.92 218.239 1137.67 219.226 1139.02 220.664C1140.37 222.103 1141.23 223.923 1141.5 225.875L1146.82 264.364Z" fill="#BCBCBC" stroke="#110002" stroke-width="3.91948" stroke-linecap="round" stroke-linejoin="round"/>
<path d="M1002.22 203.633L1000.17 203.209C998.532 202.869 996.926 203.924 996.586 205.566L996.162 207.615C995.823 209.257 996.878 210.863 998.519 211.202L1000.57 211.626C1002.21 211.966 1003.82 210.911 1004.16 209.269L1004.58 207.22C1004.92 205.578 1003.86 203.972 1002.22 203.633Z" fill="#333333"/>
<path d="M1085.3 220.82L1083.25 220.396C1081.61 220.057 1080.01 221.112 1079.67 222.753L1079.24 224.803C1078.9 226.444 1079.96 228.05 1081.6 228.39L1083.65 228.814C1085.29 229.154 1086.9 228.098 1087.24 226.457L1087.66 224.407C1088 222.766 1086.95 221.16 1085.3 220.82Z" fill="#333333"/>
<path d="M955.155 217.454C959.092 218.268 962.944 215.737 963.758 211.8C964.573 207.864 962.042 204.012 958.105 203.197C954.168 202.383 950.316 204.914 949.502 208.851C948.687 212.788 951.218 216.639 955.155 217.454Z" fill="#333333"/>
<path d="M1121.33 251.833C1125.26 252.647 1129.11 250.116 1129.93 246.179C1130.74 242.243 1128.21 238.391 1124.27 237.576C1120.34 236.762 1116.49 239.293 1115.67 243.23C1114.86 247.167 1117.39 251.018 1121.33 251.833Z" fill="#333333"/>
<path d="M1040.84 220.321C1044.78 221.136 1048.63 218.604 1049.44 214.668C1050.26 210.731 1047.73 206.879 1043.79 206.065C1039.85 205.25 1036 207.781 1035.19 211.718C1034.37 215.655 1036.9 219.507 1040.84 220.321Z" fill="#333333"/>
<path d="M897.974 205.623C900.662 206.179 903.291 204.451 903.847 201.763C904.403 199.075 902.675 196.446 899.988 195.89C897.3 195.334 894.67 197.062 894.114 199.749C893.558 202.437 895.286 205.067 897.974 205.623Z" fill="#BCBCBC"/>
<path d="M931.345 44.326C934.033 44.882 936.662 43.154 937.218 40.4663C937.774 37.7787 936.046 35.1491 933.359 34.593C930.671 34.037 928.041 35.765 927.485 38.4526C926.929 41.1403 928.657 43.7699 931.345 44.326Z" fill="#BCBCBC"/>
<path d="M1173.78 261.962C1176.47 262.519 1179.1 260.79 1179.66 258.103C1180.21 255.415 1178.48 252.786 1175.8 252.23C1173.11 251.673 1170.48 253.401 1169.92 256.089C1169.37 258.777 1171.1 261.406 1173.78 261.962Z" fill="#BCBCBC"/>
<path d="M1207.15 100.666C1209.84 101.222 1212.47 99.4936 1213.03 96.8059C1213.58 94.1183 1211.86 91.4887 1209.17 90.9326C1206.48 90.3766 1203.85 92.1046 1203.29 94.7922C1202.74 97.4799 1204.47 100.109 1207.15 100.666Z" fill="#BCBCBC"/>
<path d="M227.165 180.561L223.865 181.884L222.518 178.512C223.092 178.202 223.682 177.924 224.286 177.681C224.79 177.481 225.29 177.308 225.796 177.159L227.165 180.561Z" fill="black" stroke="#110002" stroke-width="3.91948" stroke-linecap="round" stroke-linejoin="round"/>
<path d="M243.31 181.335L240.977 184.304L238.191 182.111L240.51 179.154C241.513 179.786 242.452 180.517 243.31 181.335Z" fill="black" stroke="#110002" stroke-width="3.91948" stroke-linecap="round" stroke-linejoin="round"/>
<path d="M248.866 195.188C248.813 196.375 248.638 197.554 248.343 198.705L244.716 198.188L245.223 194.674L248.866 195.188Z" fill="black" stroke="#110002" stroke-width="3.91948" stroke-linecap="round" stroke-linejoin="round"/>
<path d="M239.088 210.308C238.618 210.543 238.136 210.764 237.632 210.963C237.027 211.207 236.408 211.417 235.779 211.59L234.503 208.391L237.789 207.079L239.088 210.308Z" fill="black" stroke="#110002" stroke-width="3.91948" stroke-linecap="round" stroke-linejoin="round"/>
<path d="M223.334 206.763L221.263 209.404C220.263 208.762 219.328 208.022 218.474 207.195L220.539 204.572L223.334 206.763Z" fill="black" stroke="#110002" stroke-width="3.91948" stroke-linecap="round" stroke-linejoin="round"/>
<path d="M216.946 190.613L216.439 194.127L213.041 193.647C213.086 192.462 213.253 191.285 213.54 190.134L216.946 190.613Z" fill="black" stroke="#110002" stroke-width="3.91948" stroke-linecap="round" stroke-linejoin="round"/>
<path d="M86.2943 218.054L86.2378 218.475L85.7876 221.568L82.3963 221.078C82.3655 220.931 82.4098 220.777 82.4134 220.632L82.4485 220.19C82.4194 220.051 82.4801 219.893 82.4999 219.744C82.525 219.458 82.5665 219.168 82.6062 218.87C82.6459 218.572 82.72 218.276 82.7859 217.981C82.7999 217.922 82.8162 217.865 82.835 217.808C82.9472 217.301 83.0866 216.799 83.2526 216.307C83.1127 216.736 82.9909 217.171 82.8854 217.602L86.2943 218.054Z" fill="black" stroke="#110002" stroke-width="3.91948" stroke-linecap="round" stroke-linejoin="round"/>
<path d="M92.6489 234.212L90.5771 236.845L90.3088 236.662L89.9221 236.403L89.55 236.131C89.4199 236.039 89.2963 235.938 89.1744 235.844C89.0525 235.75 89.1744 235.844 89.1744 235.844L88.6469 235.401L88.3238 235.119L88.1307 234.93C88.0169 234.834 87.9195 234.735 87.814 234.638L89.8711 232.017L90.3506 232.394L92.6489 234.212Z" fill="black" stroke="#110002" stroke-width="3.91948" stroke-linecap="round" stroke-linejoin="round"/>
<path d="M108.625 237.633L108.41 237.746L108.055 237.923L107.699 238.091L107.324 238.255L106.948 238.411C106.793 238.443 106.65 238.533 106.49 238.583L106.03 238.748L105.794 238.798L105.5 238.859L105.394 238.881L105.076 238.948L103.8 235.748L104.445 235.494L107.092 234.427L108.391 237.656L108.625 237.633Z" fill="black" stroke="#110002" stroke-width="3.91948" stroke-linecap="round" stroke-linejoin="round"/>
<path d="M118.19 222.635C118.176 222.774 118.171 222.911 118.158 223.05C118.142 223.343 118.112 223.648 118.076 223.92C118.039 224.191 117.998 224.481 117.953 224.797C117.905 225.097 117.848 225.39 117.782 225.685C117.772 225.715 117.764 225.745 117.758 225.775C117.753 225.804 117.744 225.831 117.733 225.857L117.746 225.923L117.756 225.972L117.73 226.088L114.103 225.571L114.185 224.949L114.601 222.058L118.19 222.635Z" fill="black" stroke="#110002" stroke-width="3.91948" stroke-linecap="round" stroke-linejoin="round"/>
<path d="M112.625 208.774L110.293 211.751L109.945 211.474L107.515 209.556L109.834 206.599L110.04 206.726L110.476 207.018L110.866 207.294L111.139 207.501L111.332 207.648L111.422 207.714C111.449 207.735 111.474 207.758 111.497 207.784C111.579 207.842 111.658 207.905 111.732 207.973C111.813 208.032 111.887 208.102 111.96 208.164C112.032 208.225 112.199 208.369 112.314 208.473C112.422 208.578 112.527 208.675 112.625 208.774Z" fill="black" stroke="#110002" stroke-width="3.91948" stroke-linecap="round" stroke-linejoin="round"/>
<path d="M96.4816 208.009L96.159 208.137L93.1873 209.322L91.8344 205.96L91.6196 206.073L91.8327 205.952L92.264 205.733L92.6889 205.525L93.588 205.14L93.9024 205.015L94.2288 204.946C94.3744 204.888 94.5229 204.836 94.6738 204.793L94.7309 204.781L95.0492 204.715L95.1145 204.701L96.4816 208.009Z" fill="black" stroke="#110002" stroke-width="3.91948" stroke-linecap="round" stroke-linejoin="round"/>
<path d="M285.52 93.5025L5.91568 152.155C4.4277 152.466 3.01562 153.068 1.76023 153.925C0.504845 154.782 -0.56923 155.878 -1.40056 157.151C-2.23188 158.424 -2.80415 159.848 -3.08462 161.342C-3.36509 162.836 -3.34826 164.371 -3.0351 165.858L31.277 329.428C31.9071 332.432 33.7049 335.062 36.2746 336.741C38.8444 338.42 41.9758 339.009 44.9798 338.378L324.584 279.726C327.588 279.096 330.219 277.298 331.897 274.728C333.576 272.158 334.165 269.027 333.535 266.023L299.223 102.453C298.912 100.965 298.31 99.5532 297.453 98.2978C296.596 97.0425 295.5 95.9684 294.227 95.1371C292.954 94.3057 291.53 93.7335 290.036 93.453C288.542 93.1725 287.007 93.1893 285.52 93.5025ZM55.0071 190.095L259.64 147.169L275.311 221.871L70.6773 264.797L55.0071 190.095Z" fill="#4D4D4D" stroke="#110002" stroke-width="3.91948" stroke-linecap="round" stroke-linejoin="round"/>
<path d="M47.5384 157.209L249.103 114.927C257.618 113.141 266.493 114.81 273.776 119.568C281.06 124.325 286.155 131.782 287.941 140.296L305.844 225.639C306.045 226.592 306.056 227.575 305.877 228.533C305.697 229.49 305.331 230.403 304.799 231.219C304.267 232.035 303.579 232.738 302.775 233.288C301.97 233.837 301.066 234.223 300.112 234.423L48.8173 287.138C46.8975 287.534 44.8991 287.153 43.2592 286.079C41.6193 285.006 40.4715 283.326 40.067 281.408L22.1611 196.049C21.2766 191.832 21.2314 187.483 22.0281 183.249C22.8248 179.015 24.4478 174.979 26.8044 171.372C29.161 167.766 32.205 164.658 35.7626 162.228C39.3202 159.798 43.3216 158.093 47.5384 157.209Z" fill="#1F307C"/>
<path d="M117.788 226.033C117.788 226.033 117.8 226.091 117.764 226.124L117.776 226.181C117.778 226.2 117.782 226.219 117.788 226.238C117.786 226.275 117.776 226.312 117.76 226.346L117.722 226.49C117.722 226.49 117.739 226.572 117.684 226.635L117.6 226.925M249.103 114.927L47.5384 157.209C43.3216 158.093 39.3202 159.798 35.7626 162.228C32.205 164.658 29.161 167.766 26.8044 171.372C24.4478 174.979 22.8248 179.015 22.0281 183.249C21.2314 187.483 21.2766 191.832 22.1611 196.049L40.067 281.408C40.4715 283.326 41.6193 285.006 43.2592 286.079C44.8991 287.153 46.8975 287.534 48.8173 287.138L300.112 234.423C301.066 234.223 301.97 233.837 302.775 233.288C303.579 232.738 304.267 232.035 304.799 231.219C305.331 230.403 305.697 229.49 305.877 228.533C306.056 227.575 306.045 226.592 305.844 225.639L287.941 140.296C286.155 131.782 281.06 124.325 273.776 119.568C266.493 114.81 257.618 113.141 249.103 114.927V114.927ZM248.899 195.182C248.846 196.369 248.671 197.548 248.376 198.699C247.755 201.184 246.607 203.507 245.011 205.51C243.414 207.513 241.407 209.15 239.123 210.31C238.653 210.545 238.171 210.766 237.667 210.965C237.062 211.209 236.443 211.419 235.814 211.592C233.095 212.35 230.235 212.455 227.468 211.899C224.701 211.344 222.104 210.143 219.888 208.394C217.673 206.646 215.901 204.399 214.717 201.837C213.534 199.275 212.972 196.469 213.076 193.649C213.121 192.464 213.288 191.287 213.575 190.136C214.165 187.675 215.27 185.367 216.818 183.365C218.366 181.363 220.322 179.713 222.555 178.523C223.129 178.213 223.719 177.936 224.323 177.692C224.827 177.493 225.327 177.32 225.833 177.171C228.58 176.343 231.485 176.186 234.305 176.715C237.126 177.243 239.777 178.441 242.038 180.208C244.299 181.974 246.102 184.258 247.297 186.866C248.492 189.475 249.042 192.332 248.903 195.198L248.899 195.182ZM194.586 181.127L199.472 204.417L132.392 218.488L127.507 195.198L194.586 181.127Z" stroke="#110002" stroke-width="3.91948" stroke-linecap="round" stroke-linejoin="round"/>
<path d="M34.5538 196.201L274.914 145.78C276.485 145.451 278.122 145.758 279.466 146.633C280.811 147.509 281.754 148.882 282.088 150.452L297.087 221.955C297.251 222.734 297.261 223.539 297.114 224.322C296.968 225.105 296.668 225.852 296.233 226.519C295.798 227.186 295.235 227.761 294.578 228.211C293.92 228.661 293.18 228.977 292.4 229.14L52.0402 279.561C51.2604 279.724 50.4561 279.732 49.6731 279.585C48.8901 279.437 48.1439 279.137 47.4772 278.701C46.8104 278.264 46.2362 277.701 45.7873 277.043C45.3385 276.385 45.0238 275.644 44.8613 274.864L29.8622 203.362C29.537 201.79 29.8483 200.154 30.7278 198.811C31.6073 197.469 32.9832 196.53 34.5538 196.201Z" fill="#FFEADF"/>
<path d="M225.205 168.902L94.9218 196.232C88.2528 197.756 82.4487 201.837 78.7589 207.598C75.0691 213.358 73.7887 220.337 75.1931 227.033C76.5976 233.728 80.5747 239.604 86.2683 243.396C91.962 247.188 98.917 248.593 105.636 247.309L235.919 219.979C242.588 218.455 248.392 214.374 252.082 208.613C255.772 202.853 257.052 195.874 255.648 189.178C254.243 182.483 250.266 176.607 244.573 172.815C238.879 169.023 231.924 167.618 225.205 168.902ZM117.858 218.249C117.924 218.567 117.993 218.894 118.061 219.22C118.092 219.367 118.123 219.514 118.154 219.661C118.164 219.69 118.17 219.72 118.173 219.75C118.198 219.873 118.224 219.995 118.25 220.118C118.265 220.174 118.277 220.231 118.286 220.289C118.311 220.411 118.335 220.526 118.359 220.64C118.368 220.658 118.372 220.677 118.371 220.697C118.392 220.96 118.404 221.221 118.408 221.482C118.417 221.769 118.42 222.067 118.4 222.335C118.425 222.458 118.395 222.6 118.39 222.738C118.385 222.875 118.39 222.738 118.39 222.738C118.419 222.876 118.381 223.021 118.368 223.16C118.354 223.461 118.323 223.757 118.278 224.031C118.233 224.304 118.2 224.592 118.155 224.908C118.099 225.21 118.043 225.511 117.976 225.798C117.991 225.871 117.941 225.959 117.916 226.041C117.918 226.06 117.922 226.079 117.928 226.098C117.926 226.135 117.916 226.172 117.899 226.206C117.87 226.361 117.831 226.514 117.783 226.665C117.738 226.819 117.696 226.981 117.642 227.129C117.549 227.421 117.457 227.713 117.364 228.039C117.27 228.366 117.251 228.353 117.182 228.512C117.113 228.671 116.984 228.988 116.881 229.231C116.881 229.231 116.881 229.231 116.891 229.28L116.766 229.536C116.546 230.02 116.301 230.492 116.032 230.951L115.911 231.147L115.522 231.765L115.288 232.113L115.065 232.432L114.973 232.562L114.726 232.887C114.637 233.015 114.54 233.137 114.437 233.254L114.137 233.615L113.814 233.981L113.487 234.331L113.158 234.672L112.809 235.001C112.696 235.11 112.583 235.219 112.459 235.322C112.124 235.63 111.734 235.925 111.408 236.198L111.158 236.387L110.787 236.652L110.355 236.947C110.235 237.023 110.116 237.108 109.994 237.176L109.888 237.198L109.501 237.424C109.358 237.514 109.22 237.586 109.067 237.669C108.922 237.754 108.773 237.83 108.621 237.899C108.386 238.019 108.149 238.134 107.909 238.244L107.535 238.408C107.404 238.435 107.284 238.511 107.158 238.563L106.694 238.746L106.226 238.912C106.148 238.933 106.069 238.95 105.99 238.962L105.696 239.024L105.59 239.046L105.28 239.111L104.823 239.207L104.586 239.256C104.252 239.327 103.917 239.397 103.59 239.465C103.264 239.534 102.978 239.594 102.666 239.608L102.176 239.668L101.194 239.738L100.762 239.752L100.673 239.771L100.22 239.763L99.7928 239.759L99.6292 239.751C99.3543 239.74 99.0669 239.724 98.7669 239.702L98.4706 239.67L98.2611 239.646C98.009 239.622 97.7617 239.58 97.5242 239.545L97.0377 239.46L96.6101 239.37L96.1889 239.271L95.784 239.169L95.3233 239.044C95.1954 239.003 95.061 238.971 94.9313 238.922C94.5114 238.788 94.0881 238.638 93.6777 238.469C93.4184 238.37 93.1737 238.26 92.9208 238.151L92.5216 237.953L92.1322 237.762L91.7476 237.553C91.4896 237.42 91.2462 237.275 90.993 237.124L90.6294 236.893C90.5324 236.837 90.4418 236.771 90.353 236.713L89.9645 236.445L89.5907 236.166C89.4606 236.074 89.3387 235.98 89.2151 235.878C89.0323 235.737 88.8559 235.587 88.6795 235.437L88.3547 235.147L88.1847 234.987C88.0724 234.894 87.966 234.794 87.8663 234.687C87.6436 234.478 87.4372 234.266 87.229 234.045C87.0209 233.825 86.6292 233.379 86.3511 233.028C86.1658 232.795 85.9787 232.553 85.8046 232.291C85.6304 232.029 85.4815 231.848 85.3305 231.615C85.3134 231.534 85.2409 231.472 85.1911 231.397L84.9587 231.02L84.7193 230.61C84.6395 230.474 84.5662 230.327 84.4946 230.189C84.3333 229.907 84.1948 229.613 84.0581 229.326L83.8609 228.873C83.6852 228.48 83.5297 228.077 83.3949 227.668C83.2321 227.216 83.0937 226.76 82.9733 226.308C82.9106 226.009 82.8472 225.707 82.7833 225.402C82.7149 225.076 82.6498 224.765 82.583 224.447C82.5488 224.284 82.5163 224.129 82.4838 223.974C82.3862 223.509 82.39 223.039 82.3594 222.569C82.348 222.23 82.335 221.884 82.3417 221.55C82.338 221.373 82.3434 221.195 82.3579 221.018C82.3271 220.872 82.3633 220.719 82.3733 220.564L82.4084 220.122C82.3793 219.983 82.4382 219.817 82.4581 219.668C82.4832 219.382 82.5247 219.092 82.5725 218.792C82.6204 218.493 82.6765 218.191 82.7441 217.904L82.7945 217.698C82.9 217.184 83.0384 216.676 83.2087 216.18C83.2754 215.97 83.3404 215.752 83.4252 215.546L83.4081 215.465L83.6524 214.843C83.7165 214.702 83.766 214.572 83.8318 214.439C84.3409 213.291 84.9686 212.2 85.7048 211.183L85.9842 210.809L86.2588 210.454L86.3616 210.253L86.6706 209.899L86.9895 209.551L87.32 209.217L87.6505 208.884L87.999 208.555L88.3509 208.243L88.7145 207.945C88.7946 207.87 88.8798 207.801 88.9693 207.738L89.203 207.553C89.6073 207.246 90.0151 206.956 90.4443 206.688L90.8589 206.43L91.2915 206.178L91.5063 206.064L91.7275 205.941L91.8336 205.919L92.164 205.747L92.5987 205.546C92.8934 205.407 93.1915 205.285 93.4978 205.161L93.8204 205.034L94.1447 204.914L94.5897 204.762L94.6469 204.75C94.7529 204.727 94.859 204.705 94.9733 204.681L95.0875 204.657L95.569 204.556L96.1729 204.429L96.8828 204.28L97.6989 204.109L98.0906 204.027L98.5905 203.973L99.0839 203.93C99.7357 203.891 100.389 203.888 101.041 203.919L101.395 203.939L102.038 204L102.369 204.033C102.842 204.095 103.318 204.174 103.79 204.271C104.057 204.326 104.334 204.387 104.597 204.46C105.198 204.61 105.791 204.793 106.373 205.008L106.716 205.14C107.605 205.486 108.465 205.904 109.287 206.39L109.627 206.591L109.775 206.688L110.04 206.854L110.498 207.167C110.606 207.238 110.707 207.31 110.809 207.391C110.911 207.472 111 207.53 111.09 207.596L111.275 207.745L111.367 207.819L111.448 207.879C111.53 207.947 111.611 208.007 111.685 208.076C111.765 208.135 111.841 208.199 111.913 208.267C112.035 208.361 112.152 208.473 112.267 208.576C112.383 208.68 112.267 208.576 112.267 208.576C112.267 208.576 112.478 208.77 112.584 208.867C113.349 209.587 114.049 210.373 114.678 211.214C114.751 211.318 114.832 211.42 114.907 211.533C114.981 211.645 115.2 211.957 115.339 212.174C115.479 212.392 115.675 212.717 115.834 212.991C115.916 213.135 115.997 213.28 116.071 213.427C116.144 213.573 116.226 213.718 116.299 213.865C116.372 214.011 116.446 214.157 116.511 214.306C116.576 214.454 116.651 214.609 116.718 214.765C116.785 214.921 116.85 215.069 116.909 215.228C116.967 215.386 116.941 215.383 116.999 215.456C117.048 215.569 117.09 215.686 117.123 215.804C117.242 216.129 117.355 216.463 117.458 216.791C117.492 216.954 117.526 217.117 117.561 217.28C117.627 217.599 117.696 217.925 117.766 218.26L117.858 218.249ZM199.471 204.417L132.391 218.489L127.506 195.199L194.585 181.127L199.471 204.417ZM248.867 195.197C248.814 196.384 248.639 197.563 248.344 198.715C247.723 201.2 246.575 203.522 244.979 205.525C243.382 207.528 241.374 209.165 239.091 210.326C238.621 210.561 238.139 210.781 237.635 210.98C237.03 211.224 236.411 211.434 235.782 211.608C233.063 212.365 230.203 212.47 227.436 211.915C224.669 211.359 222.072 210.158 219.856 208.41C217.641 206.661 215.869 204.414 214.685 201.852C213.502 199.29 212.939 196.484 213.044 193.664C213.089 192.479 213.256 191.302 213.543 190.151C214.132 187.69 215.238 185.383 216.786 183.381C218.334 181.379 220.29 179.728 222.523 178.538C223.097 178.229 223.687 177.951 224.291 177.707C224.795 177.508 225.295 177.335 225.801 177.186C228.548 176.358 231.453 176.201 234.273 176.73C237.093 177.258 239.745 178.456 242.006 180.223C244.267 181.989 246.07 184.273 247.265 186.882C248.46 189.49 249.01 192.348 248.871 195.213L248.867 195.197Z" fill="#4D4D4D" stroke="#110002" stroke-width="3.91948" stroke-linecap="round" stroke-linejoin="round"/>
<path d="M194.586 181.126L199.471 204.417L190.568 206.284C190.249 205.21 189.979 204.125 189.753 203.047C188.274 196.059 188.61 188.809 190.728 181.987L194.586 181.126Z" fill="black" stroke="#110002" stroke-width="3.91948" stroke-linecap="round" stroke-linejoin="round"/>
<path d="M157.084 209.849C157.312 210.937 157.508 212.032 157.671 213.133L132.381 218.438L127.506 195.197L149.254 190.635C152.998 196.517 155.65 203.025 157.084 209.849Z" fill="black" stroke="#110002" stroke-width="3.91948" stroke-linecap="round" stroke-linejoin="round"/>
<path d="M297.001 285.511L80.5513 330.916L84.5142 292.948C84.7259 290.94 85.5688 289.052 86.9218 287.554C88.2748 286.056 90.068 285.026 92.0435 284.612L266.654 247.984C268.582 247.58 270.588 247.782 272.397 248.564C274.205 249.345 275.727 250.667 276.754 252.349L297.001 285.511Z" fill="#BCBCBC" stroke="#110002" stroke-width="3.91948" stroke-linecap="round" stroke-linejoin="round"/>
<path d="M140.179 287.576L138.131 288.006C136.49 288.35 135.439 289.959 135.783 291.599L136.213 293.648C136.557 295.288 138.166 296.339 139.806 295.995L141.855 295.565C143.495 295.221 144.546 293.612 144.202 291.972L143.772 289.923C143.428 288.283 141.819 287.232 140.179 287.576Z" fill="#333333"/>
<path d="M223.212 270.158L221.164 270.588C219.523 270.932 218.472 272.541 218.816 274.181L219.246 276.23C219.59 277.87 221.199 278.921 222.84 278.577L224.888 278.147C226.529 277.803 227.579 276.194 227.235 274.554L226.806 272.505C226.461 270.865 224.853 269.814 223.212 270.158Z" fill="#333333"/>
<path d="M102.547 319.045C106.481 318.219 109.002 314.361 108.176 310.426C107.351 306.492 103.492 303.971 99.5577 304.797C95.6232 305.622 93.1027 309.481 93.928 313.415C94.7534 317.35 98.612 319.87 102.547 319.045Z" fill="#333333"/>
<path d="M268.621 284.205C272.555 283.38 275.076 279.521 274.251 275.586C273.425 271.652 269.567 269.131 265.632 269.957C261.697 270.782 259.177 274.641 260.002 278.575C260.828 282.51 264.686 285.03 268.621 284.205Z" fill="#333333"/>
<path d="M182.25 287.457C186.184 286.632 188.705 282.773 187.879 278.838C187.054 274.904 183.195 272.383 179.261 273.209C175.326 274.034 172.806 277.893 173.631 281.827C174.457 285.762 178.315 288.282 182.25 287.457Z" fill="#333333"/>
<path d="M45.3973 331.031C48.0835 330.468 49.8042 327.834 49.2408 325.147C48.6773 322.461 46.043 320.74 43.3568 321.304C40.6707 321.867 38.9499 324.502 39.5134 327.188C40.0769 329.874 42.7112 331.595 45.3973 331.031Z" fill="#BCBCBC"/>
<path d="M11.5829 169.83C14.269 169.267 15.9898 166.632 15.4263 163.946C14.8628 161.26 12.2285 159.539 9.54238 160.103C6.85625 160.666 5.13549 163.301 5.69897 165.987C6.26244 168.673 8.89676 170.394 11.5829 169.83Z" fill="#BCBCBC"/>
<path d="M320.761 272.545C323.447 271.982 325.168 269.347 324.604 266.661C324.041 263.975 321.406 262.254 318.72 262.818C316.034 263.381 314.313 266.015 314.877 268.702C315.44 271.388 318.075 273.108 320.761 272.545Z" fill="#BCBCBC"/>
<path d="M286.944 111.342C289.63 110.778 291.351 108.144 290.788 105.458C290.224 102.772 287.59 101.051 284.904 101.615C282.218 102.178 280.497 104.812 281.06 107.498C281.624 110.185 284.258 111.905 286.944 111.342Z" fill="#BCBCBC"/>
</svg>
