<svg width="100" height="101" viewBox="0 0 100 101" fill="none" xmlns="http://www.w3.org/2000/svg">
<path d="M8.33301 91.8763L14.2143 70.4977C10.6006 64.226 8.70285 57.1131 8.71213 49.8748C8.67028 27.0659 27.1932 8.54297 49.9578 8.54297C61.0066 8.54297 71.3808 12.8266 79.1922 20.6405C83.0424 24.4707 86.0942 29.027 88.1708 34.0452C90.2474 39.0635 91.3075 44.4439 91.2897 49.8748C91.2897 72.6395 72.7668 91.1624 49.9997 91.1624C43.0696 91.1624 36.3069 89.4391 30.2582 86.123L8.33301 91.8763ZM31.2257 78.6882L32.4861 79.444C37.7767 82.5745 43.8104 84.2281 49.9578 84.2323C68.8598 84.2323 84.2759 68.8187 84.2759 49.9142C84.2759 40.7586 80.7062 32.1077 74.2365 25.6405C71.055 22.441 67.2718 19.9028 63.1049 18.1722C58.938 16.4415 54.4698 15.5526 49.9578 15.5568C31.0139 15.5592 15.6028 30.9728 15.6028 49.8773C15.6028 56.3445 17.4098 62.6887 20.8539 68.1491L21.6516 69.4514L18.1656 82.1348L31.2281 78.6907L31.2257 78.6882Z" fill="white"/>
<path fill-rule="evenodd" clip-rule="evenodd" d="M39.6673 32.5705C38.9115 30.8473 38.0721 30.8054 37.3581 30.8054C36.7279 30.7635 36.0533 30.7635 35.3394 30.7635C34.6698 30.7635 33.5349 31.0147 32.5698 32.0659C31.6023 33.1146 28.9583 35.5937 28.9583 40.6749C28.9583 45.7586 32.6535 50.6725 33.1582 51.3445C33.6604 52.0166 40.2976 62.7675 50.7998 66.928C59.5344 70.3721 61.2995 69.7 63.1902 69.4883C65.0784 69.2791 69.2808 67.0117 70.1622 64.5745C71.0016 62.1816 71.0016 60.0816 70.7505 59.6606C70.4994 59.2421 69.783 58.9886 68.7761 58.442C67.7249 57.9398 62.6855 55.4189 61.7205 55.0816C60.753 54.7468 60.0809 54.5794 59.4088 55.5863C58.7367 56.6375 56.7624 58.9467 56.1346 59.6188C55.5437 60.2909 54.916 60.3746 53.9066 59.8699C52.8579 59.3677 49.5393 58.2746 45.5905 54.7468C42.5231 52.0142 40.465 48.6144 39.8347 47.6075C39.2488 46.5563 39.751 46.0097 40.2976 45.5051C40.7604 45.0447 41.3488 44.2889 41.8534 43.7005C42.3557 43.1097 42.5231 42.6493 42.9022 41.9772C43.237 41.3052 43.0696 40.6749 42.8185 40.1727C42.5649 39.7099 40.593 34.6262 39.6673 32.5681V32.5705Z" fill="white"/>
</svg>
