<svg width="100" height="100" viewBox="0 0 100 100" fill="none" xmlns="http://www.w3.org/2000/svg">
<g filter="url(#filter0_d_4159_12270)">
<path d="M8.33203 91.6673L14.2134 70.2887C10.5996 64.0171 8.70187 56.9041 8.71115 49.6658C8.6693 26.8569 27.1922 8.33398 49.9568 8.33398C61.0056 8.33398 71.3798 12.6176 79.1912 20.4315C83.0414 24.2617 86.0933 28.818 88.1699 33.8362C90.2465 38.8545 91.3065 44.2349 91.2887 49.6658C91.2887 72.4305 72.7658 90.9534 49.9987 90.9534C43.0686 90.9534 36.3059 89.2301 30.2572 85.914L8.33203 91.6673ZM31.2247 78.4792L32.4852 79.235C37.7758 82.3655 43.8094 84.0191 49.9568 84.0233C68.8589 84.0233 84.2749 68.6097 84.2749 49.7052C84.2749 40.5496 80.7052 31.8987 74.2355 25.4315C71.0541 22.232 67.2709 19.6938 63.104 17.9632C58.9371 16.2325 54.4688 15.3437 49.9568 15.3478C31.013 15.3502 15.6018 30.7638 15.6018 49.6683C15.6018 56.1356 17.4088 62.4797 20.853 67.9401L21.6506 69.2424L18.1646 81.9258L31.2272 78.4817L31.2247 78.4792Z" fill="#1F307C"/>
<path fill-rule="evenodd" clip-rule="evenodd" d="M39.6663 32.3616C38.9106 30.6383 38.0711 30.5964 37.3571 30.5964C36.7269 30.5546 36.0524 30.5546 35.3384 30.5546C34.6688 30.5546 33.5339 30.8057 32.5689 31.8569C31.6014 32.9056 28.9573 35.3847 28.9573 40.4659C28.9573 45.5496 32.6526 50.4635 33.1572 51.1356C33.6595 51.8076 40.2966 62.5585 50.7988 66.719C59.5334 70.1631 61.2985 69.491 63.1892 69.2793C65.0775 69.0701 69.2798 66.8027 70.1612 64.3655C71.0007 61.9726 71.0007 59.8726 70.7496 59.4517C70.4984 59.0331 69.7821 58.7796 68.7752 58.233C67.724 57.7308 62.6846 55.2099 61.7195 54.8726C60.752 54.5378 60.0799 54.3704 59.4079 55.3773C58.7358 56.4285 56.7614 58.7377 56.1336 59.4098C55.5428 60.0819 54.915 60.1656 53.9056 59.6609C52.8569 59.1587 49.5383 58.0656 45.5895 54.5378C42.5221 51.8052 40.464 48.4054 39.8338 47.3985C39.2478 46.3473 39.7501 45.8007 40.2966 45.2961C40.7594 44.8357 41.3478 44.0799 41.8525 43.4915C42.3547 42.9007 42.5221 42.4403 42.9012 41.7683C43.236 41.0962 43.0686 40.4659 42.8175 39.9637C42.5639 39.5009 40.592 34.4172 39.6663 32.3591V32.3616Z" fill="#1F307C"/>
</g>
<defs>
<filter id="filter0_d_4159_12270" x="-4" y="0" width="108" height="108" filterUnits="userSpaceOnUse" color-interpolation-filters="sRGB">
<feFlood flood-opacity="0" result="BackgroundImageFix"/>
<feColorMatrix in="SourceAlpha" type="matrix" values="0 0 0 0 0 0 0 0 0 0 0 0 0 0 0 0 0 0 127 0" result="hardAlpha"/>
<feOffset dy="4"/>
<feGaussianBlur stdDeviation="2"/>
<feComposite in2="hardAlpha" operator="out"/>
<feColorMatrix type="matrix" values="0 0 0 0 0 0 0 0 0 0 0 0 0 0 0 0 0 0 0.25 0"/>
<feBlend mode="normal" in2="BackgroundImageFix" result="effect1_dropShadow_4159_12270"/>
<feBlend mode="normal" in="SourceGraphic" in2="effect1_dropShadow_4159_12270" result="shape"/>
</filter>
</defs>
</svg>
