<svg width="618" height="659" viewBox="0 0 618 659" fill="none" xmlns="http://www.w3.org/2000/svg">
<line x1="63.7517" y1="8.38823e-08" x2="63.7517" y2="1022.32" stroke="#0B0A0A" stroke-width="3"/>
<line x1="177.909" y1="8.38823e-08" x2="177.909" y2="1022.32" stroke="#0B0A0A" stroke-width="3"/>
<line x1="292.067" y1="8.38823e-08" x2="292.067" y2="1022.32" stroke="#0B0A0A" stroke-width="3"/>
<line x1="406.224" y1="8.38823e-08" x2="406.224" y2="1022.32" stroke="url(#paint0_linear_3405_8549)" stroke-width="3"/>
<line x1="514.441" y1="1022.33" x2="514.441" y2="42.9913" stroke="url(#paint1_linear_3405_8549)" stroke-width="3"/>
<line x1="573" y1="105.363" x2="-384" y2="105.363" stroke="url(#paint2_linear_3405_8549)" stroke-width="3"/>
<line x1="617" y1="218.911" x2="-384" y2="218.911" stroke="url(#paint3_linear_3405_8549)" stroke-opacity="0.5" stroke-width="3"/>
<line x1="617" y1="333.54" x2="-384" y2="333.54" stroke="url(#paint4_linear_3405_8549)" stroke-opacity="0.5" stroke-width="3"/>
<line x1="617" y1="447.698" x2="-384" y2="447.698" stroke="#0B0A0A" stroke-width="3"/>
<line x1="617" y1="561.855" x2="-384" y2="561.855" stroke="#0B0A0A" stroke-width="3"/>
<path d="M83.1742 379.316C136.8 363.048 177.607 328.97 174.32 303.201C171.032 277.432 124.895 269.729 71.269 285.997C17.6431 302.264 -23.1643 336.342 -19.8768 362.111C-16.5893 387.88 29.5482 395.583 83.1742 379.316Z" fill="#ED6E30" stroke="#110002" stroke-width="4" stroke-linejoin="round"/>
<path d="M7.24316 438.93L-25.9514 404.079L-11.9896 388.797L8.95331 410.785C12.2027 414.197 13.848 419.079 13.5272 424.357C13.2065 429.635 10.9461 434.877 7.24316 438.93Z" fill="#110002" stroke="#110002" stroke-width="4" stroke-linejoin="round"/>
<path d="M67.5509 220.848C80.8905 234.853 87.6449 254.895 86.3283 276.563C85.0117 298.231 75.7318 319.752 60.5302 336.39L-13.1451 417.029L-113.739 311.414L-40.0638 230.776C-24.8622 214.137 -4.98407 203.744 15.1976 201.882C35.3793 200.02 54.2113 206.842 67.5509 220.848Z" fill="#ED6E30" stroke="#110002" stroke-width="4" stroke-linejoin="round"/>
<path d="M104.313 77.0463L56.2665 127.902L116.606 146.845L114.822 80.3438C114.787 79.0716 114.414 77.8903 113.746 76.9358C113.077 75.9812 112.141 75.2921 111.043 74.9477C109.945 74.6033 108.731 74.6175 107.541 74.9887C106.35 75.3599 105.231 76.0731 104.313 77.0463Z" fill="#110002" stroke="#110002" stroke-width="4" stroke-linejoin="round"/>
<path d="M98.1939 97.8392L50.3155 147.04L108.898 165.438L106.069 100.309C106.028 99.3654 105.74 98.4928 105.236 97.7884C104.732 97.0839 104.033 96.5753 103.216 96.3192C102.399 96.0631 101.497 96.0696 100.611 96.338C99.7238 96.6064 98.8871 97.1261 98.1939 97.8392Z" fill="#FFE3D4" stroke="#110002" stroke-width="4" stroke-miterlimit="10"/>
<path d="M33.227 254.923L35.5228 257.333C43.7161 265.936 47.8656 278.245 47.0589 291.553C46.2521 304.862 40.5552 318.081 31.2208 328.303L-31.7898 397.269L-95.8791 329.981L-32.8684 261.015C-23.5296 250.794 -11.3178 244.409 1.08049 243.265C13.4788 242.121 25.0479 246.312 33.2429 254.916L33.227 254.923Z" fill="#FFE3D4" stroke="#110002" stroke-width="4" stroke-miterlimit="10"/>
<path d="M48.7367 240.82C78.2795 271.838 121.39 276.01 145.026 250.139C168.663 224.269 163.875 178.152 134.332 147.135C104.789 116.118 61.6789 111.946 38.0424 137.816C14.4059 163.686 19.1939 209.803 48.7367 240.82Z" fill="#FFE3D4" stroke="#110002" stroke-width="4" stroke-miterlimit="10"/>
<path d="M199.463 175.457L154.908 229.789L133.245 166.888L195.692 164.505C196.886 164.46 198.017 164.78 198.954 165.428C199.892 166.076 200.598 167.027 200.992 168.171C201.386 169.314 201.451 170.605 201.181 171.894C200.911 173.183 200.315 174.418 199.463 175.457Z" fill="#110002" stroke="#110002" stroke-width="4" stroke-linejoin="round"/>
<path d="M180.891 184.472L142.163 234.114L122.4 176.753L178.081 176.302C178.958 176.297 179.782 176.554 180.464 177.044C181.146 177.534 181.661 178.239 181.95 179.082C182.24 179.924 182.295 180.873 182.108 181.823C181.921 182.774 181.5 183.69 180.891 184.472Z" fill="#FFE3D4" stroke="#110002" stroke-width="4" stroke-miterlimit="10"/>
<path d="M145.697 249.365C168.563 223.354 163.583 177.837 134.336 147.131C105.089 116.424 62.534 112.033 38.7512 137.069C38.6852 137.142 38.6246 137.208 38.5585 137.28L38.9499 137.691L65.1216 222.897L145.129 249.169L145.52 249.58C145.576 249.509 145.631 249.437 145.697 249.365Z" fill="#ED6E30" stroke="#110002" stroke-width="4" stroke-linejoin="round"/>
<path d="M63.9609 224.157C68.1691 228.575 73.6685 229.871 76.2442 227.052C78.8199 224.233 77.4965 218.366 73.2883 213.948C69.0801 209.529 63.5807 208.233 61.005 211.052C58.4293 213.871 59.7527 219.738 63.9609 224.157Z" fill="#110002" stroke="#110002" stroke-width="4" stroke-linejoin="round"/>
<path d="M65.7244 172.852C68.3241 175.581 72.8331 175.166 75.7957 171.923C78.7582 168.68 79.0524 163.839 76.4527 161.11C73.8531 158.38 69.344 158.796 66.3814 162.039C63.4189 165.281 63.1247 170.123 65.7244 172.852Z" fill="#110002" stroke="#110002" stroke-width="4" stroke-linejoin="round"/>
<path d="M111.248 220.647C113.848 223.376 118.357 222.96 121.319 219.718C124.282 216.475 124.576 211.634 121.976 208.905C119.377 206.175 114.868 206.591 111.905 209.834C108.943 213.076 108.648 217.918 111.248 220.647Z" fill="#110002" stroke="#110002" stroke-width="4" stroke-linejoin="round"/>
<path d="M-7.90213 243.298C-6.52691 244.742 -5.47383 246.509 -4.80303 248.499C-4.13222 250.49 -3.85683 252.664 -3.99256 254.898C-4.1283 257.132 -4.67251 259.381 -5.59412 261.519C-6.51573 263.656 -7.7967 265.639 -9.36388 267.354L-93.5622 359.51L-114.482 337.546L-30.284 245.39C-27.1237 241.931 -22.9924 239.768 -18.7965 239.376C-14.6006 238.984 -10.6826 240.394 -7.90213 243.298Z" fill="#110002" stroke="#110002" stroke-width="4" stroke-linejoin="round"/>
<path d="M49.1772 303.225C50.5524 304.669 51.6055 306.436 52.2763 308.427C52.9471 310.417 53.2225 312.591 53.0868 314.825C52.951 317.059 52.4068 319.309 51.4852 321.446C50.5636 323.583 49.2826 325.566 47.7155 327.281L-36.4829 419.437L-57.4272 397.448L26.7712 305.292C29.9363 301.828 34.075 299.664 38.2769 299.276C42.4789 298.889 46.3998 300.309 49.1772 303.225Z" fill="#110002" stroke="#110002" stroke-width="4" stroke-linejoin="round"/>
<path d="M174.841 303.229C172.844 287.61 155.072 278.635 129.418 277.623C125.974 281.065 123.685 285.599 123.012 290.314C122.673 292.901 122.856 295.451 123.55 297.788C119.106 301.554 116.004 306.648 115.258 312.242C114.303 319.506 117.526 325.854 123.216 329.513C122.131 331.647 121.414 333.927 121.106 336.227C119.838 345.761 125.806 353.727 135.061 356.086C160.924 339.613 176.925 319.707 174.841 303.229Z" fill="#FFE3D4" stroke="#110002" stroke-width="4" stroke-miterlimit="10"/>
<path d="M192.048 259.93C192.048 259.93 197.32 241.896 194.913 238.591C192.506 235.285 177.923 230.276 177.923 230.276C177.923 230.276 193.265 233.341 197.54 231.836C201.814 230.331 207.353 219.925 207.353 219.925C207.353 219.925 204.516 231.062 206.92 234.367C209.325 237.672 223.913 242.683 223.913 242.683C223.913 242.683 208.57 239.618 204.297 241.121C200.023 242.624 192.048 259.93 192.048 259.93Z" fill="#FFE3D4" stroke="black" stroke-width="4" stroke-miterlimit="10"/>
<defs>
<linearGradient id="paint0_linear_3405_8549" x1="404.722" y1="511.16" x2="419.999" y2="-172.5" gradientUnits="userSpaceOnUse">
<stop stop-color="#0B0A0A"/>
<stop offset="1" stop-color="#0B0A0A" stop-opacity="0"/>
</linearGradient>
<linearGradient id="paint1_linear_3405_8549" x1="515.937" y1="532.66" x2="532.997" y2="-203.5" gradientUnits="userSpaceOnUse">
<stop stop-color="#0B0A0A"/>
<stop offset="1" stop-color="#0B0A0A" stop-opacity="0"/>
</linearGradient>
<linearGradient id="paint2_linear_3405_8549" x1="94.4996" y1="103.847" x2="695" y2="88.9842" gradientUnits="userSpaceOnUse">
<stop stop-color="#0B0A0A"/>
<stop offset="1" stop-color="#0B0A0A" stop-opacity="0"/>
</linearGradient>
<linearGradient id="paint3_linear_3405_8549" x1="116.501" y1="217.427" x2="709.5" y2="197.516" gradientUnits="userSpaceOnUse">
<stop stop-color="#0B0A0A"/>
<stop offset="1" stop-color="#0B0A0A" stop-opacity="0"/>
</linearGradient>
<linearGradient id="paint4_linear_3405_8549" x1="116.501" y1="332.056" x2="1019" y2="259.516" gradientUnits="userSpaceOnUse">
<stop stop-color="#0B0A0A"/>
<stop offset="1" stop-color="#0B0A0A" stop-opacity="0"/>
</linearGradient>
</defs>
</svg>
