<svg version="1.1" id="Layer_1" xmlns="http://www.w3.org/2000/svg" xmlns:xlink="http://www.w3.org/1999/xlink" x="0px" y="0px"
	 width="100%" viewBox="0 0 325 355" enable-background="new 0 0 325 355" xml:space="preserve">
<path fill="#180709" opacity="1.000000" stroke="none" 
	d="
M1.000000,89.000000 
	C1.000000,59.333340 1.000000,30.166677 1.000000,1.000012 
	C109.333313,1.000008 217.666626,1.000008 325.999939,1.000004 
	C325.999969,119.333290 325.999969,237.666580 326.000000,355.999908 
	C217.666733,355.999939 109.333466,355.999939 1.000098,355.999969 
	C1.000000,267.166656 1.000000,178.333328 1.000000,89.000000 
M321.683899,142.500488 
	C321.683899,96.758675 321.683899,51.016861 321.683899,5.247823 
	C215.836487,5.247823 110.584167,5.247823 5.248267,5.247823 
	C5.248267,120.737793 5.248267,235.988464 5.248267,351.168549 
	C110.740509,351.168549 215.992874,351.168549 321.683960,351.168549 
	C321.683960,281.738922 321.683960,212.619720 321.683899,142.500488 
z"/>
<path fill="#FDFCFC" opacity="1.000000" stroke="none" 
	d="
M321.683929,143.000504 
	C321.683960,212.619720 321.683960,281.738922 321.683960,351.168549 
	C215.992874,351.168549 110.740509,351.168549 5.248267,351.168549 
	C5.248267,235.988464 5.248267,120.737793 5.248267,5.247823 
	C110.584167,5.247823 215.836487,5.247823 321.683899,5.247823 
	C321.683899,51.016861 321.683899,96.758675 321.683929,143.000504 
M310.984070,47.066219 
	C310.984070,36.399189 310.984070,25.732162 310.984070,15.154431 
	C300.516663,15.154431 290.761749,15.154431 280.230865,14.995296 
	C279.174805,15.010798 278.118713,15.026300 276.179169,15.007421 
	C274.410950,15.028640 272.642700,15.049859 270.096680,15.007136 
	C269.062561,15.056927 268.028473,15.106716 266.067169,15.015688 
	C182.071671,15.015688 98.076164,15.015688 14.005154,15.015688 
	C14.005154,87.489021 14.003505,159.251266 14.011645,231.013519 
	C14.011947,233.673965 14.107797,236.334412 13.999562,239.762192 
	C14.020617,240.807129 14.041672,241.852066 14.024475,243.826172 
	C14.043771,246.933777 14.063066,250.041367 14.017048,253.920944 
	C14.061478,254.947906 14.105907,255.974869 14.003372,257.928680 
	C14.003372,285.856842 14.003372,313.785034 14.003372,341.829559 
	C39.950077,341.829559 65.403313,341.829559 91.789467,341.961914 
	C95.788956,341.925171 99.788445,341.888458 104.758080,341.986084 
	C114.175117,341.984589 123.592148,341.983063 133.942215,342.030304 
	C148.665939,341.997559 163.389664,341.964844 179.034714,341.992828 
	C188.663101,341.939178 198.291473,341.885498 208.846573,341.962860 
	C212.316498,341.917572 215.786438,341.872314 220.152298,341.965088 
	C250.392105,341.965088 280.631927,341.965088 311.008209,341.965088 
	C311.008209,340.357178 311.008209,339.368439 311.008209,338.379700 
	C311.008209,248.081543 311.008820,157.783401 311.001495,67.485245 
	C311.001404,66.323105 310.899719,65.160980 310.995178,63.213173 
	C310.958588,61.881790 310.921997,60.550411 310.947662,58.326767 
	C310.970612,56.250160 310.993561,54.173550 311.017670,51.271545 
	C310.960175,50.178894 310.902710,49.086246 310.984070,47.066219 
z"/>
<path fill="#1C0606" opacity="1.000000" stroke="none" 
	d="
M310.845490,63.998848 
	C310.899719,65.160980 311.001404,66.323105 311.001495,67.485245 
	C311.008820,157.783401 311.008209,248.081543 311.008209,338.379700 
	C311.008209,339.368439 311.008209,340.357178 311.008209,341.965088 
	C280.631927,341.965088 250.392105,341.965088 219.697662,341.437805 
	C219.206345,322.585236 219.474487,304.252777 219.047150,285.936584 
	C218.621063,267.674347 210.861633,252.629684 197.402710,240.370010 
	C195.013397,238.193619 193.021942,237.764618 189.910461,238.978287 
	C166.406372,248.146469 142.844025,247.956619 119.219101,239.163284 
	C117.523582,238.532211 114.537025,238.970398 113.206512,240.126450 
	C98.747284,252.690033 91.075493,268.606476 90.903625,287.850647 
	C90.742943,305.842316 90.861107,323.836487 90.856552,341.829559 
	C65.403313,341.829559 39.950077,341.829559 14.003372,341.829559 
	C14.003372,313.785034 14.003372,285.856842 14.390619,257.500244 
	C15.843867,257.681183 16.909866,258.290588 17.995384,259.376038 
	C18.014902,285.779388 18.014902,311.706635 18.014902,337.611023 
	C41.728622,337.611023 64.787598,337.611023 88.119698,337.611023 
	C88.119698,320.597351 87.868683,303.942932 88.191246,287.299622 
	C88.505386,271.090271 94.028786,256.686340 104.954247,244.561478 
	C107.454330,241.786896 110.364395,239.381744 113.246651,236.654343 
	C109.632988,234.347916 106.601913,232.595108 103.763458,230.572037 
	C86.090302,217.975891 77.042511,196.419464 88.985237,176.060059 
	C89.834396,174.612442 89.832352,172.550171 89.877922,170.764816 
	C90.239227,156.610733 90.564026,142.455276 90.784851,128.298431 
	C90.839302,124.807175 91.095436,121.607002 94.733032,119.874817 
	C98.685173,117.992836 101.382469,120.362129 104.109962,122.621300 
	C113.082451,130.053116 121.957443,137.608292 131.103531,144.819733 
	C132.780579,146.142044 135.676758,146.860214 137.796692,146.521393 
	C149.097641,144.715225 160.301575,144.706573 171.599716,146.569077 
	C173.663025,146.909225 176.560165,146.027893 178.167984,144.652863 
	C186.645309,137.402893 194.890045,129.876007 203.088654,122.307816 
	C205.821808,119.784843 208.556915,117.750740 212.392731,119.344452 
	C216.270065,120.955414 216.635223,124.495140 216.833588,128.110840 
	C217.563385,141.413910 218.261963,154.720078 219.188248,168.010010 
	C219.414993,171.263275 219.838852,174.763092 221.236435,177.630844 
	C228.573898,192.686615 227.193726,206.937515 216.652512,219.617188 
	C211.229187,226.140732 204.089951,231.237732 197.607071,237.086746 
	C199.488968,238.775955 201.928391,240.965591 204.230270,243.031754 
	C209.990891,236.997437 215.275925,230.991791 221.056473,225.508514 
	C231.531937,215.571808 242.999100,207.035324 257.345154,203.455444 
	C272.820404,199.593796 284.067017,206.945053 287.094666,222.468674 
	C288.961456,232.040466 287.946625,241.467514 285.383606,250.638062 
	C276.278381,283.216461 258.905975,310.707794 233.608826,333.179047 
	C232.102982,334.516693 230.595230,335.852203 228.649307,337.578125 
	C255.361328,337.578125 281.074127,337.578125 306.976532,337.578125 
	C306.976532,329.522522 306.974487,321.864380 306.976837,314.206238 
	C307.002319,231.056946 307.028473,147.907654 307.304596,64.543274 
	C308.651672,64.218414 309.748566,64.108627 310.845490,63.998848 
M133.743988,150.041718 
	C123.767082,152.326019 114.365051,155.975845 105.995537,161.970047 
	C96.225792,168.967056 88.945610,177.656479 86.708374,189.938263 
	C86.197601,192.742218 86.710152,194.111816 89.350609,195.266617 
	C106.551048,202.789124 123.670113,210.498047 140.889771,217.975616 
	C142.192841,218.541473 144.371323,218.301620 145.626801,217.561188 
	C151.678665,213.992142 157.509933,214.211868 163.604813,217.452957 
	C165.036133,218.214096 167.368851,218.477325 168.802460,217.854553 
	C185.853806,210.447128 202.785797,202.765274 219.823639,195.326126 
	C222.738953,194.053223 223.185593,192.471375 222.598846,189.562897 
	C220.484314,179.081070 214.818314,170.847839 206.531494,164.510849 
	C184.966888,148.020187 160.527924,145.116135 133.743988,150.041718 
M236.017883,327.534882 
	C255.629486,308.844330 270.055054,286.845306 279.582245,260.563568 
	C271.058258,261.777435 264.254333,261.031067 259.049469,254.679398 
	C257.832458,253.194244 255.474625,252.072006 253.523697,251.857864 
	C244.429535,250.859695 238.870743,245.642242 237.770782,236.722275 
	C237.603394,235.364868 237.028397,233.919083 236.235138,232.803391 
	C233.814636,229.398972 231.195450,226.135834 228.058762,222.041245 
	C220.993927,229.390015 213.484970,237.200760 205.899933,245.090637 
	C216.300278,258.200562 221.751282,272.249908 221.920349,288.106750 
	C222.080078,303.087708 221.950409,318.071747 221.966873,333.054413 
	C221.968597,334.636597 222.097183,336.218658 222.223770,339.090210 
	C227.209991,334.928009 231.352493,331.470093 236.017883,327.534882 
M172.001038,241.672653 
	C174.428040,241.106110 176.888184,240.652878 179.276733,239.954803 
	C196.206665,235.006912 211.110809,227.125244 219.441116,210.573227 
	C221.467880,206.546143 222.212723,201.873856 223.939972,196.209549 
	C204.363708,204.956375 186.514404,212.908173 168.701248,220.940109 
	C167.432983,221.512009 166.197571,222.491302 165.342941,223.589386 
	C161.166519,228.955490 150.102768,229.715652 145.100601,225.198563 
	C142.389709,222.750565 139.272156,220.607361 136.025925,218.931152 
	C130.876984,216.272507 125.468201,214.116577 120.166275,211.754868 
	C109.023758,206.791473 97.879257,201.832565 85.841393,196.473755 
	C86.583466,199.971268 86.922256,202.584808 87.698631,205.061157 
	C92.510498,220.409271 103.985680,229.413513 117.892471,235.652771 
	C134.914703,243.289810 152.834335,244.608841 172.001038,241.672653 
M243.217575,244.138046 
	C247.353561,249.365479 253.222641,249.279541 258.870667,248.963272 
	C263.510437,257.507935 269.605835,260.387329 277.939606,257.790131 
	C279.509918,257.300751 281.595306,255.485214 281.793335,254.053482 
	C283.107452,244.550827 285.070038,234.947052 284.732910,225.450333 
	C284.190399,210.167725 273.099884,202.071152 258.360413,206.177322 
	C250.377869,208.401123 243.157593,213.314102 235.530045,216.878296 
	C231.456711,218.781677 230.789337,222.520554 233.326141,224.899506 
	C238.882523,230.110092 240.127380,237.080887 243.217575,244.138046 
M101.928558,140.837860 
	C101.928558,147.717133 101.928558,154.596390 101.928558,161.111786 
	C108.152992,157.698898 114.777779,154.066483 121.564194,150.345444 
	C116.942963,146.641022 112.301170,142.880661 107.612503,139.179688 
	C105.526726,137.533279 103.464546,136.816071 101.928558,140.837860 
M205.400162,138.109451 
	C204.308426,138.319153 202.930099,138.177475 202.171829,138.795990 
	C197.502029,142.605118 192.972137,146.585800 188.411530,150.495880 
	C195.506393,154.535233 202.170609,158.329407 209.562469,162.537857 
	C208.337112,154.211060 207.188644,146.406815 205.400162,138.109451 
z"/>
<path fill="#EA6D2F" opacity="1.000000" stroke="none" 
	d="
M91.323013,341.895752 
	C90.861107,323.836487 90.742943,305.842316 90.903625,287.850647 
	C91.075493,268.606476 98.747284,252.690033 113.206512,240.126450 
	C114.537025,238.970398 117.523582,238.532211 119.219101,239.163284 
	C142.844025,247.956619 166.406372,248.146469 189.910461,238.978287 
	C193.021942,237.764618 195.013397,238.193619 197.402710,240.370010 
	C210.861633,252.629684 218.621063,267.674347 219.047150,285.936584 
	C219.474487,304.252777 219.206345,322.585236 219.249695,341.368774 
	C215.786438,341.872314 212.316498,341.917572 208.387177,341.439880 
	C207.928329,324.783325 207.995789,308.649353 207.904755,292.516296 
	C207.848602,282.564972 201.963638,276.595001 192.393204,275.970764 
	C190.554077,275.850769 188.350723,274.706421 187.089813,273.326874 
	C169.852310,254.466934 139.688995,254.211090 122.168945,272.765808 
	C120.636780,274.388428 118.280350,275.637207 116.091515,276.162262 
	C108.416214,278.003296 103.793434,283.349701 103.763573,291.455963 
	C103.701714,308.254272 103.771996,325.053101 103.787933,341.851746 
	C99.788445,341.888458 95.788956,341.925171 91.323013,341.895752 
z"/>
<path fill="#130103" opacity="1.000000" stroke="none" 
	d="
M104.273010,341.918884 
	C103.771996,325.053101 103.701714,308.254272 103.763573,291.455963 
	C103.793434,283.349701 108.416214,278.003296 116.091515,276.162262 
	C118.280350,275.637207 120.636780,274.388428 122.168945,272.765808 
	C139.688995,254.211090 169.852310,254.466934 187.089813,273.326874 
	C188.350723,274.706421 190.554077,275.850769 192.393204,275.970764 
	C201.963638,276.595001 207.848602,282.564972 207.904755,292.516296 
	C207.995789,308.649353 207.928329,324.783325 207.923813,341.374390 
	C198.291473,341.885498 188.663101,341.939178 178.522888,341.501221 
	C178.007736,326.543793 178.187073,312.074738 177.930511,297.613403 
	C177.783768,289.342743 178.106735,281.555969 186.739899,277.379272 
	C171.128998,255.331757 134.255310,258.140076 123.030083,276.684326 
	C128.831375,279.104248 133.017578,283.171722 133.093582,289.646271 
	C133.298370,307.088593 133.067276,324.536102 133.009186,341.981537 
	C123.592148,341.983063 114.175117,341.984589 104.273010,341.918884 
z"/>
<path fill="#FDE1D2" opacity="1.000000" stroke="none" 
	d="
M133.475708,342.005920 
	C133.067276,324.536102 133.298370,307.088593 133.093582,289.646271 
	C133.017578,283.171722 128.831375,279.104248 123.030083,276.684326 
	C134.255310,258.140076 171.128998,255.331757 186.739899,277.379272 
	C178.106735,281.555969 177.783768,289.342743 177.930511,297.613403 
	C178.187073,312.074738 178.007736,326.543793 178.062225,341.470856 
	C163.389664,341.964844 148.665939,341.997559 133.475708,342.005920 
z"/>
<path fill="#FBE7DC" opacity="1.000000" stroke="none" 
	d="
M311.016510,52.096943 
	C310.993561,54.173550 310.970612,56.250160 310.535889,58.781723 
	C305.951019,60.332806 301.788055,61.469101 297.602905,62.516975 
	C287.940002,64.936363 282.056091,71.031624 280.081940,80.749451 
	C277.935425,91.315964 275.936005,101.913116 273.963409,112.513840 
	C273.214661,116.537476 272.719238,120.608261 272.141724,124.436455 
	C269.436157,108.804222 266.841827,93.260506 264.020386,77.758118 
	C262.704468,70.527695 258.530792,65.360611 251.472549,62.911236 
	C245.377289,60.796043 239.239090,58.784294 233.047867,56.972950 
	C228.855850,55.746502 224.539108,54.946423 220.435699,53.992287 
	C230.429092,51.610237 240.306854,49.436325 250.081146,46.868523 
	C257.835083,44.831482 263.149597,39.719494 265.783173,32.176060 
	C267.741852,26.565722 269.195770,20.779158 270.874512,15.071081 
	C272.642700,15.049859 274.410950,15.028640 276.573273,15.434982 
	C277.659058,19.101044 278.244171,22.366667 279.060272,25.573503 
	C283.358459,42.463017 293.177521,50.584892 311.016510,52.096943 
z"/>
<path fill="#110002" opacity="1.000000" stroke="none" 
	d="
M14.159119,238.994873 
	C14.107797,236.334412 14.011947,233.673965 14.011645,231.013519 
	C14.003505,159.251266 14.005154,87.489021 14.005154,15.015688 
	C98.076164,15.015688 182.071671,15.015688 266.485748,15.437021 
	C266.564117,16.982836 266.223907,18.107313 265.428467,19.154469 
	C183.522568,19.053061 102.071838,19.027996 20.621101,19.019491 
	C19.844158,19.019409 19.067192,19.239565 18.028374,19.396448 
	C18.028374,92.413155 18.028374,165.176132 17.808790,238.211090 
	C16.445845,238.653656 15.302483,238.824265 14.159119,238.994873 
z"/>
<path fill="#0F0807" opacity="1.000000" stroke="none" 
	d="
M265.883667,19.231792 
	C266.223907,18.107313 266.564117,16.982836 266.949341,15.507431 
	C268.028473,15.106716 269.062561,15.056927 270.485596,15.039110 
	C269.195770,20.779158 267.741852,26.565722 265.783173,32.176060 
	C263.149597,39.719494 257.835083,44.831482 250.081146,46.868523 
	C240.306854,49.436325 230.429092,51.610237 220.435699,53.992287 
	C224.539108,54.946423 228.855850,55.746502 233.047867,56.972950 
	C239.239090,58.784294 245.377289,60.796043 251.472549,62.911236 
	C258.530792,65.360611 262.704468,70.527695 264.020386,77.758118 
	C266.841827,93.260506 269.436157,108.804222 272.141724,124.436455 
	C272.719238,120.608261 273.214661,116.537476 273.963409,112.513840 
	C275.936005,101.913116 277.935425,91.315964 280.081940,80.749451 
	C282.056091,71.031624 287.940002,64.936363 297.602905,62.516975 
	C301.788055,61.469101 305.951019,60.332806 310.504761,59.227852 
	C310.921997,60.550411 310.958588,61.881790 310.920349,63.606010 
	C309.748566,64.108627 308.651672,64.218414 306.895844,64.415802 
	C303.513153,65.240166 300.795837,66.001854 298.064331,66.708878 
	C290.601685,68.640541 285.941986,73.252884 284.300049,80.864990 
	C282.898163,87.364258 280.919739,93.779228 280.045471,100.344551 
	C277.696442,117.984535 275.841461,135.689972 273.644897,153.351318 
	C273.486725,154.623154 272.154053,155.748917 271.367493,156.942596 
	C270.592499,155.781250 269.250305,154.671936 269.138123,153.449768 
	C268.575470,147.318314 268.660065,141.117813 267.919067,135.014206 
	C265.775452,117.357239 263.355408,99.733719 261.023468,82.099762 
	C259.758392,72.533577 254.150299,66.793068 244.950165,64.685043 
	C231.525589,61.609066 218.023270,58.872833 204.593674,55.817722 
	C203.227356,55.506901 202.131866,54.005543 200.910706,53.056648 
	C202.163025,52.359619 203.349380,51.239891 204.678131,51.032513 
	C215.190796,49.391743 225.705292,47.712227 236.267929,46.453396 
	C252.791595,44.484138 263.124268,36.045006 265.883667,19.231792 
z"/>
<path fill="#FAE6DB" opacity="1.000000" stroke="none" 
	d="
M14.082362,253.148972 
	C14.063066,250.041367 14.043771,246.933777 14.410873,243.390900 
	C23.075634,241.034592 27.958078,235.698837 30.162361,227.672028 
	C31.975164,221.070770 33.785641,214.468887 35.495480,208.237778 
	C36.905201,214.573227 38.452751,221.189194 39.838459,227.838882 
	C41.694916,236.747559 47.233829,242.017365 55.818275,244.360504 
	C62.247593,246.115417 68.689697,247.823471 75.133682,249.554428 
	C69.542740,250.690796 64.045082,251.967270 58.490135,252.903931 
	C47.155891,254.815063 40.498909,260.999817 38.826614,272.680969 
	C37.398819,282.654358 35.307503,292.532715 33.484486,302.592194 
	C32.296486,293.696136 31.319506,284.948090 29.919168,276.268372 
	C28.287771,266.156433 26.701635,255.818619 14.082362,253.148972 
z"/>
<path fill="#140B09" opacity="1.000000" stroke="none" 
	d="
M14.049706,253.534958 
	C26.701635,255.818619 28.287771,266.156433 29.919168,276.268372 
	C31.319506,284.948090 32.296486,293.696136 33.484486,302.592194 
	C35.307503,292.532715 37.398819,282.654358 38.826614,272.680969 
	C40.498909,260.999817 47.155891,254.815063 58.490135,252.903931 
	C64.045082,251.967270 69.542740,250.690796 75.133682,249.554428 
	C68.689697,247.823471 62.247593,246.115417 55.818275,244.360504 
	C47.233829,242.017365 41.694916,236.747559 39.838459,227.838882 
	C38.452751,221.189194 36.905201,214.573227 35.495480,208.237778 
	C33.785641,214.468887 31.975164,221.070770 30.162361,227.672028 
	C27.958078,235.698837 23.075634,241.034592 14.429999,242.926300 
	C14.041672,241.852066 14.020617,240.807129 14.079342,239.378540 
	C15.302483,238.824265 16.445845,238.653656 18.158064,238.220398 
	C21.220776,235.012650 24.961687,232.441010 25.976387,229.052917 
	C29.112961,218.579849 31.162127,207.783768 33.767250,197.145859 
	C34.130852,195.661102 35.244366,194.359985 36.010742,192.973862 
	C36.641476,194.503311 37.568077,195.979492 37.854588,197.570923 
	C39.619907,207.376480 41.141869,217.226227 42.942059,227.025040 
	C44.305328,234.445602 48.756542,239.275345 56.140007,241.017883 
	C66.156105,243.381714 76.234322,245.481750 86.257019,247.818787 
	C87.619301,248.136444 88.814507,249.170654 90.087067,249.873093 
	C88.759109,250.531693 87.492340,251.554794 86.093246,251.789642 
	C77.082428,253.302124 68.040466,254.628128 59.013004,256.042633 
	C49.118305,257.593048 43.300400,263.078247 41.968071,273.250183 
	C39.766720,290.056824 37.393902,306.841339 34.990734,323.620514 
	C34.819386,324.816895 33.809616,325.893127 33.189697,327.025238 
	C32.577721,325.868622 31.529308,324.749664 31.425718,323.549194 
	C30.824776,316.585083 30.813602,309.553864 29.911495,302.635529 
	C28.323120,290.454102 26.378101,278.312927 24.266783,266.209961 
	C23.680897,262.851410 22.305695,259.404175 17.975864,258.899963 
	C16.909866,258.290588 15.843867,257.681183 14.464102,257.036804 
	C14.105907,255.974869 14.061478,254.947906 14.049706,253.534958 
z"/>
<path fill="#110002" opacity="1.000000" stroke="none" 
	d="
M281.006836,15.154432 
	C290.761749,15.154431 300.516663,15.154431 310.984070,15.154431 
	C310.984070,25.732162 310.984070,36.399189 310.557495,47.533028 
	C309.078613,47.648155 308.026276,47.296478 306.985779,46.479858 
	C306.997589,37.114399 306.997589,28.213881 306.997589,19.061798 
	C298.238678,19.061798 290.128143,19.061798 281.882904,18.747425 
	C281.501068,17.340179 281.253937,16.247305 281.006836,15.154432 
z"/>
<path fill="#100A09" opacity="1.000000" stroke="none" 
	d="
M306.973969,46.944801 
	C308.026276,47.296478 309.078613,47.648155 310.488068,47.996712 
	C310.902710,49.086246 310.960175,50.178894 311.017090,51.684242 
	C293.177521,50.584892 283.358459,42.463017 279.060272,25.573503 
	C278.244171,22.366667 277.659058,19.101044 277.015015,15.452173 
	C278.118713,15.026300 279.174805,15.010798 280.618835,15.074864 
	C281.253937,16.247305 281.501068,17.340179 281.858582,19.139736 
	C284.006897,34.689854 291.050842,44.913933 306.973969,46.944801 
z"/>
<path fill="#F33518" opacity="1.000000" stroke="none" 
	d="
M17.995384,259.376038 
	C22.305695,259.404175 23.680897,262.851410 24.266783,266.209961 
	C26.378101,278.312927 28.323120,290.454102 29.911495,302.635529 
	C30.813602,309.553864 30.824776,316.585083 31.425718,323.549194 
	C31.529308,324.749664 32.577721,325.868622 33.189697,327.025238 
	C33.809616,325.893127 34.819386,324.816895 34.990734,323.620514 
	C37.393902,306.841339 39.766720,290.056824 41.968071,273.250183 
	C43.300400,263.078247 49.118305,257.593048 59.013004,256.042633 
	C68.040466,254.628128 77.082428,253.302124 86.093246,251.789642 
	C87.492340,251.554794 88.759109,250.531693 90.087067,249.873093 
	C88.814507,249.170654 87.619301,248.136444 86.257019,247.818787 
	C76.234322,245.481750 66.156105,243.381714 56.140007,241.017883 
	C48.756542,239.275345 44.305328,234.445602 42.942059,227.025040 
	C41.141869,217.226227 39.619907,207.376480 37.854588,197.570923 
	C37.568077,195.979492 36.641476,194.503311 36.010742,192.973862 
	C35.244366,194.359985 34.130852,195.661102 33.767250,197.145859 
	C31.162127,207.783768 29.112961,218.579849 25.976387,229.052917 
	C24.961687,232.441010 21.220776,235.012650 18.377647,237.948425 
	C18.028374,165.176132 18.028374,92.413155 18.028374,19.396448 
	C19.067192,19.239565 19.844158,19.019409 20.621101,19.019491 
	C102.071838,19.027996 183.522568,19.053061 265.428467,19.154469 
	C263.124268,36.045006 252.791595,44.484138 236.267929,46.453396 
	C225.705292,47.712227 215.190796,49.391743 204.678131,51.032513 
	C203.349380,51.239891 202.163025,52.359619 200.910706,53.056648 
	C202.131866,54.005543 203.227356,55.506901 204.593674,55.817722 
	C218.023270,58.872833 231.525589,61.609066 244.950165,64.685043 
	C254.150299,66.793068 259.758392,72.533577 261.023468,82.099762 
	C263.355408,99.733719 265.775452,117.357239 267.919067,135.014206 
	C268.660065,141.117813 268.575470,147.318314 269.138123,153.449768 
	C269.250305,154.671936 270.592499,155.781250 271.367493,156.942596 
	C272.154053,155.748917 273.486725,154.623154 273.644897,153.351318 
	C275.841461,135.689972 277.696442,117.984535 280.045471,100.344551 
	C280.919739,93.779228 282.898163,87.364258 284.300049,80.864990 
	C285.941986,73.252884 290.601685,68.640541 298.064331,66.708878 
	C300.795837,66.001854 303.513153,65.240166 306.645691,64.630890 
	C307.028473,147.907654 307.002319,231.056946 306.976837,314.206238 
	C306.974487,321.864380 306.976532,329.522522 306.976532,337.578125 
	C281.074127,337.578125 255.361328,337.578125 228.649307,337.578125 
	C230.595230,335.852203 232.102982,334.516693 233.608826,333.179047 
	C258.905975,310.707794 276.278381,283.216461 285.383606,250.638062 
	C287.946625,241.467514 288.961456,232.040466 287.094666,222.468674 
	C284.067017,206.945053 272.820404,199.593796 257.345154,203.455444 
	C242.999100,207.035324 231.531937,215.571808 221.056473,225.508514 
	C215.275925,230.991791 209.990891,236.997437 204.230270,243.031754 
	C201.928391,240.965591 199.488968,238.775955 197.607071,237.086746 
	C204.089951,231.237732 211.229187,226.140732 216.652512,219.617188 
	C227.193726,206.937515 228.573898,192.686615 221.236435,177.630844 
	C219.838852,174.763092 219.414993,171.263275 219.188248,168.010010 
	C218.261963,154.720078 217.563385,141.413910 216.833588,128.110840 
	C216.635223,124.495140 216.270065,120.955414 212.392731,119.344452 
	C208.556915,117.750740 205.821808,119.784843 203.088654,122.307816 
	C194.890045,129.876007 186.645309,137.402893 178.167984,144.652863 
	C176.560165,146.027893 173.663025,146.909225 171.599716,146.569077 
	C160.301575,144.706573 149.097641,144.715225 137.796692,146.521393 
	C135.676758,146.860214 132.780579,146.142044 131.103531,144.819733 
	C121.957443,137.608292 113.082451,130.053116 104.109962,122.621300 
	C101.382469,120.362129 98.685173,117.992836 94.733032,119.874817 
	C91.095436,121.607002 90.839302,124.807175 90.784851,128.298431 
	C90.564026,142.455276 90.239227,156.610733 89.877922,170.764816 
	C89.832352,172.550171 89.834396,174.612442 88.985237,176.060059 
	C77.042511,196.419464 86.090302,217.975891 103.763458,230.572037 
	C106.601913,232.595108 109.632988,234.347916 113.246651,236.654343 
	C110.364395,239.381744 107.454330,241.786896 104.954247,244.561478 
	C94.028786,256.686340 88.505386,271.090271 88.191246,287.299622 
	C87.868683,303.942932 88.119698,320.597351 88.119698,337.611023 
	C64.787598,337.611023 41.728622,337.611023 18.014902,337.611023 
	C18.014902,311.706635 18.014902,285.779388 17.995384,259.376038 
z"/>
<path fill="#EC6D30" opacity="1.000000" stroke="none" 
	d="
M134.163513,149.986450 
	C160.527924,145.116135 184.966888,148.020187 206.531494,164.510849 
	C214.818314,170.847839 220.484314,179.081070 222.598846,189.562897 
	C223.185593,192.471375 222.738953,194.053223 219.823639,195.326126 
	C202.785797,202.765274 185.853806,210.447128 168.802460,217.854553 
	C167.368851,218.477325 165.036133,218.214096 163.604813,217.452957 
	C157.509933,214.211868 151.678665,213.992142 145.626801,217.561188 
	C144.371323,218.301620 142.192841,218.541473 140.889771,217.975616 
	C123.670113,210.498047 106.551048,202.789124 89.350609,195.266617 
	C86.710152,194.111816 86.197601,192.742218 86.708374,189.938263 
	C88.945610,177.656479 96.225792,168.967056 105.995537,161.970047 
	C114.365051,155.975845 123.767082,152.326019 134.163513,149.986450 
M190.107147,188.342529 
	C185.657745,184.175720 181.070511,183.972198 178.223114,187.947113 
	C176.063812,190.961487 175.881729,194.254547 178.293381,197.139191 
	C180.632584,199.937119 183.809067,200.943771 187.209824,199.101089 
	C191.398621,196.831482 192.248154,193.267944 190.107147,188.342529 
M127.482368,199.215988 
	C131.750443,197.062576 133.218933,193.649734 131.199783,189.341324 
	C129.427155,185.558945 126.149963,184.056396 122.090157,185.612534 
	C118.392639,187.029816 116.634727,189.929214 117.343018,193.895798 
	C118.110207,198.192276 121.465614,200.098740 127.482368,199.215988 
z"/>
<path fill="#EC6D30" opacity="1.000000" stroke="none" 
	d="
M235.756439,327.773560 
	C231.352493,331.470093 227.209991,334.928009 222.223770,339.090210 
	C222.097183,336.218658 221.968597,334.636597 221.966873,333.054413 
	C221.950409,318.071747 222.080078,303.087708 221.920349,288.106750 
	C221.751282,272.249908 216.300278,258.200562 205.899933,245.090637 
	C213.484970,237.200760 220.993927,229.390015 228.058762,222.041245 
	C231.195450,226.135834 233.814636,229.398972 236.235138,232.803391 
	C237.028397,233.919083 237.603394,235.364868 237.770782,236.722275 
	C238.870743,245.642242 244.429535,250.859695 253.523697,251.857864 
	C255.474625,252.072006 257.832458,253.194244 259.049469,254.679398 
	C264.254333,261.031067 271.058258,261.777435 279.582245,260.563568 
	C270.055054,286.845306 255.629486,308.844330 235.756439,327.773560 
z"/>
<path fill="#FCE0D1" opacity="1.000000" stroke="none" 
	d="
M171.574768,241.746841 
	C152.834335,244.608841 134.914703,243.289810 117.892471,235.652771 
	C103.985680,229.413513 92.510498,220.409271 87.698631,205.061157 
	C86.922256,202.584808 86.583466,199.971268 85.841393,196.473755 
	C97.879257,201.832565 109.023758,206.791473 120.166275,211.754868 
	C125.468201,214.116577 130.876984,216.272507 136.025925,218.931152 
	C139.272156,220.607361 142.389709,222.750565 145.100601,225.198563 
	C150.102768,229.715652 161.166519,228.955490 165.342941,223.589386 
	C166.197571,222.491302 167.432983,221.512009 168.701248,220.940109 
	C186.514404,212.908173 204.363708,204.956375 223.939972,196.209549 
	C222.212723,201.873856 221.467880,206.546143 219.441116,210.573227 
	C211.110809,227.125244 196.206665,235.006912 179.276733,239.954803 
	C176.888184,240.652878 174.428040,241.106110 171.574768,241.746841 
z"/>
<path fill="#FCE1D2" opacity="1.000000" stroke="none" 
	d="
M243.000275,243.826752 
	C240.127380,237.080887 238.882523,230.110092 233.326141,224.899506 
	C230.789337,222.520554 231.456711,218.781677 235.530045,216.878296 
	C243.157593,213.314102 250.377869,208.401123 258.360413,206.177322 
	C273.099884,202.071152 284.190399,210.167725 284.732910,225.450333 
	C285.070038,234.947052 283.107452,244.550827 281.793335,254.053482 
	C281.595306,255.485214 279.509918,257.300751 277.939606,257.790131 
	C269.605835,260.387329 263.510437,257.507935 258.870667,248.963272 
	C253.222641,249.279541 247.353561,249.365479 243.000275,243.826752 
z"/>
<path fill="#F4D9CB" opacity="1.000000" stroke="none" 
	d="
M101.974350,140.411774 
	C103.464546,136.816071 105.526726,137.533279 107.612503,139.179688 
	C112.301170,142.880661 116.942963,146.641022 121.564194,150.345444 
	C114.777779,154.066483 108.152992,157.698898 101.928558,161.111786 
	C101.928558,154.596390 101.928558,147.717133 101.974350,140.411774 
z"/>
<path fill="#F7DBCD" opacity="1.000000" stroke="none" 
	d="
M205.720184,138.356018 
	C207.188644,146.406815 208.337112,154.211060 209.562469,162.537857 
	C202.170609,158.329407 195.506393,154.535233 188.411530,150.495880 
	C192.972137,146.585800 197.502029,142.605118 202.171829,138.795990 
	C202.930099,138.177475 204.308426,138.319153 205.720184,138.356018 
z"/>
<path fill="#F23518" opacity="1.000000" stroke="none" 
	d="
M306.985779,46.479858 
	C291.050842,44.913933 284.006897,34.689854 281.993286,19.454109 
	C290.128143,19.061798 298.238678,19.061798 306.997589,19.061798 
	C306.997589,28.213881 306.997589,37.114399 306.985779,46.479858 
z"/>
<path fill="#190404" opacity="1.000000" stroke="none" 
	d="
M190.296738,188.654083 
	C192.248154,193.267944 191.398621,196.831482 187.209824,199.101089 
	C183.809067,200.943771 180.632584,199.937119 178.293381,197.139191 
	C175.881729,194.254547 176.063812,190.961487 178.223114,187.947113 
	C181.070511,183.972198 185.657745,184.175720 190.296738,188.654083 
z"/>
<path fill="#1B0504" opacity="1.000000" stroke="none" 
	d="
M127.130890,199.381897 
	C121.465614,200.098740 118.110207,198.192276 117.343018,193.895798 
	C116.634727,189.929214 118.392639,187.029816 122.090157,185.612534 
	C126.149963,184.056396 129.427155,185.558945 131.199783,189.341324 
	C133.218933,193.649734 131.750443,197.062576 127.130890,199.381897 
z"/>
</svg>