<?xml version="1.0" standalone="no"?>
<!DOCTYPE svg PUBLIC "-//W3C//DTD SVG 20010904//EN"
 "http://www.w3.org/TR/2001/REC-SVG-20010904/DTD/svg10.dtd">
<svg version="1.0" xmlns="http://www.w3.org/2000/svg"
 width="510.000000pt" height="510.000000pt" viewBox="0 0 510.000000 510.000000"
 preserveAspectRatio="xMidYMid meet">

<g transform="translate(0.000000,510.000000) scale(0.100000,-0.100000)"
fill="#000000" stroke="none">
<path d="M1228 3288 c-19 -15 -33 -156 -43 -438 -6 -157 -6 -166 13 -184 30
-26 59 -13 72 32 5 20 10 44 10 53 0 24 57 133 80 154 11 10 23 15 28 11 4 -4
9 -66 12 -137 5 -133 10 -149 50 -149 38 0 42 15 41 131 -1 63 -6 132 -11 153
-22 100 -92 125 -170 60 -17 -15 -33 -25 -35 -23 -2 2 1 51 5 109 14 159 12
206 -6 224 -19 19 -25 20 -46 4z"/>
<path d="M1973 3175 c-11 -8 -26 -36 -33 -62 -7 -26 -23 -58 -36 -71 -27 -25
-31 -57 -10 -69 9 -6 15 -38 18 -108 3 -71 11 -113 26 -147 24 -56 68 -83 116
-74 73 14 138 138 87 166 -28 15 -49 3 -72 -41 -11 -22 -26 -39 -34 -39 -25 0
-51 146 -37 210 8 36 9 37 79 39 27 1 34 6 39 28 9 34 -16 53 -69 53 -33 0
-38 3 -32 18 4 9 9 33 12 54 7 45 -20 66 -54 43z"/>
<path d="M1624 3081 c-60 -37 -100 -167 -75 -243 25 -75 110 -109 160 -64 22
20 41 14 41 -12 0 -29 29 -62 54 -62 37 0 52 25 38 64 -7 18 -15 75 -18 127
-7 102 -22 139 -75 184 -37 30 -82 32 -125 6z m92 -96 c12 -18 10 -27 -10 -70
-28 -62 -53 -86 -67 -64 -16 25 -10 93 11 127 23 37 45 39 66 7z"/>
<path d="M694 3049 c-16 -18 -19 -37 -19 -143 0 -137 13 -174 73 -209 27 -16
37 -17 64 -8 18 6 42 21 54 32 l22 21 32 -24 c46 -34 120 -32 156 3 33 33 64
142 64 225 0 81 -6 94 -40 94 -34 0 -36 -4 -50 -123 -6 -48 -16 -99 -22 -112
-25 -55 -78 -12 -78 62 0 61 -15 93 -44 93 -31 0 -41 -14 -59 -83 -16 -59 -41
-107 -56 -107 -21 0 -36 70 -36 170 0 58 -4 111 -8 118 -12 18 -31 15 -53 -9z"/>
<path d="M2284 3045 c-8 -21 0 -59 25 -117 16 -39 25 -48 45 -48 45 0 50 31
19 107 -24 58 -32 68 -56 71 -18 2 -29 -2 -33 -13z"/>
<path d="M2605 3034 c-45 -23 -63 -43 -75 -80 -18 -54 -3 -93 56 -151 42 -39
54 -58 54 -81 0 -33 -14 -42 -64 -42 -39 0 -76 25 -76 51 0 41 -75 36 -86 -5
-7 -29 18 -81 47 -97 11 -6 19 -12 17 -15 -3 -2 -74 -9 -159 -14 -302 -21
-1041 -97 -1269 -131 -193 -29 -403 -70 -417 -81 -19 -16 -15 -46 7 -58 15 -8
74 -2 237 24 482 77 1230 151 1770 176 445 20 1101 7 1476 -31 83 -8 111 -8
123 1 20 17 18 57 -4 69 -11 6 -119 18 -242 28 l-222 17 6 40 c3 23 9 84 12
136 6 78 4 101 -10 128 -39 75 -117 70 -195 -12 -19 -20 -38 -36 -42 -36 -4 0
-5 16 -2 35 7 41 -17 85 -47 85 -10 0 -31 -16 -46 -35 -14 -19 -32 -35 -38
-35 -7 0 -23 14 -35 31 -48 65 -133 74 -210 23 -62 -40 -85 -92 -86 -185 0
-66 3 -81 28 -117 l27 -42 -73 0 c-41 0 -143 -3 -228 -6 l-154 -7 18 20 c47
54 26 153 -48 222 -47 44 -55 70 -30 91 13 11 18 10 31 -8 19 -28 39 -28 58 0
22 32 20 55 -9 83 -28 29 -58 31 -100 9z m703 -126 c22 -22 13 -38 -20 -38
-42 0 -63 13 -55 34 7 19 57 22 75 4z m405 -47 c4 -16 -3 -86 -23 -238 0 -5
-167 -3 -248 4 -74 5 -81 8 -68 22 25 29 48 83 55 129 3 25 12 47 19 50 11 3
12 -9 7 -60 -6 -53 -4 -68 10 -81 36 -36 65 -20 120 68 42 67 93 125 111 125
6 0 14 -9 17 -19z m-516 -58 c16 -11 47 -17 85 -17 57 -1 59 -2 53 -25 -15
-61 -57 -90 -111 -77 -27 7 -63 71 -64 114 0 26 3 27 37 5z"/>
<path d="M4351 2576 c-17 -20 -10 -67 12 -80 39 -25 76 43 42 78 -20 20 -39
20 -54 2z"/>
</g>
</svg>
