<svg width="329" height="360" viewBox="0 0 329 360" fill="none" xmlns="http://www.w3.org/2000/svg">
<path d="M327 2H2.17383V357.54H327V2Z" fill="white" stroke="#110002" stroke-width="4" stroke-miterlimit="10"/>
<path d="M313 18H19V342H313V18Z" fill="#F43518" stroke="#110002" stroke-width="4" stroke-linejoin="round"/>
<mask id="mask0_4793_13204" style="mask-type:alpha" maskUnits="userSpaceOnUse" x="17" y="16" width="298" height="328">
<path d="M313 18H19V342H313V18Z" fill="#F43518" stroke="#110002" stroke-width="4" stroke-linejoin="round"/>
</mask>
<g mask="url(#mask0_4793_13204)">
<path d="M279.598 276.612C278.122 279.034 276.092 281.071 273.675 282.557C271.145 284.137 268.424 285.39 265.578 286.286C265.643 284.178 265.478 282.068 265.086 279.995C265.005 279.754 265.017 279.492 265.121 279.26C265.309 279.017 265.574 278.844 265.873 278.769C267.117 278.289 268.372 277.832 269.627 277.387C271.761 276.629 273.982 275.912 276.296 275.947C276.987 275.918 277.674 276.074 278.285 276.398" fill="#110002"/>
<path d="M278.852 276.177C275.96 281.069 270.523 283.695 265.335 285.429L266.434 286.262C266.479 284.627 266.39 282.991 266.168 281.37C266.116 280.965 266.052 280.554 265.983 280.144C265.983 280.017 265.827 279.716 265.89 279.566C265.85 279.641 266.093 279.566 266.093 279.566C266.92 279.207 267.788 278.924 268.638 278.617C270.15 278.036 271.695 277.544 273.265 277.143C274.618 276.825 276.573 276.397 277.863 277.108C278.841 277.651 279.714 276.154 278.736 275.61C277.163 274.743 275.139 274.997 273.45 275.327C271.478 275.781 269.544 276.388 267.666 277.143C266.754 277.404 265.87 277.751 265.023 278.178C264.704 278.372 264.457 278.664 264.318 279.009C264.178 279.355 264.153 279.737 264.248 280.098C264.604 282.129 264.765 284.189 264.728 286.251C264.729 286.384 264.76 286.516 264.82 286.635C264.879 286.754 264.965 286.859 265.071 286.94C265.178 287.021 265.301 287.076 265.432 287.102C265.563 287.128 265.698 287.124 265.827 287.089C271.449 285.21 277.273 282.318 280.379 277.015C280.485 276.817 280.51 276.586 280.449 276.37C280.388 276.154 280.245 275.97 280.051 275.857C279.857 275.743 279.627 275.71 279.408 275.763C279.19 275.817 279.001 275.952 278.881 276.142L278.852 276.177Z" fill="#110002"/>
<path d="M265.19 275.292H244.871V360.993H265.19V275.292Z" fill="#E28281" stroke="#110002" stroke-width="2.66985" stroke-miterlimit="10"/>
<path d="M111.688 228.532C111.375 230.267 109.953 234.402 110.884 236.125C111.815 237.848 114.649 234.783 115.887 234.014C115.622 233.34 115.274 232.701 114.852 232.112C114.352 231.443 113.807 230.809 113.221 230.215L111.728 228.625" fill="#110002"/>
<path d="M110.849 228.272C110.462 230.424 109.634 232.546 109.692 234.761C109.733 235.761 110.022 237.074 111.121 237.38C112.064 237.664 113.047 237.12 113.805 236.611C114.314 236.264 114.794 235.883 115.274 235.501L115.598 235.241L115.783 235.096C115.95 234.969 116.118 234.847 116.297 234.732C116.462 234.635 116.589 234.487 116.661 234.31C116.734 234.134 116.746 233.939 116.697 233.754C116.235 232.623 115.592 231.574 114.794 230.649C114.001 229.73 113.145 228.868 112.312 227.983C111.48 227.098 110.317 228.4 111.086 229.215C112.526 230.742 114.215 232.228 115.019 234.217L115.418 233.234C114.747 233.662 114.024 234.31 113.498 234.703C113.147 234.972 112.78 235.219 112.399 235.443L112.122 235.588L111.989 235.651C111.989 235.651 112.122 235.599 112.029 235.651L111.775 235.732H111.682C111.954 235.651 111.682 235.767 111.682 235.732H111.595C111.503 235.773 111.763 235.773 111.665 235.732C111.468 235.669 111.78 235.807 111.665 235.732C111.549 235.657 111.665 235.767 111.711 235.773C111.68 235.75 111.652 235.723 111.63 235.692C111.711 235.929 111.561 235.536 111.63 235.634C111.699 235.732 111.589 235.512 111.578 235.478C111.549 235.381 111.526 235.282 111.508 235.183C111.496 235.131 111.486 235.079 111.48 235.027C111.48 235.067 111.48 235.189 111.48 235.027C111.48 234.865 111.48 234.801 111.48 234.686C111.483 233.694 111.612 232.707 111.861 231.748C112.081 230.742 112.37 229.753 112.55 228.747C112.607 228.528 112.579 228.296 112.471 228.098C112.364 227.899 112.185 227.749 111.971 227.677C111.749 227.618 111.512 227.648 111.312 227.762C111.112 227.876 110.965 228.063 110.901 228.284L110.849 228.272Z" fill="#110002"/>
<path d="M133.731 254.555C131.418 257.73 125.9 261.541 122.771 264.056L109.347 274.835C106.744 276.929 104.101 279.039 100.995 280.422C97.8888 281.804 94.2103 282.394 90.9482 281.301C86.8012 279.913 85.4825 277.137 83.7936 273.367C79.6292 260.112 66.5982 217.111 64.1285 203.742C63.3535 203.522 60.2475 202.29 59.5535 201.943C58.8176 201.576 58.1134 201.148 57.4481 200.665C56.1287 199.683 54.9597 198.515 53.9778 197.195C52.127 194.743 50.5075 191.343 50.6232 188.377V188.637C50.3571 186.208 51.4676 182.634 53.2606 180.252C55.0536 177.869 57.5407 175.909 60.1261 174.174C60.8868 173.649 61.6831 173.178 62.509 172.763C63.449 172.333 64.4148 171.962 65.4009 171.653C66.7746 171.132 68.1996 170.758 69.6521 170.537C71.1811 170.415 72.7188 170.457 74.2387 170.664L78.4377 171.086C79.361 171.12 80.2696 171.328 81.1156 171.699C81.9087 172.172 82.5974 172.802 83.14 173.549V173.48C84.771 176.371 85.4535 180.489 85.1933 183.745C84.933 187 84.0365 191.21 84.2563 194.472V194.564C85.6213 206.193 96.7436 235.165 101.88 245.875V245.632C105.032 241.729 109 238.45 113.071 235.385C116.663 232.679 119.833 229.064 124.83 231.753C127.242 233.049 128.879 235.223 130.435 237.403C133.535 241.804 136.479 246.818 135.75 252.011C135.594 253.127 135.033 254.422 133.83 254.584" fill="#E28281"/>
<path d="M132.603 253.889C131.157 255.826 129.132 257.405 127.276 258.909C125.419 260.412 123.337 261.933 121.399 263.483L113.458 269.844C110.936 271.874 108.449 273.967 105.852 275.91C101.445 279.206 95.3142 282.323 89.8947 279.42C86.6673 277.685 85.3371 273.938 84.3365 270.746C82.2196 263.938 80.147 257.114 78.1188 250.275C75.6202 241.89 73.1736 233.505 70.837 225.062C68.9861 218.412 67.1122 211.761 65.7067 204.984C65.5968 204.44 65.4869 203.903 65.3886 203.359C65.3292 203.142 65.2142 202.944 65.055 202.785C64.8957 202.625 64.6977 202.51 64.4805 202.451C61.71 201.63 59.0842 200.508 56.9268 198.519C54.22 196.015 51.8197 192.158 51.9122 188.353C51.9527 186.676 49.3673 186.681 49.3095 188.353V188.613H51.9064C51.4379 183.755 54.9025 179.621 58.5231 176.88C60.6229 175.222 62.9789 173.917 65.4985 173.017C66.8418 172.497 68.2326 172.109 69.6513 171.86C71.0886 171.728 72.5362 171.761 73.966 171.958C75.5797 172.12 77.1992 172.259 78.8129 172.444C79.4965 172.485 80.1615 172.683 80.7563 173.022C81.3051 173.437 81.7904 173.93 82.1964 174.485C82.9483 175.388 84.4059 174.613 84.4174 173.566V173.497L81.9824 174.138C83.411 176.899 84.074 179.992 83.9027 183.096C83.787 186.3 83.0409 189.457 82.9136 192.655C82.8556 193.392 82.8789 194.133 82.983 194.864C82.8847 194.338 83.0524 195.344 83.0524 195.356C83.0524 195.564 83.1103 195.778 83.145 195.986C83.278 196.859 83.44 197.721 83.6193 198.582C84.0415 200.601 84.5562 202.63 85.1115 204.591C87.9724 214.483 91.3687 224.212 95.2853 233.736C97.0204 238.044 98.7556 242.347 100.786 246.533C101.364 247.748 103.192 247.112 103.209 245.874V245.631L102.827 246.551C105.245 243.654 107.959 241.018 110.925 238.686C112.319 237.564 113.765 236.506 115.159 235.39C116.272 234.437 117.468 233.586 118.733 232.846C119.865 232.19 121.198 231.97 122.481 232.227C124.113 232.677 125.583 233.581 126.72 234.835C127.899 236.087 128.964 237.441 129.902 238.883C130.975 240.404 131.941 241.998 132.794 243.654C133.715 245.408 134.304 247.317 134.529 249.286C134.615 250.281 134.893 253.045 133.499 253.334C133.169 253.429 132.889 253.649 132.72 253.947C132.55 254.245 132.504 254.598 132.591 254.93C132.689 255.259 132.911 255.537 133.21 255.706C133.508 255.875 133.861 255.923 134.193 255.838C136.131 255.474 136.894 253.525 137.085 251.761C137.299 249.637 137.049 247.492 136.351 245.475C134.997 241.427 132.499 237.697 129.844 234.407C127.403 231.383 123.713 228.74 119.641 229.729C118.006 230.206 116.488 231.018 115.182 232.111C113.62 233.297 112.082 234.517 110.555 235.72C108.646 237.206 106.784 238.744 105.025 240.404C104.129 241.26 103.255 242.139 102.423 243.064C101.705 243.856 100.647 244.747 100.624 245.874L103.047 245.215C99.12 237.009 95.8868 228.445 92.8214 219.846C91.0862 215.011 89.4609 210.148 88.0439 205.215C87.4655 203.139 86.8871 201.046 86.4013 198.929C86.1989 198.027 86.0138 197.114 85.8229 196.2C85.7593 195.841 85.7014 195.483 85.6436 195.119C85.6436 195.003 85.6436 194.887 85.5973 194.772C85.632 195.038 85.5973 194.841 85.5973 194.772C85.5973 194.586 85.5395 194.396 85.5279 194.193V194.147C85.5626 194.297 85.5684 194.251 85.5279 194.002C85.5619 192.189 85.6912 190.378 85.9155 188.578C86.141 186.843 86.4244 185.056 86.4938 183.287C86.7079 179.65 85.9261 176.023 84.2323 172.797C84.0852 172.555 83.8637 172.368 83.601 172.263C83.3383 172.158 83.0486 172.141 82.7754 172.215C82.5023 172.288 82.2604 172.449 82.0861 172.671C81.9118 172.894 81.8146 173.168 81.8089 173.45V173.52L84.0357 172.594C83.1573 171.422 81.9304 170.558 80.5307 170.125C78.9636 169.808 77.3739 169.614 75.7764 169.547C74.1897 169.339 72.593 169.217 70.9931 169.183C69.3266 169.232 67.6771 169.532 66.1 170.073C64.5657 170.537 63.0691 171.116 61.6233 171.808C60.3265 172.502 59.0851 173.294 57.9101 174.179C55.5329 175.914 53.2194 177.863 51.6172 180.355C50.0961 182.72 49.0261 185.843 49.3037 188.682C49.4656 190.325 51.8486 190.417 51.9064 188.682V188.422H49.3037C49.1938 192.805 51.8023 197.31 54.9025 200.259C57.3606 202.573 60.5533 204.07 63.7807 205.03L62.8957 204.07C64.0988 210.593 65.9323 217.018 67.6848 223.402C70.0561 232.036 72.5605 240.635 75.1054 249.217C77.2339 256.387 79.4028 263.543 81.6123 270.682C82.6938 274.152 83.9258 278.021 86.8177 280.45C91.6068 284.498 98.4375 283.463 103.533 280.6C106.286 279.05 108.739 276.997 111.185 275.025L119.352 268.468C121.665 266.635 123.915 264.79 126.24 263.003C128.416 261.403 130.503 259.687 132.493 257.862C133.36 257.044 134.158 256.154 134.876 255.202C135.049 254.903 135.096 254.548 135.009 254.215C134.921 253.881 134.705 253.596 134.407 253.421C134.107 253.254 133.754 253.21 133.422 253.297C133.09 253.384 132.805 253.596 132.626 253.889H132.603Z" fill="#110002"/>
<path d="M94.7627 156.54L99.7437 168.115C100.012 168.739 100.022 169.444 99.7704 170.075C99.5189 170.706 99.0269 171.212 98.4027 171.48L48.3122 193.028C46.6396 193.748 44.7497 193.773 43.0581 193.1C41.3666 192.426 40.012 191.108 39.2923 189.436L37.7127 185.765C36.9931 184.093 36.9674 182.203 37.6412 180.512C38.3151 178.821 39.6333 177.466 41.3058 176.747L91.3964 155.199C92.0206 154.93 92.7259 154.921 93.3572 155.172C93.9885 155.424 94.4941 155.916 94.7627 156.54V156.54Z" fill="#110002" stroke="#110002" stroke-width="2.00239" stroke-miterlimit="10"/>
<path d="M104.545 174.765C113.141 174.765 120.109 167.798 120.109 159.203C120.109 150.609 113.141 143.642 104.545 143.642C95.9489 143.642 88.9805 150.609 88.9805 159.203C88.9805 167.798 95.9489 174.765 104.545 174.765Z" fill="#7D7D7D" stroke="#110002" stroke-width="2.66985" stroke-miterlimit="10"/>
<path d="M111.586 171.447L100.606 145.933C100.277 145.168 99.3889 144.814 98.6231 145.143L97.0239 145.831C96.258 146.161 95.9043 147.049 96.2338 147.814L107.213 173.328C107.543 174.094 108.431 174.447 109.196 174.118L110.796 173.43C111.561 173.1 111.915 172.213 111.586 171.447Z" fill="#FFEADF" stroke="#110002" stroke-width="2.66985" stroke-linejoin="round"/>
<path d="M86.796 169.533L84.8301 164.965L77.3335 168.19L79.2994 172.758L86.796 169.533Z" fill="#F43518" stroke="#110002" stroke-width="2.00239" stroke-linejoin="round"/>
<path d="M74.5664 183.507C77.5219 183.154 80.1536 183.599 82.9761 183.929C83.2929 183.987 83.6187 183.975 83.9304 183.894C84.6419 183.657 84.9542 182.83 85.0872 182.096C85.2914 181.185 85.4153 180.258 85.4574 179.326C85.4878 179.009 85.4564 178.689 85.3648 178.383C85.1857 177.97 84.8851 177.621 84.503 177.383C83.0925 176.418 81.4228 175.904 79.714 175.908C78.0061 175.929 76.3092 176.184 74.6705 176.666C73.5623 176.857 72.5636 177.45 71.8653 178.331C71.125 179.141 70.3615 180.13 70.5293 181.223C70.6084 181.591 70.7675 181.937 70.9954 182.237C71.2233 182.537 71.5144 182.783 71.848 182.957C72.4958 183.333 73.8376 183.333 74.5664 183.501" fill="#E28281"/>
<path d="M74.5671 184.81C76.2035 184.642 77.8527 184.642 79.4891 184.81C80.2931 184.891 81.0912 184.989 81.8952 185.088C82.6809 185.282 83.4991 185.308 84.2955 185.163C85.7299 184.717 86.2504 183.243 86.5049 181.907C86.7883 180.375 87.2048 178.397 86.1232 177.09C84.2087 174.777 80.4839 174.418 77.7193 174.777C76.1356 174.937 74.5799 175.304 73.0922 175.87C71.7051 176.529 70.56 177.607 69.8185 178.952C69.3743 179.655 69.189 180.492 69.2946 181.317C69.4001 182.142 69.7899 182.905 70.3969 183.474C71.5537 184.55 72.8319 184.486 74.2663 184.781C75.9031 185.122 76.5798 182.612 74.9604 182.271C74.2142 182.121 73.2252 182.19 72.5427 181.861C71.8602 181.531 71.7388 180.826 72.1436 180.166C72.6297 179.297 73.3818 178.606 74.2894 178.194C75.3954 177.814 76.5366 177.545 77.6961 177.391C79.7205 177.078 82.115 177.177 83.8212 178.455C83.9757 178.54 84.0989 178.672 84.1728 178.833C84.2467 178.993 84.2674 179.172 84.2319 179.345C84.2089 179.976 84.1393 180.604 84.0237 181.225C83.9684 181.649 83.8595 182.065 83.6998 182.462C83.6593 182.537 83.4568 182.751 83.5783 182.688C83.6998 182.624 83.4337 182.688 83.3874 182.688L82.89 182.647C80.1253 182.329 77.3954 181.93 74.6133 182.237C74.2714 182.247 73.9463 182.387 73.7044 182.629C73.4625 182.871 73.3221 183.196 73.312 183.538C73.3135 183.882 73.4511 184.212 73.6948 184.456C73.9385 184.7 74.2687 184.837 74.6133 184.839L74.5671 184.81Z" fill="#110002"/>
<path d="M54.3573 159.983C54.0041 161.482 53.9354 163.033 54.1549 164.557C54.5487 166.771 55.3195 168.901 56.4337 170.855C57.1127 172.26 58.0086 173.55 59.0885 174.677C60.1823 175.807 61.6599 176.486 63.2297 176.58C63.8202 176.614 64.4062 176.458 64.9013 176.135C65.2861 175.841 65.5726 175.438 65.7226 174.978C66.4282 172.914 64.9649 170.82 63.837 168.952C62.8652 167.347 62.0996 165.626 61.5582 163.829C61.2676 162.592 60.8589 161.385 60.3378 160.226C60.072 159.646 59.6785 159.134 59.1867 158.727C58.695 158.321 58.1176 158.03 57.4979 157.878C56.2486 157.659 54.4961 158.734 54.3573 160.001" fill="#E28281"/>
<path d="M53.1034 159.636C52.2012 163.684 53.2307 167.448 55.0757 171.051C56.7068 174.243 59.0839 177.614 62.9996 177.869C63.8975 177.967 64.8008 177.739 65.5442 177.226C66.2877 176.713 66.8216 175.95 67.0483 175.076C67.5515 173.214 66.7765 171.363 65.8915 169.773C64.9103 168.225 64.0554 166.601 63.3351 164.915C62.6699 163.152 62.3749 161.232 61.49 159.549C60.6051 157.866 58.9509 156.438 57.0191 156.536C55.3302 156.617 53.4216 157.878 53.1324 159.636C53.0522 159.968 53.1014 160.318 53.27 160.616C53.4387 160.913 53.714 161.135 54.0404 161.237C54.374 161.326 54.7291 161.28 55.029 161.109C55.3288 160.938 55.5493 160.656 55.6425 160.324C55.7429 159.954 55.974 159.633 56.2931 159.42C56.6121 159.207 56.9975 159.117 57.3777 159.167C58.4535 159.358 59.1649 160.584 59.5235 161.48C60.0498 162.822 60.3159 164.256 60.8249 165.609C61.3583 167.029 62.0204 168.398 62.803 169.698C63.5028 170.854 64.4398 172.092 64.6191 173.468C64.6997 173.95 64.6097 174.445 64.3646 174.868C64.1976 175.047 63.9857 175.179 63.7508 175.249C63.5159 175.319 63.2666 175.325 63.0285 175.267C60.2465 175.024 58.6154 172.173 57.4702 169.964C55.9028 166.945 54.8791 163.736 55.6425 160.324C56.0069 158.693 53.5025 158.011 53.1324 159.636H53.1034Z" fill="#110002"/>
<path d="M41.7195 169.253C41.3585 170.75 41.282 172.302 41.4939 173.827C41.8985 176.043 42.6811 178.173 43.8074 180.125C44.4868 181.528 45.3805 182.818 46.4564 183.947C47.553 185.076 49.0322 185.755 50.6035 185.849C51.1933 185.885 51.7791 185.731 52.275 185.41C52.658 185.115 52.9441 184.712 53.0963 184.253C53.8019 182.189 52.3386 180.096 51.2108 178.234C50.2377 176.627 49.472 174.903 48.9319 173.104C48.6411 171.866 48.2304 170.66 47.7058 169.501C47.4409 168.922 47.0484 168.41 46.5576 168.003C46.0669 167.597 45.4905 167.306 44.8717 167.154C43.6166 166.934 41.8641 168.01 41.731 169.276" fill="#E28281"/>
<path d="M40.4649 168.906C39.5626 172.954 40.5921 176.718 42.4314 180.321C44.0682 183.513 46.4396 186.885 50.361 187.139C51.2589 187.237 52.1622 187.009 52.9057 186.496C53.6491 185.984 54.183 185.22 54.4097 184.346C54.9129 182.484 54.1379 180.639 53.2529 179.043C52.2587 177.494 51.394 175.865 50.6676 174.174C50.0024 172.405 49.7074 170.485 48.8225 168.802C47.9376 167.119 46.2834 165.691 44.3516 165.789C42.6627 165.876 40.7483 167.131 40.4649 168.889C40.3847 169.221 40.4339 169.571 40.6025 169.869C40.7712 170.166 41.0465 170.388 41.3729 170.49C41.7057 170.579 42.0602 170.534 42.3599 170.364C42.6596 170.195 42.8805 169.914 42.9751 169.582C43.0743 169.212 43.3051 168.89 43.6245 168.677C43.9438 168.464 44.3298 168.375 44.7102 168.426C45.786 168.611 46.4974 169.837 46.856 170.739C47.3823 172.081 47.6484 173.515 48.1574 174.868C48.6896 176.289 49.3518 177.657 50.1355 178.956C50.8353 180.113 51.7665 181.356 51.9516 182.727C52.0327 183.209 51.9427 183.704 51.6971 184.126C51.5301 184.306 51.3182 184.437 51.0833 184.507C50.8484 184.578 50.5991 184.584 50.361 184.525C47.579 184.288 45.9479 181.431 44.8027 179.228C43.2295 176.221 42.2116 173.017 42.9751 169.6C43.3394 167.963 40.8292 167.287 40.4649 168.906V168.906Z" fill="#110002"/>
<path d="M61.5583 159.25C61.2053 160.748 61.1367 162.3 61.3558 163.824C61.749 166.04 62.5198 168.172 63.6347 170.127C64.3102 171.533 65.2043 172.823 66.2837 173.949C67.3762 175.074 68.8487 175.75 70.4133 175.846C71.0014 175.883 71.5857 175.729 72.0791 175.407C72.4632 175.112 72.7511 174.709 72.9062 174.25C73.6118 172.186 72.1427 170.092 71.0149 168.23C70.046 166.624 69.2823 164.903 68.7418 163.107C68.4525 161.86 68.0438 160.644 67.5214 159.475C67.2559 158.896 66.8632 158.384 66.3725 157.978C65.8818 157.571 65.3058 157.281 64.6873 157.127C63.4322 156.908 61.6797 157.983 61.5467 159.25" fill="#E28281"/>
<path d="M60.3028 158.901C59.4005 162.949 60.43 166.714 62.2693 170.317C63.9003 173.514 66.2775 176.88 70.1989 177.134C71.0966 177.232 71.9993 177.003 72.7425 176.49C73.4857 175.978 74.0198 175.215 74.2476 174.341C74.745 172.485 73.9758 170.635 73.0561 169.039C72.0768 167.493 71.2238 165.87 70.5055 164.187C69.8345 162.417 69.5453 160.503 68.6546 158.815C67.7639 157.126 66.1155 155.703 64.1837 155.802C62.5006 155.888 60.5862 157.149 60.3028 158.901C60.2212 159.234 60.2698 159.585 60.4386 159.883C60.6074 160.18 60.8836 160.402 61.2108 160.503C61.5435 160.591 61.8973 160.545 62.1966 160.375C62.496 160.205 62.7171 159.926 62.8129 159.595C62.9122 159.225 63.143 158.903 63.4624 158.69C63.7817 158.477 64.1677 158.388 64.5481 158.439C65.6297 158.629 66.3353 159.85 66.6939 160.752C67.2202 162.099 67.4921 163.533 68.0011 164.886C68.5328 166.305 69.1929 167.671 69.9733 168.969C70.6732 170.126 71.6044 171.369 71.7895 172.745C71.871 173.226 71.7787 173.72 71.5292 174.139C71.3635 174.318 71.1526 174.45 70.9186 174.52C70.6846 174.59 70.4361 174.597 70.1989 174.538C67.4111 174.301 65.7801 171.45 64.6349 169.241C63.0674 166.222 62.0495 163.007 62.8129 159.601C63.1773 157.97 60.6671 157.288 60.3028 158.907V158.901Z" fill="#110002"/>
<path d="M47.3138 162.927C46.9617 164.428 46.8911 165.981 47.1056 167.507C47.5019 169.719 48.2746 171.847 49.3902 173.799C50.0637 175.213 50.9578 176.511 52.0392 177.644C53.1352 178.774 54.6147 179.453 56.1862 179.547C56.7743 179.583 57.3582 179.429 57.852 179.107C58.236 178.813 58.5223 178.41 58.6733 177.951C59.3847 175.892 57.9156 173.799 56.7878 171.931C55.8189 170.325 55.0552 168.603 54.5147 166.807C54.2195 165.569 53.809 164.361 53.2885 163.199C53.023 162.62 52.6303 162.108 52.1396 161.701C51.6489 161.295 51.0729 161.004 50.4544 160.851C49.1993 160.631 47.4468 161.707 47.3138 162.973" fill="#E28281"/>
<path d="M46.0586 162.608C45.1563 166.656 46.1859 170.421 48.0251 174.024C49.6562 177.221 52.0333 180.587 55.949 180.841C56.8469 180.94 57.7502 180.712 58.4936 180.199C59.2371 179.686 59.771 178.923 59.9977 178.048C60.5009 176.192 59.7258 174.342 58.812 172.746C57.8326 171.2 56.9796 169.577 56.2613 167.894C55.5904 166.124 55.3012 164.21 54.4105 162.527C53.5198 160.845 51.8714 159.41 49.9396 159.509C48.2507 159.595 46.342 160.856 46.0586 162.608C45.977 162.941 46.0256 163.292 46.1944 163.59C46.3632 163.887 46.6395 164.109 46.9667 164.21C47.2995 164.299 47.6539 164.254 47.9536 164.084C48.2534 163.914 48.4743 163.633 48.5688 163.302C48.668 162.932 48.8989 162.61 49.2182 162.397C49.5376 162.184 49.9236 162.095 50.304 162.146C51.3798 162.336 52.0912 163.562 52.4498 164.459C52.9761 165.806 53.2422 167.24 53.7569 168.593C54.2915 170.013 54.9535 171.382 55.735 172.682C56.4348 173.838 57.366 175.076 57.5453 176.452C57.6311 176.934 57.5407 177.431 57.2908 177.852C57.1211 178.027 56.9079 178.153 56.6731 178.218C56.4382 178.283 56.1903 178.284 55.9548 178.222C53.1727 177.985 51.5417 175.134 50.3965 172.925C48.8291 169.906 47.8111 166.697 48.5746 163.285C48.939 161.654 46.4288 160.972 46.0644 162.591L46.0586 162.608Z" fill="#110002"/>
<path d="M124.047 263.281C125.6 267.648 128.153 271.591 131.502 274.795C131.768 275.043 133.151 275.454 133.428 275.217C133.573 275.09 132.624 274.725 132.642 274.535C132.838 272.279 133.035 270.001 132.642 267.774C132.526 267.144 132.364 266.525 132.202 265.907L130.467 259.441C128.842 261.061 126.36 261.448 124.458 262.732" fill="#110002"/>
<path d="M123.209 263.512C124.021 265.798 125.099 267.982 126.419 270.017C127.648 272.034 129.166 273.86 130.924 275.436C131.556 275.907 132.323 276.16 133.111 276.159C134.007 276.159 134.748 275.245 133.99 274.488C133.864 274.375 133.727 274.276 133.579 274.193C133.255 273.984 133.458 274.06 133.429 274.158L133.533 274.268L133.568 273.863L133.602 273.452C133.631 273.094 133.654 272.73 133.678 272.371C133.775 271.022 133.742 269.666 133.579 268.323C133.322 266.795 132.969 265.284 132.521 263.801L131.312 259.221C131.269 259.077 131.189 258.946 131.081 258.841C130.973 258.736 130.839 258.661 130.693 258.623C130.548 258.584 130.394 258.584 130.248 258.622C130.103 258.66 129.969 258.735 129.86 258.839C128.241 260.389 125.881 260.782 124.03 261.991C123.099 262.569 123.967 264.102 124.909 263.489C126.899 262.187 129.334 261.754 131.092 260.065L129.64 259.684L130.797 264.131C131.264 265.634 131.625 267.168 131.879 268.722C132.021 270.209 132.021 271.706 131.879 273.192C131.833 273.77 131.607 274.522 131.879 275.037C132.013 275.231 132.186 275.394 132.388 275.517C132.457 275.563 132.538 275.621 132.613 275.661C132.689 275.702 132.827 275.887 132.665 275.627L132.579 274.956V274.996L132.978 274.482C133.14 274.383 133.186 274.482 133.036 274.43C132.97 274.411 132.902 274.401 132.833 274.401C132.636 274.359 132.442 274.301 132.255 274.227C131.849 273.957 131.488 273.625 131.185 273.244C130.249 272.283 129.385 271.255 128.599 270.168C127.041 267.985 125.791 265.597 124.886 263.072C124.51 262.031 122.833 262.494 123.209 263.535V263.512Z" fill="#110002"/>
<path d="M244.872 255.261V360.999H147.918V259.447L151.966 252.629C149.311 257.209 143.157 264.507 140.503 269.087C139.583 270.672 138.64 272.285 137.252 273.477C136.27 274.317 135.103 274.911 133.845 275.211V274.911C131.723 257.522 125.1 239.78 111.688 228.533C114.169 224.566 138.386 196.34 143.695 194.414C146.022 193.529 148.465 192.989 150.948 192.812C156.634 192.274 158.114 191.846 164.054 191.384C166.599 191.187 169.196 191.32 171.637 190.805C174.078 190.291 178.138 187.185 179.156 185.479L211.123 186.202C212.147 187.937 216.219 191.002 218.642 191.523C221.066 192.043 223.674 191.916 226.219 192.101C232.165 192.563 233.883 191.812 239.331 193.529C241.726 194.287 246.908 197.652 249.331 199.046C252.186 200.73 254.43 203.277 255.74 206.321C258.458 213.26 260.755 220.425 263.033 227.544C268.065 243.267 272.652 258.904 278.551 274.292C278.737 274.783 278.927 275.275 279.13 275.761C267.43 278.133 255.957 281.509 244.837 285.852" fill="#069154"/>
<path d="M244.872 255.261V360.999H147.918V259.447L151.966 252.629C149.311 257.209 143.157 264.507 140.503 269.087C139.583 270.672 138.64 272.285 137.252 273.477C136.27 274.317 135.103 274.911 133.845 275.211V274.911C131.723 257.522 125.1 239.78 111.688 228.533C114.169 224.566 138.386 196.34 143.695 194.414C146.022 193.529 148.465 192.989 150.948 192.812C156.634 192.274 158.114 191.846 164.054 191.384C166.599 191.187 169.196 191.32 171.637 190.805C174.078 190.291 178.138 187.185 179.156 185.479L211.123 186.202C212.147 187.937 216.219 191.002 218.642 191.523C221.066 192.043 223.674 191.916 226.219 192.101C232.165 192.563 233.883 191.812 239.331 193.529C241.726 194.287 246.908 197.652 249.331 199.046C252.186 200.73 254.43 203.277 255.74 206.321C258.458 213.26 260.755 220.425 263.033 227.544C268.065 243.267 272.652 258.904 278.551 274.292C278.737 274.783 278.927 275.275 279.13 275.761C267.43 278.133 255.957 281.509 244.837 285.852" stroke="#110002" stroke-width="2.66985" stroke-miterlimit="10"/>
<path d="M196.658 286.713C211.442 286.713 223.426 274.731 223.426 259.95C223.426 245.17 211.442 233.188 196.658 233.188C181.875 233.188 169.891 245.17 169.891 259.95C169.891 274.731 181.875 286.713 196.658 286.713Z" fill="white" stroke="#110002" stroke-width="2.66985" stroke-miterlimit="10"/>
<path d="M181.759 274.01L191.059 248.519H200.581L209.881 274.01H201.211L200.136 270.416H191.207L190.133 274.01H181.759ZM192.912 264.71H198.469L197.246 260.634C197.148 260.338 197.037 259.98 196.913 259.56C196.79 259.14 196.666 258.695 196.542 258.226C196.419 257.757 196.295 257.3 196.172 256.855C196.048 256.386 195.937 255.978 195.839 255.633H195.542C195.443 256.077 195.307 256.583 195.135 257.152C194.986 257.72 194.826 258.313 194.653 258.93C194.48 259.523 194.307 260.091 194.134 260.634L192.912 264.71Z" fill="#110002"/>
<path d="M194.58 211.907C206.466 211.907 216.102 203.85 216.102 193.911C216.102 183.972 206.466 175.915 194.58 175.915C182.694 175.915 173.059 183.972 173.059 193.911C173.059 203.85 182.694 211.907 194.58 211.907Z" fill="#FEB20E" stroke="#110002" stroke-width="2.66985" stroke-miterlimit="10"/>
<path d="M180.157 172.167H209.313C209.575 172.167 209.827 172.271 210.013 172.457C210.198 172.642 210.302 172.894 210.302 173.156V189.631C210.302 193.257 208.862 196.734 206.297 199.298C203.733 201.861 200.255 203.302 196.629 203.302H192.829C191.033 203.302 189.255 202.949 187.595 202.263C185.935 201.576 184.427 200.569 183.157 199.3C181.887 198.03 180.879 196.523 180.192 194.864C179.504 193.205 179.15 191.427 179.15 189.631V173.156C179.15 172.894 179.255 172.642 179.44 172.457C179.626 172.271 179.877 172.167 180.139 172.167H180.157Z" fill="#E28281" stroke="#110002" stroke-width="2.66985" stroke-miterlimit="10"/>
<path d="M180.245 67.5449H208.187C215.648 67.5449 222.804 70.5084 228.08 75.7833C233.356 81.0582 236.319 88.2126 236.319 95.6725V138.17C236.319 147.699 232.533 156.838 225.794 163.576C219.055 170.314 209.915 174.099 200.384 174.099H188.88C179.35 174.099 170.21 170.314 163.47 163.576C156.731 156.838 152.945 147.699 152.945 138.17V94.834C152.947 87.596 155.824 80.6549 160.943 75.5374C166.063 70.4198 173.006 67.5449 180.245 67.5449V67.5449Z" fill="#E28281" stroke="#110002" stroke-width="2.66985" stroke-miterlimit="10"/>
<path d="M173.806 135.401C175.975 135.401 177.733 133.643 177.733 131.474C177.733 129.306 175.975 127.548 173.806 127.548C171.637 127.548 169.879 129.306 169.879 131.474C169.879 133.643 171.637 135.401 173.806 135.401Z" fill="#110002"/>
<path d="M178.434 122.846L167.531 121.66" stroke="#110002" stroke-width="3.33732" stroke-miterlimit="10" stroke-linecap="round"/>
<path d="M212.617 135.394C214.786 135.394 216.544 133.636 216.544 131.468C216.544 129.299 214.786 127.541 212.617 127.541C210.448 127.541 208.689 129.299 208.689 131.468C208.689 133.636 210.448 135.394 212.617 135.394Z" fill="#110002"/>
<path d="M207.473 122.839L218.375 121.647" stroke="#110002" stroke-width="3.33732" stroke-miterlimit="10" stroke-linecap="round"/>
<path d="M184.998 149.886C184.149 149.293 183.516 148.441 183.193 147.457C182.969 146.754 182.913 146.007 183.031 145.277C184.107 144.051 189.85 137.314 187.826 130.572C187.589 129.781 187.257 129.021 186.837 128.311" stroke="#110002" stroke-width="2.66985" stroke-miterlimit="10" stroke-linecap="round"/>
<path d="M236.318 121.735V138.841C238.587 138.841 240.763 137.94 242.367 136.336C243.971 134.732 244.873 132.556 244.873 130.288C244.873 128.02 243.971 125.844 242.367 124.24C240.763 122.636 238.587 121.735 236.318 121.735V121.735Z" fill="#E28281" stroke="#110002" stroke-width="2.66985" stroke-miterlimit="10"/>
<path d="M152.944 121.735V138.841C149.59 138.841 146.871 135.013 146.871 130.288C146.871 125.564 149.59 121.735 152.944 121.735Z" fill="#E28281" stroke="#110002" stroke-width="2.66985" stroke-miterlimit="10"/>
<path d="M182.125 98.0605C180.876 101.484 178.655 105.098 173.374 110.384C167.804 115.964 160.688 119.745 152.945 121.238V98.0605H182.125Z" fill="#110002" stroke="#110002" stroke-width="2.66985" stroke-miterlimit="10" stroke-linecap="round"/>
<path d="M207.145 98.6611C208.394 102.085 210.615 105.705 215.895 110.984C221.464 116.564 228.578 120.345 236.318 121.839V98.6611H207.145Z" fill="#110002" stroke="#110002" stroke-width="2.66985" stroke-miterlimit="10" stroke-linecap="round"/>
<path d="M212.766 104.312C217.169 110.326 223.273 114.884 230.291 117.398" stroke="#1F307C" stroke-width="1.33493" stroke-miterlimit="10" stroke-linecap="round"/>
<path d="M223.686 110.361C226.788 112.554 230.348 114.013 234.097 114.628V107.672C223.264 106.55 220.702 106.989 220.592 107.672C220.482 108.157 221.546 108.892 223.686 110.361Z" fill="#1F307C" stroke="#1F307C" stroke-width="1.33493" stroke-miterlimit="10" stroke-linecap="round"/>
<path d="M175.767 104.521C171.364 110.535 165.26 115.093 158.242 117.607" stroke="#1F307C" stroke-width="1.33493" stroke-miterlimit="10" stroke-linecap="round"/>
<path d="M164.656 110.563C163.665 111.192 162.631 111.75 161.561 112.234C159.388 113.203 157.095 113.876 154.742 114.235V108.25C165.084 107.284 168.224 107.093 168.328 107.671C168.398 108.076 166.692 109.302 164.656 110.563Z" fill="#1F307C" stroke="#1F307C" stroke-width="1.33493" stroke-miterlimit="10" stroke-linecap="round"/>
<path d="M238.331 107.093H151.319C150.415 107.086 149.55 106.727 148.907 106.093C148.591 105.775 148.341 105.398 148.171 104.983C148.001 104.568 147.915 104.124 147.918 103.675V95.4059C147.917 94.9574 148.005 94.5131 148.176 94.0985C148.347 93.6839 148.599 93.3071 148.915 92.9896C149.232 92.6722 149.609 92.4204 150.023 92.2485C150.438 92.0767 150.882 91.9883 151.331 91.9883H238.331C239.238 91.9883 240.107 92.3484 240.748 92.9893C241.389 93.6302 241.749 94.4995 241.749 95.4059V103.675C241.749 104.582 241.389 105.451 240.748 106.092C240.107 106.733 239.238 107.093 238.331 107.093V107.093Z" fill="#FEB20E" stroke="#110002" stroke-width="2.66985" stroke-miterlimit="10"/>
<path d="M180.632 51H208.649C216.783 51.0107 224.58 54.2488 230.328 60.003C236.075 65.7572 239.304 73.5571 239.304 81.6894V91.9886H149.938V81.6894C149.938 73.55 153.171 65.7441 158.928 59.9887C164.684 54.2333 172.492 51 180.632 51V51Z" fill="#FEB20E" stroke="#110002" stroke-width="2.66985" stroke-miterlimit="10"/>
<path d="M155.275 91.9883V107.087" stroke="#110002" stroke-width="2.66985" stroke-miterlimit="10"/>
<path d="M164.795 91.9883V107.087" stroke="#110002" stroke-width="2.66985" stroke-miterlimit="10"/>
<path d="M173.639 91.7158V106.815" stroke="#110002" stroke-width="2.66985" stroke-miterlimit="10"/>
<path d="M181.957 91.7158V106.815" stroke="#110002" stroke-width="2.66985" stroke-miterlimit="10"/>
<path d="M190.777 91.624V106.723" stroke="#110002" stroke-width="2.66985" stroke-miterlimit="10"/>
<path d="M199.695 91.624V106.723" stroke="#110002" stroke-width="2.66985" stroke-miterlimit="10"/>
<path d="M207.936 91.3535V106.452" stroke="#110002" stroke-width="2.66985" stroke-miterlimit="10"/>
<path d="M216.855 91.3535V106.452" stroke="#110002" stroke-width="2.66985" stroke-miterlimit="10"/>
<path d="M225.867 91.7578V106.857" stroke="#110002" stroke-width="2.66985" stroke-miterlimit="10"/>
<path d="M234.785 91.7578V106.857" stroke="#110002" stroke-width="2.66985" stroke-miterlimit="10"/>
<path d="M193.337 86.0086C200.547 86.0086 206.391 83.5774 206.391 80.5785C206.391 77.5796 200.547 75.1484 193.337 75.1484C186.128 75.1484 180.283 77.5796 180.283 80.5785C180.283 83.5774 186.128 86.0086 193.337 86.0086Z" fill="#F43518" stroke="#110002" stroke-width="2.66985" stroke-miterlimit="10"/>
<path d="M186.428 154.304L207.787 151.719L205.966 155.142C205.289 156.564 204.266 157.793 202.991 158.717C201.716 159.64 200.228 160.229 198.666 160.428H198.585C196.599 160.684 194.58 160.427 192.72 159.684C190.861 158.94 189.222 157.733 187.96 156.177L186.428 154.304Z" fill="#F43518" stroke="#110002" stroke-width="2.66985" stroke-linejoin="round"/>
<path d="M191.355 159.422C191.285 158.488 191.322 157.549 191.465 156.623C191.769 155.548 192.371 154.58 193.2 153.83L186.363 155.391L191.355 159.422Z" fill="#110002" stroke="#110002" stroke-width="0.667464" stroke-linejoin="round"/>
</g>
</svg>
