<svg width="160" height="161" viewBox="0 0 160 161" fill="none" xmlns="http://www.w3.org/2000/svg">
<path d="M86.4236 3.22092C86.03 3.18827 85.6366 3.28711 85.3051 3.50195L7.88933 53.6786C7.3395 53.838 6.89692 54.2529 6.70417 54.7966C1.269 70.1273 0.761074 86.7777 5.25159 102.412C9.74211 118.047 19.006 131.882 31.7442 141.976C44.4825 152.07 60.0562 157.917 76.2806 158.696C92.505 159.475 108.566 155.147 122.21 146.32C135.854 137.492 146.396 124.608 152.359 109.476C158.322 94.3429 159.406 77.7202 155.46 61.9391C151.514 46.158 142.735 32.0096 130.354 21.4789C117.973 10.9481 102.611 4.56342 86.4236 3.22092Z" fill="#F43518" stroke="#110002" stroke-width="3.57037" stroke-linejoin="round"/>
<mask id="mask0_873_1740" style="mask-type:alpha" maskUnits="userSpaceOnUse" x="4" y="8" width="151" height="151">
<path d="M85.9063 10.1131C85.5353 10.0824 85.1645 10.1755 84.8521 10.378L11.8825 57.6729C11.3643 57.8231 10.9471 58.2142 10.7654 58.7266C5.64243 73.1769 5.16367 88.8709 9.39628 103.607C13.6289 118.344 22.3607 131.384 34.3674 140.899C46.3741 150.413 61.0532 155.924 76.3458 156.659C91.6384 157.393 106.777 153.314 119.637 144.993C132.497 136.673 142.434 124.529 148.055 110.265C153.675 96.0017 154.697 80.3337 150.978 65.4589C147.258 50.5842 138.983 37.2484 127.314 27.3225C115.644 17.3965 101.164 11.3785 85.9063 10.1131Z" fill="#F43518" stroke="#110002" stroke-width="3.36531" stroke-linejoin="round"/>
</mask>
<g mask="url(#mask0_873_1740)">
<path d="M138.165 136.929C152.867 114.876 156.546 91.5063 146.383 84.7309C136.22 77.9555 116.063 90.3405 101.361 112.394C86.6591 134.447 82.9796 157.817 93.1427 164.592C103.306 171.368 123.463 158.983 138.165 136.929Z" fill="#ED6E30" stroke="#110002" stroke-width="1.43566" stroke-linejoin="round"/>
<path d="M77.3426 93.7617C87.249 93.7617 96.7497 97.697 103.755 104.702C110.76 111.707 114.695 121.208 114.695 131.114V179.126H39.9902V131.114C39.9902 121.208 43.9256 111.707 50.9305 104.702C57.9354 97.697 67.4361 93.7617 77.3426 93.7617Z" fill="#ED6E30" stroke="#110002" stroke-width="1.43566" stroke-linejoin="round"/>
<path d="M41.458 38.3846L40.8586 69.1687L70.2897 55.6735L46.5833 36.0337C46.1297 35.658 45.5793 35.418 44.9954 35.3412C44.4115 35.2644 43.8177 35.3539 43.2824 35.5994C42.747 35.845 42.2918 36.2366 41.9691 36.7293C41.6464 37.222 41.4693 37.7957 41.458 38.3846Z" fill="#110002" stroke="#110002" stroke-width="1.43566" stroke-linejoin="round"/>
<path d="M46.3427 46.651L45.2336 76.8788L73.8105 63.7784L50.1831 44.8887C49.8408 44.6151 49.4292 44.442 48.9943 44.3887C48.5594 44.3353 48.1182 44.4039 47.7199 44.5866C47.3217 44.7694 46.982 45.0592 46.7388 45.4237C46.4957 45.7882 46.3585 46.2131 46.3427 46.651Z" fill="#FFE3D4" stroke="#110002" stroke-width="1.43566" stroke-miterlimit="10"/>
<path d="M76.1328 115.064H77.8376C83.9219 115.064 89.7571 117.48 94.06 121.782C98.3629 126.083 100.781 131.918 100.783 138.002V179.062H53.1909V138.002C53.1909 131.917 55.6084 126.08 59.9115 121.777C64.2146 117.474 70.0509 115.057 76.1364 115.057L76.1328 115.064Z" fill="#FFE3D4" stroke="#110002" stroke-width="1.43566" stroke-miterlimit="10"/>
<path d="M77.127 105.876C99.0703 105.876 116.859 93.3868 116.859 77.9809C116.859 62.5749 99.0703 50.0859 77.127 50.0859C55.1836 50.0859 37.395 62.5749 37.395 77.9809C37.395 93.3868 55.1836 105.876 77.127 105.876Z" fill="#FFE3D4" stroke="#110002" stroke-width="1.43566" stroke-miterlimit="10"/>
<path d="M111.64 37.9327L113.568 68.6595L83.5732 56.4563L106.418 35.8079C106.855 35.4131 107.394 35.1495 107.974 35.0474C108.554 34.9453 109.151 35.0089 109.696 35.2308C110.242 35.4527 110.714 35.8239 111.057 36.3019C111.401 36.7798 111.603 37.3451 111.64 37.9327Z" fill="#110002" stroke="#110002" stroke-width="1.43566" stroke-linejoin="round"/>
<path d="M107.721 46.5938L110.233 74.0364L82.877 62.9101L103.827 45.0073C104.157 44.7262 104.558 44.5411 104.987 44.4723C105.415 44.4036 105.854 44.4538 106.256 44.6174C106.658 44.7811 107.007 45.052 107.265 45.4005C107.524 45.749 107.681 46.1618 107.721 46.5938Z" fill="#FFE3D4" stroke="#110002" stroke-width="1.43566" stroke-miterlimit="10"/>
<path d="M116.848 77.5358C116.507 62.3321 98.8523 50.0859 77.1271 50.0859C55.402 50.0859 37.7469 62.3321 37.4023 77.5322C37.4023 77.5753 37.4023 77.6148 37.4023 77.6578H37.6931L77.1307 95.2052L116.565 77.6578H116.855C116.852 77.6184 116.848 77.5789 116.848 77.5358Z" fill="#ED6E30" stroke="#110002" stroke-width="1.43566" stroke-linejoin="round"/>
<path d="M77.1271 95.9404C80.2531 95.9404 82.7872 94.5793 82.7872 92.9004C82.7872 91.2214 80.2531 89.8604 77.1271 89.8604C74.0012 89.8604 71.467 91.2214 71.467 92.9004C71.467 94.5793 74.0012 95.9404 77.1271 95.9404Z" fill="#110002" stroke="#110002" stroke-width="1.43566" stroke-linejoin="round"/>
<path d="M60.0139 79.7964C61.9446 79.7964 63.5097 78.2312 63.5097 76.3005C63.5097 74.3698 61.9446 72.8047 60.0139 72.8047C58.0832 72.8047 56.5181 74.3698 56.5181 76.3005C56.5181 78.2312 58.0832 79.7964 60.0139 79.7964Z" fill="#110002" stroke="#110002" stroke-width="1.43566" stroke-linejoin="round"/>
<path d="M93.8489 79.7964C95.7796 79.7964 97.3447 78.2312 97.3447 76.3005C97.3447 74.3698 95.7796 72.8047 93.8489 72.8047C91.9182 72.8047 90.353 74.3698 90.353 76.3005C90.353 78.2312 91.9182 79.7964 93.8489 79.7964Z" fill="#110002" stroke="#110002" stroke-width="1.43566" stroke-linejoin="round"/>
<path d="M56.5003 124.657C57.5212 124.657 58.5321 124.858 59.4753 125.249C60.4185 125.64 61.2755 126.212 61.9974 126.934C62.7193 127.656 63.292 128.513 63.6826 129.456C64.0733 130.4 64.2744 131.41 64.2744 132.431V187.281H48.7441V132.431C48.7441 130.373 49.5607 128.398 51.0148 126.941C52.4688 125.483 54.4416 124.662 56.5003 124.657Z" fill="#110002" stroke="#110002" stroke-width="1.43566" stroke-linejoin="round"/>
<path d="M98.924 124.657C99.9449 124.657 100.956 124.858 101.899 125.249C102.842 125.64 103.699 126.212 104.421 126.934C105.143 127.656 105.716 128.513 106.106 129.456C106.497 130.4 106.698 131.41 106.698 132.431V187.281H91.1499V132.431C91.1499 130.37 91.969 128.392 93.4269 126.934C94.8848 125.476 96.8622 124.657 98.924 124.657Z" fill="#110002" stroke="#110002" stroke-width="1.43566" stroke-linejoin="round"/>
<path d="M146.588 84.5885C140.422 80.4789 130.577 83.422 120.502 91.3002C120.389 93.4449 121.091 95.5531 122.469 97.2007C123.236 98.0952 124.189 98.8117 125.261 99.3004C124.881 101.863 125.469 104.401 127.124 106.339C129.278 108.851 132.698 109.752 136.122 109.049C136.45 110.043 136.968 110.965 137.648 111.762C140.469 115.064 145.49 115.581 149.815 113.345C153.914 100.086 153.084 88.9313 146.588 84.5885Z" fill="#FFE3D4" stroke="#110002" stroke-width="1.43566" stroke-miterlimit="10"/>
</g>
<path d="M87.8833 2C87.207 3.93468 85.9153 5.7656 85.0684 7.67586C71.6644 37.9532 41.2008 54.816 10 52.3931L87.8833 2Z" fill="#FFEADF" stroke="#110002" stroke-width="3.57037" stroke-linejoin="bevel"/>
</svg>
