<svg width="180" height="180" viewBox="0 0 180 180" fill="none" xmlns="http://www.w3.org/2000/svg">
<path d="M77.325 16.9026L16.378 83.1042L16.3132 83.0659C14.9467 98.4087 18.4172 113.794 26.238 127.065C34.0588 140.335 45.8375 150.824 59.9219 157.061C74.0062 163.298 89.6896 164.97 104.772 161.842C119.855 158.713 133.58 150.942 144.022 139.619C154.464 128.295 161.099 113.986 162.997 98.7002C164.895 83.414 161.961 67.9172 154.605 54.3835C147.249 40.8497 135.842 29.9581 121.982 23.2362C108.123 16.5144 92.507 14.2996 77.325 16.9026Z" fill="#1F307C" stroke="#110002" stroke-width="2.36552" stroke-linejoin="round"/>
<path d="M73.2369 41.3447L95.0746 59.3181C95.5801 59.7335 96.1784 60.0203 96.8182 60.1542C97.4581 60.288 98.1205 60.265 98.7491 60.0869L125.909 52.3314C126.631 52.1213 127.398 52.1184 128.122 52.3231C128.847 52.5277 129.499 52.9317 130.006 53.489C130.513 54.0463 130.854 54.7346 130.99 55.4757C131.125 56.2167 131.051 56.9808 130.775 57.6809L120.483 83.9944C120.251 84.6046 120.168 85.2615 120.24 85.9109C120.312 86.5602 120.537 87.1833 120.896 87.7287L136.705 111.128C137.126 111.752 137.365 112.482 137.394 113.234C137.423 113.987 137.241 114.732 136.869 115.386C136.497 116.04 135.949 116.576 135.288 116.934C134.627 117.292 133.879 117.457 133.128 117.411L104.941 115.709C104.289 115.671 103.637 115.791 103.041 116.06C102.446 116.329 101.925 116.739 101.523 117.254L84.1387 139.553C83.677 140.147 83.0584 140.599 82.3529 140.859C81.6473 141.118 80.883 141.175 80.1463 141.023C79.4096 140.87 78.73 140.514 78.1843 139.995C77.6386 139.476 77.2486 138.815 77.0584 138.086L69.9662 110.691C69.8023 110.058 69.4873 109.474 69.0483 108.989C68.6092 108.505 68.0592 108.134 67.4457 107.909L40.881 98.242C40.1757 97.9837 39.5561 97.5335 39.0922 96.942C38.6282 96.3505 38.3382 95.6412 38.255 94.8941C38.1718 94.147 38.2986 93.3918 38.6211 92.7136C38.9436 92.0353 39.4489 91.4611 40.0803 91.0554L64.2719 76.7316C64.8337 76.3822 65.3007 75.8996 65.6317 75.3263C65.9626 74.7529 66.1474 74.1066 66.1696 73.4444L66.6881 44.2481C66.7307 43.5081 66.976 42.7944 67.3971 42.1854C67.8182 41.5764 68.399 41.0956 69.0755 40.7957C69.752 40.4957 70.4983 40.3883 71.2324 40.4851C71.9665 40.582 72.66 40.8794 73.2369 41.3447Z" fill="#FFD271" stroke="#110002" stroke-width="4" stroke-miterlimit="10"/>
<path d="M77.3247 16.9018C77.1572 18.881 76.3863 20.9121 76.0526 22.9097C70.7813 54.5675 46.2298 77.774 16.3186 83.0637L77.3247 16.9018Z" fill="#FFEADF" stroke="#110002" stroke-width="2.36552" stroke-linejoin="bevel"/>
</svg>
