<svg width="318" height="251" viewBox="0 0 318 251" fill="none" xmlns="http://www.w3.org/2000/svg">
<path d="M285.988 150.6H284.752L284.499 151.811L269.287 224.829L268.906 226.66H270.776H311.849H313.682L313.344 224.859L299.653 151.841L299.421 150.6H298.158H285.988Z" fill="#F43518" stroke="black" stroke-width="3.04242"/>
<mask id="mask0_2312_7728" style="mask-type:alpha" maskUnits="userSpaceOnUse" x="267" y="149" width="49" height="80">
<path d="M285.988 150.6H284.752L284.499 151.811L269.287 224.829L268.906 226.66H270.776H311.849H313.682L313.344 224.859L299.653 151.841L299.421 150.6H298.158H285.988Z" fill="#F43518" stroke="black" stroke-width="3.04242"/>
</mask>
<g mask="url(#mask0_2312_7728)">
<rect x="269.255" y="206.124" width="45.6364" height="4.56364" fill="white"/>
<rect x="269.255" y="206.124" width="45.6364" height="4.56364" fill="white"/>
<rect x="269.255" y="206.124" width="45.6364" height="4.56364" fill="black"/>
<rect x="269.255" y="213.73" width="45.6364" height="4.56364" fill="white"/>
<rect x="269.255" y="213.73" width="45.6364" height="4.56364" fill="white"/>
<rect x="269.255" y="213.73" width="45.6364" height="4.56364" fill="black"/>
</g>
<rect x="269.255" y="225.139" width="47.1576" height="7.60606" fill="#B71800" stroke="black" stroke-width="3.04242"/>
<rect x="38.03" y="33.4665" width="22.8182" height="203.842" fill="#BFBFBF" stroke="black" stroke-width="3.04242"/>
<circle cx="49.4397" cy="20.5364" r="19.0152" fill="#BFBFBF" stroke="black" stroke-width="3.04242"/>
<circle cx="49.4395" cy="20.5362" r="14.4515" fill="#B71800" stroke="black" stroke-width="3.04242"/>
<rect x="247.958" y="33.4665" width="22.8182" height="203.842" fill="#BFBFBF" stroke="black" stroke-width="3.04242"/>
<circle cx="259.366" cy="20.5364" r="19.0152" fill="#BFBFBF" stroke="black" stroke-width="3.04242"/>
<circle cx="259.366" cy="20.5362" r="14.4515" fill="#B71800" stroke="black" stroke-width="3.04242"/>
<rect x="14.4519" y="44.115" width="264.691" height="31.1848" fill="#FEB20E"/>
<path d="M41.8337 42.5938L12.9307 76.821H47.9185L75.3004 42.5938H41.8337Z" fill="black"/>
<path d="M41.8337 42.5938L12.9307 76.821H47.9185L75.3004 42.5938H41.8337Z" fill="black"/>
<path d="M41.8337 42.5938L12.9307 76.821H47.9185L75.3004 42.5938H41.8337Z" fill="black"/>
<path d="M110.288 42.5938L81.3848 76.821H116.373L143.754 42.5938H110.288Z" fill="black"/>
<path d="M110.288 42.5938L81.3848 76.821H116.373L143.754 42.5938H110.288Z" fill="black"/>
<path d="M110.288 42.5938L81.3848 76.821H116.373L143.754 42.5938H110.288Z" fill="black"/>
<path d="M178.743 42.5938L149.84 76.821H184.828L212.21 42.5938H178.743Z" fill="black"/>
<path d="M178.743 42.5938L149.84 76.821H184.828L212.21 42.5938H178.743Z" fill="black"/>
<path d="M178.743 42.5938L149.84 76.821H184.828L212.21 42.5938H178.743Z" fill="black"/>
<path d="M247.197 42.5938L218.294 76.821H253.282L280.664 42.5938H247.197Z" fill="black"/>
<path d="M247.197 42.5938L218.294 76.821H253.282L280.664 42.5938H247.197Z" fill="black"/>
<path d="M247.197 42.5938L218.294 76.821H253.282L280.664 42.5938H247.197Z" fill="black"/>
<rect x="14.4519" y="44.115" width="264.691" height="31.1848" stroke="black" stroke-width="3.04242"/>
<rect x="13.6911" y="108.006" width="264.691" height="31.1848" fill="#FEB20E"/>
<path d="M41.073 106.485L12.1699 140.712H47.1578L74.5396 106.485H41.073Z" fill="black"/>
<path d="M41.073 106.485L12.1699 140.712H47.1578L74.5396 106.485H41.073Z" fill="black"/>
<path d="M41.073 106.485L12.1699 140.712H47.1578L74.5396 106.485H41.073Z" fill="black"/>
<path d="M109.527 106.485L80.624 140.712H115.612L142.994 106.485H109.527Z" fill="black"/>
<path d="M109.527 106.485L80.624 140.712H115.612L142.994 106.485H109.527Z" fill="black"/>
<path d="M109.527 106.485L80.624 140.712H115.612L142.994 106.485H109.527Z" fill="black"/>
<path d="M177.982 106.485L149.079 140.712H184.067L211.449 106.485H177.982Z" fill="black"/>
<path d="M177.982 106.485L149.079 140.712H184.067L211.449 106.485H177.982Z" fill="black"/>
<path d="M177.982 106.485L149.079 140.712H184.067L211.449 106.485H177.982Z" fill="black"/>
<path d="M246.436 106.485L217.533 140.712H252.521L279.903 106.485H246.436Z" fill="black"/>
<path d="M246.436 106.485L217.533 140.712H252.521L279.903 106.485H246.436Z" fill="black"/>
<path d="M246.436 106.485L217.533 140.712H252.521L279.903 106.485H246.436Z" fill="black"/>
<rect x="13.6911" y="108.006" width="264.691" height="31.1848" stroke="black" stroke-width="3.04242"/>
<path d="M19.7756 167.333L4.56348 240.352H45.6362L31.9453 167.333H19.7756Z" fill="#F43518" stroke="black" stroke-width="3.04242"/>
<mask id="mask1_2312_7728" style="mask-type:alpha" maskUnits="userSpaceOnUse" x="2" y="165" width="46" height="77">
<path d="M19.7756 167.334L4.56348 240.352H45.6362L31.9453 167.334H19.7756Z" fill="#F43518" stroke="black" stroke-width="3.04242"/>
</mask>
<g mask="url(#mask1_2312_7728)">
<rect x="4.1829" y="222.478" width="43.3545" height="2.28182" fill="white"/>
<rect x="4.1829" y="222.478" width="43.3545" height="2.28182" fill="white"/>
<rect x="4.1829" y="222.478" width="43.3545" height="2.28182" fill="white"/>
<rect x="4.1829" y="222.478" width="43.3545" height="2.28182" stroke="black" stroke-width="2.28182"/>
<rect x="4.1829" y="230.084" width="43.3545" height="2.28182" fill="white"/>
<rect x="4.1829" y="230.084" width="43.3545" height="2.28182" fill="white"/>
<rect x="4.1829" y="230.084" width="43.3545" height="2.28182" fill="white"/>
<rect x="4.1829" y="230.084" width="43.3545" height="2.28182" stroke="black" stroke-width="2.28182"/>
</g>
<rect x="1.52121" y="241.873" width="47.1576" height="7.60606" fill="#B71800" stroke="black" stroke-width="3.04242"/>
</svg>
