<svg width="180" height="180" viewBox="0 0 180 180" fill="none" xmlns="http://www.w3.org/2000/svg">
<path d="M77.325 16.9021L16.378 83.1037L16.3132 83.0654C14.9467 98.4082 18.4172 113.794 26.238 127.064C34.0588 140.335 45.8375 150.824 59.9219 157.061C74.0062 163.298 89.6896 164.969 104.772 161.841C119.855 158.713 133.58 150.942 144.022 139.618C154.464 128.294 161.099 113.986 162.997 98.6997C164.895 83.4136 161.961 67.9167 154.605 54.383C147.249 40.8493 135.842 29.9576 121.982 23.2357C108.123 16.5139 92.507 14.2991 77.325 16.9021Z" fill="#069154" stroke="#110002" stroke-width="2.36552" stroke-linejoin="round"/>
<g clip-path="url(#clip0_2311_7637)">
<path d="M71.7433 50.5478L83.2129 47.5897C91.9135 45.3438 101.15 46.6445 108.891 51.2057C116.632 55.7669 122.244 63.2153 124.492 71.913L132.41 102.611C133.557 107.048 133.819 111.667 133.18 116.206C132.542 120.744 131.015 125.113 128.688 129.062C126.361 133.011 123.279 136.463 119.617 139.221C115.956 141.979 111.787 143.989 107.349 145.137L98.7942 147.343C89.8295 149.655 80.3137 148.312 72.3402 143.61C64.3667 138.907 58.5886 131.23 56.2771 122.267L48.1008 90.5646C45.923 82.1207 47.1896 73.1574 51.6218 65.6465C56.054 58.1356 63.2888 52.6923 71.7346 50.514L71.7433 50.5478Z" fill="#E28281" stroke="#110002" stroke-width="2.36552" stroke-miterlimit="10"/>
<path d="M74.931 115.808C76.9096 115.298 78.1 113.28 77.5898 111.302C77.0797 109.324 75.0621 108.134 73.0835 108.644C71.1049 109.155 69.9146 111.172 70.4247 113.15C70.9349 115.128 72.9524 116.318 74.931 115.808Z" fill="#110002"/>
<path d="M75.2585 100.95L66.9014 107.047" stroke="#110002" stroke-width="2.95689" stroke-miterlimit="10" stroke-linecap="round"/>
<path d="M110.364 106.662C112.342 106.152 113.533 104.135 113.022 102.157C112.512 100.179 110.495 98.9886 108.516 99.4989C106.538 100.009 105.347 102.026 105.857 104.005C106.368 105.983 108.385 107.173 110.364 106.662Z" fill="#110002"/>
<path d="M102.38 94.494L112.724 94.6759" stroke="#110002" stroke-width="2.95689" stroke-miterlimit="10" stroke-linecap="round"/>
<path d="M88.5527 126.381C87.7666 126.094 87.0783 125.589 86.5683 124.926C86.0583 124.263 85.7476 123.468 85.6726 122.635C86.3705 121.268 90.033 113.762 86.5894 108.082C86.188 107.416 85.708 106.801 85.1597 106.25" stroke="#110002" stroke-width="2.36552" stroke-miterlimit="10" stroke-linecap="round"/>
<path d="M106.437 125.862C103.481 125.983 100.595 126.798 98.013 128.243C95.358 129.755 93.033 131.783 91.1757 134.208" stroke="#110002" stroke-width="2.36552" stroke-miterlimit="10" stroke-linecap="round"/>
<path d="M128.798 88.6069L132.827 104.229C133.853 103.964 134.817 103.5 135.663 102.863C136.51 102.226 137.223 101.429 137.761 100.516C138.3 99.6039 138.653 98.5944 138.801 97.5455C138.95 96.4965 138.89 95.4287 138.625 94.403C138.361 93.3772 137.897 92.4136 137.26 91.5672C136.622 90.7208 135.825 90.0081 134.912 89.4699C134 88.9317 132.99 88.5785 131.941 88.4304C130.892 88.2823 129.824 88.3423 128.798 88.6069Z" fill="#E28281" stroke="#110002" stroke-width="2.36552" stroke-miterlimit="10"/>
<path d="M52.6601 108.243L56.6891 123.865C53.6261 124.655 50.2421 121.801 49.1288 117.484C48.0154 113.167 49.5971 109.033 52.6601 108.243Z" fill="#E28281" stroke="#110002" stroke-width="2.36552" stroke-miterlimit="10"/>
<path d="M73.7291 79.7594C73.3808 83.18 72.2092 87.0072 68.6426 93.0707C64.8719 99.4788 59.2631 104.607 52.5432 107.791L47.0859 86.6309L73.7291 79.7594Z" fill="#110002" stroke="#110002" stroke-width="2.36552" stroke-miterlimit="10" stroke-linecap="round"/>
<path d="M96.7217 74.4126C98.6691 77.2483 101.544 80.0247 107.612 83.6034C114.013 87.3865 121.402 89.1644 128.824 88.7077L123.365 67.5412L96.7217 74.4126Z" fill="#110002" stroke="#110002" stroke-width="2.36552" stroke-miterlimit="10" stroke-linecap="round"/>
<path d="M103.226 78.396C108.665 82.8467 115.311 85.5695 122.31 86.2144" stroke="#1F307C" stroke-width="1.18276" stroke-miterlimit="10" stroke-linecap="round"/>
<path d="M114.367 81.2565C115.532 81.6691 116.725 81.9962 117.937 82.235C120.382 82.6982 122.881 82.8143 125.358 82.5799L123.725 76.2462C113.043 77.9075 110.677 78.9423 110.737 79.5958C110.773 80.0398 111.97 80.4431 114.367 81.2565Z" fill="#1F307C" stroke="#1F307C" stroke-width="1.18276" stroke-miterlimit="10" stroke-linecap="round"/>
<path d="M69.4859 87.2989C68.4276 89.9696 67.0456 92.5005 65.3707 94.8347C62.9583 98.1799 59.9801 101.078 56.5703 103.399" stroke="#1F307C" stroke-width="1.18276" stroke-miterlimit="10" stroke-linecap="round"/>
<path d="M61.3527 95.1298C60.5556 95.9459 59.7036 96.7065 58.8025 97.4061C56.9536 98.8332 54.9255 100.012 52.77 100.911L51.3644 95.4613C60.9953 92.0422 63.905 91.076 64.1723 91.5825C64.3557 91.9309 63.0168 93.4632 61.3527 95.1298Z" fill="#1F307C" stroke="#1F307C" stroke-width="1.18276" stroke-miterlimit="10" stroke-linecap="round"/>
<path d="M127.185 74.7648L47.7141 95.2608C46.8867 95.4661 46.0121 95.3437 45.273 94.9192C44.5437 94.4794 44.017 93.7701 43.8068 92.9449L41.8584 85.3902C41.6459 84.5661 41.7685 83.6912 42.1995 82.9572C42.6305 82.2232 43.3348 81.6897 44.1582 81.4735L123.629 60.9775C124.039 60.8709 124.465 60.8461 124.884 60.9046C125.304 60.9631 125.707 61.1037 126.072 61.3183C126.437 61.5329 126.756 61.8174 127.01 62.1554C127.265 62.4934 127.451 62.8784 127.556 63.2882L129.505 70.8428C129.61 71.2526 129.634 71.6793 129.575 72.0983C129.515 72.5174 129.374 72.9206 129.158 73.2849C128.943 73.6492 128.658 73.9674 128.319 74.2213C127.98 74.4753 127.595 74.66 127.185 74.7648Z" fill="#FEB20E" stroke="#110002" stroke-width="1.77414" stroke-miterlimit="10"/>
<path d="M69.0622 35.1308L79.0812 32.5468C88.5773 30.0977 98.6572 31.5204 107.103 36.5018C115.55 41.4833 121.67 49.6155 124.119 59.1094L124.54 60.7418L42.9101 81.7946L42.4891 80.1622C40.0406 70.6683 41.4646 60.5903 46.448 52.1452C51.4315 43.7002 59.566 37.5799 69.0622 35.1308Z" fill="#FEB20E" stroke="#110002" stroke-width="2.36552" stroke-miterlimit="10"/>
<path d="M47.7812 80.5381L51.3371 94.3254" stroke="#110002" stroke-width="2.36552" stroke-miterlimit="10"/>
<path d="M56.4785 78.2964L60.0343 92.0837" stroke="#110002" stroke-width="2.36552" stroke-miterlimit="10"/>
<path d="M64.4902 75.9624L68.0461 89.7497" stroke="#110002" stroke-width="2.36552" stroke-miterlimit="10"/>
<path d="M72.0869 74.0034L75.6427 87.7907" stroke="#110002" stroke-width="2.36552" stroke-miterlimit="10"/>
<path d="M80.1201 71.8384L83.6759 85.6256" stroke="#110002" stroke-width="2.36552" stroke-miterlimit="10"/>
<path d="M88.2627 69.7378L91.8185 83.5251" stroke="#110002" stroke-width="2.36552" stroke-miterlimit="10"/>
<path d="M95.7236 67.5557L99.2795 81.3429" stroke="#110002" stroke-width="2.36552" stroke-miterlimit="10"/>
<path d="M103.866 65.4546L107.422 79.2419" stroke="#110002" stroke-width="2.36552" stroke-miterlimit="10"/>
<path d="M112.193 63.7031L115.749 77.4904" stroke="#110002" stroke-width="2.36552" stroke-miterlimit="10"/>
<path d="M120.337 61.6021L123.893 75.3893" stroke="#110002" stroke-width="2.36552" stroke-miterlimit="10"/>
<path d="M81.1322 66.1089C87.7163 64.4108 92.4813 60.8146 91.7752 58.0765C91.069 55.3384 85.1591 54.4953 78.5749 56.1934C71.9908 57.8915 67.2258 61.4877 67.932 64.2258C68.6381 66.9639 74.5481 67.807 81.1322 66.1089Z" fill="#069154" stroke="#110002" stroke-width="2.36552" stroke-miterlimit="10"/>
</g>
<path d="M77.3247 16.9018C77.1572 18.881 76.3863 20.9121 76.0526 22.9097C70.7813 54.5675 46.2298 77.774 16.3186 83.0637L77.3247 16.9018Z" fill="#FFEADF" stroke="#110002" stroke-width="2.36552" stroke-linejoin="bevel"/>
<defs>
<clipPath id="clip0_2311_7637">
<rect width="95.212" height="118.867" fill="white" transform="translate(28.7598 44.0854) rotate(-14.4618)"/>
</clipPath>
</defs>
</svg>
