<svg width="422" height="460" viewBox="0 0 422 460" fill="none" xmlns="http://www.w3.org/2000/svg">
<g clip-path="url(#clip0_2501_6319)">
<path d="M418.829 2.21094H2.21204V457.699H418.829V2.21094Z" fill="white" stroke="#110002" stroke-width="5.19805" stroke-miterlimit="10"/>
<path d="M398.818 22.3662H20.994V437.278H398.818V22.3662Z" fill="#1F307C" stroke="#110002" stroke-width="5.19805" stroke-miterlimit="10"/>
<path d="M303.864 150.472L319.958 139.111L385.279 238.517L357.825 258.398L185.522 389.992C159.014 390.749 156.174 367.376 158.067 355.594L147.653 362.537C114.329 367.081 116.096 342.34 121.145 329.402L105.998 337.922C78.7321 340.952 75.7039 317.094 77.598 304.787C45.4077 309.521 46.3554 279.226 54.8768 269.758L213.925 139.111C223.014 126.993 236.015 127.75 241.38 129.644L303.864 150.472Z" fill="#C86564"/>
<path d="M77.598 304.787C45.4077 309.521 46.3554 279.226 54.8768 269.758L213.925 139.111C223.014 126.993 236.015 127.75 241.38 129.644L303.864 150.472L319.958 139.111L385.279 238.517L357.825 258.398M77.598 304.787L100.317 290.586M77.598 304.787C75.7039 317.094 78.7321 340.952 105.998 337.922L121.145 329.402M136.293 320.881L121.145 329.402M121.145 329.402C116.096 342.34 114.329 367.081 147.653 362.537L158.067 355.594M176.055 343.602L158.067 355.594M158.067 355.594C156.174 367.376 159.014 390.749 185.522 389.992L357.825 258.398M357.825 258.398C359.402 253.98 360.475 242.872 352.144 233.783" stroke="black" stroke-width="7.57375"/>
<path d="M122.092 152.365L106.944 141.951L39.7274 238.517L66.2355 253.664L65.2888 262.185L232.858 388.098C257.473 398.512 270.727 362.367 257.473 353.937L275.46 365.377C306.702 372.004 308.72 337.922 296.288 329.252L311.436 339.816C349.304 349.283 348.358 310.467 333.21 301C363.505 307.627 365.398 272.599 355.931 265.025L278.3 213.902L209.19 140.058C206.918 133.242 195.62 130.906 190.256 130.591L122.092 152.365Z" fill="#E28281"/>
<path d="M333.21 301C363.505 307.627 365.398 272.599 355.931 265.025L278.3 213.902L209.19 140.058C206.918 133.242 195.62 130.906 190.256 130.591L122.092 152.365L106.944 141.951L39.7274 238.517L66.2355 253.664L65.2888 262.185L232.858 388.098C257.473 398.512 270.727 362.367 257.473 353.937M333.21 301L248.005 245.144M333.21 301C348.358 310.467 349.304 349.283 311.436 339.816L296.288 329.252M239.485 289.639L296.288 329.252M296.288 329.252C308.72 337.922 306.702 372.004 275.46 365.377L257.473 353.937M218.657 329.252L257.473 353.937" stroke="#0B0A0A" stroke-width="7.57375"/>
<rect x="10.598" y="234.836" width="144.144" height="28.0156" transform="rotate(-55.6296 10.598 234.836)" fill="white" stroke="black" stroke-width="7.57375"/>
<rect x="-60.2635" y="195.448" width="154.979" height="87.7246" transform="rotate(-55.6296 -60.2635 195.448)" fill="#069154" stroke="black" stroke-width="7.57375"/>
<rect x="5.26355" y="0.987864" width="144.144" height="28.0156" transform="matrix(-0.56454 -0.825406 -0.825406 0.56454 415.406 235.832)" fill="white" stroke="black" stroke-width="7.57375"/>
<rect x="5.26355" y="0.987864" width="154.979" height="87.7246" transform="matrix(-0.56454 -0.825406 -0.825406 0.56454 486.267 196.444)" fill="#F43518" stroke="black" stroke-width="7.57375"/>
<g clip-path="url(#clip1_2501_6319)">
<path d="M348.851 131.924C348.851 131.924 346.729 79.9195 339.793 72.6643C332.857 65.4092 301.126 61.7925 301.126 61.7925C301.126 61.7925 332.999 59.6728 340.263 52.7454C347.527 45.8181 351.149 14.126 351.149 14.126C351.149 14.126 353.271 45.9601 360.201 53.2153C367.132 60.4704 398.874 64.0871 398.874 64.0871C398.874 64.0871 367.001 66.2068 359.736 73.1287C352.472 80.0506 348.851 131.924 348.851 131.924Z" fill="#FFEADF" stroke="black" stroke-width="3.09301" stroke-miterlimit="10"/>
</g>
<g clip-path="url(#clip2_2501_6319)">
<path d="M59.8512 448.924C59.8512 448.924 57.7289 396.919 50.793 389.664C43.857 382.409 12.1257 378.793 12.1257 378.793C12.1257 378.793 43.9993 376.673 51.2634 369.745C58.5275 362.818 62.1486 331.126 62.1486 331.126C62.1486 331.126 64.271 362.96 71.2014 370.215C78.1319 377.47 109.874 381.087 109.874 381.087C109.874 381.087 78.0006 383.207 70.7365 390.129C63.4724 397.051 59.8512 448.924 59.8512 448.924Z" fill="#FFEADF" stroke="black" stroke-width="3.09301" stroke-miterlimit="10"/>
</g>
</g>
<rect x="2" y="2" width="417.042" height="455.908" stroke="black" stroke-width="4"/>
<defs>
<clipPath id="clip0_2501_6319">
<rect width="421.042" height="459.908" fill="white"/>
</clipPath>
<clipPath id="clip1_2501_6319">
<rect width="98" height="118" fill="white" transform="translate(301 14)"/>
</clipPath>
<clipPath id="clip2_2501_6319">
<rect width="98" height="118" fill="white" transform="translate(12 331)"/>
</clipPath>
</defs>
</svg>
