<svg width="422" height="460" viewBox="0 0 422 460" fill="none" xmlns="http://www.w3.org/2000/svg">
<g clip-path="url(#clip0_2501_6191)">
<path d="M418.829 2.21094H2.21204V457.699H418.829V2.21094Z" fill="white" stroke="#110002" stroke-width="5.19805" stroke-miterlimit="10"/>
<path d="M398.818 22.3662H20.994V437.278H398.818V22.3662Z" fill="#F43518" stroke="#110002" stroke-width="5.19805" stroke-miterlimit="10"/>
<path d="M180.633 506.037L218.651 375.668L141.834 353.266L100.795 493.991C60.4365 492.917 26.9834 509.19 18.7937 537.273L222.643 596.72C230.045 571.338 214.798 542.943 186.179 522.381C183.678 520.565 181.801 518.018 180.808 515.09C179.815 512.163 179.753 509 180.633 506.037Z" fill="#FEB20E" stroke="#110002" stroke-width="9.34869" stroke-miterlimit="10"/>
<path d="M313.028 210.805L308.355 226.829C322.049 230.822 333.596 240.092 340.456 252.599C347.315 265.106 348.925 279.825 344.931 293.519C340.938 307.213 331.668 318.76 319.161 325.619C306.654 332.479 291.935 334.089 278.241 330.095L273.911 344.941C291.705 350.13 310.831 348.038 327.081 339.125C343.332 330.213 355.377 315.21 360.566 297.416C365.755 279.623 363.663 260.497 354.75 244.246C345.838 227.995 330.834 215.951 313.041 210.762L313.028 210.805Z" fill="#FEB20E" stroke="#110002" stroke-width="9.34869" stroke-miterlimit="10"/>
<path d="M146.706 162.302L142.033 178.326C128.339 174.333 113.62 175.943 101.113 182.802C88.6061 189.661 79.3363 201.208 75.3428 214.902C71.3494 228.596 72.9594 243.316 79.8187 255.823C86.678 268.329 98.2247 277.599 111.919 281.593L107.589 296.439C89.7961 291.25 74.7928 279.205 65.8802 262.954C56.9676 246.703 54.8756 227.577 60.0645 209.784C65.2534 191.991 77.2981 176.987 93.549 168.075C109.8 159.162 128.926 157.07 146.719 162.259L146.706 162.302Z" fill="#FEB20E" stroke="#110002" stroke-width="9.34869" stroke-miterlimit="10"/>
<path d="M145.533 110.378L345.262 168.624C345.919 168.815 346.473 169.26 346.802 169.86C347.131 170.46 347.209 171.166 347.017 171.823L297.669 341.044C289.752 368.19 271.376 391.08 246.583 404.677C221.79 418.275 192.611 421.466 165.465 413.55C138.319 405.633 115.429 387.258 101.832 362.465C88.2342 337.672 85.0426 308.492 92.959 281.346L142.31 112.117C142.502 111.46 142.946 110.906 143.546 110.577C144.146 110.248 144.853 110.17 145.51 110.362L145.533 110.378Z" fill="#FEB20E" stroke="#110002" stroke-width="9.34869" stroke-miterlimit="10"/>
<path d="M239.113 161.037C295.632 177.52 343.896 182.494 346.914 172.148C349.931 161.802 306.559 140.053 250.039 123.57C193.52 107.088 145.256 102.114 142.238 112.46C139.221 122.806 182.593 144.555 239.113 161.037Z" fill="#110002" stroke="#110002" stroke-width="9.34869" stroke-miterlimit="10"/>
<path d="M215.823 241.126L220.102 265.37C220.201 265.93 220.435 266.459 220.783 266.909C221.131 267.36 221.583 267.72 222.1 267.959L244.483 278.219C245.081 278.49 245.59 278.922 245.954 279.467C246.317 280.013 246.521 280.649 246.541 281.305C246.561 281.96 246.396 282.608 246.066 283.174C245.736 283.741 245.254 284.203 244.674 284.509L222.947 296.064C222.448 296.336 222.02 296.723 221.7 297.192C221.38 297.662 221.176 298.201 221.105 298.765L218.316 323.178C218.241 323.829 217.986 324.447 217.578 324.96C217.171 325.474 216.628 325.863 216.011 326.084C215.394 326.305 214.728 326.349 214.087 326.211C213.446 326.073 212.857 325.759 212.386 325.303L194.682 308.213C194.272 307.818 193.772 307.528 193.225 307.369C192.678 307.209 192.101 307.185 191.542 307.298L167.393 312.182C166.75 312.313 166.084 312.262 165.47 312.033C164.856 311.805 164.317 311.41 163.916 310.892C163.514 310.374 163.266 309.754 163.198 309.102C163.131 308.45 163.247 307.792 163.535 307.203L174.361 285.087C174.611 284.576 174.734 284.012 174.717 283.443C174.701 282.874 174.547 282.318 174.268 281.821L162.152 260.388C161.831 259.818 161.676 259.169 161.704 258.516C161.732 257.862 161.941 257.229 162.31 256.689C162.678 256.148 163.19 255.721 163.788 255.456C164.386 255.19 165.046 255.097 165.694 255.187L189.833 259.426C190.403 259.514 190.986 259.459 191.53 259.268C192.074 259.077 192.563 258.754 192.953 258.33L209.841 239.335C210.288 238.87 210.855 238.537 211.479 238.374C212.103 238.21 212.76 238.221 213.378 238.406C213.996 238.591 214.551 238.943 214.983 239.423C215.414 239.902 215.705 240.492 215.823 241.126Z" fill="#110002" stroke="#110002" stroke-width="9.34869" stroke-miterlimit="10"/>
<g clip-path="url(#clip1_2501_6191)">
<path d="M130.644 210.906C130.644 210.906 127.644 137.3 117.839 127.032C108.034 116.763 63.1777 111.644 63.1777 111.644C63.1777 111.644 108.235 108.644 118.504 98.8389C128.773 89.034 133.892 44.1777 133.892 44.1777C133.892 44.1777 136.892 89.2351 146.689 99.5039C156.486 109.773 201.358 114.892 201.358 114.892C201.358 114.892 156.3 117.892 146.032 127.689C135.763 137.486 130.644 210.906 130.644 210.906Z" fill="#FFEADF" stroke="black" stroke-width="3.09301" stroke-miterlimit="10"/>
</g>
<g clip-path="url(#clip2_2501_6191)">
<path d="M341.644 519.906C341.644 519.906 338.644 446.3 328.839 436.032C319.034 425.763 274.178 420.644 274.178 420.644C274.178 420.644 319.235 417.644 329.504 407.839C339.773 398.034 344.892 353.178 344.892 353.178C344.892 353.178 347.892 398.235 357.689 408.504C367.486 418.773 412.358 423.892 412.358 423.892C412.358 423.892 367.3 426.892 357.032 436.689C346.763 446.486 341.644 519.906 341.644 519.906Z" fill="#FFEADF" stroke="black" stroke-width="3.09301" stroke-miterlimit="10"/>
</g>
</g>
<rect x="2" y="2" width="417.042" height="455.908" stroke="black" stroke-width="4"/>
<defs>
<clipPath id="clip0_2501_6191">
<rect width="421.042" height="459.908" fill="white"/>
</clipPath>
<clipPath id="clip1_2501_6191">
<rect width="138.536" height="167.015" fill="white" transform="translate(63 44)"/>
</clipPath>
<clipPath id="clip2_2501_6191">
<rect width="138.536" height="167.015" fill="white" transform="translate(274 353)"/>
</clipPath>
</defs>
</svg>
