<svg width="422" height="460" viewBox="0 0 422 460" fill="none" xmlns="http://www.w3.org/2000/svg">
<g clip-path="url(#clip0_2501_6220)">
<path d="M418.829 2.21094H2.21216V457.699H418.829V2.21094Z" fill="white" stroke="#110002" stroke-width="5.19805" stroke-miterlimit="10"/>
<path d="M398.818 22.3662H20.9941V437.278H398.818V22.3662Z" fill="#069154" stroke="#110002" stroke-width="5.19805" stroke-miterlimit="10"/>
<path d="M76.6031 394.807C33.0173 388.513 13.4216 437.279 9.07203 462.448L32.3386 443.667C30.5468 464.012 24.0272 507.643 12.2829 519.407C-24.4072 542.764 -17.8883 572.099 -10.0427 583.847C-11.7103 571.642 -9.03313 546.73 15.016 544.722C75.5927 541.96 102.469 513.833 108.335 500.115L98.4248 544.428L124.836 500.328L133.668 520.891C159.369 438.139 131.085 402.674 76.6031 394.807Z" fill="#F43518" stroke="black" stroke-width="6.12254"/>
<path d="M285.842 139.001C142.107 172.572 83.8233 307.716 72.6483 371.092L161.074 425.044C282.348 345.198 294.783 201.079 285.842 139.001Z" fill="white" stroke="black" stroke-width="6.12254"/>
<rect x="70.5343" y="368.946" width="109.448" height="14.5871" rx="7.29357" transform="rotate(30.5824 70.5343 368.946)" fill="#6979BE" stroke="black" stroke-width="3.06127"/>
<path d="M14.3314 373.4C38.5429 348.787 63.2941 357.688 72.6433 365.215L107.834 277.03C35.694 292.46 15.4406 347.706 14.3314 373.4Z" fill="#F43518" stroke="black" stroke-width="6.12254"/>
<path d="M232.672 354.234L170.337 418.481C194.939 428.587 189.666 467.893 183.955 486.282C246.49 446.448 242.489 381.653 232.672 354.234Z" fill="#F43518"/>
<path d="M103.202 417.857C108.603 388.166 127.088 326.065 157.821 315.19C196.237 301.596 186.568 364.67 103.202 417.857Z" fill="#F43518"/>
<path d="M283.427 226.48C235.136 215.488 210.008 188.715 201.559 175.913C235.537 153.101 271.152 141.95 284.712 139.227C291.233 152.965 285.291 202.593 283.427 226.48Z" fill="#F43518"/>
<path d="M232.672 354.234L170.337 418.481C194.939 428.587 189.666 467.893 183.955 486.282C246.49 446.448 242.489 381.653 232.672 354.234Z" stroke="black" stroke-width="6.12254"/>
<path d="M103.202 417.857C108.603 388.166 127.088 326.065 157.821 315.19C196.237 301.596 186.568 364.67 103.202 417.857Z" stroke="black" stroke-width="6.12254"/>
<path d="M283.427 226.48C235.136 215.488 210.008 188.715 201.559 175.913C235.537 153.101 271.152 141.95 284.712 139.227C291.233 152.965 285.291 202.593 283.427 226.48Z" stroke="black" stroke-width="6.12254"/>
<circle cx="205.247" cy="264.519" r="30.3638" transform="rotate(-11.3566 205.247 264.519)" fill="#6979BE" stroke="black" stroke-width="6.12254"/>
<path d="M413.834 46.9902L356.776 124.269L299.718 46.9902L282.736 24H242.653L299.718 101.273L356.776 178.546L413.834 101.273L470.892 24H430.816L413.834 46.9902Z" fill="#F43518" stroke="#110002" stroke-width="6.45035" stroke-linejoin="round"/>
<path d="M359.872 240C379.506 240 395.423 224.083 395.423 204.448C395.423 184.813 379.506 168.896 359.872 168.896C340.237 168.896 324.32 184.813 324.32 204.448C324.32 224.083 340.237 240 359.872 240Z" fill="#110002" stroke="#110002" stroke-width="6.45035" stroke-linejoin="round"/>
<path d="M354.24 240C373.875 240 389.792 224.083 389.792 204.448C389.792 184.813 373.875 168.896 354.24 168.896C334.606 168.896 318.689 184.813 318.689 204.448C318.689 224.083 334.606 240 354.24 240Z" fill="#FEB20E" stroke="#110002" stroke-width="6.45035" stroke-miterlimit="10"/>
<path d="M354.47 228.872C367.973 228.872 378.919 217.926 378.919 204.423C378.919 190.92 367.973 179.974 354.47 179.974C340.967 179.974 330.021 190.92 330.021 204.423C330.021 217.926 340.967 228.872 354.47 228.872Z" fill="#FEB20E" stroke="#110002" stroke-width="6.45035" stroke-miterlimit="10"/>
<path d="M260.722 24L355.304 150.56C355.472 150.788 355.691 150.973 355.943 151.1C356.196 151.228 356.474 151.294 356.757 151.294C357.04 151.294 357.318 151.228 357.571 151.1C357.823 150.973 358.042 150.788 358.21 150.56L450.152 24.0185" stroke="white" stroke-width="6.45035" stroke-miterlimit="10"/>
<g clip-path="url(#clip1_2501_6220)">
<path d="M383.851 298.924C383.851 298.924 381.729 246.919 374.793 239.664C367.857 232.409 336.126 228.793 336.126 228.793C336.126 228.793 367.999 226.673 375.263 219.745C382.527 212.818 386.149 181.126 386.149 181.126C386.149 181.126 388.271 212.96 395.201 220.215C402.132 227.47 433.874 231.087 433.874 231.087C433.874 231.087 402.001 233.207 394.736 240.129C387.472 247.051 383.851 298.924 383.851 298.924Z" fill="#FFEADF" stroke="black" stroke-width="3.09301" stroke-miterlimit="10"/>
</g>
<path d="M83.7255 150.798C83.7255 150.798 81.6031 98.7935 74.6672 91.5383C67.7313 84.2832 36 80.6666 36 80.6666C36 80.6666 67.8735 78.5468 75.1376 71.6195C82.4018 64.6921 86.0229 33 86.0229 33C86.0229 33 88.1452 64.8342 95.0757 72.0893C102.006 79.3445 133.748 82.9611 133.748 82.9611C133.748 82.9611 101.875 85.0808 94.6107 92.0027C87.3466 98.9246 83.7255 150.798 83.7255 150.798Z" fill="#FFEADF" stroke="black" stroke-width="3.09301" stroke-miterlimit="10"/>
</g>
<rect x="2" y="2" width="417.042" height="455.908" stroke="black" stroke-width="4"/>
<defs>
<clipPath id="clip0_2501_6220">
<rect width="421.042" height="459.908" fill="white"/>
</clipPath>
<clipPath id="clip1_2501_6220">
<rect width="98" height="118" fill="white" transform="translate(336 181)"/>
</clipPath>
</defs>
</svg>
